<svg width="23" height="23" viewBox="0 0 23 23" fill="none" xmlns="http://www.w3.org/2000/svg">
<path d="M0.802653 23H17.2031C17.649 23 18.0104 22.6386 18.0104 22.1927V18.0057H22.1973C22.6433 18.0057 23 17.6443 23 17.2031V0.802653C23 0.356735 22.6386 0 22.1973 0H5.79694C5.35102 0 4.98959 0.361429 4.98959 0.802653V4.98959H0.802653C0.356735 4.98959 0 5.35102 0 5.79694V22.1973C0 22.6386 0.361429 23 0.802653 23ZM6.59959 1.61H21.39V16.4004H6.59959V1.61ZM1.61 6.59959H4.98959V17.2031C4.98959 17.649 5.35102 18.0057 5.79694 18.0057H16.4004V21.3853H1.61V6.59959Z" fill="#1E9EB0"/>
<path d="M10.3027 9.81024H13.1894V12.697C13.1894 13.1429 13.5509 13.5043 13.9968 13.5043C14.4427 13.5043 14.7994 13.1429 14.7994 12.697V9.81024H17.6862C18.1321 9.81024 18.4888 9.44881 18.4888 9.00289C18.4888 8.55698 18.1274 8.19555 17.6862 8.19555H14.7994V5.30881C14.7994 4.86289 14.438 4.50146 13.9968 4.50146C13.5509 4.50146 13.1894 4.86289 13.1894 5.30881V8.19555H10.3027C9.85678 8.19555 9.50005 8.55698 9.50005 9.00289C9.49535 9.44881 9.85678 9.81024 10.3027 9.81024Z" fill="#1E9EB0"/>
</svg>
