<svg width="585" height="295" viewBox="0 0 585 295" fill="none" xmlns="http://www.w3.org/2000/svg">
<path d="M571.587 286.809H489.258C486.076 286.809 483.497 284.23 483.497 281.048V166.174C483.497 162.992 486.076 160.413 489.258 160.413H571.587C574.769 160.413 577.348 162.992 577.348 166.174V281.048C577.348 284.23 574.769 286.809 571.587 286.809Z" fill="#D1E5FC"/>
<path d="M571.584 287.484H489.255C485.707 287.484 482.82 284.597 482.82 281.048V166.174C482.82 162.627 485.707 159.74 489.255 159.74H571.584C575.132 159.74 578.019 162.627 578.019 166.174V281.048C578.019 284.597 575.132 287.484 571.584 287.484ZM489.255 161.087C486.45 161.087 484.167 163.369 484.167 166.174V281.048C484.167 283.854 486.45 286.137 489.255 286.137H571.584C574.389 286.137 576.672 283.854 576.672 281.048V166.174C576.672 163.369 574.389 161.087 571.584 161.087H489.255Z" fill="#2B2A29"/>
<path d="M538.289 195.141H505.432C504.542 195.141 503.821 194.42 503.821 193.531V193.498C503.821 192.609 504.542 191.887 505.432 191.887H538.289C539.179 191.887 539.9 192.609 539.9 193.498V193.531C539.9 194.42 539.179 195.141 538.289 195.141Z" fill="#B8D2F9"/>
<path d="M538.291 195.319H505.433C504.452 195.319 503.655 194.52 503.655 193.54C503.655 192.526 504.452 191.728 505.433 191.728H538.291C539.272 191.728 540.07 192.526 540.07 193.508C540.07 194.52 539.272 195.319 538.291 195.319ZM505.433 192.065C504.638 192.065 503.991 192.712 503.991 193.508C503.991 194.335 504.638 194.982 505.433 194.982H538.291C539.086 194.982 539.733 194.335 539.733 193.54C539.733 192.712 539.086 192.065 538.291 192.065H505.433Z" fill="#2B2A29"/>
<path d="M538.289 200.647H505.432C504.542 200.647 503.821 199.926 503.821 199.036V199.004C503.821 198.114 504.542 197.393 505.432 197.393H538.289C539.179 197.393 539.9 198.114 539.9 199.004V199.036C539.9 199.926 539.179 200.647 538.289 200.647Z" fill="#B8D2F9"/>
<path d="M538.291 200.824H505.433C504.452 200.824 503.655 200.026 503.655 199.046C503.655 198.032 504.452 197.234 505.433 197.234H538.291C539.272 197.234 540.07 198.032 540.07 199.013C540.07 200.026 539.272 200.824 538.291 200.824ZM505.433 197.57C504.638 197.57 503.991 198.217 503.991 199.013C503.991 199.84 504.638 200.488 505.433 200.488H538.291C539.086 200.488 539.733 199.84 539.733 199.046C539.733 198.217 539.086 197.57 538.291 197.57H505.433Z" fill="#2B2A29"/>
<path d="M538.103 206.149H505.246C504.356 206.149 503.635 205.428 503.635 204.539V204.506C503.635 203.617 504.356 202.896 505.42 202.896H538.278C538.993 202.896 539.714 203.617 539.714 204.506V204.539C539.714 205.428 538.993 206.149 538.103 206.149Z" fill="#B8D2F9"/>
<path d="M538.113 206.331H505.255C504.274 206.331 503.477 205.533 503.477 204.551C503.477 203.506 504.316 202.74 505.43 202.74H538.287C539.142 202.74 539.892 203.571 539.892 204.52C539.892 205.533 539.094 206.331 538.113 206.331ZM505.43 203.077C504.493 203.077 503.813 203.683 503.813 204.52C503.813 205.347 504.46 205.994 505.255 205.994H538.113C538.908 205.994 539.555 205.347 539.555 204.551C539.555 203.694 538.886 203.077 538.287 203.077H505.43Z" fill="#2B2A29"/>
<path d="M538.289 222.395H505.432C504.542 222.395 503.821 221.674 503.821 220.784V220.752C503.821 219.862 504.542 219.141 505.432 219.141H538.289C539.179 219.141 539.9 219.862 539.9 220.752V220.784C539.9 221.674 539.179 222.395 538.289 222.395Z" fill="#B8D2F9"/>
<path d="M538.291 222.573H505.433C504.452 222.573 503.655 221.774 503.655 220.793C503.655 219.78 504.452 218.982 505.433 218.982H538.291C539.272 218.982 540.07 219.78 540.07 220.761C540.07 221.774 539.272 222.573 538.291 222.573ZM505.433 219.319C504.638 219.319 503.991 219.966 503.991 220.761C503.991 221.589 504.638 222.236 505.433 222.236H538.291C539.086 222.236 539.733 221.589 539.733 220.793C539.733 219.966 539.086 219.319 538.291 219.319H505.433Z" fill="#2B2A29"/>
<path d="M538.289 227.901H505.432C504.542 227.901 503.821 227.179 503.821 226.29V226.257C503.821 225.368 504.542 224.647 505.432 224.647H538.289C539.179 224.647 539.9 225.368 539.9 226.257V226.29C539.9 227.179 539.179 227.901 538.289 227.901Z" fill="#B8D2F9"/>
<path d="M538.291 228.078H505.433C504.452 228.078 503.655 227.28 503.655 226.299C503.655 225.286 504.452 224.488 505.433 224.488H538.291C539.272 224.488 540.07 225.286 540.07 226.267C540.07 227.28 539.272 228.078 538.291 228.078ZM505.433 224.824C504.638 224.824 503.991 225.472 503.991 226.267C503.991 227.095 504.638 227.742 505.433 227.742H538.291C539.086 227.742 539.733 227.095 539.733 226.299C539.733 225.472 539.086 224.824 538.291 224.824H505.433Z" fill="#2B2A29"/>
<path d="M538.289 233.406H505.432C504.542 233.406 503.821 232.685 503.821 231.796V231.763C503.821 230.873 504.542 230.152 505.432 230.152H538.289C539.179 230.152 539.9 230.873 539.9 231.763V231.796C539.9 232.685 539.179 233.406 538.289 233.406Z" fill="#B8D2F9"/>
<path d="M538.291 233.584H505.433C504.452 233.584 503.655 232.786 503.655 231.805C503.655 230.792 504.452 229.993 505.433 229.993H538.291C539.272 229.993 540.07 230.792 540.07 231.772C540.07 232.786 539.272 233.584 538.291 233.584ZM505.433 230.33C504.638 230.33 503.991 230.977 503.991 231.772C503.991 232.6 504.638 233.247 505.433 233.247H538.291C539.086 233.247 539.733 232.6 539.733 231.805C539.733 230.977 539.086 230.33 538.291 230.33H505.433Z" fill="#2B2A29"/>
<path d="M538.289 249.649H505.432C504.542 249.649 503.821 248.928 503.821 248.039V248.006C503.821 247.117 504.542 246.396 505.432 246.396H538.289C539.179 246.396 539.9 247.117 539.9 248.006V248.039C539.9 248.928 539.179 249.649 538.289 249.649Z" fill="#B8D2F9"/>
<path d="M538.291 249.828H505.433C504.452 249.828 503.655 249.029 503.655 248.048C503.655 247.035 504.452 246.237 505.433 246.237H538.291C539.272 246.237 540.07 247.035 540.07 248.015C540.07 249.029 539.272 249.828 538.291 249.828ZM505.433 246.574C504.638 246.574 503.991 247.221 503.991 248.015C503.991 248.844 504.638 249.491 505.433 249.491H538.291C539.086 249.491 539.733 248.844 539.733 248.048C539.733 247.221 539.086 246.574 538.291 246.574H505.433Z" fill="#2B2A29"/>
<path d="M538.289 255.155H505.432C504.542 255.155 503.821 254.434 503.821 253.545V253.512C503.821 252.622 504.542 251.901 505.432 251.901H538.289C539.179 251.901 539.9 252.622 539.9 253.512V253.545C539.9 254.434 539.179 255.155 538.289 255.155Z" fill="#B8D2F9"/>
<path d="M538.291 255.334H505.433C504.452 255.334 503.655 254.535 503.655 253.554C503.655 252.541 504.452 251.743 505.433 251.743H538.291C539.272 251.743 540.07 252.541 540.07 253.521C540.07 254.535 539.272 255.334 538.291 255.334ZM505.433 252.08C504.638 252.08 503.991 252.727 503.991 253.521C503.991 254.35 504.638 254.997 505.433 254.997H538.291C539.086 254.997 539.733 254.35 539.733 253.554C539.733 252.727 539.086 252.08 538.291 252.08H505.433Z" fill="#2B2A29"/>
<path d="M538.289 260.66H505.432C504.542 260.66 503.821 259.939 503.821 259.049V259.017C503.821 258.127 504.542 257.406 505.432 257.406H538.289C539.179 257.406 539.9 258.127 539.9 259.017V259.049C539.9 259.939 539.179 260.66 538.289 260.66Z" fill="#B8D2F9"/>
<path d="M538.291 260.839H505.433C504.452 260.839 503.655 260.041 503.655 259.059C503.655 258.047 504.452 257.248 505.433 257.248H538.291C539.272 257.248 540.07 258.047 540.07 259.027C540.07 260.041 539.272 260.839 538.291 260.839ZM505.433 257.585C504.638 257.585 503.991 258.232 503.991 259.027C503.991 259.855 504.638 260.502 505.433 260.502H538.291C539.086 260.502 539.733 259.855 539.733 259.059C539.733 258.232 539.086 257.585 538.291 257.585H505.433Z" fill="#2B2A29"/>
<path d="M564.156 204.523H547.932C547.043 204.523 546.322 203.802 546.322 202.913V195.709C546.322 194.819 547.043 194.098 547.932 194.098H564.156C565.045 194.098 565.767 194.819 565.767 195.709V202.913C565.767 203.802 565.045 204.523 564.156 204.523Z" fill="white"/>
<path d="M564.162 204.871H547.938C546.864 204.871 545.99 203.998 545.99 202.924V195.72C545.99 194.646 546.864 193.773 547.938 193.773H564.162C565.236 193.773 566.109 194.646 566.109 195.72V202.924C566.109 203.998 565.236 204.871 564.162 204.871ZM547.938 194.446C547.235 194.446 546.664 195.017 546.664 195.72V202.924C546.664 203.627 547.235 204.198 547.938 204.198H564.162C564.864 204.198 565.436 203.627 565.436 202.924V195.72C565.436 195.017 564.864 194.446 564.162 194.446H547.938Z" fill="#2B2A29"/>
<path d="M564.156 231.486H547.932C547.043 231.486 546.322 230.765 546.322 229.875V222.671C546.322 221.781 547.043 221.06 547.932 221.06H564.156C565.045 221.06 565.767 221.781 565.767 222.671V229.875C565.767 230.765 565.045 231.486 564.156 231.486Z" fill="white"/>
<path d="M564.162 231.833H547.938C546.864 231.833 545.99 230.96 545.99 229.886V222.681C545.99 221.608 546.864 220.735 547.938 220.735H564.162C565.236 220.735 566.109 221.608 566.109 222.681V229.886C566.109 230.96 565.236 231.833 564.162 231.833ZM547.938 221.408C547.235 221.408 546.664 221.979 546.664 222.681V229.886C546.664 230.589 547.235 231.16 547.938 231.16H564.162C564.864 231.16 565.436 230.589 565.436 229.886V222.681C565.436 221.979 564.864 221.408 564.162 221.408H547.938Z" fill="#2B2A29"/>
<path d="M564.323 258.738H548.099C547.209 258.738 546.488 258.017 546.488 257.127V249.923C546.488 249.034 547.209 248.312 548.099 248.312H564.323C565.212 248.312 565.933 249.034 565.933 249.923V257.127C565.933 258.017 565.212 258.738 564.323 258.738Z" fill="white"/>
<path d="M564.34 259.088H548.117C547.043 259.088 546.169 258.215 546.169 257.14V249.936C546.169 248.862 547.043 247.989 548.117 247.989H564.34C565.414 247.989 566.287 248.862 566.287 249.936V257.14C566.287 258.215 565.414 259.088 564.34 259.088ZM548.117 248.662C547.414 248.662 546.842 249.234 546.842 249.936V257.14C546.842 257.842 547.414 258.415 548.117 258.415H564.34C565.043 258.415 565.614 257.842 565.614 257.14V249.936C565.614 249.234 565.043 248.662 564.34 248.662H548.117Z" fill="#2B2A29"/>
<path d="M556.253 228.999L556.969 228.911L556.977 228.921L557.643 229.789L559.184 228.608L558.524 227.748L558.51 227.729L558.846 226.871L558.892 226.865L559.942 226.716L559.67 224.794L558.638 224.94L558.574 224.949C558.574 224.949 558.426 224.738 558.327 224.607C558.218 224.464 558.099 224.272 558.099 224.272L558.112 224.24L558.514 223.246L556.715 222.517L556.334 223.458L556.301 223.539C555.998 223.524 555.691 223.56 555.394 223.648L555.339 223.578L554.717 222.788L553.192 223.988L553.801 224.763L553.856 224.833C553.7 225.088 553.588 225.366 553.524 225.653L553.436 225.665L552.513 225.797L552.787 227.719L553.718 227.586L553.806 227.574C553.866 227.681 553.934 227.785 554.01 227.885C554.136 228.051 554.278 228.198 554.431 228.327L554.4 228.408L554.042 229.325L555.851 230.03L556.237 229.039L556.253 228.999ZM555.122 227.041C554.682 226.463 554.795 225.638 555.374 225.199C555.952 224.76 556.777 224.873 557.216 225.451C557.655 226.029 557.542 226.854 556.964 227.293C556.385 227.732 555.56 227.619 555.122 227.041Z" fill="#507097"/>
<path d="M555.9 230.159L553.92 229.387L554.319 228.364C554.177 228.239 554.047 228.1 553.934 227.951C553.87 227.867 553.809 227.777 553.754 227.683L552.706 227.833L552.406 225.729L553.446 225.581C553.509 225.324 553.609 225.079 553.742 224.85L553.726 224.829L553.059 223.983L554.729 222.668L555.425 223.553C555.688 223.481 555.961 223.448 556.237 223.455L556.246 223.433L556.661 222.407L558.631 223.205L558.199 224.272C558.239 224.335 558.321 224.461 558.397 224.562C558.469 224.656 558.564 224.79 558.613 224.86L558.622 224.859L559.745 224.7L560.043 226.804L558.909 226.964L558.611 227.725L559.309 228.635L557.623 229.928L556.925 229.018L556.315 229.094L555.9 230.159ZM554.158 229.282L555.795 229.921L556.184 228.925L557.007 228.823L557.047 228.875L557.657 229.67L559.052 228.601L558.403 227.754L558.777 226.798L558.876 226.783L559.835 226.648L559.588 224.908L558.527 225.058L558.495 225.012C558.494 225.01 558.348 224.8 558.251 224.673C558.14 224.527 558.023 224.338 558.018 224.33L557.993 224.291L558.391 223.306L556.762 222.647L556.359 223.644L556.294 223.641C555.997 223.626 555.7 223.662 555.417 223.746L555.357 223.764L554.699 222.927L553.318 224.014L553.965 224.836L553.931 224.89C553.781 225.136 553.673 225.403 553.611 225.683L553.597 225.745L553.446 225.766L552.614 225.885L552.862 227.625L553.852 227.484L553.883 227.539C553.942 227.645 554.009 227.746 554.08 227.84C554.199 227.996 554.336 228.139 554.487 228.266L554.538 228.308L554.158 229.282ZM556.166 227.663C555.722 227.663 555.313 227.46 555.045 227.107C554.576 226.489 554.697 225.605 555.315 225.136C555.562 224.948 555.855 224.849 556.164 224.849C556.609 224.849 557.017 225.052 557.286 225.406C557.755 226.023 557.634 226.907 557.016 227.376C556.769 227.564 556.475 227.663 556.166 227.663ZM556.164 225.033C555.896 225.033 555.641 225.119 555.426 225.282C554.889 225.69 554.784 226.458 555.192 226.996C555.425 227.303 555.78 227.479 556.166 227.479C556.435 227.479 556.69 227.393 556.905 227.23C557.442 226.822 557.547 226.054 557.139 225.517C556.906 225.21 556.551 225.033 556.164 225.033Z" fill="#52505B"/>
<path d="M558.518 227.749C558.693 227.475 558.816 227.176 558.886 226.865C559.031 226.228 558.952 225.544 558.632 224.941C558.562 224.809 558.48 224.681 558.387 224.558C558.3 224.444 558.206 224.338 558.106 224.24C557.616 223.764 556.98 223.498 556.328 223.459C555.995 223.439 555.658 223.478 555.333 223.579C555.031 223.673 554.74 223.82 554.474 224.022C554.196 224.233 553.969 224.485 553.795 224.763C553.62 225.043 553.497 225.349 553.43 225.666C553.295 226.305 553.383 226.988 553.711 227.587C553.777 227.707 553.853 227.824 553.938 227.936C554.074 228.115 554.227 228.273 554.393 228.409C554.918 228.839 555.574 229.055 556.231 229.039C556.48 229.034 556.729 228.995 556.971 228.922C557.28 228.828 557.579 228.679 557.852 228.472C558.123 228.266 558.346 228.02 558.518 227.749ZM555.115 227.042C554.676 226.464 554.789 225.639 555.368 225.2C555.946 224.761 556.77 224.874 557.21 225.452C557.648 226.03 557.536 226.855 556.957 227.294C556.379 227.733 555.554 227.62 555.115 227.042Z" fill="#507097"/>
<path d="M556.164 229.141C555.497 229.141 554.848 228.91 554.336 228.489C554.162 228.347 554.003 228.183 553.865 228.001C553.779 227.887 553.7 227.766 553.631 227.64C553.301 227.037 553.197 226.333 553.341 225.656C553.411 225.324 553.538 225.011 553.718 224.724C553.902 224.429 554.138 224.171 554.418 223.958C554.688 223.754 554.987 223.599 555.306 223.5C555.583 223.415 555.87 223.371 556.161 223.371C556.219 223.371 556.277 223.373 556.334 223.376C557.025 223.418 557.677 223.704 558.171 224.184C558.276 224.286 558.374 224.397 558.461 224.512C558.556 224.637 558.641 224.77 558.714 224.907C559.036 225.515 559.129 226.221 558.976 226.895C558.903 227.221 558.775 227.528 558.596 227.808C558.414 228.094 558.182 228.345 557.908 228.554C557.632 228.763 557.326 228.919 556.998 229.019C556.75 229.094 556.493 229.134 556.234 229.141C556.211 229.141 556.188 229.141 556.164 229.141ZM556.161 223.555C555.889 223.555 555.62 223.596 555.361 223.676C555.062 223.769 554.782 223.913 554.53 224.105C554.267 224.304 554.046 224.545 553.873 224.821C553.705 225.09 553.587 225.384 553.521 225.695C553.386 226.328 553.483 226.987 553.793 227.552C553.857 227.669 553.931 227.783 554.012 227.89C554.141 228.06 554.289 228.214 554.452 228.347C554.932 228.741 555.54 228.957 556.164 228.958H556.164C556.186 228.958 556.208 228.957 556.23 228.957C556.472 228.951 556.713 228.913 556.945 228.843C557.252 228.75 557.539 228.603 557.797 228.407C558.054 228.212 558.271 227.977 558.441 227.709C558.609 227.447 558.728 227.16 558.797 226.854C558.94 226.223 558.853 225.562 558.551 224.993C558.483 224.865 558.403 224.74 558.315 224.623C558.233 224.515 558.141 224.412 558.042 224.315C557.581 223.867 556.97 223.599 556.323 223.56C556.27 223.557 556.215 223.555 556.161 223.555ZM556.164 227.663C555.72 227.663 555.311 227.46 555.043 227.107C554.816 226.808 554.718 226.438 554.769 226.065C554.82 225.693 555.013 225.363 555.313 225.136C555.559 224.948 555.853 224.85 556.162 224.85C556.606 224.85 557.015 225.052 557.283 225.406C557.51 225.705 557.607 226.075 557.557 226.447C557.506 226.819 557.313 227.149 557.014 227.376C556.767 227.564 556.473 227.663 556.164 227.663ZM556.162 225.033C555.893 225.033 555.638 225.119 555.424 225.282C555.164 225.48 554.996 225.767 554.952 226.09C554.907 226.414 554.992 226.736 555.189 226.996C555.422 227.303 555.778 227.479 556.164 227.479C556.432 227.479 556.688 227.393 556.902 227.23C557.162 227.032 557.33 226.746 557.374 226.422C557.419 226.098 557.334 225.777 557.137 225.517C556.904 225.21 556.548 225.033 556.162 225.033Z" fill="#52505B"/>
<path d="M559.154 197.32L555.756 199.189L555.685 199.228L552.356 197.32L555.756 195.355L559.154 197.32Z" fill="#FDAD67"/>
<path d="M555.665 199.562C555.613 199.562 555.565 199.553 555.528 199.532L552.199 197.623C552.095 197.564 552.03 197.452 552.03 197.331C552.03 197.211 552.094 197.1 552.199 197.039L555.599 195.074C555.704 195.015 555.833 195.015 555.935 195.074L559.333 197.039C559.438 197.101 559.502 197.213 559.501 197.335C559.5 197.456 559.433 197.568 559.327 197.626L555.929 199.496C555.863 199.533 555.758 199.562 555.665 199.562ZM553.042 197.33L555.7 198.854L558.479 197.323L555.767 195.755L553.042 197.33Z" fill="#52505B"/>
<path d="M559.18 197.323V201.247L555.782 203.209V199.192L559.18 197.323Z" fill="#FDAD67"/>
<path d="M555.776 203.554C555.718 203.554 555.66 203.539 555.608 203.509C555.504 203.449 555.439 203.337 555.439 203.217V199.202C555.439 199.079 555.506 198.966 555.613 198.907L559.011 197.037C559.115 196.98 559.242 196.982 559.345 197.042C559.447 197.103 559.51 197.212 559.51 197.332V201.256C559.51 201.376 559.445 201.488 559.342 201.548L555.944 203.509C555.892 203.539 555.834 203.554 555.776 203.554ZM556.113 199.4V202.635L558.836 201.062V197.901L556.113 199.4Z" fill="#52505B"/>
<path d="M555.757 199.269V203.207L552.357 201.244V197.32L555.686 199.228L555.757 199.269Z" fill="#FD923D"/>
<path d="M555.768 203.554C555.71 203.554 555.651 203.539 555.599 203.509L552.199 201.548C552.095 201.488 552.031 201.376 552.031 201.256V197.332C552.031 197.212 552.095 197.1 552.199 197.04C552.303 196.982 552.431 196.978 552.535 197.04L555.864 198.948C555.969 199.008 556.104 199.16 556.104 199.281V203.217C556.104 203.337 556.04 203.449 555.936 203.509C555.884 203.539 555.825 203.554 555.768 203.554ZM552.704 201.062L555.431 202.635V199.475L552.704 197.913V201.062Z" fill="#52505B"/>
<path d="M552.539 252.819C552.539 252.819 553.756 250.303 555.461 250.303C555.461 250.303 555.948 252.007 556.922 250.303C556.922 250.303 559.194 250.627 559.519 252.819H558.464L558.491 256.958H553.513L553.675 252.9L552.539 252.819Z" fill="#62D2D0"/>
<path d="M558.848 257.31H553.181L553.345 253.227L552.038 253.135L552.254 252.687C552.308 252.576 553.586 249.981 555.48 249.981H555.733L555.804 250.225C555.881 250.489 556.052 250.739 556.129 250.739C556.131 250.739 556.316 250.732 556.648 250.151L556.762 249.952L556.988 249.985C557.014 249.988 559.514 250.372 559.87 252.785L559.928 253.171H558.821L558.848 257.31ZM553.882 256.636H558.171L558.144 252.497H559.119C558.745 251.251 557.583 250.823 557.104 250.697C556.789 251.178 556.469 251.412 556.129 251.412C555.662 251.412 555.387 250.972 555.253 250.673C554.29 250.826 553.496 251.908 553.111 252.536L554.043 252.601L553.882 256.636Z" fill="#2B2A29"/>
<path d="M584.326 236.688C583.954 236.688 583.653 236.387 583.653 236.014V187.508C583.653 187.136 583.954 186.835 584.326 186.835C584.698 186.835 584.999 187.136 584.999 187.508V236.014C584.999 236.387 584.698 236.688 584.326 236.688Z" fill="#2B2A29"/>
<path d="M584.326 263.943C583.954 263.943 583.653 263.642 583.653 263.269V249.217C583.653 248.845 583.954 248.544 584.326 248.544C584.698 248.544 584.999 248.845 584.999 249.217V263.269C584.999 263.642 584.698 263.943 584.326 263.943Z" fill="#2B2A29"/>
<path d="M188.173 280.506H87.4151C80.389 280.506 74.6932 274.81 74.6932 267.784V123.263C74.6932 116.237 80.389 110.541 87.4151 110.541H188.173C195.199 110.541 200.894 116.237 200.894 123.263V267.784C200.894 274.81 195.199 280.506 188.173 280.506Z" fill="#E2F0FC"/>
<path d="M188.201 281.181H87.444C80.0576 281.181 74.0482 275.171 74.0482 267.785V123.264C74.0482 115.879 80.0576 109.869 87.444 109.869H188.201C195.588 109.869 201.596 115.879 201.596 123.264V267.785C201.596 275.171 195.588 281.181 188.201 281.181ZM87.444 111.216C80.8 111.216 75.395 116.621 75.395 123.264V267.785C75.395 274.428 80.8 279.834 87.444 279.834H188.201C194.845 279.834 200.25 274.428 200.25 267.785V123.264C200.25 116.621 194.845 111.216 188.201 111.216H87.444Z" fill="#2B2A29"/>
<path d="M172.466 137.5H103.122C99.3654 137.5 96.3204 134.455 96.3204 130.699V130.562C96.3204 126.806 99.3654 123.761 103.122 123.761H172.466C176.222 123.761 179.267 126.806 179.267 130.562V130.699C179.267 134.455 176.222 137.5 172.466 137.5Z" fill="#43B3BD"/>
<path d="M172.472 137.85H103.128C99.192 137.85 95.99 134.647 95.99 130.712V130.574C95.99 126.639 99.192 123.436 103.128 123.436H172.472C176.408 123.436 179.61 126.639 179.61 130.574V130.712C179.61 134.647 176.408 137.85 172.472 137.85ZM103.128 124.109C99.5635 124.109 96.6634 127.01 96.6634 130.574V130.712C96.6634 134.276 99.5635 137.176 103.128 137.176H172.472C176.037 137.176 178.937 134.276 178.937 130.712V130.574C178.937 127.01 176.037 124.109 172.472 124.109H103.128Z" fill="#2B2A29"/>
<path d="M89.4565 157.504H111.718C112.967 157.504 113.979 158.516 113.979 159.765V176.809C113.979 178.057 112.967 179.07 111.718 179.07H89.4565C88.2078 179.07 87.1956 178.057 87.1956 176.809V159.765C87.1956 158.516 88.2078 157.504 89.4565 157.504Z" fill="#FF9100"/>
<path d="M111.721 179.419H89.4588C88.0265 179.419 86.8612 178.254 86.8612 176.822V159.777C86.8612 158.345 88.0265 157.18 89.4588 157.18H111.721C113.153 157.18 114.318 158.345 114.318 159.777V176.822C114.318 178.254 113.153 179.419 111.721 179.419ZM89.4588 157.853C88.3981 157.853 87.5346 158.716 87.5346 159.777V176.822C87.5346 177.883 88.3981 178.746 89.4588 178.746H111.721C112.781 178.746 113.645 177.883 113.645 176.822V159.777C113.645 158.716 112.781 157.853 111.721 157.853H89.4588Z" fill="#2B2A29"/>
<path d="M89.4565 187.104H111.718C112.967 187.104 113.979 188.116 113.979 189.364V206.409C113.979 207.657 112.967 208.67 111.718 208.67H89.4565C88.2078 208.67 87.1956 207.657 87.1956 206.409V189.364C87.1956 188.116 88.2078 187.104 89.4565 187.104Z" fill="#FF9100"/>
<path d="M111.721 209.019H89.4588C88.0265 209.019 86.8612 207.854 86.8612 206.421V189.377C86.8612 187.945 88.0265 186.78 89.4588 186.78H111.721C113.153 186.78 114.318 187.945 114.318 189.377V206.421C114.318 207.854 113.153 209.019 111.721 209.019ZM89.4588 187.453C88.3981 187.453 87.5346 188.316 87.5346 189.377V206.421C87.5346 207.483 88.3981 208.346 89.4588 208.346H111.721C112.781 208.346 113.645 207.483 113.645 206.421V189.377C113.645 188.316 112.781 187.453 111.721 187.453H89.4588Z" fill="#2B2A29"/>
<path d="M89.4565 216.704H111.718C112.967 216.704 113.979 217.716 113.979 218.965V236.009C113.979 237.257 112.967 238.27 111.718 238.27H89.4565C88.2078 238.27 87.1956 237.257 87.1956 236.009V218.965C87.1956 217.716 88.2078 216.704 89.4565 216.704Z" fill="#FF9100"/>
<path d="M111.721 238.619H89.4588C88.0265 238.619 86.8612 237.454 86.8612 236.022V218.977C86.8612 217.545 88.0265 216.38 89.4588 216.38H111.721C113.153 216.38 114.318 217.545 114.318 218.977V236.022C114.318 237.454 113.153 238.619 111.721 238.619ZM89.4588 217.053C88.3981 217.053 87.5346 217.916 87.5346 218.977V236.022C87.5346 237.083 88.3981 237.946 89.4588 237.946H111.721C112.781 237.946 113.645 237.083 113.645 236.022V218.977C113.645 217.916 112.781 217.053 111.721 217.053H89.4588Z" fill="#2B2A29"/>
<path d="M89.4565 245.285H111.718C112.967 245.285 113.979 246.298 113.979 247.546V264.59C113.979 265.839 112.967 266.851 111.718 266.851H89.4565C88.2078 266.851 87.1956 265.839 87.1956 264.59V247.546C87.1956 246.298 88.2078 245.285 89.4565 245.285Z" fill="#FF9100"/>
<path d="M111.721 267.201H89.4588C88.0265 267.201 86.8612 266.036 86.8612 264.603V247.559C86.8612 246.127 88.0265 244.961 89.4588 244.961H111.721C113.153 244.961 114.318 246.127 114.318 247.559V264.603C114.318 266.036 113.153 267.201 111.721 267.201ZM89.4588 245.635C88.3981 245.635 87.5346 246.498 87.5346 247.559V264.603C87.5346 265.665 88.3981 266.528 89.4588 266.528H111.721C112.781 266.528 113.645 265.665 113.645 264.603V247.559C113.645 246.498 112.781 245.635 111.721 245.635H89.4588Z" fill="#2B2A29"/>
<path d="M92.9895 166.52C92.9895 166.52 95.6426 161.037 99.3569 161.037C99.3569 161.037 100.418 164.751 102.541 161.037C102.541 161.037 107.493 161.745 108.2 166.52H105.901L105.96 175.541H95.112L95.4657 166.697L92.9895 166.52Z" fill="white"/>
<path d="M106.32 175.891H94.783L95.1381 167.023L92.4918 166.833L92.7082 166.385C92.8206 166.154 95.4978 160.714 99.3785 160.714H99.6316L99.702 160.957C99.8072 161.323 100.234 162.365 100.794 162.365C101.029 162.365 101.533 162.173 102.27 160.884L102.384 160.685L102.61 160.718C102.663 160.725 107.819 161.518 108.555 166.483L108.612 166.869H106.262L106.32 175.891ZM95.484 175.217H105.643L105.584 166.196H107.82C107.067 162.599 103.635 161.622 102.732 161.426C102.076 162.511 101.441 163.038 100.794 163.038C99.8513 163.038 99.3318 161.923 99.1384 161.395C96.3968 161.587 94.2464 164.995 93.5519 166.234L95.8365 166.397L95.484 175.217Z" fill="#2B2A29"/>
<path d="M96.3435 250.637H103.129L105.164 261.833H100.754L99.55 256.065L97.8701 261.833H93.936L96.3435 250.637Z" fill="#3C717B"/>
<path d="M105.576 262.175H100.507L99.5169 257.434L98.1359 262.175H93.5503L96.0979 250.325H103.422L105.576 262.175ZM101.04 261.52H104.791L102.875 250.98H96.628L94.3618 261.52H97.644L99.6221 254.727L101.04 261.52Z" fill="#2B2A29"/>
<path d="M96.0126 230.49H104.282C104.282 230.49 103.773 221.457 100.147 221.457C96.5215 221.457 96.0126 230.49 96.0126 230.49Z" fill="#43B3BD"/>
<path d="M104.8 230.979H95.5381L95.5664 230.484C95.6209 229.514 96.2135 221.009 100.169 221.009C104.124 221.009 104.717 229.514 104.772 230.484L104.8 230.979ZM96.5383 230.04H103.8C103.576 227.389 102.612 221.948 100.169 221.948C97.7253 221.948 96.7619 227.389 96.5383 230.04Z" fill="#2B2A29"/>
<path d="M100.139 223.141C101.065 223.141 101.817 222.389 101.817 221.463C101.817 220.536 101.065 219.785 100.139 219.785C99.2123 219.785 98.4612 220.536 98.4612 221.463C98.4612 222.389 99.2123 223.141 100.139 223.141Z" fill="white"/>
<path d="M100.162 223.508C99.0418 223.508 98.1304 222.597 98.1304 221.478C98.1304 220.357 99.0418 219.446 100.162 219.446C101.282 219.446 102.193 220.357 102.193 221.478C102.193 222.597 101.282 223.508 100.162 223.508ZM100.162 220.153C99.4318 220.153 98.838 220.748 98.838 221.478C98.838 222.208 99.4318 222.801 100.162 222.801C100.892 222.801 101.486 222.208 101.486 221.478C101.486 220.748 100.892 220.153 100.162 220.153Z" fill="#2B2A29"/>
<path d="M95.1596 202.125L99.3941 201.629C100.187 201.536 100.988 201.544 101.779 201.654L103.961 201.957C104.599 202.046 105.167 201.55 105.167 200.907V195.51H101.82C101.82 195.51 97.1951 199.92 95.1596 200.089C93.1241 200.259 94.1418 202.125 95.1596 202.125Z" fill="#52728D"/>
<path d="M95.1995 202.476H95.1797C94.4346 202.476 93.7001 201.762 93.6685 201.007C93.658 200.746 93.733 199.888 95.1515 199.769C96.7238 199.638 100.345 196.485 101.608 195.282L101.705 195.188H105.524V200.921C105.524 201.757 104.791 202.408 103.935 202.306L101.753 202.004C100.997 201.897 100.218 201.888 99.453 201.978L95.1995 202.476ZM101.974 195.862C101.27 196.523 97.1914 200.274 95.208 200.44C94.8772 200.468 94.3248 200.574 94.3419 200.979C94.3577 201.358 94.7904 201.789 95.1626 201.803L99.3747 201.309C100.197 201.215 101.034 201.224 101.846 201.336L104.027 201.638C104.476 201.707 104.851 201.354 104.851 200.921V195.862H101.974Z" fill="#2B2A29"/>
<path d="M157.995 164.079H122.31C121.344 164.079 120.561 163.296 120.561 162.33V162.295C120.561 161.329 121.344 160.545 122.31 160.545H157.995C158.961 160.545 159.744 161.329 159.744 162.295V162.33C159.744 163.296 158.961 164.079 157.995 164.079Z" fill="#B8D2F9"/>
<path d="M157.988 164.425H122.303C121.153 164.425 120.217 163.489 120.217 162.339C120.217 161.152 121.153 160.217 122.303 160.217H157.988C159.138 160.217 160.074 161.152 160.074 162.303C160.074 163.489 159.138 164.425 157.988 164.425ZM122.303 160.89C121.524 160.89 120.89 161.524 120.89 162.303C120.89 163.117 121.524 163.751 122.303 163.751H157.988C158.766 163.751 159.4 163.117 159.4 162.339C159.4 161.524 158.766 160.89 157.988 160.89H122.303Z" fill="#2B2A29"/>
<path d="M157.995 170.059H122.31C121.344 170.059 120.561 169.276 120.561 168.31V168.274C120.561 167.308 121.344 166.525 122.31 166.525H157.995C158.961 166.525 159.744 167.308 159.744 168.274V168.31C159.744 169.276 158.961 170.059 157.995 170.059Z" fill="#B8D2F9"/>
<path d="M157.988 170.404H122.303C121.153 170.404 120.217 169.469 120.217 168.318C120.217 167.131 121.153 166.196 122.303 166.196H157.988C159.138 166.196 160.074 167.131 160.074 168.282C160.074 169.469 159.138 170.404 157.988 170.404ZM122.303 166.87C121.524 166.87 120.89 167.504 120.89 168.282C120.89 169.096 121.524 169.73 122.303 169.73H157.988C158.766 169.73 159.4 169.096 159.4 168.318C159.4 167.504 158.766 166.87 157.988 166.87H122.303Z" fill="#2B2A29"/>
<path d="M157.995 176.038H122.31C121.344 176.038 120.561 175.255 120.561 174.288V174.253C120.561 173.287 121.344 172.504 122.31 172.504H157.995C158.961 172.504 159.744 173.287 159.744 174.253V174.288C159.744 175.255 158.961 176.038 157.995 176.038Z" fill="#B8D2F9"/>
<path d="M157.988 176.383H122.303C121.153 176.383 120.217 175.448 120.217 174.297C120.217 173.11 121.153 172.175 122.303 172.175H157.988C159.138 172.175 160.074 173.11 160.074 174.261C160.074 175.448 159.138 176.383 157.988 176.383ZM122.303 172.849C121.524 172.849 120.89 173.483 120.89 174.261C120.89 175.075 121.524 175.709 122.303 175.709H157.988C158.766 175.709 159.4 175.075 159.4 174.297C159.4 173.483 158.766 172.849 157.988 172.849H122.303Z" fill="#2B2A29"/>
<path d="M157.995 193.679H122.31C121.344 193.679 120.561 192.896 120.561 191.93V191.895C120.561 190.928 121.344 190.145 122.31 190.145H157.995C158.961 190.145 159.744 190.928 159.744 191.895V191.93C159.744 192.896 158.961 193.679 157.995 193.679Z" fill="#B8D2F9"/>
<path d="M157.988 194.023H122.303C121.153 194.023 120.217 193.088 120.217 191.938C120.217 190.752 121.153 189.817 122.303 189.817H157.988C159.138 189.817 160.074 190.752 160.074 191.903C160.074 193.088 159.138 194.023 157.988 194.023ZM122.303 190.49C121.524 190.49 120.89 191.124 120.89 191.903C120.89 192.717 121.524 193.349 122.303 193.349H157.988C158.766 193.349 159.4 192.717 159.4 191.938C159.4 191.124 158.766 190.49 157.988 190.49H122.303Z" fill="#2B2A29"/>
<path d="M157.995 199.658H122.31C121.344 199.658 120.561 198.875 120.561 197.909V197.873C120.561 196.907 121.344 196.124 122.31 196.124H157.995C158.961 196.124 159.744 196.907 159.744 197.873V197.909C159.744 198.875 158.961 199.658 157.995 199.658Z" fill="#B8D2F9"/>
<path d="M157.988 200.003H122.303C121.153 200.003 120.217 199.068 120.217 197.917C120.217 196.731 121.153 195.796 122.303 195.796H157.988C159.138 195.796 160.074 196.731 160.074 197.882C160.074 199.068 159.138 200.003 157.988 200.003ZM122.303 196.469C121.524 196.469 120.89 197.103 120.89 197.882C120.89 198.696 121.524 199.33 122.303 199.33H157.988C158.766 199.33 159.4 198.696 159.4 197.917C159.4 197.103 158.766 196.469 157.988 196.469H122.303Z" fill="#2B2A29"/>
<path d="M157.995 205.638H122.31C121.344 205.638 120.561 204.854 120.561 203.888V203.853C120.561 202.887 121.344 202.104 122.31 202.104H157.995C158.961 202.104 159.744 202.887 159.744 203.853V203.888C159.744 204.854 158.961 205.638 157.995 205.638Z" fill="#B8D2F9"/>
<path d="M157.988 205.982H122.303C121.153 205.982 120.217 205.047 120.217 203.896C120.217 202.71 121.153 201.775 122.303 201.775H157.988C159.138 201.775 160.074 202.71 160.074 203.861C160.074 205.047 159.138 205.982 157.988 205.982ZM122.303 202.448C121.524 202.448 120.89 203.082 120.89 203.861C120.89 204.675 121.524 205.309 122.303 205.309H157.988C158.766 205.309 159.4 204.675 159.4 203.896C159.4 203.082 158.766 202.448 157.988 202.448H122.303Z" fill="#2B2A29"/>
<path d="M157.995 223.279H122.31C121.344 223.279 120.561 222.496 120.561 221.529V221.494C120.561 220.528 121.344 219.745 122.31 219.745H157.995C158.961 219.745 159.744 220.528 159.744 221.494V221.529C159.744 222.496 158.961 223.279 157.995 223.279Z" fill="#B8D2F9"/>
<path d="M157.988 223.622H122.303C121.153 223.622 120.217 222.687 120.217 221.536C120.217 220.351 121.153 219.416 122.303 219.416H157.988C159.138 219.416 160.074 220.351 160.074 221.502C160.074 222.687 159.138 223.622 157.988 223.622ZM122.303 220.089C121.524 220.089 120.89 220.723 120.89 221.502C120.89 222.315 121.524 222.949 122.303 222.949H157.988C158.766 222.949 159.4 222.315 159.4 221.536C159.4 220.723 158.766 220.089 157.988 220.089H122.303Z" fill="#2B2A29"/>
<path d="M157.995 229.258H122.31C121.344 229.258 120.561 228.475 120.561 227.509V227.473C120.561 226.507 121.344 225.724 122.31 225.724H157.995C158.961 225.724 159.744 226.507 159.744 227.473V227.509C159.744 228.475 158.961 229.258 157.995 229.258Z" fill="#B8D2F9"/>
<path d="M157.988 229.603H122.303C121.153 229.603 120.217 228.668 120.217 227.517C120.217 226.331 121.153 225.396 122.303 225.396H157.988C159.138 225.396 160.074 226.331 160.074 227.482C160.074 228.668 159.138 229.603 157.988 229.603ZM122.303 226.069C121.524 226.069 120.89 226.703 120.89 227.482C120.89 228.296 121.524 228.93 122.303 228.93H157.988C158.766 228.93 159.4 228.296 159.4 227.517C159.4 226.703 158.766 226.069 157.988 226.069H122.303Z" fill="#2B2A29"/>
<path d="M157.995 235.237H122.31C121.344 235.237 120.561 234.454 120.561 233.488V233.453C120.561 232.487 121.344 231.703 122.31 231.703H157.995C158.961 231.703 159.744 232.487 159.744 233.453V233.488C159.744 234.454 158.961 235.237 157.995 235.237Z" fill="#B8D2F9"/>
<path d="M157.988 235.582H122.303C121.153 235.582 120.217 234.647 120.217 233.496C120.217 232.31 121.153 231.375 122.303 231.375H157.988C159.138 231.375 160.074 232.31 160.074 233.461C160.074 234.647 159.138 235.582 157.988 235.582ZM122.303 232.048C121.524 232.048 120.89 232.682 120.89 233.461C120.89 234.275 121.524 234.909 122.303 234.909H157.988C158.766 234.909 159.4 234.275 159.4 233.496C159.4 232.682 158.766 232.048 157.988 232.048H122.303Z" fill="#2B2A29"/>
<path d="M157.995 251.861H122.31C121.344 251.861 120.561 251.078 120.561 250.111V250.076C120.561 249.11 121.344 248.327 122.31 248.327H157.995C158.961 248.327 159.744 249.11 159.744 250.076V250.111C159.744 251.078 158.961 251.861 157.995 251.861Z" fill="#B8D2F9"/>
<path d="M157.988 252.206H122.303C121.153 252.206 120.217 251.27 120.217 250.12C120.217 248.933 121.153 247.998 122.303 247.998H157.988C159.138 247.998 160.074 248.933 160.074 250.084C160.074 251.27 159.138 252.206 157.988 252.206ZM122.303 248.671C121.524 248.671 120.89 249.305 120.89 250.084C120.89 250.898 121.524 251.532 122.303 251.532H157.988C158.766 251.532 159.4 250.898 159.4 250.12C159.4 249.305 158.766 248.671 157.988 248.671H122.303Z" fill="#2B2A29"/>
<path d="M157.995 257.84H122.31C121.344 257.84 120.561 257.057 120.561 256.091V256.055C120.561 255.089 121.344 254.306 122.31 254.306H157.995C158.961 254.306 159.744 255.089 159.744 256.055V256.091C159.744 257.057 158.961 257.84 157.995 257.84Z" fill="#B8D2F9"/>
<path d="M157.988 258.185H122.303C121.153 258.185 120.217 257.25 120.217 256.099C120.217 254.912 121.153 253.977 122.303 253.977H157.988C159.138 253.977 160.074 254.912 160.074 256.063C160.074 257.25 159.138 258.185 157.988 258.185ZM122.303 254.651C121.524 254.651 120.89 255.285 120.89 256.063C120.89 256.877 121.524 257.511 122.303 257.511H157.988C158.766 257.511 159.4 256.877 159.4 256.099C159.4 255.285 158.766 254.651 157.988 254.651H122.303Z" fill="#2B2A29"/>
<path d="M157.995 263.819H122.31C121.344 263.819 120.561 263.036 120.561 262.07V262.034C120.561 261.068 121.344 260.285 122.31 260.285H157.995C158.961 260.285 159.744 261.068 159.744 262.034V262.07C159.744 263.036 158.961 263.819 157.995 263.819Z" fill="#B8D2F9"/>
<path d="M157.988 264.164H122.303C121.153 264.164 120.217 263.229 120.217 262.078C120.217 260.891 121.153 259.956 122.303 259.956H157.988C159.138 259.956 160.074 260.891 160.074 262.042C160.074 263.229 159.138 264.164 157.988 264.164ZM122.303 260.63C121.524 260.63 120.89 261.264 120.89 262.042C120.89 262.856 121.524 263.49 122.303 263.49H157.988C158.766 263.49 159.4 262.856 159.4 262.078C159.4 261.264 158.766 260.63 157.988 260.63H122.303Z" fill="#2B2A29"/>
<path d="M186.279 174.263H168.659C167.693 174.263 166.91 173.479 166.91 172.513V164.689C166.91 163.723 167.693 162.94 168.659 162.94H186.279C187.245 162.94 188.028 163.723 188.028 164.689V172.513C188.028 173.479 187.245 174.263 186.279 174.263Z" fill="#B8D2F9"/>
<path d="M186.303 174.615H168.683C167.533 174.615 166.597 173.68 166.597 172.529V164.706C166.597 163.555 167.533 162.62 168.683 162.62H186.303C187.453 162.62 188.389 163.555 188.389 164.706V172.529C188.389 173.68 187.453 174.615 186.303 174.615ZM168.683 163.293C167.904 163.293 167.27 163.927 167.27 164.706V172.529C167.27 173.308 167.904 173.942 168.683 173.942H186.303C187.081 173.942 187.715 173.308 187.715 172.529V164.706C187.715 163.927 187.081 163.293 186.303 163.293H168.683Z" fill="#2B2A29"/>
<path d="M186.279 203.545H168.659C167.693 203.545 166.91 202.762 166.91 201.796V193.972C166.91 193.006 167.693 192.223 168.659 192.223H186.279C187.245 192.223 188.028 193.006 188.028 193.972V201.796C188.028 202.762 187.245 203.545 186.279 203.545Z" fill="#B8D2F9"/>
<path d="M186.303 203.898H168.683C167.533 203.898 166.597 202.962 166.597 201.812V193.987C166.597 192.836 167.533 191.901 168.683 191.901H186.303C187.453 191.901 188.389 192.836 188.389 193.987V201.812C188.389 202.962 187.453 203.898 186.303 203.898ZM168.683 192.575C167.904 192.575 167.27 193.208 167.27 193.987V201.812C167.27 202.59 167.904 203.224 168.683 203.224H186.303C187.081 203.224 187.715 202.59 187.715 201.812V193.987C187.715 193.208 187.081 192.575 186.303 192.575H168.683Z" fill="#2B2A29"/>
<path d="M186.279 233.145H168.659C167.693 233.145 166.91 232.362 166.91 231.396V223.572C166.91 222.606 167.693 221.823 168.659 221.823H186.279C187.245 221.823 188.028 222.606 188.028 223.572V231.396C188.028 232.362 187.245 233.145 186.279 233.145Z" fill="#B8D2F9"/>
<path d="M186.303 233.497H168.683C167.533 233.497 166.597 232.561 166.597 231.412V223.587C166.597 222.437 167.533 221.501 168.683 221.501H186.303C187.453 221.501 188.389 222.437 188.389 223.587V231.412C188.389 232.561 187.453 233.497 186.303 233.497ZM168.683 222.175C167.904 222.175 167.27 222.809 167.27 223.587V231.412C167.27 232.19 167.904 232.823 168.683 232.823H186.303C187.081 232.823 187.715 232.19 187.715 231.412V223.587C187.715 222.809 187.081 222.175 186.303 222.175H168.683Z" fill="#2B2A29"/>
<path d="M186.279 261.727H168.659C167.693 261.727 166.91 260.944 166.91 259.978V252.154C166.91 251.188 167.693 250.405 168.659 250.405H186.279C187.245 250.405 188.028 251.188 188.028 252.154V259.978C188.028 260.944 187.245 261.727 186.279 261.727Z" fill="#B8D2F9"/>
<path d="M186.303 262.079H168.683C167.533 262.079 166.597 261.144 166.597 259.993V252.169C166.597 251.018 167.533 250.083 168.683 250.083H186.303C187.453 250.083 188.389 251.018 188.389 252.169V259.993C188.389 261.144 187.453 262.079 186.303 262.079ZM168.683 250.756C167.904 250.756 167.27 251.39 167.27 252.169V259.993C167.27 260.772 167.904 261.406 168.683 261.406H186.303C187.081 261.406 187.715 260.772 187.715 259.993V252.169C187.715 251.39 187.081 250.756 186.303 250.756H168.683Z" fill="#2B2A29"/>
<path d="M76.3353 262.264C92.1753 262.264 105.016 249.423 105.016 233.583C105.016 217.743 92.1753 204.902 76.3353 204.902C60.4954 204.902 47.6545 217.743 47.6545 233.583C47.6545 249.423 60.4954 262.264 76.3353 262.264Z" fill="#FFFEFE"/>
<path d="M72.8659 258.996C88.645 260.382 102.56 248.714 103.947 232.935C104.233 229.683 103.956 226.514 103.211 223.514C104.673 227.405 105.309 231.676 104.921 236.093C103.535 251.873 89.6193 263.54 73.8402 262.154C61.3127 261.053 51.3847 252.052 48.5154 240.494C52.2753 250.503 61.5042 257.997 72.8659 258.996Z" fill="#E6F2FE"/>
<path d="M17.8686 276.421L22.8384 282.483L51.9437 258.622L46.9739 252.56L17.8686 276.421Z" fill="#FF9100"/>
<path d="M22.7594 283.432L16.9362 276.328L47.083 251.611L52.9062 258.714L22.7594 283.432ZM18.8314 276.515L22.9475 281.535L51.0109 258.528L46.8949 253.507L18.8314 276.515Z" fill="#2B2A29"/>
<path d="M42.7263 259.974L42.8328 260.1C45.746 263.527 45.3287 268.668 41.9009 271.581L18.1655 291.752C14.7376 294.666 9.59725 294.248 6.68412 290.821L6.57756 290.695C3.66442 287.267 4.08166 282.127 7.50949 279.214L31.2449 259.042C34.6727 256.129 39.8131 256.546 42.7263 259.974Z" fill="#52728D"/>
<path d="M12.9301 294.365C10.3364 294.365 7.88546 293.233 6.2072 291.258L6.10132 291.133C2.95196 287.427 3.40441 281.85 7.10946 278.702L30.8451 258.53C32.4379 257.176 34.464 256.432 36.5513 256.432C39.1463 256.432 41.5966 257.564 43.2748 259.539L43.3807 259.663C46.5301 263.37 46.0776 268.946 42.3726 272.095L18.6376 292.266C17.0448 293.619 15.0174 294.365 12.9301 294.365ZM36.5513 257.779C34.7836 257.779 33.0665 258.41 31.7171 259.556L7.98147 279.728C4.84197 282.395 4.45858 287.121 7.12656 290.26L7.23244 290.385C8.65553 292.059 10.7317 293.018 12.9301 293.018C14.6984 293.018 16.4155 292.387 17.7656 291.24L41.5006 271.069C44.6401 268.402 45.0235 263.676 42.3555 260.537L42.2496 260.412C40.8265 258.738 38.7504 257.779 36.5513 257.779Z" fill="#2B2A29"/>
<path d="M6.43419 289.469L6.53883 289.592C9.40037 292.959 14.4496 293.369 17.8166 290.508L41.1309 270.694C43.925 268.32 44.6751 264.441 43.2172 261.265C45.3315 264.582 44.7359 269.031 41.6539 271.65L18.3394 291.464C14.9724 294.326 9.92324 293.916 7.06181 290.549L6.95705 290.426C6.46998 289.852 6.0853 289.228 5.78625 288.576C5.98179 288.883 6.19196 289.184 6.43419 289.469Z" fill="#4A6484"/>
<path d="M78.8935 204.939C94.6869 206.327 106.407 220.305 105.019 236.098C103.631 251.891 89.6537 263.611 73.8603 262.224C58.067 260.836 46.3471 246.858 47.7347 231.065C49.1224 215.271 63.1002 203.551 78.8935 204.939ZM79.5873 197.043C59.4079 195.27 41.6118 210.191 39.8388 230.371C38.0657 250.55 52.9871 268.346 73.1665 270.119C93.346 271.893 111.142 256.971 112.915 236.792C114.688 216.612 99.7668 198.816 79.5873 197.043Z" fill="#62D2D0"/>
<path d="M76.4021 270.938C76.4008 270.938 76.4014 270.938 76.4001 270.938C75.3019 270.938 74.1879 270.888 73.089 270.792C63.1503 269.919 54.1468 265.228 47.7363 257.582C41.3257 249.936 38.2763 240.254 39.1497 230.314C40.8286 211.201 57.1548 196.228 76.3173 196.228C77.4148 196.228 78.5288 196.278 79.6284 196.374C89.5671 197.248 98.5706 201.939 104.981 209.585C111.392 217.23 114.441 226.913 113.568 236.852C111.889 255.966 95.5626 270.938 76.4021 270.938ZM76.3173 197.575C57.8466 197.575 42.1103 212.007 40.4912 230.433C39.6495 240.013 42.589 249.347 48.7681 256.717C54.9478 264.087 63.6271 268.609 73.2074 269.451C74.2668 269.544 75.3413 269.591 76.4008 269.591C94.8708 269.591 110.607 255.159 112.226 236.734C113.068 227.154 110.128 217.819 103.949 210.45C97.7696 203.079 89.0903 198.558 79.51 197.716C78.4499 197.622 77.3754 197.575 76.3173 197.575ZM76.3817 263.01C75.5202 263.01 74.6456 262.972 73.7828 262.896C57.6197 261.475 45.6259 247.17 47.0458 231.007C48.3689 215.95 61.2353 204.155 76.3376 204.155C77.1985 204.155 78.0725 204.193 78.9346 204.27C86.7518 204.956 93.8416 208.656 98.8968 214.685C103.953 220.716 106.359 228.341 105.672 236.159C104.349 251.216 91.4834 263.01 76.3817 263.01ZM76.3376 205.502C61.9271 205.502 49.6499 216.758 48.3873 231.126C47.0326 246.548 58.4779 260.199 73.9011 261.554C74.7245 261.626 75.559 261.663 76.3817 261.663C90.7916 261.663 103.067 250.409 104.33 236.041C104.985 228.582 102.689 221.305 97.865 215.551C93.0406 209.796 86.2757 206.266 78.8162 205.611C77.9935 205.539 77.1597 205.502 76.3376 205.502Z" fill="#2B2A29"/>
<path d="M97.1197 233.159C97.1197 237.713 93.4278 241.405 88.8736 241.405H63.8938C59.3396 241.405 55.6477 237.713 55.6477 233.159C55.6477 228.604 59.3396 224.913 63.8938 224.913H88.8736C93.4278 224.913 97.1197 228.604 97.1197 233.159Z" fill="#FF9100"/>
<path d="M88.8562 242.079H63.8764C58.958 242.079 54.957 238.078 54.957 233.159C54.957 228.242 58.958 224.241 63.8764 224.241H88.8562C93.7746 224.241 97.7756 228.242 97.7756 233.159C97.7756 238.078 93.7746 242.079 88.8562 242.079ZM63.8764 225.588C59.7011 225.588 56.3038 228.985 56.3038 233.159C56.3038 237.335 59.7011 240.733 63.8764 240.733H88.8562C93.0315 240.733 96.4288 237.335 96.4288 233.159C96.4288 228.985 93.0315 225.588 88.8562 225.588H63.8764Z" fill="#2B2A29"/>
<path d="M68.9564 229.696C69.5015 230.234 69.775 231.021 69.775 232.057V236.252H68.4536V232.209C68.4536 231.502 68.2837 230.969 67.945 230.612C67.6053 230.255 67.1198 230.076 66.4864 230.076C65.7715 230.076 65.2073 230.284 64.7947 230.702C64.382 231.119 64.1757 231.717 64.1757 232.497V236.252H62.8553V228.961H64.1201V230.061C64.3869 229.687 64.7467 229.397 65.2006 229.196C65.6545 228.994 66.1707 228.892 66.7484 228.892C67.6744 228.892 68.4104 229.161 68.9564 229.696Z" fill="white"/>
<path d="M78.8466 233.047H72.9308C73.0133 233.688 73.2954 234.205 73.7771 234.594C74.2588 234.984 74.8567 235.18 75.5725 235.18C76.4438 235.18 77.1453 234.886 77.6769 234.299L78.4062 235.153C78.0761 235.537 77.6654 235.83 77.175 236.032C76.6847 236.233 76.1367 236.335 75.5313 236.335C74.7607 236.335 74.0775 236.178 73.4816 235.861C72.8847 235.544 72.4241 235.101 72.0988 234.533C71.7735 233.965 71.6104 233.322 71.6104 232.606C71.6104 231.902 71.7687 231.263 72.0853 230.694C72.4011 230.126 72.8367 229.683 73.3923 229.366C73.947 229.052 74.5726 228.892 75.2693 228.892C75.9669 228.892 76.5877 229.052 77.1338 229.366C77.6798 229.683 78.1058 230.126 78.4129 230.694C78.72 231.263 78.8745 231.915 78.8745 232.648C78.8745 232.75 78.8649 232.882 78.8466 233.047ZM73.6811 230.585C73.2541 230.969 73.0046 231.474 72.9308 232.097H77.6088C77.5349 231.483 77.2854 230.982 76.8584 230.591C76.4323 230.201 75.9026 230.007 75.2693 230.007C74.6369 230.007 74.1072 230.199 73.6811 230.585Z" fill="white"/>
<path d="M91.5797 228.961L88.8564 236.252H87.5907L85.4854 230.721L83.3531 236.252H82.0874L79.3776 228.961H80.6298L82.7476 234.767L84.949 228.961H86.063L88.2231 234.794L90.3966 228.961H91.5797Z" fill="white"/>
<path d="M413.877 14.1062H241.387V125.149H413.877V14.1062Z" fill="#B8D2F9"/>
<path d="M414.253 125.524H241.038V13.7539H414.253V125.524ZM241.763 124.798H413.528V14.4799H241.763V124.798Z" fill="#2B2A29"/>
<path d="M410.607 121.21H243.824V25.2543C243.824 20.4366 247.729 16.531 252.547 16.531H401.884C406.701 16.531 410.607 20.4366 410.607 25.2543V121.21ZM235.265 16.6956V121.21H419.166V16.6956C419.166 11.8779 415.26 7.97241 410.442 7.97241H243.988C239.17 7.97241 235.265 11.8779 235.265 16.6956Z" fill="#52728D"/>
<path d="M419.82 121.882H234.572V16.6953C234.572 11.5132 238.788 7.29785 243.968 7.29785H410.423C415.604 7.29785 419.82 11.5132 419.82 16.6953V121.882ZM411.261 120.536H418.473V16.6953C418.473 12.2563 414.862 8.64467 410.423 8.64467H243.968C239.53 8.64467 235.919 12.2563 235.919 16.6953V120.536H243.131V25.2536C243.131 20.0729 247.346 15.8575 252.527 15.8575H401.864C407.045 15.8575 411.261 20.0729 411.261 25.2536V120.536ZM244.477 120.536H409.914V25.2536C409.914 20.8147 406.303 17.2043 401.864 17.2043H252.527C248.088 17.2043 244.477 20.8147 244.477 25.2536V120.536Z" fill="#2B2A29"/>
<path d="M433.416 130.426C433.416 134.79 429.879 138.327 425.516 138.327H233.276C228.913 138.327 225.376 134.79 225.376 130.426V129.11C225.376 124.747 228.913 121.209 233.276 121.209H425.516C429.879 121.209 433.416 124.747 433.416 129.11V130.426Z" fill="#52728D"/>
<path d="M425.533 139.001H233.293C228.565 139.001 224.719 135.155 224.719 130.427V129.11C224.719 124.382 228.565 120.536 233.293 120.536H425.533C430.261 120.536 434.107 124.382 434.107 129.11V130.427C434.107 135.155 430.261 139.001 425.533 139.001ZM233.293 121.883C229.308 121.883 226.066 125.125 226.066 129.11V130.427C226.066 134.412 229.308 137.654 233.293 137.654H425.533C429.518 137.654 432.76 134.412 432.76 130.427V129.11C432.76 125.125 429.518 121.883 425.533 121.883H233.293Z" fill="#2B2A29"/>
<path d="M409.839 8.38672H405.46C410.242 8.38672 414.119 12.2636 414.119 17.046V120.794H418.498V17.046C418.498 12.2636 414.621 8.38672 409.839 8.38672Z" fill="#4C6379"/>
<path d="M425.618 121.667H421.442C425.572 121.667 428.92 125.015 428.92 129.145V130.392C428.92 134.521 425.572 137.869 421.442 137.869H425.618C429.747 137.869 433.095 134.521 433.095 130.392V129.145C433.095 125.015 429.747 121.667 425.618 121.667Z" fill="#4C6379"/>
<path d="M343.551 12.0854C343.551 13.6307 342.298 14.8834 340.753 14.8834H321.002C319.457 14.8834 318.204 13.6307 318.204 12.0854C318.204 10.5401 319.457 9.28735 321.002 9.28735H340.753C342.298 9.28735 343.551 10.5401 343.551 12.0854Z" fill="#52728D"/>
<path d="M340.765 15.5441H321.014C319.108 15.5441 317.558 13.9935 317.558 12.0877C317.558 10.1819 319.108 8.62988 321.014 8.62988H340.765C342.67 8.62988 344.221 10.1819 344.221 12.0877C344.221 13.9935 342.67 15.5441 340.765 15.5441ZM321.014 9.94776C319.834 9.94776 318.874 10.9079 318.874 12.0877C318.874 13.2674 319.834 14.2263 321.014 14.2263H340.765C341.944 14.2263 342.904 13.2674 342.904 12.0877C342.904 10.9079 341.944 9.94776 340.765 9.94776H321.014Z" fill="#2B2A29"/>
<path d="M346.737 14.5538C348.07 14.5538 349.151 13.473 349.151 12.1398C349.151 10.8066 348.07 9.72583 346.737 9.72583C345.404 9.72583 344.323 10.8066 344.323 12.1398C344.323 13.473 345.404 14.5538 346.737 14.5538Z" fill="#52728D"/>
<path d="M346.742 15.2148C345.048 15.2148 343.671 13.8364 343.671 12.1423C343.671 10.4483 345.048 9.0686 346.742 9.0686C348.436 9.0686 349.815 10.4483 349.815 12.1423C349.815 13.8364 348.436 15.2148 346.742 15.2148ZM346.742 10.3865C345.774 10.3865 344.987 11.1743 344.987 12.1423C344.987 13.1104 345.774 13.8969 346.742 13.8969C347.71 13.8969 348.498 13.1104 348.498 12.1423C348.498 11.1743 347.71 10.3865 346.742 10.3865Z" fill="#2B2A29"/>
<path d="M351.781 129.438C351.781 130.529 350.896 131.414 349.806 131.414H312.279C311.189 131.414 310.304 130.529 310.304 129.438C310.304 128.348 311.189 127.463 312.279 127.463H349.806C350.896 127.463 351.781 128.348 351.781 129.438Z" fill="#E2F0FC"/>
<path d="M349.811 132.074H312.285C310.833 132.074 309.652 130.891 309.652 129.439C309.652 127.987 310.833 126.805 312.285 126.805H349.811C351.263 126.805 352.445 127.987 352.445 129.439C352.445 130.891 351.263 132.074 349.811 132.074ZM312.285 128.123C311.559 128.123 310.968 128.713 310.968 129.439C310.968 130.165 311.559 130.756 312.285 130.756H349.811C350.537 130.756 351.129 130.165 351.129 129.439C351.129 128.713 350.537 128.123 349.811 128.123H312.285Z" fill="#2B2A29"/>
<path d="M243.586 131.962C244.798 131.962 245.78 130.979 245.78 129.767C245.78 128.555 244.798 127.573 243.586 127.573C242.374 127.573 241.391 128.555 241.391 129.767C241.391 130.979 242.374 131.962 243.586 131.962Z" fill="#E2F0FC"/>
<path d="M243.605 132.623C242.032 132.623 240.753 131.342 240.753 129.769C240.753 128.196 242.032 126.916 243.605 126.916C245.178 126.916 246.458 128.196 246.458 129.769C246.458 131.342 245.178 132.623 243.605 132.623ZM243.605 128.234C242.758 128.234 242.069 128.922 242.069 129.769C242.069 130.616 242.758 131.305 243.605 131.305C244.452 131.305 245.142 130.616 245.142 129.769C245.142 128.922 244.452 128.234 243.605 128.234Z" fill="#2B2A29"/>
<path d="M308.268 95.9258H274.039C270.17 95.9258 267.033 92.7889 267.033 88.9193V41.5968C267.033 37.7272 270.17 34.5903 274.039 34.5903H302.869L315.274 47.685V88.9193C315.274 92.7889 312.137 95.9258 308.268 95.9258Z" fill="#E2F0FC"/>
<path d="M308.241 96.5993H274.013C269.778 96.5993 266.333 93.1547 266.333 88.9196V41.597C266.333 37.3619 269.778 33.9172 274.013 33.9172H303.132L315.921 47.4169V88.9196C315.921 93.1547 312.476 96.5993 308.241 96.5993ZM274.013 35.2641C270.52 35.2641 267.679 38.105 267.679 41.597V88.9196C267.679 92.4116 270.52 95.2525 274.013 95.2525H308.241C311.733 95.2525 314.574 92.4116 314.574 88.9196V47.9536L302.553 35.2641H274.013Z" fill="#2B2A29"/>
<path d="M302.848 34.5908V47.6849L315.254 47.6855L302.848 34.5908Z" fill="#52728D"/>
<path d="M315.265 48.3757L302.86 48.3744C302.48 48.3744 302.171 48.0653 302.171 47.6852V34.5919C302.171 34.3091 302.343 34.0566 302.605 33.9514C302.867 33.8488 303.166 33.9119 303.361 34.1184L315.766 47.213C315.955 47.413 316.007 47.7063 315.898 47.9588C315.789 48.2113 315.541 48.3757 315.265 48.3757ZM303.55 46.996L313.662 46.9973L303.55 36.3215V46.996Z" fill="#2B2A29"/>
<path d="M291.122 58.366C291.122 63.1237 287.265 66.9805 282.507 66.9805H263.9C259.142 66.9805 255.286 63.1237 255.286 58.366C255.286 53.6083 259.142 49.7515 263.9 49.7515H282.507C287.265 49.7515 291.122 53.6083 291.122 58.366Z" fill="white"/>
<path d="M282.514 67.6562H263.907C258.786 67.6562 254.619 63.4895 254.619 58.3679C254.619 53.2463 258.786 49.0796 263.907 49.0796H282.514C287.636 49.0796 291.803 53.2463 291.803 58.3679C291.803 63.4895 287.636 67.6562 282.514 67.6562ZM263.907 50.4264C259.528 50.4264 255.966 53.9894 255.966 58.3679C255.966 62.7463 259.528 66.3093 263.907 66.3093H282.514C286.893 66.3093 290.456 62.7463 290.456 58.3679C290.456 53.9894 286.893 50.4264 282.514 50.4264H263.907Z" fill="#2B2A29"/>
<path d="M265.257 62.3686C264.794 62.1134 264.431 61.7609 264.168 61.3124C263.905 60.8639 263.774 60.3549 263.774 59.7854C263.774 59.2159 263.905 58.7069 264.168 58.2584C264.431 57.8099 264.794 57.4588 265.257 57.2076C265.72 56.9563 266.248 56.8301 266.838 56.8301C267.364 56.8301 267.832 56.9353 268.245 57.1471C268.657 57.3588 268.977 57.6653 269.203 58.0664L268.403 58.5807C268.222 58.3045 267.996 58.0967 267.726 57.9572C267.455 57.8191 267.156 57.7494 266.828 57.7494C266.449 57.7494 266.107 57.8336 265.804 58.0006C265.502 58.169 265.264 58.4084 265.093 58.7188C264.922 59.0279 264.836 59.3843 264.836 59.7854C264.836 60.1945 264.922 60.5535 265.093 60.8639C265.264 61.1743 265.502 61.4124 265.804 61.5808C266.107 61.7478 266.449 61.832 266.828 61.832C267.156 61.832 267.455 61.7623 267.726 61.6242C267.996 61.4861 268.222 61.2782 268.403 61.0007L269.203 61.5032C268.977 61.9056 268.657 62.2134 268.245 62.4291C267.832 62.6435 267.364 62.7513 266.838 62.7513C266.248 62.7513 265.72 62.6237 265.257 62.3686Z" fill="#2B2A29"/>
<path d="M270.848 62.5606C270.41 62.433 270.067 62.2699 269.818 62.0727L270.256 61.2414C270.511 61.4229 270.822 61.5689 271.187 61.6794C271.552 61.7886 271.92 61.8425 272.292 61.8425C273.211 61.8425 273.672 61.5808 273.672 61.0547C273.672 60.8797 273.61 60.7416 273.485 60.639C273.361 60.5364 273.206 60.4628 273.021 60.4141C272.834 60.3668 272.57 60.3142 272.226 60.2563C271.759 60.1826 271.378 60.0998 271.083 60.0038C270.787 59.9091 270.534 59.7486 270.322 59.5224C270.11 59.2962 270.005 58.9792 270.005 58.5702C270.005 58.0454 270.223 57.6232 270.661 57.3062C271.099 56.9892 271.687 56.8301 272.424 56.8301C272.81 56.8301 273.197 56.8774 273.584 56.9721C273.97 57.0668 274.289 57.1944 274.536 57.3549L274.087 58.1874C273.613 57.881 273.055 57.7271 272.413 57.7271C271.967 57.7271 271.628 57.8007 271.395 57.9467C271.161 58.0927 271.045 58.2861 271.045 58.5267C271.045 58.7161 271.11 58.8661 271.241 58.9752C271.373 59.0844 271.536 59.1646 271.729 59.2159C271.923 59.2672 272.193 59.3251 272.545 59.3909C273.012 59.4711 273.389 59.5579 273.677 59.6487C273.965 59.7394 274.211 59.8946 274.416 60.1143C274.62 60.3326 274.723 60.639 274.723 61.0336C274.723 61.5584 274.498 61.9766 274.049 62.2857C273.601 62.5961 272.989 62.7513 272.216 62.7513C271.741 62.7513 271.286 62.6882 270.848 62.5606Z" fill="#2B2A29"/>
<path d="M281.064 56.8857L278.524 62.686H277.452L274.913 56.8857H276.007L278 61.5365L280.036 56.8857H281.064Z" fill="#2B2A29"/>
<path d="M302.456 77.2878H328.07C329.507 77.2878 330.672 78.4525 330.672 79.8893V99.5C330.672 100.937 329.507 102.101 328.07 102.101H302.456C301.019 102.101 299.855 100.937 299.855 99.5V79.8893C299.855 78.4525 301.019 77.2878 302.456 77.2878Z" fill="#FF9100"/>
<path d="M328.073 102.776H302.46C300.654 102.776 299.185 101.307 299.185 99.5011V79.8895C299.185 78.0836 300.654 76.6145 302.46 76.6145H328.073C329.879 76.6145 331.348 78.0836 331.348 79.8895V99.5011C331.348 101.307 329.879 102.776 328.073 102.776ZM302.46 77.9613C301.396 77.9613 300.531 78.8268 300.531 79.8895V99.5011C300.531 100.564 301.396 101.429 302.46 101.429H328.073C329.137 101.429 330.002 100.564 330.002 99.5011V79.8895C330.002 78.8268 329.137 77.9613 328.073 77.9613H302.46Z" fill="#2B2A29"/>
<path d="M306.518 87.6522C306.518 87.6522 309.571 81.3435 313.844 81.3435C313.844 81.3435 315.065 85.6171 317.508 81.3435C317.508 81.3435 323.206 82.1575 324.02 87.6522H321.374L321.442 98.031H308.96L309.367 87.8557L306.518 87.6522Z" fill="white"/>
<path d="M321.796 98.3792H308.625L309.034 88.1795L306.015 87.9625L306.231 87.5166C306.359 87.2509 309.426 81.0179 313.86 81.0179H314.113L314.184 81.2613C314.307 81.6914 314.812 82.9172 315.488 82.9172C315.974 82.9172 316.593 82.3029 317.23 81.1876L317.344 80.989L317.57 81.0219C317.63 81.0298 323.527 81.9373 324.368 87.6126L324.425 87.9993H321.728L321.796 98.3792ZM309.326 97.7058H321.119L321.051 87.3259H323.636C322.775 83.0106 318.705 81.9307 317.695 81.7269C316.943 82.9803 316.22 83.5906 315.488 83.5906C314.414 83.5906 313.826 82.2793 313.618 81.6992C310.365 81.8952 307.834 85.9883 307.073 87.364L309.732 87.5534L309.326 97.7058Z" fill="#2B2A29"/>
<path d="M336.598 52.2417C336.302 52.2417 336.02 52.0708 335.891 51.784C335.716 51.3934 335.891 50.9357 336.281 50.7608L366.21 37.336C366.601 37.1598 367.059 37.336 367.234 37.7253C367.409 38.116 367.234 38.5737 366.844 38.7486L336.914 52.1733C336.811 52.2194 336.704 52.2417 336.598 52.2417Z" fill="#2B2A29"/>
<path d="M372.203 67.3172H336.597C336.17 67.3172 335.823 66.97 335.823 66.5425C335.823 66.115 336.17 65.7678 336.597 65.7678H372.203C372.63 65.7678 372.977 66.115 372.977 66.5425C372.977 66.97 372.63 67.3172 372.203 67.3172Z" fill="#2B2A29"/>
<path d="M366.527 93.6048C366.446 93.6048 366.363 93.5917 366.281 93.5641L336.351 83.5156C335.946 83.3788 335.728 82.9408 335.864 82.5357C336 82.1306 336.438 81.911 336.844 82.0478L366.774 92.0962C367.179 92.233 367.397 92.671 367.261 93.0761C367.153 93.3997 366.851 93.6048 366.527 93.6048Z" fill="#2B2A29"/>
<path d="M390.314 43.0314H377.542C375.511 43.0314 373.865 41.3853 373.865 39.3547V26.5832C373.865 24.5526 375.511 22.9065 377.542 22.9065H390.314C392.344 22.9065 393.99 24.5526 393.99 26.5832V39.3547C393.99 41.3853 392.344 43.0314 390.314 43.0314Z" fill="white"/>
<path d="M390.327 43.5545H377.555C375.25 43.5545 373.374 41.6776 373.374 39.372V26.6009C373.374 24.2953 375.25 22.4185 377.555 22.4185H390.327C392.633 22.4185 394.508 24.2953 394.508 26.6009V39.372C394.508 41.6776 392.633 43.5545 390.327 43.5545ZM377.555 23.4286C375.807 23.4286 374.384 24.8517 374.384 26.6009V39.372C374.384 41.1213 375.807 42.5444 377.555 42.5444H390.327C392.076 42.5444 393.498 41.1213 393.498 39.372V26.6009C393.498 24.8517 392.076 23.4286 390.327 23.4286H377.555Z" fill="#2B2A29"/>
<path d="M396.902 75.306H384.13C382.1 75.306 380.454 73.6599 380.454 71.6294V58.8578C380.454 56.8273 382.1 55.1812 384.13 55.1812H396.902C398.932 55.1812 400.578 56.8273 400.578 58.8578V71.6294C400.578 73.6599 398.932 75.306 396.902 75.306Z" fill="white"/>
<path d="M396.906 75.8249H384.134C381.829 75.8249 379.953 73.9494 379.953 71.6437V58.8727C379.953 56.567 381.829 54.6902 384.134 54.6902H396.906C399.212 54.6902 401.088 56.567 401.088 58.8727V71.6437C401.088 73.9494 399.212 75.8249 396.906 75.8249ZM384.134 55.7003C382.386 55.7003 380.963 57.1234 380.963 58.8727V71.6437C380.963 73.3917 382.386 74.8148 384.134 74.8148H396.906C398.655 74.8148 400.078 73.3917 400.078 71.6437V58.8727C400.078 57.1234 398.655 55.7003 396.906 55.7003H384.134Z" fill="#2B2A29"/>
<path d="M390.314 108.087H377.542C375.511 108.087 373.865 106.44 373.865 104.41V91.6383C373.865 89.6078 375.511 87.9617 377.542 87.9617H390.314C392.344 87.9617 393.99 89.6078 393.99 91.6383V104.41C393.99 106.44 392.344 108.087 390.314 108.087Z" fill="white"/>
<path d="M390.327 108.61H377.555C375.25 108.61 373.374 106.734 373.374 104.428V91.656C373.374 89.3504 375.25 87.4749 377.555 87.4749H390.327C392.633 87.4749 394.508 89.3504 394.508 91.656V104.428C394.508 106.734 392.633 108.61 390.327 108.61ZM377.555 88.485C375.807 88.485 374.384 89.9081 374.384 91.656V104.428C374.384 106.176 375.807 107.599 377.555 107.599H390.327C392.076 107.599 393.498 106.176 393.498 104.428V91.656C393.498 89.9081 392.076 88.485 390.327 88.485H377.555Z" fill="#2B2A29"/>
<path d="M208.183 196.156L207.012 194.491C207.058 194.458 211.758 191.122 217.281 184.958L218.798 186.316C213.107 192.667 208.381 196.017 208.183 196.156ZM229.508 171.205L227.719 170.234C228.57 168.666 229.368 167.055 230.089 165.448C231.443 162.428 232.827 159.841 234.321 157.539L236.029 158.647C234.592 160.86 233.257 163.357 231.946 166.282C231.204 167.936 230.383 169.592 229.508 171.205ZM249.26 147.426L248.526 145.527C253.02 143.79 257.986 143.076 262.683 142.564L262.904 144.587C258.344 145.085 253.536 145.773 249.26 147.426Z" fill="#2B2A29"/>
<path d="M321.385 214.156C321.385 219.336 317.186 223.535 312.006 223.535H246.355C241.175 223.535 236.976 219.336 236.976 214.156C236.976 208.976 241.175 204.777 246.355 204.777H312.006C317.186 204.777 321.385 208.976 321.385 214.156Z" fill="#B8D2F9"/>
<path d="M312.017 224.21H246.366C240.823 224.21 236.313 219.7 236.313 214.158C236.313 208.615 240.823 204.105 246.366 204.105H312.017C317.56 204.105 322.069 208.615 322.069 214.158C322.069 219.7 317.56 224.21 312.017 224.21ZM246.366 205.452C241.566 205.452 237.66 209.357 237.66 214.158C237.66 218.959 241.566 222.864 246.366 222.864H312.017C316.817 222.864 320.722 218.959 320.722 214.158C320.722 209.357 316.817 205.452 312.017 205.452H246.366Z" fill="#2B2A29"/>
<path d="M279.173 218.847C281.763 218.847 283.863 216.748 283.863 214.158C283.863 211.568 281.763 209.468 279.173 209.468C276.584 209.468 274.484 211.568 274.484 214.158C274.484 216.748 276.584 218.847 279.173 218.847Z" fill="#52728D"/>
<path d="M262.652 218.848C265.242 218.848 267.342 216.748 267.342 214.158C267.342 211.569 265.242 209.469 262.652 209.469C260.062 209.469 257.963 211.569 257.963 214.158C257.963 216.748 260.062 218.848 262.652 218.848Z" fill="#52728D"/>
<path d="M295.723 218.848C298.313 218.848 300.412 216.749 300.412 214.159C300.412 211.569 298.313 209.469 295.723 209.469C293.133 209.469 291.034 211.569 291.034 214.159C291.034 216.749 293.133 218.848 295.723 218.848Z" fill="#52728D"/>
<path d="M331.44 240.882C331.44 243.819 329.058 246.2 326.121 246.2H288.893C285.955 246.2 283.574 243.819 283.574 240.882C283.574 237.944 285.955 235.563 288.893 235.563H326.121C329.058 235.563 331.44 237.944 331.44 240.882Z" fill="#B8D2F9"/>
<path d="M326.121 246.874H288.892C285.589 246.874 282.901 244.187 282.901 240.883C282.901 237.579 285.589 234.891 288.892 234.891H326.121C329.425 234.891 332.113 237.579 332.113 240.883C332.113 244.187 329.425 246.874 326.121 246.874ZM288.892 236.238C286.331 236.238 284.248 238.321 284.248 240.883C284.248 243.444 286.331 245.528 288.892 245.528H326.121C328.683 245.528 330.766 243.444 330.766 240.883C330.766 238.321 328.683 236.238 326.121 236.238H288.892Z" fill="#2B2A29"/>
<path d="M307.518 243.542C308.987 243.542 310.178 242.351 310.178 240.883C310.178 239.414 308.987 238.224 307.518 238.224C306.05 238.224 304.859 239.414 304.859 240.883C304.859 242.351 306.05 243.542 307.518 243.542Z" fill="#52728D"/>
<path d="M298.133 243.542C299.601 243.542 300.792 242.352 300.792 240.883C300.792 239.414 299.601 238.224 298.133 238.224C296.664 238.224 295.474 239.414 295.474 240.883C295.474 242.352 296.664 243.542 298.133 243.542Z" fill="#52728D"/>
<path d="M316.882 243.542C318.351 243.542 319.541 242.352 319.541 240.883C319.541 239.414 318.351 238.224 316.882 238.224C315.413 238.224 314.223 239.414 314.223 240.883C314.223 242.352 315.413 243.542 316.882 243.542Z" fill="#52728D"/>
<path d="M334.099 187.872C334.099 190.809 331.718 193.19 328.781 193.19H291.552C288.615 193.19 286.234 190.809 286.234 187.872C286.234 184.935 288.615 182.553 291.552 182.553H328.781C331.718 182.553 334.099 184.935 334.099 187.872Z" fill="#B8D2F9"/>
<path d="M328.785 193.864H291.557C288.253 193.864 285.566 191.177 285.566 187.873C285.566 184.569 288.253 181.881 291.557 181.881H328.785C332.089 181.881 334.778 184.569 334.778 187.873C334.778 191.177 332.089 193.864 328.785 193.864ZM291.557 183.227C288.996 183.227 286.912 185.311 286.912 187.873C286.912 190.434 288.996 192.517 291.557 192.517H328.785C331.347 192.517 333.431 190.434 333.431 187.873C333.431 185.311 331.347 183.227 328.785 183.227H291.557Z" fill="#2B2A29"/>
<path d="M310.169 190.532C311.637 190.532 312.828 189.341 312.828 187.873C312.828 186.404 311.637 185.214 310.169 185.214C308.7 185.214 307.51 186.404 307.51 187.873C307.51 189.341 308.7 190.532 310.169 190.532Z" fill="#52728D"/>
<path d="M300.792 190.532C302.261 190.532 303.451 189.341 303.451 187.873C303.451 186.404 302.261 185.213 300.792 185.213C299.324 185.213 298.133 186.404 298.133 187.873C298.133 189.341 299.324 190.532 300.792 190.532Z" fill="#52728D"/>
<path d="M319.542 190.532C321.011 190.532 322.201 189.341 322.201 187.873C322.201 186.404 321.011 185.213 319.542 185.213C318.073 185.213 316.883 186.404 316.883 187.873C316.883 189.341 318.073 190.532 319.542 190.532Z" fill="#52728D"/>
<path d="M507.755 185.835H448.158V244.52H507.755V185.835Z" fill="#FBAA6C"/>
<path d="M508.431 245.194H447.487V185.162H508.431V245.194ZM448.833 243.847H507.084V186.509H448.833V243.847Z" fill="#2B2A29"/>
<path d="M495.473 185.903L493.36 185.768C493.371 185.579 494.474 166.691 486.757 158.469C484.424 155.983 481.469 154.722 477.976 154.722C460.739 154.722 460.539 185.524 460.539 185.836H458.421C458.421 184.478 458.644 152.604 477.976 152.604C482.079 152.604 485.554 154.091 488.304 157.022C496.648 165.916 495.525 185.091 495.473 185.903Z" fill="#2B2A29"/>
<path d="M476.99 221.434C476.435 221.434 475.904 221.205 475.522 220.799L468.587 213.416C467.825 212.605 467.865 211.331 468.676 210.569C469.486 209.807 470.761 209.847 471.522 210.658L476.89 216.373L484.273 207.401C484.979 206.542 486.249 206.418 487.107 207.126C487.966 207.833 488.089 209.102 487.383 209.96L478.545 220.7C478.177 221.147 477.635 221.414 477.056 221.433C477.034 221.433 477.012 221.434 476.99 221.434Z" fill="#E3002C"/>
<path d="M477.071 221.78H476.999C476.353 221.78 475.728 221.51 475.285 221.039L468.35 213.656C467.92 213.199 467.694 212.601 467.714 211.973C467.733 211.346 467.996 210.763 468.453 210.333C469.364 209.481 470.923 209.53 471.776 210.437L476.882 215.873L484.022 207.196C484.814 206.234 486.364 206.08 487.331 206.875C487.815 207.275 488.115 207.838 488.176 208.463C488.236 209.088 488.05 209.699 487.651 210.185L478.813 220.924C478.385 221.444 477.752 221.756 477.076 221.78H477.071ZM470.063 210.37C469.635 210.37 469.227 210.531 468.915 210.825C468.588 211.132 468.401 211.547 468.387 211.994C468.373 212.442 468.534 212.869 468.841 213.195L475.776 220.579C476.092 220.914 476.538 221.106 476.999 221.106L477.065 221.443L477.054 221.106C477.535 221.091 477.988 220.867 478.293 220.495L487.131 209.756C487.416 209.41 487.549 208.975 487.505 208.529C487.462 208.083 487.248 207.68 486.902 207.396C486.212 206.827 485.106 206.937 484.542 207.625L476.915 216.891L471.285 210.897C470.965 210.557 470.531 210.37 470.063 210.37Z" fill="#2B2A29"/>
<path d="M437.069 177.478C436.856 177.478 436.64 177.434 436.434 177.34C435.77 177.04 420.13 169.788 416.189 151.553C416.009 150.72 416.539 149.896 417.374 149.716C418.214 149.534 419.032 150.066 419.212 150.901C422.815 167.573 437.56 174.456 437.709 174.523C438.485 174.877 438.829 175.792 438.478 176.569C438.218 177.14 437.657 177.478 437.069 177.478Z" fill="#2B2A29"/>
<path d="M414.909 156.903C414.682 156.903 414.45 156.853 414.233 156.746C413.465 156.371 413.146 155.446 413.52 154.679L417.136 147.261L423.575 152.14C424.256 152.656 424.389 153.627 423.873 154.307C423.357 154.988 422.389 155.122 421.707 154.605L418.267 151.998L416.3 156.033C416.032 156.583 415.482 156.903 414.909 156.903Z" fill="#2B2A29"/>
<path d="M81.2149 201.913C81.0899 201.913 80.963 201.897 80.8361 201.865C79.4011 201.502 75.1542 200.675 72.7782 201.173C71.945 201.36 71.1269 200.817 70.9507 199.983C70.7751 199.149 71.3084 198.331 72.1416 198.156C75.7092 197.405 81.3536 198.815 81.5923 198.874C82.4183 199.084 82.9181 199.921 82.709 200.747C82.5328 201.447 81.9047 201.913 81.2149 201.913Z" fill="white"/>
<path d="M42.2891 230.433C42.2187 230.433 42.1477 230.428 42.076 230.419C41.2323 230.302 40.6424 229.523 40.7594 228.679C43.9982 205.267 67.4406 198.937 67.6766 198.877C68.5 198.658 69.3411 199.158 69.5548 199.982C69.7692 200.805 69.2753 201.647 68.4513 201.862C67.5675 202.094 46.7668 207.766 43.8148 229.102C43.7082 229.874 43.0467 230.433 42.2891 230.433Z" fill="white"/>
<path d="M15.2431 267.097C15.0668 267.097 14.8913 267.029 14.7591 266.892C14.5006 266.625 14.5079 266.197 14.7749 265.94L20.147 260.746C20.4153 260.488 20.8408 260.494 21.0992 260.761C21.3577 261.028 21.3504 261.456 21.0834 261.714L15.7113 266.908C15.5804 267.034 15.4114 267.097 15.2431 267.097Z" fill="#2B2A29"/>
<path d="M2.28309 292.092C2.10948 292.092 1.93587 292.025 1.80369 291.892C-2.8661 287.16 2.97755 277.38 3.2281 276.967C3.42144 276.648 3.83575 276.547 4.15338 276.739C4.47101 276.933 4.57294 277.346 4.38026 277.664C4.32436 277.757 -1.17272 286.959 2.7625 290.945C3.02358 291.211 3.02095 291.637 2.75593 291.897C2.62506 292.028 2.45408 292.092 2.28309 292.092Z" fill="#2B2A29"/>
<path d="M49.7378 202.147C49.551 202.147 49.3649 202.069 49.2321 201.918C48.9861 201.638 49.0137 201.213 49.2932 200.967C54.864 196.075 61.6598 192.642 68.9463 191.04C69.3087 190.957 69.6684 191.188 69.7486 191.553C69.8289 191.916 69.5987 192.275 69.2357 192.355C62.1708 193.908 55.5821 197.236 50.1823 201.98C50.0541 202.092 49.8956 202.147 49.7378 202.147Z" fill="#2B2A29"/>
<path d="M35.4721 227.662C35.4352 227.662 35.3971 227.659 35.3596 227.652C34.9927 227.591 34.7454 227.243 34.8072 226.876C35.9738 219.962 38.822 213.329 43.0439 207.695C43.2662 207.398 43.6878 207.336 43.9863 207.559C44.2842 207.783 44.3447 208.205 44.1211 208.502C40.0281 213.966 37.2661 220.396 36.1356 227.1C36.0797 227.429 35.795 227.662 35.4721 227.662Z" fill="#2B2A29"/>
<path d="M35.5583 242.407C35.2374 242.407 34.9533 242.177 34.8954 241.851C34.5383 239.82 34.3213 237.752 34.2503 235.707C34.2372 235.335 34.5278 235.023 34.8994 235.01C35.3032 235.024 35.5827 235.289 35.5958 235.66C35.6649 237.643 35.876 239.648 36.2225 241.617C36.287 241.983 36.0417 242.332 35.6754 242.396C35.6359 242.404 35.5971 242.407 35.5583 242.407Z" fill="#2B2A29"/>
<path d="M123.05 104.157H104.994C104.622 104.157 104.321 103.856 104.321 103.484C104.321 103.112 104.622 102.811 104.994 102.811H123.05C123.423 102.811 123.724 103.112 123.724 103.484C123.724 103.856 123.423 104.157 123.05 104.157Z" fill="#2B2A29"/>
<path d="M152.698 104.157H134.292C133.92 104.157 133.619 103.856 133.619 103.484C133.619 103.112 133.92 102.811 134.292 102.811H152.698C153.071 102.811 153.372 103.112 153.372 103.484C153.372 103.856 153.071 104.157 152.698 104.157Z" fill="#2B2A29"/>
<path d="M172.163 104.251C172.161 104.251 172.158 104.251 172.156 104.251L162.997 104.157C162.624 104.153 162.326 103.85 162.33 103.477C162.334 103.108 162.634 102.811 163.003 102.811C163.005 102.811 163.008 102.811 163.01 102.811L172.169 102.904C172.541 102.908 172.84 103.212 172.836 103.584C172.832 103.953 172.532 104.251 172.163 104.251Z" fill="#2B2A29"/>
<path d="M196.014 288.109H177.307C176.935 288.109 176.634 287.808 176.634 287.436C176.634 287.063 176.935 286.762 177.307 286.762H196.014C202.202 286.762 207.237 281.727 207.237 275.539V244.309C207.237 243.936 207.538 243.635 207.91 243.635C208.282 243.635 208.584 243.936 208.584 244.309V275.539C208.584 282.471 202.944 288.109 196.014 288.109Z" fill="#2B2A29"/>
<path d="M163.019 288.108H146.409C146.036 288.108 145.735 287.807 145.735 287.435C145.735 287.063 146.036 286.761 146.409 286.761H163.019C163.392 286.761 163.693 287.063 163.693 287.435C163.693 287.807 163.392 288.108 163.019 288.108Z" fill="#2B2A29"/>
<path d="M184.663 228.36C188.555 228.36 191.71 225.206 191.71 221.314C191.71 217.423 188.555 214.268 184.663 214.268C180.772 214.268 177.617 217.423 177.617 221.314C177.617 225.206 180.772 228.36 184.663 228.36Z" fill="#62D2D0"/>
<path d="M184.666 228.707C180.595 228.707 177.283 225.395 177.283 221.324C177.283 217.252 180.595 213.94 184.666 213.94C188.737 213.94 192.049 217.252 192.049 221.324C192.049 225.395 188.737 228.707 184.666 228.707ZM184.666 214.614C180.966 214.614 177.956 217.624 177.956 221.324C177.956 225.024 180.966 228.033 184.666 228.033C188.365 228.033 191.375 225.024 191.375 221.324C191.375 217.624 188.365 214.614 184.666 214.614Z" fill="#2B2A29"/>
<path d="M184.172 225.797C183.874 225.797 183.588 225.674 183.383 225.455L179.652 221.483C179.242 221.047 179.263 220.362 179.699 219.952C180.135 219.542 180.821 219.564 181.231 220L184.118 223.074L188.09 218.248C188.47 217.786 189.153 217.719 189.615 218.1C190.077 218.48 190.143 219.163 189.763 219.625L185.009 225.402C184.811 225.642 184.519 225.786 184.208 225.796C184.196 225.797 184.184 225.797 184.172 225.797Z" fill="#E3002C"/>
<path d="M184.176 226.147C183.786 226.147 183.41 225.984 183.142 225.699L179.411 221.727C178.875 221.157 178.903 220.257 179.473 219.721C180.021 219.204 180.965 219.232 181.48 219.783L184.107 222.579L187.835 218.047C188.315 217.464 189.252 217.372 189.833 217.855C190.126 218.094 190.307 218.435 190.344 218.812C190.381 219.189 190.269 219.559 190.027 219.852L185.273 225.63C185.011 225.946 184.629 226.134 184.222 226.146L184.176 226.147ZM180.445 220.008C180.255 220.008 180.073 220.08 179.935 220.21C179.635 220.493 179.62 220.966 179.901 221.266L183.632 225.238C183.773 225.388 183.972 225.474 184.176 225.474V225.81L184.185 225.474C184.415 225.466 184.616 225.367 184.753 225.201L189.508 219.424C189.634 219.27 189.693 219.076 189.674 218.878C189.654 218.679 189.559 218.5 189.405 218.374C189.097 218.12 188.609 218.168 188.354 218.475L184.139 223.597L180.989 220.243C180.847 220.092 180.653 220.008 180.445 220.008Z" fill="#2B2A29"/>
<path d="M374.487 1.34681H317.562C317.19 1.34681 316.889 1.04562 316.889 0.673407C316.889 0.301192 317.19 0 317.562 0H374.487C374.859 0 375.161 0.301192 375.161 0.673407C375.161 1.04562 374.859 1.34681 374.487 1.34681Z" fill="#2B2A29"/>
<path d="M402.876 1.34681H386.234C385.862 1.34681 385.56 1.04562 385.56 0.673407C385.56 0.301192 385.862 0 386.234 0H402.876C403.248 0 403.549 0.301192 403.549 0.673407C403.549 1.04562 403.248 1.34681 402.876 1.34681Z" fill="#2B2A29"/>
<path d="M227.686 63.4863C227.314 63.4863 227.012 63.1851 227.012 62.8129V25.452C227.012 25.0798 227.314 24.7786 227.686 24.7786C228.058 24.7786 228.359 25.0798 228.359 25.452V62.8129C228.359 63.1851 228.058 63.4863 227.686 63.4863Z" fill="#2B2A29"/>
<path d="M227.686 89.5078C227.314 89.5078 227.012 89.2066 227.012 88.8344V76.3487C227.012 75.9765 227.314 75.6753 227.686 75.6753C228.058 75.6753 228.359 75.9765 228.359 76.3487V88.8344C228.359 89.2066 228.058 89.5078 227.686 89.5078Z" fill="#2B2A29"/>
<path d="M390.513 70.8377C393.6 70.8377 396.103 68.3353 396.103 65.2483C396.103 62.1614 393.6 59.6589 390.513 59.6589C387.427 59.6589 384.924 62.1614 384.924 65.2483C384.924 68.3353 387.427 70.8377 390.513 70.8377Z" fill="#FF9100"/>
<path d="M390.511 71.1846C387.243 71.1846 384.584 68.5264 384.584 65.2581C384.584 61.9897 387.243 59.3315 390.511 59.3315C393.778 59.3315 396.437 61.9897 396.437 65.2581C396.437 68.5264 393.778 71.1846 390.511 71.1846ZM390.511 60.005C387.614 60.005 385.258 62.3619 385.258 65.2581C385.258 68.1542 387.614 70.5112 390.511 70.5112C393.407 70.5112 395.763 68.1542 395.763 65.2581C395.763 62.3619 393.407 60.005 390.511 60.005Z" fill="#2B2A29"/>
<path d="M391.369 66.0561C392.338 66.0561 393.006 65.8553 393.378 65.4513C393.749 65.0473 393.933 64.5545 393.933 63.973C393.933 63.6344 393.863 63.3215 393.726 63.0389C393.588 62.7564 393.403 62.5345 393.177 62.378C392.95 62.2215 392.668 62.1141 392.331 62.0581C392.091 62.0137 391.745 61.9927 391.29 61.9927H389.243C388.947 61.9927 388.707 62.2325 388.707 62.5282V65.2652H387.678C387.348 65.2652 387.08 65.4387 387.08 65.6523C387.08 65.8658 387.348 66.0393 387.678 66.0393H388.707V66.767H387.951C387.542 66.767 387.21 66.9629 387.21 67.204C387.21 67.445 387.542 67.6409 387.951 67.6409H388.707V68.7024C388.707 68.7024 388.707 69.0293 389.136 69.0293C389.501 69.0293 389.613 68.7024 389.613 68.7024V67.6409H391.564C391.973 67.6409 392.306 67.445 392.306 67.204C392.306 66.9629 391.973 66.767 391.564 66.767H389.613V66.0561H391.369ZM389.613 62.8007H391.365C391.776 62.8007 392.058 62.8217 392.21 62.8614C392.446 62.9268 392.637 63.0623 392.782 63.2654C392.927 63.4686 392.999 63.7138 392.999 64.001C392.999 64.3957 392.876 64.704 392.63 64.9212C392.385 65.1384 391.969 65.2481 391.383 65.2481H389.613V62.8007Z" fill="white"/>
<path d="M389.145 69.1642C388.708 69.1642 388.592 68.8696 388.592 68.7131V67.7753H387.96C387.474 67.7753 387.095 67.5294 387.095 67.215C387.095 66.9007 387.474 66.6547 387.96 66.6547H388.592V66.1733H387.688C387.282 66.1733 386.965 65.9497 386.965 65.663C386.965 65.3763 387.282 65.1527 387.688 65.1527H388.592V62.5393C388.592 62.1763 388.888 61.8804 389.251 61.8804H391.299C391.767 61.8804 392.115 61.9014 392.362 61.9461C392.712 62.0053 393.014 62.1197 393.256 62.2868C393.502 62.4578 393.7 62.6958 393.846 62.9957C393.992 63.2943 394.066 63.627 394.066 63.9835C394.066 64.5964 393.868 65.1211 393.478 65.546C393.078 65.98 392.392 66.1904 391.378 66.1904H389.746V66.6547H391.573C392.059 66.6547 392.438 66.9007 392.438 67.215C392.438 67.5294 392.059 67.7753 391.573 67.7753H389.746L389.739 68.7539C389.733 68.7696 389.593 69.1642 389.145 69.1642ZM387.96 66.902C387.596 66.902 387.342 67.0677 387.342 67.215C387.342 67.3623 387.596 67.528 387.96 67.528H388.84V68.7131C388.841 68.746 388.861 68.917 389.145 68.917C389.375 68.917 389.473 68.7447 389.499 68.6881V67.528H391.573C391.937 67.528 392.191 67.3623 392.191 67.215C392.191 67.0677 391.937 66.902 391.573 66.902H389.499V65.9432H391.378C392.305 65.9432 392.95 65.7525 393.295 65.3776C393.642 65.0001 393.819 64.5319 393.819 63.9835C393.819 63.6652 393.753 63.3692 393.623 63.1036C393.496 62.8418 393.325 62.6366 393.116 62.4906C392.903 62.3447 392.635 62.2434 392.32 62.1908C392.085 62.1487 391.752 62.1276 391.299 62.1276H389.251C389.024 62.1276 388.84 62.3131 388.84 62.5393V65.4H387.688C387.408 65.4 387.213 65.5381 387.213 65.663C387.213 65.788 387.408 65.9261 387.688 65.9261H388.84V66.902H387.96ZM391.392 65.3829H389.499V62.6879H391.374C391.79 62.6879 392.086 62.709 392.25 62.7524C392.514 62.826 392.73 62.9773 392.892 63.2035C393.052 63.4284 393.132 63.7007 393.132 64.0124C393.132 64.4425 392.994 64.7831 392.722 65.0251C392.453 65.2619 392.005 65.3829 391.392 65.3829ZM389.746 65.1356H391.392C391.943 65.1356 392.335 65.0357 392.557 64.8384C392.774 64.6463 392.885 64.3688 392.885 64.0124C392.885 63.7493 392.821 63.531 392.69 63.3469C392.562 63.1693 392.392 63.0496 392.186 62.9918C392.089 62.9668 391.867 62.9352 391.374 62.9352H389.746V65.1356Z" fill="#2B2A29"/>
<path d="M383.386 38.0831C386.519 38.0831 389.059 35.5432 389.059 32.4101C389.059 29.277 386.519 26.7371 383.386 26.7371C380.253 26.7371 377.713 29.277 377.713 32.4101C377.713 35.5432 380.253 38.0831 383.386 38.0831Z" fill="#62D2D0"/>
<path d="M383.4 38.4333C380.086 38.4333 377.39 35.737 377.39 32.4239C377.39 29.1108 380.086 26.4146 383.4 26.4146C386.713 26.4146 389.41 29.1108 389.41 32.4239C389.41 35.737 386.713 38.4333 383.4 38.4333ZM383.4 27.088C380.457 27.088 378.064 29.4817 378.064 32.4239C378.064 35.3661 380.457 37.7599 383.4 37.7599C386.342 37.7599 388.736 35.3661 388.736 32.4239C388.736 29.4817 386.342 27.088 383.4 27.088Z" fill="#2B2A29"/>
<path d="M383.397 36.4424C383.114 36.4424 382.885 36.2131 382.885 35.9303V31.4056C382.885 31.1228 383.114 30.8936 383.397 30.8936C383.68 30.8936 383.909 31.1228 383.909 31.4056V35.9303C383.909 36.2131 383.68 36.4424 383.397 36.4424Z" fill="white"/>
<path d="M383.406 36.5164C383.085 36.5164 382.825 36.256 382.825 35.9364V31.4119C382.825 31.091 383.085 30.8306 383.406 30.8306C383.726 30.8306 383.987 31.091 383.987 31.4119V35.9364C383.987 36.256 383.726 36.5164 383.406 36.5164ZM383.406 30.9674C383.162 30.9674 382.963 31.1673 382.963 31.4119V35.9364C382.963 36.181 383.162 36.3796 383.406 36.3796C383.65 36.3796 383.849 36.181 383.849 35.9364V31.4119C383.849 31.1673 383.65 30.9674 383.406 30.9674Z" fill="#2B2A29"/>
<path d="M383.397 30.2799C383.114 30.2799 382.885 30.0506 382.885 29.7678V29.2862C382.885 29.0035 383.114 28.7742 383.397 28.7742C383.68 28.7742 383.909 29.0035 383.909 29.2862V29.7678C383.909 30.0506 383.68 30.2799 383.397 30.2799Z" fill="white"/>
<path d="M383.406 30.3544C383.085 30.3544 382.825 30.094 382.825 29.7731V29.2917C382.825 28.9721 383.085 28.7117 383.406 28.7117C383.726 28.7117 383.987 28.9721 383.987 29.2917V29.7731C383.987 30.094 383.726 30.3544 383.406 30.3544ZM383.406 28.8485C383.162 28.8485 382.963 29.0471 382.963 29.2917V29.7731C382.963 30.0177 383.162 30.2176 383.406 30.2176C383.65 30.2176 383.849 30.0177 383.849 29.7731V29.2917C383.849 29.0471 383.65 28.8485 383.406 28.8485Z" fill="#2B2A29"/>
<path d="M383.001 39.3511C382.94 39.3511 382.88 39.3497 382.819 39.3484C382.748 39.3471 382.693 39.2879 382.694 39.2182C382.696 39.1472 382.756 39.1051 382.825 39.0933C384.202 39.1235 385.553 38.7605 386.722 38.0306C386.784 37.995 386.861 38.0121 386.899 38.0726C386.936 38.1318 386.918 38.2107 386.858 38.2489C385.698 38.971 384.368 39.3511 383.001 39.3511Z" fill="#2B2A29"/>
<path d="M388.206 37.0965C388.174 37.0965 388.143 37.086 388.119 37.0623C388.067 37.0136 388.065 36.9321 388.113 36.8808C388.314 36.6664 388.507 36.4336 388.684 36.1877C389.665 34.829 390.127 33.1639 389.987 31.4975C389.981 31.4278 390.034 31.366 390.104 31.3594C390.171 31.362 390.236 31.4067 390.242 31.4764C390.387 33.2034 389.908 34.929 388.892 36.3376C388.708 36.5914 388.508 36.8334 388.299 37.057C388.274 37.0833 388.24 37.0965 388.206 37.0965Z" fill="#2B2A29"/>
<path d="M384.197 105.342C388.124 105.342 391.308 102.159 391.308 98.2316C391.308 94.3046 388.124 91.1211 384.197 91.1211C380.27 91.1211 377.087 94.3046 377.087 98.2316C377.087 102.159 380.27 105.342 384.197 105.342Z" fill="#E2F0FC"/>
<path d="M384.205 105.691C380.099 105.691 376.758 102.35 376.758 98.2438C376.758 94.1376 380.099 90.7969 384.205 90.7969C388.312 90.7969 391.653 94.1376 391.653 98.2438C391.653 102.35 388.312 105.691 384.205 105.691ZM384.205 91.4703C380.471 91.4703 377.432 94.5085 377.432 98.2438C377.432 101.979 380.471 105.017 384.205 105.017C387.941 105.017 390.979 101.979 390.979 98.2438C390.979 94.5085 387.941 91.4703 384.205 91.4703Z" fill="#2B2A29"/>
<path d="M389.253 99.2178C389.095 100.881 387.957 102.254 386.422 102.749L385.796 100.827C386.58 100.574 387.163 99.8741 387.24 99.0259L389.253 99.2178Z" fill="#2A99A7"/>
<path d="M386.374 102.852L385.7 100.783L385.774 100.76C386.545 100.511 387.091 99.8298 387.165 99.0249L387.172 98.9473L387.249 98.9538L389.34 99.1538L389.332 99.2314C389.173 100.903 388.04 102.316 386.448 102.829L386.374 102.852ZM385.895 100.882L386.473 102.656C387.944 102.151 388.992 100.844 389.169 99.2932L387.311 99.1156C387.208 99.9245 386.662 100.604 385.895 100.882Z" fill="#2B2A29"/>
<path d="M387.966 98.047C387.966 98.1783 387.959 98.3096 387.949 98.4375L385.936 98.2456C385.943 98.1817 385.946 98.1144 385.946 98.047C385.946 97.1685 385.408 96.4145 384.64 96.1014L385.182 94.1458C386.805 94.7011 387.966 96.2394 387.966 98.047Z" fill="#E87FA7"/>
<path d="M388.025 98.531L387.947 98.5244L385.856 98.3245L385.864 98.2469C385.87 98.1851 385.873 98.1206 385.873 98.0562C385.873 97.2302 385.379 96.495 384.615 96.1832L384.551 96.1569L385.134 94.0552L385.212 94.0815C386.908 94.6615 388.049 96.2595 388.049 98.0562C388.049 98.1719 388.043 98.2982 388.032 98.4521L388.025 98.531ZM386.024 98.1851L387.882 98.3626C387.89 98.2469 387.893 98.1482 387.893 98.0562C387.893 96.3529 386.83 94.8364 385.239 94.2564L384.737 96.0662C385.524 96.416 386.028 97.1894 386.028 98.0562C386.028 98.0996 386.027 98.143 386.024 98.1851Z" fill="#2B2A29"/>
<path d="M385.176 94.1453L384.634 96.101C384.388 96 384.119 95.9427 383.836 95.9427C382.675 95.9427 381.732 96.8852 381.732 98.0465C381.732 98.2754 381.769 98.4909 381.837 98.6962L379.773 98.75C379.733 98.5212 379.713 98.2855 379.713 98.0465C379.713 95.7677 381.557 93.9231 383.836 93.9231C384.304 93.9231 384.755 94.0005 385.176 94.1453Z" fill="#62D2D0"/>
<path d="M379.718 98.8389L379.706 98.7732C379.666 98.5404 379.645 98.2984 379.645 98.0564C379.645 95.7402 381.529 93.8555 383.846 93.8555C384.314 93.8555 384.774 93.9318 385.21 94.0817L385.279 94.1054L385.26 94.1764L384.695 96.2163L384.614 96.1835C384.367 96.0809 384.109 96.0296 383.846 96.0296C382.728 96.0296 381.819 96.9384 381.819 98.0564C381.819 98.2668 381.854 98.4773 381.92 98.6824L381.952 98.7811L379.718 98.8389ZM383.846 94.0107C381.615 94.0107 379.8 95.8257 379.8 98.0564C379.8 98.2668 379.816 98.4773 379.849 98.6811L381.742 98.6311C381.691 98.4431 381.664 98.2497 381.664 98.0564C381.664 96.8529 382.643 95.8744 383.846 95.8744C384.101 95.8744 384.351 95.9191 384.591 96.0072L385.09 94.2053C384.691 94.0764 384.272 94.0107 383.846 94.0107Z" fill="#2B2A29"/>
<path d="M385.117 101.971C384.716 102.102 384.285 102.173 383.841 102.173C381.801 102.173 380.111 100.695 379.778 98.7528L381.842 98.699C382.114 99.5439 382.905 100.153 383.841 100.153C384.07 100.153 384.285 100.116 384.491 100.049L385.117 101.971Z" fill="#FBAA6C"/>
<path d="M383.851 102.233C381.811 102.233 380.08 100.776 379.735 98.7685L379.725 98.7067L379.787 98.7054L381.891 98.6501L381.904 98.6883C382.178 99.5353 382.96 100.105 383.851 100.105C384.066 100.105 384.279 100.071 384.484 100.004L384.536 99.9864L384.552 100.038L385.196 102.011L385.144 102.028C384.729 102.164 384.295 102.233 383.851 102.233ZM379.853 98.8119C380.213 100.735 381.885 102.125 383.851 102.125C384.264 102.125 384.671 102.063 385.059 101.941L384.466 100.123C384.266 100.182 384.059 100.213 383.851 100.213C382.927 100.213 382.113 99.6313 381.813 98.7606L379.853 98.8119Z" fill="#2B2A29"/>
<path d="M457.699 187.062H449.05V241.058H457.699V187.062Z" fill="#FD9347"/>
<g opacity="0.53">
<path opacity="0.53" d="M502.334 235.01H495.434V240.07H502.334V235.01Z" fill="white"/>
</g>
<g opacity="0.53">
<path opacity="0.53" d="M493.483 235.01H486.583V240.071H493.483V235.01Z" fill="white"/>
</g>
<path d="M477.947 214.856H417.493V261.091H477.947V214.856Z" fill="#FBAA6C"/>
<path d="M478.62 261.765H416.819V214.184H478.62V261.765ZM418.166 260.419H477.273V215.53H418.166V260.419Z" fill="#2B2A29"/>
<path d="M465.355 214.935L463.468 214.779C463.479 214.648 464.464 201.569 458.108 194.676C455.527 191.876 452.037 190.456 447.734 190.456C430.123 190.456 429.92 214.612 429.92 214.857H428.026C428.026 214.594 428.252 188.562 447.734 188.562C452.59 188.562 456.55 190.189 459.505 193.397C466.422 200.907 465.402 214.365 465.355 214.935Z" fill="#2B2A29"/>
<path d="M448.589 246.168C448.035 246.168 447.503 245.939 447.122 245.533L440.186 238.149C439.425 237.339 439.465 236.064 440.275 235.303C441.086 234.541 442.36 234.581 443.121 235.392L448.49 241.107L455.872 232.135C456.579 231.276 457.848 231.152 458.707 231.86C459.565 232.566 459.689 233.835 458.982 234.694L450.144 245.434C449.777 245.881 449.234 246.148 448.656 246.167C448.634 246.167 448.612 246.168 448.589 246.168Z" fill="#E3002C"/>
<path d="M448.675 246.516H448.602C447.956 246.516 447.332 246.246 446.89 245.776L439.954 238.392C439.524 237.935 439.298 237.337 439.317 236.71C439.337 236.082 439.6 235.499 440.057 235.069C440.965 234.217 442.527 234.264 443.38 235.173L448.486 240.609L455.626 231.933C456.418 230.971 457.968 230.816 458.934 231.612C459.418 232.011 459.719 232.574 459.779 233.199C459.84 233.824 459.654 234.435 459.255 234.921L450.418 245.66C449.989 246.181 449.355 246.492 448.68 246.516H448.675ZM441.667 235.105C441.238 235.105 440.831 235.267 440.519 235.56C440.192 235.868 440.005 236.283 439.991 236.731C439.976 237.178 440.138 237.605 440.445 237.931L447.381 245.315C447.696 245.651 448.141 245.843 448.602 245.843L448.669 246.179L448.658 245.843C449.139 245.827 449.592 245.603 449.898 245.231L458.735 234.492C459.02 234.146 459.153 233.711 459.109 233.265C459.066 232.819 458.852 232.417 458.506 232.132C457.816 231.563 456.71 231.673 456.145 232.361L448.519 241.627L442.889 235.634C442.569 235.293 442.135 235.105 441.667 235.105Z" fill="#2B2A29"/>
<path d="M427.189 215.177H418.541V259.995H427.189V215.177Z" fill="#FD9347"/>
<path d="M435.354 200.492H385.483V246.728H435.354V200.492Z" fill="#FBAA6C"/>
<path d="M436.031 247.402H384.814V199.819H436.031V247.402ZM386.161 246.055H434.684V201.166H386.161V246.055Z" fill="#2B2A29"/>
<path d="M425.029 200.55L423.314 200.435C423.324 200.289 424.221 185.827 418.053 179.231C416.053 177.092 413.483 176.006 410.414 176.006C395.977 176.006 395.797 200.248 395.797 200.492H394.078C394.078 199.422 394.263 174.286 410.414 174.286C413.979 174.286 416.973 175.555 419.312 178.06C425.989 185.204 425.072 199.927 425.029 200.55Z" fill="#2B2A29"/>
<path d="M410.433 228.815C409.878 228.815 409.347 228.586 408.965 228.181L402.03 220.797C401.268 219.986 401.308 218.712 402.119 217.951C402.929 217.189 404.203 217.229 404.965 218.04L410.333 223.754L417.716 214.783C418.422 213.923 419.692 213.8 420.55 214.508C421.409 215.214 421.532 216.483 420.825 217.342L411.988 228.081C411.62 228.528 411.078 228.795 410.499 228.814C410.477 228.815 410.455 228.815 410.433 228.815Z" fill="#E3002C"/>
<path d="M410.512 229.164H410.44C409.794 229.164 409.169 228.894 408.727 228.423L401.791 221.039C400.904 220.094 400.951 218.603 401.895 217.717C402.804 216.865 404.364 216.913 405.217 217.821L410.324 223.257L417.463 214.58C418.255 213.616 419.807 213.465 420.771 214.259C421.256 214.658 421.556 215.222 421.617 215.847C421.677 216.471 421.491 217.083 421.092 217.568L412.254 228.307C411.826 228.828 411.193 229.14 410.517 229.164H410.512ZM403.503 217.752C403.076 217.752 402.668 217.914 402.356 218.207C401.682 218.841 401.65 219.904 402.282 220.579L409.217 227.963C409.533 228.298 409.979 228.49 410.44 228.49L410.506 228.827L410.495 228.49C410.977 228.474 411.429 228.251 411.735 227.879L420.573 217.14C420.857 216.794 420.99 216.358 420.947 215.912C420.903 215.467 420.689 215.064 420.343 214.78C419.653 214.21 418.549 214.321 417.982 215.009L410.356 224.275L404.727 218.281C404.406 217.94 403.972 217.752 403.503 217.752Z" fill="#2B2A29"/>
<path d="M394.935 201.34H386.286V245.817H394.935V201.34Z" fill="#FD9347"/>
<path d="M506.501 199.029L503.648 195.21L500.796 199.029V186.694H506.501V199.029Z" fill="white"/>
<path d="M431.24 232.887H418.131C417.5 232.887 416.989 232.376 416.989 231.746V231.723C416.989 231.092 417.5 230.581 418.131 230.581H431.24C431.87 230.581 432.381 231.092 432.381 231.723V231.746C432.381 232.376 431.87 232.887 431.24 232.887Z" fill="white"/>
<path d="M431.24 237.631H418.131C417.5 237.631 416.989 237.12 416.989 236.489V236.466C416.989 235.836 417.5 235.325 418.131 235.325H431.24C431.87 235.325 432.381 235.836 432.381 236.466V236.489C432.381 237.12 431.87 237.631 431.24 237.631Z" fill="white"/>
<path d="M431.24 242.403H418.131C417.5 242.403 416.989 241.892 416.989 241.261V241.238C416.989 240.608 417.5 240.096 418.131 240.096H431.24C431.87 240.096 432.381 240.608 432.381 241.238V241.261C432.381 241.892 431.87 242.403 431.24 242.403Z" fill="white"/>
<g opacity="0.53">
<path opacity="0.53" d="M474.2 251.169H467.3V256.229H474.2V251.169Z" fill="white"/>
</g>
</svg>
