<svg width="80" height="76" viewBox="0 0 80 76" fill="none" xmlns="http://www.w3.org/2000/svg">
<path d="M38.3338 18.487V30.3757L27.145 23.1313V11.5869L38.3338 18.487Z" fill="#6AD3D3"/>
<path d="M38.334 30.9313C38.2268 30.9315 38.1218 30.9007 38.0317 30.8425L26.8429 23.598C26.6849 23.4954 26.5894 23.3197 26.5896 23.1314V11.587C26.5894 11.2802 26.8382 11.0314 27.145 11.0312C27.2478 11.0312 27.3487 11.0598 27.4363 11.1136L38.6251 18.0137C38.789 18.1152 38.8887 18.2943 38.8884 18.4871V30.376C38.8884 30.6828 38.6396 30.9315 38.3328 30.9315H38.334V30.9313ZM27.7007 22.8293L37.7784 29.3547V18.7993L27.7007 12.5849V22.8293Z" fill="#574E56"/>
<path d="M49.5228 11.5869V23.1313L38.334 30.3757V18.487L49.5228 11.5869Z" fill="#507299"/>
<path d="M38.3336 30.9315C38.0268 30.9315 37.7781 30.6827 37.7781 30.3759V18.487C37.7778 18.2942 37.8774 18.1151 38.0413 18.0137L49.2301 11.1137C49.4914 10.9529 49.8337 11.0345 49.9945 11.2958C50.0483 11.3834 50.0769 11.4842 50.0769 11.5871V23.1315C50.077 23.3199 49.9816 23.4955 49.8235 23.5981L38.6347 30.8426C38.545 30.9006 38.4405 30.9315 38.3336 30.9315ZM38.8892 18.7971V29.3525L48.9669 22.8271V12.5827L38.8892 18.7971Z" fill="#574E56"/>
<path d="M47.3006 12.957V24.2424L38.334 30.048V30.3757L49.5228 23.1313V11.5869L47.3006 12.957Z" fill="#456180"/>
<path d="M38.3336 30.9315C38.0268 30.9315 37.7781 30.6827 37.7781 30.3759V18.487C37.7778 18.2942 37.8774 18.1151 38.0413 18.0137L49.2301 11.1137C49.4914 10.9529 49.8337 11.0345 49.9945 11.2958C50.0483 11.3834 50.0769 11.4842 50.0769 11.5871V23.1315C50.077 23.3199 49.9816 23.4955 49.8235 23.5981L38.6347 30.8426C38.545 30.9006 38.4405 30.9315 38.3336 30.9315ZM38.8892 18.7971V29.3525L48.9669 22.8271V12.5827L38.8892 18.7971Z" fill="#574E56"/>
<path d="M31.9836 5.24243C31.6768 5.24325 31.4274 4.99499 31.4268 4.68818C31.4263 4.49456 31.5266 4.31481 31.6915 4.21352L38.0424 0.29803C38.2212 0.187766 38.4469 0.187766 38.6257 0.29803L42.0313 2.39809C42.2928 2.55924 42.374 2.90162 42.213 3.16308C42.0518 3.42455 41.7095 3.50578 41.448 3.34479L38.3336 1.42366L32.2748 5.16038C32.1872 5.21405 32.0864 5.24259 31.9836 5.24243Z" fill="#574E56"/>
<path d="M28.8663 7.16474C28.5595 7.16458 28.311 6.91551 28.3113 6.6087C28.3114 6.41655 28.4108 6.23811 28.5742 6.13698L29.0441 5.84697C29.3032 5.68239 29.6465 5.75905 29.8109 6.01791C29.9755 6.27693 29.8988 6.62028 29.64 6.78469C29.6359 6.7873 29.6317 6.78991 29.6274 6.79236L29.1575 7.08237C29.0699 7.13636 28.9691 7.16474 28.8663 7.16474Z" fill="#574E56"/>
<path d="M49.5226 11.587L38.3338 18.4871L27.145 11.587L38.3338 4.68701L49.5226 11.587Z" fill="#FFB13E"/>
<path d="M38.3334 19.0425C38.2306 19.0425 38.1298 19.0141 38.0423 18.9603L26.8535 12.0603C26.592 11.8997 26.5103 11.5576 26.6709 11.2961C26.7166 11.2218 26.7791 11.1593 26.8535 11.1136L38.0423 4.21368C38.2209 4.1039 38.446 4.1039 38.6244 4.21368L49.8132 11.1136C50.0747 11.2743 50.1564 11.6163 49.9957 11.8778C49.95 11.9522 49.8876 12.0146 49.8132 12.0603L38.6246 18.9601C38.537 19.0139 38.4362 19.0425 38.3334 19.0425ZM28.2034 11.5868L38.3332 17.8335L48.4631 11.5858L38.3332 5.33915L28.2034 11.5868Z" fill="#574E56"/>
<path d="M38.3334 19.0425C38.2306 19.0425 38.1298 19.0141 38.0423 18.9603L26.8535 12.0603C26.592 11.8997 26.5103 11.5576 26.6709 11.2961C26.7166 11.2218 26.7791 11.1593 26.8535 11.1136L38.0423 4.21368C38.2209 4.1039 38.446 4.1039 38.6244 4.21368L49.8132 11.1136C50.0747 11.2743 50.1564 11.6163 49.9957 11.8778C49.95 11.9522 49.8876 12.0146 49.8132 12.0603L38.6246 18.9601C38.537 19.0139 38.4362 19.0425 38.3334 19.0425ZM28.2034 11.5868L38.3332 17.8335L48.4631 11.5858L38.3332 5.33915L28.2034 11.5868Z" fill="#574E56"/>
<path d="M64.9227 63.0534V74.9534L53.7339 67.7089V56.1646L64.9227 63.0534Z" fill="#507299"/>
<path d="M64.9221 75.509C64.8149 75.5091 64.7099 75.4783 64.6198 75.4201L53.431 68.1757C53.273 68.0731 53.1776 67.8974 53.1777 67.709V56.1646C53.1776 55.8578 53.4263 55.609 53.7331 55.6089C53.8361 55.6089 53.9369 55.6374 54.0244 55.6913L65.2132 62.5801C65.3777 62.6812 65.4778 62.8605 65.4776 63.0535V74.9534C65.4776 75.2602 65.2289 75.509 64.9221 75.509ZM54.2889 67.4067L64.3665 73.9312V63.3635L54.2889 57.1536V67.4067Z" fill="#574E56"/>
<path d="M70.6312 75.7843C70.3244 75.7838 70.0762 75.5346 70.0767 75.2278C70.077 75.0402 70.1719 74.8655 70.329 74.7631L70.8467 74.4297C71.1022 74.2596 71.447 74.3287 71.6171 74.5841C71.7872 74.8396 71.7181 75.1844 71.4626 75.3545C71.4589 75.357 71.4551 75.3596 71.4512 75.3619L70.9335 75.6953C70.8435 75.7536 70.7384 75.7845 70.6312 75.7843Z" fill="#574E56"/>
<path d="M73.801 73.7311C73.4942 73.7316 73.2451 73.4832 73.2446 73.1764C73.2443 72.9875 73.3401 72.8115 73.4988 72.7089L78.8888 69.219V66.4867C78.8888 66.1799 79.1375 65.9312 79.4443 65.9312C79.7511 65.9312 79.9999 66.1799 79.9999 66.4867V69.5211C80.0001 69.7095 79.9046 69.8851 79.7466 69.9877L74.1032 73.6421C74.0132 73.7003 73.9083 73.7313 73.801 73.7311Z" fill="#574E56"/>
<path d="M76.1112 56.1646V67.7089L64.9224 74.9534V63.0534L76.1112 56.1646Z" fill="#FFB13E"/>
<path d="M64.9223 75.5086C64.6154 75.5086 64.3667 75.2599 64.3667 74.9531V63.0531C64.3667 62.8601 64.4667 62.6809 64.6311 62.5797L75.8199 55.6909C76.0812 55.5301 76.4234 55.6116 76.5842 55.8729C76.6381 55.9605 76.6666 56.0613 76.6666 56.1642V67.7086C76.6668 67.897 76.5713 68.0727 76.4133 68.1753L65.2222 75.4197C65.1328 75.4775 65.0288 75.5083 64.9223 75.5086ZM65.4778 63.3632V73.9308L75.5555 67.4054V57.1532L65.4778 63.3632Z" fill="#574E56"/>
<path d="M73.8891 57.5324V67.7089L64.9224 73.5144V74.9534L76.1112 67.7089V56.1646L73.8891 57.5324Z" fill="#FF9800"/>
<path d="M64.9223 75.5086C64.6154 75.5086 64.3667 75.2599 64.3667 74.9531V63.0531C64.3667 62.8601 64.4667 62.6809 64.6311 62.5797L75.8199 55.6909C76.0812 55.5301 76.4234 55.6116 76.5842 55.8729C76.6381 55.9605 76.6666 56.0613 76.6666 56.1642V67.7086C76.6668 67.897 76.5713 68.0727 76.4133 68.1753L65.2222 75.4197C65.1328 75.4775 65.0288 75.5083 64.9223 75.5086ZM65.4778 63.3632V73.9308L75.5555 67.4054V57.1532L65.4778 63.3632Z" fill="#574E56"/>
<path d="M76.1115 56.1644L64.9227 63.0532L53.7339 56.1644L64.9227 48.1533L65.9116 48.8534L76.1115 56.1644Z" fill="#6AD3D3"/>
<path d="M64.9222 63.6089C64.8194 63.6089 64.7186 63.5806 64.631 63.5267L53.4422 56.6379C53.1808 56.4774 53.0989 56.1353 53.2594 55.8737C53.2982 55.8104 53.3494 55.7554 53.4099 55.7122L64.5987 47.7011C64.7915 47.5638 65.0502 47.5638 65.2432 47.7011L66.2321 48.4012L76.4354 55.709C76.6848 55.8877 76.7421 56.2348 76.5631 56.4842C76.5202 56.5441 76.4657 56.5948 76.4031 56.6335L65.2143 63.5223C65.1271 63.5778 65.0258 63.6078 64.9222 63.6089ZM54.7367 56.1301L64.9222 62.4013L75.1109 56.1291L64.9266 48.8358L54.7367 56.1301Z" fill="#574E56"/>
<path d="M11.7454 63.0534V74.9534L0.556641 67.7089V56.1646L11.7454 63.0534Z" fill="#507299"/>
<path d="M11.7453 75.509C11.6382 75.5091 11.5331 75.4783 11.4431 75.4201L0.254289 68.1757C0.0962339 68.0731 0.00081366 67.8974 0.000976771 67.709V56.1646C0.00081366 55.8578 0.249559 55.609 0.556372 55.6089C0.659132 55.6089 0.760098 55.6374 0.847689 55.6913L12.0365 62.5801C12.2009 62.6812 12.3011 62.8605 12.3009 63.0535V74.9534C12.3009 75.2602 12.0521 75.509 11.7453 75.509ZM1.11209 67.4067L11.1898 73.9312V63.3635L1.11209 57.1536V67.4067Z" fill="#574E56"/>
<path d="M22.9341 56.1646V67.7089L11.7451 74.9534V63.0534L22.9341 56.1646Z" fill="#FFB13E"/>
<path d="M11.7455 75.5086C11.4387 75.5086 11.1899 75.2599 11.1899 74.953V63.0531C11.1899 62.8601 11.2899 62.6809 11.4543 62.5797L22.6431 55.6909C22.9044 55.5301 23.2467 55.6116 23.4075 55.8729C23.4613 55.9605 23.4899 56.0613 23.4899 56.1642V67.7086C23.49 67.897 23.3946 68.0727 23.2365 68.1753L12.0477 75.4197C11.9577 75.4778 11.8528 75.5088 11.7455 75.5086ZM12.3011 63.3632V73.9308L22.3787 67.4054V57.1532L12.3011 63.3632Z" fill="#574E56"/>
<path d="M20.7118 57.5324V67.7089L11.7451 73.5144V74.9534L22.9341 67.7089V56.1646L20.7118 57.5324Z" fill="#FF9800"/>
<path d="M11.7455 75.5086C11.4387 75.5086 11.1899 75.2599 11.1899 74.953V63.0531C11.1899 62.8601 11.2899 62.6809 11.4543 62.5797L22.6431 55.6909C22.9044 55.5301 23.2467 55.6116 23.4075 55.8729C23.4613 55.9605 23.4899 56.0613 23.4899 56.1642V67.7086C23.49 67.897 23.3946 68.0727 23.2365 68.1753L12.0477 75.4197C11.9577 75.4778 11.8528 75.5088 11.7455 75.5086ZM12.3011 63.3632V73.9308L22.3787 67.4054V57.1532L12.3011 63.3632Z" fill="#574E56"/>
<path d="M22.9344 56.1644L11.7454 63.0532L0.556641 56.1644L10.7232 48.8867L11.7454 48.1533L22.9344 56.1644Z" fill="#6AD3D3"/>
<path d="M11.745 63.609C11.6423 63.609 11.5415 63.5806 11.4539 63.5268L0.265243 56.638C0.00377505 56.4775 -0.0781069 56.1354 0.0823948 55.8738C0.121215 55.8105 0.172432 55.7555 0.232947 55.7123L11.4206 47.7024C11.6142 47.5634 11.8749 47.5634 12.0683 47.7024L23.2571 55.7134C23.5068 55.8917 23.5646 56.2387 23.3863 56.4884C23.3431 56.5489 23.2883 56.6001 23.2248 56.6389L12.0362 63.5279C11.9486 63.5813 11.8478 63.6093 11.745 63.609ZM1.55627 56.1302L11.7418 62.4013L21.9273 56.1302L11.745 48.8368L1.55627 56.1302Z" fill="#574E56"/>
<path d="M65.9115 49.4136C65.8795 49.4137 65.8475 49.4111 65.8159 49.4057C65.5136 49.3532 65.3112 49.0657 65.3637 48.7636L65.5171 47.8746C65.6053 46.991 65.6484 46.1037 65.6459 45.2157C65.6446 34.3701 59.2311 24.5513 49.3005 20.1915C49.0157 20.0773 48.8773 19.754 48.9914 19.4692C49.1056 19.1844 49.4289 19.046 49.7137 19.1601C49.7243 19.1644 49.7347 19.1689 49.745 19.1738C60.0811 23.7111 66.7561 33.9312 66.7561 45.2192C66.7588 46.158 66.712 47.0964 66.6161 48.0302L66.4572 48.9525C66.4112 49.2182 66.1811 49.4126 65.9115 49.4136Z" fill="#574E56"/>
<path d="M38.3338 73.6346C32.53 73.649 26.8625 71.8748 22.1028 68.5535C21.8547 68.373 21.8002 68.0254 21.9808 67.7775C22.1563 67.5365 22.4905 67.477 22.7383 67.6426C32.1178 74.1561 44.5582 74.152 53.9337 67.6326C54.1796 67.4493 54.5277 67.5 54.7111 67.746C54.8944 67.992 54.8437 68.34 54.5977 68.5234C54.5887 68.5301 54.5796 68.5364 54.5703 68.5426C49.8118 71.8716 44.1413 73.65 38.3338 73.6346Z" fill="#574E56"/>
<path d="M10.7181 49.4412C10.4418 49.4412 10.2074 49.2381 10.1681 48.9646L10.0381 48.0523C9.94056 47.1115 9.89309 46.1661 9.89587 45.22C9.89831 33.9242 16.5816 23.6991 26.9268 19.1635C27.2041 19.0322 27.5354 19.1504 27.6667 19.4277C27.798 19.705 27.6798 20.0363 27.4025 20.1676C27.3922 20.1725 27.3817 20.177 27.3711 20.1813C17.431 24.5401 11.0094 34.365 11.0068 45.2189C11.004 46.1191 11.0486 47.0188 11.1401 47.9145L11.2678 48.8034C11.3113 49.1071 11.1004 49.3887 10.7967 49.4322C10.7687 49.4363 10.7405 49.4381 10.7122 49.4378L10.7181 49.4412Z" fill="#574E56"/>
<path d="M4.40575 55.7262L9.14463 52.2818C9.38293 52.1085 9.71633 52.1611 9.8894 52.3992C10.0625 52.6372 10.0094 52.9706 9.77114 53.1438L5.03226 56.5882C4.79396 56.7615 4.46056 56.7089 4.28749 56.4708C4.1146 56.2327 4.16744 55.8994 4.40575 55.7262Z" fill="white"/>
<path d="M10.6678 51.1572L10.8978 50.9899C11.1359 50.8166 11.4693 50.869 11.6425 51.1068C11.8156 51.3448 11.7629 51.678 11.5248 51.8514L11.2948 52.0188C11.0566 52.192 10.7232 52.1396 10.55 51.9018C10.3768 51.6638 10.4295 51.3304 10.6678 51.1572Z" fill="white"/>
</svg>
