<svg width="24" height="24" viewBox="0 0 24 24" fill="none" xmlns="http://www.w3.org/2000/svg">
<g opacity="0.7">
<path d="M17.9004 8.51465H4.99509C4.73475 8.51465 4.52368 8.72565 4.52368 8.98606C4.52368 9.24646 4.73475 9.45746 4.99509 9.45746H17.9003C18.1607 9.45746 18.3717 9.2464 18.3717 8.98606C18.3718 8.72565 18.1607 8.51465 17.9004 8.51465Z" fill="#574E56"/>
<path d="M17.9004 11.4893H4.99509C4.73475 11.4893 4.52368 11.7003 4.52368 11.9607C4.52368 12.2211 4.73475 12.4321 4.99509 12.4321H17.9003C18.1607 12.4321 18.3717 12.2211 18.3717 11.9607C18.3718 11.7003 18.1607 11.4893 17.9004 11.4893Z" fill="#574E56"/>
<path d="M11.4477 14.4644H4.99509C4.73475 14.4644 4.52368 14.6754 4.52368 14.9358C4.52368 15.1962 4.73475 15.4072 4.99509 15.4072H11.4477C11.7081 15.4072 11.9191 15.1962 11.9191 14.9358C11.9191 14.6754 11.7081 14.4644 11.4477 14.4644Z" fill="#574E56"/>
<path d="M18.8523 5H4.04259C2.36495 5 1 6.36488 1 8.04259V15.6918C1 17.3696 2.36488 18.7344 4.04259 18.7344H4.14888L3.53963 22.1172C3.48206 22.4369 3.63548 22.7555 3.92141 22.9097C4.21085 23.0659 4.56076 23.0146 4.79339 22.7936L8.96485 18.8339C9.03241 18.7697 9.12085 18.7344 9.214 18.7344H18.8522C20.5299 18.7344 21.8948 17.3696 21.8948 15.6918V8.04259C21.8949 6.36488 20.53 5 18.8523 5ZM20.9521 15.6918C20.9521 16.8496 20.0101 17.7916 18.8523 17.7916H9.21406C8.8783 17.7916 8.55931 17.9189 8.31575 18.1501L4.57208 21.7037L5.10106 18.7667C5.19264 18.2583 4.80162 17.7916 4.28584 17.7916H4.04259C2.88481 17.7916 1.94288 16.8496 1.94288 15.6918V8.04259C1.94288 6.88482 2.88481 5.94282 4.04259 5.94282H18.8523C20.0101 5.94282 20.9521 6.88482 20.9521 8.04259V15.6918Z" fill="#574E56"/>
</g>
</svg>
