<svg width="460" height="240" viewBox="0 0 460 240" fill="none" xmlns="http://www.w3.org/2000/svg">
<rect width="460" height="240" rx="25" fill="#FFC476"/>
<path d="M312.593 113.662H333.984V88.2384" stroke="#FFE9CC" stroke-width="1.5" stroke-miterlimit="10"/>
<path d="M164.535 144.112H133.091V94.0236H128.708" stroke="#FFE9CC" stroke-width="1.5" stroke-miterlimit="10"/>
<path d="M333.984 88.2382C340.536 88.2382 345.848 82.9262 345.848 76.3736C345.848 69.8211 340.536 64.5092 333.984 64.5092C327.431 64.5092 322.119 69.8211 322.119 76.3736C322.119 82.9262 327.431 88.2382 333.984 88.2382Z" fill="#BDD8FF" stroke="#574E56" stroke-width="1.5" stroke-miterlimit="10"/>
<path d="M116.864 105.891C123.417 105.891 128.729 100.579 128.729 94.0266C128.729 87.474 123.417 82.1621 116.864 82.1621C110.312 82.1621 105 87.474 105 94.0266C105 100.579 110.312 105.891 116.864 105.891Z" fill="#A3CAFF" stroke="#574E56" stroke-width="1.5" stroke-miterlimit="10"/>
<path d="M288 74.257V25.257H270" stroke="#FFE9CC" stroke-width="1.5" stroke-miterlimit="10"/>
<path d="M312.608 45.2021H287.535" stroke="#FFE9CC" stroke-width="1.5" stroke-miterlimit="10"/>
<path d="M324.808 57.0661C331.36 57.0661 336.672 51.7542 336.672 45.2016C336.672 38.649 331.36 33.3371 324.808 33.3371C318.255 33.3371 312.943 38.649 312.943 45.2016C312.943 51.7542 318.255 57.0661 324.808 57.0661Z" fill="#A3CAFF" stroke="#574E56" stroke-width="1.5" stroke-miterlimit="10"/>
<path d="M257.954 36.7289C264.507 36.7289 269.819 31.417 269.819 24.8644C269.819 18.3118 264.507 12.9999 257.954 12.9999C251.402 12.9999 246.09 18.3118 246.09 24.8644C246.09 31.417 251.402 36.7289 257.954 36.7289Z" fill="#BDD8FF" stroke="#574E56" stroke-width="1.5" stroke-miterlimit="10"/>
<path d="M221 167V200.257H248" stroke="#FFE9CC" stroke-width="1.5" stroke-miterlimit="10"/>
<path d="M280.189 182.25L276.091 200.909L264.766 216.278C260.02 212.827 257 207.218 257 200.909C257 190.339 265.575 181.818 276.091 181.818C277.493 181.818 278.895 181.98 280.189 182.25Z" fill="#5ED2D1" stroke="#574E56" stroke-width="1.5" stroke-miterlimit="10"/>
<path d="M295.194 200.91C295.194 211.479 286.619 220 276.103 220C271.897 220 267.96 218.598 264.779 216.279L276.103 200.91L292.821 191.742C294.331 194.438 295.194 197.566 295.194 200.91Z" fill="#D5D4D6" stroke="#574E56" stroke-width="1.5" stroke-miterlimit="10"/>
<path d="M294.118 188.324L279.457 196.364L283.051 180C287.828 181.04 291.848 184.162 294.118 188.324Z" fill="#FD923D" stroke="#574E56" stroke-width="1.5" stroke-miterlimit="10"/>
<path d="M268.477 167.257H203.369C178.997 167.257 159.242 147.502 159.242 123.13V113.604C159.242 89.2319 178.997 69.4772 203.369 69.4772H268.536C292.908 69.4772 312.662 89.2319 312.662 113.604V123.13C312.604 147.561 292.849 167.257 268.477 167.257Z" fill="#EAFCFF" stroke="#574E56" stroke-width="1.5" stroke-miterlimit="10"/>
<path d="M160.241 106.128L161.924 98.7499H309.682L311.518 106.594L312.182 114.247L159.344 113.753L160.241 106.128Z" fill="#D5D4D6" stroke="#574E56" stroke-width="1.5"/>
<path d="M207.705 124.125L212.146 121.729L212.205 121.787L218.751 125.703L225.764 114.072L219.277 110.156L219.16 110.098V103.669L219.452 103.493L225.881 99.8698L219.218 88.0638L212.906 91.629L212.497 91.8627C212.497 91.8627 210.978 90.8692 210.042 90.2847C208.99 89.6418 207.705 88.7067 207.705 88.7067V88.4729L207.763 80.9918L194.204 80.8749L194.145 87.9469V88.5314C192.158 89.2327 190.229 90.2263 188.534 91.5705L188.008 91.2783L181.93 87.7131L175.092 99.4023L181.053 102.851L181.579 103.143C181.229 105.188 181.229 107.292 181.521 109.338L180.995 109.63L175.326 112.845L182.047 124.651L187.775 121.436L188.301 121.144C188.943 121.67 189.645 122.196 190.405 122.664C191.632 123.423 192.918 124.008 194.262 124.475V125.06V131.957L207.821 131.898V124.475L207.705 124.125ZM195.314 114.306C190.989 111.676 189.586 106.007 192.216 101.682C194.846 97.3567 200.516 95.9539 204.841 98.584C209.166 101.214 210.568 106.883 207.938 111.208C205.308 115.533 199.639 116.936 195.314 114.306Z" fill="#009EB0" stroke="#574E56" stroke-width="1.5" stroke-miterlimit="10"/>
<path d="M219.282 110.216C219.691 107.995 219.75 105.715 219.399 103.553C218.698 99.0524 216.418 94.7858 212.853 91.6882C212.035 90.9868 211.217 90.4024 210.282 89.8179C209.405 89.2919 208.528 88.8244 207.652 88.4737C203.268 86.6619 198.417 86.545 194.092 87.9477C191.871 88.649 189.767 89.7595 187.955 91.2791C186.26 92.6818 184.741 94.3767 183.514 96.3639C182.228 98.4679 181.409 100.689 181 102.91C180.591 105.189 180.591 107.469 180.942 109.689C181.702 114.19 184.04 118.398 187.663 121.437C188.423 122.022 189.183 122.606 190.001 123.132C191.345 123.95 192.748 124.593 194.151 125.061C198.651 126.522 203.444 126.23 207.71 124.476C209.288 123.775 210.808 122.898 212.21 121.846C213.964 120.444 215.542 118.69 216.769 116.645C217.997 114.54 218.815 112.378 219.282 110.216ZM195.32 114.307C190.995 111.677 189.592 106.007 192.222 101.682C194.852 97.3575 200.521 95.9547 204.846 98.5848C209.171 101.215 210.574 106.884 207.944 111.209C205.314 115.534 199.645 116.937 195.32 114.307Z" fill="#009EB0" stroke="#574E56" stroke-width="1.5" stroke-miterlimit="10"/>
<path d="M261.688 95.1824C263.431 95.1824 264.844 93.7694 264.844 92.0264C264.844 90.2833 263.431 88.8703 261.688 88.8703C259.945 88.8703 258.532 90.2833 258.532 92.0264C258.532 93.7694 259.945 95.1824 261.688 95.1824Z" fill="#574E56"/>
<path d="M276.188 95.1824C277.931 95.1824 279.344 93.7694 279.344 92.0264C279.344 90.2833 277.931 88.8703 276.188 88.8703C274.445 88.8703 273.032 90.2833 273.032 92.0264C273.032 93.7694 274.445 95.1824 276.188 95.1824Z" fill="#574E56"/>
<path d="M290.692 95.1824C292.435 95.1824 293.848 93.7694 293.848 92.0264C293.848 90.2833 292.435 88.8703 290.692 88.8703C288.949 88.8703 287.536 90.2833 287.536 92.0264C287.536 93.7694 288.949 95.1824 290.692 95.1824Z" fill="#574E56"/>
<path d="M264.906 151.712C270.167 151.712 274.432 147.446 274.432 142.185C274.432 136.924 270.167 132.658 264.906 132.658C259.644 132.658 255.379 136.924 255.379 142.185C255.379 147.446 259.644 151.712 264.906 151.712Z" fill="#EB001B" stroke="#574E56" stroke-width="1.5" stroke-miterlimit="10"/>
<path d="M283.896 151.712C289.157 151.712 293.422 147.446 293.422 142.185C293.422 136.924 289.157 132.658 283.896 132.658C278.634 132.658 274.369 136.924 274.369 142.185C274.369 147.446 278.634 151.712 283.896 151.712Z" fill="#F79E1B" stroke="#574E56" stroke-width="1.5" stroke-miterlimit="10"/>
<path d="M276 229C291.464 229 304 216.464 304 201C304 185.536 291.464 173 276 173C260.537 173 248 185.536 248 201C248 216.464 260.537 229 276 229Z" stroke="#FFE9CC" stroke-width="1.5" stroke-miterlimit="10"/>
<path d="M209.169 144.774H184.571C183.703 144.774 183 144.153 183 143.387C183 142.621 183.703 142 184.571 142H209.169C210.036 142 210.739 142.621 210.739 143.387C210.738 144.153 210.036 144.774 209.169 144.774Z" fill="#574E56"/>
<path d="M237.43 151.163H184.571C183.703 151.163 183 150.543 183 149.776C183 149.01 183.703 148.389 184.571 148.389H237.43C238.298 148.389 239 149.01 239 149.776C239 150.543 238.297 151.163 237.43 151.163Z" fill="#574E56"/>
</svg>
