<svg width="21" height="23" viewBox="0 0 21 23" fill="none" xmlns="http://www.w3.org/2000/svg">
<path d="M19.897 23C20.3375 23 20.6312 22.6944 20.6312 22.2359V6.95349C20.6312 6.95349 20.6312 6.95349 20.6312 6.87708C20.6312 6.80066 20.6312 6.72425 20.5578 6.64784V6.57143C20.5578 6.49502 20.4844 6.4186 20.411 6.34219L14.5373 0.229232C14.4639 0.15282 14.3905 0.152823 14.317 0.0764108H14.2436C14.1702 0.0764108 14.0968 0.076412 14.0234 0C14.0234 0 14.0234 0 13.9499 0H0.734207C0.293683 0 0 0.305648 0 0.76412V22.1595C0 22.6179 0.293683 22.9236 0.734207 22.9236H19.897V23ZM14.7576 2.67442L18.1349 6.18937H14.7576V2.67442ZM1.54184 1.60465H13.2892V6.95349C13.2892 7.41196 13.5828 7.71761 14.0234 7.71761H19.1628V21.4718H1.54184V1.60465Z" fill="#1E9EB0"/>
<path d="M3.00977 16.123H8.88342V10.01H3.00977V16.123ZM4.47818 11.5382H7.41501V14.5947H4.47818V11.5382Z" fill="#1E9EB0"/>
<path d="M17.6956 10.7743H10.3535V12.3025H17.6956V10.7743Z" fill="#1E9EB0"/>
<path d="M17.6956 13.8307H10.3535V15.3589H17.6956V13.8307Z" fill="#1E9EB0"/>
</svg>
