<svg width="578" height="293" viewBox="0 0 578 293" fill="none" xmlns="http://www.w3.org/2000/svg">
<path d="M130.549 210.297H23.3731C18.1283 210.297 13.8765 205.942 13.8765 200.569V32.4156C13.8765 27.0431 18.1283 22.6877 23.3731 22.6877H130.549C135.794 22.6877 140.046 27.0431 140.046 32.4156V200.569C140.046 205.942 135.794 210.297 130.549 210.297Z" fill="#FFFEFF"/>
<path d="M130.555 211.405H23.3789C17.7182 211.405 13.113 206.695 13.113 200.907V32.7538C13.113 26.9658 17.7182 22.2568 23.3789 22.2568H130.555C136.216 22.2568 140.821 26.9658 140.821 32.7538V200.907C140.821 206.695 136.216 211.405 130.555 211.405ZM23.3789 23.7949C18.5662 23.7949 14.6511 27.8138 14.6511 32.7538V200.907C14.6511 205.848 18.5662 209.867 23.3789 209.867H130.555C135.368 209.867 139.283 205.848 139.283 200.907V32.7538C139.283 27.8138 135.368 23.7949 130.555 23.7949H23.3789Z" fill="#2B2A29"/>
<path d="M140.306 17.1377H80.2193C79.4257 17.5718 78.5167 17.8228 77.5535 17.8228C76.5903 17.8228 75.6813 17.5718 74.8876 17.1377H14.8079C10.5004 17.1377 7.00708 20.6311 7.00708 24.9385V209.221C7.00708 213.528 10.5004 217.022 14.8079 217.022H140.306C144.613 217.022 148.1 213.528 148.1 209.221V24.9385C148.1 20.6311 144.613 17.1377 140.306 17.1377ZM140.638 199.724C140.638 204.031 137.152 207.525 132.844 207.525H22.2695C17.9621 207.525 14.4687 204.031 14.4687 199.724V32.4001C14.4687 28.0928 17.9621 24.5993 22.2695 24.5993H132.844C137.152 24.5993 140.638 28.0928 140.638 32.4001V199.724Z" fill="#52728D" stroke="#2B2A29" stroke-width="1.13675" stroke-miterlimit="10"/>
<path d="M144.998 19.7847C145.535 20.5909 146.267 21.2951 146.223 22.5623V206.401C146.223 210.698 142.744 214.183 138.448 214.183H13.2517C10.9824 214.183 10.2008 214.21 8.77808 212.659C10.0109 215.33 11.4513 216.183 14.5855 216.183H139.781C144.078 216.183 147.557 212.698 147.557 208.401V24.563C147.557 22.5333 146.27 21.1703 144.998 19.7847Z" fill="#4A6484"/>
<path d="M110.352 19.5102V28.3285H44.7778V19.5102C44.7778 15.8879 47.7151 12.9575 51.3372 12.9575H70.7783C70.7783 16.7019 73.8172 19.7408 77.5616 19.7408C81.306 19.7408 84.3449 16.7019 84.3449 12.9575H103.793C107.415 12.9575 110.352 15.8879 110.352 19.5102Z" fill="#FF9100"/>
<path d="M111.013 28.9986H44.1021V19.5116C44.1021 15.5299 47.3447 12.2905 51.3303 12.2905H71.4397V12.959C71.4397 16.3303 74.1829 19.0735 77.5542 19.0735C80.9261 19.0735 83.6693 16.3303 83.6693 12.959V12.2905H103.785C107.771 12.2905 111.013 15.5299 111.013 19.5116V28.9986ZM45.4391 27.6616H109.676V19.5116C109.676 16.267 107.034 13.6275 103.785 13.6275H84.9763C84.6375 17.4245 81.4379 20.4105 77.5542 20.4105C73.6704 20.4105 70.4715 17.4245 70.1327 13.6275H51.3303C48.0818 13.6275 45.4391 16.267 45.4391 19.5116V27.6616Z" fill="#2B2A29"/>
<path d="M77.5635 1C71.3363 1 66.2896 6.05357 66.2896 12.2807C66.2896 14.0172 66.683 15.6655 67.3885 17.1375C69.1996 20.9294 73.0729 23.5545 77.5635 23.5545C82.054 23.5545 85.9274 20.9294 87.7385 17.1375C88.444 15.6655 88.8373 14.0172 88.8373 12.2807C88.8373 6.05357 83.7905 1 77.5635 1ZM77.5635 17.8226C76.6003 17.8226 75.6913 17.5716 74.8975 17.1375C73.1815 16.1946 72.0216 14.3699 72.0216 12.2807C72.0216 9.21458 74.5042 6.7319 77.5635 6.7319C80.6228 6.7319 83.1054 9.21458 83.1054 12.2807C83.1054 14.3699 81.9455 16.1946 80.2293 17.1375C79.4357 17.5716 78.5267 17.8226 77.5635 17.8226Z" fill="#FF9100" stroke="#2B2A29" stroke-miterlimit="10"/>
<path d="M125.386 56.821H29.7409C28.18 56.821 26.9146 55.5556 26.9146 53.9947V45.8547C26.9146 44.2937 28.18 43.0283 29.7409 43.0283H125.386C126.947 43.0283 128.212 44.2937 128.212 45.8547V53.9947C128.212 55.5556 126.947 56.821 125.386 56.821Z" fill="#FF9100"/>
<path d="M125.373 57.4904H29.7285C27.8014 57.4904 26.2339 55.9229 26.2339 53.9957V45.8555C26.2339 43.9283 27.8014 42.3608 29.7285 42.3608H125.373C127.301 42.3608 128.869 43.9283 128.869 45.8555V53.9957C128.869 55.9229 127.301 57.4904 125.373 57.4904ZM29.7285 43.6979C28.5391 43.6979 27.5709 44.666 27.5709 45.8555V53.9957C27.5709 55.1852 28.5391 56.1534 29.7285 56.1534H125.373C126.564 56.1534 127.532 55.1852 127.532 53.9957V45.8555C127.532 44.666 126.564 43.6979 125.373 43.6979H29.7285Z" fill="#2B2A29"/>
<path d="M77.5547 65.0754C85.9214 65.0754 92.7041 58.2928 92.7041 49.926C92.7041 41.5592 85.9214 34.7766 77.5547 34.7766C69.1879 34.7766 62.4053 41.5592 62.4053 49.926C62.4053 58.2928 69.1879 65.0754 77.5547 65.0754Z" fill="#F8FFFA"/>
<path d="M77.5565 36.5242C84.9436 36.5242 90.9536 42.5341 90.9536 49.9213C90.9536 57.3084 84.9436 63.3183 77.5565 63.3183C70.1694 63.3183 64.1595 57.3084 64.1595 49.9213C64.1595 42.5341 70.1694 36.5242 77.5565 36.5242ZM77.5565 33.1326C68.2844 33.1326 60.7678 40.6491 60.7678 49.9213C60.7678 59.1934 68.2844 66.7099 77.5565 66.7099C86.8286 66.7099 94.3452 59.1934 94.3452 49.9213C94.3452 40.6491 86.8286 33.1326 77.5565 33.1326Z" fill="#62D2D0"/>
<path d="M77.564 67.049C68.122 67.049 60.4407 59.3677 60.4407 49.9256C60.4407 40.4843 68.122 32.803 77.564 32.803C87.0054 32.803 94.6867 40.4843 94.6867 49.9256C94.6867 59.3677 87.0054 67.049 77.564 67.049ZM77.564 33.4715C68.4908 33.4715 61.1092 40.8525 61.1092 49.9256C61.1092 58.9988 68.4908 66.3805 77.564 66.3805C86.6372 66.3805 94.0182 58.9988 94.0182 49.9256C94.0182 40.8525 86.6372 33.4715 77.564 33.4715ZM77.564 63.6575C69.9924 63.6575 63.8322 57.4973 63.8322 49.9256C63.8322 42.354 69.9924 36.1945 77.564 36.1945C85.1356 36.1945 91.2952 42.354 91.2952 49.9256C91.2952 57.4973 85.1356 63.6575 77.564 63.6575ZM77.564 36.863C70.3606 36.863 64.5007 42.7229 64.5007 49.9256C64.5007 57.1291 70.3606 62.989 77.564 62.989C84.7668 62.989 90.6267 57.1291 90.6267 49.9256C90.6267 42.7229 84.7668 36.863 77.564 36.863Z" fill="#2B2A29"/>
<path d="M76.6048 58.8521C76.044 58.8521 75.507 58.6206 75.1218 58.2105L68.1124 50.7489C67.3428 49.9295 67.3831 48.6417 68.2023 47.8723C69.0213 47.1022 70.3094 47.143 71.0788 47.9621L76.5039 53.7375L83.9651 44.6708C84.679 43.8023 85.9618 43.6774 86.8294 44.3925C87.6972 45.1066 87.8219 46.3891 87.1077 47.2569L78.1762 58.1102C77.8046 58.562 77.2565 58.8319 76.6717 58.8511C76.6493 58.8518 76.6271 58.8521 76.6048 58.8521Z" fill="#E3002C"/>
<path d="M76.6033 59.1914C75.9518 59.1914 75.3231 58.9192 74.8772 58.4452L67.8677 50.9833C67.4342 50.5217 67.2063 49.9192 67.2266 49.2866C67.2462 48.654 67.5112 48.0671 67.9728 47.6342C68.8861 46.7725 70.4601 46.8227 71.3212 47.738L76.4865 53.2369L83.7062 44.464C84.5046 43.492 86.0682 43.3392 87.0409 44.1402C87.5292 44.5417 87.8321 45.1103 87.8929 45.7397C87.9542 46.3697 87.7662 46.986 87.3641 47.4743L78.4326 58.3277C78.001 58.8533 77.3626 59.1679 76.6817 59.1908L76.6033 59.1914ZM69.5938 47.6597C69.1596 47.6597 68.7464 47.8235 68.4304 48.1212C68.0988 48.432 67.9088 48.8537 67.8944 49.3074C67.8801 49.7618 68.0439 50.194 68.3547 50.525L75.3642 57.9869C75.6841 58.3277 76.1359 58.5229 76.6033 58.5229V58.8572L76.6614 58.5223C77.1484 58.506 77.6067 58.2801 77.9168 57.9034L86.8483 47.0499C87.1369 46.6987 87.2714 46.2567 87.2276 45.8043C87.1839 45.3525 86.9665 44.9445 86.6159 44.656C85.9154 44.0795 84.7951 44.1918 84.2226 44.8884L76.5191 54.2488L70.8342 48.1963C70.5091 47.8503 70.0684 47.6597 69.5938 47.6597Z" fill="#2B2A29"/>
<path d="M128.642 116.27C132.554 116.27 135.725 113.098 135.725 109.186C135.725 105.274 132.554 102.103 128.642 102.103C124.73 102.103 121.558 105.274 121.558 109.186C121.558 113.098 124.73 116.27 128.642 116.27Z" fill="#F8FFFA"/>
<path d="M128.637 102.914C132.091 102.914 134.901 105.724 134.901 109.178C134.901 112.632 132.091 115.442 128.637 115.442C125.182 115.442 122.372 112.632 122.372 109.178C122.372 105.724 125.182 102.914 128.637 102.914ZM128.637 101.328C124.301 101.328 120.786 104.842 120.786 109.178C120.786 113.513 124.301 117.028 128.637 117.028C132.972 117.028 136.487 113.513 136.487 109.178C136.487 104.842 132.972 101.328 128.637 101.328Z" fill="#62D2D0"/>
<path d="M128.642 117.204C124.221 117.204 120.624 113.608 120.624 109.187C120.624 104.766 124.221 101.17 128.642 101.17C133.063 101.17 136.659 104.766 136.659 109.187C136.659 113.608 133.063 117.204 128.642 117.204ZM128.642 101.504C124.406 101.504 120.959 104.95 120.959 109.187C120.959 113.423 124.406 116.87 128.642 116.87C132.878 116.87 136.325 113.423 136.325 109.187C136.325 104.95 132.878 101.504 128.642 101.504ZM128.642 115.618C125.096 115.618 122.211 112.733 122.211 109.187C122.211 105.64 125.096 102.755 128.642 102.755C132.188 102.755 135.073 105.64 135.073 109.187C135.073 112.733 132.188 115.618 128.642 115.618ZM128.642 103.09C125.28 103.09 122.545 105.824 122.545 109.187C122.545 112.549 125.28 115.284 128.642 115.284C132.004 115.284 134.739 112.549 134.739 109.187C134.739 105.824 132.004 103.09 128.642 103.09Z" fill="#2B2A29"/>
<path d="M128.188 113.358C127.926 113.358 127.675 113.249 127.495 113.058L124.218 109.569C123.858 109.185 123.876 108.583 124.26 108.224C124.642 107.864 125.245 107.883 125.605 108.266L128.141 110.966L131.63 106.727C131.964 106.321 132.564 106.262 132.969 106.597C133.375 106.93 133.433 107.53 133.099 107.936L128.923 113.011C128.749 113.222 128.493 113.348 128.22 113.357C128.209 113.357 128.199 113.358 128.188 113.358Z" fill="#E3002C"/>
<path d="M128.225 113.53H128.192C127.884 113.53 127.586 113.401 127.376 113.177L124.099 109.689C123.677 109.239 123.699 108.53 124.148 108.107C124.581 107.701 125.323 107.724 125.73 108.157L128.136 110.719L131.504 106.626C131.883 106.167 132.619 106.095 133.079 106.473C133.31 106.663 133.453 106.931 133.481 107.228C133.511 107.526 133.422 107.817 133.232 108.047L129.056 113.123C128.852 113.371 128.55 113.519 128.229 113.53H128.225ZM124.914 108.138C124.714 108.138 124.523 108.214 124.377 108.351C124.062 108.647 124.046 109.145 124.343 109.46L127.62 112.949C127.767 113.106 127.976 113.196 128.192 113.196L128.223 113.363L128.217 113.196C128.443 113.189 128.654 113.084 128.797 112.91L132.973 107.835C133.107 107.673 133.169 107.47 133.149 107.261C133.128 107.053 133.028 106.864 132.866 106.731C132.543 106.465 132.027 106.517 131.762 106.838L128.153 111.224L125.486 108.386C125.336 108.226 125.133 108.138 124.914 108.138Z" fill="#2B2A29"/>
<path d="M128.642 175.431C132.554 175.431 135.725 172.259 135.725 168.347C135.725 164.435 132.554 161.263 128.642 161.263C124.73 161.263 121.558 164.435 121.558 168.347C121.558 172.259 124.73 175.431 128.642 175.431Z" fill="#F8FFFA"/>
<path d="M128.637 162.074C132.091 162.074 134.901 164.884 134.901 168.338C134.901 171.792 132.091 174.602 128.637 174.602C125.182 174.602 122.372 171.792 122.372 168.338C122.372 164.884 125.182 162.074 128.637 162.074ZM128.637 160.488C124.301 160.488 120.786 164.003 120.786 168.338C120.786 172.674 124.301 176.188 128.637 176.188C132.972 176.188 136.487 172.674 136.487 168.338C136.487 164.003 132.972 160.488 128.637 160.488Z" fill="#62D2D0"/>
<path d="M128.642 176.364C124.221 176.364 120.624 172.768 120.624 168.347C120.624 163.926 124.221 160.33 128.642 160.33C133.063 160.33 136.659 163.926 136.659 168.347C136.659 172.768 133.063 176.364 128.642 176.364ZM128.642 160.664C124.406 160.664 120.959 164.11 120.959 168.347C120.959 172.583 124.406 176.03 128.642 176.03C132.878 176.03 136.325 172.583 136.325 168.347C136.325 164.11 132.878 160.664 128.642 160.664ZM128.642 174.779C125.096 174.779 122.211 171.893 122.211 168.347C122.211 164.801 125.096 161.915 128.642 161.915C132.188 161.915 135.073 164.801 135.073 168.347C135.073 171.893 132.188 174.779 128.642 174.779ZM128.642 162.25C125.28 162.25 122.545 164.985 122.545 168.347C122.545 171.709 125.28 174.445 128.642 174.445C132.004 174.445 134.739 171.709 134.739 168.347C134.739 164.985 132.004 162.25 128.642 162.25Z" fill="#2B2A29"/>
<path d="M128.188 172.517C127.926 172.517 127.675 172.409 127.495 172.217L124.218 168.728C123.858 168.345 123.876 167.743 124.26 167.383C124.642 167.023 125.245 167.042 125.605 167.425L128.141 170.126L131.63 165.886C131.964 165.48 132.564 165.422 132.969 165.756C133.375 166.09 133.433 166.69 133.099 167.095L128.923 172.17C128.749 172.382 128.493 172.508 128.22 172.517C128.209 172.517 128.199 172.517 128.188 172.517Z" fill="#E3002C"/>
<path d="M128.225 172.69H128.192C127.885 172.69 127.588 172.562 127.377 172.339L124.099 168.849C123.677 168.4 123.699 167.691 124.148 167.268C124.58 166.86 125.324 166.885 125.73 167.316L128.136 169.879L131.504 165.787C131.883 165.327 132.62 165.254 133.079 165.633C133.555 166.026 133.624 166.732 133.232 167.208L129.056 172.283C128.851 172.531 128.549 172.68 128.229 172.69H128.225ZM124.914 167.298C124.714 167.298 124.523 167.373 124.377 167.511C124.062 167.807 124.047 168.304 124.343 168.619L127.62 172.109C127.768 172.266 127.977 172.356 128.192 172.356L128.223 172.523L128.217 172.356C128.443 172.348 128.654 172.245 128.798 172.07L132.973 166.996C133.248 166.662 133.201 166.167 132.866 165.891C132.545 165.626 132.027 165.679 131.762 165.999L128.153 170.386L125.486 167.546C125.337 167.386 125.133 167.298 124.914 167.298Z" fill="#2B2A29"/>
<path d="M43.763 69.1257H22.2834V90.6053H43.763V69.1257Z" fill="#B8D2F9"/>
<path d="M43.9426 90.7774H22.1287V68.9641H43.9426V90.7774ZM22.4629 90.4432H43.6084V69.2984H22.4629V90.4432Z" fill="#2B2A29"/>
<path d="M43.4434 104.803H22.2793V125.968H43.4434V104.803Z" fill="#B8D2F9"/>
<path d="M43.6186 126.14H22.1206V104.642H43.6186V126.14ZM22.4549 125.806H43.2843V104.977H22.4549V125.806Z" fill="#2B2A29"/>
<path d="M76.9491 104.315H60.4207V114.574H76.9491V104.315Z" fill="#FF9100"/>
<path d="M77.1309 114.749H60.2681V104.156H77.1309V114.749ZM60.6023 114.415H76.7966V104.491H60.6023V114.415Z" fill="#2B2A29"/>
<path d="M76.9491 124.453H60.4207V134.712H76.9491V124.453Z" fill="#FF9100"/>
<path d="M77.1309 134.887H60.2681V124.294H77.1309V134.887ZM60.6023 134.553H76.7966V124.628H60.6023V134.553Z" fill="#2B2A29"/>
<path d="M76.9491 144.591H60.4207V154.85H76.9491V144.591Z" fill="#FF9100"/>
<path d="M77.1309 155.026H60.2681V144.433H77.1309V155.026ZM60.6023 154.692H76.7966V144.767H60.6023V154.692Z" fill="#2B2A29"/>
<path d="M76.9491 164.729H60.4207V174.988H76.9491V164.729Z" fill="#FF9100"/>
<path d="M77.1309 175.163H60.2681V164.57H77.1309V175.163ZM60.6023 174.829H76.7966V164.904H60.6023V174.829Z" fill="#2B2A29"/>
<path d="M76.9491 184.867H60.4207V195.126H76.9491V184.867Z" fill="#FF9100"/>
<path d="M77.1309 195.302H60.2681V184.709H77.1309V195.302ZM60.6023 194.968H76.7966V185.043H60.6023V194.968Z" fill="#2B2A29"/>
<path d="M95.0234 112.131H87.9951C87.0881 112.131 86.3528 111.395 86.3528 110.488V110.455C86.3528 109.548 87.0881 108.813 87.9951 108.813H95.0234C95.9305 108.813 96.6658 109.548 96.6658 110.455V110.488C96.6658 111.395 95.9305 112.131 95.0234 112.131Z" fill="#B8D2F9"/>
<path d="M95.033 112.308H88.0052C87.0077 112.308 86.1956 111.495 86.1956 110.498C86.1956 109.468 87.0077 108.656 88.0052 108.656H95.033C96.0306 108.656 96.8427 109.468 96.8427 110.465C96.8427 111.495 96.0306 112.308 95.033 112.308ZM88.0052 108.99C87.1918 108.99 86.5298 109.652 86.5298 110.465C86.5298 111.311 87.1918 111.973 88.0052 111.973H95.033C95.8465 111.973 96.5085 111.311 96.5085 110.498C96.5085 109.652 95.8465 108.99 95.033 108.99H88.0052Z" fill="#2B2A29"/>
<path d="M107.623 112.136H100.595C99.6874 112.136 98.9521 111.4 98.9521 110.493V110.46C98.9521 109.553 99.6874 108.818 100.595 108.818H107.623C108.53 108.818 109.265 109.553 109.265 110.46V110.493C109.265 111.4 108.53 112.136 107.623 112.136Z" fill="#B8D2F9"/>
<path d="M107.609 112.308H100.58C99.5826 112.308 98.7705 111.495 98.7705 110.498C98.7705 109.468 99.5826 108.656 100.58 108.656H107.609C108.606 108.656 109.418 109.468 109.418 110.465C109.418 111.495 108.606 112.308 107.609 112.308ZM100.58 108.99C99.7667 108.99 99.1048 109.652 99.1048 110.465C99.1048 111.311 99.7667 111.973 100.58 111.973H107.609C108.422 111.973 109.083 111.311 109.083 110.498C109.083 109.652 108.422 108.99 107.609 108.99H100.58Z" fill="#2B2A29"/>
<path d="M90.931 131.585H88.4649C87.5578 131.585 86.8225 130.85 86.8225 129.943V129.91C86.8225 129.003 87.5578 128.267 88.4649 128.267H90.931C91.8381 128.267 92.5734 129.003 92.5734 129.91V129.943C92.5734 130.85 91.8381 131.585 90.931 131.585Z" fill="#B8D2F9"/>
<path d="M90.9292 131.757H88.4627C87.4652 131.757 86.6531 130.945 86.6531 129.947C86.6531 128.917 87.4652 128.105 88.4627 128.105H90.9292C91.9267 128.105 92.7382 128.917 92.7382 129.915C92.7382 130.945 91.9267 131.757 90.9292 131.757ZM88.4627 128.439C87.6493 128.439 86.9873 129.101 86.9873 129.915C86.9873 130.761 87.6493 131.423 88.4627 131.423H90.9292C91.7426 131.423 92.4039 130.761 92.4039 129.947C92.4039 129.101 91.7426 128.439 90.9292 128.439H88.4627Z" fill="#2B2A29"/>
<path d="M104.459 131.581H98.1494C97.2424 131.581 96.5071 130.846 96.5071 129.938V129.905C96.5071 128.998 97.2424 128.263 98.1494 128.263H104.459C105.366 128.263 106.101 128.998 106.101 129.905V129.938C106.101 130.846 105.366 131.581 104.459 131.581Z" fill="#B8D2F9"/>
<path d="M104.467 131.757H98.1576C97.16 131.757 96.3479 130.945 96.3479 129.948C96.3479 128.917 97.16 128.105 98.1576 128.105H104.467C105.464 128.105 106.276 128.917 106.276 129.915C106.276 130.945 105.464 131.757 104.467 131.757ZM98.1576 128.439C97.3441 128.439 96.6822 129.101 96.6822 129.915C96.6822 130.761 97.3441 131.423 98.1576 131.423H104.467C105.28 131.423 105.942 130.761 105.942 129.948C105.942 129.101 105.28 128.439 104.467 128.439H98.1576Z" fill="#2B2A29"/>
<path d="M111.699 131.583H110.186C109.279 131.583 108.544 130.847 108.544 129.94V129.907C108.544 129 109.279 128.265 110.186 128.265H111.699C112.606 128.265 113.341 129 113.341 129.907V129.94C113.341 130.847 112.606 131.583 111.699 131.583Z" fill="#B8D2F9"/>
<path d="M111.703 131.757H110.191C109.193 131.757 108.381 130.945 108.381 129.948C108.381 128.917 109.193 128.105 110.191 128.105H111.703C112.7 128.105 113.512 128.917 113.512 129.915C113.512 130.945 112.7 131.757 111.703 131.757ZM110.191 128.439C109.377 128.439 108.715 129.101 108.715 129.915C108.715 130.761 109.377 131.423 110.191 131.423H111.703C112.516 131.423 113.178 130.761 113.178 129.948C113.178 129.101 112.516 128.439 111.703 128.439H110.191Z" fill="#2B2A29"/>
<path d="M97.4768 151.772H88.1812C87.2741 151.772 86.5388 151.037 86.5388 150.13V150.097C86.5388 149.19 87.2741 148.455 88.1812 148.455H97.4768C98.3838 148.455 99.1191 149.19 99.1191 150.097V150.13C99.1191 151.037 98.3838 151.772 97.4768 151.772Z" fill="#B8D2F9"/>
<path d="M97.4771 151.946H88.1813C87.1838 151.946 86.3723 151.134 86.3723 150.136C86.3723 149.105 87.1838 148.293 88.1813 148.293H97.4771C98.4746 148.293 99.2868 149.105 99.2868 150.103C99.2868 151.134 98.4746 151.946 97.4771 151.946ZM88.1813 148.627C87.3679 148.627 86.7066 149.289 86.7066 150.103C86.7066 150.95 87.3679 151.612 88.1813 151.612H97.4771C98.2905 151.612 98.9525 150.95 98.9525 150.136C98.9525 149.289 98.2905 148.627 97.4771 148.627H88.1813Z" fill="#2B2A29"/>
<path d="M111.965 151.769H102.669C101.762 151.769 101.027 151.033 101.027 150.126V150.093C101.027 149.186 101.762 148.451 102.669 148.451H111.965C112.872 148.451 113.607 149.186 113.607 150.093V150.126C113.607 151.033 112.872 151.769 111.965 151.769Z" fill="#B8D2F9"/>
<path d="M111.975 151.946H102.679C101.682 151.946 100.869 151.134 100.869 150.136C100.869 149.105 101.682 148.293 102.679 148.293H111.975C112.972 148.293 113.785 149.105 113.785 150.103C113.785 151.134 112.972 151.946 111.975 151.946ZM102.679 148.627C101.866 148.627 101.204 149.289 101.204 150.103C101.204 150.95 101.866 151.612 102.679 151.612H111.975C112.788 151.612 113.45 150.95 113.45 150.136C113.45 149.289 112.788 148.627 111.975 148.627H102.679Z" fill="#2B2A29"/>
<path d="M98.2392 170.683H87.492C86.5849 170.683 85.8496 169.948 85.8496 169.041V169.007C85.8496 168.1 86.5849 167.365 87.492 167.365H98.2392C99.1462 167.365 99.8815 168.1 99.8815 169.007V169.041C99.8815 169.948 99.1462 170.683 98.2392 170.683Z" fill="#B8D2F9"/>
<path d="M98.2554 170.861H87.5077C86.5102 170.861 85.6987 170.049 85.6987 169.051C85.6987 168.02 86.5102 167.209 87.5077 167.209H98.2554C99.253 167.209 100.064 168.02 100.064 169.017C100.064 170.049 99.253 170.861 98.2554 170.861ZM87.5077 167.543C86.6943 167.543 86.033 168.204 86.033 169.017C86.033 169.864 86.6943 170.526 87.5077 170.526H98.2554C99.0689 170.526 99.7302 169.864 99.7302 169.051C99.7302 168.204 99.0689 167.543 98.2554 167.543H87.5077Z" fill="#2B2A29"/>
<path d="M110.735 170.684H103.367C102.46 170.684 101.725 169.949 101.725 169.042V169.009C101.725 168.102 102.46 167.366 103.367 167.366H110.735C111.642 167.366 112.377 168.102 112.377 169.009V169.042C112.377 169.949 111.642 170.684 110.735 170.684Z" fill="#B8D2F9"/>
<path d="M110.747 170.861H103.38C102.382 170.861 101.57 170.049 101.57 169.051C101.57 168.02 102.382 167.209 103.38 167.209H110.747C111.745 167.209 112.556 168.02 112.556 169.017C112.556 170.049 111.745 170.861 110.747 170.861ZM103.38 167.543C102.567 167.543 101.905 168.204 101.905 169.017C101.905 169.864 102.567 170.526 103.38 170.526H110.747C111.561 170.526 112.222 169.864 112.222 169.051C112.222 168.204 111.561 167.543 110.747 167.543H103.38Z" fill="#2B2A29"/>
<path d="M97.4231 192.049H88.1275C87.2204 192.049 86.4851 191.314 86.4851 190.407V190.374C86.4851 189.467 87.2204 188.731 88.1275 188.731H97.4231C98.3301 188.731 99.0654 189.467 99.0654 190.374V190.407C99.0654 191.314 98.3301 192.049 97.4231 192.049Z" fill="#B8D2F9"/>
<path d="M97.4287 192.222H88.1329C87.1354 192.222 86.3232 191.41 86.3232 190.412C86.3232 189.382 87.1354 188.57 88.1329 188.57H97.4287C98.4262 188.57 99.2384 189.382 99.2384 190.38C99.2384 191.41 98.4262 192.222 97.4287 192.222ZM88.1329 188.904C87.3195 188.904 86.6575 189.566 86.6575 190.38C86.6575 191.226 87.3195 191.888 88.1329 191.888H97.4287C98.2421 191.888 98.9041 191.226 98.9041 190.412C98.9041 189.566 98.2421 188.904 97.4287 188.904H88.1329Z" fill="#2B2A29"/>
<path d="M110.09 192.048H102.633C101.726 192.048 100.991 191.313 100.991 190.406V190.373C100.991 189.466 101.726 188.73 102.633 188.73H110.09C110.997 188.73 111.732 189.466 111.732 190.373V190.406C111.732 191.313 110.997 192.048 110.09 192.048Z" fill="#B8D2F9"/>
<path d="M110.096 192.222H102.64C101.642 192.222 100.83 191.41 100.83 190.412C100.83 189.382 101.642 188.57 102.64 188.57H110.096C111.094 188.57 111.906 189.382 111.906 190.38C111.906 191.41 111.094 192.222 110.096 192.222ZM102.64 188.904C101.826 188.904 101.164 189.566 101.164 190.38C101.164 191.226 101.826 191.888 102.64 191.888H110.096C110.91 191.888 111.572 191.226 111.572 190.412C111.572 189.566 110.91 188.904 110.096 188.904H102.64Z" fill="#2B2A29"/>
<path d="M117.163 73.1882C117.163 74.2659 116.391 75.1396 115.438 75.1396H56.4586C55.5057 75.1396 54.7332 74.2659 54.7332 73.1882C54.7332 72.1105 55.5057 71.2368 56.4586 71.2368H115.438C116.391 71.2368 117.163 72.1105 117.163 73.1882Z" fill="#62D2D0"/>
<path d="M115.442 75.3143H56.4629C55.419 75.3143 54.5703 74.3638 54.5703 73.1959C54.5703 72.0279 55.419 71.0774 56.4629 71.0774H115.442C116.486 71.0774 117.334 72.0279 117.334 73.1959C117.334 74.3638 116.486 75.3143 115.442 75.3143ZM56.4629 71.4116C55.6038 71.4116 54.9046 72.212 54.9046 73.1959C54.9046 74.1797 55.6038 74.9801 56.4629 74.9801H115.442C116.301 74.9801 117 74.1797 117 73.1959C117 72.212 116.301 71.4116 115.442 71.4116H56.4629Z" fill="#2B2A29"/>
<path d="M117.163 79.6179C117.163 80.6956 116.391 81.5693 115.438 81.5693H56.4586C55.5057 81.5693 54.7332 80.6956 54.7332 79.6179C54.7332 78.5402 55.5057 77.6665 56.4586 77.6665H115.438C116.391 77.6665 117.163 78.5402 117.163 79.6179Z" fill="#B8D2F9"/>
<path d="M115.442 81.7443H56.4629C55.419 81.7443 54.5703 80.7937 54.5703 79.6258C54.5703 78.4579 55.419 77.5073 56.4629 77.5073H115.442C116.486 77.5073 117.334 78.4579 117.334 79.6258C117.334 80.7937 116.486 81.7443 115.442 81.7443ZM56.4629 77.8416C55.6038 77.8416 54.9046 78.642 54.9046 79.6258C54.9046 80.6096 55.6038 81.41 56.4629 81.41H115.442C116.301 81.41 117 80.6096 117 79.6258C117 78.642 116.301 77.8416 115.442 77.8416H56.4629Z" fill="#2B2A29"/>
<path d="M117.163 86.9758C117.163 88.0535 116.391 88.9272 115.438 88.9272H56.4586C55.5057 88.9272 54.7332 88.0535 54.7332 86.9758C54.7332 85.8981 55.5057 85.0244 56.4586 85.0244H115.438C116.391 85.0244 117.163 85.8981 117.163 86.9758Z" fill="#B8D2F9"/>
<path d="M115.442 89.1019H56.4629C55.419 89.1019 54.5703 88.1514 54.5703 86.9835C54.5703 85.8155 55.419 84.865 56.4629 84.865H115.442C116.486 84.865 117.334 85.8155 117.334 86.9835C117.334 88.1514 116.486 89.1019 115.442 89.1019ZM56.4629 85.1992C55.6038 85.1992 54.9046 85.9996 54.9046 86.9835C54.9046 87.9673 55.6038 88.7677 56.4629 88.7677H115.442C116.301 88.7677 117 87.9673 117 86.9835C117 85.9996 116.301 85.1992 115.442 85.1992H56.4629Z" fill="#2B2A29"/>
<path d="M169.032 145.209C168.725 145.209 168.461 144.979 168.426 144.667C168.389 144.332 168.63 144.031 168.965 143.993L173.206 143.522C173.543 143.477 173.842 143.726 173.879 144.061C173.916 144.395 173.675 144.697 173.34 144.734L169.099 145.205C169.077 145.208 169.054 145.209 169.032 145.209Z" fill="#2B2A29"/>
<path d="M183.78 143.57C183.473 143.57 183.21 143.34 183.175 143.028C183.138 142.693 183.379 142.392 183.714 142.355L191.889 141.447C192.227 141.406 192.525 141.651 192.562 141.986C192.599 142.321 192.358 142.622 192.024 142.659L183.848 143.566C183.825 143.569 183.802 143.57 183.78 143.57ZM202.467 141.496C202.16 141.496 201.896 141.265 201.862 140.953C201.825 140.619 202.065 140.317 202.4 140.28L204.394 140.059C206.44 139.832 208.506 139.557 210.533 139.241C210.868 139.192 211.177 139.418 211.229 139.751C211.28 140.083 211.052 140.395 210.72 140.447C208.675 140.764 206.592 141.041 204.528 141.27L202.535 141.492C202.512 141.494 202.489 141.496 202.467 141.496ZM221.007 138.444C220.73 138.444 220.479 138.254 220.414 137.972C220.338 137.645 220.541 137.317 220.869 137.241C223.518 136.625 226.182 135.924 228.789 135.155C229.112 135.061 229.451 135.245 229.546 135.568C229.641 135.891 229.457 136.23 229.134 136.325C226.504 137.099 223.817 137.807 221.145 138.428C221.099 138.439 221.053 138.444 221.007 138.444ZM341.103 136.93C341.089 136.93 341.075 136.93 341.06 136.928C340.638 136.898 339.814 136.689 337.545 135.223C337.262 135.04 337.181 134.662 337.364 134.38C337.545 134.098 337.921 134.014 338.207 134.199C339.975 135.341 340.731 135.629 341.035 135.695L345.198 134.13C345.518 134.012 345.864 134.171 345.983 134.486C346.101 134.801 345.942 135.153 345.627 135.271L341.318 136.891C341.249 136.917 341.176 136.93 341.103 136.93ZM238.983 132.982C238.737 132.982 238.505 132.832 238.413 132.588C238.294 132.273 238.452 131.921 238.767 131.802C241.316 130.837 243.863 129.786 246.336 128.679C246.645 128.54 247.005 128.679 247.142 128.985C247.28 129.293 247.142 129.653 246.835 129.791C244.339 130.909 241.77 131.969 239.199 132.942C239.128 132.969 239.055 132.982 238.983 132.982ZM355.312 131.588C355.065 131.588 354.833 131.437 354.741 131.193C354.623 130.878 354.782 130.526 355.097 130.408L362.796 127.513C363.115 127.393 363.464 127.555 363.582 127.869C363.7 128.184 363.541 128.536 363.226 128.654L355.526 131.549C355.455 131.576 355.383 131.588 355.312 131.588ZM329.328 129.053C329.197 129.053 329.065 129.01 328.954 128.923C326.82 127.259 324.609 125.489 322.497 123.782C322.235 123.571 322.194 123.187 322.406 122.925C322.617 122.663 323 122.622 323.263 122.834C325.37 124.536 327.576 126.302 329.703 127.962C329.969 128.169 330.016 128.553 329.809 128.818C329.689 128.972 329.51 129.053 329.328 129.053ZM256.064 125.16C255.848 125.16 255.639 125.045 255.528 124.841C255.367 124.545 255.477 124.175 255.773 124.015C258.159 122.719 260.541 121.334 262.851 119.896C263.137 119.72 263.513 119.805 263.69 120.092C263.868 120.377 263.78 120.753 263.494 120.931C261.164 122.382 258.762 123.78 256.354 125.087C256.262 125.136 256.162 125.16 256.064 125.16ZM372.91 124.972C372.663 124.972 372.432 124.821 372.34 124.577C372.222 124.261 372.381 123.91 372.695 123.791L380.395 120.896C380.712 120.778 381.062 120.938 381.18 121.252C381.299 121.567 381.139 121.918 380.825 122.037L373.125 124.933C373.054 124.959 372.981 124.972 372.91 124.972ZM314.653 117.23C314.518 117.23 314.383 117.185 314.27 117.094C313.196 116.226 311.895 115.183 311.36 114.818C310.145 113.992 308.865 113.237 307.556 112.576C307.256 112.424 307.135 112.058 307.286 111.757C307.438 111.457 307.804 111.335 308.106 111.487C309.461 112.172 310.787 112.954 312.046 113.811C312.498 114.119 313.392 114.817 315.037 116.146C315.299 116.357 315.339 116.741 315.127 117.003C315.007 117.152 314.831 117.23 314.653 117.23ZM272.18 115.479C271.968 115.479 271.763 115.368 271.65 115.171C271.483 114.878 271.586 114.506 271.878 114.34C274.53 112.828 277.006 111.549 279.236 110.537C279.546 110.398 279.904 110.535 280.043 110.84C280.182 111.147 280.046 111.508 279.74 111.647C277.544 112.643 275.101 113.905 272.481 115.398C272.386 115.453 272.283 115.479 272.18 115.479ZM297.811 109.392C297.779 109.392 297.746 109.39 297.714 109.385C295.946 109.1 294.14 108.956 292.347 108.956H289.608C289.271 108.956 288.998 108.683 288.998 108.346C288.998 108.009 289.271 107.736 289.608 107.736H292.347C294.205 107.736 296.076 107.886 297.907 108.181C298.24 108.234 298.466 108.547 298.412 108.879C298.364 109.179 298.105 109.392 297.811 109.392Z" fill="#2B2A29"/>
<path d="M390.439 118.381C390.193 118.381 389.961 118.231 389.869 117.986C389.751 117.671 389.91 117.319 390.225 117.201L394.219 115.699C394.537 115.58 394.886 115.741 395.004 116.055C395.122 116.371 394.963 116.722 394.648 116.841L390.654 118.342C390.583 118.369 390.511 118.381 390.439 118.381Z" fill="#2B2A29"/>
<path d="M337.403 88.882C337.403 93.3846 333.753 97.0347 329.251 97.0347H272.182C267.679 97.0347 264.029 93.3846 264.029 88.882C264.029 84.3793 267.679 80.7292 272.182 80.7292H329.251C333.753 80.7292 337.403 84.3793 337.403 88.882Z" fill="#B8D2F9"/>
<path d="M329.236 97.7051H272.167C267.303 97.7051 263.346 93.7482 263.346 88.8839C263.346 84.0196 267.303 80.0627 272.167 80.0627H329.236C334.1 80.0627 338.057 84.0196 338.057 88.8839C338.057 93.7482 334.1 97.7051 329.236 97.7051ZM272.167 81.3998C268.04 81.3998 264.683 84.7573 264.683 88.8839C264.683 93.0105 268.04 96.3681 272.167 96.3681H329.236C333.363 96.3681 336.72 93.0105 336.72 88.8839C336.72 84.7573 333.363 81.3998 329.236 81.3998H272.167Z" fill="#2B2A29"/>
<path d="M300.707 92.9598C302.958 92.9598 304.783 91.1348 304.783 88.8835C304.783 86.6322 302.958 84.8071 300.707 84.8071C298.455 84.8071 296.63 86.6322 296.63 88.8835C296.63 91.1348 298.455 92.9598 300.707 92.9598Z" fill="#52728D"/>
<path d="M286.335 92.9601C288.586 92.9601 290.411 91.135 290.411 88.8837C290.411 86.6324 288.586 84.8074 286.335 84.8074C284.083 84.8074 282.258 86.6324 282.258 88.8837C282.258 91.135 284.083 92.9601 286.335 92.9601Z" fill="#52728D"/>
<path d="M315.076 92.9601C317.327 92.9601 319.152 91.135 319.152 88.8837C319.152 86.6324 317.327 84.8074 315.076 84.8074C312.825 84.8074 311 86.6324 311 88.8837C311 91.135 312.825 92.9601 315.076 92.9601Z" fill="#52728D"/>
<path d="M351.383 69.6418C351.383 72.3119 349.218 74.4764 346.548 74.4764H312.705C310.035 74.4764 307.871 72.3119 307.871 69.6418C307.871 66.9717 310.035 64.8071 312.705 64.8071H346.548C349.218 64.8071 351.383 66.9717 351.383 69.6418Z" fill="#B8D2F9"/>
<path d="M346.544 75.1461H312.702C309.667 75.1461 307.198 72.6771 307.198 69.6427C307.198 66.6083 309.667 64.1399 312.702 64.1399H346.544C349.579 64.1399 352.048 66.6083 352.048 69.6427C352.048 72.6771 349.579 75.1461 346.544 75.1461ZM312.702 65.4769C310.404 65.4769 308.535 67.346 308.535 69.6427C308.535 71.94 310.404 73.8091 312.702 73.8091H346.544C348.842 73.8091 350.711 71.94 350.711 69.6427C350.711 67.346 348.842 65.4769 346.544 65.4769H312.702Z" fill="#2B2A29"/>
<path d="M329.626 72.0598C330.961 72.0598 332.043 70.9775 332.043 69.6424C332.043 68.3074 330.961 67.2251 329.626 67.2251C328.291 67.2251 327.208 68.3074 327.208 69.6424C327.208 70.9775 328.291 72.0598 329.626 72.0598Z" fill="#52728D"/>
<path d="M321.093 72.0598C322.428 72.0598 323.51 70.9775 323.51 69.6424C323.51 68.3074 322.428 67.2251 321.093 67.2251C319.758 67.2251 318.676 68.3074 318.676 69.6424C318.676 70.9775 319.758 72.0598 321.093 72.0598Z" fill="#52728D"/>
<path d="M338.147 72.0598C339.482 72.0598 340.564 70.9775 340.564 69.6424C340.564 68.3074 339.482 67.2251 338.147 67.2251C336.812 67.2251 335.729 68.3074 335.729 69.6424C335.729 70.9775 336.812 72.0598 338.147 72.0598Z" fill="#52728D"/>
<path d="M308.095 57.114C308.095 59.7841 305.931 61.9486 303.261 61.9486H269.418C266.748 61.9486 264.583 59.7841 264.583 57.114C264.583 54.4438 266.748 52.2793 269.418 52.2793H303.261C305.931 52.2793 308.095 54.4438 308.095 57.114Z" fill="#B8D2F9"/>
<path d="M303.251 62.6173H269.408C266.374 62.6173 263.905 60.1483 263.905 57.1139C263.905 54.0795 266.374 51.6111 269.408 51.6111H303.251C306.285 51.6111 308.754 54.0795 308.754 57.1139C308.754 60.1483 306.285 62.6173 303.251 62.6173ZM269.408 52.9481C267.111 52.9481 265.242 54.8172 265.242 57.1139C265.242 59.4112 267.111 61.2803 269.408 61.2803H303.251C305.548 61.2803 307.417 59.4112 307.417 57.1139C307.417 54.8172 305.548 52.9481 303.251 52.9481H269.408Z" fill="#2B2A29"/>
<path d="M286.329 59.5319C287.664 59.5319 288.746 58.4497 288.746 57.1146C288.746 55.7795 287.664 54.6973 286.329 54.6973C284.994 54.6973 283.911 55.7795 283.911 57.1146C283.911 58.4497 284.994 59.5319 286.329 59.5319Z" fill="#52728D"/>
<path d="M277.816 59.5319C279.151 59.5319 280.233 58.4497 280.233 57.1146C280.233 55.7795 279.151 54.6973 277.816 54.6973C276.481 54.6973 275.398 55.7795 275.398 57.1146C275.398 58.4497 276.481 59.5319 277.816 59.5319Z" fill="#52728D"/>
<path d="M294.859 59.5319C296.195 59.5319 297.277 58.4497 297.277 57.1146C297.277 55.7795 296.195 54.6973 294.859 54.6973C293.524 54.6973 292.442 55.7795 292.442 57.1146C292.442 58.4497 293.524 59.5319 294.859 59.5319Z" fill="#52728D"/>
<path d="M494.161 181.276C493.915 181.276 493.679 181.141 493.562 180.906L489.99 173.723C489.826 173.393 489.961 172.991 490.291 172.827C490.622 172.662 491.023 172.797 491.188 173.128L494.759 180.31C494.924 180.641 494.789 181.043 494.458 181.206C494.363 181.254 494.261 181.276 494.161 181.276ZM488.804 170.502C488.557 170.502 488.321 170.366 488.204 170.131L484.633 162.949C484.468 162.618 484.603 162.217 484.934 162.052C485.265 161.887 485.665 162.023 485.83 162.353L489.402 169.536C489.566 169.866 489.431 170.268 489.101 170.431C489.005 170.48 488.903 170.502 488.804 170.502Z" fill="#2B2A29"/>
<path d="M0.668507 131.779C0.299 131.779 0 131.48 0 131.11V102.103C0 101.733 0.299 101.434 0.668507 101.434C1.03801 101.434 1.33701 101.733 1.33701 102.103V131.11C1.33701 131.48 1.03801 131.779 0.668507 131.779Z" fill="#2B2A29"/>
<path d="M0.668507 159.854C0.299 159.854 0 159.555 0 159.186V144.6C0 144.23 0.299 143.931 0.668507 143.931C1.03801 143.931 1.33701 144.23 1.33701 144.6V159.186C1.33701 159.555 1.03801 159.854 0.668507 159.854Z" fill="#2B2A29"/>
<path d="M0.668507 183.16C0.299 183.16 0 182.861 0 182.492V171.387C0 171.018 0.299 170.719 0.668507 170.719C1.03801 170.719 1.33701 171.018 1.33701 171.387V182.492C1.33701 182.861 1.03801 183.16 0.668507 183.16Z" fill="#2B2A29"/>
<path d="M501.394 87.5666H468.858C465.18 87.5666 462.198 84.5848 462.198 80.9066V35.9242C462.198 32.246 465.18 29.2642 468.858 29.2642H496.262L508.054 41.7113V80.9066C508.054 84.5848 505.072 87.5666 501.394 87.5666Z" fill="#E2F0FC"/>
<path d="M501.398 88.2359H468.862C464.821 88.2359 461.533 84.9482 461.533 80.9071V35.9252C461.533 31.8841 464.821 28.5964 468.862 28.5964H496.553L508.726 41.4456V80.9071C508.726 84.9482 505.439 88.2359 501.398 88.2359ZM468.862 29.9335C465.558 29.9335 462.87 32.6212 462.87 35.9252V80.9071C462.87 84.2112 465.558 86.8989 468.862 86.8989H501.398C504.702 86.8989 507.389 84.2112 507.389 80.9071V41.9783L495.979 29.9335H468.862Z" fill="#2B2A29"/>
<path d="M496.259 29.2639V41.7105L508.051 41.7111L496.259 29.2639Z" fill="#52728D"/>
<path d="M508.045 42.3667L496.254 42.3661C495.892 42.3661 495.599 42.0729 495.599 41.7113V29.2649C495.599 28.9966 495.762 28.7557 496.011 28.6564C496.259 28.5579 496.545 28.6205 496.729 28.8144L508.52 41.2615C508.701 41.4514 508.75 41.7302 508.647 41.9711C508.543 42.2113 508.307 42.3667 508.045 42.3667ZM496.908 41.0565H506.522L496.908 30.9087V41.0565Z" fill="#2B2A29"/>
<path d="M485.126 51.8631C485.126 56.3855 481.459 60.0517 476.937 60.0517H459.25C454.727 60.0517 451.061 56.3855 451.061 51.8631C451.061 47.3407 454.727 43.6746 459.25 43.6746H476.937C481.459 43.6746 485.126 47.3407 485.126 51.8631Z" fill="white"/>
<path d="M476.934 60.7222H459.246C454.363 60.7222 450.389 56.749 450.389 51.8651C450.389 46.9812 454.363 43.0081 459.246 43.0081H476.934C481.818 43.0081 485.791 46.9812 485.791 51.8651C485.791 56.749 481.818 60.7222 476.934 60.7222ZM459.246 44.3451C455.1 44.3451 451.726 47.7183 451.726 51.8651C451.726 56.012 455.1 59.3852 459.246 59.3852H476.934C481.081 59.3852 484.454 56.012 484.454 51.8651C484.454 47.7183 481.081 44.3451 476.934 44.3451H459.246Z" fill="#2B2A29"/>
<path d="M463.07 55.4467L461.478 53.3347L459.865 55.4467H458.752L460.927 52.627L458.856 49.9321H459.969L461.489 51.9194L462.997 49.9321H464.09L462.008 52.627L464.204 55.4467H463.07Z" fill="#2B2A29"/>
<path d="M473.845 50.4846C474.251 50.8867 474.454 51.4834 474.454 52.274V55.4475H473.455V52.3889C473.455 51.8549 473.331 51.4521 473.085 51.1818C472.839 50.9109 472.487 50.7757 472.029 50.7757C471.523 50.7757 471.12 50.9337 470.823 51.249C470.524 51.565 470.375 52.0174 470.375 52.607V55.4475H469.377V52.3889C469.377 51.8549 469.253 51.4521 469.007 51.1818C468.761 50.9109 468.408 50.7757 467.951 50.7757C467.445 50.7757 467.042 50.9337 466.744 51.249C466.446 51.565 466.296 52.0174 466.296 52.607V55.4475H465.298V49.9329H466.255V50.7548C466.456 50.4709 466.719 50.2541 467.046 50.1046C467.372 49.9558 467.742 49.8813 468.159 49.8813C468.589 49.8813 468.97 49.9682 469.303 50.1412C469.636 50.3148 469.893 50.5681 470.073 50.9011C470.281 50.5818 470.571 50.3318 470.942 50.1516C471.313 49.9714 471.731 49.8813 472.196 49.8813C472.889 49.8813 473.439 50.0824 473.845 50.4846Z" fill="#2B2A29"/>
<path d="M476.3 47.7273H477.299V55.4471H476.3V47.7273Z" fill="#2B2A29"/>
<path d="M464.722 128.571H429.35C425.351 128.571 422.11 125.33 422.11 121.331V72.4275C422.11 68.4287 425.351 65.187 429.35 65.187H459.143L471.963 78.7191V121.331C471.963 125.33 468.721 128.571 464.722 128.571Z" fill="#E2F0FC"/>
<path d="M464.711 129.239H429.339C424.978 129.239 421.43 125.692 421.43 121.331V72.4275C421.43 68.0665 424.978 64.5183 429.339 64.5183H459.419L472.62 78.4525V121.331C472.62 125.692 469.072 129.239 464.711 129.239ZM429.339 65.8553C425.715 65.8553 422.767 68.8035 422.767 72.4275V121.331C422.767 124.954 425.715 127.902 429.339 127.902H464.711C468.335 127.902 471.283 124.954 471.283 121.331V78.9852L458.844 65.8553H429.339Z" fill="#2B2A29"/>
<path d="M459.121 65.1851V78.7166L471.941 78.7172L459.121 65.1851Z" fill="#52728D"/>
<path d="M471.939 79.4307L459.119 79.4301C458.726 79.4301 458.407 79.1108 458.407 78.7178V65.1864C458.407 64.8946 458.585 64.6328 458.856 64.5251C459.127 64.4161 459.436 64.4846 459.637 64.6968L472.456 78.2289C472.652 78.4352 472.706 78.7387 472.593 78.9999C472.481 79.261 472.224 79.4307 471.939 79.4307ZM459.832 78.0056L470.284 78.0062L459.832 66.9739V78.0056Z" fill="#2B2A29"/>
<path d="M447.022 89.7558C447.022 94.6724 443.036 98.6581 438.119 98.6581H418.89C413.974 98.6581 409.988 94.6724 409.988 89.7558C409.988 84.8392 413.974 80.8535 418.89 80.8535H438.119C443.036 80.8535 447.022 84.8392 447.022 89.7558Z" fill="white"/>
<path d="M438.12 99.3273H418.891C413.613 99.3273 409.32 95.0342 409.32 89.7567C409.32 84.4791 413.613 80.186 418.891 80.186H438.12C443.398 80.186 447.691 84.4791 447.691 89.7567C447.691 95.0342 443.398 99.3273 438.12 99.3273ZM418.891 81.523C414.351 81.523 410.657 85.2168 410.657 89.7567C410.657 94.2965 414.351 97.9903 418.891 97.9903H438.12C442.66 97.9903 446.354 94.2965 446.354 89.7567C446.354 85.2168 442.66 81.523 438.12 81.523H418.891Z" fill="#2B2A29"/>
<path d="M421.197 92.8707C420.719 92.6063 420.343 92.2426 420.072 91.7791C419.801 91.3149 419.665 90.7894 419.665 90.2012C419.665 89.613 419.801 89.0868 420.072 88.6233C420.343 88.1591 420.719 87.7974 421.197 87.537C421.676 87.2771 422.221 87.1472 422.832 87.1472C423.375 87.1472 423.86 87.2562 424.285 87.4749C424.711 87.6936 425.041 88.0103 425.275 88.4248L424.45 88.9569C424.261 88.6703 424.027 88.4555 423.748 88.3119C423.469 88.1689 423.16 88.0971 422.821 88.0971C422.429 88.0971 422.076 88.1839 421.763 88.3569C421.45 88.5306 421.205 88.7774 421.028 89.0979C420.851 89.4184 420.762 89.786 420.762 90.2012C420.762 90.6236 420.851 90.9944 421.028 91.3149C421.205 91.6355 421.45 91.8823 421.763 92.0559C422.076 92.2296 422.429 92.3164 422.821 92.3164C423.16 92.3164 423.469 92.2446 423.748 92.101C424.027 91.958 424.261 91.7432 424.45 91.4566L425.275 91.9769C425.041 92.3915 424.711 92.7101 424.285 92.9327C423.86 93.1553 423.375 93.2663 422.832 93.2663C422.221 93.2663 421.676 93.1344 421.197 92.8707Z" fill="#2B2A29"/>
<path d="M426.982 93.0685C426.53 92.9366 426.175 92.7688 425.919 92.5651L426.372 91.7053C426.635 91.894 426.956 92.0448 427.333 92.1578C427.71 92.2707 428.091 92.3275 428.476 92.3275C429.426 92.3275 429.901 92.0559 429.901 91.5128C429.901 91.3319 429.836 91.1889 429.708 91.0832C429.58 90.9774 429.42 90.9004 429.228 90.8514C429.035 90.8025 428.762 90.7476 428.408 90.6876C427.925 90.6118 427.531 90.525 427.226 90.4271C426.92 90.3292 426.658 90.1633 426.44 89.9296C426.221 89.6959 426.111 89.3675 426.111 88.9451C426.111 88.4026 426.338 87.9672 426.79 87.6388C427.242 87.3111 427.85 87.1472 428.611 87.1472C429.011 87.1472 429.411 87.1962 429.81 87.2941C430.21 87.392 430.538 87.5239 430.794 87.6897L430.33 88.5495C429.84 88.2329 429.263 88.0742 428.6 88.0742C428.139 88.0742 427.789 88.15 427.548 88.3008C427.306 88.4516 427.186 88.6514 427.186 88.9001C427.186 89.0966 427.254 89.2507 427.389 89.3636C427.525 89.4772 427.693 89.5601 427.893 89.613C428.092 89.6659 428.374 89.7259 428.736 89.7938C429.218 89.8767 429.608 89.9655 429.906 90.0595C430.204 90.1542 430.458 90.3141 430.67 90.54C430.881 90.7666 430.987 91.0832 430.987 91.4906C430.987 92.0331 430.755 92.4652 430.291 92.7858C429.827 93.1063 429.195 93.2663 428.396 93.2663C427.906 93.2663 427.435 93.2003 426.982 93.0685Z" fill="#2B2A29"/>
<path d="M437.538 87.2039L434.914 93.1989H433.805L431.181 87.2039H432.312L434.371 92.0114L436.475 87.2039H437.538Z" fill="#2B2A29"/>
<path d="M506.959 158.835H474.397C470.716 158.835 467.732 155.851 467.732 152.17V107.151C467.732 103.47 470.716 100.486 474.397 100.486H501.823L513.625 112.943V152.17C513.625 155.851 510.64 158.835 506.959 158.835Z" fill="#E2F0FC"/>
<path d="M506.963 159.505H474.401C470.357 159.505 467.067 156.215 467.067 152.171V107.153C467.067 103.109 470.357 99.8188 474.401 99.8188H502.115L514.297 112.678V152.171C514.297 156.215 511.007 159.505 506.963 159.505ZM474.401 101.156C471.095 101.156 468.404 103.846 468.404 107.153V152.171C468.404 155.478 471.095 158.168 474.401 158.168H506.963C510.27 158.168 512.96 155.478 512.96 152.171V113.211L501.54 101.156H474.401Z" fill="#2B2A29"/>
<path d="M501.818 100.487V112.944L513.619 112.944L501.818 100.487Z" fill="#52728D"/>
<path d="M513.617 113.599L501.816 113.599C501.453 113.599 501.16 113.306 501.16 112.943V100.487C501.16 100.219 501.323 99.9774 501.573 99.8781C501.823 99.7795 502.107 99.8422 502.292 100.036L514.093 112.493C514.273 112.684 514.323 112.962 514.22 113.203C514.116 113.443 513.879 113.599 513.617 113.599ZM502.471 112.288L512.093 112.289L502.471 102.132V112.288Z" fill="#2B2A29"/>
<path d="M490.669 123.106C490.669 127.632 487 131.301 482.474 131.301H464.772C460.246 131.301 456.577 127.632 456.577 123.106C456.577 118.579 460.246 114.91 464.772 114.91H482.474C487 114.91 490.669 118.579 490.669 123.106Z" fill="white"/>
<path d="M482.485 131.969H464.783C459.896 131.969 455.919 127.992 455.919 123.105C455.919 118.218 459.896 114.242 464.783 114.242H482.485C487.372 114.242 491.348 118.218 491.348 123.105C491.348 127.992 487.372 131.969 482.485 131.969ZM464.783 115.579C460.633 115.579 457.256 118.955 457.256 123.105C457.256 127.255 460.633 130.632 464.783 130.632H482.485C486.635 130.632 490.011 127.255 490.011 123.105C490.011 118.955 486.635 115.579 482.485 115.579H464.783Z" fill="#2B2A29"/>
<path d="M466.095 123.919H461.618C461.681 124.404 461.894 124.795 462.258 125.09C462.623 125.385 463.076 125.532 463.617 125.532C464.277 125.532 464.808 125.31 465.21 124.866L465.762 125.511C465.512 125.803 465.201 126.026 464.831 126.177C464.459 126.33 464.044 126.407 463.586 126.407C463.003 126.407 462.486 126.287 462.034 126.048C461.583 125.808 461.234 125.474 460.988 125.043C460.742 124.613 460.618 124.126 460.618 123.586C460.618 123.05 460.738 122.569 460.977 122.138C461.217 121.708 461.547 121.372 461.967 121.134C462.387 120.893 462.86 120.773 463.388 120.773C463.915 120.773 464.386 120.893 464.799 121.134C465.212 121.372 465.535 121.708 465.767 122.138C466 122.569 466.116 123.061 466.116 123.617C466.116 123.693 466.109 123.793 466.095 123.919ZM462.185 122.054C461.863 122.347 461.673 122.728 461.618 123.2H465.158C465.103 122.734 464.913 122.354 464.591 122.059C464.268 121.764 463.867 121.617 463.388 121.617C462.909 121.617 462.508 121.763 462.185 122.054Z" fill="#2B2A29"/>
<path d="M470.855 126.344L469.262 124.23L467.648 126.344H466.534L468.711 123.522L466.638 120.825H467.752L469.273 122.815L470.783 120.825H471.876L469.794 123.522L471.99 126.344H470.855Z" fill="#2B2A29"/>
<path d="M473.795 126.043C473.355 125.8 473.009 125.464 472.759 125.038C472.509 124.611 472.385 124.126 472.385 123.586C472.385 123.044 472.509 122.559 472.759 122.132C473.009 121.705 473.355 121.372 473.795 121.134C474.236 120.893 474.738 120.773 475.3 120.773C475.8 120.773 476.246 120.875 476.638 121.076C477.03 121.277 477.334 121.568 477.549 121.951L476.789 122.439C476.616 122.175 476.4 121.978 476.144 121.846C475.886 121.715 475.602 121.648 475.29 121.648C474.929 121.648 474.604 121.729 474.316 121.888C474.028 122.048 473.802 122.275 473.639 122.57C473.476 122.865 473.394 123.203 473.394 123.586C473.394 123.973 473.476 124.315 473.639 124.611C473.802 124.906 474.028 125.133 474.316 125.293C474.604 125.453 474.929 125.532 475.29 125.532C475.602 125.532 475.886 125.466 476.144 125.334C476.4 125.203 476.616 125.005 476.789 124.741L477.549 125.22C477.334 125.602 477.03 125.895 476.638 126.1C476.246 126.304 475.8 126.407 475.3 126.407C474.738 126.407 474.236 126.286 473.795 126.043Z" fill="#2B2A29"/>
<path d="M483.741 123.919H479.264C479.327 124.404 479.54 124.795 479.905 125.09C480.269 125.385 480.722 125.532 481.263 125.532C481.923 125.532 482.454 125.31 482.857 124.866L483.408 125.511C483.158 125.803 482.848 126.026 482.477 126.177C482.105 126.33 481.69 126.407 481.232 126.407C480.649 126.407 480.132 126.287 479.681 126.048C479.23 125.808 478.88 125.474 478.634 125.043C478.388 124.613 478.265 124.126 478.265 123.586C478.265 123.05 478.384 122.569 478.624 122.138C478.863 121.708 479.193 121.372 479.613 121.134C480.033 120.893 480.506 120.773 481.035 120.773C481.561 120.773 482.032 120.893 482.445 121.134C482.858 121.372 483.181 121.708 483.414 122.138C483.646 122.569 483.762 123.061 483.762 123.617C483.762 123.693 483.756 123.793 483.741 123.919ZM479.831 122.054C479.509 122.347 479.32 122.728 479.264 123.2H482.804C482.749 122.734 482.56 122.354 482.237 122.059C481.914 121.764 481.513 121.617 481.035 121.617C480.555 121.617 480.155 121.763 479.831 122.054Z" fill="#2B2A29"/>
<path d="M485.14 118.618H486.14V126.344H485.14V118.618Z" fill="#2B2A29"/>
<path d="M513.636 72.0407C513.267 72.0407 512.968 71.7417 512.968 71.3722V41.7117C512.968 41.3422 513.267 41.0432 513.636 41.0432C514.006 41.0432 514.305 41.3422 514.305 41.7117V71.3722C514.305 71.7417 514.006 72.0407 513.636 72.0407Z" fill="#2B2A29"/>
<path d="M513.636 86.4938C513.267 86.4938 512.968 86.1948 512.968 85.8253V78.7178C512.968 78.3483 513.267 78.0493 513.636 78.0493C514.006 78.0493 514.305 78.3483 514.305 78.7178V85.8253C514.305 86.1948 514.006 86.4938 513.636 86.4938Z" fill="#2B2A29"/>
<path d="M451.053 135.044H430.647C430.277 135.044 429.978 134.745 429.978 134.375C429.978 134.006 430.277 133.707 430.647 133.707H451.053C451.423 133.707 451.722 134.006 451.722 134.375C451.722 134.745 451.423 135.044 451.053 135.044Z" fill="#2B2A29"/>
<path d="M424.312 134.793H419.974C419.605 134.793 419.306 134.494 419.306 134.125C419.306 133.755 419.605 133.456 419.974 133.456H424.312C424.681 133.456 424.98 133.755 424.98 134.125C424.98 134.494 424.681 134.793 424.312 134.793Z" fill="#2B2A29"/>
<path d="M154.202 52.499C153.832 52.499 153.533 52.2 153.533 51.8305V29.2044C153.533 28.8349 153.832 28.5359 154.202 28.5359C154.571 28.5359 154.87 28.8349 154.87 29.2044V51.8305C154.87 52.2 154.571 52.499 154.202 52.499Z" fill="#2B2A29"/>
<path d="M154.202 87.1473C153.832 87.1473 153.533 86.8483 153.533 86.4788V70.1004C153.533 69.7309 153.832 69.4319 154.202 69.4319C154.571 69.4319 154.87 69.7309 154.87 70.1004V86.4788C154.87 86.8483 154.571 87.1473 154.202 87.1473Z" fill="#2B2A29"/>
<path d="M154.202 116.06C153.832 116.06 153.533 115.761 153.533 115.392V102.337C153.533 101.967 153.832 101.668 154.202 101.668C154.571 101.668 154.87 101.967 154.87 102.337V115.392C154.87 115.761 154.571 116.06 154.202 116.06Z" fill="#2B2A29"/>
<path d="M558.091 186.454H420.553V274.996H558.091V186.454Z" fill="#B8D2F9"/>
<path d="M558.422 275.332H420.221V186.126H558.422V275.332ZM420.884 274.668H557.758V186.79H420.884V274.668Z" fill="#2B2A29"/>
<path d="M555.459 271.849H422.471V195.337C422.471 191.495 425.585 188.381 429.426 188.381H548.503C552.345 188.381 555.459 191.495 555.459 195.337V271.849ZM415.646 188.512V271.849H562.283V188.512C562.283 184.671 559.169 181.557 555.328 181.557H422.602C418.761 181.557 415.646 184.671 415.646 188.512Z" fill="#52728D"/>
<path d="M562.961 272.519H414.987V188.513C414.987 184.309 418.407 180.889 422.611 180.889H555.337C559.54 180.889 562.961 184.309 562.961 188.513V272.519ZM556.136 271.182H561.624V188.513C561.624 185.047 558.803 182.226 555.337 182.226H422.611C419.144 182.226 416.324 185.047 416.324 188.513V271.182H421.811V195.338C421.811 191.134 425.231 187.714 429.435 187.714H548.512C552.716 187.714 556.136 191.134 556.136 195.338V271.182ZM423.148 271.182H554.799V195.338C554.799 191.871 551.979 189.051 548.512 189.051H429.435C425.968 189.051 423.148 191.871 423.148 195.338V271.182Z" fill="#2B2A29"/>
<path d="M573.665 279.2C573.665 282.679 570.845 285.499 567.366 285.499H414.079C410.6 285.499 407.78 282.679 407.78 279.2V278.15C407.78 274.671 410.6 271.851 414.079 271.851H567.366C570.845 271.851 573.665 274.671 573.665 278.15V279.2Z" fill="#52728D"/>
<path d="M567.362 286.167H414.076C410.234 286.167 407.108 283.042 407.108 279.199V278.149C407.108 274.308 410.234 271.182 414.076 271.182H567.362C571.205 271.182 574.331 274.308 574.331 278.149V279.199C574.331 283.042 571.205 286.167 567.362 286.167ZM414.076 272.519C410.971 272.519 408.445 275.044 408.445 278.149V279.199C408.445 282.304 410.971 284.83 414.076 284.83H567.362C570.467 284.83 572.994 282.304 572.994 279.199V278.149C572.994 275.044 570.467 272.519 567.362 272.519H414.076Z" fill="#2B2A29"/>
<path d="M554.866 181.889H551.375C555.188 181.889 558.279 184.981 558.279 188.794V271.52H561.771V188.794C561.771 184.981 558.68 181.889 554.866 181.889Z" fill="#4C6379"/>
<path d="M567.43 272.215H564.101C567.394 272.215 570.063 274.885 570.063 278.178V279.172C570.063 282.465 567.394 285.134 564.101 285.134H567.43C570.723 285.134 573.393 282.465 573.393 279.172V278.178C573.393 274.885 570.723 272.215 567.43 272.215Z" fill="#4C6379"/>
<path d="M502.005 184.838C502.005 186.07 501.006 187.069 499.774 187.069H484.025C482.793 187.069 481.794 186.07 481.794 184.838C481.794 183.606 482.793 182.607 484.025 182.607H499.774C501.006 182.607 502.005 183.606 502.005 184.838Z" fill="#52728D"/>
<path d="M499.775 187.739H484.026C482.427 187.739 481.127 186.439 481.127 184.839C481.127 183.24 482.427 181.939 484.026 181.939H499.775C501.373 181.939 502.675 183.24 502.675 184.839C502.675 186.439 501.373 187.739 499.775 187.739ZM484.026 183.276C483.164 183.276 482.464 183.977 482.464 184.839C482.464 185.701 483.164 186.402 484.026 186.402H499.775C500.636 186.402 501.338 185.701 501.338 184.839C501.338 183.977 500.636 183.276 499.775 183.276H484.026Z" fill="#2B2A29"/>
<path d="M504.535 186.807C505.598 186.807 506.46 185.945 506.46 184.882C506.46 183.819 505.598 182.957 504.535 182.957C503.472 182.957 502.61 183.819 502.61 184.882C502.61 185.945 503.472 186.807 504.535 186.807Z" fill="#52728D"/>
<path d="M504.539 187.477C503.109 187.477 501.946 186.314 501.946 184.883C501.946 183.453 503.109 182.29 504.539 182.29C505.969 182.29 507.133 183.453 507.133 184.883C507.133 186.314 505.969 187.477 504.539 187.477ZM504.539 183.627C503.846 183.627 503.283 184.191 503.283 184.883C503.283 185.576 503.846 186.14 504.539 186.14C505.232 186.14 505.796 185.576 505.796 184.883C505.796 184.191 505.232 183.627 504.539 183.627Z" fill="#2B2A29"/>
<path d="M508.566 278.411C508.566 279.281 507.861 279.986 506.992 279.986H477.069C476.199 279.986 475.494 279.281 475.494 278.411C475.494 277.541 476.199 276.836 477.069 276.836H506.992C507.861 276.836 508.566 277.541 508.566 278.411Z" fill="#E2F0FC"/>
<path d="M506.995 280.656H477.072C475.835 280.656 474.829 279.649 474.829 278.412C474.829 277.176 475.835 276.169 477.072 276.169H506.995C508.232 276.169 509.238 277.176 509.238 278.412C509.238 279.649 508.232 280.656 506.995 280.656ZM477.072 277.506C476.572 277.506 476.166 277.912 476.166 278.412C476.166 278.912 476.572 279.318 477.072 279.318H506.995C507.494 279.318 507.901 278.912 507.901 278.412C507.901 277.912 507.494 277.506 506.995 277.506H477.072Z" fill="#2B2A29"/>
<path d="M422.295 280.424C423.261 280.424 424.045 279.64 424.045 278.674C424.045 277.707 423.261 276.924 422.295 276.924C421.328 276.924 420.545 277.707 420.545 278.674C420.545 279.64 421.328 280.424 422.295 280.424Z" fill="#E2F0FC"/>
<path d="M422.299 281.093C420.966 281.093 419.881 280.008 419.881 278.674C419.881 277.341 420.966 276.256 422.299 276.256C423.633 276.256 424.718 277.341 424.718 278.674C424.718 280.008 423.633 281.093 422.299 281.093ZM422.299 277.593C421.703 277.593 421.218 278.078 421.218 278.674C421.218 279.271 421.703 279.756 422.299 279.756C422.896 279.756 423.381 279.271 423.381 278.674C423.381 278.078 422.896 277.593 422.299 277.593Z" fill="#2B2A29"/>
<path d="M475.204 256.023H447.634C444.518 256.023 441.991 253.497 441.991 250.38V212.264C441.991 209.147 444.518 206.62 447.634 206.62H470.855L480.847 217.168V250.38C480.847 253.497 478.32 256.023 475.204 256.023Z" fill="#E2F0FC"/>
<path d="M475.202 256.692H447.633C444.153 256.692 441.321 253.86 441.321 250.38V212.264C441.321 208.784 444.153 205.952 447.633 205.952H471.141L481.514 216.901V250.38C481.514 253.86 478.683 256.692 475.202 256.692ZM447.633 207.289C444.89 207.289 442.658 209.52 442.658 212.264V250.38C442.658 253.123 444.89 255.355 447.633 255.355H475.202C477.946 255.355 480.177 253.123 480.177 250.38V217.434L470.567 207.289H447.633Z" fill="#2B2A29"/>
<path d="M470.844 206.615V217.162L480.836 217.163L470.844 206.615Z" fill="#52728D"/>
<path d="M480.848 217.724L470.857 217.722C470.55 217.722 470.302 217.474 470.302 217.167V206.621C470.302 206.394 470.44 206.189 470.651 206.106C470.863 206.025 471.103 206.074 471.259 206.24L481.251 216.787C481.404 216.948 481.446 217.184 481.358 217.388C481.271 217.592 481.07 217.724 480.848 217.724ZM471.412 216.613L479.558 216.614L471.412 208.015V216.613Z" fill="#2B2A29"/>
<path d="M461.41 225.763C461.41 229.595 458.304 232.701 454.472 232.701H439.484C435.652 232.701 432.546 229.595 432.546 225.763C432.546 221.93 435.652 218.824 439.484 218.824H454.472C458.304 218.824 461.41 221.93 461.41 225.763Z" fill="white"/>
<path d="M454.477 233.264H439.489C435.357 233.264 431.995 229.903 431.995 225.771C431.995 221.638 435.357 218.278 439.489 218.278H454.477C458.608 218.278 461.97 221.638 461.97 225.771C461.97 229.903 458.608 233.264 454.477 233.264ZM439.489 219.387C435.969 219.387 433.105 222.251 433.105 225.771C433.105 229.291 435.969 232.154 439.489 232.154H454.477C457.996 232.154 460.86 229.291 460.86 225.771C460.86 222.251 457.996 219.387 454.477 219.387H439.489Z" fill="#2B2A29"/>
<path d="M440.932 227.983C440.558 227.778 440.266 227.494 440.054 227.133C439.843 226.772 439.737 226.362 439.737 225.903C439.737 225.445 439.843 225.035 440.054 224.673C440.266 224.312 440.558 224.03 440.932 223.827C441.305 223.624 441.729 223.523 442.205 223.523C442.629 223.523 443.006 223.608 443.339 223.778C443.67 223.949 443.927 224.196 444.11 224.519L443.466 224.933C443.319 224.71 443.137 224.543 442.919 224.431C442.702 224.32 442.461 224.264 442.197 224.264C441.891 224.264 441.616 224.331 441.372 224.466C441.129 224.602 440.937 224.794 440.799 225.043C440.661 225.294 440.592 225.58 440.592 225.903C440.592 226.232 440.661 226.521 440.799 226.772C440.937 227.021 441.129 227.214 441.372 227.349C441.616 227.485 441.891 227.551 442.197 227.551C442.461 227.551 442.702 227.496 442.919 227.384C443.137 227.273 443.319 227.105 443.466 226.881L444.11 227.287C443.927 227.61 443.67 227.859 443.339 228.032C443.006 228.205 442.629 228.293 442.205 228.293C441.729 228.293 441.305 228.19 440.932 227.983Z" fill="#2B2A29"/>
<path d="M445.442 228.137C445.089 228.036 444.813 227.904 444.613 227.746L444.966 227.076C445.172 227.222 445.422 227.34 445.715 227.428C446.009 227.516 446.306 227.56 446.606 227.56C447.346 227.56 447.717 227.349 447.717 226.926C447.717 226.785 447.667 226.672 447.567 226.59C447.467 226.508 447.342 226.448 447.192 226.41C447.043 226.372 446.829 226.329 446.553 226.282C446.177 226.223 445.869 226.155 445.632 226.08C445.394 226.003 445.189 225.873 445.019 225.692C444.848 225.509 444.764 225.253 444.764 224.924C444.764 224.501 444.94 224.162 445.292 223.906C445.645 223.651 446.118 223.523 446.712 223.523C447.023 223.523 447.334 223.561 447.646 223.637C447.958 223.714 448.213 223.817 448.413 223.946L448.052 224.616C447.669 224.369 447.22 224.245 446.703 224.245C446.344 224.245 446.071 224.304 445.883 224.422C445.695 224.539 445.601 224.696 445.601 224.889C445.601 225.042 445.654 225.163 445.76 225.251C445.866 225.339 445.996 225.403 446.152 225.445C446.308 225.486 446.527 225.533 446.809 225.586C447.185 225.65 447.489 225.719 447.721 225.792C447.953 225.867 448.152 225.991 448.316 226.167C448.481 226.343 448.563 226.59 448.563 226.908C448.563 227.332 448.382 227.667 448.021 227.918C447.66 228.167 447.167 228.293 446.545 228.293C446.162 228.293 445.795 228.241 445.442 228.137Z" fill="#2B2A29"/>
<path d="M453.659 223.566L451.614 228.239H450.75L448.705 223.566H449.586L451.191 227.313L452.831 223.566H453.659Z" fill="#2B2A29"/>
<path d="M531.59 226.701H498.697C497.129 226.701 495.858 225.43 495.858 223.863V223.513C495.858 221.946 497.129 220.675 498.697 220.675H531.59C533.158 220.675 534.429 221.946 534.429 223.513V223.863C534.429 225.43 533.158 226.701 531.59 226.701Z" fill="white"/>
<path d="M531.59 227.039H498.697C496.947 227.039 495.524 225.615 495.524 223.866V223.516C495.524 221.766 496.947 220.343 498.697 220.343H531.59C533.34 220.343 534.763 221.766 534.763 223.516V223.866C534.763 225.615 533.34 227.039 531.59 227.039ZM498.697 221.012C497.316 221.012 496.192 222.134 496.192 223.516V223.866C496.192 225.247 497.316 226.37 498.697 226.37H531.59C532.971 226.37 534.094 225.247 534.094 223.866V223.516C534.094 222.134 532.971 221.012 531.59 221.012H498.697Z" fill="#2B2A29"/>
<path d="M538.585 202.38H435.51C433.862 202.38 432.527 201.045 432.527 199.397V199.337C432.527 197.689 433.862 196.354 435.51 196.354H538.585C540.233 196.354 541.568 197.689 541.568 199.337V199.397C541.568 201.045 540.233 202.38 538.585 202.38Z" fill="#FF9100"/>
<path d="M538.599 202.722H435.524C433.695 202.722 432.207 201.233 432.207 199.404C432.207 197.515 433.695 196.026 435.524 196.026H538.599C540.429 196.026 541.917 197.515 541.917 199.344C541.917 201.233 540.429 202.722 538.599 202.722ZM435.524 196.695C434.064 196.695 432.875 197.883 432.875 199.344C432.875 200.865 434.064 202.053 435.524 202.053H538.599C540.061 202.053 541.249 200.865 541.249 199.404C541.249 197.883 540.061 196.695 538.599 196.695H435.524Z" fill="#2B2A29"/>
<path d="M531.59 251.352H498.697C497.129 251.352 495.858 250.081 495.858 248.513V248.164C495.858 246.596 497.129 245.325 498.697 245.325H531.59C533.158 245.325 534.429 246.596 534.429 248.164V248.513C534.429 250.081 533.158 251.352 531.59 251.352Z" fill="white"/>
<path d="M531.59 251.688H498.697C496.947 251.688 495.524 250.265 495.524 248.516V248.167C495.524 246.417 496.947 244.994 498.697 244.994H531.59C533.34 244.994 534.763 246.417 534.763 248.167V248.516C534.763 250.265 533.34 251.688 531.59 251.688ZM498.697 245.663C497.316 245.663 496.192 246.786 496.192 248.167V248.516C496.192 249.897 497.316 251.02 498.697 251.02H531.59C532.971 251.02 534.094 249.897 534.094 248.516V248.167C534.094 246.786 532.971 245.663 531.59 245.663H498.697Z" fill="#2B2A29"/>
<path d="M531.59 239.227H498.697C497.129 239.227 495.858 237.956 495.858 236.389V236.039C495.858 234.472 497.129 233.201 498.697 233.201H531.59C533.158 233.201 534.429 234.472 534.429 236.039V236.389C534.429 237.956 533.158 239.227 531.59 239.227Z" fill="white"/>
<path d="M531.59 239.564H498.697C496.947 239.564 495.524 238.141 495.524 236.391V236.041C495.524 234.292 496.947 232.868 498.697 232.868H531.59C533.34 232.868 534.763 234.292 534.763 236.041V236.391C534.763 238.141 533.34 239.564 531.59 239.564ZM498.697 233.537C497.316 233.537 496.192 234.66 496.192 236.041V236.391C496.192 237.773 497.316 238.895 498.697 238.895H531.59C532.971 238.895 534.094 237.773 534.094 236.391V236.041C534.094 234.66 532.971 233.537 531.59 233.537H498.697Z" fill="#2B2A29"/>
<path d="M541.591 292.576H454.003C453.606 292.576 453.283 292.253 453.283 291.856C453.283 291.459 453.606 291.137 454.003 291.137H541.591C541.988 291.137 542.311 291.459 542.311 291.856C542.311 292.253 541.988 292.576 541.591 292.576Z" fill="#2B2A29"/>
<path d="M565.889 292.835C563.839 292.835 562.318 292.589 562.172 292.564C561.78 292.499 561.517 292.128 561.582 291.737C561.647 291.346 562.021 291.081 562.409 291.146C562.488 291.158 570.319 292.417 574.285 289.055C575.795 287.775 576.561 285.946 576.561 283.618C576.561 283.221 576.884 282.898 577.281 282.898C577.678 282.898 578 283.221 578 283.618C578 286.39 577.062 288.589 575.212 290.155C572.608 292.359 568.738 292.835 565.889 292.835Z" fill="#2B2A29"/>
<path d="M147.368 237.022C164.737 237.022 178.818 222.941 178.818 205.572C178.818 188.203 164.737 174.122 147.368 174.122C129.999 174.122 115.918 188.203 115.918 205.572C115.918 222.941 129.999 237.022 147.368 237.022Z" fill="#FFFEFE"/>
<path d="M142.657 233.301C125.696 229.561 114.977 212.78 118.717 195.818C119.487 192.322 120.819 189.098 122.585 186.204C119.776 189.794 117.706 194.052 116.659 198.801C112.919 215.763 123.638 232.545 140.599 236.284C154.066 239.253 167.411 233.103 174.214 221.957C166.989 231.189 154.871 235.994 142.657 233.301Z" fill="#E6F2FE"/>
<path d="M171.827 235.075L164.634 239.781L187.232 274.315L194.424 269.608L171.827 235.075Z" fill="#FF9100"/>
<path d="M187.031 275.24L163.701 239.587L172.013 234.148L195.343 269.801L187.031 275.24ZM165.553 239.974L187.418 273.389L193.491 269.414L171.626 235.999L165.553 239.974Z" fill="#2B2A29"/>
<path d="M173.811 244.226L173.658 244.322C169.483 246.95 168.229 252.464 170.857 256.639L189.05 285.546C191.678 289.721 197.192 290.975 201.367 288.347L201.52 288.251C205.694 285.624 206.949 280.109 204.321 275.935L186.127 247.028C183.5 242.853 177.986 241.598 173.811 244.226Z" fill="#52728D"/>
<path d="M196.626 290.389C196.626 290.389 196.626 290.389 196.625 290.389C193.301 290.389 190.261 288.712 188.492 285.903L170.298 256.995C167.479 252.515 168.83 246.577 173.309 243.757L173.465 243.66C174.997 242.695 176.762 242.185 178.568 242.185C181.892 242.185 184.932 243.861 186.701 246.671L204.894 275.579C207.714 280.058 206.363 285.997 201.884 288.817L201.728 288.913C200.196 289.878 198.431 290.389 196.626 290.389ZM178.568 243.522C177.015 243.522 175.496 243.96 174.175 244.792L174.02 244.889C170.166 247.315 169.003 252.426 171.43 256.282L189.624 285.19C191.146 287.609 193.763 289.052 196.625 289.052C198.178 289.053 199.697 288.613 201.018 287.781L201.173 287.685C205.027 285.258 206.19 280.147 203.762 276.292L185.569 247.384C184.047 244.964 181.429 243.522 178.568 243.522Z" fill="#2B2A29"/>
<path d="M202.131 287.034L201.981 287.128C197.88 289.709 192.464 288.477 189.883 284.376L172.012 255.982C169.87 252.579 170.361 248.275 172.931 245.432C169.628 248.207 168.788 253.056 171.15 256.81L189.021 285.204C191.602 289.305 197.019 290.537 201.119 287.956L201.27 287.862C201.968 287.423 202.575 286.896 203.102 286.313C202.797 286.57 202.478 286.815 202.131 287.034Z" fill="#4A6484"/>
<path d="M154.163 174.783C171.14 178.526 181.906 195.383 178.163 212.36C174.42 229.337 157.563 240.104 140.586 236.361C123.609 232.618 112.843 215.761 116.586 198.784C120.329 181.806 137.186 171.04 154.163 174.783ZM156.034 166.295C134.342 161.513 112.88 175.22 108.098 196.912C103.315 218.604 117.023 240.066 138.715 244.849C160.407 249.631 181.869 235.923 186.651 214.231C191.434 192.539 177.726 171.078 156.034 166.295Z" fill="#62D2D0"/>
<path d="M147.402 246.469C147.4 246.469 147.402 246.469 147.401 246.469C144.446 246.469 141.471 246.144 138.559 245.501C116.542 240.647 102.578 218.786 107.432 196.769C111.533 178.173 128.309 164.675 147.325 164.675C150.279 164.675 153.254 165 156.165 165.642C178.183 170.497 192.146 192.359 187.291 214.375C183.192 232.971 166.414 246.469 147.402 246.469ZM147.325 166.012C128.932 166.012 112.704 179.068 108.738 197.057C104.043 218.354 117.549 239.5 138.846 244.196C141.664 244.817 144.542 245.132 147.401 245.132C165.792 245.132 182.02 232.076 185.986 214.088C190.682 192.79 177.175 171.643 155.878 166.948C153.06 166.326 150.183 166.012 147.325 166.012ZM147.366 237.773C145.046 237.773 142.713 237.517 140.43 237.014C132.044 235.166 124.874 230.152 120.24 222.895C115.606 215.639 114.072 207.026 115.92 198.64C119.148 183.999 132.369 173.372 147.356 173.372C149.676 173.372 152.01 173.626 154.294 174.13C171.63 177.953 182.626 195.167 178.804 212.504C175.576 227.146 162.354 237.773 147.366 237.773ZM147.356 174.709C132.992 174.709 120.32 184.894 117.226 198.928C115.454 206.964 116.925 215.22 121.366 222.175C125.809 229.131 132.681 233.937 140.717 235.709C142.906 236.19 145.143 236.436 147.366 236.436C161.731 236.436 174.404 226.25 177.498 212.217C181.161 195.6 170.623 179.1 154.006 175.436C151.817 174.953 149.58 174.709 147.356 174.709Z" fill="#2B2A29"/>
<path d="M167.325 198.751C166.878 203.441 163.669 207.315 159.339 208.711L157.573 203.289C159.785 202.577 161.428 200.602 161.647 198.209L167.325 198.751Z" fill="#2A99A7"/>
<path d="M159.136 209.137L157.163 203.079L157.482 202.976C159.614 202.29 161.122 200.409 161.325 198.184L161.356 197.85L167.701 198.454L167.669 198.787C167.216 203.55 163.99 207.572 159.453 209.036L159.136 209.137ZM158.004 203.502L159.564 208.291C163.576 206.867 166.438 203.297 166.967 199.056L161.952 198.578C161.627 200.814 160.118 202.695 158.004 203.502Z" fill="#2B2A29"/>
<path d="M163.7 195.455C163.7 195.825 163.681 196.196 163.652 196.556L157.974 196.015C157.993 195.835 158.003 195.645 158.003 195.455C158.003 192.977 156.484 190.85 154.319 189.967L155.847 184.45C160.424 186.017 163.7 190.356 163.7 195.455Z" fill="#E87FA7"/>
<path d="M163.961 196.928L157.61 196.321L157.645 195.985C157.662 195.817 157.671 195.639 157.671 195.46C157.671 193.175 156.306 191.142 154.195 190.282L153.92 190.17L155.623 184.025L155.958 184.14C160.79 185.793 164.037 190.342 164.037 195.46C164.037 195.84 164.017 196.219 163.988 196.588L163.961 196.928ZM158.334 195.719L163.345 196.197C163.36 195.954 163.368 195.707 163.368 195.46C163.368 190.747 160.453 186.544 156.076 184.892L154.721 189.782C156.929 190.806 158.339 193.003 158.339 195.46C158.339 195.546 158.337 195.633 158.334 195.719Z" fill="#2B2A29"/>
<path d="M155.857 184.452L154.328 189.969C153.635 189.684 152.876 189.523 152.078 189.523C148.802 189.523 146.143 192.181 146.143 195.457C146.143 196.103 146.248 196.711 146.438 197.29L140.617 197.442C140.503 196.796 140.446 196.131 140.446 195.457C140.446 189.029 145.65 183.825 152.078 183.825C153.398 183.825 154.67 184.044 155.857 184.452Z" fill="#62D2D0"/>
<path d="M140.337 197.786L140.287 197.502C140.17 196.841 140.112 196.154 140.112 195.46C140.112 188.862 145.479 183.494 152.077 183.494C153.414 183.494 154.723 183.711 155.966 184.139L156.263 184.241L154.549 190.424L154.201 190.281C153.52 190.002 152.805 189.86 152.077 189.86C148.99 189.86 146.477 192.372 146.477 195.46C146.477 196.052 146.568 196.618 146.756 197.188L146.895 197.615L140.337 197.786ZM152.077 184.163C145.848 184.163 140.78 189.23 140.78 195.46C140.78 196.016 140.82 196.568 140.9 197.102L145.996 196.97C145.872 196.474 145.809 195.969 145.809 195.46C145.809 192.003 148.621 189.191 152.077 189.191C152.768 189.191 153.448 189.305 154.103 189.531L155.449 184.673C154.366 184.334 153.234 184.163 152.077 184.163Z" fill="#2B2A29"/>
<path d="M155.669 206.518C154.539 206.889 153.324 207.088 152.07 207.088C146.316 207.088 141.55 202.92 140.61 197.441L146.43 197.289C147.199 199.672 149.431 201.391 152.07 201.391C152.716 201.391 153.324 201.286 153.903 201.096L155.669 206.518Z" fill="#FF9100"/>
<path d="M152.074 207.427C146.23 207.427 141.271 203.252 140.283 197.501L140.218 197.121L146.675 196.952L146.752 197.19C147.499 199.505 149.637 201.06 152.074 201.06C152.667 201.06 153.232 200.97 153.802 200.783L154.12 200.679L156.093 206.736L155.777 206.839C154.59 207.229 153.344 207.427 152.074 207.427ZM141.014 197.768C142.094 203 146.685 206.758 152.074 206.758C153.159 206.758 154.226 206.605 155.25 206.304L153.69 201.514C153.16 201.657 152.618 201.729 152.074 201.729C149.43 201.729 147.1 200.094 146.198 197.634L141.014 197.768Z" fill="#2B2A29"/>
<path d="M133.384 213.15H128.478V222.171H133.384V213.15Z" fill="#2A99A7"/>
<path d="M133.732 222.511H128.157V212.821H133.732V222.511ZM128.825 221.842H133.063V213.49H128.825V221.842Z" fill="#2B2A29"/>
<path d="M141.306 210.896H136.4V222.111H141.306V210.896Z" fill="#FF9100"/>
<path d="M141.642 222.449H136.067V210.565H141.642V222.449ZM136.736 221.781H140.973V211.233H136.736V221.781Z" fill="#2B2A29"/>
<path d="M149.224 208.787H144.318V222.074H149.224V208.787Z" fill="#62D2D0"/>
<path d="M149.554 222.411H143.979V208.456H149.554V222.411ZM144.648 221.743H148.885V209.125H144.648V221.743Z" fill="#2B2A29"/>
<path d="M166.65 211.461L163.922 207.604L163.485 207.913L166.214 211.77L166.65 211.461Z" fill="#2B2A29"/>
<path d="M136.647 207.641L134.555 203.348L134.074 203.582L136.166 207.875L136.647 207.641Z" fill="#2B2A29"/>
<path d="M136.004 188.752H125.888V190.401H136.004V188.752Z" fill="#B8D2F9"/>
<path d="M133.316 193.637H125.674V195.088H133.316V193.637Z" fill="#B8D2F9"/>
<path d="M136.218 198.281H125.674V199.732H136.218V198.281Z" fill="#B8D2F9"/>
<path d="M169.041 215.434H160.142V216.885H169.041V215.434Z" fill="#B8D2F9"/>
<path d="M170.009 219.601H160.142V221.052H170.009V219.601Z" fill="#B8D2F9"/>
<path d="M168.074 223.769H160.142V225.22H168.074V223.769Z" fill="#B8D2F9"/>
<path d="M130.223 249.276C130.14 249.276 130.055 249.26 129.973 249.228C123.136 246.469 116.964 242.045 112.128 236.433C111.887 236.154 111.919 235.732 112.198 235.491C112.477 235.249 112.899 235.279 113.141 235.561C117.839 241.011 123.832 245.308 130.474 247.987C130.816 248.126 130.981 248.515 130.844 248.858C130.739 249.118 130.488 249.276 130.223 249.276Z" fill="#2B2A29"/>
<path d="M145.403 252.547C145.393 252.547 145.384 252.547 145.374 252.547C143.213 252.455 141.04 252.211 138.917 251.823C138.553 251.757 138.313 251.408 138.38 251.045C138.446 250.682 138.797 250.45 139.157 250.507C141.22 250.885 143.331 251.122 145.43 251.21C145.799 251.225 146.086 251.537 146.07 251.907C146.055 252.266 145.759 252.547 145.403 252.547Z" fill="#2B2A29"/>
<path d="M208.948 273.154C208.718 273.154 208.494 273.035 208.369 272.822L205.126 267.258C204.94 266.939 205.048 266.529 205.367 266.344C205.687 266.156 206.095 266.265 206.281 266.584L209.525 272.149C209.71 272.467 209.602 272.877 209.284 273.063C209.177 273.125 209.062 273.154 208.948 273.154Z" fill="#2B2A29"/>
<path d="M208.936 289.974C208.704 289.974 208.478 289.853 208.355 289.636C208.172 289.316 208.284 288.908 208.605 288.725C212.74 286.369 210.348 277.518 210.323 277.429C210.224 277.073 210.433 276.705 210.789 276.607C211.142 276.505 211.512 276.715 211.612 277.072C211.724 277.476 214.304 287.018 209.267 289.887C209.162 289.946 209.049 289.974 208.936 289.974Z" fill="#2B2A29"/>
<path d="M33.0782 85.2297L34.4879 85.0557L34.5028 85.0754L35.813 86.7839L38.8442 84.46L37.5471 82.7688L37.5191 82.7318L38.1799 81.0437L38.2709 81.0305L40.3354 80.7387L39.8001 76.957L37.7707 77.2448L37.6439 77.2626C37.6439 77.2626 37.3542 76.8465 37.1595 76.5901C36.9449 76.3074 36.7107 75.93 36.7107 75.93L36.7362 75.8666L37.5269 73.9111L33.9868 72.4785L33.2389 74.329L33.1737 74.4891C32.5771 74.4594 31.9728 74.5295 31.3895 74.7037L31.2807 74.5652L30.0575 73.0104L27.0563 75.3722L28.2554 76.8953L28.3636 77.0331C28.0562 77.5363 27.8369 78.082 27.7109 78.6473L27.538 78.6716L25.7212 78.9311L26.26 82.7113L28.0912 82.4504L28.2648 82.4255C28.3833 82.6363 28.5161 82.841 28.6661 83.0386C28.914 83.3651 29.1928 83.6539 29.4953 83.9069L29.4329 84.0672L28.7293 85.8698L32.287 87.2582L33.048 85.3074L33.0782 85.2297ZM30.853 81.3782C29.9891 80.2403 30.2111 78.6178 31.3491 77.7539C32.4862 76.8905 34.1087 77.1126 34.9727 78.2505C35.836 79.3877 35.614 81.0101 34.4768 81.8735C33.3389 82.7375 31.7164 82.5154 30.853 81.3782Z" fill="#507097"/>
<path d="M32.3944 87.496L28.4997 85.9761L29.2849 83.9644C29.0049 83.7189 28.7502 83.446 28.5267 83.1515C28.401 82.9859 28.2826 82.8094 28.1739 82.6255L26.1111 82.9194L25.5212 78.7812L27.5678 78.489C27.6924 77.9847 27.8876 77.5019 28.1494 77.0508L28.1178 77.0105L26.8069 75.3456L30.0924 72.7601L31.4612 74.4999C31.9791 74.358 32.5144 74.2928 33.0586 74.3072L33.076 74.2644L33.8915 72.2466L37.7669 73.8149L36.9177 75.9153C36.9965 76.0388 37.1584 76.2871 37.3082 76.4843C37.4493 76.6702 37.6363 76.934 37.7331 77.0717L37.7502 77.0693L39.9585 76.7561L40.5444 80.896L38.3146 81.2112L37.7292 82.7066L39.1024 84.497L35.7842 87.041L34.4119 85.2515L33.2121 85.3996L32.3944 87.496ZM28.9682 85.7706L32.1888 87.0275L32.9535 85.0671L34.5737 84.8671L34.6515 84.9696L35.8511 86.5339L38.5952 84.4301L37.3183 82.764L38.0544 80.8835L38.2495 80.8551L40.1355 80.5885L39.651 77.165L37.5636 77.4607L37.5001 77.3695C37.4972 77.3654 37.2103 76.9535 37.0201 76.7031C36.8028 76.4168 36.5713 76.0447 36.5616 76.029L36.5132 75.951L37.2961 74.0145L34.0913 72.7176L33.2975 74.6797L33.1694 74.6733C32.5862 74.6444 32.0016 74.7146 31.4458 74.8806L31.3278 74.9158L30.0318 73.268L27.3149 75.4061L28.5881 77.0238L28.5226 77.1309C28.227 77.6149 28.0148 78.1395 27.892 78.6902L27.8648 78.8125L27.5678 78.8543L25.9304 79.0881L26.4181 82.5103L28.3665 82.2325L28.4272 82.3405C28.5443 82.549 28.6747 82.7483 28.8148 82.9328C29.048 83.24 29.3176 83.5223 29.6159 83.7717L29.7157 83.8551L28.9682 85.7706ZM32.9189 82.5847C32.045 82.5847 31.2412 82.1861 30.7136 81.4912C29.7908 80.2757 30.0289 78.5362 31.2443 77.6134C31.7295 77.245 32.3072 77.0503 32.915 77.0503C33.7891 77.0503 34.5933 77.4492 35.1213 78.1447C36.0438 79.3597 35.8058 81.0987 34.5908 82.0212C34.1051 82.3898 33.527 82.5847 32.9189 82.5847ZM32.915 77.412C32.3868 77.412 31.8848 77.5813 31.463 77.9015C30.4065 78.7037 30.1995 80.2159 31.0017 81.2725C31.4603 81.8766 32.1591 82.223 32.9189 82.223C33.4474 82.223 33.9499 82.0536 34.3721 81.7331C35.4282 80.9312 35.6351 79.4196 34.8332 78.3634C34.3742 77.7588 33.675 77.412 32.915 77.412Z" fill="#52505B"/>
<path d="M37.5418 82.7699C37.8857 82.2317 38.1278 81.6425 38.2655 81.0316C38.55 79.7778 38.3949 78.4321 37.7653 77.2459C37.6278 76.9865 37.4671 76.734 37.2839 76.4927C37.1127 76.2673 36.9276 76.0595 36.7309 75.8677C35.7664 74.9309 34.5163 74.407 33.2335 74.3301C32.5786 74.2912 31.9154 74.368 31.2753 74.5662C30.6818 74.7506 30.109 75.0404 29.5849 75.4383C29.0396 75.8523 28.5926 76.3486 28.2501 76.8963C27.9051 77.4472 27.6645 78.0494 27.5326 78.6727C27.266 79.9295 27.4396 81.273 28.0858 82.4514C28.215 82.6874 28.3633 82.9172 28.531 83.1381C28.7984 83.4903 29.0992 83.8004 29.4275 84.0683C30.459 84.915 31.749 85.3395 33.0426 85.3084C33.532 85.297 34.0216 85.2201 34.4974 85.0764C35.1065 84.8922 35.6933 84.5988 36.2302 84.1912C36.7634 83.7864 37.2025 83.3032 37.5418 82.7699ZM30.8476 81.3793C29.9837 80.2414 30.2057 78.6189 31.3437 77.7549C32.4809 76.8916 34.1033 77.1136 34.9673 78.2516C35.8307 79.3887 35.6086 81.0112 34.4714 81.8746C33.3335 82.7385 31.711 82.5165 30.8476 81.3793Z" fill="#507097"/>
<path d="M32.9094 85.493C31.5974 85.493 30.3199 85.0374 29.3121 84.2102C28.9695 83.9306 28.6579 83.6073 28.3863 83.2496C28.2161 83.0254 28.0614 82.7867 27.9265 82.5404C27.2758 81.3538 27.0728 79.9676 27.355 78.6373C27.4932 77.9843 27.7426 77.3669 28.0961 76.8025C28.459 76.2222 28.9229 75.7155 29.4748 75.2964C30.005 74.8939 30.5925 74.5908 31.221 74.3956C31.7653 74.2271 32.3312 74.1416 32.9031 74.1416C33.0161 74.1416 33.1307 74.145 33.2436 74.1517C34.6027 74.2332 35.8856 74.7973 36.8562 75.7401C37.0632 75.9419 37.2553 76.159 37.4273 76.3855C37.614 76.6315 37.7813 76.8931 37.9245 77.1633C38.5587 78.3583 38.7422 79.747 38.4413 81.0737C38.2967 81.7151 38.0451 82.3193 37.6935 82.8694C37.3348 83.4333 36.879 83.9273 36.339 84.3374C35.7972 84.7487 35.195 85.0563 34.5491 85.2517C34.0618 85.3989 33.5561 85.4795 33.0461 85.4914C33.0006 85.4925 32.9551 85.493 32.9094 85.493ZM32.9031 74.5033C32.3675 74.5033 31.8376 74.5833 31.3282 74.7411C30.7401 74.9238 30.1901 75.2075 29.6935 75.5845C29.1767 75.977 28.7424 76.4513 28.4027 76.9944C28.0717 77.5229 27.8383 78.1008 27.7089 78.7123C27.4446 79.958 27.6345 81.2558 28.2437 82.3666C28.3701 82.5974 28.5149 82.8209 28.6744 83.0309C28.9287 83.3659 29.2203 83.6685 29.5412 83.9303C30.4848 84.7049 31.6809 85.1313 32.9094 85.1313H32.9097C32.9523 85.1313 32.9949 85.1308 33.0376 85.1298C33.5151 85.1187 33.9884 85.0432 34.4445 84.9054C35.049 84.7226 35.6128 84.4345 36.1202 84.0493C36.626 83.6653 37.0527 83.2029 37.3885 82.6749C37.7177 82.16 37.9531 81.5945 38.0884 80.994C38.3703 79.7515 38.1986 78.4513 37.6049 77.3328C37.4708 77.0798 37.3141 76.8347 37.1392 76.6043C36.978 76.392 36.7979 76.1884 36.604 75.9993C35.6957 75.1171 34.4946 74.5891 33.222 74.5128C33.1163 74.5065 33.009 74.5033 32.9031 74.5033ZM32.9082 82.5844C32.0344 82.5844 31.2306 82.1858 30.7029 81.4908C30.2559 80.902 30.0649 80.1744 30.1651 79.442C30.2653 78.7096 30.6448 78.0601 31.2337 77.613C31.7188 77.2447 32.2965 77.05 32.9043 77.05C33.7785 77.05 34.5826 77.4488 35.1107 78.1444C35.5574 78.7328 35.7483 79.4602 35.6481 80.1924C35.5479 80.9247 35.1686 81.574 34.5801 82.0208C34.0945 82.3895 33.5164 82.5844 32.9082 82.5844ZM32.9043 77.4117C32.3762 77.4117 31.8741 77.5809 31.4524 77.9011C30.9405 78.2898 30.6106 78.8544 30.5235 79.491C30.4363 80.1277 30.6024 80.7602 30.991 81.2721C31.4497 81.8762 32.1485 82.2226 32.9082 82.2226C33.4367 82.2226 33.9392 82.0532 34.3614 81.7327C34.8729 81.3443 35.2026 80.7799 35.2897 80.1434C35.3768 79.5068 35.2109 78.8746 34.8226 78.3631C34.3635 77.7585 33.6643 77.4117 32.9043 77.4117Z" fill="#52505B"/>
<path d="M39.5882 112.006L32.7324 115.779L32.5893 115.857L25.8723 112.006L32.7324 108.043L39.5882 112.006Z" fill="#FFB13E"/>
<path d="M32.596 116.197C32.5385 116.197 32.4811 116.182 32.4295 116.153L25.7125 112.302C25.6087 112.243 25.5447 112.132 25.5447 112.013C25.5447 111.893 25.608 111.782 25.7118 111.723L32.5718 107.76C32.675 107.7 32.8029 107.7 32.9061 107.76L39.7616 111.723C39.866 111.783 39.93 111.895 39.9287 112.016C39.9274 112.136 39.8614 112.247 39.7557 112.305L32.7566 116.156C32.7063 116.183 32.6515 116.197 32.596 116.197ZM26.5487 112.011L32.5999 115.479L38.9142 112.005L32.739 108.435L26.5487 112.011Z" fill="#52505B"/>
<path d="M39.5824 112.006V119.924L32.7266 123.883V115.779L39.5824 112.006Z" fill="#FFB13E"/>
<path d="M32.7288 124.224C32.6713 124.224 32.6132 124.209 32.5617 124.179C32.4585 124.119 32.3945 124.009 32.3945 123.889V115.784C32.3945 115.662 32.4611 115.55 32.5675 115.491L39.423 111.719C39.5268 111.663 39.6521 111.665 39.7546 111.724C39.8558 111.785 39.9185 111.894 39.9185 112.012V119.93C39.9185 120.049 39.8545 120.16 39.7514 120.219L32.8959 124.179C32.8443 124.209 32.7862 124.224 32.7288 124.224ZM33.063 115.982V123.31L39.25 119.737V112.578L33.063 115.982Z" fill="#52505B"/>
<path d="M32.7302 115.939V123.883L25.8701 119.924V112.006L32.5871 115.857L32.7302 115.939Z" fill="#FF9100"/>
<path d="M32.7348 124.224C32.6774 124.224 32.6193 124.209 32.5677 124.179L25.7077 120.219C25.6045 120.16 25.5405 120.049 25.5405 119.93V112.012C25.5405 111.893 25.6039 111.783 25.707 111.723C25.8108 111.663 25.9375 111.663 26.0413 111.722L32.9013 115.655C33.0051 115.715 33.0691 115.826 33.0691 115.945V123.889C33.0691 124.009 33.0051 124.119 32.9019 124.179C32.8504 124.209 32.7923 124.224 32.7348 124.224ZM26.209 119.737L32.4006 123.31V116.138L26.209 112.589V119.737Z" fill="#52505B"/>
<path d="M64.4871 108.602C64.4871 108.602 65.9311 105.618 67.9527 105.618C67.9527 105.618 68.5303 107.64 69.6855 105.618C69.6855 105.618 72.3809 106.003 72.766 108.602H71.5145L71.5466 113.512H65.6423L65.8348 108.699L64.4871 108.602Z" fill="white"/>
<path d="M71.8864 113.853H65.2979L65.4918 109.015L63.9746 108.907L64.1894 108.463C64.2521 108.333 65.7503 105.29 67.9563 105.29H68.2076L68.2775 105.532C68.3571 105.806 68.566 106.188 68.726 106.188C68.8441 106.188 69.0909 105.998 69.3984 105.458L69.5113 105.261L69.7359 105.293C69.7653 105.298 72.6835 105.746 73.1 108.559L73.1568 108.943H71.8544L71.8864 113.853ZM65.9938 113.184H71.2139L71.182 108.274H72.3597C71.9229 106.645 70.4175 106.135 69.8534 105.998C69.4852 106.575 69.1151 106.857 68.726 106.857C68.1841 106.857 67.8708 106.314 67.7271 105.973C66.4841 106.135 65.4781 107.57 65.0355 108.313L66.1851 108.395L65.9938 113.184Z" fill="#2B2A29"/>
<path d="M66.6435 186.953H70.8111L72.0613 193.829H69.3524L68.613 190.287L67.5812 193.829H65.1648L66.6435 186.953Z" fill="#3C717B"/>
<path d="M72.4707 194.168H69.0896L68.5687 191.67L67.8408 194.168H64.76L66.3823 186.623H71.0991L72.4707 194.168ZM69.6328 193.5H71.6703L70.5416 187.291H66.9229L65.5878 193.5H67.3394L68.6757 188.913L69.6328 193.5Z" fill="#2B2A29"/>
<path d="M66.1658 173.448H71.0695C71.0695 173.448 70.7678 168.092 68.6177 168.092C66.4675 168.092 66.1658 173.448 66.1658 173.448Z" fill="#43B3BD"/>
<path d="M71.438 173.79H65.8262L65.8464 173.438C65.8791 172.857 66.2348 167.764 68.6321 167.764C71.0286 167.764 71.3851 172.857 71.4177 173.438L71.438 173.79ZM66.5404 173.122H70.7238C70.5834 171.599 70.0089 168.433 68.6321 168.433C67.2533 168.433 66.6801 171.599 66.5404 173.122Z" fill="#2B2A29"/>
<path d="M68.6387 169.089C69.1881 169.089 69.6336 168.644 69.6336 168.094C69.6336 167.545 69.1881 167.099 68.6387 167.099C68.0892 167.099 67.6438 167.545 67.6438 168.094C67.6438 168.644 68.0892 169.089 68.6387 169.089Z" fill="white"/>
<path d="M68.6297 169.428C67.8966 169.428 67.3005 168.831 67.3005 168.099C67.3005 167.366 67.8966 166.77 68.6297 166.77C69.3629 166.77 69.9589 167.366 69.9589 168.099C69.9589 168.831 69.3629 169.428 68.6297 169.428ZM68.6297 167.438C68.2654 167.438 67.969 167.735 67.969 168.099C67.969 168.463 68.2654 168.76 68.6297 168.76C68.994 168.76 69.2904 168.463 69.2904 168.099C69.2904 167.735 68.994 167.438 68.6297 167.438Z" fill="#2B2A29"/>
<path d="M66.1658 132.603H71.0695C71.0695 132.603 70.7678 127.246 68.6177 127.246C66.4675 127.246 66.1658 132.603 66.1658 132.603Z" fill="#A3B2FB"/>
<path d="M71.438 132.943H65.8262L65.8464 132.59C65.8791 132.01 66.2348 126.919 68.6321 126.919C71.0286 126.919 71.3851 132.01 71.4177 132.59L71.438 132.943ZM66.5404 132.275H70.7238C70.5834 130.752 70.0089 127.587 68.6321 127.587C67.2533 127.587 66.6801 130.752 66.5404 132.275Z" fill="#2B2A29"/>
<path d="M68.6387 128.242C69.1881 128.242 69.6336 127.797 69.6336 127.248C69.6336 126.698 69.1881 126.253 68.6387 126.253C68.0892 126.253 67.6438 126.698 67.6438 127.248C67.6438 127.797 68.0892 128.242 68.6387 128.242Z" fill="white"/>
<path d="M68.6297 128.582C67.8966 128.582 67.3005 127.986 67.3005 127.253C67.3005 126.52 67.8966 125.924 68.6297 125.924C69.3629 125.924 69.9589 126.52 69.9589 127.253C69.9589 127.986 69.3629 128.582 68.6297 128.582ZM68.6297 126.593C68.2654 126.593 67.969 126.889 67.969 127.253C67.969 127.617 68.2654 127.914 68.6297 127.914C68.994 127.914 69.2904 127.617 69.2904 127.253C69.2904 126.889 68.994 126.593 68.6297 126.593Z" fill="#2B2A29"/>
<path d="M64.5171 152.332L67.3526 152C67.8835 151.937 68.4202 151.943 68.9496 152.017L70.4105 152.22C70.8375 152.279 71.2185 151.947 71.2185 151.516V147.902H68.977C68.977 147.902 65.8801 150.855 64.5171 150.969C63.1542 151.082 63.8357 152.332 64.5171 152.332Z" fill="#52728D"/>
<path d="M64.538 152.669H64.5185C63.9655 152.669 63.421 152.14 63.3982 151.58C63.3812 151.17 63.6593 150.707 64.4904 150.638C65.5127 150.553 67.91 148.462 68.7476 147.663L68.8442 147.571H71.5541V151.518C71.5541 152.142 71.0018 152.648 70.3653 152.553L68.9049 152.35C68.4048 152.281 67.8949 152.276 67.3923 152.334L64.538 152.669ZM69.1112 148.239C68.5047 148.808 65.8901 151.193 64.5465 151.304C64.399 151.317 64.0582 151.366 64.066 151.552C64.0739 151.748 64.3109 151.987 64.5034 151.999L67.3146 151.67C67.8727 151.606 68.4401 151.61 68.9963 151.688L70.4573 151.891C70.4606 151.891 70.4632 151.891 70.4658 151.891C70.7211 151.891 70.8856 151.724 70.8856 151.518V148.239H69.1112Z" fill="#2B2A29"/>
<path d="M153.184 170.352C153.077 170.352 152.969 170.341 152.861 170.318C149.727 169.659 144.281 169.351 144.226 169.348C143.367 169.3 142.71 168.565 142.757 167.706C142.805 166.847 143.53 166.185 144.399 166.237C144.632 166.249 150.136 166.56 153.502 167.269C154.345 167.446 154.883 168.273 154.706 169.115C154.552 169.849 153.904 170.352 153.184 170.352Z" fill="white"/>
<path d="M183.657 199.122C182.923 199.122 182.269 198.602 182.128 197.854C178.481 178.533 156.716 170.897 156.496 170.821C155.682 170.544 155.247 169.658 155.525 168.844C155.802 168.029 156.688 167.596 157.502 167.873C158.469 168.202 181.209 176.189 185.19 197.276C185.349 198.121 184.793 198.936 183.948 199.096C183.85 199.114 183.753 199.122 183.657 199.122Z" fill="white"/>
</svg>
