<svg width="106" height="30" viewBox="0 0 106 30" fill="none" xmlns="http://www.w3.org/2000/svg">
<rect width="100" height="30" rx="5" fill="#2B2A29"/>
<path d="M106 15L98 9V21L106 15Z" fill="#2B2A29"/>
<path d="M34.842 17.152H38.972V19H32.91V9.2H38.902V11.048H34.842V13.134H38.552V14.954H34.842V17.152ZM47.9918 11.804C48.7945 11.804 49.4338 12.0653 49.9098 12.588C50.3952 13.1107 50.6378 13.8107 50.6378 14.688V19H48.8318V14.814C48.8318 14.394 48.7292 14.0673 48.5238 13.834C48.3185 13.6007 48.0292 13.484 47.6558 13.484C47.2452 13.484 46.9232 13.6193 46.6898 13.89C46.4658 14.1607 46.3538 14.5527 46.3538 15.066V19H44.5478V14.814C44.5478 14.394 44.4452 14.0673 44.2398 13.834C44.0345 13.6007 43.7452 13.484 43.3718 13.484C42.9705 13.484 42.6485 13.6193 42.4058 13.89C42.1725 14.1607 42.0558 14.5527 42.0558 15.066V19H40.2498V12H42.0558V12.742C42.4758 12.1167 43.1245 11.804 44.0018 11.804C44.8605 11.804 45.4952 12.14 45.9058 12.812C46.3725 12.14 47.0678 11.804 47.9918 11.804ZM57.4917 12H59.2977V19H57.4917V18.174C56.9504 18.8553 56.1897 19.196 55.2097 19.196C54.2764 19.196 53.4737 18.8413 52.8017 18.132C52.139 17.4133 51.8077 16.536 51.8077 15.5C51.8077 14.464 52.139 13.5913 52.8017 12.882C53.4737 12.1633 54.2764 11.804 55.2097 11.804C56.1897 11.804 56.9504 12.1447 57.4917 12.826V12ZM54.1597 16.928C54.5237 17.292 54.9857 17.474 55.5457 17.474C56.1057 17.474 56.5677 17.292 56.9317 16.928C57.305 16.5547 57.4917 16.0787 57.4917 15.5C57.4917 14.9213 57.305 14.45 56.9317 14.086C56.5677 13.7127 56.1057 13.526 55.5457 13.526C54.9857 13.526 54.5237 13.7127 54.1597 14.086C53.7957 14.45 53.6137 14.9213 53.6137 15.5C53.6137 16.0787 53.7957 16.5547 54.1597 16.928ZM61.8314 11.16C61.5327 11.16 61.2714 11.0527 61.0474 10.838C60.8327 10.614 60.7254 10.3527 60.7254 10.054C60.7254 9.75533 60.8327 9.494 61.0474 9.27C61.2714 9.046 61.5327 8.934 61.8314 8.934C62.1394 8.934 62.4007 9.046 62.6154 9.27C62.8394 9.494 62.9514 9.75533 62.9514 10.054C62.9514 10.3527 62.8394 10.614 62.6154 10.838C62.4007 11.0527 62.1394 11.16 61.8314 11.16ZM60.9354 19V12H62.7414V19H60.9354ZM64.3944 19V8.78H66.2004V19H64.3944Z" fill="white"/>
</svg>
