<svg width="460" height="240" viewBox="0 0 460 240" fill="none" xmlns="http://www.w3.org/2000/svg">
<rect width="460" height="240" rx="25" fill="#F3F5F7"/>
<path d="M346.771 171.043C346.771 184.478 335.905 195.343 322.471 195.343H137.978C124.544 195.343 113.679 184.478 113.679 171.043V66.2993C113.679 52.8651 124.544 42 137.978 42H322.418C335.852 42 346.717 52.8651 346.717 66.2993V171.043H346.771Z" fill="#D5D4D6" stroke="#574E56" stroke-width="1.5" stroke-miterlimit="10"/>
<path d="M356.67 198.768H102.383C96.6565 198.768 92 194.111 92 188.384V188.17C92 182.443 96.6565 177.787 102.383 177.787H180.634C184.327 177.787 187.913 178.911 190.91 180.998L195.031 183.889H256.529L261.507 180.677C264.397 178.804 267.822 177.787 271.301 177.787H356.617C362.343 177.787 367 182.443 367 188.17V188.384C367 194.111 362.397 198.768 356.67 198.768Z" fill="#D5D4D6" stroke="#574E56" stroke-width="1.5" stroke-miterlimit="10"/>
<path d="M322.093 157.555H143.702C137.547 157.555 132.569 152.577 132.569 146.422V68.707C132.569 62.5518 137.547 57.5742 143.702 57.5742H322.093C328.249 57.5742 333.226 62.5518 333.226 68.707V146.422C333.119 154.45 329.961 157.662 322.093 157.555Z" fill="white" stroke="#574E56" stroke-width="1.5"/>
<path d="M103.712 190.954C105.19 190.954 106.388 189.756 106.388 188.278C106.388 186.8 105.19 185.601 103.712 185.601C102.234 185.601 101.035 186.8 101.035 188.278C101.035 189.756 102.234 190.954 103.712 190.954Z" fill="#574E56"/>
<path d="M114.705 190.954C116.183 190.954 117.381 189.756 117.381 188.278C117.381 186.8 116.183 185.601 114.705 185.601C113.227 185.601 112.029 186.8 112.029 188.278C112.029 189.756 113.227 190.954 114.705 190.954Z" fill="#574E56"/>
<path d="M125.673 190.954C127.151 190.954 128.349 189.756 128.349 188.278C128.349 186.8 127.151 185.601 125.673 185.601C124.195 185.601 122.997 186.8 122.997 188.278C122.997 189.756 124.195 190.954 125.673 190.954Z" fill="#574E56"/>
<path d="M129.94 149.636C129.94 149.636 130.689 161.518 145.89 161.036" stroke="#FFFEFF" stroke-width="1.5" stroke-miterlimit="10" stroke-linecap="round"/>
<path d="M187.216 161.034H231.854" stroke="#FFFEFF" stroke-width="1.5" stroke-miterlimit="10" stroke-linecap="round"/>
<path d="M298.818 53.828C298.818 53.828 330.878 51.7406 333.394 59.0732" stroke="#FFFEFF" stroke-width="1.5" stroke-miterlimit="10" stroke-linecap="round"/>
<path d="M227.201 69.7779H206.06V82.7779H227.201V69.7779Z" fill="#D0D1D1" stroke="#574E56" stroke-width="1.5" stroke-miterlimit="10"/>
<path d="M206.06 69.7779L216.631 77.0001L227.201 69.7779" stroke="#574E56" stroke-width="1.5" stroke-miterlimit="10"/>
<path d="M227.201 133.683H206.06V146.683H227.201V133.683Z" fill="#36B6BF" stroke="#574E56" stroke-width="1.5" stroke-miterlimit="10"/>
<path d="M206.06 133.683L216.631 140.971L227.201 133.683" stroke="#574E56" stroke-width="1.5" stroke-miterlimit="10"/>
<path d="M227.201 101.463H206.06V114.463H227.201V101.463Z" fill="#F39800" stroke="#574E56" stroke-width="1.5" stroke-miterlimit="10"/>
<path d="M206.06 101.463L216.631 108.751L227.201 101.463" stroke="#574E56" stroke-width="1.5" stroke-miterlimit="10"/>
<path d="M185.249 88.0843C192.432 88.0843 198.255 82.2613 198.255 75.0783C198.255 67.8953 192.432 62.0723 185.249 62.0723C178.066 62.0723 172.243 67.8953 172.243 75.0783C172.243 82.2613 178.066 88.0843 185.249 88.0843Z" fill="#FFFEFF" stroke="#574E56" stroke-width="1.5" stroke-miterlimit="10"/>
<path d="M181.708 80.216L181.387 86.6391C181.387 86.6391 184.599 89.6901 188.774 86.9603L188.399 80.216H181.708Z" fill="#D0D1D1" stroke="#574E56" stroke-width="1.5" stroke-miterlimit="10"/>
<path d="M183.475 76.7897C183.475 76.7897 183.528 79.9478 182.779 80.1083C182.03 80.2689 185.241 84.7116 185.241 84.7116L188.399 79.9478C188.399 79.9478 187.061 78.342 187.008 76.7897H183.475Z" fill="#FFFEFF" stroke="#574E56" stroke-width="1.5" stroke-miterlimit="10"/>
<path d="M185.251 79.5207C187.675 79.5207 189.64 76.621 189.64 73.044C189.64 69.4671 187.675 66.5674 185.251 66.5674C182.827 66.5674 180.862 69.4671 180.862 73.044C180.862 76.621 182.827 79.5207 185.251 79.5207Z" fill="#FFFEFF" stroke="#574E56" stroke-width="1.5" stroke-miterlimit="10"/>
<path d="M185.507 64.5868C185.507 64.5868 179.406 63.891 179.513 73.3645C179.513 73.3645 176.569 77.3787 177.425 80.1619L182.778 80.0549C182.778 80.0549 184.223 77.2182 180.048 73.7927C180.048 73.7927 185.882 70.2602 186.953 67.7446L190.11 73.311L189.682 75.666C189.308 77.6999 188.451 77.5393 188.023 79.8943L188.237 80.1619H193.322C193.322 80.1619 193.322 76.6829 191.502 74.542C191.502 74.542 192.894 65.015 185.507 64.5868Z" fill="#F39800" stroke="#574E56" stroke-width="1.5" stroke-miterlimit="10"/>
<path d="M192.83 80.216H188.387L188.708 87.442L189.511 87.1744C190.26 86.9603 192.99 86.2109 193.472 84.8728C193.9 83.8558 193.418 82.0894 192.83 80.216Z" fill="#36B6BF" stroke="#574E56" stroke-width="1.5" stroke-miterlimit="10"/>
<path d="M177.321 80.3223H181.764L181.389 87.3342L180.64 87.2807C179.891 87.0666 177.214 85.782 176.733 84.4974C176.304 83.4268 176.733 82.1957 177.321 80.3223Z" fill="#36B6BF" stroke="#574E56" stroke-width="1.5" stroke-miterlimit="10"/>
<path d="M185.076 119.768C192.259 119.768 198.082 113.945 198.082 106.762C198.082 99.5791 192.259 93.7561 185.076 93.7561C177.893 93.7561 172.07 99.5791 172.07 106.762C172.07 113.945 177.893 119.768 185.076 119.768Z" fill="#FFFEFF" stroke="#574E56" stroke-width="1.5" stroke-miterlimit="10"/>
<path d="M185.546 110.886C188.236 110.886 190.417 107.986 190.417 104.409C190.417 100.833 188.236 97.9329 185.546 97.9329C182.856 97.9329 180.675 100.833 180.675 104.409C180.675 107.986 182.856 110.886 185.546 110.886Z" stroke="#574E56" stroke-width="1.5" stroke-miterlimit="10"/>
<path d="M183.528 110.509C183.528 110.509 183.581 113.667 182.832 113.828C182.083 114.042 185.294 118.431 185.294 118.431L188.452 113.667C188.452 113.667 187.114 112.061 187.061 110.509H183.528Z" fill="#FFFEFF" stroke="#574E56" stroke-width="1.5" stroke-miterlimit="10"/>
<path d="M180.689 106.122C180.689 106.122 178.976 102.803 180.689 98.8957C180.689 98.8957 185.453 94.8812 189.468 98.3069C189.468 98.3069 191.662 101.465 190.056 106.122C190.056 106.122 189.307 103.874 189.468 102.268C189.682 100.662 188.343 98.2534 187.059 100.234C187.059 100.234 185.346 101.679 183.687 100.234C183.687 100.234 181.492 99.3774 181.76 102.054C182.027 104.73 181.92 107.139 180.689 106.122Z" fill="#574E56"/>
<path d="M175.01 115.059C175.01 115.059 177.901 111.259 180.684 111.259C181.326 111.259 181.861 111.259 183.092 111.312C183.842 111.366 184.805 112.115 185.554 112.115C186.518 112.115 186.571 111.312 187.481 111.098C189.408 110.67 191.87 111.205 191.87 111.205C191.87 111.205 194.974 113.453 195.242 114.845C195.242 114.845 192.191 118.217 189.408 118.698C188.231 118.913 187.107 119.394 185.608 119.448C183.574 119.555 181.219 119.127 179.506 118.27C176.563 116.879 175.974 116.397 175.01 115.059Z" fill="#36B6BF" stroke="#574E56" stroke-width="1.5" stroke-miterlimit="10"/>
<path d="M185.565 151.132C192.748 151.132 198.571 145.309 198.571 138.126C198.571 130.943 192.748 125.12 185.565 125.12C178.382 125.12 172.559 130.943 172.559 138.126C172.559 145.309 178.382 151.132 185.565 151.132Z" fill="#FFFEFF" stroke="#574E56" stroke-width="1.5" stroke-miterlimit="10"/>
<path d="M189.296 134.115C189.296 134.115 191.759 134.382 191.223 135.56C190.688 136.737 189.618 136.844 189.618 136.844C189.618 136.844 189.51 134.115 189.296 134.115Z" fill="#FFFEFF" stroke="#574E56" stroke-width="1.5" stroke-miterlimit="10"/>
<path d="M182.146 134.114C182.146 134.114 180.059 134.382 180.112 135.452C180.112 135.452 179.952 137.165 181.932 137.004C181.932 137.004 181.986 134.06 182.146 134.114Z" fill="#FFFEFF" stroke="#574E56" stroke-width="1.5" stroke-miterlimit="10"/>
<path d="M180.532 141.338L190.701 141.553C190.701 141.553 194.127 142.034 194.448 143.801C194.608 144.603 195.251 146.102 194.608 147.226C194.234 147.868 193.484 148.457 192.414 149.206C190.648 150.491 188.4 150.865 186.205 150.865H185.349C183.154 150.865 181.014 150.223 179.194 148.992L176.892 147.44V144.71C176.892 144.657 177.481 141.767 180.532 141.338Z" fill="#D1E5FC" stroke="#574E56" stroke-width="1.5" stroke-miterlimit="10"/>
<path d="M181.641 141.502L183.086 145.677L185.816 144.339L188.438 145.677L189.67 141.502H181.641Z" fill="#36B6BF" stroke="#574E56" stroke-width="1.5" stroke-miterlimit="10"/>
<path d="M184.274 144.765L185.558 146.318H186.415L187.271 144.765L185.665 143.855L184.274 144.765Z" fill="#574E56"/>
<path d="M185.023 145.675L184.274 150.867H187.271L186.575 145.675H185.023Z" fill="#36B6BF" stroke="#574E56" stroke-width="1.5" stroke-miterlimit="10"/>
<path d="M179.564 146.906V149.208" stroke="#574E56" stroke-width="1.5" stroke-miterlimit="10"/>
<path d="M183.587 139.628V141.501L185.835 144.338L188.136 141.555L188.083 139.628C188.083 139.628 184.443 138.289 183.587 139.628Z" fill="#FFFEFF" stroke="#574E56" stroke-width="1.5" stroke-miterlimit="10"/>
<path d="M185.817 140.431C187.946 140.431 189.671 138.442 189.671 135.989C189.671 133.535 187.946 131.546 185.817 131.546C183.689 131.546 181.964 133.535 181.964 135.989C181.964 138.442 183.689 140.431 185.817 140.431Z" fill="#FFFEFF" stroke="#574E56" stroke-width="1.5" stroke-miterlimit="10"/>
<path d="M180.419 134.597C180.419 134.597 179.937 128.602 185.129 127.531C185.129 127.531 191.231 128.067 190.642 134.329C190.642 134.329 188.287 134.864 186.735 132.081C186.735 132.081 185.825 134.49 183.363 134.115C183.416 134.115 180.74 134.008 180.419 134.597Z" fill="#574E56"/>
<path d="M191.873 146.8V149.53" stroke="#574E56" stroke-width="1.5" stroke-miterlimit="10"/>
<path d="M296.678 87.4507H259.631L247.912 78.4929L259.631 69.5361H296.678V87.4507Z" fill="#D0D1D1"/>
<path d="M296.678 69.5339V87.4474H294.18V72.161H257.132L248.375 78.8529L247.91 78.4961L259.629 69.5339H296.678Z" fill="#C1C2C2"/>
<path d="M290.408 76.0032H261.968C261.825 76.0032 261.687 75.9462 261.586 75.8449C261.485 75.7435 261.428 75.606 261.428 75.4627C261.428 75.3193 261.485 75.1818 261.586 75.0804C261.687 74.9791 261.825 74.9221 261.968 74.9221H290.408C290.552 74.9221 290.689 74.9791 290.791 75.0804C290.892 75.1818 290.949 75.3193 290.949 75.4627C290.949 75.606 290.892 75.7435 290.791 75.8449C290.689 75.9462 290.552 76.0032 290.408 76.0032Z" fill="#574E56"/>
<path d="M290.408 82.0647H280.699C280.555 82.0647 280.418 82.0078 280.317 81.9064C280.215 81.805 280.158 81.6675 280.158 81.5242C280.158 81.3808 280.215 81.2433 280.317 81.142C280.418 81.0406 280.555 80.9836 280.699 80.9836H290.408C290.551 80.9836 290.689 81.0406 290.79 81.142C290.892 81.2433 290.948 81.3808 290.948 81.5242C290.948 81.6675 290.892 81.805 290.79 81.9064C290.689 82.0078 290.551 82.0647 290.408 82.0647Z" fill="#574E56"/>
<path d="M275.836 82.0647H261.968C261.825 82.0647 261.687 82.0078 261.586 81.9064C261.485 81.805 261.428 81.6675 261.428 81.5242C261.428 81.3808 261.485 81.2433 261.586 81.142C261.687 81.0406 261.825 80.9836 261.968 80.9836H275.836C275.98 80.9836 276.117 81.0406 276.219 81.142C276.32 81.2433 276.377 81.3808 276.377 81.5242C276.377 81.6675 276.32 81.805 276.219 81.9064C276.117 82.0078 275.98 82.0647 275.836 82.0647Z" fill="#574E56"/>
<path d="M296.677 87.9914H259.631C259.514 87.9914 259.4 87.9534 259.307 87.8832L247.588 78.9254C247.522 78.875 247.468 78.8099 247.431 78.7354C247.394 78.6609 247.375 78.5788 247.375 78.4957C247.375 78.4125 247.394 78.3305 247.431 78.2559C247.468 78.1814 247.522 78.1164 247.588 78.0659L259.307 69.1081C259.4 69.0379 259.514 69 259.631 69H296.677C296.821 69 296.958 69.0569 297.06 69.1583C297.161 69.2597 297.218 69.3972 297.218 69.5405V87.4508C297.218 87.5942 297.161 87.7317 297.06 87.833C296.958 87.9344 296.821 87.9914 296.677 87.9914ZM259.813 86.9103H296.137V70.0768H259.813L248.802 78.493L259.813 86.9103Z" fill="#574E56"/>
<path d="M296.678 117.444H259.631L247.912 108.486L259.631 99.5278H296.678V117.444Z" fill="#F39800"/>
<path d="M296.678 99.5256V117.439H294.18V102.153H257.132L248.375 108.845L247.91 108.488L259.629 99.5256H296.678Z" fill="#EE8F03"/>
<path d="M290.407 105.995H271.548C271.405 105.995 271.268 105.938 271.166 105.837C271.065 105.735 271.008 105.598 271.008 105.454C271.008 105.311 271.065 105.174 271.166 105.072C271.268 104.971 271.405 104.914 271.548 104.914H290.407C290.55 104.914 290.688 104.971 290.789 105.072C290.89 105.174 290.947 105.311 290.947 105.454C290.947 105.598 290.89 105.735 290.789 105.837C290.688 105.938 290.55 105.995 290.407 105.995Z" fill="#574E56"/>
<path d="M266.505 105.995H261.964C261.821 105.995 261.684 105.938 261.582 105.837C261.481 105.735 261.424 105.598 261.424 105.454C261.424 105.311 261.481 105.174 261.582 105.072C261.684 104.971 261.821 104.914 261.964 104.914H266.505C266.648 104.914 266.786 104.971 266.887 105.072C266.988 105.174 267.045 105.311 267.045 105.454C267.045 105.598 266.988 105.735 266.887 105.837C266.786 105.938 266.648 105.995 266.505 105.995Z" fill="#574E56"/>
<path d="M290.408 112.056H261.968C261.825 112.056 261.687 111.999 261.586 111.898C261.485 111.797 261.428 111.659 261.428 111.516C261.428 111.373 261.485 111.235 261.586 111.134C261.687 111.032 261.825 110.975 261.968 110.975H290.408C290.552 110.975 290.689 111.032 290.791 111.134C290.892 111.235 290.949 111.373 290.949 111.516C290.949 111.659 290.892 111.797 290.791 111.898C290.689 111.999 290.552 112.056 290.408 112.056Z" fill="#574E56"/>
<path d="M296.677 117.983H259.631C259.514 117.983 259.4 117.945 259.307 117.875L247.588 108.917C247.522 108.866 247.468 108.801 247.431 108.727C247.394 108.652 247.375 108.57 247.375 108.487C247.375 108.404 247.394 108.322 247.431 108.247C247.468 108.173 247.522 108.108 247.588 108.057L259.307 99.0996C259.4 99.0294 259.514 98.9915 259.631 98.9915H296.677C296.821 98.9915 296.958 99.0484 297.06 99.1498C297.161 99.2511 297.218 99.3886 297.218 99.532V117.442C297.218 117.586 297.161 117.723 297.06 117.824C296.958 117.926 296.821 117.983 296.677 117.983ZM259.813 116.902H296.137V100.068H259.813L248.802 108.486L259.813 116.902Z" fill="#574E56"/>
<path d="M296.676 147.438H259.629L247.91 138.48L259.629 129.523H296.676V147.438Z" fill="#36B6BF"/>
<path d="M296.678 129.52V147.434H294.18V132.147H257.132L248.375 138.839L247.91 138.482L259.629 129.52H296.678Z" fill="#2F9FA7"/>
<path d="M290.408 135.991H261.968C261.825 135.991 261.687 135.934 261.586 135.832C261.485 135.731 261.428 135.593 261.428 135.45C261.428 135.307 261.485 135.169 261.586 135.068C261.687 134.966 261.825 134.909 261.968 134.909H290.408C290.552 134.909 290.689 134.966 290.791 135.068C290.892 135.169 290.949 135.307 290.949 135.45C290.949 135.593 290.892 135.731 290.791 135.832C290.689 135.934 290.552 135.991 290.408 135.991Z" fill="#574E56"/>
<path d="M290.406 142.052H281.849C281.706 142.052 281.568 141.995 281.467 141.894C281.366 141.792 281.309 141.655 281.309 141.511C281.309 141.368 281.366 141.231 281.467 141.129C281.568 141.028 281.706 140.971 281.849 140.971H290.406C290.549 140.971 290.687 141.028 290.788 141.129C290.889 141.231 290.946 141.368 290.946 141.511C290.946 141.655 290.889 141.792 290.788 141.894C290.687 141.995 290.549 142.052 290.406 142.052Z" fill="#574E56"/>
<path d="M277.003 142.052H261.968C261.825 142.052 261.687 141.995 261.586 141.894C261.485 141.792 261.428 141.655 261.428 141.511C261.428 141.368 261.485 141.231 261.586 141.129C261.687 141.028 261.825 140.971 261.968 140.971H277.003C277.146 140.971 277.284 141.028 277.385 141.129C277.486 141.231 277.543 141.368 277.543 141.511C277.543 141.655 277.486 141.792 277.385 141.894C277.284 141.995 277.146 142.052 277.003 142.052Z" fill="#574E56"/>
<path d="M296.677 147.974H259.631C259.514 147.974 259.4 147.936 259.307 147.866L247.588 138.908C247.522 138.858 247.468 138.793 247.431 138.718C247.394 138.644 247.375 138.562 247.375 138.479C247.375 138.395 247.394 138.313 247.431 138.239C247.468 138.164 247.522 138.099 247.588 138.049L259.307 129.091C259.4 129.021 259.514 128.983 259.631 128.983H296.677C296.821 128.983 296.958 129.04 297.06 129.141C297.161 129.243 297.218 129.38 297.218 129.523V147.434C297.218 147.577 297.161 147.715 297.06 147.816C296.958 147.917 296.821 147.974 296.677 147.974ZM259.813 146.893H296.137V130.064H259.813L248.802 138.481L259.813 146.893Z" fill="#574E56"/>
</svg>
