<svg width="559" height="337" viewBox="0 0 559 337" fill="none" xmlns="http://www.w3.org/2000/svg">
<path d="M327.235 173.466H240.394C234.339 173.466 229.43 168.557 229.43 162.501V37.9415C229.43 31.8859 234.339 26.9768 240.394 26.9768H327.235C333.291 26.9768 338.2 31.8859 338.2 37.9415V162.501C338.2 168.557 333.291 173.466 327.235 173.466Z" fill="#E2F0FC"/>
<path d="M327.239 174.133H240.398C233.985 174.133 228.767 168.915 228.767 162.502V37.9423C228.767 31.5292 233.985 26.3108 240.398 26.3108H327.239C333.652 26.3108 338.87 31.5292 338.87 37.9423V162.502C338.87 168.915 333.652 174.133 327.239 174.133ZM240.398 27.6434C234.72 27.6434 230.1 32.2632 230.1 37.9423V162.502C230.1 168.181 234.72 172.801 240.398 172.801H327.239C332.917 172.801 337.537 168.181 337.537 162.502V37.9423C337.537 32.2632 332.917 27.6434 327.239 27.6434H240.398Z" fill="#2B2A29"/>
<path d="M311.722 50.2172H251.955C248.718 50.2172 246.094 47.5928 246.094 44.3554V44.237C246.094 40.9996 248.718 38.3752 251.955 38.3752H311.722C314.959 38.3752 317.584 40.9996 317.584 44.237V44.3554C317.584 47.5928 314.959 50.2172 311.722 50.2172Z" fill="#43B3BD"/>
<path d="M311.72 50.6284H251.954C248.499 50.6284 245.687 47.8161 245.687 44.361V44.2426C245.687 40.7875 248.499 37.9766 251.954 37.9766H311.72C315.175 37.9766 317.987 40.7875 317.987 44.2426V44.361C317.987 47.8161 315.175 50.6284 311.72 50.6284ZM251.954 38.786C248.944 38.786 246.497 41.2339 246.497 44.2426V44.361C246.497 47.3711 248.944 49.8189 251.954 49.8189H311.72C314.729 49.8189 317.177 47.3711 317.177 44.361V44.2426C317.177 41.2339 314.729 38.786 311.72 38.786H251.954Z" fill="#2B2A29"/>
<path d="M246.147 67.4609H265.333C266.41 67.4609 267.282 68.3334 267.282 69.4096V84.0996C267.282 85.1758 266.41 86.0482 265.333 86.0482H246.147C245.07 86.0482 244.198 85.1758 244.198 84.0996V69.4096C244.198 68.3334 245.07 67.4609 246.147 67.4609Z" fill="#FD9347"/>
<path d="M265.342 86.3849H246.155C244.897 86.3849 243.873 85.3621 243.873 84.1036V69.4139C243.873 68.1555 244.897 67.1313 246.155 67.1313H265.342C266.601 67.1313 267.624 68.1555 267.624 69.4139V84.1036C267.624 85.3621 266.601 86.3849 265.342 86.3849ZM246.155 67.7976C245.265 67.7976 244.54 68.5225 244.54 69.4139V84.1036C244.54 84.9938 245.265 85.7186 246.155 85.7186H265.342C266.233 85.7186 266.958 84.9938 266.958 84.1036V69.4139C266.958 68.5225 266.233 67.7976 265.342 67.7976H246.155Z" fill="#2B2A29"/>
<path d="M246.147 92.9727H265.333C266.41 92.9727 267.282 93.8451 267.282 94.9213V109.611C267.282 110.688 266.41 111.56 265.333 111.56H246.147C245.07 111.56 244.198 110.688 244.198 109.611V94.9213C244.198 93.8451 245.07 92.9727 246.147 92.9727Z" fill="#FD9347"/>
<path d="M265.342 111.896H246.155C244.897 111.896 243.873 110.872 243.873 109.614V94.9239C243.873 93.6654 244.897 92.6426 246.155 92.6426H265.342C266.601 92.6426 267.624 93.6654 267.624 94.9239V109.614C267.624 110.872 266.601 111.896 265.342 111.896ZM246.155 93.3089C245.265 93.3089 244.54 94.0337 244.54 94.9239V109.614C244.54 110.505 245.265 111.23 246.155 111.23H265.342C266.233 111.23 266.958 110.505 266.958 109.614V94.9239C266.958 94.0337 266.233 93.3089 265.342 93.3089H246.155Z" fill="#2B2A29"/>
<path d="M246.147 118.484H265.333C266.41 118.484 267.282 119.356 267.282 120.432V135.122C267.282 136.198 266.41 137.071 265.333 137.071H246.147C245.07 137.071 244.198 136.198 244.198 135.122V120.432C244.198 119.356 245.07 118.484 246.147 118.484Z" fill="#FD9347"/>
<path d="M265.342 137.407H246.155C244.897 137.407 243.873 136.384 243.873 135.125V120.436C243.873 119.177 244.897 118.153 246.155 118.153H265.342C266.601 118.153 267.624 119.177 267.624 120.436V135.125C267.624 136.384 266.601 137.407 265.342 137.407ZM246.155 118.819C245.265 118.819 244.54 119.544 244.54 120.436V135.125C244.54 136.016 245.265 136.74 246.155 136.74H265.342C266.233 136.74 266.958 136.016 266.958 135.125V120.436C266.958 119.544 266.233 118.819 265.342 118.819H246.155Z" fill="#2B2A29"/>
<path d="M246.147 143.118H265.333C266.41 143.118 267.282 143.991 267.282 145.067V159.757C267.282 160.833 266.41 161.706 265.333 161.706H246.147C245.07 161.706 244.198 160.833 244.198 159.757V145.067C244.198 143.991 245.07 143.118 246.147 143.118Z" fill="#FD9347"/>
<path d="M265.342 162.042H246.155C244.897 162.042 243.873 161.017 243.873 159.759V145.069C243.873 143.811 244.897 142.788 246.155 142.788H265.342C266.601 142.788 267.624 143.811 267.624 145.069V159.759C267.624 161.017 266.601 162.042 265.342 162.042ZM246.155 143.454C245.265 143.454 244.54 144.179 244.54 145.069V159.759C244.54 160.651 245.265 161.375 246.155 161.375H265.342C266.233 161.375 266.958 160.651 266.958 159.759V145.069C266.958 144.179 266.233 143.454 265.342 143.454H246.155Z" fill="#2B2A29"/>
<path d="M249.199 75.2313C249.199 75.2313 251.485 70.5056 254.687 70.5056C254.687 70.5056 255.601 73.7069 257.431 70.5056C257.431 70.5056 261.699 71.1154 262.309 75.2313H260.327L260.378 83.0058H251.028L251.333 75.3838L249.199 75.2313Z" fill="white"/>
<path d="M260.713 83.3429H250.681L250.987 75.6974L248.684 75.5322L248.898 75.0897C248.995 74.8893 251.315 70.1771 254.686 70.1771H254.937L255.006 70.4178C255.118 70.8043 255.484 71.5995 255.905 71.5995C256.099 71.5995 256.517 71.4368 257.14 70.3449L257.253 70.1484L257.477 70.181C257.522 70.1875 261.999 70.8746 262.637 75.186L262.694 75.5686H260.661L260.713 83.3429ZM251.374 82.6766H260.042L259.991 74.9023H261.909C261.25 71.904 258.405 71.062 257.597 70.8824C257.029 71.8129 256.474 72.2657 255.905 72.2657C255.086 72.2657 254.628 71.3275 254.45 70.8525C252.162 71.0373 250.359 73.8365 249.734 74.94L251.678 75.078L251.374 82.6766Z" fill="#2B2A29"/>
<path d="M252.094 147.732H257.941L259.696 157.381H255.895L254.857 152.41L253.409 157.381H250.019L252.094 147.732Z" fill="#3C717B"/>
<path d="M260.095 157.717H255.625L254.804 153.787L253.66 157.717H249.607L251.825 147.402H258.22L260.095 157.717ZM256.166 157.051H259.297L257.664 148.068H252.364L250.432 157.051H253.16L254.911 151.039L256.166 157.051Z" fill="#2B2A29"/>
<path d="M251.813 130.373H258.94C258.94 130.373 258.502 122.588 255.377 122.588C252.252 122.588 251.813 130.373 251.813 130.373Z" fill="#43B3BD"/>
<path d="M259.29 130.708H251.457L251.478 130.357C251.496 130.025 251.973 122.257 255.373 122.257C258.774 122.257 259.251 130.025 259.269 130.357L259.29 130.708ZM252.167 130.042H258.58C258.398 127.767 257.556 122.924 255.373 122.924C253.189 122.924 252.348 127.767 252.167 130.042Z" fill="#2B2A29"/>
<path d="M255.385 124.034C256.184 124.034 256.831 123.387 256.831 122.588C256.831 121.79 256.184 121.142 255.385 121.142C254.587 121.142 253.939 121.79 253.939 122.588C253.939 123.387 254.587 124.034 255.385 124.034Z" fill="white"/>
<path d="M255.383 124.37C254.402 124.37 253.604 123.572 253.604 122.591C253.604 121.61 254.402 120.812 255.383 120.812C256.364 120.812 257.162 121.61 257.162 122.591C257.162 123.572 256.364 124.37 255.383 124.37ZM255.383 121.478C254.769 121.478 254.27 121.978 254.27 122.591C254.27 123.204 254.769 123.704 255.383 123.704C255.997 123.704 256.496 123.204 256.496 122.591C256.496 121.978 255.997 121.478 255.383 121.478Z" fill="#2B2A29"/>
<path d="M251.064 105.918L254.714 105.49C255.397 105.41 256.088 105.418 256.769 105.512L258.65 105.774C259.199 105.85 259.69 105.423 259.69 104.868V100.216H256.805C256.805 100.216 252.819 104.017 251.064 104.164C249.31 104.31 250.187 105.918 251.064 105.918Z" fill="#52728D"/>
<path d="M251.089 106.257H251.069C250.406 106.257 249.752 105.622 249.724 104.949C249.715 104.715 249.781 103.942 251.042 103.838C252.384 103.725 255.494 101.015 256.58 99.9806L256.676 99.8882H260.028V104.874C260.028 105.619 259.376 106.218 258.609 106.11L256.728 105.848C256.08 105.759 255.412 105.751 254.757 105.826L251.089 106.257ZM256.942 100.554C256.223 101.232 252.816 104.357 251.097 104.501C250.827 104.524 250.377 104.608 250.39 104.922C250.403 105.229 250.752 105.578 251.053 105.591L254.68 105.165C255.391 105.082 256.117 105.091 256.821 105.187L258.701 105.449C258.705 105.449 258.709 105.45 258.713 105.45C259.106 105.45 259.361 105.191 259.361 104.874V100.554H256.942Z" fill="#2B2A29"/>
<path d="M305.225 73.1219H274.469C273.637 73.1219 272.962 72.4469 272.962 71.6143V71.5838C272.962 70.7512 273.637 70.0762 274.469 70.0762H305.225C306.058 70.0762 306.733 70.7512 306.733 71.5838V71.6143C306.733 72.4469 306.058 73.1219 305.225 73.1219Z" fill="#B8D2F9"/>
<path d="M305.227 73.4601H274.471C273.456 73.4601 272.63 72.6337 272.63 71.6187C272.63 70.5737 273.456 69.7473 274.471 69.7473H305.227C306.242 69.7473 307.068 70.5737 307.068 71.5887C307.068 72.6337 306.242 73.4601 305.227 73.4601ZM274.471 70.4136C273.823 70.4136 273.296 70.9407 273.296 71.5887C273.296 72.2667 273.823 72.7938 274.471 72.7938H305.227C305.874 72.7938 306.401 72.2667 306.401 71.6187C306.401 70.9407 305.874 70.4136 305.227 70.4136H274.471Z" fill="#2B2A29"/>
<path d="M305.225 78.275H274.469C273.637 78.275 272.962 77.6 272.962 76.7673V76.7369C272.962 75.9042 273.637 75.2292 274.469 75.2292H305.225C306.058 75.2292 306.733 75.9042 306.733 76.7369V76.7673C306.733 77.6 306.058 78.275 305.225 78.275Z" fill="#B8D2F9"/>
<path d="M305.227 78.6137H274.471C273.456 78.6137 272.63 77.7873 272.63 76.7722C272.63 75.7272 273.456 74.9009 274.471 74.9009H305.227C306.242 74.9009 307.068 75.7272 307.068 76.7423C307.068 77.7873 306.242 78.6137 305.227 78.6137ZM274.471 75.5672C273.823 75.5672 273.296 76.0942 273.296 76.7423C273.296 77.4203 273.823 77.9474 274.471 77.9474H305.227C305.874 77.9474 306.401 77.4203 306.401 76.7722C306.401 76.0942 305.874 75.5672 305.227 75.5672H274.471Z" fill="#2B2A29"/>
<path d="M305.225 83.4283H274.469C273.637 83.4283 272.962 82.7533 272.962 81.9207V81.8902C272.962 81.0576 273.637 80.3826 274.469 80.3826H305.225C306.058 80.3826 306.733 81.0576 306.733 81.8902V81.9207C306.733 82.7533 306.058 83.4283 305.225 83.4283Z" fill="#B8D2F9"/>
<path d="M305.227 83.767H274.471C273.456 83.767 272.63 82.9406 272.63 81.9256C272.63 80.8806 273.456 80.0542 274.471 80.0542H305.227C306.242 80.0542 307.068 80.8806 307.068 81.8956C307.068 82.9406 306.242 83.767 305.227 83.767ZM274.471 80.7205C273.823 80.7205 273.296 81.2475 273.296 81.8956C273.296 82.5736 273.823 83.1007 274.471 83.1007H305.227C305.874 83.1007 306.401 82.5736 306.401 81.9256C306.401 81.2475 305.874 80.7205 305.227 80.7205H274.471Z" fill="#2B2A29"/>
<path d="M305.225 98.6334H274.469C273.637 98.6334 272.962 97.9584 272.962 97.1257V97.0953C272.962 96.2626 273.637 95.5876 274.469 95.5876H305.225C306.058 95.5876 306.733 96.2626 306.733 97.0953V97.1257C306.733 97.9584 306.058 98.6334 305.225 98.6334Z" fill="#B8D2F9"/>
<path d="M305.227 98.971H274.471C273.456 98.971 272.63 98.1459 272.63 97.1309C272.63 96.0846 273.456 95.2595 274.471 95.2595H305.227C306.242 95.2595 307.068 96.0846 307.068 97.0996C307.068 98.1459 306.242 98.971 305.227 98.971ZM274.471 95.9258C273.823 95.9258 273.296 96.4529 273.296 97.0996C273.296 97.7776 273.823 98.3047 274.471 98.3047H305.227C305.874 98.3047 306.401 97.7776 306.401 97.1309C306.401 96.4529 305.874 95.9258 305.227 95.9258H274.471Z" fill="#2B2A29"/>
<path d="M305.225 103.786H274.469C273.637 103.786 272.962 103.111 272.962 102.279V102.248C272.962 101.415 273.637 100.74 274.469 100.74H305.225C306.058 100.74 306.733 101.415 306.733 102.248V102.279C306.733 103.111 306.058 103.786 305.225 103.786Z" fill="#B8D2F9"/>
<path d="M305.227 104.124H274.471C273.456 104.124 272.63 103.299 272.63 102.284C272.63 101.239 273.456 100.413 274.471 100.413H305.227C306.242 100.413 307.068 101.239 307.068 102.254C307.068 103.299 306.242 104.124 305.227 104.124ZM274.471 101.079C273.823 101.079 273.296 101.606 273.296 102.254C273.296 102.931 273.823 103.458 274.471 103.458H305.227C305.874 103.458 306.401 102.931 306.401 102.284C306.401 101.606 305.874 101.079 305.227 101.079H274.471Z" fill="#2B2A29"/>
<path d="M305.225 108.94H274.469C273.637 108.94 272.962 108.265 272.962 107.432V107.402C272.962 106.569 273.637 105.894 274.469 105.894H305.225C306.058 105.894 306.733 106.569 306.733 107.402V107.432C306.733 108.265 306.058 108.94 305.225 108.94Z" fill="#B8D2F9"/>
<path d="M305.227 109.278H274.471C273.456 109.278 272.63 108.453 272.63 107.438C272.63 106.393 273.456 105.567 274.471 105.567H305.227C306.242 105.567 307.068 106.393 307.068 107.408C307.068 108.453 306.242 109.278 305.227 109.278ZM274.471 106.233C273.823 106.233 273.296 106.76 273.296 107.408C273.296 108.085 273.823 108.612 274.471 108.612H305.227C305.874 108.612 306.401 108.085 306.401 107.438C306.401 106.76 305.874 106.233 305.227 106.233H274.471Z" fill="#2B2A29"/>
<path d="M305.225 124.145H274.469C273.637 124.145 272.962 123.47 272.962 122.637V122.607C272.962 121.774 273.637 121.099 274.469 121.099H305.225C306.058 121.099 306.733 121.774 306.733 122.607V122.637C306.733 123.47 306.058 124.145 305.225 124.145Z" fill="#B8D2F9"/>
<path d="M305.227 124.482H274.471C273.456 124.482 272.63 123.656 272.63 122.641C272.63 121.596 273.456 120.771 274.471 120.771H305.227C306.242 120.771 307.068 121.596 307.068 122.611C307.068 123.656 306.242 124.482 305.227 124.482ZM274.471 121.437C273.823 121.437 273.296 121.964 273.296 122.611C273.296 123.289 273.823 123.816 274.471 123.816H305.227C305.874 123.816 306.401 123.289 306.401 122.641C306.401 121.964 305.874 121.437 305.227 121.437H274.471Z" fill="#2B2A29"/>
<path d="M305.225 129.298H274.469C273.637 129.298 272.962 128.623 272.962 127.79V127.76C272.962 126.927 273.637 126.252 274.469 126.252H305.225C306.058 126.252 306.733 126.927 306.733 127.76V127.79C306.733 128.623 306.058 129.298 305.225 129.298Z" fill="#B8D2F9"/>
<path d="M305.227 129.636H274.471C273.456 129.636 272.63 128.811 272.63 127.796C272.63 126.75 273.456 125.925 274.471 125.925H305.227C306.242 125.925 307.068 126.75 307.068 127.765C307.068 128.811 306.242 129.636 305.227 129.636ZM274.471 126.591C273.823 126.591 273.296 127.118 273.296 127.765C273.296 128.443 273.823 128.97 274.471 128.97H305.227C305.874 128.97 306.401 128.443 306.401 127.796C306.401 127.118 305.874 126.591 305.227 126.591H274.471Z" fill="#2B2A29"/>
<path d="M305.225 134.451H274.469C273.637 134.451 272.962 133.776 272.962 132.944V132.913C272.962 132.081 273.637 131.406 274.469 131.406H305.225C306.058 131.406 306.733 132.081 306.733 132.913V132.944C306.733 133.776 306.058 134.451 305.225 134.451Z" fill="#B8D2F9"/>
<path d="M305.227 134.789H274.471C273.456 134.789 272.63 133.964 272.63 132.949C272.63 131.902 273.456 131.077 274.471 131.077H305.227C306.242 131.077 307.068 131.902 307.068 132.918C307.068 133.964 306.242 134.789 305.227 134.789ZM274.471 131.744C273.823 131.744 273.296 132.271 273.296 132.918C273.296 133.596 273.823 134.123 274.471 134.123H305.227C305.874 134.123 306.401 133.596 306.401 132.949C306.401 132.271 305.874 131.744 305.227 131.744H274.471Z" fill="#2B2A29"/>
<path d="M305.225 148.779H274.469C273.637 148.779 272.962 148.104 272.962 147.271V147.241C272.962 146.408 273.637 145.733 274.469 145.733H305.225C306.058 145.733 306.733 146.408 306.733 147.241V147.271C306.733 148.104 306.058 148.779 305.225 148.779Z" fill="#B8D2F9"/>
<path d="M305.227 149.117H274.471C273.456 149.117 272.63 148.291 272.63 147.276C272.63 146.231 273.456 145.405 274.471 145.405H305.227C306.242 145.405 307.068 146.231 307.068 147.246C307.068 148.291 306.242 149.117 305.227 149.117ZM274.471 146.071C273.823 146.071 273.296 146.598 273.296 147.246C273.296 147.924 273.823 148.451 274.471 148.451H305.227C305.874 148.451 306.401 147.924 306.401 147.276C306.401 146.598 305.874 146.071 305.227 146.071H274.471Z" fill="#2B2A29"/>
<path d="M305.225 153.932H274.469C273.637 153.932 272.962 153.257 272.962 152.424V152.394C272.962 151.561 273.637 150.886 274.469 150.886H305.225C306.058 150.886 306.733 151.561 306.733 152.394V152.424C306.733 153.257 306.058 153.932 305.225 153.932Z" fill="#B8D2F9"/>
<path d="M305.227 154.27H274.471C273.456 154.27 272.63 153.444 272.63 152.429C272.63 151.384 273.456 150.558 274.471 150.558H305.227C306.242 150.558 307.068 151.384 307.068 152.399C307.068 153.444 306.242 154.27 305.227 154.27ZM274.471 151.224C273.823 151.224 273.296 151.751 273.296 152.399C273.296 153.077 273.823 153.604 274.471 153.604H305.227C305.874 153.604 306.401 153.077 306.401 152.429C306.401 151.751 305.874 151.224 305.227 151.224H274.471Z" fill="#2B2A29"/>
<path d="M305.225 159.085H274.469C273.637 159.085 272.962 158.41 272.962 157.578V157.547C272.962 156.715 273.637 156.04 274.469 156.04H305.225C306.058 156.04 306.733 156.715 306.733 157.547V157.578C306.733 158.41 306.058 159.085 305.225 159.085Z" fill="#B8D2F9"/>
<path d="M305.227 159.424H274.471C273.456 159.424 272.63 158.598 272.63 157.583C272.63 156.538 273.456 155.711 274.471 155.711H305.227C306.242 155.711 307.068 156.538 307.068 157.553C307.068 158.598 306.242 159.424 305.227 159.424ZM274.471 156.378C273.823 156.378 273.296 156.905 273.296 157.553C273.296 158.231 273.823 158.758 274.471 158.758H305.227C305.874 158.758 306.401 158.231 306.401 157.583C306.401 156.905 305.874 156.378 305.227 156.378H274.471Z" fill="#2B2A29"/>
<path d="M329.599 81.908H314.413C313.58 81.908 312.905 81.233 312.905 80.4004V73.657C312.905 72.8244 313.58 72.1494 314.413 72.1494H329.599C330.432 72.1494 331.107 72.8244 331.107 73.657V80.4004C331.107 81.233 330.432 81.908 329.599 81.908Z" fill="#B8D2F9"/>
<path d="M329.6 82.2445H314.414C313.399 82.2445 312.573 81.4181 312.573 80.4031V73.6595C312.573 72.6444 313.399 71.8193 314.414 71.8193H329.6C330.615 71.8193 331.441 72.6444 331.441 73.6595V80.4031C331.441 81.4181 330.615 82.2445 329.6 82.2445ZM314.414 72.4856C313.766 72.4856 313.239 73.0127 313.239 73.6595V80.4031C313.239 81.0512 313.766 81.5782 314.414 81.5782H329.6C330.247 81.5782 330.774 81.0512 330.774 80.4031V73.6595C330.774 73.0127 330.247 72.4856 329.6 72.4856H314.414Z" fill="#2B2A29"/>
<path d="M329.599 107.145H314.413C313.58 107.145 312.905 106.47 312.905 105.637V98.8939C312.905 98.0612 313.58 97.3862 314.413 97.3862H329.599C330.432 97.3862 331.107 98.0612 331.107 98.8939V105.637C331.107 106.47 330.432 107.145 329.599 107.145Z" fill="#B8D2F9"/>
<path d="M329.6 107.482H314.414C313.399 107.482 312.573 106.655 312.573 105.64V98.8968C312.573 97.8817 313.399 97.0566 314.414 97.0566H329.6C330.615 97.0566 331.441 97.8817 331.441 98.8968V105.64C331.441 106.655 330.615 107.482 329.6 107.482ZM314.414 97.7229C313.766 97.7229 313.239 98.25 313.239 98.8968V105.64C313.239 106.288 313.766 106.816 314.414 106.816H329.6C330.247 106.816 330.774 106.288 330.774 105.64V98.8968C330.774 98.25 330.247 97.7229 329.6 97.7229H314.414Z" fill="#2B2A29"/>
<path d="M329.599 132.657H314.413C313.58 132.657 312.905 131.982 312.905 131.149V124.406C312.905 123.573 313.58 122.898 314.413 122.898H329.599C330.432 122.898 331.107 123.573 331.107 124.406V131.149C331.107 131.982 330.432 132.657 329.599 132.657Z" fill="#B8D2F9"/>
<path d="M329.6 132.993H314.414C313.399 132.993 312.573 132.168 312.573 131.153V124.409C312.573 123.394 313.399 122.568 314.414 122.568H329.6C330.615 122.568 331.441 123.394 331.441 124.409V131.153C331.441 132.168 330.615 132.993 329.6 132.993ZM314.414 123.234C313.766 123.234 313.239 123.761 313.239 124.409V131.153C313.239 131.799 313.766 132.327 314.414 132.327H329.6C330.247 132.327 330.774 131.799 330.774 131.153V124.409C330.774 123.761 330.247 123.234 329.6 123.234H314.414Z" fill="#2B2A29"/>
<path d="M329.599 157.291H314.413C313.58 157.291 312.905 156.616 312.905 155.783V149.04C312.905 148.207 313.58 147.532 314.413 147.532H329.599C330.432 147.532 331.107 148.207 331.107 149.04V155.783C331.107 156.616 330.432 157.291 329.599 157.291Z" fill="#B8D2F9"/>
<path d="M329.6 157.627H314.414C313.399 157.627 312.573 156.801 312.573 155.786V149.042C312.573 148.027 313.399 147.202 314.414 147.202H329.6C330.615 147.202 331.441 148.027 331.441 149.042V155.786C331.441 156.801 330.615 157.627 329.6 157.627ZM314.414 147.868C313.766 147.868 313.239 148.395 313.239 149.042V155.786C313.239 156.434 313.766 156.961 314.414 156.961H329.6C330.247 156.961 330.774 156.434 330.774 155.786V149.042C330.774 148.395 330.247 147.868 329.6 147.868H314.414Z" fill="#2B2A29"/>
<path d="M88.5211 183.607C97.4479 183.607 104.685 176.371 104.685 167.444C104.685 158.517 97.4479 151.28 88.5211 151.28C79.5942 151.28 72.3575 158.517 72.3575 167.444C72.3575 176.371 79.5942 183.607 88.5211 183.607Z" fill="#FF9100"/>
<path d="M88.5263 184.275C79.2464 184.275 71.6965 176.724 71.6965 167.444C71.6965 158.164 79.2464 150.614 88.5263 150.614C97.8063 150.614 105.356 158.164 105.356 167.444C105.356 176.724 97.8063 184.275 88.5263 184.275ZM88.5263 151.947C79.981 151.947 73.0291 158.898 73.0291 167.444C73.0291 175.99 79.981 182.942 88.5263 182.942C97.0717 182.942 104.024 175.99 104.024 167.444C104.024 158.898 97.0717 151.947 88.5263 151.947Z" fill="#2B2A29"/>
<path d="M91.0166 169.776C93.8191 169.776 95.7505 169.195 96.8244 168.027C97.8981 166.859 98.4317 165.433 98.4317 163.752C98.4317 162.773 98.229 161.868 97.8306 161.051C97.4322 160.234 96.8987 159.592 96.2436 159.139C95.5886 158.687 94.7714 158.376 93.7988 158.214C93.1033 158.086 92.1039 158.025 90.7869 158.025H84.8664C84.0112 158.025 83.3179 158.719 83.3179 159.574V167.489H80.343C79.3888 167.489 78.6136 167.99 78.6136 168.608C78.6136 169.226 79.3888 169.727 80.343 169.727H83.3179V171.832H81.1313C79.9483 171.832 78.9872 172.398 78.9872 173.095C78.9872 173.792 79.9483 174.359 81.1313 174.359H83.3179V177.429C83.3179 177.429 83.3179 178.374 84.559 178.374C85.6139 178.374 85.938 177.429 85.938 177.429V174.359H91.5808C92.7638 174.359 93.7248 173.792 93.7248 173.095C93.7248 172.398 92.7638 171.832 91.5808 171.832H85.938V169.776H91.0166ZM85.938 160.362H91.0031C92.1917 160.362 93.0088 160.423 93.4476 160.537C94.1297 160.726 94.6836 161.118 95.1024 161.706C95.521 162.293 95.7304 163.002 95.7304 163.833C95.7304 164.974 95.3724 165.866 94.6633 166.494C93.9542 167.122 92.7521 167.439 91.0571 167.439H85.938V160.362Z" fill="white"/>
<path d="M84.5601 178.736C83.2945 178.736 82.9607 177.884 82.9607 177.434V174.722H81.1323C79.7295 174.722 78.6305 174.01 78.6305 173.1C78.6305 172.191 79.7295 171.479 81.1323 171.479H82.9607V170.09H80.3437C79.1731 170.09 78.2563 169.442 78.2563 168.613C78.2563 167.784 79.1731 167.136 80.3437 167.136H82.9607V159.579C82.9607 158.528 83.8157 157.673 84.8672 157.673H90.7877C92.1437 157.673 93.1503 157.736 93.8641 157.867C94.8772 158.036 95.7485 158.368 96.448 158.849C97.1553 159.338 97.7292 160.028 98.1534 160.899C98.5764 161.767 98.7904 162.728 98.7904 163.758C98.7904 165.526 98.2185 167.046 97.0889 168.275C95.934 169.531 93.9481 170.14 91.0174 170.14H86.2968V171.479H91.5816C92.9844 171.479 94.0834 172.191 94.0834 173.1C94.0834 174.01 92.9844 174.722 91.5816 174.722H86.2968L86.2779 177.55C86.261 177.599 85.8556 178.736 84.5601 178.736ZM81.1323 172.194C80.0802 172.194 79.3462 172.672 79.3462 173.1C79.3462 173.528 80.0802 174.006 81.1323 174.006H83.6765V177.434C83.6797 177.527 83.7383 178.021 84.5601 178.021C85.229 178.021 85.5094 177.521 85.581 177.363V174.006H91.5816C92.6337 174.006 93.3677 173.528 93.3677 173.1C93.3677 172.672 92.6337 172.194 91.5816 172.194H85.581V169.424H91.0174C93.6989 169.424 95.5644 168.873 96.5619 167.791C97.5795 166.682 98.0747 165.364 98.0747 163.758C98.0747 162.839 97.884 161.983 97.5092 161.214C97.1397 160.454 96.6451 159.858 96.0407 159.439C95.429 159.017 94.6547 158.725 93.7405 158.572C93.0645 158.448 92.1002 158.388 90.7877 158.388H84.8672C84.2107 158.388 83.6765 158.923 83.6765 159.579V167.852H80.3437C79.5356 167.852 78.9721 168.253 78.9721 168.613C78.9721 168.974 79.5356 169.374 80.3437 169.374H83.6765V172.194H81.1323ZM91.0578 167.802H85.581V160.009H91.0038C92.2101 160.009 93.0632 160.071 93.5388 160.196C94.3053 160.409 94.928 160.848 95.3945 161.503C95.8559 162.151 96.0895 162.937 96.0895 163.838C96.0895 165.083 95.6899 166.069 94.902 166.768C94.1257 167.455 92.8322 167.802 91.0578 167.802ZM86.2968 167.087H91.0578C92.6519 167.087 93.7861 166.799 94.427 166.232C95.0549 165.675 95.3737 164.869 95.3737 163.838C95.3737 163.088 95.1844 162.442 94.8115 161.919C94.4426 161.401 93.9513 161.054 93.3521 160.887C93.071 160.814 92.43 160.724 91.0038 160.724H86.2968V167.087Z" fill="#2B2A29"/>
<path d="M348.144 58.9447C363.041 58.9447 375.117 46.8684 375.117 31.9715C375.117 17.0746 363.041 4.99829 348.144 4.99829C333.247 4.99829 321.171 17.0746 321.171 31.9715C321.171 46.8684 333.247 58.9447 348.144 58.9447Z" fill="#FF9100"/>
<path d="M348.138 59.823C332.781 59.823 320.287 47.33 320.287 31.9727C320.287 16.6153 332.781 4.12231 348.138 4.12231C363.494 4.12231 375.988 16.6153 375.988 31.9727C375.988 47.33 363.494 59.823 348.138 59.823ZM348.138 5.87654C333.749 5.87654 322.042 17.5836 322.042 31.9727C322.042 46.3618 333.749 58.0688 348.138 58.0688C362.527 58.0688 374.234 46.3618 374.234 31.9727C374.234 17.5836 362.527 5.87654 348.138 5.87654Z" fill="#2B2A29"/>
<path d="M334.182 37.234C334.075 37.234 333.967 37.2249 333.858 37.2041C332.907 37.0258 332.279 36.1123 332.455 35.161C332.532 34.7471 334.424 24.9531 341.894 20.4244C346.007 17.9323 350.938 17.538 356.55 19.2571C357.477 19.5408 357.997 20.522 357.714 21.4486C357.43 22.3751 356.446 22.8931 355.522 22.612C350.916 21.1974 346.948 21.472 343.729 23.4149C337.607 27.1147 335.921 35.7167 335.904 35.8038C335.746 36.6458 335.009 37.234 334.182 37.234Z" fill="#2B2A29"/>
<path d="M351.427 28.0242C351.021 28.0242 350.613 27.8836 350.281 27.5986C349.548 26.9649 349.467 25.8574 350.1 25.1235L353.682 20.9734L349.481 16.4226C348.824 15.7107 348.868 14.602 349.58 13.9435C350.293 13.2863 351.403 13.3319 352.059 14.0437L358.385 20.8953L352.756 27.4164C352.409 27.8186 351.919 28.0242 351.427 28.0242Z" fill="#2B2A29"/>
<path d="M345.873 47.1219C344.603 47.1219 343.278 47.0086 341.897 46.7809C340.942 46.6234 340.294 45.7216 340.452 44.7651C340.608 43.8099 341.502 43.1605 342.467 43.3193C347.221 44.1027 351.117 43.3011 354.047 40.943C359.618 36.4585 360.137 27.7069 360.141 27.6197C360.192 26.6528 361.035 25.9175 361.982 25.9579C362.949 26.006 363.693 26.8272 363.646 27.7941C363.625 28.2157 363.061 38.1737 356.266 43.6615C353.415 45.9636 349.931 47.1219 345.873 47.1219Z" fill="#2B2A29"/>
<path d="M348.151 51.7511C347.758 51.7511 347.361 51.6196 347.034 51.3489L339.848 45.4043L344.552 38.1883C345.081 37.3763 346.169 37.1472 346.979 37.6769C347.792 38.2052 348.021 39.2919 347.492 40.1039L344.498 44.6964L349.271 48.6447C350.018 49.2629 350.122 50.369 349.505 51.1147C349.157 51.535 348.656 51.7511 348.151 51.7511Z" fill="#2B2A29"/>
<path d="M189.473 123.218C199.04 123.218 206.795 115.463 206.795 105.896C206.795 96.3298 199.04 88.5747 189.473 88.5747C179.907 88.5747 172.152 96.3298 172.152 105.896C172.152 115.463 179.907 123.218 189.473 123.218Z" fill="#FF9100"/>
<path d="M189.478 123.784C179.616 123.784 171.593 115.761 171.593 105.899C171.593 96.0375 179.616 88.0146 189.478 88.0146C199.34 88.0146 207.363 96.0375 207.363 105.899C207.363 115.761 199.34 123.784 189.478 123.784ZM189.478 89.1416C180.237 89.1416 172.72 96.6596 172.72 105.899C172.72 115.139 180.237 122.657 189.478 122.657C198.718 122.657 206.236 115.139 206.236 105.899C206.236 96.6596 198.718 89.1416 189.478 89.1416Z" fill="#2B2A29"/>
<path d="M180.532 109.279C180.464 109.279 180.395 109.272 180.326 109.259C179.714 109.146 179.31 108.558 179.424 107.946C179.473 107.681 180.688 101.393 185.485 98.4841C188.126 96.8808 191.292 96.6297 194.897 97.7332C195.492 97.9154 195.827 98.5453 195.644 99.1413C195.462 99.7347 194.83 100.069 194.237 99.8883C191.272 98.9773 188.721 99.1556 186.653 100.41C182.71 102.801 181.649 108.302 181.639 108.358C181.538 108.9 181.065 109.279 180.532 109.279Z" fill="#2B2A29"/>
<path d="M191.616 103.366C191.356 103.366 191.094 103.276 190.881 103.091C190.41 102.685 190.357 101.974 190.764 101.502L193.064 98.8373L190.367 95.9144C189.944 95.4576 189.973 94.7445 190.43 94.3228C190.887 93.8999 191.6 93.9285 192.022 94.3866L196.085 98.7852L192.47 102.976C192.248 103.233 191.933 103.366 191.616 103.366Z" fill="#2B2A29"/>
<path d="M187.996 115.627C187.18 115.627 186.329 115.554 185.443 115.408C184.829 115.308 184.413 114.728 184.514 114.114C184.615 113.501 185.192 113.083 185.809 113.186C188.862 113.687 191.363 113.174 193.244 111.661C196.822 108.779 197.155 103.16 197.158 103.103C197.19 102.483 197.739 101.991 198.34 102.036C198.961 102.067 199.439 102.594 199.408 103.215C199.395 103.485 199.034 109.882 194.669 113.406C192.839 114.884 190.601 115.627 187.996 115.627Z" fill="#2B2A29"/>
<path d="M189.461 118.599C189.208 118.599 188.953 118.515 188.744 118.34L184.129 114.525L187.149 109.889C187.488 109.37 188.187 109.222 188.708 109.561C189.229 109.901 189.377 110.599 189.037 111.121L187.115 114.069L190.179 116.604C190.659 117.001 190.727 117.711 190.33 118.191C190.107 118.46 189.785 118.599 189.461 118.599Z" fill="#2B2A29"/>
<path d="M194.553 70.118C204.119 70.118 211.874 62.3629 211.874 52.7965C211.874 43.2302 204.119 35.4751 194.553 35.4751C184.987 35.4751 177.232 43.2302 177.232 52.7965C177.232 62.3629 184.987 70.118 194.553 70.118Z" fill="#FF9100"/>
<path d="M194.554 70.6873C184.692 70.6873 176.669 62.6645 176.669 52.8028C176.669 42.9411 184.692 34.9182 194.554 34.9182C204.415 34.9182 212.438 42.9411 212.438 52.8028C212.438 62.6645 204.415 70.6873 194.554 70.6873ZM194.554 36.0452C185.313 36.0452 177.796 43.5631 177.796 52.8028C177.796 62.0424 185.313 69.5603 194.554 69.5603C203.794 69.5603 211.311 62.0424 211.311 52.8028C211.311 43.5631 203.794 36.0452 194.554 36.0452Z" fill="#2B2A29"/>
<path d="M185.593 56.1823C185.524 56.1823 185.454 56.1758 185.385 56.1628C184.774 56.0483 184.37 55.4626 184.484 54.851C184.534 54.5855 185.748 48.2961 190.545 45.3875C193.187 43.7843 196.354 43.5357 199.957 44.6367C200.553 44.8188 200.887 45.4487 200.704 46.0447C200.522 46.6381 199.892 46.9739 199.297 46.7917C196.339 45.8834 193.791 46.059 191.724 47.3083C187.792 49.6833 186.709 55.2076 186.699 55.2635C186.597 55.8049 186.124 56.1823 185.593 56.1823Z" fill="#2B2A29"/>
<path d="M196.677 50.2696C196.417 50.2696 196.154 50.1798 195.942 49.995C195.47 49.589 195.418 48.8771 195.824 48.406L198.125 45.7408L195.427 42.818C195.005 42.3612 195.033 41.6481 195.49 41.2264C195.947 40.8035 196.66 40.8334 197.082 41.2902L201.145 45.6888L197.531 49.8792C197.308 50.1368 196.993 50.2696 196.677 50.2696Z" fill="#2B2A29"/>
<path d="M193.098 62.5304C192.282 62.5304 191.43 62.4575 190.544 62.3118C189.93 62.2116 189.514 61.6312 189.616 61.0169C189.717 60.404 190.296 59.9888 190.91 60.089C193.962 60.5888 196.465 60.0786 198.346 58.5639C201.924 55.6826 202.257 50.0634 202.26 50.0061C202.293 49.3854 202.826 48.913 203.442 48.939C204.063 48.9702 204.541 49.4973 204.51 50.118C204.497 50.3887 204.136 56.7849 199.771 60.309C197.941 61.7873 195.703 62.5304 193.098 62.5304Z" fill="#2B2A29"/>
<path d="M194.565 65.5044C194.312 65.5044 194.057 65.4198 193.847 65.2454L189.233 61.4285L192.254 56.7931C192.592 56.2725 193.292 56.1255 193.812 56.4651C194.334 56.8048 194.481 57.5023 194.141 58.0242L192.218 60.973L195.284 63.5094C195.763 63.9063 195.831 64.6155 195.434 65.0957C195.211 65.3651 194.889 65.5044 194.565 65.5044Z" fill="#2B2A29"/>
<path d="M196.26 169.881C205.826 169.881 213.581 162.126 213.581 152.56C213.581 142.993 205.826 135.238 196.26 135.238C186.693 135.238 178.938 142.993 178.938 152.56C178.938 162.126 186.693 169.881 196.26 169.881Z" fill="#FF9100"/>
<path d="M196.248 170.445C186.387 170.445 178.364 162.423 178.364 152.561C178.364 142.699 186.387 134.675 196.248 134.675C206.11 134.675 214.133 142.699 214.133 152.561C214.133 162.423 206.11 170.445 196.248 170.445ZM196.248 135.802C187.008 135.802 179.491 143.32 179.491 152.561C179.491 161.801 187.008 169.318 196.248 169.318C205.489 169.318 213.006 161.801 213.006 152.561C213.006 143.32 205.489 135.802 196.248 135.802Z" fill="#2B2A29"/>
<path d="M187.286 155.94C187.217 155.94 187.147 155.933 187.078 155.92C186.467 155.805 186.063 155.22 186.177 154.608C186.227 154.343 187.441 148.053 192.238 145.146C194.88 143.543 198.047 143.294 201.65 144.395C202.245 144.577 202.579 145.207 202.397 145.803C202.214 146.397 201.583 146.73 200.99 146.55C198.031 145.643 195.483 145.819 193.417 147.066C189.485 149.442 188.402 154.966 188.392 155.021C188.29 155.562 187.817 155.94 187.286 155.94Z" fill="#2B2A29"/>
<path d="M198.367 150.026C198.106 150.026 197.845 149.936 197.632 149.751C197.161 149.345 197.108 148.633 197.515 148.162L199.816 145.497L197.118 142.574C196.696 142.118 196.724 141.404 197.182 140.983C197.638 140.56 198.352 140.588 198.773 141.047L202.835 145.448L199.221 149.635C198.998 149.893 198.683 150.026 198.367 150.026Z" fill="#2B2A29"/>
<path d="M194.765 162.289C193.949 162.289 193.099 162.216 192.213 162.07C191.599 161.97 191.183 161.389 191.284 160.776C191.384 160.161 191.966 159.743 192.578 159.847C195.64 160.348 198.142 159.834 200.024 158.313C203.611 155.416 203.925 149.823 203.928 149.767C203.958 149.145 204.464 148.683 205.109 148.696C205.73 148.727 206.209 149.255 206.178 149.876C206.165 150.147 205.804 156.542 201.44 160.066C199.609 161.545 197.371 162.289 194.765 162.289Z" fill="#2B2A29"/>
<path d="M196.239 165.261C195.986 165.261 195.731 165.176 195.522 165.002L190.907 161.186L193.928 156.551C194.266 156.032 194.966 155.882 195.487 156.223C196.008 156.563 196.155 157.26 195.815 157.782L193.892 160.731L196.957 163.266C197.437 163.663 197.504 164.372 197.107 164.852C196.885 165.122 196.563 165.261 196.239 165.261Z" fill="#2B2A29"/>
<path d="M237.03 73.7938C236.943 73.7938 236.855 73.7769 236.77 73.7405L214.84 64.4319C214.501 64.2887 214.343 63.897 214.487 63.5587C214.631 63.2203 215.024 63.0616 215.361 63.206L237.291 72.5146C237.63 72.6578 237.788 73.0495 237.644 73.3878C237.536 73.6416 237.289 73.7938 237.03 73.7938Z" fill="#2B2A29"/>
<path d="M235.855 103.738C235.847 103.738 235.839 103.738 235.83 103.738L213.608 102.934C213.241 102.92 212.953 102.611 212.967 102.243C212.98 101.875 213.279 101.583 213.657 101.602L235.879 102.406C236.246 102.42 236.534 102.729 236.52 103.097C236.507 103.456 236.212 103.738 235.855 103.738Z" fill="#2B2A29"/>
<path d="M217.738 143.787C217.52 143.787 217.308 143.682 217.18 143.486C216.978 143.178 217.064 142.766 217.371 142.564L240.763 127.223C241.073 127.022 241.485 127.108 241.686 127.415C241.888 127.723 241.802 128.136 241.495 128.337L218.103 143.678C217.989 143.752 217.863 143.787 217.738 143.787Z" fill="#2B2A29"/>
<path d="M162.479 294.72H106.143C99.7739 294.72 94.6108 289.557 94.6108 283.189V205.301C94.6108 198.932 99.7739 193.769 106.143 193.769H153.593L174.011 215.321V283.189C174.011 289.557 168.848 294.72 162.479 294.72Z" fill="#E2F0FC"/>
<path d="M162.468 295.388H106.132C99.406 295.388 93.9338 289.916 93.9338 283.189V205.302C93.9338 198.576 99.406 193.104 106.132 193.104H153.869L174.667 215.057V283.189C174.667 289.916 169.195 295.388 162.468 295.388ZM106.132 194.437C100.141 194.437 95.2664 199.31 95.2664 205.302V283.189C95.2664 289.181 100.141 294.056 106.132 294.056H162.468C168.46 294.056 173.334 289.181 173.334 283.189V215.588L153.297 194.437H106.132Z" fill="#2B2A29"/>
<path d="M153.59 193.768V215.32L174.008 215.321L153.59 193.768Z" fill="#52728D"/>
<path d="M173.994 215.988L153.577 215.987C153.208 215.987 152.91 215.689 152.91 215.32V193.77C152.91 193.497 153.077 193.252 153.33 193.151C153.582 193.054 153.872 193.114 154.06 193.312L174.478 214.864C174.661 215.056 174.711 215.34 174.606 215.585C174.501 215.829 174.26 215.988 173.994 215.988ZM154.243 214.654L172.445 214.655L154.243 195.442V214.654Z" fill="#2B2A29"/>
<path d="M134.306 232.902C134.306 240.732 127.958 247.08 120.128 247.08H89.5018C81.6711 247.08 75.3231 240.732 75.3231 232.902C75.3231 225.071 81.6711 218.723 89.5018 218.723H120.128C127.958 218.723 134.306 225.071 134.306 232.902Z" fill="white"/>
<path d="M120.118 247.748H89.492C81.3064 247.748 74.6474 241.089 74.6474 232.903C74.6474 224.718 81.3064 218.058 89.492 218.058H120.118C128.304 218.058 134.963 224.718 134.963 232.903C134.963 241.089 128.304 247.748 120.118 247.748ZM89.492 219.39C82.0417 219.39 75.98 225.452 75.98 232.903C75.98 240.354 82.0417 246.415 89.492 246.415H120.118C127.568 246.415 133.63 240.354 133.63 232.903C133.63 225.452 127.568 219.39 120.118 219.39H89.492Z" fill="#2B2A29"/>
<path d="M91.7135 239.489C90.9509 239.068 90.3535 238.488 89.9215 237.75C89.4888 237.011 89.2728 236.173 89.2728 235.236C89.2728 234.3 89.4888 233.462 89.9215 232.723C90.3535 231.985 90.9509 231.409 91.7135 230.994C92.4761 230.58 93.3441 230.373 94.3168 230.373C95.1816 230.373 95.9533 230.547 96.6319 230.895C97.3099 231.243 97.8357 231.748 98.2085 232.408L96.8929 233.255C96.5929 232.799 96.2201 232.456 95.7763 232.229C95.3319 231.999 94.8393 231.886 94.2986 231.886C93.6746 231.886 93.1124 232.024 92.6147 232.3C92.1162 232.576 91.7258 232.97 91.4434 233.48C91.161 233.991 91.0198 234.576 91.0198 235.236C91.0198 235.909 91.161 236.501 91.4434 237.011C91.7258 237.521 92.1162 237.915 92.6147 238.191C93.1124 238.467 93.6746 238.605 94.2986 238.605C94.8393 238.605 95.3319 238.492 95.7763 238.263C96.2201 238.035 96.5929 237.693 96.8929 237.236L98.2085 238.065C97.8357 238.726 97.3099 239.234 96.6319 239.588C95.9533 239.942 95.1816 240.119 94.3168 240.119C93.3441 240.119 92.4761 239.909 91.7135 239.489Z" fill="#2B2A29"/>
<path d="M100.937 239.804C100.217 239.593 99.6524 239.326 99.2438 239.002L99.9647 237.633C100.385 237.932 100.895 238.173 101.496 238.353C102.096 238.534 102.703 238.623 103.316 238.623C104.829 238.623 105.585 238.191 105.585 237.326C105.585 237.038 105.483 236.811 105.279 236.641C105.075 236.474 104.82 236.351 104.514 236.272C104.207 236.195 103.772 236.108 103.208 236.012C102.439 235.892 101.811 235.753 101.325 235.596C100.839 235.442 100.421 235.176 100.073 234.804C99.7246 234.432 99.5502 233.91 99.5502 233.237C99.5502 232.372 99.9107 231.678 100.631 231.156C101.352 230.634 102.318 230.373 103.532 230.373C104.168 230.373 104.804 230.451 105.441 230.607C106.078 230.763 106.6 230.973 107.008 231.237L106.27 232.606C105.489 232.102 104.57 231.85 103.514 231.85C102.781 231.85 102.223 231.97 101.838 232.21C101.453 232.451 101.262 232.769 101.262 233.166C101.262 233.478 101.37 233.724 101.586 233.903C101.802 234.084 102.07 234.216 102.388 234.3C102.706 234.384 103.154 234.48 103.73 234.588C104.499 234.721 105.12 234.861 105.594 235.011C106.069 235.162 106.474 235.417 106.811 235.777C107.146 236.138 107.315 236.641 107.315 237.291C107.315 238.155 106.946 238.843 106.207 239.353C105.468 239.864 104.462 240.119 103.189 240.119C102.409 240.119 101.658 240.013 100.937 239.804Z" fill="#2B2A29"/>
<path d="M117.739 230.463L113.559 240.011H111.794L107.614 230.463H109.415L112.694 238.119L116.045 230.463H117.739Z" fill="#2B2A29"/>
<path d="M63.7385 336.097C80.0452 336.097 93.2644 322.878 93.2644 306.571C93.2644 290.264 80.0452 277.045 63.7385 277.045C47.4318 277.045 34.2126 290.264 34.2126 306.571C34.2126 322.878 47.4318 336.097 63.7385 336.097Z" fill="#D1E5FC"/>
<path d="M63.7381 336.764C47.0898 336.764 33.546 323.221 33.546 306.572C33.546 289.924 47.0898 276.38 63.7381 276.38C80.3863 276.38 93.9309 289.924 93.9309 306.572C93.9309 323.221 80.3863 336.764 63.7381 336.764ZM63.7381 277.712C47.8251 277.712 34.8785 290.659 34.8785 306.572C34.8785 322.485 47.8251 335.431 63.7381 335.431C79.6517 335.431 92.5983 322.485 92.5983 306.572C92.5983 290.659 79.6517 277.712 63.7381 277.712Z" fill="#2B2A29"/>
<path d="M76.4659 318.421L58.9878 317.706C57.1866 317.636 55.593 316.507 54.9291 314.83L47.9416 297.177C47.6134 296.348 46.8248 295.812 45.9329 295.812H44.2606V294.722H45.9329C47.2747 294.722 48.4609 295.528 48.9548 296.776L55.9424 314.429C56.4475 315.705 57.66 316.564 59.0313 316.617L76.5105 317.333L76.4659 318.421Z" fill="#52505B"/>
<path d="M78.8963 298.989L78.2607 312.7H55.1058L49.2244 298.989H78.8963Z" fill="#52728D"/>
<path d="M78.9062 313.368H54.6756L48.2228 298.323H79.6037L78.9062 313.368ZM55.554 312.035H77.6335L78.2074 299.655H50.2438L55.554 312.035Z" fill="#2B2A29"/>
<path d="M78.5628 313.006H54.9159L48.7729 298.685H79.2267L78.5628 313.006ZM55.3178 312.396H77.9807L78.588 299.295H49.6979L55.3178 312.396Z" fill="#52505B"/>
<path d="M57.3373 301.351H56.7275V309.977H57.3373V301.351Z" fill="#52505B"/>
<path d="M60.6808 301.351H60.071V309.977H60.6808V301.351Z" fill="#52505B"/>
<path d="M64.0379 301.351H63.4282V309.977H64.0379V301.351Z" fill="#52505B"/>
<path d="M67.4028 301.351H66.7931V309.977H67.4028V301.351Z" fill="#52505B"/>
<path d="M70.7678 301.351H70.158V309.977H70.7678V301.351Z" fill="#52505B"/>
<path d="M74.1249 301.351H73.5151V309.977H74.1249V301.351Z" fill="#52505B"/>
<path d="M53.072 322.277C54.4261 322.277 55.5237 321.179 55.5237 319.825C55.5237 318.471 54.4261 317.374 53.072 317.374C51.718 317.374 50.6203 318.471 50.6203 319.825C50.6203 321.179 51.718 322.277 53.072 322.277Z" fill="#507097"/>
<path d="M53.0656 322.645C51.5134 322.645 50.2507 321.382 50.2507 319.83C50.2507 318.277 51.5134 317.015 53.0656 317.015C54.6177 317.015 55.8805 318.277 55.8805 319.83C55.8805 321.382 54.6177 322.645 53.0656 322.645ZM53.0656 317.741C51.914 317.741 50.9771 318.678 50.9771 319.83C50.9771 320.981 51.914 321.918 53.0656 321.918C54.2172 321.918 55.1541 320.981 55.1541 319.83C55.1541 318.678 54.2172 317.741 53.0656 317.741Z" fill="#52505B"/>
<path d="M75.9551 322.277C77.3091 322.277 78.4068 321.18 78.4068 319.825C78.4068 318.471 77.3091 317.374 75.9551 317.374C74.601 317.374 73.5034 318.471 73.5034 319.825C73.5034 321.18 74.601 322.277 75.9551 322.277Z" fill="#507097"/>
<path d="M75.9563 322.645C74.4041 322.645 73.1414 321.382 73.1414 319.83C73.1414 318.277 74.4041 317.015 75.9563 317.015C77.5085 317.015 78.7712 318.277 78.7712 319.83C78.7712 321.382 77.5085 322.645 75.9563 322.645ZM75.9563 317.741C74.8047 317.741 73.8678 318.678 73.8678 319.83C73.8678 320.981 74.8047 321.918 75.9563 321.918C77.1079 321.918 78.0449 320.981 78.0449 319.83C78.0449 318.678 77.1079 317.741 75.9563 317.741Z" fill="#52505B"/>
<path d="M57.3934 316.946L56.6467 316.152L54.3315 318.331L55.0782 319.124L57.3934 316.946Z" fill="#52505B"/>
<path d="M451.503 203.818C451.243 203.818 450.986 203.703 450.813 203.483C448.328 200.323 445.647 197.218 442.845 194.253C442.513 193.9 442.528 193.346 442.88 193.012C443.233 192.681 443.788 192.697 444.12 193.048C446.958 196.051 449.674 199.198 452.192 202.398C452.491 202.779 452.426 203.331 452.045 203.63C451.884 203.756 451.693 203.818 451.503 203.818ZM432.027 183.671C431.826 183.671 431.625 183.602 431.459 183.463C428.403 180.864 425.169 178.332 421.848 175.935C421.455 175.651 421.366 175.102 421.65 174.709C421.934 174.317 422.481 174.229 422.874 174.511C426.233 176.937 429.503 179.498 432.596 182.125C432.964 182.439 433.009 182.993 432.696 183.362C432.523 183.566 432.275 183.671 432.027 183.671ZM409.133 167.478C408.982 167.478 408.829 167.439 408.689 167.357C405.23 165.325 401.615 163.364 397.944 161.527C397.51 161.31 397.335 160.783 397.551 160.35C397.769 159.916 398.294 159.743 398.728 159.958C402.435 161.812 406.085 163.793 409.578 165.845C409.995 166.09 410.135 166.629 409.889 167.045C409.726 167.324 409.433 167.478 409.133 167.478ZM383.93 155.138C383.821 155.138 383.709 155.117 383.602 155.074C379.845 153.56 375.981 152.139 372.117 150.85C371.658 150.696 371.41 150.2 371.563 149.741C371.716 149.28 372.211 149.028 372.673 149.187C376.569 150.487 380.468 151.921 384.258 153.447C384.707 153.628 384.925 154.138 384.744 154.589C384.606 154.931 384.277 155.138 383.93 155.138ZM357.218 146.481C357.148 146.481 357.077 146.473 357.006 146.455C349.665 144.64 345.076 143.997 345.031 143.99C344.551 143.924 344.216 143.481 344.282 143.001C344.348 142.52 344.801 142.191 345.271 142.252C345.317 142.258 349.987 142.911 357.428 144.753C357.898 144.869 358.185 145.344 358.069 145.815C357.97 146.214 357.611 146.481 357.218 146.481Z" fill="#2B2A29"/>
<path d="M205.065 216.128L180.515 216.01C180.031 216.007 179.64 215.613 179.642 215.129C179.644 214.646 180.037 214.256 180.519 214.256C180.521 214.256 180.522 214.256 180.524 214.256L204.609 214.371L231.635 174.952C231.909 174.552 232.455 174.451 232.854 174.724C233.254 174.999 233.356 175.544 233.082 175.944L205.793 215.747L205.065 216.128Z" fill="#2B2A29"/>
<path d="M392.812 126.483C392.243 126.483 391.682 126.219 391.323 125.723L384.997 116.962C384.759 116.603 380.208 109.576 385.188 104.597C387.412 102.372 390.282 100.572 393.063 99.6571C396.512 98.5223 399.417 98.9023 401.242 100.729C404.175 103.661 406.843 107.47 406.955 107.632C407.536 108.463 407.332 109.607 406.5 110.186C405.671 110.767 404.526 110.564 403.945 109.732C403.92 109.696 401.346 106.023 398.647 103.324C397.861 102.538 396.244 102.474 394.21 103.143C391.99 103.873 389.588 105.387 387.784 107.192C384.899 110.076 387.985 114.828 388.016 114.875L394.299 123.573C394.892 124.396 394.707 125.542 393.885 126.136C393.56 126.371 393.184 126.483 392.812 126.483Z" fill="#2B2A29"/>
<path d="M410.958 144.329H390.777C388.522 144.329 386.695 142.501 386.695 140.247V124.137C386.695 121.882 388.522 120.055 390.777 120.055H410.958C413.213 120.055 415.04 121.882 415.04 124.137V140.247C415.04 142.501 413.213 144.329 410.958 144.329Z" fill="#52728D"/>
<path d="M410.958 144.996H390.776C388.158 144.996 386.028 142.866 386.028 140.247V124.137C386.028 121.518 388.158 119.389 390.776 119.389H410.958C413.576 119.389 415.706 121.518 415.706 124.137V140.247C415.706 142.866 413.576 144.996 410.958 144.996ZM390.776 120.722C388.893 120.722 387.36 122.253 387.36 124.137V140.247C387.36 142.13 388.893 143.663 390.776 143.663H410.958C412.841 143.663 414.373 142.13 414.373 140.247V124.137C414.373 122.253 412.841 120.722 410.958 120.722H390.776Z" fill="#2B2A29"/>
<path d="M404.461 130.586C404.461 128.601 402.851 126.992 400.866 126.992C398.881 126.992 397.272 128.601 397.272 130.586C397.272 132.177 398.313 133.511 399.745 133.984V139.006C399.745 139.626 400.247 140.128 400.866 140.128C401.486 140.128 401.988 139.626 401.988 139.006V133.984C403.42 133.511 404.461 132.177 404.461 130.586Z" fill="#52728D"/>
<path d="M400.863 140.795C399.877 140.795 399.075 139.994 399.075 139.007V134.437C397.578 133.746 396.602 132.254 396.602 130.586C396.602 128.237 398.513 126.325 400.863 126.325C403.212 126.325 405.123 128.237 405.123 130.586C405.123 132.254 404.147 133.746 402.65 134.437V139.007C402.65 139.994 401.849 140.795 400.863 140.795ZM400.863 127.658C399.248 127.658 397.935 128.971 397.935 130.586C397.935 131.842 398.744 132.953 399.95 133.351L400.407 133.502V139.007C400.407 139.258 400.612 139.463 400.863 139.463C401.113 139.463 401.318 139.258 401.318 139.007V133.502L401.775 133.351C402.981 132.953 403.791 131.842 403.791 130.586C403.791 128.971 402.477 127.658 400.863 127.658Z" fill="#2B2A29"/>
<path d="M415.035 109.905C414.766 109.905 414.494 109.816 414.268 109.634C413.742 109.21 413.659 108.439 414.083 107.914L418.876 101.965C419.3 101.441 420.07 101.356 420.596 101.78C421.123 102.205 421.206 102.975 420.781 103.501L415.988 109.449C415.747 109.748 415.392 109.905 415.035 109.905Z" fill="#2B2A29"/>
<path d="M418.603 113.973C418.165 113.973 417.741 113.737 417.521 113.325C417.204 112.727 417.43 111.987 418.027 111.669L425.674 107.601C426.271 107.281 427.011 107.51 427.329 108.106C427.646 108.704 427.42 109.444 426.823 109.762L419.176 113.83C418.993 113.927 418.796 113.973 418.603 113.973Z" fill="#2B2A29"/>
<path d="M419.826 118.156C419.163 118.156 418.619 117.626 418.604 116.96C418.589 116.285 419.124 115.725 419.8 115.709L428.262 115.518C428.929 115.54 429.498 116.037 429.513 116.714C429.528 117.389 428.993 117.949 428.317 117.965L419.855 118.156C419.845 118.156 419.836 118.156 419.826 118.156Z" fill="#2B2A29"/>
<path d="M538.411 196.368H362.483V309.624H538.411V196.368Z" fill="#B8D2F9"/>
<path d="M538.713 309.935H362.171V196.064H538.713V309.935ZM362.785 309.321H538.099V196.678H362.785V309.321Z" fill="#2B2A29"/>
<path d="M535.05 305.6H364.941V207.731C364.941 202.818 368.925 198.834 373.838 198.834H526.153C531.066 198.834 535.05 202.818 535.05 207.731V305.6ZM356.212 199.002V305.6H543.779V199.002C543.779 194.088 539.796 190.105 534.882 190.105H365.109C360.195 190.105 356.212 194.088 356.212 199.002Z" fill="#52728D"/>
<path d="M544.447 306.266H355.547V199.002C355.547 193.729 359.837 189.438 365.111 189.438H534.883C540.157 189.438 544.447 193.729 544.447 199.002V306.266ZM535.718 304.933H543.115V199.002C543.115 194.463 539.422 190.771 534.883 190.771H365.111C360.572 190.771 356.88 194.463 356.88 199.002V304.933H364.277V207.731C364.277 202.458 368.567 198.167 373.84 198.167H526.155C531.428 198.167 535.718 202.458 535.718 207.731V304.933ZM365.609 304.933H534.385V207.731C534.385 203.192 530.693 199.5 526.155 199.5H373.84C369.301 199.5 365.609 203.192 365.609 207.731V304.933Z" fill="#2B2A29"/>
<path d="M558.322 314.999C558.322 319.45 554.715 323.057 550.265 323.057H354.192C349.742 323.057 346.134 319.45 346.134 314.999V313.656C346.134 309.206 349.742 305.599 354.192 305.599H550.265C554.715 305.599 558.322 309.206 558.322 313.656V314.999Z" fill="#52728D"/>
<path d="M550.276 323.724H354.203C349.392 323.724 345.478 319.811 345.478 315.001V313.658C345.478 308.847 349.392 304.934 354.203 304.934H550.276C555.086 304.934 558.999 308.847 558.999 313.658V315.001C558.999 319.811 555.086 323.724 550.276 323.724ZM354.203 306.267C350.127 306.267 346.811 309.583 346.811 313.658V315.001C346.811 319.076 350.127 322.392 354.203 322.392H550.276C554.351 322.392 557.667 319.076 557.667 315.001V313.658C557.667 309.583 554.351 306.267 550.276 306.267H354.203Z" fill="#2B2A29"/>
<path d="M534.274 190.527H529.807C534.685 190.527 538.639 194.481 538.639 199.359V305.176H543.105V199.359C543.105 194.481 539.151 190.527 534.274 190.527Z" fill="#4C6379"/>
<path d="M550.371 306.067H546.112C550.324 306.067 553.739 309.481 553.739 313.694V314.965C553.739 319.177 550.324 322.592 546.112 322.592H550.371C554.583 322.592 557.998 319.177 557.998 314.965V313.694C557.998 309.481 554.583 306.067 550.371 306.067Z" fill="#4C6379"/>
<path d="M466.672 194.3C466.672 195.876 465.394 197.154 463.818 197.154H443.673C442.097 197.154 440.819 195.876 440.819 194.3C440.819 192.724 442.097 191.446 443.673 191.446H463.818C465.394 191.446 466.672 192.724 466.672 194.3Z" fill="#52728D"/>
<path d="M463.823 197.827H443.678C441.735 197.827 440.153 196.245 440.153 194.301C440.153 192.357 441.735 190.776 443.678 190.776H463.823C465.766 190.776 467.348 192.357 467.348 194.301C467.348 196.245 465.766 197.827 463.823 197.827ZM443.678 192.119C442.475 192.119 441.496 193.098 441.496 194.301C441.496 195.505 442.475 196.484 443.678 196.484H463.823C465.026 196.484 466.005 195.505 466.005 194.301C466.005 193.098 465.026 192.119 463.823 192.119H443.678Z" fill="#2B2A29"/>
<path d="M469.923 196.819C471.282 196.819 472.385 195.717 472.385 194.357C472.385 192.997 471.282 191.895 469.923 191.895C468.563 191.895 467.46 192.997 467.46 194.357C467.46 195.717 468.563 196.819 469.923 196.819Z" fill="#52728D"/>
<path d="M469.921 197.49C468.193 197.49 466.788 196.084 466.788 194.356C466.788 192.628 468.193 191.222 469.921 191.222C471.65 191.222 473.055 192.628 473.055 194.356C473.055 196.084 471.65 197.49 469.921 197.49ZM469.921 192.565C468.934 192.565 468.131 193.368 468.131 194.356C468.131 195.344 468.934 196.147 469.921 196.147C470.908 196.147 471.712 195.344 471.712 194.356C471.712 193.368 470.908 192.565 469.921 192.565Z" fill="#2B2A29"/>
<path d="M475.058 313.992C475.058 315.105 474.156 316.007 473.043 316.007H434.769C433.656 316.007 432.755 315.105 432.755 313.992C432.755 312.88 433.656 311.978 434.769 311.978H473.043C474.156 311.978 475.058 312.88 475.058 313.992Z" fill="#E2F0FC"/>
<path d="M473.049 316.678H434.774C433.293 316.678 432.088 315.473 432.088 313.992C432.088 312.511 433.293 311.306 434.774 311.306H473.049C474.53 311.306 475.735 312.511 475.735 313.992C475.735 315.473 474.53 316.678 473.049 316.678ZM434.774 312.649C434.034 312.649 433.431 313.252 433.431 313.992C433.431 314.733 434.034 315.335 434.774 315.335H473.049C473.789 315.335 474.392 314.733 474.392 313.992C474.392 313.252 473.789 312.649 473.049 312.649H434.774Z" fill="#2B2A29"/>
<path d="M364.72 316.568C365.957 316.568 366.959 315.565 366.959 314.329C366.959 313.093 365.957 312.091 364.72 312.091C363.484 312.091 362.482 313.093 362.482 314.329C362.482 315.565 363.484 316.568 364.72 316.568Z" fill="#E2F0FC"/>
<path d="M364.713 317.24C363.108 317.24 361.803 315.935 361.803 314.33C361.803 312.726 363.108 311.42 364.713 311.42C366.317 311.42 367.623 312.726 367.623 314.33C367.623 315.935 366.317 317.24 364.713 317.24ZM364.713 312.763C363.849 312.763 363.146 313.466 363.146 314.33C363.146 315.194 363.849 315.897 364.713 315.897C365.577 315.897 366.28 315.194 366.28 314.33C366.28 313.466 365.577 312.763 364.713 312.763Z" fill="#2B2A29"/>
<path d="M487.33 292.876H448.308C443.897 292.876 440.321 289.3 440.321 284.889V230.94C440.321 226.528 443.897 222.952 448.308 222.952H481.175L495.317 237.88V284.889C495.317 289.3 491.741 292.876 487.33 292.876Z" fill="#E2F0FC"/>
<path d="M487.332 293.543H448.31C443.538 293.543 439.656 289.661 439.656 284.889V230.94C439.656 226.168 443.538 222.286 448.31 222.286H481.463L495.986 237.616V284.889C495.986 289.661 492.104 293.543 487.332 293.543ZM448.31 223.618C444.274 223.618 440.989 226.903 440.989 230.94V284.889C440.989 288.926 444.274 292.21 448.31 292.21H487.332C491.368 292.21 494.653 288.926 494.653 284.889V238.147L480.891 223.618H448.31Z" fill="#2B2A29"/>
<path d="M481.186 222.951V237.878L495.329 237.879L481.186 222.951Z" fill="#52728D"/>
<path d="M495.328 238.547L481.186 238.545C480.818 238.545 480.52 238.247 480.52 237.879V222.951C480.52 222.678 480.686 222.433 480.939 222.332C481.192 222.235 481.482 222.295 481.669 222.493L495.812 237.422C495.995 237.615 496.046 237.899 495.941 238.143C495.835 238.388 495.595 238.547 495.328 238.547ZM481.852 237.213L493.779 237.214L481.852 224.623V237.213Z" fill="#2B2A29"/>
<path d="M467.825 250.056C467.825 255.48 463.428 259.877 458.004 259.877H436.792C431.368 259.877 426.971 255.48 426.971 250.056C426.971 244.632 431.368 240.235 436.792 240.235H458.004C463.428 240.235 467.825 244.632 467.825 250.056Z" fill="white"/>
<path d="M458.007 260.543H436.793C431.011 260.543 426.306 255.839 426.306 250.057C426.306 244.274 431.011 239.569 436.793 239.569H458.007C463.789 239.569 468.494 244.274 468.494 250.057C468.494 255.839 463.789 260.543 458.007 260.543ZM436.793 240.902C431.745 240.902 427.639 245.009 427.639 250.057C427.639 255.105 431.745 259.211 436.793 259.211H458.007C463.055 259.211 467.161 255.105 467.161 250.057C467.161 245.009 463.055 240.902 458.007 240.902H436.793Z" fill="#2B2A29"/>
<path d="M438.328 254.617C437.799 254.326 437.385 253.925 437.086 253.414C436.787 252.902 436.636 252.322 436.636 251.672C436.636 251.023 436.787 250.444 437.086 249.931C437.385 249.42 437.799 249.02 438.328 248.734C438.856 248.446 439.456 248.303 440.131 248.303C440.73 248.303 441.264 248.424 441.734 248.665C442.204 248.907 442.568 249.256 442.826 249.714L441.915 250.3C441.707 249.983 441.449 249.746 441.141 249.589C440.833 249.43 440.492 249.352 440.118 249.352C439.686 249.352 439.296 249.447 438.952 249.638C438.606 249.83 438.336 250.103 438.14 250.456C437.945 250.81 437.847 251.216 437.847 251.672C437.847 252.138 437.945 252.548 438.14 252.902C438.336 253.255 438.606 253.528 438.952 253.719C439.296 253.911 439.686 254.006 440.118 254.006C440.492 254.006 440.833 253.926 441.141 253.769C441.449 253.611 441.707 253.373 441.915 253.057L442.826 253.631C442.568 254.089 442.204 254.44 441.734 254.686C441.264 254.931 440.73 255.055 440.131 255.055C439.456 255.055 438.856 254.909 438.328 254.617Z" fill="#2B2A29"/>
<path d="M444.705 254.836C444.206 254.69 443.815 254.505 443.532 254.28L444.031 253.332C444.322 253.54 444.675 253.706 445.091 253.831C445.508 253.956 445.927 254.019 446.352 254.019C447.4 254.019 447.924 253.719 447.924 253.12C447.924 252.92 447.853 252.763 447.712 252.646C447.57 252.529 447.394 252.444 447.182 252.389C446.97 252.336 446.668 252.276 446.277 252.209C445.745 252.127 445.31 252.03 444.973 251.922C444.636 251.814 444.347 251.631 444.105 251.373C443.864 251.115 443.744 250.754 443.744 250.288C443.744 249.688 443.994 249.208 444.493 248.846C444.992 248.484 445.661 248.303 446.501 248.303C446.942 248.303 447.383 248.358 447.824 248.466C448.265 248.574 448.627 248.72 448.91 248.902L448.398 249.851C447.857 249.502 447.221 249.326 446.489 249.326C445.981 249.326 445.595 249.409 445.329 249.576C445.062 249.743 444.929 249.962 444.929 250.237C444.929 250.454 445.004 250.625 445.154 250.748C445.303 250.873 445.489 250.966 445.709 251.023C445.929 251.082 446.24 251.148 446.639 251.223C447.171 251.315 447.602 251.412 447.93 251.516C448.259 251.62 448.54 251.797 448.773 252.047C449.005 252.296 449.122 252.646 449.122 253.095C449.122 253.693 448.866 254.17 448.354 254.524C447.843 254.878 447.146 255.055 446.264 255.055C445.724 255.055 445.204 254.98 444.705 254.836Z" fill="#2B2A29"/>
<path d="M456.349 248.365L453.454 254.979H452.231L449.336 248.365H450.584L452.855 253.668L455.176 248.365H456.349Z" fill="#2B2A29"/>
<path d="M406.515 257.035C418.761 257.035 428.689 247.108 428.689 234.861C428.689 222.615 418.761 212.688 406.515 212.688C394.269 212.688 384.342 222.615 384.342 234.861C384.342 247.108 394.269 257.035 406.515 257.035Z" fill="#FF9100"/>
<path d="M406.512 257.825C393.85 257.825 383.549 247.524 383.549 234.861C383.549 222.2 393.85 211.899 406.512 211.899C419.174 211.899 429.475 222.2 429.475 234.861C429.475 247.524 419.174 257.825 406.512 257.825ZM406.512 213.479C394.721 213.479 385.128 223.071 385.128 234.861C385.128 246.653 394.721 256.245 406.512 256.245C418.303 256.245 427.896 246.653 427.896 234.861C427.896 223.071 418.303 213.479 406.512 213.479Z" fill="#2B2A29"/>
<path d="M397.942 231.751C398.499 232.299 398.778 233.103 398.778 234.161V238.446H397.428V234.316C397.428 233.595 397.255 233.05 396.909 232.686C396.562 232.321 396.066 232.139 395.42 232.139C394.689 232.139 394.113 232.35 393.692 232.778C393.271 233.203 393.06 233.814 393.06 234.61V238.446H391.711V231H393.003V232.123C393.275 231.741 393.643 231.445 394.106 231.239C394.57 231.033 395.097 230.929 395.687 230.929C396.633 230.929 397.384 231.204 397.942 231.751Z" fill="white"/>
<path d="M408.035 235.173H401.993C402.078 235.828 402.366 236.355 402.858 236.753C403.349 237.151 403.96 237.351 404.691 237.351C405.581 237.351 406.297 237.051 406.84 236.451L407.585 237.323C407.248 237.715 406.828 238.015 406.328 238.221C405.827 238.426 405.267 238.53 404.649 238.53C403.862 238.53 403.164 238.37 402.556 238.046C401.946 237.723 401.476 237.27 401.144 236.69C400.811 236.11 400.645 235.453 400.645 234.722C400.645 234.003 400.807 233.35 401.13 232.77C401.452 232.19 401.897 231.737 402.465 231.414C403.031 231.093 403.67 230.93 404.381 230.93C405.094 230.93 405.728 231.093 406.285 231.414C406.843 231.737 407.278 232.19 407.592 232.77C407.905 233.35 408.063 234.017 408.063 234.765C408.063 234.869 408.053 235.005 408.035 235.173ZM402.76 232.659C402.323 233.051 402.069 233.566 401.993 234.203H406.77C406.695 233.576 406.44 233.064 406.004 232.664C405.569 232.267 405.028 232.069 404.381 232.069C403.736 232.069 403.195 232.265 402.76 232.659Z" fill="white"/>
<path d="M421.054 231.001L418.273 238.447H416.98L414.83 232.798L412.653 238.447H411.36L408.593 231.001H409.872L412.034 236.93L414.283 231.001H415.42L417.626 236.957L419.846 231.001H421.054Z" fill="white"/>
<path d="M509.649 230.541C508.761 230.541 507.911 230.174 507.301 229.525L496.201 217.709C494.983 216.412 495.047 214.373 496.344 213.154C497.641 211.935 499.68 211.999 500.899 213.296L509.489 222.442L521.304 208.085C522.434 206.71 524.466 206.512 525.84 207.644C527.214 208.775 527.411 210.806 526.28 212.18L512.137 229.366C511.549 230.081 510.681 230.509 509.755 230.539C509.72 230.54 509.684 230.541 509.649 230.541Z" fill="#E3002C"/>
<path d="M509.648 231.207C508.579 231.207 507.547 230.761 506.814 229.982L495.715 218.167C495.004 217.409 494.63 216.42 494.663 215.382C494.695 214.343 495.13 213.38 495.887 212.67C497.39 211.255 499.972 211.338 501.384 212.841L509.455 221.433L520.788 207.662C522.101 206.067 524.666 205.814 526.263 207.131C527.918 208.494 528.156 210.948 526.794 212.603L512.651 229.789C511.941 230.652 510.894 231.168 509.777 231.206L509.648 231.207ZM498.549 212.947C497.896 212.947 497.275 213.193 496.799 213.64C496.302 214.108 496.015 214.741 495.995 215.423C495.973 216.105 496.219 216.756 496.686 217.253L507.785 229.068C508.266 229.581 508.946 229.875 509.648 229.875V230.541L509.729 229.874C510.466 229.849 511.155 229.509 511.622 228.943L525.764 211.757C526.66 210.668 526.504 209.054 525.415 208.159C524.364 207.294 522.68 207.46 521.817 208.508L509.522 223.45L500.412 213.754C499.923 213.233 499.262 212.947 498.549 212.947Z" fill="#2B2A29"/>
<path d="M550.445 215.918C550.076 215.918 549.778 215.62 549.778 215.252V191.173C549.778 185.882 545.473 181.577 540.181 181.577H502.287C501.919 181.577 501.621 181.279 501.621 180.91C501.621 180.542 501.919 180.244 502.287 180.244H540.181C546.208 180.244 551.111 185.146 551.111 191.173V215.252C551.111 215.62 550.813 215.918 550.445 215.918Z" fill="#2B2A29"/>
<path d="M550.448 248.518C550.08 248.518 549.782 248.22 549.782 247.852V231.001C549.782 230.632 550.08 230.334 550.448 230.334C550.817 230.334 551.115 230.632 551.115 231.001V247.852C551.115 248.22 550.817 248.518 550.448 248.518Z" fill="#2B2A29"/>
<path d="M550.443 267.083C550.007 267.083 549.654 266.729 549.654 266.293V257.913C549.654 257.477 550.007 257.123 550.443 257.123C550.879 257.123 551.233 257.477 551.233 257.913V266.293C551.233 266.729 550.879 267.083 550.443 267.083Z" fill="#2B2A29"/>
<path d="M432.756 330.39H373.202C372.834 330.39 372.536 330.092 372.536 329.724C372.536 329.355 372.834 329.057 373.202 329.057H432.756C433.124 329.057 433.422 329.355 433.422 329.724C433.422 330.092 433.124 330.39 432.756 330.39Z" fill="#2B2A29"/>
<path d="M454.327 330.39H440.824C440.455 330.39 440.157 330.092 440.157 329.724C440.157 329.356 440.455 329.058 440.824 329.058H454.327C454.695 329.058 454.993 329.356 454.993 329.724C454.993 330.092 454.695 330.39 454.327 330.39Z" fill="#2B2A29"/>
<path d="M479.828 272.685H462.625C461.805 272.685 461.14 272.02 461.14 271.2V271.018C461.14 270.198 461.805 269.533 462.625 269.533H479.828C480.648 269.533 481.313 270.198 481.313 271.018V271.2C481.313 272.02 480.648 272.685 479.828 272.685Z" fill="#B8D2F9"/>
<path d="M479.837 272.818H462.634C461.747 272.818 461.026 272.096 461.026 271.21V271.027C461.026 270.141 461.747 269.419 462.634 269.419H479.837C480.724 269.419 481.445 270.141 481.445 271.027V271.21C481.445 272.096 480.724 272.818 479.837 272.818ZM462.634 269.666C461.883 269.666 461.272 270.277 461.272 271.027V271.21C461.272 271.96 461.883 272.571 462.634 272.571H479.837C480.588 272.571 481.199 271.96 481.199 271.21V271.027C481.199 270.277 480.588 269.666 479.837 269.666H462.634Z" fill="#2B2A29"/>
<path d="M479.828 285.578H462.625C461.805 285.578 461.14 284.913 461.14 284.093V283.911C461.14 283.091 461.805 282.426 462.625 282.426H479.828C480.648 282.426 481.313 283.091 481.313 283.911V284.093C481.313 284.913 480.648 285.578 479.828 285.578Z" fill="#B8D2F9"/>
<path d="M479.837 285.711H462.634C461.747 285.711 461.026 284.989 461.026 284.102V283.92C461.026 283.034 461.747 282.312 462.634 282.312H479.837C480.724 282.312 481.445 283.034 481.445 283.92V284.102C481.445 284.989 480.724 285.711 479.837 285.711ZM462.634 282.559C461.883 282.559 461.272 283.169 461.272 283.92V284.102C461.272 284.853 461.883 285.464 462.634 285.464H479.837C480.588 285.464 481.199 284.853 481.199 284.102V283.92C481.199 283.169 480.588 282.559 479.837 282.559H462.634Z" fill="#2B2A29"/>
<path d="M479.828 279.236H462.625C461.805 279.236 461.14 278.571 461.14 277.751V277.569C461.14 276.749 461.805 276.084 462.625 276.084H479.828C480.648 276.084 481.313 276.749 481.313 277.569V277.751C481.313 278.571 480.648 279.236 479.828 279.236Z" fill="#B8D2F9"/>
<path d="M479.837 279.369H462.634C461.747 279.369 461.026 278.647 461.026 277.761V277.578C461.026 276.692 461.747 275.97 462.634 275.97H479.837C480.724 275.97 481.445 276.692 481.445 277.578V277.761C481.445 278.647 480.724 279.369 479.837 279.369ZM462.634 276.217C461.883 276.217 461.272 276.828 461.272 277.578V277.761C461.272 278.512 461.883 279.122 462.634 279.122H479.837C480.588 279.122 481.199 278.512 481.199 277.761V277.578C481.199 276.828 480.588 276.217 479.837 276.217H462.634Z" fill="#2B2A29"/>
<path d="M156.722 259.778H122.124C120.475 259.778 119.139 258.442 119.139 256.793V256.425C119.139 254.776 120.475 253.44 122.124 253.44H156.722C158.371 253.44 159.708 254.776 159.708 256.425V256.793C159.708 258.442 158.371 259.778 156.722 259.778Z" fill="#B8D2F9"/>
<path d="M156.745 260.036H122.147C120.365 260.036 118.914 258.587 118.914 256.804V256.437C118.914 254.654 120.365 253.203 122.147 253.203H156.745C158.528 253.203 159.978 254.654 159.978 256.437V256.804C159.978 258.587 158.528 260.036 156.745 260.036ZM122.147 253.697C120.637 253.697 119.409 254.926 119.409 256.437V256.804C119.409 258.313 120.637 259.542 122.147 259.542H156.745C158.255 259.542 159.483 258.313 159.483 256.804V256.437C159.483 254.926 158.255 253.697 156.745 253.697H122.147Z" fill="#2B2A29"/>
<path d="M156.722 285.706H122.124C120.475 285.706 119.139 284.369 119.139 282.72V282.353C119.139 280.704 120.475 279.367 122.124 279.367H156.722C158.371 279.367 159.708 280.704 159.708 282.353V282.72C159.708 284.369 158.371 285.706 156.722 285.706Z" fill="#B8D2F9"/>
<path d="M156.745 285.964H122.147C120.365 285.964 118.914 284.513 118.914 282.73V282.363C118.914 280.581 120.365 279.131 122.147 279.131H156.745C158.528 279.131 159.978 280.581 159.978 282.363V282.73C159.978 284.513 158.528 285.964 156.745 285.964ZM122.147 279.625C120.637 279.625 119.409 280.854 119.409 282.363V282.73C119.409 284.241 120.637 285.47 122.147 285.47H156.745C158.255 285.47 159.483 284.241 159.483 282.73V282.363C159.483 280.854 158.255 279.625 156.745 279.625H122.147Z" fill="#2B2A29"/>
<path d="M156.722 272.953H122.124C120.475 272.953 119.139 271.616 119.139 269.968V269.6C119.139 267.951 120.475 266.615 122.124 266.615H156.722C158.371 266.615 159.708 267.951 159.708 269.6V269.968C159.708 271.616 158.371 272.953 156.722 272.953Z" fill="#B8D2F9"/>
<path d="M156.745 273.211H122.147C120.365 273.211 118.914 271.76 118.914 269.977V269.611C118.914 267.828 120.365 266.378 122.147 266.378H156.745C158.528 266.378 159.978 267.828 159.978 269.611V269.977C159.978 271.76 158.528 273.211 156.745 273.211ZM122.147 266.872C120.637 266.872 119.409 268.101 119.409 269.611V269.977C119.409 271.488 120.637 272.717 122.147 272.717H156.745C158.255 272.717 159.483 271.488 159.483 269.977V269.611C159.483 268.101 158.255 266.872 156.745 266.872H122.147Z" fill="#2B2A29"/>
<path d="M194.228 329.411C206.357 329.411 216.191 319.578 216.191 307.448C216.191 295.318 206.357 285.485 194.228 285.485C182.098 285.485 172.265 295.318 172.265 307.448C172.265 319.578 182.098 329.411 194.228 329.411Z" fill="#62D2D0"/>
<path d="M194.229 330.077C181.751 330.077 171.6 319.926 171.6 307.448C171.6 294.971 181.751 284.819 194.229 284.819C206.707 284.819 216.858 294.971 216.858 307.448C216.858 319.926 206.707 330.077 194.229 330.077ZM194.229 286.151C182.486 286.151 172.932 295.705 172.932 307.448C172.932 319.192 182.486 328.745 194.229 328.745C205.972 328.745 215.526 319.192 215.526 307.448C215.526 295.705 205.972 286.151 194.229 286.151Z" fill="#2B2A29"/>
<path d="M194.22 323.031C193.125 323.031 192.238 322.143 192.238 321.048V303.531C192.238 302.436 193.125 301.548 194.22 301.548C195.315 301.548 196.203 302.436 196.203 303.531V321.048C196.203 322.143 195.315 323.031 194.22 323.031Z" fill="white"/>
<path d="M194.227 323.697C192.766 323.697 191.578 322.509 191.578 321.049V303.532C191.578 302.071 192.766 300.883 194.227 300.883C195.688 300.883 196.876 302.071 196.876 303.532V321.049C196.876 322.509 195.688 323.697 194.227 323.697ZM194.227 302.216C193.501 302.216 192.911 302.807 192.911 303.532V321.049C192.911 321.774 193.501 322.365 194.227 322.365C194.952 322.365 195.543 321.774 195.543 321.049V303.532C195.543 302.807 194.952 302.216 194.227 302.216Z" fill="#2B2A29"/>
<path d="M194.22 299.171C193.125 299.171 192.238 298.284 192.238 297.189V295.325C192.238 294.23 193.125 293.342 194.22 293.342C195.315 293.342 196.203 294.23 196.203 295.325V297.189C196.203 298.284 195.315 299.171 194.22 299.171Z" fill="white"/>
<path d="M194.227 299.839C192.766 299.839 191.578 298.651 191.578 297.191V295.326C191.578 293.866 192.766 292.677 194.227 292.677C195.688 292.677 196.876 293.866 196.876 295.326V297.191C196.876 298.651 195.688 299.839 194.227 299.839ZM194.227 294.01C193.501 294.01 192.911 294.601 192.911 295.326V297.191C192.911 297.915 193.501 298.506 194.227 298.506C194.952 298.506 195.543 297.915 195.543 297.191V295.326C195.543 294.601 194.952 294.01 194.227 294.01Z" fill="#2B2A29"/>
<path d="M193.331 334.267C193.093 334.267 192.856 334.263 192.618 334.258C192.344 334.25 192.128 334.024 192.135 333.75C192.141 333.476 192.355 333.261 192.642 333.266C197.996 333.428 203.209 331.979 207.731 329.156C207.963 329.012 208.27 329.085 208.414 329.314C208.559 329.547 208.488 329.853 208.255 329.997C203.77 332.796 198.624 334.267 193.331 334.267Z" fill="#2B2A29"/>
<path d="M213.48 325.542C213.358 325.542 213.236 325.498 213.141 325.408C212.941 325.221 212.93 324.907 213.118 324.708C213.906 323.866 214.65 322.962 215.33 322.021C219.126 316.763 220.918 310.315 220.374 303.862C220.351 303.588 220.553 303.349 220.826 303.326C221.096 303.322 221.339 303.505 221.361 303.778C221.925 310.467 220.068 317.152 216.134 322.601C215.429 323.576 214.658 324.513 213.841 325.385C213.744 325.489 213.612 325.542 213.48 325.542Z" fill="#2B2A29"/>
<path d="M378.317 42.5882C378.238 42.5882 378.157 42.5739 378.078 42.5439C377.735 42.4125 377.563 42.026 377.695 41.6824C379.846 36.0801 380.305 30.034 379.022 24.1961C378.943 23.8369 379.171 23.4816 379.53 23.4023C379.885 23.3229 380.244 23.5506 380.324 23.9098C381.663 30.0027 381.184 36.3143 378.939 42.1613C378.838 42.4255 378.584 42.5882 378.317 42.5882Z" fill="#2B2A29"/>
<path d="M374.893 13.7515C374.681 13.7515 374.473 13.6513 374.343 13.4639C370.215 7.47635 364.075 3.16105 357.054 1.31182C356.698 1.21812 356.486 0.853744 356.579 0.498474C356.673 0.141902 357.04 -0.0741232 357.393 0.0234786C364.722 1.95339 371.132 6.45869 375.44 12.7065C375.649 13.0097 375.573 13.4249 375.27 13.6344C375.155 13.7138 375.023 13.7515 374.893 13.7515Z" fill="#2B2A29"/>
<path d="M23.6966 279.022C36.4142 279.022 46.7238 268.712 46.7238 255.995C46.7238 243.277 36.4142 232.968 23.6966 232.968C10.9791 232.968 0.669464 243.277 0.669464 255.995C0.669464 268.712 10.9791 279.022 23.6966 279.022Z" fill="#E2F0FC"/>
<path d="M23.6932 279.689C10.6288 279.689 0 269.061 0 255.996C0 242.932 10.6288 232.302 23.6932 232.302C36.7581 232.302 47.387 242.932 47.387 255.996C47.387 269.061 36.7581 279.689 23.6932 279.689ZM23.6932 233.635C11.3635 233.635 1.33259 243.666 1.33259 255.996C1.33259 268.325 11.3635 278.356 23.6932 278.356C36.0229 278.356 46.0544 268.325 46.0544 255.996C46.0544 243.666 36.0229 233.635 23.6932 233.635Z" fill="#2B2A29"/>
<path d="M40.0483 259.17C39.536 264.555 35.8516 269.003 30.8808 270.605L28.8531 264.381C31.3931 263.563 33.2789 261.296 33.5296 258.549L40.0483 259.17Z" fill="#2A99A7"/>
<path d="M30.4635 271.443L28.0228 263.951L28.6591 263.747C30.9983 262.992 32.6536 260.928 32.8762 258.488L32.9373 257.821L40.7845 258.57L40.7214 259.233C40.1911 264.812 36.4126 269.525 31.0953 271.239L30.4635 271.443ZM29.695 264.782L31.3132 269.75C35.5856 268.121 38.6438 264.307 39.3146 259.769L34.1131 259.272C33.6635 261.734 32.0043 263.804 29.695 264.782Z" fill="#2B2A29"/>
<path d="M35.89 255.384C35.89 255.809 35.8682 256.234 35.8355 256.649L29.3167 256.027C29.3386 255.82 29.3495 255.602 29.3495 255.384C29.3495 252.539 27.6054 250.097 25.1199 249.083L26.875 242.75C32.1293 244.549 35.89 249.53 35.89 255.384Z" fill="#E87FA7"/>
<path d="M36.4524 257.377L28.5883 256.629L28.6599 255.958C28.6794 255.774 28.6892 255.58 28.6892 255.386C28.6892 252.878 27.1913 250.646 24.8736 249.702L24.3251 249.478L26.4274 241.892L27.097 242.121C32.7579 244.059 36.5617 249.389 36.5617 255.386C36.5617 255.827 36.5396 256.271 36.5058 256.702L36.4524 257.377ZM30.0218 255.426L35.2181 255.921C35.2252 255.742 35.2291 255.564 35.2291 255.386C35.2291 250.197 32.0825 245.559 27.3286 243.629L25.9192 248.714C28.4302 249.976 30.0218 252.535 30.0218 255.386C30.0218 255.399 30.0218 255.413 30.0218 255.426Z" fill="#2B2A29"/>
<path d="M26.8651 242.75L25.1101 249.083C24.3143 248.756 23.4423 248.571 22.5266 248.571C18.7658 248.571 15.7135 251.623 15.7135 255.384C15.7135 256.125 15.8334 256.823 16.0515 257.488L9.36914 257.662C9.23847 256.921 9.173 256.158 9.173 255.384C9.173 248.004 15.1467 242.031 22.5266 242.031C24.0418 242.031 25.5025 242.281 26.8651 242.75Z" fill="#62D2D0"/>
<path d="M8.82676 258.344L8.72721 257.779C8.58992 257.002 8.52029 256.198 8.52029 255.386C8.52029 247.654 14.8098 241.365 22.5405 241.365C24.104 241.365 25.6364 241.619 27.0959 242.121L27.6886 242.324L25.5655 249.986L24.8705 249.701C24.1223 249.394 23.3382 249.238 22.5405 249.238C19.1511 249.238 16.3935 251.996 16.3935 255.386C16.3935 256.036 16.4931 256.656 16.6987 257.281L16.9785 258.132L8.82676 258.344ZM22.5405 242.698C15.5444 242.698 9.85288 248.39 9.85288 255.386C9.85288 255.925 9.88672 256.459 9.95309 256.981L15.2073 256.845C15.1097 256.364 15.0609 255.876 15.0609 255.386C15.0609 251.262 18.4165 247.906 22.5405 247.906C23.2647 247.906 23.9791 248.011 24.6721 248.218L26.0652 243.192C24.9272 242.864 23.7442 242.698 22.5405 242.698Z" fill="#2B2A29"/>
<path d="M26.6776 268.084C25.3805 268.509 23.9852 268.738 22.5462 268.738C15.9402 268.738 10.468 263.953 9.38873 257.663L16.0711 257.488C16.954 260.224 19.5157 262.197 22.5462 262.197C23.2873 262.197 23.9852 262.078 24.65 261.86L26.6776 268.084Z" fill="#FF9100"/>
<path d="M22.5519 269.406C15.7029 269.406 9.89362 264.515 8.73802 257.777L8.60788 257.018L16.5579 256.81L16.7114 257.285C17.53 259.825 19.8776 261.533 22.5519 261.533C23.2033 261.533 23.8233 261.432 24.4473 261.228L25.0824 261.019L27.5225 268.511L26.8906 268.717C25.5001 269.174 24.04 269.406 22.5519 269.406ZM10.2046 258.309C11.5392 264.012 16.6138 268.073 22.5519 268.073C23.673 268.073 24.7753 267.929 25.8379 267.643L24.2196 262.674C23.6724 262.802 23.1135 262.865 22.5519 262.865C19.4664 262.865 16.7381 260.998 15.6131 258.167L10.2046 258.309Z" fill="#2B2A29"/>
<path d="M108.71 200.093C108.492 200.093 108.278 199.986 108.15 199.789L97.8807 183.971C97.6803 183.663 97.7681 183.251 98.0765 183.05C98.3856 182.85 98.7981 182.937 98.9985 183.245L109.268 199.063C109.469 199.372 109.381 199.784 109.072 199.985C108.96 200.058 108.834 200.093 108.71 200.093Z" fill="#2B2A29"/>
<path d="M50.6234 256.663C50.2812 256.663 49.9897 256.4 49.9604 256.054C49.9292 255.687 50.2005 255.364 50.5675 255.333L100.318 251.087C100.692 251.06 101.007 251.328 101.038 251.693C101.069 252.06 100.798 252.383 100.431 252.414L50.6807 256.661C50.6612 256.662 50.6423 256.663 50.6234 256.663Z" fill="#2B2A29"/>
<path d="M82.0596 277.712C81.8234 277.712 81.5943 277.586 81.4733 277.364C81.2976 277.041 81.4173 276.636 81.7407 276.461C81.9001 276.375 97.7129 267.78 99.9844 266.09C100.279 265.87 100.696 265.931 100.916 266.227C101.136 266.522 101.075 266.94 100.78 267.16C98.4326 268.906 83.0317 277.276 82.3771 277.632C82.2756 277.686 82.1669 277.712 82.0596 277.712Z" fill="#2B2A29"/>
<path d="M178.627 292.65C178.441 292.65 178.255 292.572 178.122 292.419L167.267 279.813C167.026 279.534 167.058 279.114 167.337 278.873C167.614 278.634 168.035 278.662 168.276 278.943L179.132 291.55C179.372 291.828 179.341 292.248 179.062 292.489C178.936 292.597 178.782 292.65 178.627 292.65Z" fill="#2B2A29"/>
</svg>
