<svg width="13" height="12" viewBox="0 0 13 12" fill="none" xmlns="http://www.w3.org/2000/svg">
<path d="M5.98432 12C5.45916 12 4.93862 11.9316 4.43701 11.7965C2.27543 11.2148 0.582911 9.42338 0.125156 7.23242C-0.34137 5.00037 0.519661 2.65399 2.31905 1.25471C3.35922 0.445719 4.67108 0 6.01318 0C6.94231 0 7.86497 0.216162 8.68168 0.624699C10.6985 1.63415 12.0016 3.74312 12.0016 5.99781C12.0016 7.83749 11.1339 9.61067 9.68052 10.7409C8.63667 11.5529 7.32388 12 5.98432 12ZM6.01341 0.92377C4.8756 0.92377 3.7648 1.30021 2.886 1.98403C1.36315 3.1683 0.634157 5.15417 1.02912 7.04328C1.41647 8.8966 2.84837 10.4123 4.67708 10.9044C5.10044 11.0183 5.54042 11.0762 5.98432 11.0762H5.98455C7.11982 11.0762 8.23108 10.6982 9.11404 10.0116C10.3442 9.05502 11.0785 7.55459 11.0785 5.99781C11.0785 4.08999 9.97577 2.30527 8.26894 1.45101C7.57965 1.10621 6.79988 0.92377 6.01341 0.92377Z" fill="#707070"/>
<path d="M5.3275 7.36C5.3275 7.12533 5.37817 6.90667 5.4795 6.704C5.58083 6.50133 5.7035 6.328 5.8475 6.184C5.9915 6.04 6.1355 5.904 6.2795 5.776C6.4235 5.64267 6.54617 5.49867 6.6475 5.344C6.74883 5.184 6.7995 5.016 6.7995 4.84C6.7995 4.57333 6.70617 4.37067 6.5195 4.232C6.33817 4.088 6.10083 4.016 5.8075 4.016C5.22083 4.016 4.84483 4.27467 4.6795 4.792L4.0475 4.44C4.18083 4.06667 4.4075 3.784 4.7275 3.592C5.0475 3.39467 5.41017 3.296 5.8155 3.296C6.29017 3.296 6.6955 3.42933 7.0315 3.696C7.37283 3.96267 7.5435 4.33333 7.5435 4.808C7.5435 5.032 7.49283 5.24267 7.3915 5.44C7.29017 5.63733 7.1675 5.808 7.0235 5.952C6.8795 6.096 6.7355 6.23733 6.5915 6.376C6.4475 6.50933 6.32483 6.66133 6.2235 6.832C6.12217 6.99733 6.0715 7.17333 6.0715 7.36H5.3275ZM5.6955 9.088C5.5515 9.088 5.42883 9.03733 5.3275 8.936C5.22617 8.83467 5.1755 8.712 5.1755 8.568C5.1755 8.424 5.22617 8.30133 5.3275 8.2C5.42883 8.09867 5.5515 8.048 5.6955 8.048C5.84483 8.048 5.9675 8.09867 6.0635 8.2C6.16483 8.30133 6.2155 8.424 6.2155 8.568C6.2155 8.712 6.16483 8.83467 6.0635 8.936C5.9675 9.03733 5.84483 9.088 5.6955 9.088Z" fill="#707070"/>
</svg>
