<svg width="300" height="167" viewBox="0 0 300 167" fill="none" xmlns="http://www.w3.org/2000/svg">
<rect x="0.5" y="17.5" width="299" height="149" rx="5.5" fill="white" stroke="#D4D3D5"/>
<mask id="mask0" mask-type="alpha" maskUnits="userSpaceOnUse" x="17" y="0" width="42" height="19">
<path d="M17 18.5L59 18.5V0L17 0V18.5Z" fill="#C4C4C4"/>
</mask>
<g mask="url(#mask0)">
<rect x="52.8495" y="19" width="21" height="21" transform="rotate(135 52.8495 19)" fill="white" stroke="#D4D3D5"/>
</g>
<rect x="19" y="18" width="38" height="12" fill="white"/>
<path d="M38.0015 56H38.6375V47.6H38.0735L33.1175 54.824V47.6H32.4815V56H33.0335L38.0015 48.776V56ZM43.3478 56.132C44.5238 56.132 45.5318 55.532 46.0118 54.608L45.5078 54.308C45.1118 55.052 44.3198 55.556 43.3478 55.556C41.8958 55.556 40.8038 54.428 40.8038 53C40.8038 51.572 41.8958 50.444 43.3478 50.444C44.3078 50.444 45.1238 50.936 45.4718 51.692L45.9638 51.404C45.5318 50.468 44.5238 49.868 43.3478 49.868C41.5358 49.868 40.1918 51.224 40.1918 53C40.1918 54.776 41.5358 56.132 43.3478 56.132ZM51.4092 50H46.4412V50.588H48.6252V56H49.2252V50.588H51.4092V50ZM55.0079 56.132C56.7479 56.132 58.1519 54.776 58.1519 53C58.1519 51.224 56.7479 49.868 55.0079 49.868C53.2559 49.868 51.8519 51.224 51.8519 53C51.8519 54.776 53.2559 56.132 55.0079 56.132ZM55.0079 55.556C53.5799 55.556 52.4639 54.428 52.4639 53C52.4639 51.572 53.5799 50.444 55.0079 50.444C56.4359 50.444 57.5399 51.572 57.5399 53C57.5399 54.428 56.4359 55.556 55.0079 55.556ZM63.4627 50V53.084C62.8987 53.336 62.2507 53.468 61.6147 53.468C60.4747 53.468 59.8387 53 59.8387 51.956V50H59.2387V51.956C59.2387 53.324 60.1147 54.044 61.6387 54.044C62.2867 54.044 62.9347 53.912 63.4627 53.648V56H64.0747V50H63.4627ZM70.268 50V52.712H66.524V50H65.924V56H66.524V53.288H70.268V56H70.88V50H70.268ZM77.1606 50L73.3326 54.956V50H72.7326V56H73.2606L77.0766 51.044V56H77.6886V50H77.1606ZM84.1372 56L80.7892 52.88L84.0172 50H83.1772L80.1412 52.724V50H79.5412V56H80.1412V53.048L83.3212 56H84.1372ZM90.0243 50V51.356C89.5203 50.456 88.5963 49.868 87.4443 49.868C85.7403 49.868 84.3363 51.224 84.3363 53C84.3363 54.776 85.7403 56.132 87.4443 56.132C88.5963 56.132 89.5203 55.544 90.0243 54.644V56H90.6363V50H90.0243ZM87.4923 55.556C86.0643 55.556 84.9483 54.428 84.9483 53C84.9483 51.572 86.0643 50.444 87.4923 50.444C88.9203 50.444 90.0243 51.572 90.0243 53C90.0243 54.428 88.9203 55.556 87.4923 55.556ZM98.2747 50H97.5547L95.3707 53.444L93.1867 50H92.4787V56H93.0787V50.888L95.3347 54.452H95.4187L97.6627 50.912V56H98.2747V50ZM104.547 50L100.719 54.956V50H100.119V56H100.647L104.463 51.044V56H105.075V50H104.547ZM114.963 55.412V50H114.351V55.412H110.727V50H110.127V56H115.311V57.608H115.923V55.412H114.963ZM119.706 49.868C117.87 49.868 116.598 51.236 116.598 53C116.598 54.812 117.906 56.132 119.754 56.132C120.942 56.132 121.878 55.592 122.37 54.776L121.842 54.464C121.494 55.1 120.75 55.556 119.766 55.556C118.398 55.556 117.366 54.668 117.222 53.312H122.658C122.658 53.216 122.67 53.12 122.67 53.024C122.67 51.38 121.53 49.868 119.706 49.868ZM119.706 50.444C120.882 50.444 121.914 51.26 122.046 52.724H117.222C117.342 51.392 118.338 50.444 119.706 50.444ZM128.416 50V52.712H124.672V50H124.072V56H124.672V53.288H128.416V56H129.028V50H128.416ZM139 55.412V50H134.788V53C134.788 54.188 134.548 54.836 134.128 55.412H133.432V57.608H134.044V56H139.228V57.608H139.84V55.412H139ZM134.872 55.412C135.208 54.8 135.388 54.068 135.388 53V50.588H138.388V55.412H134.872ZM146.03 50H141.806V53.48C141.806 55.028 141.314 55.52 140.39 55.436V56C141.518 56.084 142.406 55.58 142.406 53.48V50.588H145.43V56H146.03V50ZM152.025 50H149.649C148.581 50 147.669 50.732 147.669 51.836C147.669 52.844 148.437 53.54 149.385 53.648L147.465 56H148.245L150.129 53.66H151.425V56H152.025V50ZM149.649 53.084C148.893 53.084 148.281 52.604 148.281 51.836C148.281 51.08 148.893 50.588 149.649 50.588H151.425V53.084H149.649ZM161.272 50H156.304V50.588H158.488V56H159.088V50.588H161.272V50ZM164.871 56.132C166.611 56.132 168.015 54.776 168.015 53C168.015 51.224 166.611 49.868 164.871 49.868C163.119 49.868 161.715 51.224 161.715 53C161.715 54.776 163.119 56.132 164.871 56.132ZM164.871 55.556C163.443 55.556 162.327 54.428 162.327 53C162.327 51.572 163.443 50.444 164.871 50.444C166.299 50.444 167.403 51.572 167.403 53C167.403 54.428 166.299 55.556 164.871 55.556ZM173.155 52.904C173.671 52.652 173.923 52.16 173.923 51.572C173.923 50.696 173.311 50 172.135 50H169.459V56H172.363C173.611 56 174.211 55.256 174.211 54.344C174.211 53.66 173.851 53.132 173.155 52.904ZM172.135 50.588C172.891 50.588 173.311 50.972 173.311 51.608C173.311 52.28 172.903 52.664 172.135 52.664H170.059V50.588H172.135ZM172.363 55.412H170.059V53.252H172.363C173.155 53.252 173.611 53.66 173.611 54.32C173.611 55.004 173.167 55.412 172.363 55.412ZM180.821 50V51.356C180.317 50.456 179.393 49.868 178.241 49.868C176.537 49.868 175.133 51.224 175.133 53C175.133 54.776 176.537 56.132 178.241 56.132C179.393 56.132 180.317 55.544 180.821 54.644V56H181.433V50H180.821ZM178.289 55.556C176.861 55.556 175.745 54.428 175.745 53C175.745 51.572 176.861 50.444 178.289 50.444C179.717 50.444 180.821 51.572 180.821 53C180.821 54.428 179.717 55.556 178.289 55.556ZM186.456 49.868C185.292 49.868 184.368 50.468 183.876 51.392V50H183.276V58.4H183.876V54.608C184.368 55.532 185.292 56.132 186.456 56.132C188.172 56.132 189.564 54.776 189.564 53C189.564 51.224 188.172 49.868 186.456 49.868ZM186.42 55.556C184.992 55.556 183.876 54.428 183.876 53C183.876 51.572 184.992 50.444 186.42 50.444C187.848 50.444 188.964 51.572 188.964 53C188.964 54.428 187.848 55.556 186.42 55.556ZM193.758 56.132C195.498 56.132 196.902 54.776 196.902 53C196.902 51.224 195.498 49.868 193.758 49.868C192.006 49.868 190.602 51.224 190.602 53C190.602 54.776 192.006 56.132 193.758 56.132ZM193.758 55.556C192.33 55.556 191.214 54.428 191.214 53C191.214 51.572 192.33 50.444 193.758 50.444C195.186 50.444 196.29 51.572 196.29 53C196.29 54.428 195.186 55.556 193.758 55.556ZM202.042 52.904C202.558 52.652 202.81 52.16 202.81 51.572C202.81 50.696 202.198 50 201.022 50H198.346V56H201.25C202.498 56 203.098 55.256 203.098 54.344C203.098 53.66 202.738 53.132 202.042 52.904ZM201.022 50.588C201.778 50.588 202.198 50.972 202.198 51.608C202.198 52.28 201.79 52.664 201.022 52.664H198.946V50.588H201.022ZM201.25 55.412H198.946V53.252H201.25C202.042 53.252 202.498 53.66 202.498 54.32C202.498 55.004 202.054 55.412 201.25 55.412ZM213.423 50H212.703L210.519 53.444L208.335 50H207.627V56H208.227V50.888L210.483 54.452H210.567L212.811 50.912V56H213.423V50ZM218.016 56.132C219.756 56.132 221.16 54.776 221.16 53C221.16 51.224 219.756 49.868 218.016 49.868C216.264 49.868 214.86 51.224 214.86 53C214.86 54.776 216.264 56.132 218.016 56.132ZM218.016 55.556C216.588 55.556 215.472 54.428 215.472 53C215.472 51.572 216.588 50.444 218.016 50.444C219.444 50.444 220.548 51.572 220.548 53C220.548 54.428 219.444 55.556 218.016 55.556ZM226.36 50H222.604V56H223.204V50.588H226.36V50ZM232.187 50L230.099 55.34L227.675 50H227.027L229.787 56.108L229.655 56.432C229.283 57.308 228.671 57.908 227.867 57.836V58.4C228.899 58.484 229.787 57.704 230.243 56.552L232.835 50H232.187ZM238.112 50H233.144V50.588H235.328V56H235.928V50.588H238.112V50ZM245.013 56.144C246.705 56.144 247.929 54.956 247.929 53.348C247.929 51.704 246.729 50.54 245.145 50.54C244.317 50.54 243.297 50.912 242.697 51.848C242.889 50.792 243.381 50.252 244.557 49.724C245.781 49.16 247.041 48.872 247.245 47.72L246.765 47.444C246.597 48.464 245.541 48.62 244.233 49.244C242.325 50.18 241.989 51.188 241.989 53.06C241.989 54.92 243.309 56.144 245.013 56.144ZM245.013 55.544C243.645 55.544 242.637 54.572 242.637 53.192C242.733 51.92 243.909 51.128 245.073 51.128C246.405 51.128 247.317 52.064 247.317 53.348C247.317 54.62 246.369 55.544 245.013 55.544ZM251.628 52.328H249.852V50H249.252V56H251.628C252.696 56 253.608 55.268 253.608 54.164C253.608 53.06 252.696 52.328 251.628 52.328ZM254.532 50V56H255.132V50H254.532ZM251.628 55.412H249.852V52.916H251.628C252.384 52.916 252.996 53.396 252.996 54.164C252.996 54.92 252.384 55.412 251.628 55.412ZM261.175 50H256.207V50.588H258.391V56H258.991V50.588H261.175V50ZM264.636 52.328H262.86V50H262.26V56H264.636C265.704 56 266.616 55.268 266.616 54.164C266.616 53.06 265.704 52.328 264.636 52.328ZM264.636 55.412H262.86V52.916H264.636C265.392 52.916 266.004 53.396 266.004 54.164C266.004 54.92 265.392 55.412 264.636 55.412ZM268.292 51.08C268.592 51.08 268.832 50.84 268.832 50.54C268.832 50.24 268.592 50 268.292 50C267.98 50 267.752 50.24 267.752 50.54C267.752 50.84 267.98 51.08 268.292 51.08ZM268.292 56.12C268.592 56.12 268.832 55.88 268.832 55.58C268.832 55.28 268.592 55.04 268.292 55.04C267.98 55.04 267.752 55.28 267.752 55.58C267.752 55.88 267.98 56.12 268.292 56.12ZM39.463 76.132C40.639 76.132 41.647 75.532 42.127 74.608L41.623 74.308C41.227 75.052 40.435 75.556 39.463 75.556C38.011 75.556 36.919 74.428 36.919 73C36.919 71.572 38.011 70.444 39.463 70.444C40.423 70.444 41.239 70.936 41.587 71.692L42.079 71.404C41.647 70.468 40.639 69.868 39.463 69.868C37.651 69.868 36.307 71.224 36.307 73C36.307 74.776 37.651 76.132 39.463 76.132ZM48.663 70V71.356C48.159 70.456 47.235 69.868 46.083 69.868C44.379 69.868 42.975 71.224 42.975 73C42.975 74.776 44.379 76.132 46.083 76.132C47.235 76.132 48.159 75.544 48.663 74.644V76H49.275V70H48.663ZM46.131 75.556C44.703 75.556 43.587 74.428 43.587 73C43.587 71.572 44.703 70.444 46.131 70.444C47.559 70.444 48.663 71.572 48.663 73C48.663 74.428 47.559 75.556 46.131 75.556ZM52.0654 68.956H55.1014V68.428H52.0654V68.956ZM55.5454 70L51.7174 74.956V70H51.1174V76H51.6454L55.4614 71.044V76H56.0734V70H55.5454ZM62.126 70H57.158V70.588H59.342V76H59.942V70.588H62.126V70ZM65.5871 72.328H63.8111V70H63.2111V76H65.5871C66.6551 76 67.5671 75.268 67.5671 74.164C67.5671 73.06 66.6551 72.328 65.5871 72.328ZM68.4911 70V76H69.0911V70H68.4911ZM65.5871 75.412H63.8111V72.916H65.5871C66.3431 72.916 66.9551 73.396 66.9551 74.164C66.9551 74.92 66.3431 75.412 65.5871 75.412ZM79.089 70H74.133V76H74.733V70.588H78.477V76H79.089V70ZM83.6896 76.132C85.4296 76.132 86.8336 74.776 86.8336 73C86.8336 71.224 85.4296 69.868 83.6896 69.868C81.9376 69.868 80.5336 71.224 80.5336 73C80.5336 74.776 81.9376 76.132 83.6896 76.132ZM83.6896 75.556C82.2616 75.556 81.1456 74.428 81.1456 73C81.1456 71.572 82.2616 70.444 83.6896 70.444C85.1176 70.444 86.2216 71.572 86.2216 73C86.2216 74.428 85.1176 75.556 83.6896 75.556ZM91.0255 76.132C92.2015 76.132 93.2095 75.532 93.6895 74.608L93.1855 74.308C92.7895 75.052 91.9975 75.556 91.0255 75.556C89.5735 75.556 88.4815 74.428 88.4815 73C88.4815 71.572 89.5735 70.444 91.0255 70.444C91.9855 70.444 92.8015 70.936 93.1495 71.692L93.6415 71.404C93.2095 70.468 92.2015 69.868 91.0255 69.868C89.2135 69.868 87.8695 71.224 87.8695 73C87.8695 74.776 89.2135 76.132 91.0255 76.132ZM99.0869 70H94.1189V70.588H96.3029V76H96.9029V70.588H99.0869V70ZM105.218 70V71.356C104.714 70.456 103.79 69.868 102.638 69.868C100.934 69.868 99.5297 71.224 99.5297 73C99.5297 74.776 100.934 76.132 102.638 76.132C103.79 76.132 104.714 75.544 105.218 74.644V76H105.83V70H105.218ZM102.686 75.556C101.258 75.556 100.142 74.428 100.142 73C100.142 71.572 101.258 70.444 102.686 70.444C104.114 70.444 105.218 71.572 105.218 73C105.218 74.428 104.114 75.556 102.686 75.556ZM111.368 72.904C111.884 72.652 112.136 72.16 112.136 71.572C112.136 70.696 111.524 70 110.348 70H107.672V76H110.576C111.824 76 112.424 75.256 112.424 74.344C112.424 73.66 112.064 73.132 111.368 72.904ZM110.348 70.588C111.104 70.588 111.524 70.972 111.524 71.608C111.524 72.28 111.116 72.664 110.348 72.664H108.272V70.588H110.348ZM110.576 75.412H108.272V73.252H110.576C111.368 73.252 111.824 73.66 111.824 74.32C111.824 75.004 111.38 75.412 110.576 75.412ZM121.71 75.412V70H121.098V75.412H118.038V70H117.426V75.412H114.354V70H113.754V76H121.938V77.608H122.55V75.412H121.71ZM128.295 70L124.467 74.956V70H123.867V76H124.395L128.211 71.044V76H128.823V70H128.295ZM135.272 76L131.924 72.88L135.152 70H134.312L131.276 72.724V70H130.676V76H131.276V73.048L134.456 76H135.272ZM138.627 76.132C140.367 76.132 141.771 74.776 141.771 73C141.771 71.224 140.367 69.868 138.627 69.868C136.875 69.868 135.471 71.224 135.471 73C135.471 74.776 136.875 76.132 138.627 76.132ZM138.627 75.556C137.199 75.556 136.083 74.428 136.083 73C136.083 71.572 137.199 70.444 138.627 70.444C140.055 70.444 141.159 71.572 141.159 73C141.159 74.428 140.055 75.556 138.627 75.556ZM146.911 72.904C147.427 72.652 147.679 72.16 147.679 71.572C147.679 70.696 147.067 70 145.891 70H143.215V76H146.119C147.367 76 147.967 75.256 147.967 74.344C147.967 73.66 147.607 73.132 146.911 72.904ZM145.891 70.588C146.647 70.588 147.067 70.972 147.067 71.608C147.067 72.28 146.659 72.664 145.891 72.664H143.815V70.588H145.891ZM146.119 75.412H143.815V73.252H146.119C146.911 73.252 147.367 73.66 147.367 74.32C147.367 75.004 146.923 75.412 146.119 75.412ZM150.2 75.184H149.456L149 77.68H149.552L150.2 75.184ZM157.799 76.132C158.975 76.132 159.983 75.532 160.463 74.608L159.959 74.308C159.563 75.052 158.771 75.556 157.799 75.556C156.347 75.556 155.255 74.428 155.255 73C155.255 71.572 156.347 70.444 157.799 70.444C158.759 70.444 159.575 70.936 159.923 71.692L160.415 71.404C159.983 70.468 158.975 69.868 157.799 69.868C155.987 69.868 154.643 71.224 154.643 73C154.643 74.776 155.987 76.132 157.799 76.132ZM166.999 70V71.356C166.495 70.456 165.571 69.868 164.419 69.868C162.715 69.868 161.311 71.224 161.311 73C161.311 74.776 162.715 76.132 164.419 76.132C165.571 76.132 166.495 75.544 166.999 74.644V76H167.611V70H166.999ZM164.467 75.556C163.039 75.556 161.923 74.428 161.923 73C161.923 71.572 163.039 70.444 164.467 70.444C165.895 70.444 166.999 71.572 166.999 73C166.999 74.428 165.895 75.556 164.467 75.556ZM170.401 68.956H173.437V68.428H170.401V68.956ZM173.881 70L170.053 74.956V70H169.453V76H169.981L173.797 71.044V76H174.409V70H173.881ZM180.462 70H175.494V70.588H177.678V76H178.278V70.588H180.462V70ZM183.923 72.328H182.147V70H181.547V76H183.923C184.991 76 185.903 75.268 185.903 74.164C185.903 73.06 184.991 72.328 183.923 72.328ZM186.827 70V76H187.427V70H186.827ZM183.923 75.412H182.147V72.916H183.923C184.679 72.916 185.291 73.396 185.291 74.164C185.291 74.92 184.679 75.412 183.923 75.412ZM197.065 76L193.717 72.88L196.945 70H196.105L193.069 72.724V70H192.469V76H193.069V73.048L196.249 76H197.065ZM200.42 76.132C202.16 76.132 203.564 74.776 203.564 73C203.564 71.224 202.16 69.868 200.42 69.868C198.668 69.868 197.264 71.224 197.264 73C197.264 74.776 198.668 76.132 200.42 76.132ZM200.42 75.556C198.992 75.556 197.876 74.428 197.876 73C197.876 71.572 198.992 70.444 200.42 70.444C201.848 70.444 202.952 71.572 202.952 73C202.952 74.428 201.848 75.556 200.42 75.556ZM209.352 70V72.712H205.608V70H205.008V76H205.608V73.288H209.352V76H209.964V70H209.352ZM216.413 76L213.065 72.88L216.293 70H215.453L212.417 72.724V70H211.817V76H212.417V73.048L215.597 76H216.413ZM221.775 70L219.687 75.34L217.263 70H216.615L219.375 76.108L219.243 76.432C218.871 77.308 218.259 77.908 217.455 77.836V78.4C218.487 78.484 219.375 77.704 219.831 76.552L222.423 70H221.775ZM226.68 69.868C225.516 69.868 224.592 70.468 224.1 71.392V70H223.5V78.4H224.1V74.608C224.592 75.532 225.516 76.132 226.68 76.132C228.396 76.132 229.788 74.776 229.788 73C229.788 71.224 228.396 69.868 226.68 69.868ZM226.644 75.556C225.216 75.556 224.1 74.428 224.1 73C224.1 71.572 225.216 70.444 226.644 70.444C228.072 70.444 229.188 71.572 229.188 73C229.188 74.428 228.072 75.556 226.644 75.556ZM233.935 69.868C232.099 69.868 230.827 71.236 230.827 73C230.827 74.812 232.135 76.132 233.983 76.132C235.171 76.132 236.107 75.592 236.599 74.776L236.071 74.464C235.723 75.1 234.979 75.556 233.995 75.556C232.627 75.556 231.595 74.668 231.451 73.312H236.887C236.887 73.216 236.899 73.12 236.899 73.024C236.899 71.38 235.759 69.868 233.935 69.868ZM233.935 70.444C235.111 70.444 236.143 71.26 236.275 72.724H231.451C231.571 71.392 232.567 70.444 233.935 70.444ZM242.645 70V72.712H238.901V70H238.301V76H238.901V73.288H242.645V76H243.257V70H242.645ZM249.31 70H244.342V70.588H246.526V76H247.126V70.588H249.31V70ZM252.908 76.132C254.648 76.132 256.052 74.776 256.052 73C256.052 71.224 254.648 69.868 252.908 69.868C251.156 69.868 249.752 71.224 249.752 73C249.752 74.776 251.156 76.132 252.908 76.132ZM252.908 75.556C251.48 75.556 250.364 74.428 250.364 73C250.364 71.572 251.48 70.444 252.908 70.444C254.336 70.444 255.44 71.572 255.44 73C255.44 74.428 254.336 75.556 252.908 75.556ZM261.192 72.904C261.708 72.652 261.96 72.16 261.96 71.572C261.96 70.696 261.348 70 260.172 70H257.496V76H260.4C261.648 76 262.248 75.256 262.248 74.344C262.248 73.66 261.888 73.132 261.192 72.904ZM260.172 70.588C260.928 70.588 261.348 70.972 261.348 71.608C261.348 72.28 260.94 72.664 260.172 72.664H258.096V70.588H260.172ZM260.4 75.412H258.096V73.252H260.4C261.192 73.252 261.648 73.66 261.648 74.32C261.648 75.004 261.204 75.412 260.4 75.412ZM264.481 75.184H263.737L263.281 77.68H263.833L264.481 75.184ZM26.7589 90H21.8029V96H22.4029V90.588H26.1469V96H26.7589V90ZM31.7915 89.868C30.6275 89.868 29.7035 90.468 29.2115 91.392V90H28.6115V98.4H29.2115V94.608C29.7035 95.532 30.6275 96.132 31.7915 96.132C33.5075 96.132 34.8995 94.776 34.8995 93C34.8995 91.224 33.5075 89.868 31.7915 89.868ZM31.7555 95.556C30.3275 95.556 29.2115 94.428 29.2115 93C29.2115 91.572 30.3275 90.444 31.7555 90.444C33.1835 90.444 34.2995 91.572 34.2995 93C34.2995 94.428 33.1835 95.556 31.7555 95.556ZM41.6259 90V91.356C41.1219 90.456 40.1979 89.868 39.0459 89.868C37.3419 89.868 35.9379 91.224 35.9379 93C35.9379 94.776 37.3419 96.132 39.0459 96.132C40.1979 96.132 41.1219 95.544 41.6259 94.644V96H42.2379V90H41.6259ZM39.0939 95.556C37.6659 95.556 36.5499 94.428 36.5499 93C36.5499 91.572 37.6659 90.444 39.0939 90.444C40.5219 90.444 41.6259 91.572 41.6259 93C41.6259 94.428 40.5219 95.556 39.0939 95.556ZM45.0283 88.956H48.0643V88.428H45.0283V88.956ZM48.5083 90L44.6803 94.956V90H44.0803V96H44.6083L48.4243 91.044V96H49.0363V90H48.5083ZM53.6368 96.132C54.8128 96.132 55.8208 95.532 56.3008 94.608L55.7968 94.308C55.4008 95.052 54.6088 95.556 53.6368 95.556C52.1848 95.556 51.0928 94.428 51.0928 93C51.0928 91.572 52.1848 90.444 53.6368 90.444C54.5968 90.444 55.4128 90.936 55.7608 91.692L56.2528 91.404C55.8208 90.468 54.8128 89.868 53.6368 89.868C51.8248 89.868 50.4808 91.224 50.4808 93C50.4808 94.776 51.8248 96.132 53.6368 96.132ZM59.9914 92.328H58.2154V90H57.6154V96H59.9914C61.0594 96 61.9714 95.268 61.9714 94.164C61.9714 93.06 61.0594 92.328 59.9914 92.328ZM62.8954 90V96H63.4954V90H62.8954ZM59.9914 95.412H58.2154V92.916H59.9914C60.7474 92.916 61.3594 93.396 61.3594 94.164C61.3594 94.92 60.7474 95.412 59.9914 95.412ZM69.6533 97.2H70.2653C69.4253 95.52 68.9453 93.72 68.9453 91.8C68.9453 89.88 69.4253 88.08 70.2653 86.4H69.6533C68.8133 88.08 68.3333 89.88 68.3333 91.8C68.3333 93.72 68.8133 95.52 69.6533 97.2ZM75.3622 92.904C75.8782 92.652 76.1302 92.16 76.1302 91.572C76.1302 90.696 75.5182 90 74.3422 90H71.6662V96H74.5702C75.8182 96 76.4182 95.256 76.4182 94.344C76.4182 93.66 76.0582 93.132 75.3622 92.904ZM74.3422 90.588C75.0982 90.588 75.5182 90.972 75.5182 91.608C75.5182 92.28 75.1102 92.664 74.3422 92.664H72.2662V90.588H74.3422ZM74.5702 95.412H72.2662V93.252H74.5702C75.3622 93.252 75.8182 93.66 75.8182 94.32C75.8182 95.004 75.3742 95.412 74.5702 95.412ZM85.8194 90H81.5954V93.48C81.5954 95.028 81.1034 95.52 80.1794 95.436V96C81.3074 96.084 82.1954 95.58 82.1954 93.48V90.588H85.2194V96H85.8194V90ZM92.7143 89.868C91.0583 89.868 89.7503 91.08 89.6063 92.712H88.2623V90H87.6623V96H88.2623V93.288H89.6063C89.7503 94.92 91.0583 96.132 92.7143 96.132C94.4543 96.132 95.8583 94.776 95.8583 93C95.8583 91.224 94.4543 89.868 92.7143 89.868ZM92.7143 95.556C91.2863 95.556 90.1703 94.428 90.1703 93C90.1703 91.572 91.2863 90.444 92.7143 90.444C94.1423 90.444 95.2463 91.572 95.2463 93C95.2463 94.428 94.1423 95.556 92.7143 95.556ZM99.9111 96.144C101.603 96.144 102.827 94.956 102.827 93.348C102.827 91.704 101.627 90.54 100.043 90.54C99.2151 90.54 98.1951 90.912 97.5951 91.848C97.7871 90.792 98.2791 90.252 99.4551 89.724C100.679 89.16 101.939 88.872 102.143 87.72L101.663 87.444C101.495 88.464 100.439 88.62 99.1311 89.244C97.2231 90.18 96.8871 91.188 96.8871 93.06C96.8871 94.92 98.2071 96.144 99.9111 96.144ZM99.9111 95.544C98.5431 95.544 97.5351 94.572 97.5351 93.192C97.6311 91.92 98.8071 91.128 99.9711 91.128C101.303 91.128 102.215 92.064 102.215 93.348C102.215 94.62 101.267 95.544 99.9111 95.544ZM106.899 96.132C108.639 96.132 110.043 94.776 110.043 93C110.043 91.224 108.639 89.868 106.899 89.868C105.147 89.868 103.743 91.224 103.743 93C103.743 94.776 105.147 96.132 106.899 96.132ZM106.899 95.556C105.471 95.556 104.355 94.428 104.355 93C104.355 91.572 105.471 90.444 106.899 90.444C108.327 90.444 109.431 91.572 109.431 93C109.431 94.428 108.327 95.556 106.899 95.556ZM117.283 90H116.562L114.379 93.444L112.195 90H111.487V96H112.087V90.888L114.343 94.452H114.427L116.671 90.912V96H117.283V90ZM128.926 93C128.926 91.308 127.654 89.988 125.722 89.868V87.6H125.122V89.868C123.19 89.988 121.918 91.308 121.918 93C121.918 94.692 123.19 96.012 125.122 96.132V98.4H125.722V96.132C127.654 96.012 128.926 94.692 128.926 93ZM122.53 93C122.53 91.632 123.526 90.576 125.122 90.456V95.544C123.526 95.424 122.53 94.368 122.53 93ZM125.722 95.544V90.456C127.318 90.576 128.314 91.632 128.314 93C128.314 94.368 127.318 95.424 125.722 95.544ZM133.113 96.132C134.853 96.132 136.257 94.776 136.257 93C136.257 91.224 134.853 89.868 133.113 89.868C131.361 89.868 129.957 91.224 129.957 93C129.957 94.776 131.361 96.132 133.113 96.132ZM133.113 95.556C131.685 95.556 130.569 94.428 130.569 93C130.569 91.572 131.685 90.444 133.113 90.444C134.541 90.444 135.645 91.572 135.645 93C135.645 94.428 134.541 95.556 133.113 95.556ZM140.881 89.868C139.717 89.868 138.793 90.468 138.301 91.392V90H137.701V98.4H138.301V94.608C138.793 95.532 139.717 96.132 140.881 96.132C142.597 96.132 143.989 94.776 143.989 93C143.989 91.224 142.597 89.868 140.881 89.868ZM140.845 95.556C139.417 95.556 138.301 94.428 138.301 93C138.301 91.572 139.417 90.444 140.845 90.444C142.273 90.444 143.389 91.572 143.389 93C143.389 94.428 142.273 95.556 140.845 95.556ZM151.232 90H150.512L148.328 93.444L146.144 90H145.436V96H146.036V90.888L148.292 94.452H148.376L150.62 90.912V96H151.232V90ZM158.356 90V91.356C157.852 90.456 156.928 89.868 155.776 89.868C154.072 89.868 152.668 91.224 152.668 93C152.668 94.776 154.072 96.132 155.776 96.132C156.928 96.132 157.852 95.544 158.356 94.644V96H158.968V90H158.356ZM155.824 95.556C154.396 95.556 153.28 94.428 153.28 93C153.28 91.572 154.396 90.444 155.824 90.444C157.252 90.444 158.356 91.572 158.356 93C158.356 94.428 157.252 95.556 155.824 95.556ZM165.011 90H160.043V90.588H162.227V96H162.827V90.588H165.011V90ZM168.562 89.868C166.726 89.868 165.454 91.236 165.454 93C165.454 94.812 166.762 96.132 168.61 96.132C169.798 96.132 170.734 95.592 171.226 94.776L170.698 94.464C170.35 95.1 169.606 95.556 168.622 95.556C167.254 95.556 166.222 94.668 166.078 93.312H171.514C171.514 93.216 171.526 93.12 171.526 93.024C171.526 91.38 170.386 89.868 168.562 89.868ZM168.562 90.444C169.738 90.444 170.77 91.26 170.902 92.724H166.078C166.198 91.392 167.194 90.444 168.562 90.444ZM173.467 95.184H172.723L172.267 97.68H172.819L173.467 95.184ZM181.067 96.132C182.243 96.132 183.251 95.532 183.731 94.608L183.227 94.308C182.831 95.052 182.039 95.556 181.067 95.556C179.615 95.556 178.523 94.428 178.523 93C178.523 91.572 179.615 90.444 181.067 90.444C182.027 90.444 182.843 90.936 183.191 91.692L183.683 91.404C183.251 90.468 182.243 89.868 181.067 89.868C179.255 89.868 177.911 91.224 177.911 93C177.911 94.776 179.255 96.132 181.067 96.132ZM185.395 91.572C185.395 90.852 186.055 90.444 186.835 90.444C187.495 90.444 188.119 90.732 188.371 91.356L188.875 91.068C188.551 90.336 187.807 89.868 186.835 89.868C185.611 89.868 184.795 90.624 184.795 91.572C184.795 93.732 188.431 92.796 188.431 94.428C188.431 95.184 187.723 95.556 186.883 95.556C185.983 95.556 185.335 95.148 185.119 94.5L184.603 94.8C184.891 95.568 185.683 96.132 186.883 96.132C188.167 96.132 189.031 95.412 189.031 94.428C189.031 92.232 185.395 93.18 185.395 91.572ZM194.652 90L192.384 95.376L190.128 90H189.48L192.024 96H192.756L195.288 90H194.652ZM196.319 95.184H195.575L195.119 97.68H195.671L196.319 95.184ZM203.87 89.868C202.034 89.868 200.762 91.236 200.762 93C200.762 94.812 202.07 96.132 203.918 96.132C205.106 96.132 206.042 95.592 206.534 94.776L206.006 94.464C205.658 95.1 204.914 95.556 203.93 95.556C202.562 95.556 201.53 94.668 201.386 93.312H206.822C206.822 93.216 206.834 93.12 206.834 93.024C206.834 91.38 205.694 89.868 203.87 89.868ZM203.87 90.444C205.046 90.444 206.078 91.26 206.21 92.724H201.386C201.506 91.392 202.502 90.444 203.87 90.444ZM212.874 96L210.486 92.904L212.73 90H212.01L210.114 92.436L208.23 90H207.498L209.754 92.916L207.354 96H208.086L210.114 93.384L212.142 96H212.874ZM216.457 96.132C217.633 96.132 218.641 95.532 219.121 94.608L218.617 94.308C218.221 95.052 217.429 95.556 216.457 95.556C215.005 95.556 213.913 94.428 213.913 93C213.913 91.572 215.005 90.444 216.457 90.444C217.417 90.444 218.233 90.936 218.581 91.692L219.073 91.404C218.641 90.468 217.633 89.868 216.457 89.868C214.645 89.868 213.301 91.224 213.301 93C213.301 94.776 214.645 96.132 216.457 96.132ZM223.077 89.868C221.241 89.868 219.969 91.236 219.969 93C219.969 94.812 221.277 96.132 223.125 96.132C224.313 96.132 225.249 95.592 225.741 94.776L225.213 94.464C224.865 95.1 224.121 95.556 223.137 95.556C221.769 95.556 220.737 94.668 220.593 93.312H226.029C226.029 93.216 226.041 93.12 226.041 93.024C226.041 91.38 224.901 89.868 223.077 89.868ZM223.077 90.444C224.253 90.444 225.285 91.26 225.417 92.724H220.593C220.713 91.392 221.709 90.444 223.077 90.444ZM227.444 96H228.044V87.24H227.444V96ZM230.913 95.184H230.169L229.713 97.68H230.265L230.913 95.184ZM240.636 96L238.248 92.904L240.492 90H239.772L237.876 92.436L235.992 90H235.26L237.516 92.916L235.116 96H235.848L237.876 93.384L239.904 96H240.636ZM248.254 89.868C247.45 89.868 246.682 90.252 246.25 91.092C245.938 90.3 245.254 89.868 244.378 89.868C243.61 89.868 242.89 90.204 242.446 91.032V90H241.846V96H242.446V92.652C242.446 91.116 243.322 90.444 244.306 90.444C245.23 90.444 245.842 91.056 245.842 92.196V96H246.442V92.652C246.442 91.116 247.234 90.444 248.242 90.444C249.178 90.444 249.838 91.056 249.838 92.196V96H250.438V92.196C250.438 90.696 249.526 89.868 248.254 89.868ZM252.135 96H252.735V87.24H252.135V96ZM255.604 95.184H254.86L254.404 97.68H254.956L255.604 95.184ZM265.735 90V91.356C265.231 90.456 264.307 89.868 263.155 89.868C261.451 89.868 260.047 91.224 260.047 93C260.047 94.776 261.451 96.132 263.155 96.132C264.307 96.132 265.231 95.544 265.735 94.644V96H266.347V90H265.735ZM263.203 95.556C261.775 95.556 260.659 94.428 260.659 93C260.659 91.572 261.775 90.444 263.203 90.444C264.631 90.444 265.735 91.572 265.735 93C265.735 94.428 264.631 95.556 263.203 95.556ZM271.37 89.868C270.206 89.868 269.282 90.468 268.79 91.392V90H268.19V98.4H268.79V94.608C269.282 95.532 270.206 96.132 271.37 96.132C273.086 96.132 274.478 94.776 274.478 93C274.478 91.224 273.086 89.868 271.37 89.868ZM271.334 95.556C269.906 95.556 268.79 94.428 268.79 93C268.79 91.572 269.906 90.444 271.334 90.444C272.762 90.444 273.878 91.572 273.878 93C273.878 94.428 272.762 95.556 271.334 95.556ZM276.224 88.548C276.488 88.548 276.704 88.332 276.704 88.068C276.704 87.816 276.488 87.6 276.224 87.6C275.96 87.6 275.744 87.816 275.744 88.068C275.744 88.332 275.96 88.548 276.224 88.548ZM275.924 96H276.524V90H275.924V96ZM279.393 95.184H278.649L278.193 97.68H278.745L279.393 95.184ZM24.3785 110L22.2905 115.34L19.8665 110H19.2185L21.9785 116.108L21.8465 116.432C21.4745 117.308 20.8625 117.908 20.0585 117.836V118.4C21.0905 118.484 21.9785 117.704 22.4345 116.552L25.0265 110H24.3785ZM32.5117 109.868C31.7077 109.868 30.9397 110.252 30.5077 111.092C30.1957 110.3 29.5117 109.868 28.6357 109.868C27.8677 109.868 27.1477 110.204 26.7037 111.032V110H26.1037V116H26.7037V112.652C26.7037 111.116 27.5797 110.444 28.5637 110.444C29.4877 110.444 30.0997 111.056 30.0997 112.196V116H30.6997V112.652C30.6997 111.116 31.4917 110.444 32.4997 110.444C33.4357 110.444 34.0957 111.056 34.0957 112.196V116H34.6957V112.196C34.6957 110.696 33.7837 109.868 32.5117 109.868ZM36.3928 116H36.9928V107.24H36.3928V116ZM46.4692 110L42.6412 114.956V110H42.0412V116H42.5692L46.3852 111.044V116H46.9972V110H46.4692ZM56.249 110H51.281V110.588H53.465V116H54.065V110.588H56.249V110ZM61.8909 115.412V110H57.6789V113C57.6789 114.188 57.4389 114.836 57.0189 115.412H56.3229V117.608H56.9349V116H62.1189V117.608H62.7309V115.412H61.8909ZM57.7629 115.412C58.0989 114.8 58.2789 114.068 58.2789 113V110.588H61.2789V115.412H57.7629ZM64.217 117.2C65.057 115.52 65.537 113.72 65.537 111.8C65.537 109.88 65.057 108.08 64.217 106.4H63.605C64.445 108.08 64.925 109.88 64.925 111.8C64.925 113.72 64.445 115.52 63.605 117.2H64.217ZM74.8051 110L70.9771 114.956V110H70.3771V116H70.9051L74.7211 111.044V116H75.3331V110H74.8051ZM82.0577 110H77.8337V113.48C77.8337 115.028 77.3417 115.52 76.4177 115.436V116C77.5457 116.084 78.4337 115.58 78.4337 113.48V110.588H81.4577V116H82.0577V110ZM88.3286 110L84.5006 114.956V110H83.9006V116H84.4286L88.2446 111.044V116H88.8566V110H88.3286ZM98.8284 115.412V110H94.6164V113C94.6164 114.188 94.3764 114.836 93.9564 115.412H93.2604V117.608H93.8724V116H99.0564V117.608H99.6684V115.412H98.8284ZM94.7004 115.412C95.0364 114.8 95.2164 114.068 95.2164 113V110.588H98.2164V115.412H94.7004ZM103.5 116.132C105.24 116.132 106.644 114.776 106.644 113C106.644 111.224 105.24 109.868 103.5 109.868C101.748 109.868 100.344 111.224 100.344 113C100.344 114.776 101.748 116.132 103.5 116.132ZM103.5 115.556C102.072 115.556 100.956 114.428 100.956 113C100.956 111.572 102.072 110.444 103.5 110.444C104.928 110.444 106.032 111.572 106.032 113C106.032 114.428 104.928 115.556 103.5 115.556ZM110.836 116.132C112.012 116.132 113.02 115.532 113.5 114.608L112.996 114.308C112.6 115.052 111.808 115.556 110.836 115.556C109.384 115.556 108.292 114.428 108.292 113C108.292 111.572 109.384 110.444 110.836 110.444C111.796 110.444 112.612 110.936 112.96 111.692L113.452 111.404C113.02 110.468 112.012 109.868 110.836 109.868C109.024 109.868 107.68 111.224 107.68 113C107.68 114.776 109.024 116.132 110.836 116.132ZM118.897 110H113.929V110.588H116.113V116H116.713V110.588H118.897V110ZM124.375 110L122.287 115.34L119.863 110H119.215L121.975 116.108L121.843 116.432C121.471 117.308 120.859 117.908 120.055 117.836V118.4C121.087 118.484 121.975 117.704 122.431 116.552L125.023 110H124.375ZM131.056 110H126.1V116H126.7V110.588H130.444V116H131.056V110ZM139.804 112.904C140.32 112.652 140.572 112.16 140.572 111.572C140.572 110.696 139.96 110 138.784 110H136.108V116H139.012C140.26 116 140.86 115.256 140.86 114.344C140.86 113.66 140.5 113.132 139.804 112.904ZM138.784 110.588C139.54 110.588 139.96 110.972 139.96 111.608C139.96 112.28 139.552 112.664 138.784 112.664H136.708V110.588H138.784ZM139.012 115.412H136.708V113.252H139.012C139.804 113.252 140.26 113.66 140.26 114.32C140.26 115.004 139.816 115.412 139.012 115.412ZM150.261 110H146.037V113.48C146.037 115.028 145.545 115.52 144.621 115.436V116C145.749 116.084 146.637 115.58 146.637 113.48V110.588H149.661V116H150.261V110ZM156.532 110L152.704 114.956V110H152.104V116H152.632L156.448 111.044V116H157.06V110H156.532ZM162.896 110V113.084C162.332 113.336 161.684 113.468 161.048 113.468C159.908 113.468 159.272 113 159.272 111.956V110H158.672V111.956C158.672 113.324 159.548 114.044 161.072 114.044C161.72 114.044 162.368 113.912 162.896 113.648V116H163.508V110H162.896ZM169.702 110V112.712H165.958V110H165.358V116H165.958V113.288H169.702V116H170.314V110H169.702ZM174.542 112.328H172.766V110H172.166V116H174.542C175.61 116 176.522 115.268 176.522 114.164C176.522 113.06 175.61 112.328 174.542 112.328ZM177.446 110V116H178.046V110H177.446ZM174.542 115.412H172.766V112.916H174.542C175.298 112.916 175.91 113.396 175.91 114.164C175.91 114.92 175.298 115.412 174.542 115.412ZM180.837 108.956H183.873V108.428H180.837V108.956ZM184.317 110L180.489 114.956V110H179.889V116H180.417L184.233 111.044V116H184.845V110H184.317ZM194.493 116L191.145 112.88L194.373 110H193.533L190.497 112.724V110H189.897V116H190.497V113.048L193.677 116H194.493ZM200.38 110V111.356C199.876 110.456 198.952 109.868 197.8 109.868C196.096 109.868 194.692 111.224 194.692 113C194.692 114.776 196.096 116.132 197.8 116.132C198.952 116.132 199.876 115.544 200.38 114.644V116H200.992V110H200.38ZM197.848 115.556C196.42 115.556 195.304 114.428 195.304 113C195.304 111.572 196.42 110.444 197.848 110.444C199.276 110.444 200.38 111.572 200.38 113C200.38 114.428 199.276 115.556 197.848 115.556ZM205.45 116.144C207.142 116.144 208.366 114.956 208.366 113.348C208.366 111.704 207.166 110.54 205.582 110.54C204.754 110.54 203.734 110.912 203.134 111.848C203.326 110.792 203.818 110.252 204.994 109.724C206.218 109.16 207.478 108.872 207.682 107.72L207.202 107.444C207.034 108.464 205.978 108.62 204.67 109.244C202.762 110.18 202.426 111.188 202.426 113.06C202.426 114.92 203.746 116.144 205.45 116.144ZM205.45 115.544C204.082 115.544 203.074 114.572 203.074 113.192C203.17 111.92 204.346 111.128 205.51 111.128C206.842 111.128 207.754 112.064 207.754 113.348C207.754 114.62 206.806 115.544 205.45 115.544ZM214.118 110L210.29 114.956V110H209.69V116H210.218L214.034 111.044V116H214.646V110H214.118ZM220.842 110V112.712H217.098V110H216.498V116H217.098V113.288H220.842V116H221.454V110H220.842ZM226.007 109.868C224.171 109.868 222.899 111.236 222.899 113C222.899 114.812 224.207 116.132 226.055 116.132C227.243 116.132 228.179 115.592 228.671 114.776L228.143 114.464C227.795 115.1 227.051 115.556 226.067 115.556C224.699 115.556 223.667 114.668 223.523 113.312H228.959C228.959 113.216 228.971 113.12 228.971 113.024C228.971 111.38 227.831 109.868 226.007 109.868ZM226.007 110.444C227.183 110.444 228.215 111.26 228.347 112.724H223.523C223.643 111.392 224.639 110.444 226.007 110.444ZM234.339 110H229.371V110.588H231.555V116H232.155V110.588H234.339V110ZM242.967 110V112.712H239.223V110H238.623V116H239.223V113.288H242.967V116H243.579V110H242.967ZM250.712 110V111.356C250.208 110.456 249.284 109.868 248.132 109.868C246.428 109.868 245.024 111.224 245.024 113C245.024 114.776 246.428 116.132 248.132 116.132C249.284 116.132 250.208 115.544 250.712 114.644V116H251.324V110H250.712ZM248.18 115.556C246.752 115.556 245.636 114.428 245.636 113C245.636 111.572 246.752 110.444 248.18 110.444C249.608 110.444 250.712 111.572 250.712 113C250.712 114.428 249.608 115.556 248.18 115.556ZM259.113 116.132C260.289 116.132 261.297 115.532 261.777 114.608L261.273 114.308C260.877 115.052 260.085 115.556 259.113 115.556C257.661 115.556 256.569 114.428 256.569 113C256.569 111.572 257.661 110.444 259.113 110.444C260.073 110.444 260.889 110.936 261.237 111.692L261.729 111.404C261.297 110.468 260.289 109.868 259.113 109.868C257.301 109.868 255.957 111.224 255.957 113C255.957 114.776 257.301 116.132 259.113 116.132ZM268.313 110V111.356C267.809 110.456 266.885 109.868 265.733 109.868C264.029 109.868 262.625 111.224 262.625 113C262.625 114.776 264.029 116.132 265.733 116.132C266.885 116.132 267.809 115.544 268.313 114.644V116H268.925V110H268.313ZM265.781 115.556C264.353 115.556 263.237 114.428 263.237 113C263.237 111.572 264.353 110.444 265.781 110.444C267.209 110.444 268.313 111.572 268.313 113C268.313 114.428 267.209 115.556 265.781 115.556ZM271.716 108.956H274.752V108.428H271.716V108.956ZM275.196 110L271.368 114.956V110H270.768V116H271.296L275.112 111.044V116H275.724V110H275.196ZM281.776 110H276.808V110.588H278.992V116H279.592V110.588H281.776V110ZM120.362 130H115.406V136H116.006V130.588H119.75V136H120.362V130ZM124.963 136.132C126.703 136.132 128.107 134.776 128.107 133C128.107 131.224 126.703 129.868 124.963 129.868C123.211 129.868 121.807 131.224 121.807 133C121.807 134.776 123.211 136.132 124.963 136.132ZM124.963 135.556C123.535 135.556 122.419 134.428 122.419 133C122.419 131.572 123.535 130.444 124.963 130.444C126.391 130.444 127.495 131.572 127.495 133C127.495 134.428 126.391 135.556 124.963 135.556ZM132.299 136.132C133.475 136.132 134.483 135.532 134.963 134.608L134.459 134.308C134.063 135.052 133.271 135.556 132.299 135.556C130.847 135.556 129.755 134.428 129.755 133C129.755 131.572 130.847 130.444 132.299 130.444C133.259 130.444 134.075 130.936 134.423 131.692L134.915 131.404C134.483 130.468 133.475 129.868 132.299 129.868C130.487 129.868 129.143 131.224 129.143 133C129.143 134.776 130.487 136.132 132.299 136.132ZM140.36 130H135.392V130.588H137.576V136H138.176V130.588H140.36V130ZM146.491 130V131.356C145.987 130.456 145.063 129.868 143.911 129.868C142.207 129.868 140.803 131.224 140.803 133C140.803 134.776 142.207 136.132 143.911 136.132C145.063 136.132 145.987 135.544 146.491 134.644V136H147.103V130H146.491ZM143.959 135.556C142.531 135.556 141.415 134.428 141.415 133C141.415 131.572 142.531 130.444 143.959 130.444C145.387 130.444 146.491 131.572 146.491 133C146.491 134.428 145.387 135.556 143.959 135.556ZM152.641 132.904C153.157 132.652 153.409 132.16 153.409 131.572C153.409 130.696 152.797 130 151.621 130H148.945V136H151.849C153.097 136 153.697 135.256 153.697 134.344C153.697 133.66 153.337 133.132 152.641 132.904ZM151.621 130.588C152.377 130.588 152.797 130.972 152.797 131.608C152.797 132.28 152.389 132.664 151.621 132.664H149.545V130.588H151.621ZM151.849 135.412H149.545V133.252H151.849C152.641 133.252 153.097 133.66 153.097 134.32C153.097 135.004 152.653 135.412 151.849 135.412ZM162.984 135.412V130H162.372V135.412H159.312V130H158.7V135.412H155.628V130H155.028V136H163.212V137.608H163.824V135.412H162.984ZM169.569 130L165.741 134.956V130H165.141V136H165.669L169.485 131.044V136H170.097V130H169.569ZM176.545 136L173.197 132.88L176.425 130H175.585L172.549 132.724V130H171.949V136H172.549V133.048L175.729 136H176.545ZM182.433 130V131.356C181.929 130.456 181.005 129.868 179.853 129.868C178.149 129.868 176.745 131.224 176.745 133C176.745 134.776 178.149 136.132 179.853 136.132C181.005 136.132 181.929 135.544 182.433 134.644V136H183.045V130H182.433ZM179.901 135.556C178.473 135.556 177.357 134.428 177.357 133C177.357 131.572 178.473 130.444 179.901 130.444C181.329 130.444 182.433 131.572 182.433 133C182.433 134.428 181.329 135.556 179.901 135.556ZM185.247 136.12C185.547 136.12 185.787 135.88 185.787 135.58C185.787 135.28 185.547 135.04 185.247 135.04C184.935 135.04 184.707 135.28 184.707 135.58C184.707 135.88 184.935 136.12 185.247 136.12Z" fill="#202020"/>
</svg>
