<svg width="23" height="23" viewBox="0 0 23 23" fill="none" xmlns="http://www.w3.org/2000/svg">
<path d="M22.2812 0H0.71875C0.2875 0 0 0.2875 0 0.71875V17.25C0 17.6812 0.2875 17.9688 0.71875 17.9688H3.30625L0.862498 21.1312C0.646873 21.4187 0.646876 21.9219 1.00625 22.1375C1.15 22.2094 1.29375 22.2812 1.4375 22.2812C1.65313 22.2812 1.86875 22.2094 2.0125 21.9938L5.175 17.9688H10.7812V19.0469L6.75625 21.7063C6.46875 21.85 6.39687 22.2094 6.46875 22.4969C6.54063 22.7844 6.82812 23 7.1875 23H15.8125C16.1 23 16.3875 22.7844 16.5312 22.4969C16.6031 22.2094 16.5313 21.85 16.2438 21.7063L12.2188 19.0469V17.9688H22.2812C22.7125 17.9688 23 17.6812 23 17.25V0.71875C23 0.2875 22.7125 0 22.2812 0ZM9.55938 21.5625L11.5 20.2688L13.4406 21.5625H9.55938ZM21.5625 16.5312H6.25312L7.40313 15.0938H20.125V2.875H2.875V15.0938H5.53437L4.38437 16.5312H1.4375V1.4375H21.5625V16.5312ZM11.9313 8.05001C11.6438 7.83438 11.1406 7.83437 10.925 8.19375L6.68438 13.6562H4.3125V4.3125H18.6875V13.6562H8.48125L12.075 9.05625C12.2906 8.76875 12.2188 8.26563 11.9313 8.05001Z" fill="#1E9EB0"/>
</svg>
