<svg width="124" height="79" viewBox="0 0 124 79" fill="none" xmlns="http://www.w3.org/2000/svg">
<path d="M113.588 60.3633C113.588 66.3199 108.764 71.1019 102.849 71.1019H21.3026C15.346 71.1019 10.564 66.278 10.564 60.3633V14.0531C10.564 8.09648 15.3879 3.31445 21.3026 3.31445H102.849C108.806 3.31445 113.588 8.13843 113.588 14.0531V60.3633Z" fill="#D0D1D1" stroke="#3C2415" stroke-miterlimit="10"/>
<path d="M117.992 73.7653H5.57229C3.05542 73.7653 1 71.4531 1 68.6218V68.5274C1 65.696 3.05542 63.3838 5.57229 63.3838H40.1372C41.7732 63.3838 43.3672 63.9501 44.6676 64.9882L46.5133 66.4039H73.6954L75.9186 64.7995C77.219 63.8557 78.6871 63.3838 80.2392 63.3838H117.95C120.467 63.3838 122.522 65.696 122.522 68.5274V68.6218C122.564 71.4531 120.509 73.7653 117.992 73.7653Z" fill="#D0D1D1" stroke="#3C2415" stroke-miterlimit="10"/>
<path d="M102.728 54.4065H23.8659C21.1393 54.4065 18.958 52.1833 18.958 49.4986V15.1435C18.958 12.4169 21.1812 10.2356 23.8659 10.2356H102.728C105.454 10.2356 107.635 12.4588 107.635 15.1435V49.4986C107.635 52.1833 105.412 54.4065 102.728 54.4065Z" fill="#E2EFFD" stroke="#3C2415" stroke-miterlimit="10"/>
<path d="M6.16501 70.0549C6.81369 70.0549 7.33954 69.529 7.33954 68.8803C7.33954 68.2317 6.81369 67.7058 6.16501 67.7058C5.51633 67.7058 4.99048 68.2317 4.99048 68.8803C4.99048 69.529 5.51633 70.0549 6.16501 70.0549Z" fill="#3C2415"/>
<path d="M11.02 70.0549C11.6687 70.0549 12.1945 69.529 12.1945 68.8803C12.1945 68.2317 11.6687 67.7058 11.02 67.7058C10.3713 67.7058 9.84546 68.2317 9.84546 68.8803C9.84546 69.529 10.3713 70.0549 11.02 70.0549Z" fill="#3C2415"/>
<path d="M15.8943 70.0549C16.543 70.0549 17.0688 69.529 17.0688 68.8803C17.0688 68.2317 16.543 67.7058 15.8943 67.7058C15.2456 67.7058 14.7197 68.2317 14.7197 68.8803C14.7197 69.529 15.2456 70.0549 15.8943 70.0549Z" fill="#3C2415"/>
<path d="M17.782 50.8831C17.782 50.8831 18.1176 56.1265 24.8292 55.9168" stroke="#FFFEFF" stroke-miterlimit="10" stroke-linecap="round"/>
<path d="M43.0745 55.9587H62.7899" stroke="#FFFEFF" stroke-miterlimit="10" stroke-linecap="round"/>
<path d="M92.4009 8.55758C92.4009 8.55758 106.579 7.63473 107.67 10.8647" stroke="#FFFEFF" stroke-miterlimit="10" stroke-linecap="round"/>
<path d="M7.12671 16.3594C7.12671 17.9114 7.12671 19.0021 7.12671 19.0021" stroke="#3C2415" stroke-miterlimit="10"/>
<path d="M11.0685 3.31445C8.59354 6.25079 7.08342 9.94218 7.12536 10.6972C7.12536 10.8231 7.12536 11.1167 7.12536 11.5781" stroke="#3C2415" stroke-miterlimit="10"/>
<path d="M110.113 77.63H118.628C118.628 77.63 120.264 77.2105 121.858 76.1199" stroke="#3C2415" stroke-miterlimit="10"/>
<path d="M96.0078 77.6245H104.062" stroke="#3C2415" stroke-miterlimit="10"/>
<path d="M49.2682 17.3065L48.06 30.713L34.6302 31.5146C34.6186 31.259 34.607 30.9918 34.607 30.7363C34.5953 23.3011 40.6248 17.2716 48.0483 17.26C48.4666 17.26 48.8732 17.2716 49.2682 17.3065Z" fill="#5ED2D1" stroke="#3C2415" stroke-miterlimit="10" stroke-linejoin="round"/>
<path d="M65.9222 31.0316C65.9222 33.0995 65.4691 35.0628 64.6327 36.8054L52.353 31.0432L53.5729 17.5437C60.4852 18.1594 65.9106 23.9565 65.9222 31.0316Z" fill="#F8981D" stroke="#3C2415" stroke-miterlimit="10" stroke-linejoin="round"/>
<path d="M61.2341 39.2579C59.1778 43.626 54.7399 46.6582 49.5934 46.6582C48.1761 46.6582 46.8168 46.4374 45.5505 46.0076L49.5818 33.7744L61.2341 39.2579Z" fill="#BCD4F4" stroke="#3C2415" stroke-miterlimit="10" stroke-linejoin="round"/>
<path d="M49.6492 33.7903L45.6179 46.0235C40.7154 44.4086 37.114 39.9243 36.8003 34.557L49.6492 33.7903Z" fill="#38707B" stroke="#3C2415" stroke-miterlimit="10" stroke-linejoin="round"/>
<path d="M61.0078 30.3054L69.6047 26.2045L80.1418 26.1929" stroke="#3C2415" stroke-miterlimit="10"/>
<path d="M41.9695 27.622L34.7434 23.9741L25.3101 23.9857" stroke="#3C2415" stroke-miterlimit="10"/>
<path d="M44.1823 39.2158L38.9893 44.6412L27.0117 44.6528" stroke="#3C2415" stroke-miterlimit="10"/>
<path d="M25.3716 26.6574L33.1785 26.6458" stroke="#3C2415" stroke-miterlimit="10"/>
<path d="M25.3716 29.0622L30.9727 29.0505" stroke="#3C2415" stroke-miterlimit="10"/>
<path d="M27.0181 47.2902L34.8134 47.2786" stroke="#3C2415" stroke-miterlimit="10"/>
<path d="M27.0181 49.695L32.6081 49.6833" stroke="#3C2415" stroke-miterlimit="10"/>
<path d="M41.9995 22C41.9995 22 44.7326 20.106 46.9995 20" stroke="white" stroke-miterlimit="10" stroke-linecap="round"/>
<path d="M79.0249 15.0601H70.8825C70.268 15.0601 69.7559 15.5784 69.7559 16.2003V22.0053C69.7559 22.6273 70.268 23.1456 70.8825 23.1456H79.0249C79.6395 23.1456 80.1515 22.6273 80.1515 22.0053V16.2003C80.1515 15.5265 79.6395 15.0601 79.0249 15.0601Z" fill="#F8981D"/>
<path d="M70.8941 15.0601H79.0974C79.6861 15.0601 80.1964 15.5703 80.2356 16.1983V22.0073C80.2356 22.6353 79.7254 23.1456 79.0974 23.1456H70.8941C70.2661 23.1456 69.7559 22.6353 69.7559 22.0073V16.1983C69.7559 15.5703 70.2661 15.0601 70.8941 15.0601Z" stroke="#3C2415" stroke-miterlimit="10"/>
<path d="M96.5177 31.1531C95.7529 31.1531 95.1287 31.7773 95.1287 32.5421V48.7678C95.1287 49.5323 95.7525 50.1555 96.5177 50.1555H100.575C101.338 50.1555 101.963 49.5341 101.963 48.7678V32.5421C101.963 31.7775 101.339 31.1531 100.575 31.1531H96.5177Z" fill="#D4E6FF" stroke="#3C2415" stroke-width="0.75"/>
<path d="M87.7294 37.2375C86.9646 37.2375 86.3403 37.8618 86.3403 38.6266V48.7679C86.3403 49.5324 86.9642 50.1556 87.7294 50.1556H91.7856C92.5496 50.1556 93.1747 49.5344 93.1747 48.7679V38.6266C93.1747 37.8627 92.5506 37.2375 91.7856 37.2375H87.7294Z" fill="#71CBCE" stroke="#3C2415" stroke-width="0.75"/>
<path d="M78.9376 34.1953C78.1722 34.1953 77.5479 34.8194 77.5479 35.5844V48.7686C77.5479 49.5334 78.1728 50.1562 78.9376 50.1562H82.9932C83.7577 50.1562 84.3829 49.5352 84.3829 48.7686V35.5844C84.3829 34.8194 83.7586 34.1953 82.9932 34.1953H78.9376Z" fill="#507299" stroke="#3C2415" stroke-width="0.75"/>
<path d="M70.1508 40.2805C69.3861 40.2805 68.7617 40.9038 68.7617 41.6696V48.7687C68.7617 49.5333 69.3865 50.1563 70.1508 50.1563H74.207C74.9712 50.1563 75.5961 49.5342 75.5961 48.7687V41.6696C75.5961 40.904 74.9726 40.2805 74.207 40.2805H70.1508Z" fill="#F8981D" stroke="#3C2415" stroke-width="0.75"/>
<path d="M96.1747 16.4113V15.0467L94.9918 14.3621L93.8088 15.0467V16.4113L94.9918 17.0959L96.1747 16.4113Z" fill="#3C2415"/>
<path d="M99.0695 16.4113V15.0467L97.8866 14.3621L96.699 15.0467V16.4113L97.8866 17.0959L99.0695 16.4113Z" fill="#3C2415"/>
<path d="M101.968 16.4113V15.0467L100.786 14.3621L99.5979 15.0467V16.4113L100.786 17.0959L101.968 16.4113Z" fill="#3C2415"/>
</svg>
