<svg width="132" height="26" viewBox="0 0 132 26" fill="none" xmlns="http://www.w3.org/2000/svg">
<path d="M9.05 1.2H0.0400001V25H5.48V17.52H9.05C13.742 17.52 17.38 13.882 17.38 9.36C17.38 4.838 13.742 1.2 9.05 1.2ZM9.05 12.42H5.48V6.3H9.05C10.716 6.3 11.94 7.626 11.94 9.36C11.94 11.094 10.716 12.42 9.05 12.42ZM24.6927 11.026V8H19.5927V25H24.6927V17.316C24.6927 13.95 27.6847 13.1 29.7927 13.44V7.66C27.6507 7.66 25.3727 8.748 24.6927 11.026ZM34.7266 6.504C36.3926 6.504 37.7866 5.11 37.7866 3.444C37.7866 1.778 36.3926 0.383999 34.7266 0.383999C33.0606 0.383999 31.6666 1.778 31.6666 3.444C31.6666 5.11 33.0606 6.504 34.7266 6.504ZM32.1766 25H37.2766V8H32.1766V25ZM49.1687 25.476C52.5007 25.476 55.3907 23.742 56.8527 21.09L52.3987 18.54C51.8547 19.73 50.5967 20.444 49.1007 20.444C46.8907 20.444 45.2587 18.846 45.2587 16.5C45.2587 14.154 46.8907 12.556 49.1007 12.556C50.5967 12.556 51.8207 13.27 52.3987 14.46L56.8527 11.876C55.3907 9.258 52.4667 7.524 49.1687 7.524C44.0007 7.524 40.1587 11.434 40.1587 16.5C40.1587 21.566 44.0007 25.476 49.1687 25.476ZM63.1291 18.54H75.1991C75.3351 17.894 75.4031 17.214 75.4031 16.5C75.4031 11.366 71.7311 7.524 66.7671 7.524C61.3951 7.524 57.7231 11.434 57.7231 16.5C57.7231 21.566 61.3271 25.476 67.1411 25.476C70.3711 25.476 72.8871 24.286 74.5531 21.974L70.4731 19.628C69.7931 20.376 68.6031 20.92 67.2091 20.92C65.3391 20.92 63.7751 20.308 63.1291 18.54ZM63.0271 14.732C63.5031 12.998 64.7951 12.046 66.7331 12.046C68.2631 12.046 69.7931 12.76 70.3371 14.732H63.0271ZM102.028 11.74H90.0938V16.5H96.4518C95.6018 18.778 93.5278 20.172 90.3658 20.172C85.7418 20.172 82.8858 17.214 82.8858 13.168C82.8858 8.986 85.8778 6.028 89.8898 6.028C92.5758 6.028 94.7178 7.252 95.7038 8.816L100.328 6.164C98.3218 2.968 94.4798 0.723998 89.9238 0.723998C82.9198 0.723998 77.4458 6.232 77.4458 13.134C77.4458 19.968 82.8178 25.476 90.2978 25.476C96.9618 25.476 102.028 21.056 102.028 13.78V11.74ZM107.475 6.504C109.141 6.504 110.535 5.11 110.535 3.444C110.535 1.778 109.141 0.383999 107.475 0.383999C105.809 0.383999 104.415 1.778 104.415 3.444C104.415 5.11 105.809 6.504 107.475 6.504ZM104.925 25H110.025V8H104.925V25ZM126.099 1.2V9.598C124.977 8.306 123.311 7.524 121.033 7.524C116.579 7.524 112.907 11.434 112.907 16.5C112.907 21.566 116.579 25.476 121.033 25.476C123.311 25.476 124.977 24.694 126.099 23.402V25H131.199V1.2H126.099ZM122.053 20.648C119.707 20.648 118.007 19.05 118.007 16.5C118.007 13.95 119.707 12.352 122.053 12.352C124.399 12.352 126.099 13.95 126.099 16.5C126.099 19.05 124.399 20.648 122.053 20.648Z" fill="white"/>
</svg>
