<svg width="194" height="32" viewBox="0 0 194 32" fill="none" xmlns="http://www.w3.org/2000/svg">
<path d="M0.65483 31V0.454545H12.706C15.0227 0.454545 16.9964 0.897016 18.6271 1.78196C20.2578 2.65696 21.5007 3.875 22.3558 5.43608C23.2209 6.98721 23.6534 8.77699 23.6534 10.8054C23.6534 12.8338 23.2159 14.6236 22.3409 16.1747C21.4659 17.7259 20.1982 18.9339 18.5376 19.799C16.8871 20.6641 14.8885 21.0966 12.5419 21.0966H4.8608V15.9212H11.4979C12.7408 15.9212 13.7649 15.7074 14.5703 15.2798C15.3857 14.8423 15.9922 14.2408 16.3899 13.4751C16.7976 12.6996 17.0014 11.8097 17.0014 10.8054C17.0014 9.79119 16.7976 8.90625 16.3899 8.15057C15.9922 7.38494 15.3857 6.79332 14.5703 6.37571C13.755 5.94815 12.7209 5.73438 11.468 5.73438H7.11293V31H0.65483ZM27.8482 31V0.454545H39.8993C42.2061 0.454545 44.1749 0.867187 45.8056 1.69247C47.4462 2.50781 48.6941 3.66619 49.5492 5.16761C50.4142 6.65909 50.8468 8.41406 50.8468 10.4325C50.8468 12.4609 50.4093 14.206 49.5343 15.6676C48.6593 17.1193 47.3915 18.233 45.731 19.0085C44.0804 19.7841 42.0819 20.1719 39.7353 20.1719H31.6664V14.9815H38.6912C39.9242 14.9815 40.9483 14.8125 41.7637 14.4744C42.579 14.1364 43.1855 13.6293 43.5833 12.9531C43.9909 12.277 44.1948 11.4368 44.1948 10.4325C44.1948 9.41832 43.9909 8.56321 43.5833 7.86719C43.1855 7.17116 42.574 6.64417 41.7488 6.28622C40.9334 5.91832 39.9043 5.73438 38.6614 5.73438H34.3063V31H27.8482ZM44.3439 17.0994L51.9355 31H44.8063L37.3787 17.0994H44.3439ZM61.8688 0.454545V31H55.4107V0.454545H61.8688ZM94.1332 11.1484H87.6005C87.4812 10.3033 87.2376 9.55256 86.8697 8.89631C86.5018 8.23011 86.0295 7.66335 85.4528 7.19602C84.8761 6.72869 84.2099 6.37074 83.4542 6.12216C82.7085 5.87358 81.8981 5.74929 81.0231 5.74929C79.4421 5.74929 78.065 6.14205 76.8917 6.92756C75.7184 7.70312 74.8086 8.83665 74.1623 10.3281C73.516 11.8097 73.1928 13.6094 73.1928 15.7273C73.1928 17.9048 73.516 19.7344 74.1623 21.2159C74.8185 22.6974 75.7333 23.8161 76.9066 24.5717C78.0799 25.3274 79.4371 25.7053 80.9783 25.7053C81.8434 25.7053 82.6438 25.5909 83.3796 25.3622C84.1254 25.1335 84.7866 24.8004 85.3633 24.3629C85.94 23.9155 86.4173 23.3736 86.7951 22.7372C87.1829 22.1009 87.4514 21.375 87.6005 20.5597L94.1332 20.5895C93.9641 21.9915 93.5416 23.3438 92.8654 24.6463C92.1992 25.9389 91.2994 27.0973 90.1658 28.1214C89.0423 29.1357 87.6999 29.9411 86.1389 30.5376C84.5877 31.1243 82.8327 31.4176 80.8739 31.4176C78.1495 31.4176 75.7134 30.8011 73.5657 29.5682C71.4279 28.3352 69.7376 26.5504 68.4947 24.2138C67.2617 21.8771 66.6452 19.0483 66.6452 15.7273C66.6452 12.3963 67.2717 9.5625 68.5245 7.22585C69.7773 4.8892 71.4776 3.10937 73.6254 1.88636C75.7731 0.653408 78.1893 0.0369307 80.8739 0.0369307C82.6438 0.0369307 84.2844 0.28551 85.7958 0.78267C87.3171 1.27983 88.6644 2.00568 89.8377 2.96023C91.011 3.90483 91.9656 5.06321 92.7014 6.43537C93.4471 7.80753 93.9244 9.37855 94.1332 11.1484ZM98.7642 31V0.454545H119.347V5.77912H105.222V13.0575H118.288V18.3821H105.222V25.6754H119.406V31H98.7642ZM144.735 10.3281C144.526 9.60227 144.233 8.96094 143.855 8.40412C143.477 7.83736 143.015 7.36009 142.468 6.9723C141.931 6.57457 141.315 6.27131 140.619 6.0625C139.933 5.85369 139.172 5.74929 138.337 5.74929C136.776 5.74929 135.404 6.13707 134.22 6.91264C133.047 7.68821 132.132 8.81676 131.476 10.2983C130.82 11.7699 130.492 13.5696 130.492 15.6974C130.492 17.8253 130.815 19.6349 131.461 21.1264C132.107 22.6179 133.022 23.7564 134.205 24.5419C135.389 25.3175 136.786 25.7053 138.396 25.7053C139.858 25.7053 141.106 25.4467 142.14 24.9297C143.184 24.4027 143.98 23.6619 144.526 22.7074C145.083 21.7528 145.362 20.6243 145.362 19.3217L146.674 19.5156H138.799V14.6534H151.581V18.5014C151.581 21.1861 151.014 23.4929 149.881 25.4219C148.747 27.3409 147.186 28.8224 145.198 29.8665C143.209 30.9006 140.932 31.4176 138.367 31.4176C135.503 31.4176 132.987 30.7862 130.82 29.5234C128.652 28.2507 126.962 26.446 125.749 24.1094C124.546 21.7628 123.944 18.9787 123.944 15.7571C123.944 13.2812 124.302 11.0739 125.018 9.13494C125.744 7.18608 126.758 5.53551 128.061 4.18324C129.363 2.83096 130.879 1.80185 132.61 1.09588C134.34 0.389914 136.214 0.0369307 138.232 0.0369307C139.963 0.0369307 141.573 0.290482 143.065 0.797585C144.556 1.29474 145.879 2.00071 147.032 2.91548C148.195 3.83025 149.145 4.91903 149.881 6.18182C150.617 7.43466 151.089 8.81676 151.298 10.3281H144.735ZM162.89 0.454545V31H156.432V0.454545H162.89ZM179.032 31H168.204V0.454545H179.121C182.194 0.454545 184.839 1.06605 187.056 2.28906C189.273 3.50213 190.979 5.24716 192.172 7.52415C193.375 9.80114 193.976 12.5256 193.976 15.6974C193.976 18.8793 193.375 21.6136 192.172 23.9006C190.979 26.1875 189.263 27.9425 187.026 29.1655C184.799 30.3885 182.134 31 179.032 31ZM174.662 25.4666H178.763C180.672 25.4666 182.278 25.1286 183.581 24.4524C184.893 23.7663 185.878 22.7074 186.534 21.2756C187.2 19.8338 187.533 17.9744 187.533 15.6974C187.533 13.4403 187.2 11.5959 186.534 10.1641C185.878 8.73224 184.898 7.67827 183.596 7.00213C182.293 6.32599 180.687 5.98793 178.778 5.98793H174.662V25.4666Z" fill="#A05F83"/>
</svg>
