<svg width="108" height="76" viewBox="0 0 108 76" fill="none" xmlns="http://www.w3.org/2000/svg">
<path d="M103.779 64.767C103.779 68.4097 101.552 71.3515 98.8161 71.3515H6.78445C4.04893 71.3515 1.82202 68.396 1.82202 64.767V61.0967C1.82202 57.4539 4.04893 54.5122 6.78445 54.5122H98.8161C101.552 54.5122 103.779 57.4677 103.779 61.0967V64.767Z" fill="#5ED2D1"/>
<path d="M98.8161 54.5122H6.78445C4.04893 54.5122 1.82202 57.4677 1.82202 61.0967V64.767C1.82202 65.2756 1.86326 65.7567 1.94574 66.2241C2.44061 63.2824 4.42008 61.0967 6.78445 61.0967H98.8161C101.18 61.0967 103.146 63.2961 103.655 66.2241C103.737 65.7567 103.779 65.2618 103.779 64.767V61.0967C103.779 57.4539 101.552 54.5122 98.8161 54.5122Z" fill="#36B6BF"/>
<path d="M98.8189 72.4652H6.78721C3.59806 72.4652 1 69.0149 1 64.781V61.1107C1 56.8769 3.59806 53.4265 6.78721 53.4265H98.8189C102.008 53.4265 104.606 56.8769 104.606 61.1107V64.781C104.606 69.0149 102.008 72.4652 98.8189 72.4652ZM6.78721 55.6122C4.50531 55.6122 2.64956 58.0728 2.64956 61.1107V64.781C2.64956 67.8052 4.50531 70.2795 6.78721 70.2795H98.8189C101.101 70.2795 102.957 67.8189 102.957 64.781V61.1107C102.957 58.0865 101.101 55.6122 98.8189 55.6122H6.78721Z" fill="#38707B" stroke="#3C2415" stroke-miterlimit="10"/>
<path d="M9.96344 70.4034C14.0023 70.4034 17.2765 67.1293 17.2765 63.0904C17.2765 59.0515 14.0023 55.7773 9.96344 55.7773C5.92455 55.7773 2.65039 59.0515 2.65039 63.0904C2.65039 67.1293 5.92455 70.4034 9.96344 70.4034Z" fill="#BCD4F4" stroke="#3C2415" stroke-miterlimit="10"/>
<path d="M9.94733 65.5399C11.2987 65.5399 12.3942 64.4445 12.3942 63.0931C12.3942 61.7417 11.2987 60.6462 9.94733 60.6462C8.59598 60.6462 7.50049 61.7417 7.50049 63.0931C7.50049 64.4445 8.59598 65.5399 9.94733 65.5399Z" fill="#36B6BF" stroke="#3C2415" stroke-miterlimit="10"/>
<path d="M96.3492 70.4034C100.388 70.4034 103.662 67.1293 103.662 63.0904C103.662 59.0515 100.388 55.7773 96.3492 55.7773C92.3103 55.7773 89.0361 59.0515 89.0361 63.0904C89.0361 67.1293 92.3103 70.4034 96.3492 70.4034Z" fill="#BCD4F4" stroke="#3C2415" stroke-miterlimit="10"/>
<path d="M96.3504 65.5399C97.7018 65.5399 98.7973 64.4445 98.7973 63.0931C98.7973 61.7417 97.7018 60.6462 96.3504 60.6462C94.9991 60.6462 93.9036 61.7417 93.9036 63.0931C93.9036 64.4445 94.9991 65.5399 96.3504 65.5399Z" fill="#36B6BF" stroke="#3C2415" stroke-miterlimit="10"/>
<path d="M25.6736 61.2905C27.192 61.2905 28.4228 60.0596 28.4228 58.5413C28.4228 57.0229 27.192 55.792 25.6736 55.792C24.1552 55.792 22.9243 57.0229 22.9243 58.5413C22.9243 60.0596 24.1552 61.2905 25.6736 61.2905Z" fill="#FFFEFF" stroke="#3C2415" stroke-miterlimit="10"/>
<path d="M38.448 61.2905C39.9664 61.2905 41.1973 60.0596 41.1973 58.5413C41.1973 57.0229 39.9664 55.792 38.448 55.792C36.9296 55.792 35.6987 57.0229 35.6987 58.5413C35.6987 60.0596 36.9296 61.2905 38.448 61.2905Z" fill="#FFFEFF" stroke="#3C2415" stroke-miterlimit="10"/>
<path d="M51.2205 61.2905C52.7388 61.2905 53.9697 60.0596 53.9697 58.5413C53.9697 57.0229 52.7388 55.792 51.2205 55.792C49.7021 55.792 48.4712 57.0229 48.4712 58.5413C48.4712 60.0596 49.7021 61.2905 51.2205 61.2905Z" fill="#FFFEFF" stroke="#3C2415" stroke-miterlimit="10"/>
<path d="M63.9841 61.2905C65.5025 61.2905 66.7334 60.0596 66.7334 58.5413C66.7334 57.0229 65.5025 55.792 63.9841 55.792C62.4658 55.792 61.2349 57.0229 61.2349 58.5413C61.2349 60.0596 62.4658 61.2905 63.9841 61.2905Z" fill="#FFFEFF" stroke="#3C2415" stroke-miterlimit="10"/>
<path d="M76.7478 61.2905C78.2662 61.2905 79.4971 60.0596 79.4971 58.5413C79.4971 57.0229 78.2662 55.792 76.7478 55.792C75.2294 55.792 73.9985 57.0229 73.9985 58.5413C73.9985 60.0596 75.2294 61.2905 76.7478 61.2905Z" fill="#FFFEFF" stroke="#3C2415" stroke-miterlimit="10"/>
<path d="M21.7356 74.7073H35.2895" stroke="#3C2415" stroke-miterlimit="10" stroke-linecap="round"/>
<path d="M36.9351 74.7073H39.4919" stroke="#3C2415" stroke-miterlimit="10" stroke-linecap="round"/>
<path d="M41.1768 74.7073H42.9638" stroke="#3C2415" stroke-miterlimit="10" stroke-linecap="round"/>
<path d="M106.324 59.4612C106.324 59.4612 106.943 66.1831 106.324 67.8327" stroke="#3C2415" stroke-miterlimit="10" stroke-linecap="round"/>
<path d="M105.502 69.6223C105.502 69.6223 104.499 71.8217 103.537 72.4541" stroke="#3C2415" stroke-miterlimit="10" stroke-linecap="round"/>
<path d="M101.778 73.6067C101.778 73.6067 100.609 74.6652 93.7913 74.5277" stroke="#3C2415" stroke-miterlimit="10" stroke-linecap="round"/>
<path d="M26.9141 39.4339L31.1893 38.9116L31.2305 38.9666L35.2032 44.1489L44.4132 37.097L40.468 31.9559L40.3856 31.8459L42.3925 26.7186L42.6674 26.6773L48.9358 25.7976L47.3137 14.3056L41.1553 15.1854L40.7705 15.2404C40.7705 15.2404 39.8907 13.9757 39.2996 13.1922C38.6535 12.3399 37.9387 11.1852 37.9387 11.1852L38.0212 10.9928L40.4268 5.05436L29.6772 0.696777L27.3953 6.33277L27.2028 6.81389C25.3883 6.71767 23.56 6.93761 21.7868 7.45997L21.4568 7.03383L17.7453 2.31884L8.63151 9.49443L12.2743 14.1132L12.6042 14.5256C11.6695 16.0514 11.0096 17.7147 10.6247 19.433L10.1024 19.5017L4.59009 20.2853L6.2259 31.7635L11.7932 30.9662L12.3155 30.8975C12.6729 31.5435 13.0853 32.1621 13.539 32.7532C14.295 33.7429 15.1335 34.6227 16.0545 35.3925L15.8621 35.8736L13.7039 41.3859L24.5085 45.606L26.8179 39.6814L26.9141 39.4339ZM20.1509 27.7358C17.5254 24.2855 18.199 19.3505 21.663 16.725C25.1134 14.0994 30.0483 14.773 32.6739 18.2371C35.2994 21.6874 34.6258 26.6223 31.1618 29.2341C27.7114 31.8734 22.7765 31.1999 20.1509 27.7358Z" fill="#456180" stroke="#3C2415" stroke-miterlimit="10"/>
<path d="M40.4926 31.9697C41.5373 30.3339 42.2659 28.5468 42.692 26.6911C43.558 22.8833 43.0907 18.8007 41.1662 15.1991C40.7538 14.4156 40.2589 13.6458 39.7091 12.9172C39.1867 12.2299 38.6231 11.5976 38.032 11.0203C35.104 8.17476 31.31 6.58019 27.4061 6.3465C25.4129 6.22278 23.4059 6.45647 21.4539 7.06131C19.6531 7.62491 17.9074 8.50468 16.3265 9.71435C14.677 10.9653 13.3161 12.4774 12.2714 14.1407C11.2266 15.8177 10.4981 17.646 10.0857 19.5292C9.27466 23.3507 9.79702 27.4334 11.7628 31.0074C12.1614 31.7222 12.6013 32.4233 13.1099 33.0969C13.9209 34.1691 14.8419 35.1038 15.8317 35.9286C18.9658 38.4992 22.8835 39.7913 26.815 39.6951C28.2996 39.6539 29.7842 39.4202 31.2276 38.994C33.0833 38.4305 34.8566 37.5369 36.4924 36.2998C38.1282 35.0489 39.4616 33.5917 40.4926 31.9697ZM20.1618 27.7358C17.5362 24.2855 18.2098 19.3505 21.6739 16.725C25.1242 14.0994 30.0591 14.773 32.6847 18.2371C35.3102 21.6874 34.6367 26.6223 31.1726 29.2342C27.7222 31.8734 22.7873 31.1999 20.1618 27.7358Z" fill="#507097" stroke="#3C2415" stroke-miterlimit="10"/>
<path d="M71.3175 33.0764H50.9521V53.4293H71.3175V33.0764Z" fill="#F8981D"/>
<path d="M71.325 33.0764H67.1648V53.4293H71.325V33.0764Z" fill="#F18404"/>
<path d="M64.826 42.4294L61.1432 40.7457L57.4604 42.4294V33.0764H64.826V42.4294Z" fill="#D4E6FF" stroke="#3C2415" stroke-width="0.95" stroke-linecap="round" stroke-linejoin="round"/>
<path d="M71.3175 33.0764H50.9521V53.4293H71.3175V33.0764Z" stroke="#3C2415" stroke-width="0.95" stroke-linecap="round" stroke-linejoin="round"/>
<path d="M62.6384 47.0774H69.0221" stroke="#3C2415" stroke-width="0.75" stroke-linecap="round" stroke-linejoin="round"/>
<path d="M62.6384 48.6689H69.0221" stroke="#3C2415" stroke-width="0.75" stroke-linecap="round" stroke-linejoin="round"/>
<path d="M62.6384 50.2637H66.1082" stroke="#3C2415" stroke-width="0.75" stroke-linecap="round" stroke-linejoin="round"/>
<path d="M91.6801 33.0764H71.3147V53.4293H91.6801V33.0764Z" fill="#F8981D"/>
<path d="M91.6822 33.0764H87.522V53.4293H91.6822V33.0764Z" fill="#F18404"/>
<path d="M85.1873 42.4294L81.5045 40.7457L77.8218 42.4294V33.0764H85.1873V42.4294Z" fill="#D4E6FF" stroke="#3C2415" stroke-width="0.95" stroke-linecap="round" stroke-linejoin="round"/>
<path d="M91.6801 33.0764H71.3147V53.4293H91.6801V33.0764Z" stroke="#3C2415" stroke-width="0.95" stroke-linecap="round" stroke-linejoin="round"/>
<path d="M82.9934 47.0774H89.377" stroke="#3C2415" stroke-width="0.75" stroke-linecap="round" stroke-linejoin="round"/>
<path d="M82.9934 48.6689H89.377" stroke="#3C2415" stroke-width="0.75" stroke-linecap="round" stroke-linejoin="round"/>
<path d="M82.9934 50.2637H86.4631" stroke="#3C2415" stroke-width="0.75" stroke-linecap="round" stroke-linejoin="round"/>
<path d="M83.3434 12.7227H62.978V33.0755H83.3434V12.7227Z" fill="#F8981D"/>
<path d="M83.3556 12.7227H79.1953V33.0755H83.3556V12.7227Z" fill="#F18404"/>
<path d="M76.8543 22.0756L73.1715 20.392L69.4888 22.0756V12.7227H76.8543V22.0756Z" fill="#D4E6FF" stroke="#3C2415" stroke-width="0.95" stroke-linecap="round" stroke-linejoin="round"/>
<path d="M83.3434 12.7227H62.978V33.0755H83.3434V12.7227Z" stroke="#3C2415" stroke-width="0.95" stroke-linecap="round" stroke-linejoin="round"/>
<path d="M74.656 26.7246H81.0396" stroke="#3C2415" stroke-width="0.75" stroke-linecap="round" stroke-linejoin="round"/>
<path d="M74.656 28.3164H81.0396" stroke="#3C2415" stroke-width="0.75" stroke-linecap="round" stroke-linejoin="round"/>
<path d="M74.656 29.9102H78.1257" stroke="#3C2415" stroke-width="0.75" stroke-linecap="round" stroke-linejoin="round"/>
</svg>
