<svg width="48" height="29" viewBox="0 0 48 29" fill="none" xmlns="http://www.w3.org/2000/svg">
<path d="M33.0708 0.099976C29.4581 0.100942 26.1653 1.47018 23.6839 3.71909C21.2003 1.47307 17.9096 0.102874 14.3011 0.102874C14.271 0.102874 14.2402 0.102874 14.2115 0.102874C6.52696 0.153085 0.304688 6.40442 0.304688 14.0994C0.304688 21.8253 6.57525 28.095 14.3004 28.095C17.9089 28.095 21.1996 26.7267 23.6825 24.4787C23.1638 24.0104 22.6941 23.4919 22.251 22.9493H25.1412C24.7058 23.4832 24.2306 23.9834 23.7196 24.4489H23.7182C23.7063 24.4614 23.6937 24.4692 23.6825 24.4797C26.1668 26.7297 29.4616 28.1008 33.0757 28.0998C40.8051 28.097 47.0693 21.8281 47.0672 14.0994C47.0672 14.0965 47.0672 14.0946 47.0672 14.0927C47.0679 6.36389 40.8002 0.098044 33.0708 0.099976ZM22.4113 5.16459H25.0719C25.4639 5.63968 25.828 6.13989 26.1577 6.66321H21.4117C21.7183 6.16306 22.0543 5.64836 22.4113 5.16459ZM20.5857 8.13292H26.9655C27.1922 8.61767 27.3931 9.1188 27.5688 9.63253H19.8297C19.9067 9.48763 20.1769 8.90446 20.5857 8.13292ZM6.01805 17.6644L6.86715 12.313L4.95197 17.6644H3.92577L3.79277 12.313L2.88558 17.6644H1.44778L2.63917 10.5672H4.81405L4.89036 14.9221L6.35895 10.5672H8.71795L7.54265 17.6644H6.01805ZM11.1021 17.6529L11.1511 17.0861C11.128 17.089 10.6744 17.7707 9.62305 17.7707C9.07215 17.7707 8.18385 17.4704 8.18385 16.1649C8.18385 14.505 9.53765 13.9546 10.827 13.9546C11.03 13.9546 11.4668 13.9913 11.4668 13.9913C11.4668 13.9913 11.5165 13.8899 11.5165 13.6156C11.5165 13.1647 11.1105 13.1029 10.5554 13.1029C9.57755 13.1029 8.93145 13.3646 8.93145 13.3646L9.14774 12.0803C9.14774 12.0803 9.93174 11.752 10.9523 11.752C11.4808 11.752 12.9998 11.808 12.9998 13.549L12.4146 17.6529H11.1021ZM16.6475 15.8453C16.6475 17.8257 14.7288 17.7407 14.3942 17.7407C13.1433 17.7407 12.7569 17.5679 12.7212 17.5582L12.9207 16.2546C12.9221 16.2431 13.5479 16.4816 14.2444 16.4816C14.6462 16.4816 15.1677 16.442 15.1677 15.9621C15.1677 15.2437 13.3015 15.4155 13.3015 13.7093C13.3015 12.2039 14.4201 11.7636 15.5226 11.7636C16.3745 11.7636 16.8974 11.8804 16.8974 11.8804L16.7091 13.1956C16.7091 13.1956 15.9013 13.129 15.692 13.129C15.1614 13.129 14.873 13.2449 14.873 13.6156C14.8716 14.3611 16.6475 13.9961 16.6475 15.8453ZM18.9519 16.3647C19.0842 16.3647 19.2333 16.3194 19.3362 16.3194L19.1493 17.5853C19.0002 17.6268 18.576 17.7774 18.0321 17.7813C17.3384 17.7871 16.8449 17.3989 16.8449 16.5182C16.8449 15.9273 17.6912 11.0577 17.7241 11.0259H19.2144L19.0625 11.8969H19.8059L19.6162 13.2999H18.8273L18.408 15.8848C18.3758 16.0905 18.4332 16.3647 18.9519 16.3647ZM22.2286 11.7327C23.8645 11.7327 24.3545 12.9301 24.3545 13.9121C24.3545 14.3051 24.1571 15.2707 24.1571 15.2707H21.1289C21.1289 15.2707 20.8489 16.4632 22.4491 16.4632C23.1995 16.4632 24.0318 16.0963 24.0318 16.0963L23.7693 17.5322C23.7693 17.5322 23.2884 17.7774 22.195 17.7774C21.0106 17.7774 19.6211 17.2763 19.6211 15.1712C19.6218 13.3472 20.7306 11.7327 22.2286 11.7327ZM26.1752 21.5076H21.2101C20.9077 21.0248 20.6263 20.5294 20.3834 20.009H26.9913C26.7477 20.5265 26.4755 21.0267 26.1752 21.5076ZM25.8419 17.6751H24.3125L25.2428 11.8988H26.6301L26.4971 12.736C26.4971 12.736 26.9913 11.8254 27.6584 11.8254C27.8523 11.8254 27.9461 11.8447 27.9461 11.8447C27.748 12.2483 27.5738 12.6181 27.3918 13.5732C26.3572 13.2062 26.2773 15.2079 25.8419 17.6751ZM31.6694 17.5853C31.6694 17.5853 30.8679 17.79 30.366 17.79C28.5873 17.79 27.6844 16.5627 27.6844 14.7039C27.6844 11.9007 29.358 10.4079 31.0779 10.4079C31.8549 10.4079 32.7558 10.7729 32.7558 10.7729L32.5129 12.3517C32.5129 12.3517 31.9032 11.9259 31.1451 11.9259C30.1315 11.9259 29.2215 12.8934 29.2215 14.6518C29.2215 15.5179 29.6457 16.3251 30.7041 16.3251C31.2074 16.3251 31.9361 15.9592 31.9361 15.9592L31.6694 17.5853ZM35.2569 17.6557L35.3073 17.0851C35.2828 17.088 34.8292 17.7697 33.7785 17.7697C33.2283 17.7697 32.34 17.4694 32.34 16.1639C32.34 14.504 33.6938 13.9536 34.9818 13.9536C35.1848 13.9536 35.623 13.9903 35.623 13.9903C35.623 13.9903 35.6734 13.8899 35.6734 13.6156C35.6734 13.1647 35.2674 13.1029 34.7116 13.1029C33.733 13.1029 33.0883 13.3646 33.0883 13.3646L33.3046 12.0803C33.3046 12.0803 34.0886 11.752 35.1099 11.752C35.6377 11.752 37.1574 11.808 37.156 13.549L36.5708 17.6529C36.5701 17.6557 35.2569 17.6557 35.2569 17.6557ZM38.3537 17.6751H36.8242L37.7538 11.8988H39.1426L39.0096 12.736C39.0096 12.736 39.5045 11.8254 40.1716 11.8254C40.3662 11.8254 40.4586 11.8447 40.4586 11.8447C40.2619 12.2483 40.0848 12.6181 39.9042 13.5732C38.8682 13.2062 38.7891 15.2079 38.3537 17.6751ZM42.9198 17.6596L42.9849 17.1276C42.9849 17.1276 42.4907 17.7514 41.5961 17.7514C40.3571 17.7514 39.7502 16.555 39.7502 15.3325C39.7502 13.4418 40.8877 11.7936 42.2527 11.7936C43.1312 11.7954 43.6926 12.5708 43.6926 12.5708L44.0153 10.5769L45.509 10.5739L44.3694 17.6596H42.9198ZM45.8668 17.4597C45.8276 17.5312 45.7715 17.5862 45.7001 17.6287C45.6294 17.6683 45.5546 17.6886 45.4748 17.6886C45.3978 17.6886 45.3236 17.6683 45.2522 17.6287C45.1808 17.5862 45.1248 17.5312 45.0849 17.4597C45.0443 17.3873 45.0253 17.3139 45.0253 17.2357C45.0253 17.1566 45.0457 17.0813 45.0849 17.0098C45.1248 16.9383 45.1835 16.8804 45.2535 16.8418C45.327 16.8022 45.3999 16.7819 45.4748 16.7819C45.5525 16.7819 45.626 16.8022 45.6974 16.8418C45.7709 16.8813 45.8269 16.9364 45.8668 17.0098C45.9088 17.0822 45.927 17.1575 45.927 17.2357C45.927 17.3139 45.9074 17.3883 45.8668 17.4597Z" fill="#202020" fill-opacity="0.8"/>
<path d="M45.7465 21.7301C45.7367 21.7234 45.7284 21.7127 45.713 21.7069C45.6976 21.7011 45.673 21.6982 45.6359 21.6982H45.5449V21.8431H45.6415C45.687 21.8431 45.7164 21.8392 45.7339 21.8228C45.7507 21.8093 45.7585 21.7929 45.7585 21.7697C45.7585 21.7542 45.7542 21.7436 45.7465 21.7301Z" fill="#202020" fill-opacity="0.8"/>
<path d="M46.059 21.6448C46.017 21.5695 45.9604 21.5163 45.8883 21.4768C45.8155 21.4372 45.7419 21.4169 45.667 21.4169C45.5893 21.4169 45.5165 21.4372 45.4444 21.4768C45.373 21.5163 45.3142 21.5714 45.275 21.6448C45.233 21.7163 45.2148 21.7916 45.2148 21.8688C45.2148 21.9461 45.2351 22.0224 45.275 22.0929C45.3163 22.1643 45.3723 22.2222 45.443 22.2618C45.5144 22.3014 45.5893 22.3217 45.6691 22.3217C45.7461 22.3217 45.8211 22.3014 45.8918 22.2618C45.9625 22.2222 46.0191 22.1643 46.059 22.0929C46.0996 22.0224 46.1185 21.947 46.1185 21.8688C46.1185 21.7906 46.0982 21.7153 46.059 21.6448ZM45.7812 22.1199L45.7384 22.0436C45.7048 21.9837 45.6769 21.9441 45.6552 21.9286C45.6419 21.919 45.6209 21.9113 45.5936 21.9113H45.5481V22.1189H45.469V21.6313H45.637C45.6951 21.6313 45.7364 21.6361 45.7595 21.6458C45.7854 21.6554 45.8078 21.6689 45.8211 21.6931C45.8372 21.7153 45.8434 21.7394 45.8434 21.7645C45.8434 21.8003 45.8301 21.8301 45.8056 21.8581C45.7811 21.8833 45.7461 21.8997 45.7048 21.9026C45.7216 21.9084 45.7357 21.9181 45.7462 21.9286C45.7665 21.948 45.7895 21.9799 45.8182 22.0243L45.8784 22.1199H45.7812Z" fill="#202020" fill-opacity="0.8"/>
<path d="M10.948 15.0625C9.85597 15.0625 9.63477 15.553 9.63477 15.9614C9.63477 16.1719 9.75587 16.5235 10.2179 16.5235C11.1153 16.5235 11.3015 15.3473 11.2728 15.0972C11.2301 15.0885 11.2028 15.0634 10.948 15.0625Z" fill="#202020" fill-opacity="0.8"/>
<path d="M22.2344 13.0662C21.4224 13.0662 21.2656 13.9903 21.2656 14.0878H22.9197C22.9197 14.0135 23.0751 13.0662 22.2344 13.0662Z" fill="#202020" fill-opacity="0.8"/>
<path d="M42.5101 13.2272C41.8542 13.2272 41.3362 13.9881 41.3369 15.1439C41.3369 15.8488 41.5882 16.3007 42.1251 16.3007C42.9322 16.3007 43.3214 15.2472 43.3214 14.4622C43.3214 13.596 43.0463 13.2272 42.5101 13.2272Z" fill="#202020" fill-opacity="0.8"/>
<path d="M45.7978 17.0481C45.7642 16.9882 45.7166 16.9419 45.6571 16.9081C45.5969 16.8743 45.536 16.8579 45.4723 16.8579C45.4107 16.8579 45.3477 16.8753 45.2882 16.9081C45.228 16.939 45.1811 16.9873 45.1468 17.0481C45.1132 17.1089 45.0957 17.1736 45.0957 17.2364C45.0957 17.3011 45.1132 17.3648 45.1454 17.4237C45.1811 17.4836 45.2259 17.529 45.2861 17.5647C45.3463 17.5975 45.4079 17.6168 45.4723 17.6168C45.5374 17.6168 45.6011 17.5975 45.6585 17.5647C45.7187 17.5309 45.7649 17.4845 45.7999 17.4237C45.8335 17.3639 45.8489 17.3011 45.8489 17.2364C45.8489 17.1727 45.8314 17.1089 45.7978 17.0481ZM45.5885 17.4845L45.5451 17.4092C45.5108 17.3484 45.4842 17.3098 45.4639 17.2953C45.4471 17.2827 45.4282 17.2769 45.4002 17.2769H45.3554V17.4836H45.2742V16.9969H45.4436C45.5003 16.9969 45.543 17.0018 45.5668 17.0124C45.5913 17.0211 45.6123 17.0375 45.6291 17.0587C45.6452 17.0799 45.6508 17.1041 45.6508 17.1302C45.6508 17.1659 45.6375 17.1959 45.6123 17.2229C45.5871 17.2509 45.5528 17.2624 45.5122 17.2673C45.5311 17.275 45.5437 17.2837 45.5535 17.2924C45.5738 17.3127 45.5969 17.3417 45.6249 17.388L45.6851 17.4845H45.5885Z" fill="#202020" fill-opacity="0.8"/>
<path d="M35.1032 15.0625C34.0112 15.0625 33.79 15.553 33.79 15.9614C33.79 16.1719 33.9097 16.5235 34.3731 16.5235C35.2705 16.5235 35.4553 15.3473 35.4273 15.0972C35.3839 15.0885 35.3573 15.0634 35.1032 15.0625Z" fill="#202020" fill-opacity="0.8"/>
<path d="M45.5567 17.0974C45.549 17.0877 45.5385 17.08 45.5238 17.0733C45.507 17.0684 45.4832 17.0636 45.4447 17.0636V17.0646H45.3564V17.2114H45.4524C45.4979 17.2114 45.5272 17.2056 45.5461 17.1911C45.5601 17.1766 45.5693 17.1582 45.5693 17.137C45.5693 17.1206 45.5651 17.1109 45.5567 17.0974Z" fill="#202020" fill-opacity="0.8"/>
</svg>
