<svg width="50" height="42" viewBox="0 0 50 42" fill="none" xmlns="http://www.w3.org/2000/svg">
<path d="M32.576 3.60118e-07C29.6632 0.000779196 27.0084 1.10473 25.0077 2.91792C23.0053 1.10706 20.3522 0.00233681 17.4429 0.00233681C17.4186 0.00233681 17.3938 0.00233681 17.3706 0.00233681C11.1749 0.0428193 6.1582 5.08297 6.1582 11.2871C6.1582 17.5161 11.2139 22.5711 17.4423 22.5711C20.3516 22.5711 23.0048 21.4679 25.0066 19.6554C24.5884 19.2779 24.2097 18.8598 23.8524 18.4223H26.1827C25.8317 18.8528 25.4485 19.2561 25.0365 19.6313H25.0354C25.0258 19.6414 25.0156 19.6477 25.0066 19.6562C27.0096 21.4702 29.6661 22.5757 32.5799 22.5749C38.8117 22.5726 43.8623 17.5184 43.8606 11.2871C43.8606 11.2848 43.8606 11.2832 43.8606 11.2817C43.8612 5.0503 38.8078 -0.00155731 32.576 3.60118e-07ZM23.9817 4.08336H26.1269C26.4429 4.4664 26.7364 4.8697 27.0022 5.29162H23.1758C23.423 4.88838 23.6939 4.47339 23.9817 4.08336ZM22.5098 6.47658H27.6535C27.8364 6.86741 27.9983 7.27145 28.14 7.68564H21.9003C21.9624 7.56882 22.1802 7.09864 22.5098 6.47658ZM10.7646 14.1614L11.4492 9.8468L9.90508 14.1614H9.07771L8.97048 9.8468L8.23906 14.1614H7.07982L8.04038 8.43925H9.79389L9.85541 11.9504L11.0395 8.43925H12.9414L11.9938 14.1614H10.7646ZM14.8637 14.1521L14.9032 13.6951C14.8845 13.6974 14.5188 14.247 13.6712 14.247C13.227 14.247 12.5108 14.0049 12.5108 12.9524C12.5108 11.6141 13.6023 11.1703 14.6419 11.1703C14.8055 11.1703 15.1577 11.1999 15.1577 11.1999C15.1577 11.1999 15.1978 11.1182 15.1978 10.897C15.1978 10.5335 14.8704 10.4836 14.4229 10.4836C13.6345 10.4836 13.1135 10.6946 13.1135 10.6946L13.2879 9.6592C13.2879 9.6592 13.92 9.39451 14.7429 9.39451C15.169 9.39451 16.3937 9.43966 16.3937 10.8433L15.9219 14.1521H14.8637ZM19.3346 12.6947C19.3346 14.2914 17.7877 14.2229 17.5179 14.2229C16.5094 14.2229 16.1979 14.0835 16.1691 14.0758L16.3299 13.0247C16.331 13.0154 16.8356 13.2077 17.3971 13.2077C17.7211 13.2077 18.1416 13.1758 18.1416 12.7889C18.1416 12.2097 16.6369 12.3482 16.6369 10.9726C16.6369 9.75881 17.5388 9.40382 18.4277 9.40382C19.1145 9.40382 19.5361 9.49801 19.5361 9.49801L19.3843 10.5584C19.3843 10.5584 18.733 10.5047 18.5643 10.5047C18.1365 10.5047 17.904 10.5981 17.904 10.897C17.9028 11.498 19.3346 11.2038 19.3346 12.6947ZM21.1926 13.1135C21.2992 13.1135 21.4194 13.0769 21.5024 13.0769L21.3517 14.0975C21.2315 14.131 20.8895 14.2525 20.451 14.2556C19.8917 14.2603 19.4938 13.9473 19.4938 13.2373C19.4938 12.7608 20.1761 8.8347 20.2026 8.80903H21.4042L21.2817 9.51128H21.8811L21.7282 10.6424H21.0921L20.754 12.7266C20.7281 12.8924 20.7744 13.1135 21.1926 13.1135ZM23.8344 9.37893C25.1533 9.37893 25.5484 10.3443 25.5484 11.1361C25.5484 11.4529 25.3892 12.2314 25.3892 12.2314H22.9478C22.9478 12.2314 22.722 13.1929 24.0122 13.1929C24.6172 13.1929 25.2882 12.8971 25.2882 12.8971L25.0766 14.0548C25.0766 14.0548 24.6889 14.2525 23.8073 14.2525C22.8524 14.2525 21.7321 13.8484 21.7321 12.1512C21.7327 10.6806 22.6266 9.37893 23.8344 9.37893ZM27.0163 17.26H23.0132C22.7694 16.8707 22.5425 16.4713 22.3467 16.0517H27.6744C27.478 16.4689 27.2584 16.8722 27.0163 17.26ZM26.7477 14.17H25.5145L26.2646 9.5128H27.3832L27.2759 10.1878C27.2759 10.1878 27.6744 9.45365 28.2122 9.45365C28.3686 9.45365 28.4442 9.46923 28.4442 9.46923C28.2845 9.79465 28.144 10.0928 27.9972 10.8628C27.1631 10.5669 27.0987 12.1808 26.7477 14.17ZM31.4461 14.0975C31.4461 14.0975 30.7999 14.2626 30.3952 14.2626C28.9612 14.2626 28.2331 13.2731 28.2331 11.7744C28.2331 9.51438 29.5825 8.3108 30.9692 8.3108C31.5957 8.3108 32.322 8.60506 32.322 8.60506L32.1262 9.87795C32.1262 9.87795 31.6346 9.53464 31.0234 9.53464C30.2062 9.53464 29.4725 10.3147 29.4725 11.7324C29.4725 12.4307 29.8145 13.0816 30.6678 13.0816C31.0736 13.0816 31.6611 12.7865 31.6611 12.7865L31.4461 14.0975ZM34.3385 14.1544L34.3791 13.6943C34.3594 13.6966 33.9937 14.2463 33.1466 14.2463C32.703 14.2463 31.9868 14.0041 31.9868 12.9516C31.9868 11.6133 33.0783 11.1695 34.1167 11.1695C34.2804 11.1695 34.6337 11.1991 34.6337 11.1991C34.6337 11.1991 34.6743 11.1182 34.6743 10.897C34.6743 10.5335 34.347 10.4836 33.8989 10.4836C33.1099 10.4836 32.5901 10.6946 32.5901 10.6946L32.7645 9.6592C32.7645 9.6592 33.3966 9.39451 34.22 9.39451C34.6455 9.39451 35.8708 9.43966 35.8696 10.8433L35.3978 14.1521C35.3973 14.1544 34.3385 14.1544 34.3385 14.1544ZM36.8353 14.17H35.6021L36.3516 9.5128H37.4713L37.3641 10.1878C37.3641 10.1878 37.7631 9.45365 38.301 9.45365C38.4579 9.45365 38.5324 9.46923 38.5324 9.46923C38.3738 9.79465 38.231 10.0928 38.0854 10.8628C37.2501 10.5669 37.1863 12.1808 36.8353 14.17ZM40.5167 14.1575L40.5692 13.7286C40.5692 13.7286 40.1707 14.2315 39.4495 14.2315C38.4505 14.2315 37.9612 13.2669 37.9612 12.2813C37.9612 10.7569 38.8783 9.42797 39.9789 9.42797C40.6871 9.4295 41.1398 10.0547 41.1398 10.0547L41.4 8.44704L42.6043 8.44467L41.6855 14.1575H40.5167ZM42.8927 13.9964C42.8611 14.054 42.816 14.0983 42.7584 14.1326C42.7014 14.1645 42.641 14.1808 42.5767 14.1808C42.5146 14.1808 42.4548 14.1645 42.3972 14.1326C42.3397 14.0983 42.2945 14.054 42.2623 13.9964C42.2296 13.9379 42.2143 13.8788 42.2143 13.8158C42.2143 13.7519 42.2307 13.6912 42.2623 13.6336C42.2945 13.576 42.3419 13.5292 42.3983 13.4981C42.4576 13.4662 42.5163 13.4498 42.5767 13.4498C42.6393 13.4498 42.6986 13.4662 42.7562 13.4981C42.8154 13.53 42.8606 13.5744 42.8927 13.6336C42.9266 13.6919 42.9413 13.7527 42.9413 13.8158C42.9413 13.8788 42.9255 13.9387 42.8927 13.9964Z" fill="white"/>
<path d="M42.7978 17.4395C42.7899 17.4341 42.7831 17.4255 42.7707 17.4208C42.7583 17.4161 42.7385 17.4138 42.7086 17.4138H42.6353V17.5306H42.7131C42.7498 17.5306 42.7735 17.5275 42.7876 17.5143C42.8012 17.5034 42.8074 17.4901 42.8074 17.4714C42.8074 17.459 42.804 17.4504 42.7978 17.4395Z" fill="white"/>
<path d="M43.0429 17.3696C43.0091 17.3088 42.9634 17.266 42.9053 17.2341C42.8466 17.2022 42.7873 17.1858 42.7269 17.1858C42.6642 17.1858 42.6056 17.2022 42.5474 17.2341C42.4899 17.266 42.4424 17.3104 42.4108 17.3696C42.377 17.4272 42.3623 17.4879 42.3623 17.5502C42.3623 17.6125 42.3787 17.674 42.4108 17.7308C42.4441 17.7884 42.4893 17.8351 42.5463 17.867C42.6039 17.8989 42.6642 17.9153 42.7286 17.9153C42.7907 17.9153 42.8511 17.8989 42.9081 17.867C42.9651 17.8351 43.0108 17.7884 43.0429 17.7308C43.0757 17.674 43.0909 17.6132 43.0909 17.5502C43.0909 17.4871 43.0745 17.4264 43.0429 17.3696ZM42.8189 17.7526L42.7844 17.6911C42.7574 17.6428 42.7348 17.6109 42.7173 17.5984C42.7066 17.5907 42.6897 17.5844 42.6676 17.5844H42.631V17.7518H42.5672V17.3587H42.7026C42.7495 17.3587 42.7828 17.3626 42.8014 17.3703C42.8223 17.3781 42.8403 17.389 42.8511 17.4085C42.864 17.4264 42.8691 17.4459 42.8691 17.4661C42.8691 17.4949 42.8584 17.519 42.8386 17.5416C42.8189 17.5618 42.7907 17.5751 42.7574 17.5774C42.7709 17.5821 42.7822 17.5899 42.7907 17.5984C42.807 17.614 42.8257 17.6397 42.8488 17.6755L42.8973 17.7526H42.8189Z" fill="white"/>
<path d="M14.7385 12.063C13.858 12.063 13.6797 12.4584 13.6797 12.7878C13.6797 12.9575 13.7773 13.2409 14.1498 13.2409C14.8733 13.2409 15.0235 12.2926 15.0003 12.091C14.9659 12.084 14.9439 12.0637 14.7385 12.063Z" fill="white"/>
<path d="M23.8397 10.4536C23.185 10.4536 23.0586 11.1987 23.0586 11.2773H24.3922C24.3922 11.2174 24.5175 10.4536 23.8397 10.4536Z" fill="white"/>
<path d="M40.183 10.5837C39.6541 10.5837 39.2365 11.1972 39.2371 12.1291C39.2371 12.6974 39.4397 13.0618 39.8726 13.0618C40.5233 13.0618 40.8371 12.2124 40.8371 11.5795C40.8371 10.8811 40.6153 10.5837 40.183 10.5837Z" fill="white"/>
<path d="M42.8344 13.6641C42.8073 13.6158 42.7689 13.5785 42.7209 13.5512C42.6724 13.5239 42.6233 13.5107 42.572 13.5107C42.5223 13.5107 42.4715 13.5247 42.4235 13.5512C42.375 13.5761 42.3372 13.615 42.3095 13.6641C42.2824 13.7131 42.2683 13.7653 42.2683 13.8159C42.2683 13.868 42.2824 13.9195 42.3084 13.9669C42.3372 14.0152 42.3733 14.0518 42.4218 14.0806C42.4704 14.1071 42.52 14.1226 42.572 14.1226C42.6244 14.1226 42.6758 14.1071 42.7221 14.0806C42.7706 14.0533 42.8079 14.016 42.8361 13.9669C42.8632 13.9187 42.8756 13.868 42.8756 13.8159C42.8756 13.7645 42.8615 13.7131 42.8344 13.6641ZM42.6657 14.016L42.6307 13.9552C42.603 13.9062 42.5815 13.875 42.5652 13.8634C42.5516 13.8533 42.5364 13.8486 42.5138 13.8486H42.4777V14.0152H42.4122V13.6228H42.5488C42.5945 13.6228 42.629 13.6267 42.6482 13.6353C42.6679 13.6423 42.6848 13.6555 42.6984 13.6727C42.7114 13.6898 42.7159 13.7092 42.7159 13.7303C42.7159 13.7591 42.7052 13.7832 42.6848 13.805C42.6645 13.8276 42.6369 13.8369 42.6041 13.8408C42.6194 13.8471 42.6295 13.8541 42.6374 13.861C42.6538 13.8774 42.6724 13.9008 42.695 13.9381L42.7435 14.016H42.6657Z" fill="white"/>
<path d="M34.2126 12.063C33.3321 12.063 33.1538 12.4584 33.1538 12.7878C33.1538 12.9575 33.2503 13.2409 33.6239 13.2409C34.3474 13.2409 34.4964 12.2926 34.4739 12.091C34.4389 12.084 34.4174 12.0637 34.2126 12.063Z" fill="white"/>
<path d="M42.6404 13.704C42.6342 13.6962 42.6257 13.69 42.6139 13.6845C42.6004 13.6807 42.5812 13.6768 42.5501 13.6768V13.6775H42.479V13.7959H42.5563C42.593 13.7959 42.6167 13.7912 42.6319 13.7795C42.6432 13.7678 42.6506 13.7531 42.6506 13.7359C42.6506 13.7227 42.6472 13.7149 42.6404 13.704Z" fill="white"/>
<path d="M20.0199 25.9097L17.4788 40.8217H21.5427L24.0859 25.9097H20.0199Z" fill="white"/>
<path d="M14.0772 25.9277L10.0963 36.0973L9.67204 34.5617C8.88706 32.7116 6.65884 30.0545 4.04224 28.3799L7.68188 40.8157L11.9824 40.8084L18.3823 25.9246L14.0772 25.9277Z" fill="white"/>
<path d="M8.12379 26.9944C7.88778 26.0861 7.20285 25.8154 6.35322 25.783H0.0523269L0 26.0798C4.90332 27.2693 8.1479 30.1355 9.49417 33.5818L8.12379 26.9944Z" fill="white"/>
<path d="M32.3189 28.768C33.6488 28.7471 34.6123 29.0377 35.3609 29.3387L35.7277 29.5112L36.2777 26.2792C35.4727 25.9771 34.2111 25.6531 32.637 25.6531C28.6208 25.6531 25.7903 27.6757 25.7682 30.5742C25.742 32.7161 27.7845 33.9119 29.3278 34.6258C30.9111 35.3575 31.4421 35.8226 31.4349 36.4759C31.4221 37.4742 30.1723 37.932 29.0046 37.932C27.3771 37.932 26.5126 37.7073 25.1777 37.1512L24.6543 36.9129L24.0823 40.2505C25.0335 40.6675 26.7887 41.026 28.6105 41.0449C32.8828 41.0449 35.659 39.0463 35.6882 35.9491C35.7062 34.2547 34.6221 32.9617 32.2733 31.9007C30.8516 31.2087 29.9819 30.7488 29.9902 30.0506C29.9902 29.4307 30.7284 28.768 32.3189 28.768Z" fill="white"/>
<path d="M46.7119 25.927H43.572C42.5967 25.927 41.8717 26.1925 41.4428 27.1646L35.4087 40.8307H39.6763C39.6763 40.8307 40.3725 38.993 40.5306 38.5906C40.9975 38.5906 45.144 38.5969 45.7351 38.5969C45.8561 39.1174 46.2302 40.8307 46.2302 40.8307H50.0006L46.7119 25.927ZM41.6998 35.5384C42.0344 34.6823 43.3191 31.3709 43.3191 31.3709C43.297 31.4116 43.6505 30.5085 43.8608 29.9472L44.1343 31.2328C44.1343 31.2328 44.9131 34.7931 45.0763 35.5384H41.6998Z" fill="white"/>
</svg>
