<svg width="76" height="75" viewBox="0 0 76 75" fill="none" xmlns="http://www.w3.org/2000/svg">
<path d="M24.879 55.3273L16.6023 66.8949C11.9302 63.5508 8.10693 59.1583 5.43917 54.0697C2.77142 48.981 1.33345 43.338 1.24064 37.5932C1.14782 31.8484 2.40274 26.1618 4.90472 20.9897C7.40669 15.8175 11.0861 11.3038 15.6477 7.81055L24.2963 19.1003C21.4973 21.24 19.2392 24.0064 17.7033 27.1773C16.1675 30.3481 15.3968 33.835 15.4532 37.3577C15.5095 40.8805 16.3914 44.3409 18.0278 47.461C19.6643 50.5811 22.0098 53.2739 24.8758 55.323L24.879 55.3273Z" fill="#FF9800"/>
<path d="M16.6027 67.4301C16.4898 67.4299 16.3798 67.3944 16.2881 67.3285C11.549 63.9354 7.67097 59.479 4.96488 54.3167C2.25878 49.1545 0.799948 43.4299 0.705354 37.6022C0.610759 31.7744 1.88303 26.0055 4.42016 20.7582C6.95729 15.5108 10.6887 10.9309 15.3151 7.38577C15.4289 7.29894 15.5724 7.26077 15.7143 7.27961C15.8561 7.29846 15.9847 7.37279 16.0719 7.48631L24.7205 18.776C24.8073 18.8898 24.8455 19.0333 24.8267 19.1752C24.8078 19.3171 24.7335 19.4457 24.62 19.5328C21.8888 21.6214 19.6855 24.3215 18.187 27.416C16.6885 30.5106 15.9366 33.9134 15.9917 37.3513C16.0468 40.7891 16.9073 44.1661 18.5042 47.2111C20.1011 50.2561 22.3898 52.8841 25.1865 54.8841C25.2445 54.9255 25.2938 54.978 25.3315 55.0385C25.3692 55.099 25.3945 55.1663 25.4061 55.2367C25.4176 55.307 25.4152 55.3789 25.3988 55.4483C25.3825 55.5177 25.3525 55.5831 25.3108 55.6409L17.034 67.2085C16.9504 67.3239 16.8245 67.4016 16.6838 67.4247C16.6569 67.4285 16.6298 67.4303 16.6027 67.4301ZM15.5486 8.57604C11.1798 12.0283 7.66557 16.4413 5.27902 21.4722C2.89247 26.5031 1.69781 32.0164 1.78785 37.5839C1.87789 43.1515 3.2502 48.6233 5.79818 53.5744C8.34617 58.5254 12.0012 62.8225 16.4794 66.1317L24.1281 55.4463C21.3164 53.3347 19.0247 50.6083 17.428 47.4754C15.8314 44.3426 14.9721 40.8861 14.9157 37.3703C14.8594 33.8545 15.6076 30.3723 17.103 27.1899C18.5985 24.0075 20.8017 21.209 23.5443 19.0085L15.5486 8.57604Z" fill="#574E56"/>
<path d="M74.757 36.9998C74.7575 43.7569 72.8953 50.3835 69.3751 56.1513C65.8549 61.9191 60.8128 66.6049 54.803 69.6938C48.7932 72.7827 42.0482 74.1552 35.3091 73.6605C28.5701 73.1658 22.0978 70.823 16.6035 66.8895L24.8803 55.3219C27.4857 57.1867 30.4586 58.4748 33.601 59.1002C36.7433 59.7257 39.9829 59.6743 43.1038 58.9493C46.2247 58.2243 49.1553 56.8425 51.7002 54.8959C54.245 52.9494 56.3458 50.4827 57.8624 47.6604C59.3791 44.8381 60.2768 41.725 60.4957 38.5284C60.7146 35.3319 60.2497 32.1255 59.1319 29.1228C58.0142 26.12 56.2693 23.3901 54.0135 21.1147C51.7578 18.8394 49.0429 17.071 46.05 15.9273L51.1203 2.65381C58.075 5.31129 64.0587 10.0181 68.2795 16.1512C72.5003 22.2843 74.7592 29.5546 74.757 36.9998Z" fill="#6AD3D3"/>
<path d="M72.4376 40.6287C72.4485 48.0521 70.2009 55.3032 65.9932 61.419C69.8058 56.9401 72.4878 51.6116 73.8139 45.8811C75.1401 40.1507 75.0717 34.1857 73.6144 28.4872C72.1572 22.7887 69.3537 17.5232 65.4394 13.1328C61.5251 8.74254 56.6144 5.3557 51.1197 3.25684L49.803 6.70873C56.5044 9.49458 62.2306 14.203 66.2589 20.2398C70.2872 26.2766 72.4372 33.3713 72.4376 40.6287Z" fill="#34C5C5"/>
<path d="M51.1203 2.65396L46.05 15.9329C42.4551 14.5634 38.5697 14.1359 34.763 14.6911C30.9563 15.2462 27.3549 16.7656 24.3008 19.1048L15.6489 7.81072C20.6327 4.0011 26.507 1.52776 32.7148 0.625278C38.9226 -0.277199 45.2581 0.421105 51.1203 2.65396Z" fill="#D4E6FF"/>
<path d="M37.0649 4.6084C41.3667 4.60593 45.6354 5.3605 49.6757 6.83759L51.1189 3.05381C45.2561 0.821504 38.9202 0.123985 32.7122 1.02741C26.5042 1.93084 20.6299 4.40526 15.6465 8.21597L17.2962 10.3695C23.1989 6.59743 30.0599 4.59798 37.0649 4.6084Z" fill="#BDD8FF"/>
<path d="M52.8643 46.481H23.1345C22.9912 46.481 22.8537 46.424 22.7523 46.3227C22.6509 46.2213 22.594 46.0838 22.594 45.9404C22.594 45.7971 22.6509 45.6596 22.7523 45.5582C22.8537 45.4569 22.9912 45.3999 23.1345 45.3999H52.8643C53.0076 45.3999 53.1451 45.4569 53.2465 45.5582C53.3478 45.6596 53.4048 45.7971 53.4048 45.9404C53.4048 46.0838 53.3478 46.2213 53.2465 46.3227C53.1451 46.424 53.0076 46.481 52.8643 46.481Z" fill="#574E56"/>
<path d="M9.65499 65.7383C9.58362 65.7383 9.51297 65.7241 9.4471 65.6967C9.38123 65.6692 9.32145 65.629 9.27121 65.5783C5.65367 61.9345 2.76001 57.6377 0.743637 52.9156C0.687153 52.7837 0.685376 52.6348 0.738697 52.5016C0.792018 52.3684 0.896069 52.2618 1.02796 52.2053C1.15985 52.1488 1.30878 52.147 1.44198 52.2004C1.57518 52.2537 1.68175 52.3577 1.73823 52.4896C3.70049 57.0861 6.51758 61.2683 10.0399 64.814C10.115 64.8897 10.166 64.986 10.1865 65.0908C10.2069 65.1955 10.196 65.3039 10.1549 65.4024C10.1139 65.5009 10.0446 65.585 9.95585 65.6442C9.86707 65.7034 9.76277 65.735 9.65607 65.735L9.65499 65.7383Z" fill="#574E56"/>
<path d="M12.6188 68.1597C12.5058 68.1599 12.3957 68.1243 12.3042 68.058L11.4469 67.444C11.3858 67.4041 11.3334 67.3523 11.2928 67.2916C11.2522 67.2309 11.2244 67.1627 11.2109 67.0909C11.1975 67.0192 11.1987 66.9455 11.2145 66.8742C11.2303 66.803 11.2603 66.7356 11.3029 66.6763C11.3454 66.617 11.3995 66.5669 11.4619 66.5291C11.5243 66.4912 11.5937 66.4664 11.666 66.4561C11.7382 66.4458 11.8118 66.4502 11.8823 66.4691C11.9528 66.4881 12.0187 66.5211 12.0761 66.5661L12.9334 67.1802C13.0262 67.2469 13.0955 67.3413 13.1313 67.4499C13.1671 67.5585 13.1675 67.6756 13.1326 67.7844C13.0976 67.8933 13.029 67.9882 12.9367 68.0556C12.8444 68.123 12.7331 68.1595 12.6188 68.1597Z" fill="#574E56"/>
<path d="M61.6246 5.3242C61.5076 5.32468 61.3937 5.2867 61.3003 5.2161C61.1436 5.1015 60.9835 4.99231 60.8225 4.88421L60.4765 4.64637C60.4164 4.60637 60.3649 4.55473 60.325 4.49449C60.2852 4.43426 60.2578 4.36665 60.2446 4.29566C60.2313 4.22468 60.2324 4.15175 60.2478 4.08119C60.2631 4.01062 60.2925 3.94386 60.3341 3.88484C60.3757 3.82581 60.4287 3.77573 60.49 3.73753C60.5513 3.69934 60.6197 3.67382 60.691 3.66247C60.7623 3.65113 60.8352 3.65419 60.9053 3.67148C60.9754 3.68876 61.0414 3.71993 61.0992 3.76312L61.4235 3.98799C61.5965 4.10475 61.7695 4.22258 61.9381 4.34691C62.0289 4.41498 62.096 4.50988 62.1298 4.61817C62.1636 4.72646 62.1625 4.84265 62.1266 4.95027C62.0907 5.0579 62.0219 5.15151 61.9299 5.21785C61.8378 5.28418 61.7273 5.31988 61.6138 5.31988L61.6246 5.3242Z" fill="#574E56"/>
<path d="M73.2021 18.8249C73.0988 18.8249 72.9976 18.7952 72.9106 18.7395C72.8236 18.6837 72.7544 18.6042 72.7113 18.5103C70.5032 14.2205 67.4877 10.3974 63.8302 7.25088C63.7187 7.16071 63.6475 7.02992 63.6324 6.88729C63.6173 6.74466 63.6595 6.60188 63.7496 6.49034C63.8398 6.37881 63.9706 6.30766 64.1132 6.29256C64.2559 6.27746 64.3986 6.31963 64.5102 6.4098C68.3039 9.65434 71.4238 13.6121 73.6929 18.0584C73.7308 18.1408 73.7473 18.2313 73.7411 18.3217C73.7348 18.4122 73.7059 18.4996 73.657 18.5759C73.6082 18.6522 73.5409 18.715 73.4614 18.7585C73.3819 18.8021 73.2927 18.8249 73.2021 18.8249Z" fill="#574E56"/>
<path d="M25.5071 32.0454H31.266V45.9406H25.5071V32.0454Z" fill="#D4E6FF"/>
<path d="M35.1196 23.2959H40.8785V45.9402H35.1196V23.2959Z" fill="#6AD3D3"/>
<path d="M44.7327 28.4731H50.4916V45.9402H44.7327V28.4731Z" fill="#FF9800"/>
<path d="M28.8962 32.0483H31.2638V45.9402H28.8962V32.0483Z" fill="#BDD8FF"/>
<path d="M38.5081 23.2915H40.8756V45.9402H38.5081V23.2915Z" fill="#34C5C5"/>
<path d="M48.1184 28.4702H50.4968V45.9405H48.1184V28.4702Z" fill="#E58900"/>
<path d="M37.9987 74.2972C30.2088 74.3152 22.6116 71.8767 16.2873 67.3286C16.2293 67.2872 16.18 67.2347 16.1423 67.1742C16.1046 67.1138 16.0793 67.0464 16.0677 66.9761C16.0561 66.9057 16.0586 66.8338 16.075 66.7644C16.0913 66.695 16.1212 66.6296 16.163 66.5718L24.4397 55.0042C24.5237 54.8886 24.65 54.8108 24.7911 54.788C24.8612 54.7761 24.933 54.7782 25.0022 54.7944C25.0714 54.8105 25.1368 54.8404 25.1943 54.8821C28.9206 57.5726 33.4025 59.0155 37.9987 59.0042C43.1421 59.003 48.1228 57.2004 52.0757 53.9095C56.0285 50.6186 58.704 46.0472 59.6376 40.9891C60.5711 35.9311 59.7036 30.7058 57.1859 26.2207C54.6681 21.7355 50.6591 18.2738 45.8549 16.4367C45.7212 16.3854 45.6134 16.2831 45.555 16.1524C45.4966 16.0217 45.4925 15.8731 45.5435 15.7394L50.6138 2.46046C50.6391 2.39405 50.6772 2.33328 50.726 2.28163C50.7748 2.22997 50.8333 2.18845 50.8982 2.15943C50.9631 2.13041 51.033 2.11447 51.104 2.11251C51.1751 2.11055 51.2458 2.12262 51.3122 2.14802C59.4561 5.26068 66.2526 11.1276 70.5212 18.7297C74.7897 26.3318 76.2607 35.1889 74.6786 43.7627C73.0965 52.3365 68.5613 60.0853 61.8606 65.6633C55.16 71.2413 46.7172 74.2962 37.9987 74.2972ZM17.3576 66.7621C22.7906 70.5306 29.1517 72.7398 35.7511 73.1501C42.3504 73.5605 48.9362 72.1563 54.7943 69.0899C60.6523 66.0235 65.5591 61.4118 68.9826 55.755C72.4061 50.0981 74.2156 43.612 74.2149 36.9999C74.1898 29.7624 72.0089 22.6965 67.9505 16.7039C63.8921 10.7113 58.1402 6.06382 51.4289 3.35451L46.7435 15.6269C51.6936 17.6546 55.7861 21.3381 58.3219 26.0481C60.8578 30.758 61.6797 36.2023 60.6473 41.451C59.6149 46.6997 56.7922 51.4271 52.6614 54.8258C48.5306 58.2244 43.3479 60.0835 37.9987 60.0853C33.3614 60.0985 28.8299 58.7004 25.0062 56.0767L17.3576 66.7621Z" fill="#574E56"/>
<path d="M51.7098 66.0625C51.7492 66.1649 51.7675 66.2741 51.7638 66.3837C51.7601 66.4932 51.7344 66.601 51.6882 66.7004C51.6445 66.8005 51.5807 66.8905 51.5007 66.9649C51.4207 67.0393 51.3263 67.0964 51.2233 67.1328C51.0179 67.2193 50.8774 67.2734 50.7584 67.3274C50.5472 67.4227 50.3306 67.5057 50.1098 67.576C50.0267 67.6061 49.9387 67.6208 49.8503 67.6193C49.6726 67.6181 49.4998 67.5612 49.3562 67.4564C49.2126 67.3516 49.1056 67.2044 49.0503 67.0355C48.9835 66.8219 49.004 66.5905 49.1073 66.392C49.2106 66.1934 49.3884 66.0439 49.6017 65.9761C49.7965 65.9145 49.9878 65.8423 50.1747 65.7598C50.2936 65.7058 50.4233 65.6517 50.6287 65.5761C50.7316 65.5361 50.8413 65.5169 50.9516 65.5198C51.062 65.5227 51.1706 65.5475 51.2712 65.5928C51.3718 65.638 51.4624 65.7029 51.5377 65.7836C51.613 65.8642 51.6715 65.9591 51.7098 66.0625Z" fill="white"/>
<path d="M62.8129 58.3326C62.8383 58.5511 62.7804 58.7711 62.6508 58.9488C59.8724 62.4839 58.3481 63.4461 54.3373 65.6839C54.2097 65.7478 54.0691 65.7812 53.9265 65.7812C53.7404 65.7829 53.5592 65.7225 53.4114 65.6095C53.2636 65.4965 53.1577 65.3374 53.1106 65.1574C53.0634 64.9775 53.0776 64.7869 53.151 64.616C53.2244 64.445 53.3527 64.3034 53.5156 64.2137C56.5672 62.7598 59.2364 60.6126 61.3102 57.9434C61.4416 57.7682 61.6366 57.6519 61.8531 57.6195C62.0696 57.5871 62.2902 57.6414 62.467 57.7704C62.6521 57.9047 62.7765 58.1068 62.8129 58.3326Z" fill="white"/>
<path d="M24.1927 19.944C24.1088 19.944 24.026 19.9245 23.9509 19.8869C23.8759 19.8494 23.8106 19.7949 23.7602 19.7278L15.1116 8.43805C15.0248 8.32429 14.9866 8.18075 15.0054 8.03889C15.0243 7.89703 15.0986 7.76843 15.2121 7.68129C20.2691 3.81523 26.2298 1.30511 32.529 0.389007C38.8282 -0.527094 45.257 0.181196 51.2056 2.4467C51.3392 2.49811 51.4468 2.60035 51.5051 2.73102C51.5636 2.86168 51.5679 3.01019 51.517 3.144L46.4467 16.4229C46.4214 16.4893 46.3833 16.5501 46.3345 16.6017C46.2857 16.6534 46.2272 16.6949 46.1623 16.7239C46.0975 16.753 46.0275 16.7689 45.9565 16.7709C45.8854 16.7728 45.8147 16.7607 45.7484 16.7353C42.2398 15.3985 38.4477 14.9812 34.7324 15.5229C31.0171 16.0646 27.5021 17.5475 24.5213 19.8305C24.4273 19.9035 24.3117 19.9434 24.1927 19.944ZM16.3008 8.21751L24.3008 18.6499C27.3357 16.4368 30.8644 14.997 34.5813 14.455C38.2981 13.913 42.0911 14.2853 45.6316 15.5397L50.3138 3.26832C44.6769 1.21802 38.6198 0.596933 32.6842 1.46062C26.7485 2.3243 21.1196 4.64583 16.3008 8.21751Z" fill="#574E56"/>
<path d="M31.2646 46.4806H25.5047C25.3613 46.4806 25.2238 46.4237 25.1224 46.3223C25.0211 46.2209 24.9641 46.0834 24.9641 45.9401V32.0449C24.9641 31.9016 25.0211 31.7641 25.1224 31.6627C25.2238 31.5613 25.3613 31.5044 25.5047 31.5044H31.2636C31.4069 31.5044 31.5444 31.5613 31.6458 31.6627C31.7472 31.7641 31.8041 31.9016 31.8041 32.0449V45.9401C31.8041 46.0833 31.7473 46.2206 31.6462 46.3219C31.545 46.4233 31.4078 46.4803 31.2646 46.4806ZM26.0463 45.3995H30.7241V32.5855H26.0452L26.0463 45.3995Z" fill="#574E56"/>
<path d="M40.8794 46.4808H35.1194C34.976 46.4808 34.8385 46.4238 34.7372 46.3225C34.6358 46.2211 34.5789 46.0836 34.5789 45.9403V23.2959C34.5789 23.1526 34.6358 23.0151 34.7372 22.9137C34.8385 22.8123 34.976 22.7554 35.1194 22.7554H40.8794C41.0228 22.7554 41.1603 22.8123 41.2616 22.9137C41.363 23.0151 41.42 23.1526 41.42 23.2959V45.9403C41.42 46.0836 41.363 46.2211 41.2616 46.3225C41.1603 46.4238 41.0228 46.4808 40.8794 46.4808ZM35.6599 45.3997H40.3389V23.8365H35.6599V45.3997Z" fill="#574E56"/>
<path d="M50.4939 46.4807H44.7339C44.5905 46.4807 44.4531 46.4238 44.3517 46.3224C44.2503 46.221 44.1934 46.0835 44.1934 45.9402V28.4732C44.1934 28.3298 44.2503 28.1923 44.3517 28.0909C44.4531 27.9896 44.5905 27.9326 44.7339 27.9326H50.4928C50.6362 27.9326 50.7737 27.9896 50.875 28.0909C50.9764 28.1923 51.0334 28.3298 51.0334 28.4732V45.9402C51.0334 46.0834 50.9766 46.2207 50.8754 46.322C50.7743 46.4234 50.6371 46.4804 50.4939 46.4807ZM45.2755 45.3996H49.9534V29.0137H45.2744L45.2755 45.3996Z" fill="#574E56"/>
</svg>
