<svg width="90" height="88" viewBox="0 0 90 88" fill="none" xmlns="http://www.w3.org/2000/svg">
<path d="M88.9993 28.0207L78.141 34.0021L77.9115 34.1168L67.2683 28.0207L78.141 21.738L88.9993 28.0207Z" fill="#FDAD67" stroke="#3C2415" stroke-miterlimit="10" stroke-linejoin="round"/>
<path d="M88.9978 28.0203V40.5712L78.1394 46.8395V34.0017L88.9978 28.0203Z" fill="#FDAD67" stroke="#3C2415" stroke-miterlimit="10" stroke-linejoin="round"/>
<path d="M78.1415 34.2599V46.8395L67.2688 40.5712V28.0203L77.912 34.1164L78.1415 34.2599Z" fill="#FD923D" stroke="#3C2415" stroke-miterlimit="10" stroke-linejoin="round"/>
<path d="M20.2443 39.1685H5.35474V59.8116H20.2443V39.1685Z" fill="#BCD4F4" stroke="#3C2415" stroke-miterlimit="10"/>
<path d="M15.5785 43.0564H1V63.6866H15.5785V43.0564Z" fill="#D1E5FC" stroke="#3C2415" stroke-miterlimit="10"/>
<path d="M3.4873 49.484L6.6881 49.0952L8.29497 50.1319L9.90185 49.0952L11.2496 50.1319L12.7916 49.0952" stroke="#3C2415" stroke-miterlimit="10"/>
<path d="M3.4873 55.4058L5.35335 54.3691L6.6881 55.4058L8.13947 54.3691L9.69451 55.4058L11.3532 54.3691L12.7916 55.4058" stroke="#3C2415" stroke-miterlimit="10"/>
<path d="M3.4873 59.2416C4.00565 59.2416 5.56069 58.5159 5.97537 58.5159C6.39005 58.5159 8.30793 59.2416 8.30793 59.2416L9.50014 58.5159L12.0919 59.2416H12.8176L13.4396 58.5159" stroke="#3C2415" stroke-miterlimit="10"/>
<path d="M55.1027 49.1489C52.5888 52.9587 48.2735 55.4727 43.3622 55.4727C35.587 55.4727 29.302 49.1748 29.302 41.3995C29.302 33.6243 35.5999 27.3264 43.3622 27.3264V42.216L55.1027 49.1489Z" fill="#F8981D" stroke="#3C2415" stroke-miterlimit="10" stroke-linejoin="round"/>
<path d="M56.4403 36.2036L43.365 42.2164V27.3269C49.3001 27.3269 54.3799 31.0072 56.4403 36.2036Z" fill="#5ED2D1" stroke="#3C2415" stroke-miterlimit="10" stroke-linejoin="round"/>
<path d="M57.4237 41.4003C57.4237 44.2642 56.5684 46.9337 55.0912 49.1496L43.3506 42.2296L56.4389 36.2039C57.0868 37.8107 57.4237 39.5731 57.4237 41.4003Z" fill="#38707B" stroke="#3C2415" stroke-miterlimit="10" stroke-linejoin="round"/>
<path d="M69.6403 55.4593C69.6403 55.4593 61.3856 50.3018 57.2 48.6431C58.3403 46.479 58.9883 44.0038 58.9883 41.3991C58.9883 32.7816 51.9776 25.7839 43.3731 25.7839C34.7685 25.7839 27.7449 32.7816 27.7449 41.3991C27.7449 50.0167 34.7555 57.0144 43.3601 57.0144C47.2218 57.0144 50.7595 55.6019 53.4808 53.2693C56.5132 55.6407 64.4698 61.4592 68.5907 60.6298C68.6036 60.6428 73.7871 59.6061 69.6403 55.4593ZM43.3731 53.9172C36.4661 53.9172 30.855 48.3061 30.855 41.3991C30.855 34.4922 36.4661 28.8811 43.3731 28.8811C50.28 28.8811 55.8911 34.4922 55.8911 41.3991C55.8911 48.3061 50.2671 53.9172 43.3731 53.9172Z" fill="#507097" stroke="#3C2415" stroke-miterlimit="10"/>
<path d="M70.7368 18.2759L67.4971 5.47275L65.3459 7.80531C15.8567 -10.1295 3.49414 32.8156 3.49414 32.8156L9.80502 35.7054C9.80502 35.7054 23.6708 0.535489 60.4864 12.9499L58.4131 15.3343L70.7368 18.2759Z" fill="#5ED2D1" stroke="#3C2415" stroke-miterlimit="10"/>
<path d="M38.9158 0.73012C40.1857 0.63941 41.4945 0.613491 42.8423 0.639408" stroke="#3C2415" stroke-miterlimit="10"/>
<path d="M28.7366 2.59616C30.1491 2.18148 31.6912 1.77976 33.3628 1.46875" stroke="#3C2415" stroke-miterlimit="10"/>
<path d="M19.9092 6.22451C19.9092 6.22451 22.5528 4.64355 26.9069 3.16626" stroke="#3C2415" stroke-miterlimit="10"/>
<path d="M9.53672 34.8503L8.15015 34.3061C8.15015 34.3061 14.2278 22.708 24.5947 15.2179C28.91 12.0949 34.2489 9.91783 39.7564 9.23102C52.6373 7.62414 61.4233 11.9264 62.46 11.9783L60.3866 15.1791L59.6609 14.9199L61.1123 12.6392C61.1123 12.6392 46.8318 5.86176 29.519 13.2093C29.519 13.2223 15.8865 19.9738 9.53672 34.8503Z" fill="#36B6BF"/>
<path d="M17.1833 65.8931L19.2956 78.9295L21.6411 76.7913C69.355 99.0155 85.4497 57.3144 85.4497 57.3144L79.4239 53.8804C79.4239 53.8804 62.5258 87.7025 26.9412 72.1003L29.209 69.9103L17.1833 65.8931Z" fill="#5ED2D1" stroke="#3C2415" stroke-miterlimit="10"/>
<path d="M63.8188 84.1406C64.3761 83.8814 64.9463 83.6093 65.5035 83.3242" stroke="#3C2415" stroke-miterlimit="10"/>
<path d="M54.2383 86.7314C56.5708 86.4464 58.9941 85.928 61.4044 85.0857" stroke="#3C2415" stroke-miterlimit="10"/>
<path d="M37.8755 85.5642C37.8755 85.5642 43.6032 87.2877 50.9897 86.9897" stroke="#3C2415" stroke-miterlimit="10"/>
<path d="M19.4812 76.4931C19.5978 76.3765 21.2306 74.8214 21.2306 74.8214C21.2306 74.8214 35.5111 80.4844 38.686 80.8731C41.8609 81.2619 56.8281 83.1927 68.0115 75.4434C79.1948 67.6941 82.6678 57.6512 83.4453 56.8088L84.6505 57.6641C84.6505 57.6641 80.0501 67.1369 73.8688 72.5277C67.6875 77.9185 60.7546 81.5988 54.4697 82.1431C48.1847 82.6873 40.1503 83.7759 25.494 77.8019L21.5416 76.1302L19.7533 77.6464L19.4812 76.4931Z" fill="#36B6BF"/>
</svg>
