<svg width="620" height="367" viewBox="0 0 620 367" fill="none" xmlns="http://www.w3.org/2000/svg">
<path d="M497.1 325.6H28.7C13.4 325.6 1 314.7 1 301.3V300.8C1 287.4 13.4 276.5 28.7 276.5H497.1C512.4 276.5 524.8 287.4 524.8 300.8V301.3C524.7 314.7 512.3 325.6 497.1 325.6Z" fill="#5ED2D1"/>
<path d="M404.1 218.8H347.4V274.5H404.1V218.8Z" fill="#FDAD67"/>
<path d="M405.5 276H345.8V219.4C345.8 218.3 346.7 217.3 347.9 217.3H403.4C404.5 217.3 405.5 218.2 405.5 219.4V276ZM348.9 273H402.6V220.3H348.9V273Z" fill="#5D4E55"/>
<path d="M77.3999 1.6001H60.7V38.3001H77.3999V1.6001Z" fill="#D1E5FC"/>
<path d="M78.8999 39.8H59.2V0H78.8999V39.8ZM62.2 36.7H75.8999V3.2H62.2V36.7Z" fill="#5D4E55"/>
<path d="M83.6004 0H54.7004V3.2H83.6004V0Z" fill="#5D4E55"/>
<path d="M70.5 38.2998H67.5V66.1998H70.5V38.2998Z" fill="#5D4E55"/>
<path d="M19.4001 89L69.0001 68L118 89V94.3L112.7 98L69.0001 93.7L24.7001 98L19.4001 95V89Z" fill="#D1E5FC"/>
<path d="M113.1 99.4999L69.0001 95.0999L24.3 99.4999L17.8 95.7999V87.9999L69.0001 66.3999L119.5 87.9999V95.0999L113.1 99.4999ZM20.9001 94.0999L25.1001 96.3999L69.1001 92.0999L112.4 96.3999L116.6 93.4999V89.9999L69.0001 69.5999L20.9001 89.9999V94.0999Z" fill="#5D4E55"/>
<path d="M109 123.3L133 88.0003C133 88.0003 115.7 82.0004 110.7 103.3L109 114V123.3Z" fill="#D1E5FC"/>
<path d="M107.5 128.2V113.8L109.2 103C112.7 88.0002 122.3 85.7002 127.6 85.7002C130.9 85.7002 133.3 86.5002 133.4 86.6002C134.3 86.9002 134.7 88.0002 134.1 88.8002L107.5 128.2ZM110.5 114.1V118.4L129.2 91.0002C129.9 90.0002 129.2 88.7002 128 88.7002C127.9 88.7002 127.8 88.7002 127.7 88.7002C122.2 88.7002 115.1 91.3002 112.2 103.6L110.5 114.1Z" fill="#5D4E55"/>
<path d="M100.9 118.2C100.9 118.2 104.4 113.4 107.9 113.5V132.5C107.9 132.5 104.6 136.7 100.9 132.5V118.2Z" fill="#1E98AC"/>
<path d="M104.3 135.9C102.6 135.9 101.1 135.1 99.7001 133.5L99.3 133.1V117.7L99.6001 117.3C100 116.7 103.7 111.8 107.9 112L109.3 112.1V133.1L109 133.5C108.8 133.7 107 135.9 104.3 135.9ZM102.4 131.9C103.1 132.5 103.7 132.9 104.3 132.9C105.2 132.9 105.9 132.3 106.4 131.9V115.3C104.8 116 103.2 117.7 102.4 118.7V131.9Z" fill="#5D4E55"/>
<path d="M37.3999 118.2C37.3999 118.2 33.8999 113.4 30.3999 113.5V132.5C30.3999 132.5 33.6999 136.7 37.3999 132.5V118.2Z" fill="#1E98AC"/>
<path d="M33.8999 135.9C31.1999 135.9 29.3999 133.7 29.1999 133.5L28.8999 133.1V112.1L30.2999 112C34.4999 111.8 38.1999 116.7 38.5999 117.3L38.8999 117.7V133.1L38.4999 133.5C37.0999 135.1 35.5999 135.9 33.8999 135.9ZM31.8999 131.9C32.3999 132.3 33.0999 132.9 33.9999 132.9C34.5999 132.9 35.2999 132.6 35.8999 131.9V118.7C35.0999 117.7 33.4999 116 31.8999 115.3V131.9Z" fill="#5D4E55"/>
<path d="M490 280.9H34.2V288.7H490V280.9Z" fill="#37B4BC"/>
<path d="M100.9 113.5H37.4001V184H100.9V113.5Z" fill="#FDAD67"/>
<path d="M99.6001 185.5H38.6001C37.1001 185.5 35.8 184.3 35.8 182.7V114.7C35.8 113.2 37.0001 111.9 38.6001 111.9H99.6001C101.1 111.9 102.4 113.1 102.4 114.7V182.7C102.4 184.3 101.1 185.5 99.6001 185.5ZM38.9001 182.5H99.4V115H38.9001V182.5Z" fill="#5D4E55"/>
<path d="M153 218.8H109V274.6H153V218.8Z" fill="#FDAD67"/>
<path d="M154.5 276H107.5V219.8C107.5 218.4 108.6 217.2 110.1 217.2H152C153.4 217.2 154.6 218.3 154.6 219.8V276H154.5ZM110.5 273H151.5V220.2H110.5V273Z" fill="#5D4E55"/>
<path d="M302.7 130.5V148.8H183.7V131C183.7 128.2 185.9 126 188.7 126H298.2C300.7 126 302.7 128 302.7 130.5Z" fill="white"/>
<path d="M304.2 150.3H182.2V129.8C182.2 126.9 184.6 124.5 187.5 124.5H298.7C301.7 124.5 304.2 127 304.2 130V150.3ZM185.2 147.3H301.2V130.8C301.2 129 299.7 127.5 297.9 127.5H188.9C186.8 127.5 185.1 129.2 185.1 131.3V147.3H185.2Z" fill="#5D4E55"/>
<path d="M495 328.2H30.7C14.3 328.2 1 316.5 1 302.1V301.6C1 287.2 14.3 275.5 30.7 275.5H494.9C511.3 275.5 524.6 287.2 524.6 301.6V302.1C524.7 316.5 511.4 328.2 495 328.2ZM30.7 280.7C17.6 280.7 6.9 290.1 6.9 301.6V302.1C6.9 313.6 17.6 323 30.7 323H494.9C508 323 518.7 313.6 518.7 302.1V301.6C518.7 290.1 508 280.7 494.9 280.7H30.7Z" fill="#1E98AC"/>
<path d="M495 329.1H30.7C13.8 329.1 0 317 0 302.1V301.6C0 286.7 13.8 274.6 30.7 274.6H494.9C511.8 274.6 525.6 286.7 525.6 301.6V302.1C525.7 317 511.9 329.1 495 329.1ZM30.7 276.3C14.9 276.3 2 287.6 2 301.6V302.1C2 316 14.9 327.4 30.7 327.4H494.9C510.7 327.4 523.6 316.1 523.6 302.1V301.6C523.6 287.7 510.7 276.3 494.9 276.3H30.7ZM495 323.8H30.7C17 323.8 5.9 314 5.9 302V301.5C5.9 289.5 17 279.7 30.7 279.7H494.9C508.6 279.7 519.7 289.5 519.7 301.5V302C519.7 314.1 508.6 323.8 495 323.8ZM30.7 281.6C18.1 281.6 7.9 290.6 7.9 301.6V302.1C7.9 313.1 18.1 322.1 30.7 322.1H494.9C507.5 322.1 517.7 313.1 517.7 302.1V301.6C517.7 290.6 507.5 281.6 494.9 281.6H30.7Z" fill="#5D4E55"/>
<path d="M365.1 273.7H126.4V332.5H365.1V273.7Z" fill="#D1E5FC"/>
<path d="M366.5 333.9H124.9V272.5H366.6V333.9H366.5ZM127.9 331.3H363.6V275.1H127.9V331.3Z" fill="#5D4E55"/>
<path d="M302.7 148.8H183.7V365.1H302.7V148.8Z" fill="#D1E5FC"/>
<path d="M304.2 366.5H182.2V147.3H304.2V366.5ZM185.2 363.5H301.2V150.3H185.2V363.5Z" fill="#5D4E55"/>
<path d="M315.4 160.7H170.4C166.7 160.7 163.7 163.7 163.7 167.4V248.7C163.7 252.4 166.7 255.4 170.4 255.4H315.4C319.1 255.4 322.1 252.4 322.1 248.7V167.4C322 163.6 319 160.7 315.4 160.7ZM317 242.7H170.7V167.7H317V242.7Z" fill="#507192" stroke="#5D4E55" stroke-width="2" stroke-miterlimit="10"/>
<path d="M317 166.5H170.7V242.6H317V166.5Z" fill="white"/>
<path d="M318 243.7H169.7V165.5H318V243.7ZM171.7 241.6H316V167.5H171.7V241.6Z" fill="#5D4E55"/>
<path d="M297.5 131H284.9V143.6H297.5V131Z" fill="#FDAD67"/>
<path d="M299.4 145.4H283.1V129.1H299.4V145.4ZM284.9 143.6H297.5V131H284.9V143.6Z" fill="#5D4E55"/>
<path d="M261.6 141.3C263.809 141.3 265.6 139.509 265.6 137.3C265.6 135.091 263.809 133.3 261.6 133.3C259.391 133.3 257.6 135.091 257.6 137.3C257.6 139.509 259.391 141.3 261.6 141.3Z" fill="#1E98AC"/>
<path d="M261.6 142.3C258.8 142.3 256.6 140.1 256.6 137.3C256.6 134.5 258.8 132.3 261.6 132.3C264.4 132.3 266.6 134.5 266.6 137.3C266.6 140.1 264.3 142.3 261.6 142.3ZM261.6 134.3C259.9 134.3 258.6 135.6 258.6 137.3C258.6 139 259.9 140.3 261.6 140.3C263.3 140.3 264.6 139 264.6 137.3C264.6 135.6 263.2 134.3 261.6 134.3Z" fill="#5D4E55"/>
<path d="M274.4 141.3C276.609 141.3 278.4 139.509 278.4 137.3C278.4 135.091 276.609 133.3 274.4 133.3C272.191 133.3 270.4 135.091 270.4 137.3C270.4 139.509 272.191 141.3 274.4 141.3Z" fill="#5ED2D1"/>
<path d="M274.4 142.3C271.6 142.3 269.4 140.1 269.4 137.3C269.4 134.5 271.6 132.3 274.4 132.3C277.2 132.3 279.4 134.5 279.4 137.3C279.4 140.1 277.2 142.3 274.4 142.3ZM274.4 134.3C272.7 134.3 271.4 135.6 271.4 137.3C271.4 139 272.7 140.3 274.4 140.3C276.1 140.3 277.4 139 277.4 137.3C277.4 135.6 276.1 134.3 274.4 134.3Z" fill="#5D4E55"/>
<path d="M237.7 191.5C237.4 191.5 237 191.5 236.7 191.5C229.2 191.5 223 197.6 223 205.2C223 206.4 223.1 207.5 223.4 208.6L207.4 214.4C206.5 211.5 206 208.4 206 205.2C206 188.3 219.7 174.5 236.7 174.5C237 174.5 237.4 174.5 237.7 174.5V191.5Z" fill="#D1E5FC"/>
<path d="M206.8 215.7L206.5 214.7C205.5 211.6 205 208.4 205 205.2C205 187.7 219.2 173.5 236.7 173.5C237.1 173.5 237.4 173.5 237.7 173.5H238.7V192.6L237.6 192.5C237.3 192.5 237 192.5 236.7 192.5C229.7 192.5 224 198.2 224 205.2C224 206.3 224.1 207.3 224.4 208.4V208.6V209.3L223.7 209.5L206.8 215.7ZM236.7 175.5C220.3 175.5 207 188.8 207 205.2C207 207.9 207.4 210.6 208.1 213.1L222.3 208C222.1 207.1 222 206.2 222 205.2C222 197.1 228.6 190.5 236.7 190.5V175.5Z" fill="#5D4E55"/>
<path d="M301.4 255.8H279.4H215.9H185.1V263.3H217.6V284.4C217.6 287 219.6 289 222 289H276C277.9 289 279.5 287.4 279.5 285.4V267.2C279.5 265 281.2 263.3 283.2 263.3H301.5V255.8H301.4Z" fill="#B9D4FC"/>
<path d="M259.1 226.1C253.5 232.1 245.5 235.9 236.7 235.9C223 235.9 211.4 226.9 207.4 214.5L223.4 208.7C224.9 214.6 230.3 218.9 236.6 218.9C240.7 218.9 244.3 217.1 246.8 214.3L259.1 226.1Z" fill="#FDAD67"/>
<path d="M236.7 236.8C222.8 236.8 210.7 227.9 206.5 214.6L206.2 213.7L224.2 207.2L224.5 208.3C225.9 213.9 231 217.8 236.8 217.8C240.4 217.8 243.9 216.3 246.3 213.6L247 212.8L260.7 226L260 226.7C253.9 233.2 245.5 236.8 236.7 236.8ZM208.7 215C212.9 226.9 224 234.8 236.7 234.8C244.6 234.8 252.2 231.6 257.7 226.1L246.9 215.7C244.2 218.4 240.5 219.9 236.7 219.9C230.4 219.9 224.8 215.9 222.8 210L208.7 215Z" fill="#5D4E55"/>
<path d="M250.9 178L242.8 193C241.2 192.2 239.5 191.7 237.7 191.6V174.6C242.5 174.7 247 175.9 250.9 178Z" fill="#ED80AA"/>
<path d="M243.3 194.3L242.4 193.9C240.9 193.1 239.3 192.7 237.6 192.6L236.7 192.5V173.5H237.7C242.5 173.7 247.1 174.9 251.4 177.1L252.3 177.6L243.3 194.3ZM238.7 190.6C240 190.8 241.2 191.1 242.4 191.6L249.5 178.4C246.1 176.7 242.4 175.8 238.6 175.5L238.7 190.6Z" fill="#5D4E55"/>
<path d="M284.7 204.9C284.7 214.9 280.8 224 274.5 230.8L259.3 216.1C262 213.1 263.6 209.1 263.6 204.8C263.6 198.2 259.8 192.4 254.3 189.7L264.3 171.1C276.4 177.6 284.7 190.3 284.7 204.9Z" fill="#5ED2D1"/>
<path d="M274.5 233L257.2 216.3L258.2 215.2C260.7 212.4 262.1 208.7 262.1 204.9C262.1 199 258.8 193.7 253.6 191.1L252.2 190.4L263.6 169.2L264.9 169.9C278 176.8 286.1 190.2 286.1 205C286.1 215.1 282.3 224.6 275.5 232L274.5 233ZM261.3 216.1L274.4 228.7C280.1 222.1 283.2 213.7 283.2 204.9C283.2 191.7 276.2 179.7 264.9 173.2L256.3 189.2C261.8 192.5 265.1 198.4 265.1 204.9C265.1 209 263.7 212.9 261.3 216.1Z" fill="#5D4E55"/>
<path d="M224.3 255.2H215.2V260.3H224.3V255.2Z" fill="#ED80AA"/>
<path d="M225.3 261.2H214.3V254.2H225.3V261.2ZM216.2 259.3H223.4V256.1H216.2V259.3Z" fill="#5D4E55"/>
<path d="M272.6 265H264.8V270.4H272.6V265Z" fill="#5ED2D1"/>
<path d="M273.5 271.4H264V264H273.5V271.4ZM265.7 269.4H271.8V266H265.7V269.4Z" fill="#5D4E55"/>
<path d="M272.4 275.5H215.2V281.8H272.4V275.5Z" fill="#B9D4FC"/>
<path d="M273.5 282.8H214.3V274.6H273.5V282.8ZM216.2 280.8H271.5V276.4H216.2V280.8Z" fill="#5D4E55"/>
<path d="M272.5 255.2V265.4H263.7V270.4H272.5V275.5H215.2V260.3H224.4V255.2H272.5Z" fill="white"/>
<path d="M273.5 276.5H214.3V259.4H223.4V254.3H273.5V266.4H264.7V269.6H273.5V276.5ZM216.2 274.6H271.5V271.4H262.7V264.4H271.5V256.1H225.3V261.2H216.2V274.6Z" fill="#5D4E55"/>
<path d="M224.7 259.6H222.7V276H224.7V259.6Z" fill="#5D4E55"/>
<path d="M233.2 254.5H231.3V275.8H233.2V254.5Z" fill="#5D4E55"/>
<path d="M241 254.5H239.1V275.8H241V254.5Z" fill="#5D4E55"/>
<path d="M248.9 254.5H247V275.8H248.9V254.5Z" fill="#5D4E55"/>
<path d="M256.7 254.5H254.8V275.8H256.7V254.5Z" fill="#5D4E55"/>
<path d="M265.3 270.4H263.3V276H265.3V270.4Z" fill="#5D4E55"/>
<path d="M264.6 254.5H262.7V265.1H264.6V254.5Z" fill="#5D4E55"/>
<path d="M272.5 259.3H224.4V261.2H272.5V259.3Z" fill="#5D4E55"/>
<path d="M263.6 264.1H214.6V266H263.6V264.1Z" fill="#5D4E55"/>
<path d="M264.3 269.4H214.3V271.4H264.3V269.4Z" fill="#5D4E55"/>
<path d="M224.189 209.928L223.241 207.082L222.956 207.176L223.905 210.022L224.189 209.928Z" fill="#5D4E55"/>
<path d="M200.2 174.7H176.9V176.7H200.2V174.7Z" fill="#5D4E55"/>
<path d="M200.2 180.8H176.9V182.8H200.2V180.8Z" fill="#5D4E55"/>
<path d="M191.7 186.8H176.9V188.8H191.7V186.8Z" fill="#5D4E55"/>
<path d="M309.3 173.7H294.5V184H309.3V173.7Z" fill="#5ED2D1"/>
<path d="M310.9 185.5H293.1V172.2H310.9V185.5ZM296 182.5H307.8V175.2H296V182.5Z" fill="#5D4E55"/>
<path d="M309 189.1H294.5V191.1H309V189.1Z" fill="#5D4E55"/>
<path d="M309 195.3H294.5V197.3H309V195.3Z" fill="#5D4E55"/>
<path d="M306.6 201.1H294.5V203.1H306.6V201.1Z" fill="#5D4E55"/>
<path d="M311.7 234.1H293.9V236.1H311.7V234.1Z" fill="#5D4E55"/>
<path d="M297.3 225.8H295.3V234.3H297.3V225.8Z" fill="#5D4E55"/>
<path d="M309.6 221.6H307.6V234.4H309.6V221.6Z" fill="#5D4E55"/>
<path d="M291.2 141.4C293.464 141.4 295.3 139.565 295.3 137.3C295.3 135.036 293.464 133.2 291.2 133.2C288.935 133.2 287.1 135.036 287.1 137.3C287.1 139.565 288.935 141.4 291.2 141.4Z" fill="#ED80AA"/>
<path d="M291.2 142.2C288.5 142.2 286.2 140 286.2 137.2C286.2 134.4 288.4 132.2 291.2 132.2C294 132.2 296.2 134.4 296.2 137.2C296.2 140 293.9 142.2 291.2 142.2ZM291.2 135C290 135 289 136 289 137.2C289 138.4 290 139.4 291.2 139.4C292.4 139.4 293.4 138.4 293.4 137.2C293.4 136 292.4 135 291.2 135Z" fill="#5D4E55"/>
<path d="M197.1 343.1C197.1 344.5 196 345.6 194.6 345.6C193.2 345.6 192.1 344.5 192.1 343.1V324.6C192.1 323.2 193.2 322.1 194.6 322.1C196 322.1 197.1 323.2 197.1 324.6V343.1Z" fill="#507192"/>
<path d="M194.6 346.6C192.7 346.6 191.1 345 191.1 343.1V324.6C191.1 322.7 192.7 321.1 194.6 321.1C196.5 321.1 198.1 322.7 198.1 324.6V343.1C198.1 345.1 196.5 346.6 194.6 346.6ZM194.6 323.1C193.8 323.1 193.1 323.8 193.1 324.6V343.1C193.1 343.9 193.8 344.6 194.6 344.6C195.4 344.6 196.1 343.9 196.1 343.1V324.6C196.1 323.8 195.4 323.1 194.6 323.1Z" fill="#5D4E55"/>
<path d="M205.3 343.1C205.3 344.5 204.2 345.6 202.8 345.6C201.4 345.6 200.3 344.5 200.3 343.1V324.6C200.3 323.2 201.4 322.1 202.8 322.1C204.2 322.1 205.3 323.2 205.3 324.6V343.1Z" fill="#507192"/>
<path d="M202.8 346.6C200.9 346.6 199.3 345 199.3 343.1V324.6C199.3 322.7 200.9 321.1 202.8 321.1C204.7 321.1 206.3 322.7 206.3 324.6V343.1C206.3 345.1 204.8 346.6 202.8 346.6ZM202.8 323.1C202 323.1 201.3 323.8 201.3 324.6V343.1C201.3 343.9 202 344.6 202.8 344.6C203.6 344.6 204.3 343.9 204.3 343.1V324.6C204.3 323.8 203.7 323.1 202.8 323.1Z" fill="#5D4E55"/>
<path d="M213.6 343.1C213.6 344.5 212.5 345.6 211.1 345.6C209.7 345.6 208.6 344.5 208.6 343.1V324.6C208.6 323.2 209.7 322.1 211.1 322.1C212.5 322.1 213.6 323.2 213.6 324.6V343.1Z" fill="#507192"/>
<path d="M211.1 346.6C209.2 346.6 207.6 345 207.6 343.1V324.6C207.6 322.7 209.2 321.1 211.1 321.1C213 321.1 214.6 322.7 214.6 324.6V343.1C214.6 345.1 213 346.6 211.1 346.6ZM211.1 323.1C210.3 323.1 209.6 323.8 209.6 324.6V343.1C209.6 343.9 210.3 344.6 211.1 344.6C211.9 344.6 212.6 343.9 212.6 343.1V324.6C212.6 323.8 211.9 323.1 211.1 323.1Z" fill="#5D4E55"/>
<path d="M28.2 322.3C39.5218 322.3 48.7 313.122 48.7 301.8C48.7 290.478 39.5218 281.3 28.2 281.3C16.8781 281.3 7.69995 290.478 7.69995 301.8C7.69995 313.122 16.8781 322.3 28.2 322.3Z" fill="#B9D4FC"/>
<path d="M28.1999 323.6C16.1999 323.6 6.3999 313.8 6.3999 301.8C6.3999 289.8 16.1999 280 28.1999 280C40.1999 280 49.9999 289.8 49.9999 301.8C49.9999 313.8 40.1999 323.6 28.1999 323.6ZM28.1999 282.6C17.5999 282.6 9.0999 291.2 9.0999 301.7C9.0999 312.2 17.6999 320.8 28.1999 320.8C38.7999 320.8 47.2999 312.2 47.2999 301.7C47.2999 291.2 38.7999 282.6 28.1999 282.6Z" fill="#5D4E55"/>
<path d="M28.1999 308.9C32.1211 308.9 35.2999 305.721 35.2999 301.8C35.2999 297.879 32.1211 294.7 28.1999 294.7C24.2786 294.7 21.0999 297.879 21.0999 301.8C21.0999 305.721 24.2786 308.9 28.1999 308.9Z" fill="#1E98AC"/>
<path d="M28.2 309.7C23.8 309.7 20.2 306.1 20.2 301.7C20.2 297.3 23.8 293.7 28.2 293.7C32.6 293.7 36.2 297.3 36.2 301.7C36.2 306.1 32.6 309.7 28.2 309.7ZM28.2 295.5C24.8 295.5 22 298.3 22 301.7C22 305.1 24.8 307.9 28.2 307.9C31.6 307.9 34.4 305.1 34.4 301.7C34.4 298.3 31.6 295.5 28.2 295.5Z" fill="#5D4E55"/>
<path d="M497.9 322.8C509.498 322.8 518.9 313.398 518.9 301.8C518.9 290.202 509.498 280.8 497.9 280.8C486.302 280.8 476.9 290.202 476.9 301.8C476.9 313.398 486.302 322.8 497.9 322.8Z" fill="#B9D4FC"/>
<path d="M497.9 324.2C485.5 324.2 475.5 314.1 475.5 301.8C475.5 289.5 485.6 279.4 497.9 279.4C510.3 279.4 520.3 289.5 520.3 301.8C520.3 314.1 510.2 324.2 497.9 324.2ZM497.9 282.1C487.1 282.1 478.3 290.9 478.3 301.7C478.3 312.5 487.1 321.3 497.9 321.3C508.7 321.3 517.5 312.5 517.5 301.7C517.5 290.9 508.7 282.1 497.9 282.1Z" fill="#5D4E55"/>
<path d="M497.9 309.2C501.987 309.2 505.3 305.887 505.3 301.8C505.3 297.713 501.987 294.4 497.9 294.4C493.813 294.4 490.5 297.713 490.5 301.8C490.5 305.887 493.813 309.2 497.9 309.2Z" fill="#1E98AC"/>
<path d="M497.9 310.1C493.3 310.1 489.6 306.4 489.6 301.8C489.6 297.2 493.3 293.5 497.9 293.5C502.5 293.5 506.2 297.2 506.2 301.8C506.2 306.4 502.5 310.1 497.9 310.1ZM497.9 295.3C494.3 295.3 491.4 298.2 491.4 301.8C491.4 305.4 494.3 308.3 497.9 308.3C501.5 308.3 504.4 305.4 504.4 301.8C504.4 298.2 501.4 295.3 497.9 295.3Z" fill="#5D4E55"/>
<path d="M68.5 293.3C72.0899 293.3 75 290.39 75 286.8C75 283.21 72.0899 280.3 68.5 280.3C64.9101 280.3 62 283.21 62 286.8C62 290.39 64.9101 293.3 68.5 293.3Z" fill="#D1E5FC"/>
<path d="M68.5 294.8C64.1 294.8 60.5 291.2 60.5 286.8C60.5 282.4 64.1 278.8 68.5 278.8C72.9 278.8 76.5 282.4 76.5 286.8C76.5 291.2 72.9 294.8 68.5 294.8ZM68.5 281.8C65.7 281.8 63.5 284 63.5 286.8C63.5 289.6 65.7 291.8 68.5 291.8C71.3 291.8 73.5 289.6 73.5 286.8C73.5 284 71.2 281.8 68.5 281.8Z" fill="#5D4E55"/>
<path d="M107 293.3C110.59 293.3 113.5 290.39 113.5 286.8C113.5 283.21 110.59 280.3 107 280.3C103.41 280.3 100.5 283.21 100.5 286.8C100.5 290.39 103.41 293.3 107 293.3Z" fill="#D1E5FC"/>
<path d="M107 294.8C102.6 294.8 99 291.2 99 286.8C99 282.4 102.6 278.8 107 278.8C111.4 278.8 115 282.4 115 286.8C115 291.2 111.4 294.8 107 294.8ZM107 281.8C104.2 281.8 102 284 102 286.8C102 289.6 104.2 291.8 107 291.8C109.8 291.8 112 289.6 112 286.8C112 284 109.8 281.8 107 281.8Z" fill="#5D4E55"/>
<path d="M419.4 293.3C422.99 293.3 425.9 290.39 425.9 286.8C425.9 283.21 422.99 280.3 419.4 280.3C415.81 280.3 412.9 283.21 412.9 286.8C412.9 290.39 415.81 293.3 419.4 293.3Z" fill="#D1E5FC"/>
<path d="M419.4 294.8C415 294.8 411.4 291.2 411.4 286.8C411.4 282.4 415 278.8 419.4 278.8C423.8 278.8 427.4 282.4 427.4 286.8C427.4 291.2 423.8 294.8 419.4 294.8ZM419.4 281.8C416.6 281.8 414.4 284 414.4 286.8C414.4 289.5 416.6 291.8 419.4 291.8C422.2 291.8 424.4 289.6 424.4 286.8C424.4 284 422.2 281.8 419.4 281.8Z" fill="#5D4E55"/>
<path d="M457.8 293.3C461.39 293.3 464.3 290.39 464.3 286.8C464.3 283.21 461.39 280.3 457.8 280.3C454.21 280.3 451.3 283.21 451.3 286.8C451.3 290.39 454.21 293.3 457.8 293.3Z" fill="#D1E5FC"/>
<path d="M457.8 294.8C453.4 294.8 449.8 291.2 449.8 286.8C449.8 282.4 453.4 278.8 457.8 278.8C462.2 278.8 465.8 282.4 465.8 286.8C465.8 291.2 462.2 294.8 457.8 294.8ZM457.8 281.8C455 281.8 452.8 284 452.8 286.8C452.8 289.5 455 291.8 457.8 291.8C460.6 291.8 462.8 289.6 462.8 286.8C462.8 284 460.6 281.8 457.8 281.8Z" fill="#5D4E55"/>
<path d="M455.2 5.2998H387.7V60.5998H455.2V5.2998Z" fill="#FDAD67"/>
<path d="M456.6 62.1998H386.2V5.7998C386.2 4.6998 387.1 3.7998 388.1 3.7998H454.7C455.8 3.7998 456.6 4.6998 456.6 5.7998V62.1998ZM389.1 59.1998H453.7V6.7998H389.2V59.1998H389.1Z" fill="#5D4E55"/>
<path d="M567.4 76.1001H481.4V118.4H567.4V76.1001Z" fill="#FDAD67"/>
<path d="M566.2 119.8H482.5C481 119.8 479.8 118.6 479.8 117.2V77.2001C479.8 75.8001 481 74.6001 482.5 74.6001H566.2C567.7 74.6001 568.9 75.8001 568.9 77.2001V117.2C568.9 118.7 567.7 119.8 566.2 119.8ZM482.9 116.9H565.9V77.6001H482.9V116.9Z" fill="#5D4E55"/>
<path d="M601.4 61.8999H381.8C377.8 61.8999 374.5 64.6999 374.5 68.0999V68.1999H608.7V68.0999C608.7 64.6999 605.4 61.8999 601.4 61.8999Z" fill="#D1E5FC"/>
<path d="M608.7 69.5001H373.1V68.2001C373.1 64.0001 377 60.6001 381.9 60.6001H601.5C606.3 60.6001 610.3 64.0001 610.3 68.1001V69.4001L608.7 69.5001ZM376.2 66.9001H607C606.4 64.8001 604.1 63.2001 601.4 63.2001H381.8C379.1 63.2001 376.9 64.8001 376.2 66.9001Z" fill="#5D4E55"/>
<path d="M601.4 119.5H381.8C377.8 119.5 374.5 122.3 374.5 125.8V125.9H608.7V125.8C608.7 122.3 605.4 119.5 601.4 119.5Z" fill="#D1E5FC"/>
<path d="M608.7 127.4H373.1V125.9C373.1 121.5 377 118 381.9 118H601.5C606.3 118 610.3 121.5 610.3 125.8V127.3L608.7 127.4ZM376.3 124.4H606.9C606.2 122.4 604 121 601.4 121H381.8C379.2 121 377 122.4 376.3 124.4Z" fill="#5D4E55"/>
<path d="M597.1 343H516.7C510.3 343 505.1 348.2 505.1 354.6V365H608.7V354.6C608.7 348.2 603.5 343 597.1 343Z" fill="#D1E5FC"/>
<path d="M610.2 366.5H503.6V353.4C503.6 346.8 508.9 341.5 515.5 341.5H598.3C604.9 341.5 610.2 346.8 610.2 353.4V366.5ZM506.6 363.5H607.2V353.7C607.2 348.6 603.1 344.4 597.9 344.4H515.8C510.7 344.4 506.5 348.5 506.5 353.7V363.5H506.6Z" fill="#5D4E55"/>
<path d="M574.3 221.5H539.5V329H574.3V221.5Z" fill="#D1E5FC"/>
<path d="M575.7 330.5H537.9V220H575.7V330.5ZM541 327.5H572.7V223H540.9V327.5H541Z" fill="#5D4E55"/>
<path d="M602.341 146.797L582.419 136.337L548.156 201.591L568.078 212.051L602.341 146.797Z" fill="#D1E5FC"/>
<path d="M568.7 214.1L546.1 202.2L581.8 134.3L604.4 146.2L568.7 214.1ZM550.1 200.9L567.4 210L600.3 147.4L583 138.3L550.1 200.9Z" fill="#5D4E55"/>
<path d="M501.464 145.963L489.792 142.081L478.431 176.241L490.102 180.123L501.464 145.963Z" fill="#D1E5FC"/>
<path d="M491.1 182L476.6 177.2L488.9 140.2L503.4 145L491.1 182ZM480.4 175.3L489.3 178.2L499.7 146.9L490.8 144L480.4 175.3Z" fill="#5D4E55"/>
<path d="M490.163 137.576L494.65 126.124L461.13 112.991L456.643 124.443L490.163 137.576Z" fill="#D1E5FC"/>
<path d="M491 139.5L454.7 125.3L460.3 111L496.6 125.2L491 139.5ZM458.6 123.6L489.3 135.6L492.7 126.9L462 114.9L458.6 123.6Z" fill="#5D4E55"/>
<path d="M438.8 146.2L429.9 137.7L451.8 114.4L460.7 122.9L438.8 146.2Z" fill="#1E98AC"/>
<path d="M438.8 148.2L428.8 138.5C428.3 138 428.3 137.2 428.8 136.7L451.8 112.2L462.8 122.7L438.8 148.2ZM432.8 138.5L438.7 144.2L458.7 123L451.9 116.4L432.8 136.7C432.3 137.2 432.3 138 432.8 138.5Z" fill="#5D4E55"/>
<path d="M190.7 208.6L198.4 215.6C198.7 215.8 198.8 216.2 198.8 216.6V233.3C198.8 234.7 197.7 235.9 196.4 235.9H179.5C178.2 235.9 177.1 234.7 177.1 233.3V215.7C177.1 215.3 177.3 214.9 177.6 214.7L185.2 208.5C186.9 207.1 189.2 207.1 190.7 208.6Z" fill="white"/>
<path d="M196.5 237.3H179.6C177.5 237.3 175.9 235.5 175.9 233.2V215.6C175.9 214.7 176.3 213.9 176.9 213.4L184.5 207.2C185.5 206.4 186.7 205.9 188 205.9C189.3 205.9 190.7 206.4 191.7 207.4L199.4 214.4C200 214.9 200.3 215.7 200.3 216.5V233.2C200.2 235.5 198.5 237.3 196.5 237.3ZM178.5 215.8V233.3C178.5 233.9 179 234.4 179.6 234.4H196.5C197.1 234.4 197.6 233.9 197.6 233.3V216.7L189.9 209.7C188.8 208.7 187.2 208.7 186.1 209.6L178.5 215.8Z" fill="#5D4E55"/>
<path d="M303.7 213H301.7V234.3H303.7V213Z" fill="#5D4E55"/>
<path d="M582.4 343C582.4 328.5 570.6 316.7 556.1 316.7C541.6 316.7 529.8 328.5 529.8 343H582.4Z" fill="#D1E5FC"/>
<path d="M583.9 344.5H528.2V343C528.2 327.7 540.7 315.2 556 315.2C571.3 315.2 583.8 327.7 583.8 343V344.5H583.9ZM531.2 341.5H580.8C580 328.5 569.2 318.2 556 318.2C542.8 318.2 532 328.5 531.2 341.5Z" fill="#5D4E55"/>
<path d="M481.2 183.3L462.2 180L465.1 168.1L484.1 171.4L481.2 183.3Z" fill="#1E98AC"/>
<path d="M482.5 184.9L461.6 181.3C460.9 181.2 460.4 180.5 460.6 179.7L463.9 166.4L486.1 170.2L482.5 184.9ZM465.5 179.2L480 181.7L482.3 172.4L466.5 169.7L464.5 177.7C464.3 178.4 464.7 179.1 465.5 179.2Z" fill="#5D4E55"/>
<path d="M456.2 126.3C460.618 126.3 464.2 122.718 464.2 118.3C464.2 113.882 460.618 110.3 456.2 110.3C451.782 110.3 448.2 113.882 448.2 118.3C448.2 122.718 451.782 126.3 456.2 126.3Z" fill="#B9D4FC"/>
<path d="M456.2 127.8C451 127.8 446.7 123.5 446.7 118.3C446.7 113.1 451 108.8 456.2 108.8C461.4 108.8 465.7 113.1 465.7 118.3C465.7 123.5 461.4 127.8 456.2 127.8ZM456.2 111.8C452.6 111.8 449.7 114.7 449.7 118.3C449.7 121.9 452.6 124.8 456.2 124.8C459.8 124.8 462.7 121.9 462.7 118.3C462.7 114.7 459.8 111.8 456.2 111.8Z" fill="#5D4E55"/>
<path d="M483.6 187.2C488.018 187.2 491.6 183.618 491.6 179.2C491.6 174.782 488.018 171.2 483.6 171.2C479.182 171.2 475.6 174.782 475.6 179.2C475.6 183.618 479.182 187.2 483.6 187.2Z" fill="#B9D4FC"/>
<path d="M483.6 188.7C478.4 188.7 474.1 184.4 474.1 179.2C474.1 174 478.4 169.7 483.6 169.7C488.8 169.7 493.1 174 493.1 179.2C493.1 184.4 488.9 188.7 483.6 188.7ZM483.6 172.7C480 172.7 477.1 175.6 477.1 179.2C477.1 182.8 480 185.7 483.6 185.7C487.2 185.7 490.1 182.8 490.1 179.2C490.1 175.6 487.2 172.7 483.6 172.7Z" fill="#5D4E55"/>
<path d="M464.886 132.383L405.235 158.953L419.192 190.286L478.843 163.716L464.886 132.383Z" fill="#FDAD67"/>
<path d="M417.5 190.3L404.1 160.3C403.6 159.2 404.1 157.8 405.2 157.3L463.5 131.3C464.6 130.8 466 131.3 466.5 132.4L479.9 162.4C480.4 163.5 479.9 164.9 478.8 165.4L420.5 191.4C419.4 191.9 418 191.4 417.5 190.3ZM407.2 159.8L419.9 188.4L476.8 163.1L464.1 134.5L407.2 159.8Z" fill="#5D4E55"/>
<path d="M295.576 184.92L294.897 183.039L274.58 190.37L275.259 192.251L295.576 184.92Z" fill="#5D4E55"/>
<path d="M90 78.7002C90 78.7002 91.1 89.6002 85 93.8002L79.2 93.1002L83.6 75.7002L90 78.7002Z" fill="#B9D4FC"/>
<path d="M69.0998 94.1C76.4452 94.1 82.3998 88.1454 82.3998 80.8C82.3998 73.4546 76.4452 67.5 69.0998 67.5C61.7544 67.5 55.7998 73.4546 55.7998 80.8C55.7998 88.1454 61.7544 94.1 69.0998 94.1Z" fill="#507192"/>
<path d="M69.0999 95.5001C60.9999 95.5001 54.3999 88.9001 54.3999 80.8001C54.3999 72.7001 60.9999 66.1001 69.0999 66.1001C77.1999 66.1001 83.7999 72.7001 83.7999 80.8001C83.7999 88.9001 77.1999 95.5001 69.0999 95.5001ZM69.0999 69.0001C62.5999 69.0001 57.1999 74.3001 57.1999 80.9001C57.1999 87.5001 62.4999 92.8001 69.0999 92.8001C75.6999 92.8001 80.9999 87.5001 80.9999 80.9001C80.9999 74.3001 75.6999 69.0001 69.0999 69.0001Z" fill="#5D4E55"/>
<path d="M26.9001 87.3999C26.9001 87.3999 31.5 93.5999 31.5 95.8999L24.6001 96.6999L21.3 89.8999L26.9001 87.3999Z" fill="#B9D4FC"/>
<path d="M28.5 123.3L4.5 88.0003C4.5 88.0003 21.8 82.0004 26.8 103.3L28.5 114V123.3Z" fill="#D1E5FC"/>
<path d="M29.9999 128.2L3.29995 88.8002C2.79995 88.0002 3.09995 86.9002 3.99995 86.6002C4.09995 86.6002 6.49995 85.7002 9.79995 85.7002C15.1999 85.7002 24.6999 87.9002 28.1999 103V103.1L29.9 114V128.2H29.9999ZM8.39995 91.0002L26.9999 118.4V114.1L25.4 103.6C22.5 91.3002 15.4 88.7002 9.89995 88.7002C9.79995 88.7002 9.69995 88.7002 9.59995 88.7002C8.39995 88.7002 7.69995 90.1002 8.39995 91.0002Z" fill="#5D4E55"/>
<path d="M182.4 275.4H176.1V331.2H182.4V275.4Z" fill="#B9D4FC"/>
<path d="M310.5 275.4H304.2V331.2H310.5V275.4Z" fill="#B9D4FC"/>
<path d="M578.9 146.2L576.3 150.9C576.3 150.9 583.4 161.7 594.1 159L596.6 154.4L583 143.9L578.9 146.2Z" fill="#B9D4FC"/>
<path d="M541.1 225.1V234.5C541.1 234.5 558.6 245 572.7 233.7V223.3L552.4 221.5L541.1 225.1Z" fill="#B9D4FC"/>
<path d="M556 232C567.764 232 577.3 222.464 577.3 210.7C577.3 198.936 567.764 189.4 556 189.4C544.237 189.4 534.7 198.936 534.7 210.7C534.7 222.464 544.237 232 556 232Z" fill="#507192"/>
<path d="M556 233.5C543.4 233.5 533.2 223.3 533.2 210.7C533.2 198.1 543.4 187.9 556 187.9C568.6 187.9 578.8 198.1 578.8 210.7C578.9 223.3 568.6 233.5 556 233.5ZM556 190.8C545.1 190.8 536.2 199.7 536.2 210.6C536.2 221.5 545.1 230.4 556 230.4C566.9 230.4 575.8 221.5 575.8 210.6C575.9 199.7 567 190.8 556 190.8Z" fill="#5D4E55"/>
<path d="M556 217C559.48 217 562.3 214.179 562.3 210.7C562.3 207.221 559.48 204.4 556 204.4C552.521 204.4 549.7 207.221 549.7 210.7C549.7 214.179 552.521 217 556 217Z" fill="#D1E5FC"/>
<path d="M556 218C552 218 548.7 214.7 548.7 210.7C548.7 206.7 552 203.4 556 203.4C560 203.4 563.3 206.7 563.3 210.7C563.4 214.7 560.1 218 556 218ZM556 205.3C553.1 205.3 550.7 207.7 550.7 210.6C550.7 213.5 553.1 215.9 556 215.9C558.9 215.9 561.3 213.5 561.3 210.6C561.4 207.7 559 205.3 556 205.3Z" fill="#5D4E55"/>
<path d="M559.7 318.3C559.7 318.3 578.8 321.3 580.7 341.3H577.7C577.7 341.3 577.5 324.3 559.7 318.3Z" fill="#B9D4FC"/>
<path d="M607.5 363.5C607.5 363.5 607.9 358.9 607 351.8C606.6 348.7 604.4 345.9 600.5 344.8C598.2 344.2 595.2 344.1 591.6 344.4C591.6 344.4 603.3 343.1 603.8 357.8C603.9 359.7 604 360.8 603.9 363.4H607.5V363.5Z" fill="#B9D4FC"/>
<path d="M372.5 288.8H366.5V322.1H372.5V288.8Z" fill="#37B4BC"/>
<path d="M381.1 293.3C384.69 293.3 387.6 290.39 387.6 286.8C387.6 283.21 384.69 280.3 381.1 280.3C377.51 280.3 374.6 283.21 374.6 286.8C374.6 290.39 377.51 293.3 381.1 293.3Z" fill="#D1E5FC"/>
<path d="M381.1 294.8C376.7 294.8 373.1 291.2 373.1 286.8C373.1 282.4 376.7 278.8 381.1 278.8C385.5 278.8 389.1 282.4 389.1 286.8C389.1 291.2 385.5 294.8 381.1 294.8ZM381.1 281.8C378.3 281.8 376.1 284 376.1 286.8C376.1 289.5 378.3 291.8 381.1 291.8C383.9 291.8 386.1 289.6 386.1 286.8C386.1 284 383.8 281.8 381.1 281.8Z" fill="#5D4E55"/>
<path d="M99.4 114.8H93V182.3H99.4V114.8Z" fill="#FC953C"/>
<path d="M151.5 220.3H146.2V268.1H151.5V220.3Z" fill="#FC953C"/>
<path d="M402.5 220.3H397.2V270.5H402.5V220.3Z" fill="#FC953C"/>
<path d="M453.7 6.7998H448.5V59.1998H453.7V6.7998Z" fill="#FC953C"/>
<path d="M565.9 76.1001H560.6V128.5H565.9V76.1001Z" fill="#FC953C"/>
<path d="M464.139 134.389L459.31 136.571L472.199 165.095L477.029 162.912L464.139 134.389Z" fill="#FC953C"/>
<path d="M593.785 121.323L521.796 114.594L519.553 138.591L591.542 145.32L593.785 121.323Z" fill="#D1E5FC"/>
<path d="M592.9 146.9L517.9 139.9L520.4 112.9L595.4 119.9L592.9 146.9ZM521.2 137.2L590.2 143.6L592.2 122.6L523.2 116.2L521.2 137.2Z" fill="#5D4E55"/>
<path d="M595 153.2C605.328 153.2 613.7 144.828 613.7 134.5C613.7 124.172 605.328 115.8 595 115.8C584.672 115.8 576.3 124.172 576.3 134.5C576.3 144.828 584.672 153.2 595 153.2Z" fill="#507192"/>
<path d="M595 154.5C584 154.5 575 145.5 575 134.5C575 123.5 584 114.5 595 114.5C606 114.5 615 123.5 615 134.5C615 145.5 606 154.5 595 154.5ZM595 117.1C585.4 117.1 577.6 124.9 577.6 134.5C577.6 144.1 585.4 151.9 595 151.9C604.6 151.9 612.4 144.1 612.4 134.5C612.4 124.9 604.6 117.1 595 117.1Z" fill="#5D4E55"/>
<path d="M595 140.8C598.48 140.8 601.3 137.98 601.3 134.5C601.3 131.021 598.48 128.2 595 128.2C591.521 128.2 588.7 131.021 588.7 134.5C588.7 137.98 591.521 140.8 595 140.8Z" fill="#D1E5FC"/>
<path d="M595 141.8C591 141.8 587.7 138.5 587.7 134.5C587.7 130.5 591 127.2 595 127.2C599 127.2 602.3 130.5 602.3 134.5C602.3 138.5 599 141.8 595 141.8ZM595 129.2C592.1 129.2 589.7 131.6 589.7 134.5C589.7 137.4 592.1 139.8 595 139.8C597.9 139.8 600.3 137.4 600.3 134.5C600.3 131.6 597.9 129.2 595 129.2Z" fill="#5D4E55"/>
<path d="M76 3.2002H73.2V36.7002H76V3.2002Z" fill="#B9D4FC"/>
<path d="M380.4 203.7L388.5 201.8C390.8 201.3 393.1 202.5 394 204.7L397.1 212.5C397.5 213.6 397.4 214.8 396.9 215.8L389.7 229.7C389.1 230.9 387.7 231.3 386.6 230.7L371.5 222.8C370.4 222.2 370 220.8 370.6 219.6L377.8 205.7C378.3 204.7 379.3 203.9 380.4 203.7Z" fill="white"/>
<path d="M387.6 232.3C387 232.3 386.4 232.2 385.9 231.9L370.8 224C369 223.1 368.3 220.8 369.3 218.9L376.5 205C377.2 203.6 378.5 202.6 380 202.2L388.1 200.3C388.6 200.2 389.1 200.1 389.5 200.1C392 200.1 394.3 201.6 395.2 204L398.3 211.8C398.9 213.2 398.8 214.9 398.1 216.3L390.9 230.2C390.3 231.5 389 232.3 387.6 232.3ZM389.7 203C389.4 203 389.2 203 388.9 203.1L380.7 205C380 205.2 379.4 205.7 379 206.3L371.8 220.2C371.5 220.7 371.7 221.3 372.1 221.5L387.2 229.4C387.6 229.6 388.2 229.4 388.4 228.9L395.6 215C396 214.3 396 213.5 395.7 212.9L392.6 205.1C392.2 203.9 391 203 389.7 203Z" fill="#5D4E55"/>
<path d="M433.4 176.5L439.7 171C441.5 169.4 444 169.5 445.8 171.1L451.9 176.9C452.7 177.7 453.2 178.8 453.2 180L452.9 196.2C452.9 197.6 451.8 198.6 450.6 198.6L434 198.3C432.8 198.3 431.8 197.1 431.8 195.8L432.1 179.6C432.1 178.4 432.6 177.2 433.4 176.5Z" fill="white"/>
<path d="M450.5 200L433.8 199.7C431.8 199.7 430.2 197.9 430.2 195.7L430.5 179.5C430.5 177.9 431.2 176.4 432.4 175.4L438.7 169.9C439.8 168.9 441.2 168.4 442.6 168.4C444.1 168.4 445.6 169 446.7 170.1L452.8 175.9C453.9 177 454.5 178.5 454.5 180.1L454.2 196.3C454.1 198.3 452.5 200 450.5 200ZM442.7 171.2C442 171.2 441.3 171.5 440.7 172L434.4 177.5C433.8 178 433.5 178.7 433.5 179.6L433.2 195.8C433.2 196.4 433.6 196.9 434 196.9L450.6 197.2V198.6V197.2C451.1 197.2 451.4 196.7 451.4 196.2L451.7 180C451.7 179.2 451.4 178.4 450.9 177.9L444.8 172.1C444.2 171.5 443.5 171.2 442.7 171.2Z" fill="#5D4E55"/>
<path d="M555.9 88.6996L561.7 82.8996C563.4 81.1996 565.9 81.0996 567.7 82.5996L574.2 87.6996C575.1 88.3996 575.6 89.4996 575.7 90.5996L576.6 106.2C576.7 107.5 575.7 108.6 574.5 108.7L558 109.6C556.8 109.7 555.7 108.7 555.6 107.3L554.7 91.7996C554.7 90.5996 555.1 89.4996 555.9 88.6996Z" fill="white"/>
<path d="M557.9 111.1C556 111.1 554.4 109.5 554.3 107.5L553.4 91.8998C553.3 90.2998 553.9 88.7998 555 87.7998L560.8 81.9998C561.9 80.8998 563.4 80.2998 565 80.2998C566.3 80.2998 567.6 80.6998 568.7 81.5998L575.2 86.6998C576.4 87.5998 577.1 89.0998 577.2 90.5998L578.1 106.2C578.2 107.2 577.8 108.1 577.2 108.9C576.6 109.7 575.7 110.1 574.7 110.2L558.2 111.1C558 111.1 557.9 111.1 557.9 111.1ZM564.9 82.8998C564.1 82.8998 563.3 83.1998 562.7 83.7998L556.9 89.5998C556.4 90.0998 556.1 90.8998 556.2 91.5998L557.1 107.2C557.1 107.7 557.5 108.1 558 108.1L574.5 107.2C574.8 107.2 575 107 575.1 106.9C575.3 106.7 575.4 106.4 575.3 106.1L574.4 90.4998C574.4 89.6998 574 88.9998 573.4 88.5998L566.9 83.4998C566.3 83.1998 565.6 82.8998 564.9 82.8998Z" fill="#5D4E55"/>
<path d="M377.6 22.4L385.2 19.1C387.4 18.2 389.8 19 390.9 21.1L395 28.3C395.6 29.3 395.7 30.5 395.3 31.6L390.2 46.6C389.8 47.9 388.5 48.6 387.3 48.2L371.6 42.9C370.4 42.5 369.8 41.2 370.3 39.9L375.4 24.9C375.7 23.8 376.5 22.9 377.6 22.4Z" fill="white"/>
<path d="M388 49.6998C387.6 49.6998 387.2 49.5998 386.9 49.4998L371.2 44.1998C369.3 43.5998 368.3 41.3998 369 39.3998L374.1 24.3998C374.6 22.8998 375.7 21.6998 377.1 21.0998L384.7 17.7998C385.5 17.4998 386.3 17.2998 387.1 17.2998C389.2 17.2998 391.2 18.3998 392.2 20.2998L396.3 27.4998C397 28.7998 397.2 30.3998 396.7 31.8998L391.6 46.8998C391 48.5998 389.5 49.6998 388 49.6998ZM387 20.1998C386.6 20.1998 386.1 20.2998 385.7 20.4998L378.1 23.7998C377.4 24.0998 376.9 24.6998 376.6 25.3998L371.5 40.3998C371.3 40.8998 371.5 41.4998 372 41.5998L387.7 46.8998C388.1 47.0998 388.7 46.6998 388.8 46.1998L393.9 31.1998C394.2 30.4998 394.1 29.6998 393.7 28.9998L389.6 21.7998C389.1 20.7998 388.1 20.1998 387 20.1998Z" fill="#5D4E55"/>
<path d="M387.5 27.4998H387.4C386.9 27.3998 386.5 26.8998 386.5 26.3998C388.3 10.3998 411.6 5.59981 412.6 5.39981C413.1 5.29981 413.7 5.59981 413.8 6.19981C413.9 6.69981 413.6 7.29981 413 7.39981C412.8 7.39981 390.2 12.0998 388.6 26.6998C388.5 27.0998 388 27.4998 387.5 27.4998Z" fill="#5D4E55"/>
<path d="M361.8 220C361.6 220 361.4 219.9 361.2 219.8C360.9 219.6 355 214.9 358.5 203.4C361.9 192.3 371.5 187.5 375.6 187.5C377.2 187.5 382.5 187.8 386.2 192C389.3 195.5 390.4 200.7 389.6 207.4C389.5 207.9 389 208.3 388.5 208.3C388 208.2 387.6 207.7 387.6 207.2C388.4 201 387.4 196.4 384.7 193.3C381.5 189.7 376.9 189.5 375.6 189.5C372.4 189.5 363.5 193.7 360.4 204C357.3 214.2 362.3 218.2 362.4 218.2C362.8 218.5 362.9 219.2 362.6 219.6C362.4 219.9 362.1 220 361.8 220Z" fill="#5D4E55"/>
<path d="M441.3 177.8C441.2 177.8 441.2 177.8 441.3 177.8C440.7 177.8 440.3 177.3 440.3 176.7C440.3 176.6 440.8 170.4 440.3 166.7C439.8 162.8 438.8 158.1 434.7 150.5C432.6 146.6 427.5 143 426.9 142.6C424.6 141.5 422.8 141.4 421.5 142.2C418.5 144.2 418.2 150.9 418.4 153.3C418.4 153.9 418 154.3 417.5 154.4C416.9 154.4 416.5 154 416.4 153.5C416.4 153.1 415.9 143.6 420.4 140.6C422.4 139.3 424.9 139.4 427.8 140.9L427.9 141C428.1 141.2 434 145.2 436.4 149.7C440.6 157.5 441.6 162.4 442.2 166.5C442.7 170.4 442.2 176.6 442.2 176.9C442.2 177.4 441.8 177.8 441.3 177.8Z" fill="#5D4E55"/>
<path d="M564.4 89.8002C563.9 89.8002 563.5 89.5002 563.4 89.0002C559.8 72.9002 545.1 68.2002 545 68.1002C527.5 63.1002 519.5 74.8002 519.1 75.3002C518.8 75.8002 518.2 75.9002 517.7 75.6002C517.2 75.3002 517.1 74.7002 517.4 74.2002C517.5 74.1002 526.5 60.8002 545.5 66.2002C545.7 66.3002 561.5 71.3002 565.3 88.6002C565.4 89.1002 565.1 89.7002 564.5 89.8002C564.5 89.7002 564.5 89.8002 564.4 89.8002Z" fill="#5D4E55"/>
<path d="M74.1001 57.7998C73.5001 57.7998 73.1001 57.3998 73.1001 56.7998V43.2998C73.1001 42.6998 73.5001 42.2998 74.1001 42.2998C74.7001 42.2998 75.1001 42.6998 75.1001 43.2998V56.7998C75.1001 57.2998 74.6001 57.7998 74.1001 57.7998Z" fill="#5D4E55"/>
<path d="M74.1001 64.7998C73.5001 64.7998 73.1001 64.3998 73.1001 63.7998V61.2998C73.1001 60.6998 73.5001 60.2998 74.1001 60.2998C74.7001 60.2998 75.1001 60.6998 75.1001 61.2998V63.7998C75.1001 64.2998 74.6001 64.7998 74.1001 64.7998Z" fill="#5D4E55"/>
<path d="M32.3 160.8C31.7 160.8 31.3 160.4 31.3 159.8V156C31.3 155.4 31.7 155 32.3 155C32.9 155 33.3 155.4 33.3 156V159.8C33.3 160.3 32.9 160.8 32.3 160.8Z" fill="#5D4E55"/>
<path d="M32.3 179C31.7 179 31.3 178.6 31.3 178V164.5C31.3 163.9 31.7 163.5 32.3 163.5C32.9 163.5 33.3 163.9 33.3 164.5V178C33.3 178.6 32.9 179 32.3 179Z" fill="#5D4E55"/>
<path d="M38.8 191.5C36.3 191.5 34.4 190.8 33.1 189.3C31 187 31.3 183.7 31.3 183.6C31.4 183.1 31.8 182.6 32.4 182.7C32.9 182.8 33.4 183.2 33.3 183.8C33.3 183.8 33.1 186.4 34.6 188C35.5 189 36.9 189.5 38.8 189.5C39.4 189.5 39.8 189.9 39.8 190.5C39.8 191.1 39.4 191.5 38.8 191.5Z" fill="#5D4E55"/>
<path d="M66.6001 273.2H53.3C52.7 273.2 52.3 272.8 52.3 272.2C52.3 271.6 52.7 271.2 53.3 271.2H66.6001C67.2001 271.2 67.6001 271.6 67.6001 272.2C67.6001 272.8 67.2001 273.2 66.6001 273.2Z" fill="#5D4E55"/>
<path d="M75.1001 273.2H71.1001C70.5001 273.2 70.1001 272.8 70.1001 272.2C70.1001 271.6 70.5001 271.2 71.1001 271.2H75.1001C75.7001 271.2 76.1001 271.6 76.1001 272.2C76.1001 272.8 75.7001 273.2 75.1001 273.2Z" fill="#5D4E55"/>
<path d="M92 273.2H85.5C84.9 273.2 84.5 272.8 84.5 272.2C84.5 271.6 84.9 271.2 85.5 271.2H92C92.6 271.2 93 271.6 93 272.2C93 272.8 92.5 273.2 92 273.2Z" fill="#5D4E55"/>
<path d="M53.8 333.1H40.8C40.2 333.1 39.8 332.7 39.8 332.1C39.8 331.5 40.2 331.1 40.8 331.1H53.8C54.4 331.1 54.8 331.5 54.8 332.1C54.8 332.7 54.4 333.1 53.8 333.1Z" fill="#5D4E55"/>
<path d="M62.8999 333.1H58.7C58.1 333.1 57.7 332.7 57.7 332.1C57.7 331.5 58.1 331.1 58.7 331.1H63C63.6 331.1 64 331.5 64 332.1C64 332.7 63.4999 333.1 62.8999 333.1Z" fill="#5D4E55"/>
<path d="M401.7 163.7C401.3 163.7 401 163.5 400.8 163.2L399.8 161.4C398.7 159.3 399.4 156.6 401.5 155.4L410.9 150.1C411.4 149.8 412 150 412.3 150.5C412.6 151 412.4 151.6 411.9 151.9L402.5 157.2C401.4 157.8 400.9 159.3 401.6 160.5L402.6 162.3C402.9 162.8 402.7 163.4 402.2 163.7C402.1 163.6 401.9 163.7 401.7 163.7Z" fill="#5D4E55"/>
<path d="M404.6 169.3C404.2 169.3 403.9 169.1 403.7 168.8L402 165.5C401.7 165 401.9 164.4 402.4 164.2C402.9 163.9 403.5 164.1 403.7 164.6L405.4 167.9C405.7 168.4 405.5 169 405 169.2C404.9 169.2 404.7 169.3 404.6 169.3Z" fill="#5D4E55"/>
<path d="M427.1 193.4C426.7 193.4 426.4 193.2 426.2 192.9C425.9 192.4 426.1 191.8 426.6 191.5L429.9 189.7C430.4 189.4 431 189.6 431.3 190.1C431.6 190.6 431.4 191.2 430.9 191.5L427.6 193.3C427.4 193.4 427.2 193.4 427.1 193.4Z" fill="#5D4E55"/>
<path d="M420.5 196.6C420.1 196.6 419.8 196.4 419.6 196C419.4 195.5 419.6 194.9 420 194.7L423.2 193.1C423.7 192.9 424.3 193.1 424.5 193.5C424.7 194 424.5 194.6 424.1 194.8L420.9 196.4C420.8 196.5 420.6 196.6 420.5 196.6Z" fill="#5D4E55"/>
<path d="M618.7 136.5C618.1 136.5 617.7 136.1 617.7 135.5C617.7 134.6 617.6 133.6 617.5 132.7C617.4 132.2 617.8 131.7 618.4 131.6C619 131.5 619.4 131.9 619.5 132.5C619.6 133.5 619.7 134.5 619.7 135.5C619.7 136.1 619.2 136.5 618.7 136.5Z" fill="#5D4E55"/>
<path d="M617.6 129.5C617.2 129.5 616.8 129.2 616.6 128.8C615.3 124.5 612.8 120.8 609.4 117.9C609 117.5 608.9 116.9 609.3 116.5C609.7 116.1 610.3 116 610.7 116.4C614.4 119.5 617.1 123.6 618.6 128.2C618.8 128.7 618.5 129.3 617.9 129.4C617.8 129.5 617.7 129.5 617.6 129.5Z" fill="#5D4E55"/>
<path d="M606.1 115.4C605.9 115.4 605.8 115.4 605.6 115.3C602.3 113.5 598.5 112.5 594.6 112.5C594 112.5 593.6 112.1 593.6 111.5C593.6 110.9 594 110.5 594.6 110.5C598.8 110.5 602.9 111.5 606.5 113.5C607 113.8 607.2 114.4 606.9 114.9C606.8 115.2 606.5 115.4 606.1 115.4Z" fill="#5D4E55"/>
<path d="M499.9 273H449.5C448.9 273 448.5 272.6 448.5 272C448.5 271.4 448.9 271 449.5 271H499.9C500.5 271 500.9 271.4 500.9 272C500.9 272.6 500.5 273 499.9 273Z" fill="#5D4E55"/>
<path d="M507.9 274.8C507.8 274.8 507.7 274.8 507.6 274.8L504.1 273.8C503.6 273.6 503.3 273.1 503.4 272.6C503.6 272.1 504.1 271.8 504.6 271.9L508.1 272.9C508.6 273.1 508.9 273.6 508.8 274.1C508.8 274.5 508.4 274.8 507.9 274.8Z" fill="#5D4E55"/>
<path d="M527.8 308.6C527.2 308.6 526.8 308.2 526.8 307.6V297.4C526.8 286.5 511.5 276.4 511.4 276.3C510.9 276 510.8 275.4 511.1 274.9C511.4 274.4 512 274.3 512.5 274.6C513.2 275 528.8 285.4 528.8 297.4V307.6C528.8 308.2 528.4 308.6 527.8 308.6Z" fill="#5D4E55"/>
<path d="M427.3 333H414.6C414 333 413.6 332.6 413.6 332C413.6 331.4 414 331 414.6 331H427.3C427.9 331 428.3 331.4 428.3 332C428.3 332.6 427.9 333 427.3 333Z" fill="#5D4E55"/>
<path d="M437 333H432.3C431.7 333 431.3 332.6 431.3 332C431.3 331.4 431.7 331 432.3 331H437C437.6 331 438 331.4 438 332C438 332.6 437.5 333 437 333Z" fill="#5D4E55"/>
<path d="M9.59992 306.9C9.59992 306.9 9.89992 293 20.7999 287.6C25.1999 285.4 30.3999 285.3 34.9999 286.9C38.0999 288 41.9999 289.7 44.6999 292.2C44.6999 292.2 42.3999 285.3 32.2999 282.5C32.2999 282.5 21.0999 280.9 13.6999 288.5C13.7999 288.5 6.49992 295.1 9.59992 306.9Z" fill="#A4B0F9"/>
<path d="M479 307.1C479 307.1 479.5 292.3 491.2 287.2C495.3 285.4 500.2 284.7 504.5 286C507.9 287.1 512.2 289.5 515.1 292.1C515.1 292.1 510.3 282.9 499.6 282C499.6 282 490.5 280.4 483.3 288.4C483.3 288.6 475.9 295.3 479 307.1Z" fill="#A4B0F9"/>
<path d="M530.6 116.8C530.6 116.8 534.2 128.5 527.8 137.9L522.7 137.3L524.7 116.1L530.6 116.8Z" fill="#B9D4FC"/>
<path d="M521.2 108.8L489.5 128.1C489.5 128.1 482.7 137.3 492.6 145.2C492.6 145.2 505.6 152.6 518.5 140.6C518.6 140.7 528.2 125.2 521.2 108.8Z" fill="#507192"/>
<path d="M502.3 149C496.2 149 492 146.7 491.9 146.6L491.7 146.5C480.8 137.8 488.3 127.4 488.3 127.3L488.5 127.1L520.4 107.6C521.2 107.1 522.2 107.5 522.5 108.3C529.7 125.2 520.2 140.9 519.8 141.5L519.7 141.7L519.6 141.8C514.4 146.6 508.6 149 502.3 149ZM493.5 144C494.1 144.3 497.6 146 502.4 146C507.8 146 512.9 143.9 517.5 139.7C518.4 138.2 525 126.1 521.2 112.9C520.9 112 519.8 111.5 519 112L490.7 129.2C489.7 130.6 485.7 137.7 493.5 144Z" fill="#5D4E55"/>
<path d="M69.1001 87.1C72.5794 87.1 75.4 84.2794 75.4 80.8C75.4 77.3206 72.5794 74.5 69.1001 74.5C65.6207 74.5 62.8 77.3206 62.8 80.8C62.8 84.2794 65.6207 87.1 69.1001 87.1Z" fill="#B9D4FC"/>
<path d="M69.1001 87.7001C65.3001 87.7001 62.3 84.6001 62.3 80.9001C62.3 77.2001 65.4001 74.1001 69.1001 74.1001C72.8001 74.1001 75.9 77.2001 75.9 80.9001C75.9 84.6001 72.9001 87.7001 69.1001 87.7001ZM69.1001 75.1001C66.0001 75.1001 63.4 77.7001 63.4 80.8001C63.4 83.9001 66.0001 86.5001 69.1001 86.5001C72.2001 86.5001 74.8 83.9001 74.8 80.8001C74.8 77.7001 72.3001 75.1001 69.1001 75.1001Z" fill="#5D4E55"/>
</svg>
