<svg width="116" height="34" viewBox="0 0 116 34" fill="none" xmlns="http://www.w3.org/2000/svg">
<path d="M43.1748 7.72H41.8548V6.448H45.3348V4.6H39.9348V13H43.1748C44.8908 13 46.0548 11.956 46.0548 10.36C46.0548 8.764 44.8908 7.72 43.1748 7.72ZM43.1748 11.2H41.8548V9.52H43.1748C43.7028 9.52 44.1348 9.748 44.1348 10.36C44.1348 10.972 43.7028 11.2 43.1748 11.2ZM48.5024 10.72H52.7624C52.8104 10.492 52.8344 10.252 52.8344 10C52.8344 8.188 51.5384 6.832 49.7864 6.832C47.8904 6.832 46.5944 8.212 46.5944 10C46.5944 11.788 47.8664 13.168 49.9184 13.168C51.0584 13.168 51.9464 12.748 52.5344 11.932L51.0944 11.104C50.8544 11.368 50.4344 11.56 49.9424 11.56C49.2824 11.56 48.7304 11.344 48.5024 10.72ZM48.4664 9.376C48.6344 8.764 49.0904 8.428 49.7744 8.428C50.3144 8.428 50.8544 8.68 51.0464 9.376H48.4664ZM57.3861 9.952C57.8181 9.652 58.0221 9.184 58.0221 8.632C58.0221 7.684 57.1821 6.832 55.7181 6.832C54.6861 6.832 53.8221 7.264 53.3181 8.236L54.7701 9.064C54.9861 8.584 55.2981 8.368 55.7541 8.368C56.0901 8.368 56.3181 8.512 56.3181 8.8C56.3181 9.064 56.1381 9.208 55.7541 9.208H55.1061V10.72H55.9461C56.3421 10.72 56.5101 10.876 56.5101 11.14C56.5101 11.44 56.2461 11.608 55.8021 11.608C55.2501 11.608 54.8781 11.344 54.7101 10.876L53.2581 11.74C53.7261 12.712 54.5781 13.168 55.7781 13.168C57.3981 13.168 58.2621 12.364 58.2621 11.368C58.2621 10.756 57.9501 10.252 57.3861 9.952ZM63.0039 7V9.16H60.9639V7H59.1639V13H60.9639V10.84H63.0039V13H64.8039V7H63.0039ZM70.4808 7V7.564C70.0848 7.108 69.4968 6.832 68.6928 6.832C67.1208 6.832 65.8248 8.212 65.8248 10C65.8248 11.788 67.1208 13.168 68.6928 13.168C69.4968 13.168 70.0848 12.892 70.4808 12.436V13H72.2808V7H70.4808ZM69.0528 11.464C68.2248 11.464 67.6248 10.9 67.6248 10C67.6248 9.1 68.2248 8.536 69.0528 8.536C69.8808 8.536 70.4808 9.1 70.4808 10C70.4808 10.9 69.8808 11.464 69.0528 11.464ZM78.8214 7H73.9254V10.396C73.9254 11.14 73.6254 11.488 73.0614 11.32V13C74.8134 13.204 75.7254 12.328 75.7254 10.516V8.728H77.0214V13H78.8214V7ZM84.4605 7L81.8925 10V7H80.1405V13H81.4605L84.0285 10V13H85.7805V7H84.4605ZM90.5214 7V9.52C90.2694 9.64 89.9694 9.712 89.5614 9.712C89.0574 9.712 88.6014 9.556 88.6014 8.98V7H86.8014V9.22C86.8014 10.696 87.8574 11.392 89.2014 11.392C89.6814 11.392 90.1134 11.32 90.5214 11.2V13H92.3214V7H90.5214ZM97.4805 7V9.16H95.4405V7H93.6405V13H95.4405V10.84H97.4805V13H99.2805V7H97.4805ZM103.409 8.8H102.401V7H100.601V13H103.409C104.861 13 105.761 12.16 105.761 10.9C105.761 9.64 104.861 8.8 103.409 8.8ZM106.361 7V13H108.161V7H106.361ZM103.421 11.44H102.401V10.36H103.421C103.781 10.36 104.009 10.588 104.009 10.9C104.009 11.212 103.781 11.44 103.421 11.44ZM110.504 6.292H114.104V4.732H110.504V6.292ZM113.804 7L111.236 10V7H109.484V13H110.804L113.372 10V13H115.124V7H113.804ZM61.6914 21.832C60.8874 21.832 60.2994 22.108 59.9034 22.564V22H58.1034V30.4H59.9034V27.436C60.2994 27.892 60.8874 28.168 61.6914 28.168C63.2634 28.168 64.5594 26.788 64.5594 25C64.5594 23.212 63.2634 21.832 61.6914 21.832ZM61.3314 26.464C60.5034 26.464 59.9034 25.9 59.9034 25C59.9034 24.1 60.5034 23.536 61.3314 23.536C62.1594 23.536 62.7594 24.1 62.7594 25C62.7594 25.9 62.1594 26.464 61.3314 26.464ZM69.9359 22V22.564C69.5399 22.108 68.9519 21.832 68.1479 21.832C66.5759 21.832 65.2799 23.212 65.2799 25C65.2799 26.788 66.5759 28.168 68.1479 28.168C68.9519 28.168 69.5399 27.892 69.9359 27.436V28H71.7359V22H69.9359ZM68.5079 26.464C67.6799 26.464 67.0799 25.9 67.0799 25C67.0799 24.1 67.6799 23.536 68.5079 23.536C69.3359 23.536 69.9359 24.1 69.9359 25C69.9359 25.9 69.3359 26.464 68.5079 26.464ZM75.9365 28.168C77.1125 28.168 78.1325 27.556 78.6485 26.62L77.0765 25.72C76.8845 26.14 76.4405 26.392 75.9125 26.392C75.1325 26.392 74.5565 25.828 74.5565 25C74.5565 24.172 75.1325 23.608 75.9125 23.608C76.4405 23.608 76.8725 23.86 77.0765 24.28L78.6485 23.368C78.1325 22.444 77.1005 21.832 75.9365 21.832C74.1125 21.832 72.7565 23.212 72.7565 25C72.7565 26.788 74.1125 28.168 75.9365 28.168ZM82.7343 22V24.52C82.4823 24.64 82.1823 24.712 81.7743 24.712C81.2703 24.712 80.8143 24.556 80.8143 23.98V22H79.0143V24.22C79.0143 25.696 80.0703 26.392 81.4143 26.392C81.8943 26.392 82.3263 26.32 82.7343 26.2V28H84.5343V22H82.7343ZM87.5334 21.46C88.0254 21.46 88.4334 21.052 88.4334 20.56C88.4334 20.068 88.0254 19.66 87.5334 19.66C87.0414 19.66 86.6334 20.068 86.6334 20.56C86.6334 21.052 87.0414 21.46 87.5334 21.46ZM89.8134 21.46C90.3054 21.46 90.7134 21.052 90.7134 20.56C90.7134 20.068 90.3054 19.66 89.8134 19.66C89.3214 19.66 88.9134 20.068 88.9134 20.56C88.9134 21.052 89.3214 21.46 89.8134 21.46ZM87.4614 25.72H91.7214C91.7694 25.492 91.7934 25.252 91.7934 25C91.7934 23.188 90.4974 21.832 88.7454 21.832C86.8494 21.832 85.5534 23.212 85.5534 25C85.5534 26.788 86.8254 28.168 88.8774 28.168C90.0174 28.168 90.9054 27.748 91.4934 26.932L90.0534 26.104C89.8134 26.368 89.3934 26.56 88.9014 26.56C88.2414 26.56 87.6894 26.344 87.4614 25.72ZM87.4254 24.376C87.5934 23.764 88.0494 23.428 88.7334 23.428C89.2734 23.428 89.8134 23.68 90.0054 24.376H87.4254ZM97.4399 22H92.0399V23.728H93.8519V28H95.6519V23.728H97.4399V22Z" fill="white"/>
<path d="M13.879 28.3972C13.6016 28.3034 13.4516 28.0034 13.5433 27.725L14.8556 23.7891C15.0163 23.3089 15.4921 23.0076 15.9949 23.0682C16.4978 23.1292 16.8882 23.535 16.9302 24.0396L17.0797 24.0269L17.0797 24.027C17.0797 24.0271 17.0797 24.0272 17.0797 24.0272L17.2218 25.6982C17.4672 25.3472 17.882 25.1493 18.3132 25.1833C18.774 25.2193 19.1739 25.5128 19.3467 25.9411L19.3469 25.9416L19.5882 26.5471L20.557 25.3587C20.2203 24.8151 20.2056 24.1271 20.5265 23.5669L21.0542 22.5806L22.1709 19.5977L22.1753 19.5861L22.1815 19.5753L26.6397 11.8495L26.3057 11.6577L26.3054 11.6576C25.9798 11.4699 25.868 11.0547 26.0528 10.7285L26.053 10.7281C26.1433 10.5699 26.2927 10.4545 26.4684 10.4068L26.4686 10.4068C26.6442 10.3595 26.8317 10.384 26.9887 10.475C26.9889 10.4751 26.989 10.4752 26.9891 10.4753L27.324 10.6676L28.6037 8.48661L28.6037 8.48659C28.7672 8.208 29.0982 8.08796 29.3943 8.17988L13.8235 28.5367M13.879 28.3972L13.8162 28.5334C13.8186 28.5345 13.8211 28.5356 13.8235 28.5367M13.879 28.3972L13.831 28.5393C13.8285 28.5384 13.826 28.5376 13.8235 28.5367M13.879 28.3972C13.9316 28.4214 13.9871 28.436 14.0447 28.4396C14.2738 28.4404 14.4779 28.2943 14.5519 28.0771L15.7382 24.5012L15.7709 24.8792L14.6942 28.1243L14.6939 28.1255C14.5992 28.4033 14.3379 28.5906 14.0442 28.5896L14.0353 28.5896L14.0353 28.5893C13.961 28.5846 13.8899 28.5663 13.8235 28.5367M22.0394 26.1792C22.0391 26.1792 22.0388 26.1792 22.0385 26.1792L22.0397 26.0292L22.0403 26.1792C22.04 26.1792 22.0397 26.1792 22.0394 26.1792ZM22.0394 26.1792C22.6635 26.1837 23.244 25.8548 23.5606 25.3162" fill="white" stroke="white" stroke-width="0.3" stroke-linecap="round"/>
<path d="M7.23941 27.7049C7.56281 27.7065 7.87335 27.5798 8.10287 27.352L8.10344 27.3515L9.98605 25.4634L9.98636 25.4637L9.99375 25.4551C10.2262 25.1837 10.2097 24.7797 9.95831 24.5276L9.95801 24.5273C9.705 24.275 9.30138 24.2592 9.02986 24.4915L9.02957 24.4911L9.02143 24.4993L7.23989 26.2762L6.21494 25.2514L6.21471 25.2512C5.94853 24.9862 5.51755 24.9862 5.25134 25.2511M7.23941 27.7049C6.91832 27.7051 6.61018 27.5783 6.38229 27.352L6.38192 27.3516L5.25156 26.2214C5.25147 26.2213 5.25138 26.2212 5.25129 26.2211C5.122 26.0929 5.04922 25.9182 5.04922 25.7362C5.04922 25.5539 5.12214 25.3795 5.25134 25.2511M7.23941 27.7049C7.23925 27.7049 7.23909 27.7049 7.23893 27.7049L7.23976 27.5549L7.23991 27.7049C7.23974 27.7049 7.23958 27.7049 7.23941 27.7049ZM5.25134 25.2511C5.25136 25.2511 5.25139 25.2511 5.25141 25.2511L5.3571 25.3575L5.25127 25.2512C5.2513 25.2512 5.25132 25.2512 5.25134 25.2511Z" fill="white" stroke="white" stroke-width="0.3" stroke-linecap="round"/>
<path d="M7.37814 22.7232L7.37855 22.7232C8.09689 22.7212 8.79542 22.954 9.3681 23.3864L9.3684 23.3866C9.67029 23.6134 10.0985 23.5516 10.3252 23.2501L10.3254 23.2498C10.5513 22.9479 10.4903 22.5199 10.1887 22.2933L10.1886 22.2933C8.76905 21.229 6.87039 21.0579 5.28402 21.851C3.69694 22.6443 2.69473 24.2661 2.69473 26.0398C2.69473 28.6266 4.79177 30.7232 7.37814 30.7232C9.96451 30.7232 12.0615 28.6266 12.0615 26.0398C12.0615 25.6624 11.7553 25.3565 11.3781 25.3565C11.0006 25.3565 10.6954 25.6627 10.6954 26.0398C10.6954 27.8715 9.20996 29.3565 7.37814 29.3565C5.54635 29.3565 4.06157 27.8716 4.06157 26.0398C4.06157 24.2081 5.54635 22.7232 7.37814 22.7232Z" fill="white" stroke="white" stroke-width="0.3" stroke-linecap="round"/>
<path d="M19.9103 5.12265C20.2875 5.12265 20.5938 4.81705 20.5938 4.43932C20.5938 4.0619 20.2876 3.75598 19.9103 3.75598H6.04343C5.66619 3.75598 5.36001 4.0619 5.36001 4.43932V6.57265C5.36001 6.9504 5.66625 7.25595 6.04343 7.25595H19.9103C20.2875 7.25595 20.5938 6.9504 20.5938 6.57265C20.5938 6.19523 20.2876 5.88932 19.9103 5.88932H6.72686V5.12265H19.9103Z" fill="white" stroke="white" stroke-width="0.3" stroke-linecap="round"/>
<path d="M7.64475 8.02261C7.2675 8.02261 6.96133 8.32856 6.96133 8.70596C6.96133 9.0837 7.26755 9.38931 7.64475 9.38931H18.3118C18.689 9.38931 18.9952 9.0837 18.9952 8.70596C18.9952 8.32856 18.6891 8.02261 18.3118 8.02261H7.64475Z" fill="white" stroke="white" stroke-width="0.3" stroke-linecap="round"/>
<path d="M21.511 11.756H9.77708C9.39985 11.756 9.09365 12.0619 9.09365 12.4393C9.09365 12.817 9.39987 13.1227 9.77708 13.1227H21.511C21.8884 13.1227 22.1937 12.8168 22.1937 12.4393C22.1937 12.0621 21.8885 11.756 21.511 11.756Z" fill="white" stroke="white" stroke-width="0.3" stroke-linecap="round"/>
<path d="M16.3282 15.6382C16.3282 15.2608 16.0221 14.9549 15.6448 14.9549H4.97776C4.60051 14.9549 4.29434 15.2608 4.29434 15.6382C4.29434 16.016 4.60056 16.3216 4.97776 16.3216H15.6448C16.022 16.3216 16.3282 16.016 16.3282 15.6382Z" fill="white" stroke="white" stroke-width="0.3" stroke-linecap="round"/>
<path d="M21.5118 14.9549H17.7778C17.4003 14.9549 17.0951 15.2611 17.0951 15.6382C17.0951 16.0157 17.4004 16.3216 17.7778 16.3216H21.5118C21.8893 16.3216 22.1945 16.0157 22.1945 15.6382C22.1945 15.2611 21.8893 14.9549 21.5118 14.9549Z" fill="white" stroke="white" stroke-width="0.3" stroke-linecap="round"/>
<path d="M10.3113 18.989C10.6885 18.989 10.9947 18.6834 10.9947 18.3056C10.9947 17.9282 10.6885 17.6223 10.3113 17.6223H4.97776C4.60051 17.6223 4.29434 17.9282 4.29434 18.3056C4.29434 18.6834 4.60056 18.989 4.97776 18.989H10.3113Z" fill="white" stroke="white" stroke-width="0.3" stroke-linecap="round"/>
<path d="M12.4443 18.989H16.1776C16.5556 18.989 16.861 18.6832 16.861 18.3056C16.861 17.9283 16.5557 17.6223 16.1776 17.6223H12.4443C12.0671 17.6223 11.7609 17.9282 11.7609 18.3056C11.7609 18.6834 12.0671 18.989 12.4443 18.989Z" fill="white" stroke="white" stroke-width="0.3" stroke-linecap="round"/>
<path d="M24.711 25.0897C24.3337 25.0897 24.0276 25.3956 24.0276 25.773V31.1064C24.0276 31.3182 23.8559 31.4897 23.6441 31.4897H2.31072C2.099 31.4897 1.9273 31.3182 1.9273 31.1064V2.30639C1.9273 2.09475 2.09907 1.92305 2.31072 1.92305H23.6441C23.8558 1.92305 24.0276 2.09475 24.0276 2.30639V12.3225C24.0276 12.7 24.3337 13.0058 24.711 13.0058C25.0882 13.0058 25.3944 12.7 25.3944 12.3225V2.30639C25.3944 1.3399 24.6103 0.55639 23.6441 0.55639H2.31072C1.34458 0.55639 0.560449 1.3399 0.560449 2.30639V31.1064C0.560449 32.0732 1.34459 32.8564 2.31072 32.8564H23.6441C24.6103 32.8564 25.3944 32.0732 25.3944 31.1064V25.773C25.3944 25.3956 25.0882 25.0897 24.711 25.0897Z" fill="white" stroke="white" stroke-width="0.3" stroke-linecap="round"/>
</svg>
