<svg width="59" height="43" viewBox="0 0 59 43" fill="none" xmlns="http://www.w3.org/2000/svg">
<path d="M3.98528 38.8545C4.59728 38.8545 5.09828 39.0375 5.48828 39.4035C5.87828 39.7635 6.07328 40.2315 6.07328 40.8075C6.07328 41.3895 5.87828 41.8635 5.48828 42.2295C5.09828 42.5895 4.59728 42.7695 3.98528 42.7695H1.57328V36.4695H5.53328V37.6575H2.81528V38.8545H3.98528ZM3.98528 41.6085C4.23128 41.6085 4.43528 41.5395 4.59728 41.4015C4.75928 41.2575 4.84028 41.0595 4.84028 40.8075C4.84028 40.5555 4.75928 40.3605 4.59728 40.2225C4.43528 40.0845 4.23128 40.0155 3.98528 40.0155H2.81528V41.6085H3.98528ZM7.76493 40.9965C7.92093 41.5605 8.34393 41.8425 9.03393 41.8425C9.47793 41.8425 9.81393 41.6925 10.0419 41.3925L10.9779 41.9325C10.5339 42.5745 9.87993 42.8955 9.01593 42.8955C8.27193 42.8955 7.67493 42.6705 7.22493 42.2205C6.77493 41.7705 6.54993 41.2035 6.54993 40.5195C6.54993 39.8415 6.77193 39.2775 7.21593 38.8275C7.65993 38.3715 8.22993 38.1435 8.92593 38.1435C9.58593 38.1435 10.1289 38.3715 10.5549 38.8275C10.9869 39.2835 11.2029 39.8475 11.2029 40.5195C11.2029 40.6695 11.1879 40.8285 11.1579 40.9965H7.76493ZM7.74693 40.0965H10.0419C9.97593 39.7905 9.83793 39.5625 9.62793 39.4125C9.42393 39.2625 9.18993 39.1875 8.92593 39.1875C8.61393 39.1875 8.35593 39.2685 8.15193 39.4305C7.94793 39.5865 7.81293 39.8085 7.74693 40.0965ZM14.5537 40.4745C15.0097 40.6965 15.2377 41.0535 15.2377 41.5455C15.2377 41.9295 15.0787 42.2505 14.7607 42.5085C14.4427 42.7665 13.9957 42.8955 13.4197 42.8955C12.5077 42.8955 11.8867 42.5355 11.5567 41.8155L12.5017 41.2575C12.6457 41.6655 12.9547 41.8695 13.4287 41.8695C13.6447 41.8695 13.8097 41.8275 13.9237 41.7435C14.0437 41.6595 14.1037 41.5455 14.1037 41.4015C14.1037 41.1255 13.9267 40.9875 13.5727 40.9875H12.9337V39.9975H13.4197C13.7677 39.9975 13.9417 39.8595 13.9417 39.5835C13.9417 39.4515 13.8907 39.3465 13.7887 39.2685C13.6867 39.1905 13.5517 39.1515 13.3837 39.1515C12.9937 39.1515 12.7147 39.3405 12.5467 39.7185L11.6107 39.1785C11.9527 38.4885 12.5377 38.1435 13.3657 38.1435C13.8817 38.1435 14.2897 38.2755 14.5897 38.5395C14.8957 38.7975 15.0487 39.1125 15.0487 39.4845C15.0487 39.9225 14.8837 40.2525 14.5537 40.4745ZM18.9205 38.2695H20.0815V42.7695H18.9205V41.0595H17.1295V42.7695H15.9685V38.2695H17.1295V39.9705H18.9205V38.2695ZM24.5653 38.2695H25.7263V42.7695H24.5653V42.2385C24.2173 42.6765 23.7283 42.8955 23.0983 42.8955C22.4983 42.8955 21.9823 42.6675 21.5503 42.2115C21.1243 41.7495 20.9113 41.1855 20.9113 40.5195C20.9113 39.8535 21.1243 39.2925 21.5503 38.8365C21.9823 38.3745 22.4983 38.1435 23.0983 38.1435C23.7283 38.1435 24.2173 38.3625 24.5653 38.8005V38.2695ZM22.4233 41.4375C22.6573 41.6715 22.9543 41.7885 23.3143 41.7885C23.6743 41.7885 23.9713 41.6715 24.2053 41.4375C24.4453 41.1975 24.5653 40.8915 24.5653 40.5195C24.5653 40.1475 24.4453 39.8445 24.2053 39.6105C23.9713 39.3705 23.6743 39.2505 23.3143 39.2505C22.9543 39.2505 22.6573 39.3705 22.4233 39.6105C22.1893 39.8445 22.0723 40.1475 22.0723 40.5195C22.0723 40.8915 22.1893 41.1975 22.4233 41.4375ZM30.64 38.2695V42.7695H29.479V39.3855H28.237V40.8885C28.237 42.2805 27.604 42.9075 26.338 42.7695V41.6805C26.578 41.7405 26.761 41.7015 26.887 41.5635C27.013 41.4195 27.076 41.1735 27.076 40.8255V38.2695H30.64ZM34.9411 38.2695H35.8051V42.7695H34.6711V40.2135L32.5561 42.7695H31.6921V38.2695H32.8261V40.8255L34.9411 38.2695ZM39.5239 38.2695H40.6849V42.7695H39.5239V41.3385C39.1879 41.4465 38.8309 41.5005 38.4529 41.5005C37.9069 41.5005 37.4689 41.3625 37.1389 41.0865C36.8149 40.8105 36.6529 40.4085 36.6529 39.8805V38.2695H37.8139V39.7455C37.8139 40.1955 38.0929 40.4205 38.6509 40.4205C38.9749 40.4205 39.2659 40.3635 39.5239 40.2495V38.2695ZM44.69 38.2695H45.851V42.7695H44.69V41.0595H42.899V42.7695H41.738V38.2695H42.899V39.9705H44.69V38.2695ZM48.9488 39.7095C49.4588 39.7095 49.8698 39.8505 50.1818 40.1325C50.4938 40.4085 50.6498 40.7775 50.6498 41.2395C50.6498 41.7015 50.4938 42.0735 50.1818 42.3555C49.8698 42.6315 49.4588 42.7695 48.9488 42.7695H46.9148V38.2695H48.0758V39.7095H48.9488ZM51.1448 38.2695H52.3058V42.7695H51.1448V38.2695ZM48.9578 41.7435C49.1198 41.7435 49.2518 41.6985 49.3538 41.6085C49.4618 41.5125 49.5158 41.3895 49.5158 41.2395C49.5158 41.0895 49.4618 40.9665 49.3538 40.8705C49.2518 40.7745 49.1198 40.7265 48.9578 40.7265H48.0758V41.7435H48.9578ZM54.122 37.6935V36.6855H56.732V37.6935H54.122ZM56.615 38.2695H57.479V42.7695H56.345V40.2135L54.23 42.7695H53.366V38.2695H54.5V40.8255L56.615 38.2695Z" fill="white"/>
<path d="M34.4625 25.2667C34.9396 25.3039 35.3537 25.6078 35.5326 26.0512L35.5329 26.052L35.7405 26.573L36.6254 25.4874C36.2997 24.9369 36.2911 24.2491 36.6128 23.6871L37.135 22.7109L38.2432 19.7508L38.249 19.7353L38.2573 19.721L42.6607 12.0903L42.3731 11.9252L42.3728 11.925C42.0249 11.7245 41.9057 11.281 42.103 10.9327L42.1033 10.9322C42.1996 10.7632 42.3593 10.6399 42.5469 10.5891L42.5471 10.589C42.7345 10.5385 42.9348 10.5646 43.1025 10.6619C43.1027 10.662 43.1029 10.6621 43.1031 10.6622L43.3918 10.828L44.6375 8.70491L44.6375 8.70489C44.8049 8.41966 45.1366 8.29003 45.4424 8.36624L45.6215 8.05453L45.6216 8.05431C45.8587 7.64311 46.2492 7.34285 46.7073 7.21941L46.7075 7.21936C47.1665 7.09615 47.6556 7.16051 48.0675 7.39841M34.4625 25.2667C34.4626 25.2667 34.4626 25.2667 34.4627 25.2667L34.447 25.4661L34.4625 25.2667ZM34.4625 25.2667C34.0609 25.2351 33.673 25.3977 33.4142 25.6954M33.4142 25.6954L33.2841 24.1648L33.0847 24.1814M33.4142 25.6954C33.3661 25.7507 33.3225 25.8106 33.284 25.8748L33.2834 25.8759L33.2357 25.9568M33.4142 25.6954L33.4372 25.9665L33.4372 25.9667L33.4404 26.0034L33.4557 25.9775L33.2357 25.9568M33.0847 24.1814L33.284 24.1645C33.2343 23.5688 32.7734 23.0898 32.1797 23.0178L32.1796 23.0178C31.5857 22.9462 31.0239 23.3021 30.8341 23.869L30.834 23.8692L29.5304 27.7793L29.5302 27.7799C29.4057 28.1575 29.6064 28.5642 29.9796 28.6963M33.0847 24.1814L33.2357 25.9568M33.0847 24.1814C33.0431 23.68 32.6552 23.2769 32.1556 23.2164L33.2357 25.9568M29.9796 28.6963C30.0503 28.7275 30.1262 28.747 30.2057 28.752L30.2057 28.7524L30.2176 28.7524C30.5313 28.7535 30.8103 28.5534 30.9114 28.2568L30.9119 28.2553L31.9035 25.2663M29.9796 28.6963C29.9764 28.6948 29.9731 28.6934 29.9699 28.6919L30.0536 28.5102M29.9796 28.6963C29.9829 28.6974 29.9862 28.6986 29.9896 28.6997L30.0536 28.5102M31.9035 25.2663L32.0058 26.4497L32.2051 26.4331M31.9035 25.2663L32.0628 24.7862M31.9035 25.2663L31.86 24.7624L32.0628 24.7862M32.2051 26.4331L32.0058 26.4503L32.0058 26.45C32.0513 26.9954 32.4435 27.4489 32.9767 27.5725C33.5016 27.6941 34.0445 27.4685 34.329 27.0135M32.2051 26.4331L32.0628 24.7862M32.2051 26.4331L32.0628 24.7862M34.329 27.0135L34.5096 27.471L34.5098 27.4714C34.6753 27.8882 35.0499 28.1855 35.4942 28.2517M34.329 27.0135C34.3334 27.0065 34.3377 26.9993 34.342 26.9922L34.3142 26.9762M34.329 27.0135L34.3142 26.9762M35.4942 28.2517C35.4943 28.2517 35.4943 28.2517 35.4943 28.2517L35.5237 28.0539L35.4942 28.2517ZM35.4942 28.2517C35.9379 28.3179 36.383 28.1427 36.6634 27.7927L36.6642 27.7916L37.8209 26.3272C37.9327 26.3479 38.0463 26.3582 38.1603 26.3578M38.1603 26.3578C38.1599 26.3578 38.1595 26.3578 38.159 26.3578L38.1606 26.1578L38.1614 26.3578C38.161 26.3578 38.1607 26.3578 38.1603 26.3578ZM38.1603 26.3578C38.7983 26.3624 39.3917 26.0261 39.7154 25.4755L39.7149 25.4763L39.5433 25.3735M39.5433 25.3735L39.7158 25.4748L40.2372 24.6043M39.5433 25.3735L40.0732 24.4888M39.5433 25.3735L40.0732 24.4888M40.2372 24.6043L42.2463 22.1628L42.2569 22.1499L42.2652 22.1355L46.7163 14.4088M40.2372 24.6043L40.2277 24.6158L40.0732 24.4888M40.2372 24.6043L40.2448 24.5915L40.0732 24.4888M46.7163 14.4088L47.0044 14.5743L47.1041 14.4009M46.7163 14.4088L46.5431 14.3094L46.6427 14.1359M46.7163 14.4088L46.816 14.2358L46.6427 14.1359M47.1041 14.4009L47.0045 14.5743C47.0808 14.6182 47.1368 14.6907 47.1597 14.7761L47.1598 14.7764C47.1826 14.8608 47.1708 14.9507 47.1269 15.0265L47.1267 15.0268L45.0107 18.6933M47.1041 14.4009L46.6427 14.1359M47.1041 14.4009C47.2264 14.4712 47.3161 14.5873 47.3528 14.7242L46.6427 14.1359M45.0107 18.6933C44.9024 18.8589 44.867 19.0605 44.9102 19.2523L44.9104 19.2533C44.9551 19.4469 45.0764 19.6145 45.2468 19.7169L45.2468 19.7169L45.2495 19.7185C45.4178 19.8161 45.6182 19.8424 45.8059 19.7918L45.8062 19.7917C45.9936 19.741 46.1531 19.6179 46.2495 19.4492L46.2493 19.4495L46.0761 19.3496M45.0107 18.6933C45.012 18.6914 45.0133 18.6894 45.0146 18.6874L45.1809 18.7985L45.0077 18.6986L45.0107 18.6933ZM46.0761 19.3496L46.2498 19.4487L48.3682 15.7779L48.1951 15.6778M46.0761 19.3496L48.1951 15.6778M46.0761 19.3496C46.0061 19.4722 45.8903 19.5618 45.7539 19.5987M48.1951 15.6778L48.3683 15.7778C48.6061 15.3663 48.6705 14.8771 48.5472 14.418L48.5472 14.418C48.4238 13.9595 48.1232 13.5689 47.7119 13.3322L47.7118 13.3321L47.4249 13.1671M48.1951 15.6778C48.4063 15.3123 48.4635 14.8777 48.354 14.4699C48.2445 14.0627 47.9774 13.7158 47.6121 13.5055L47.3249 13.3403M47.4249 13.1671L48.6495 11.0464L48.6498 11.0458C48.8142 10.7587 48.7624 10.4058 48.5439 10.1777M47.4249 13.1671L47.3249 13.3403M47.4249 13.1671L47.2515 13.0674L48.4763 10.9464M48.5439 10.1777L48.7231 9.8658L48.5504 9.76492M48.5439 10.1777L48.4589 10.3255L48.2855 10.2259M48.5439 10.1777C48.4986 10.1304 48.4462 10.0885 48.3871 10.0536L48.2855 10.2259M48.5504 9.76492L48.7238 9.86458L48.7236 9.86498C48.9672 9.44745 49.0316 8.94906 48.9016 8.48304M48.5504 9.76492L48.2855 10.2259M48.5504 9.76492L48.2855 10.2259M48.9016 8.48304C48.9015 8.48268 48.9014 8.48231 48.9013 8.48195L48.7087 8.5358L48.9019 8.48414C48.9018 8.48377 48.9017 8.48341 48.9016 8.48304ZM48.9016 8.48304C48.7789 8.02505 48.4783 7.63493 48.0675 7.39841M48.0675 7.39841C48.0675 7.39843 48.0675 7.39844 48.0676 7.39845L47.9675 7.57164L48.0673 7.3983C48.0674 7.39834 48.0674 7.39838 48.0675 7.39841ZM48.2855 10.2259C48.5356 10.3734 48.6204 10.6947 48.4763 10.9464M48.2855 10.2259L48.4763 10.9464M48.4763 10.9464L47.3249 13.3403M47.3249 13.3403L45.7539 19.5987M34.3135 26.9743L34.3424 26.9915L34.4593 26.7991L34.3671 26.5656L34.2368 26.7801L34.3135 26.9743ZM34.3135 26.9743L34.1707 26.889L34.3142 26.9762M34.3135 26.9743L34.3142 26.9762M45.7539 19.5987C45.6175 19.6354 45.472 19.6163 45.3498 19.5454C45.2261 19.4712 45.1378 19.3493 45.1053 19.2083L45.7539 19.5987ZM46.6427 14.1359L42.0919 22.0357M46.6427 14.1359L42.0919 22.0357M42.0919 22.0357L40.0732 24.4888M42.0919 22.0357L40.0732 24.4888M30.0536 28.5102C29.7781 28.4171 29.629 28.1191 29.7201 27.8425L30.2183 28.5524C30.161 28.5488 30.1059 28.5343 30.0536 28.5102ZM47.0846 8.62893C47.0005 8.65179 46.929 8.70709 46.8848 8.78349L47.0846 8.62893ZM47.0846 8.62893C47.1712 8.60805 47.2617 8.62003 47.3398 8.66262C47.4147 8.70583 47.4696 8.77706 47.4928 8.8615C47.5137 8.94733 47.5016 9.03807 47.459 9.11583C47.4588 9.11625 47.4586 9.11667 47.4583 9.11709L47.2947 9.4018L46.7199 9.07125L46.8846 8.78386L47.0846 8.62893ZM35.5959 26.7504L35.3471 26.126L35.5959 26.7504ZM36.8725 25.5007L35.8252 26.7856L38.4305 19.8209L37.3177 22.7934L36.7878 23.784C36.4776 24.3237 36.5108 24.9945 36.8725 25.5007ZM38.0803 24.1261L38.6547 24.4562L38.4908 24.7379L38.4904 24.7387C38.4443 24.8187 38.3664 24.8758 38.276 24.896C38.1859 24.9159 38.0914 24.8972 38.0151 24.8439L38.0149 24.8438C37.8758 24.747 37.8329 24.5608 37.9156 24.4125C37.9158 24.4122 37.9159 24.4119 37.9161 24.4117L38.0803 24.1261ZM40.5575 21.8732L39.4442 23.219L39.3259 23.1504L39.3257 23.1503L38.6876 22.7793L39.2982 21.1456L40.5575 21.8732ZM45.432 13.6792L41.3934 20.6763L39.9062 19.8169L43.9448 12.8198L45.432 13.6792ZM47.021 10.9295L46.162 12.4163L44.6748 11.5568L45.5344 10.07L47.021 10.9295Z" fill="white" stroke="white" stroke-width="0.4" stroke-linecap="round"/>
<path d="M23.4568 27.8736C23.7916 27.8753 24.113 27.7441 24.3506 27.5083L24.3514 27.5076L26.2216 25.632L26.227 25.6266L26.2319 25.6209C26.4802 25.3309 26.4625 24.8995 26.1941 24.6303L26.1941 24.6303L26.1937 24.6299C25.9235 24.3606 25.4925 24.3436 25.2025 24.5917L25.1966 24.5966L25.1912 24.602L23.4575 26.3314L22.4753 25.3493L22.475 25.349C22.1906 25.066 21.7304 25.0659 21.446 25.3489M23.4568 27.8736C23.1244 27.8738 22.8055 27.7425 22.5695 27.5083L22.569 27.5078L21.4463 26.3851C21.4462 26.385 21.446 26.3849 21.4459 26.3848C21.3079 26.2479 21.2302 26.0613 21.2302 25.8669C21.2302 25.6722 21.3081 25.4859 21.446 25.3489M23.4568 27.8736C23.4566 27.8736 23.4564 27.8736 23.4562 27.8736L23.4573 27.6736L23.4575 27.8736C23.4573 27.8736 23.457 27.8736 23.4568 27.8736ZM21.446 25.3489C21.446 25.3489 21.4461 25.3489 21.4461 25.3488L21.587 25.4907L21.4459 25.349C21.4459 25.349 21.446 25.3489 21.446 25.3489Z" fill="white" stroke="white" stroke-width="0.4" stroke-linecap="round"/>
<path d="M23.5973 22.9238L23.5979 22.9238C24.3004 22.9218 24.9835 23.1496 25.5435 23.5724L25.5439 23.5727C25.8664 23.8149 26.3237 23.7489 26.5657 23.4268L26.566 23.4265C26.8072 23.1041 26.7422 22.647 26.42 22.405L26.4199 22.4049C24.9942 21.3361 23.0874 21.1643 21.4942 21.9608C19.9003 22.7575 18.8937 24.3863 18.8937 26.1677C18.8937 28.7655 20.9998 30.8711 23.5973 30.8711C26.1948 30.8711 28.3009 28.7655 28.3009 26.1677C28.3009 25.7646 27.9739 25.4378 27.5709 25.4378C27.1677 25.4378 26.8418 25.7649 26.8418 26.1677C26.8418 27.9591 25.3889 29.4115 23.5973 29.4115C21.8058 29.4115 20.3536 27.9592 20.3536 26.1677C20.3536 24.3761 21.8058 22.9238 23.5973 22.9238Z" fill="white" stroke="white" stroke-width="0.4" stroke-linecap="round"/>
<path d="M36.0414 5.4391C36.4442 5.4391 36.7713 5.11271 36.7713 4.70927C36.7713 4.30616 36.4443 3.97944 36.0414 3.97944H22.2658C21.8628 3.97944 21.5358 4.30616 21.5358 4.70927V6.82856C21.5358 7.23202 21.8629 7.55836 22.2658 7.55836H36.0414C36.4442 7.55836 36.7713 7.23202 36.7713 6.82856C36.7713 6.42545 36.4443 6.09874 36.0414 6.09874H22.9957V5.4391H36.0414Z" fill="white" stroke="white" stroke-width="0.4" stroke-linecap="round"/>
<path d="M23.8712 8.21821C23.4683 8.21821 23.1413 8.54496 23.1413 8.94806C23.1413 9.3515 23.4684 9.6779 23.8712 9.6779H34.4681C34.8709 9.6779 35.198 9.3515 35.198 8.94806C35.198 8.54496 34.871 8.21821 34.4681 8.21821H23.8712Z" fill="white" stroke="white" stroke-width="0.4" stroke-linecap="round"/>
<path d="M37.6378 11.927H25.9811C25.5782 11.927 25.2512 12.2536 25.2512 12.6567C25.2512 13.0602 25.5782 13.3866 25.9811 13.3866H37.6378C38.041 13.3866 38.367 13.0598 38.367 12.6567C38.367 12.2539 38.041 11.927 37.6378 11.927Z" fill="white" stroke="white" stroke-width="0.4" stroke-linecap="round"/>
<path d="M32.5437 15.8333C32.5437 15.4302 32.2167 15.1035 31.8138 15.1035H21.2169C20.814 15.1035 20.487 15.4302 20.487 15.8333C20.487 16.2368 20.8141 16.5632 21.2169 16.5632H31.8138C32.2166 16.5632 32.5437 16.2368 32.5437 15.8333Z" fill="white" stroke="white" stroke-width="0.4" stroke-linecap="round"/>
<path d="M37.6454 15.1035H33.936C33.5327 15.1035 33.2067 15.4306 33.2067 15.8333C33.2067 16.2364 33.5328 16.5632 33.936 16.5632H37.6454C38.0486 16.5632 38.3745 16.2364 38.3745 15.8333C38.3745 15.4306 38.0486 15.1035 37.6454 15.1035Z" fill="white" stroke="white" stroke-width="0.4" stroke-linecap="round"/>
<path d="M26.5153 19.2145C26.9182 19.2145 27.2452 18.8881 27.2452 18.4847C27.2452 18.0816 26.9182 17.7548 26.5153 17.7548H21.2169C20.814 17.7548 20.487 18.0816 20.487 18.4847C20.487 18.8881 20.8141 19.2145 21.2169 19.2145H26.5153Z" fill="white" stroke="white" stroke-width="0.4" stroke-linecap="round"/>
<path d="M28.6315 19.2145H32.3402C32.7439 19.2145 33.0701 18.8879 33.0701 18.4847C33.0701 18.0818 32.744 17.7548 32.3402 17.7548H28.6315C28.2286 17.7548 27.9016 18.0816 27.9016 18.4847C27.9016 18.8881 28.2286 19.2145 28.6315 19.2145Z" fill="white" stroke="white" stroke-width="0.4" stroke-linecap="round"/>
<path d="M40.8138 25.1719C40.4109 25.1719 40.0839 25.4986 40.0839 25.9017V31.2C40.0839 31.3822 39.9362 31.5297 39.754 31.5297H18.5609C18.3787 31.5297 18.231 31.3822 18.231 31.2V2.58947C18.231 2.4074 18.3788 2.25964 18.5609 2.25964H39.754C39.9361 2.25964 40.0839 2.4074 40.0839 2.58947V12.5397C40.0839 12.9428 40.4109 13.2695 40.8138 13.2695C41.2167 13.2695 41.5437 12.9428 41.5437 12.5397V2.58947C41.5437 1.60117 40.7419 0.8 39.754 0.8H18.5609C17.573 0.8 16.7712 1.60117 16.7712 2.58947V31.2C16.7712 32.1885 17.573 32.9894 18.5609 32.9894H39.754C40.7419 32.9894 41.5437 32.1885 41.5437 31.2V25.9017C41.5437 25.4986 41.2167 25.1719 40.8138 25.1719Z" fill="white" stroke="white" stroke-width="0.4" stroke-linecap="round"/>
</svg>
