<svg width="91" height="86" viewBox="0 0 91 86" fill="none" xmlns="http://www.w3.org/2000/svg">
<path d="M89.5727 55.3398V66.0274C89.5728 66.6473 89.4508 67.2612 89.2137 67.834C88.9765 68.4068 88.6288 68.9272 88.1905 69.3655C87.7521 69.8039 87.2317 70.1516 86.6589 70.3888C86.0861 70.6259 85.4722 70.7479 84.8523 70.7477H8.99573C8.3758 70.7479 7.76191 70.6259 7.18914 70.3888C6.61637 70.1516 6.09594 69.8039 5.65758 69.3655C5.21922 68.9272 4.87153 68.4068 4.63437 67.834C4.39721 67.2612 4.27523 66.6473 4.27539 66.0274V55.3398H89.5727Z" fill="#507299"/>
<path d="M89.5432 55.3398V66.0274C89.5395 67.2794 89.0397 68.4788 88.1533 69.3629C87.2669 70.247 86.0661 70.7437 84.8142 70.744H80.4238C81.6758 70.7437 82.8765 70.247 83.763 69.3629C84.6494 68.4788 85.1492 67.2794 85.1528 66.0274V55.3398H89.5432Z" fill="#456180"/>
<path d="M89.5753 9.11049V55.3393H4.27539V9.11049C4.27523 8.49035 4.39729 7.87625 4.63461 7.30332C4.87193 6.73038 5.21984 6.20983 5.65847 5.77144C6.09709 5.33305 6.61782 4.98541 7.19088 4.7484C7.76394 4.51138 8.3781 4.38964 8.99825 4.39014H84.8562C85.476 4.39014 86.0898 4.51224 86.6624 4.74948C87.235 4.98671 87.7553 5.33443 88.1935 5.77277C88.6318 6.21112 88.9793 6.73149 89.2164 7.30419C89.4535 7.87688 89.5755 8.49066 89.5753 9.11049Z" fill="#EAF2FA"/>
<path d="M89.7095 9.11439V55.3395H85.0681V13.1912C85.0691 12.571 84.9479 11.9566 84.7114 11.3832C84.4748 10.8098 84.1276 10.2886 83.6896 9.84945C83.2516 9.41028 82.7314 9.06171 82.1586 8.82366C81.5858 8.58562 80.9718 8.46275 80.3515 8.46209H4.45923C4.61447 7.33398 5.17229 6.30002 6.02985 5.5508C6.88742 4.80159 7.98692 4.38764 9.12566 4.38525H84.9803C86.2343 4.38625 87.4366 4.88482 88.3232 5.77149C89.2099 6.65815 89.7085 7.86045 89.7095 9.11439Z" fill="#D6E5F5"/>
<path d="M33.2874 70.7427H60.7564V81.3601H33.2874V70.7427Z" fill="#507299"/>
<path d="M57.3982 70.7437H60.7474V79.5872H57.3982V70.7437Z" fill="#456180"/>
<path d="M47.0437 65.1919C48.2331 65.1919 49.1974 64.2276 49.1974 63.0381C49.1974 61.8486 48.2331 60.8843 47.0437 60.8843C45.8542 60.8843 44.8899 61.8486 44.8899 63.0381C44.8899 64.2276 45.8542 65.1919 47.0437 65.1919Z" fill="#EEEFEE"/>
<path d="M46.9468 65.8194C46.3968 65.8194 45.8591 65.6563 45.4017 65.3507C44.9444 65.0452 44.588 64.6108 44.3775 64.1026C44.167 63.5945 44.1119 63.0353 44.2192 62.4958C44.3265 61.9564 44.5914 61.4608 44.9803 61.0719C45.3692 60.6829 45.8648 60.4181 46.4042 60.3108C46.9437 60.2035 47.5029 60.2585 48.011 60.469C48.5192 60.6795 48.9535 61.036 49.2591 61.4933C49.5647 61.9506 49.7278 62.4883 49.7278 63.0384C49.7271 63.7758 49.4339 64.4827 48.9125 65.0041C48.3911 65.5256 47.6842 65.8188 46.9468 65.8194ZM46.9468 61.5117C46.6449 61.5117 46.3497 61.6013 46.0987 61.769C45.8476 61.9368 45.6519 62.1752 45.5364 62.4542C45.4208 62.7331 45.3906 63.0401 45.4495 63.3362C45.5084 63.6323 45.6538 63.9044 45.8673 64.1179C46.0808 64.3314 46.3528 64.4768 46.649 64.5357C46.9451 64.5946 47.252 64.5644 47.531 64.4488C47.81 64.3333 48.0484 64.1376 48.2161 63.8865C48.3839 63.6355 48.4734 63.3403 48.4734 63.0384C48.4731 62.6336 48.3121 62.2455 48.0259 61.9593C47.7397 61.673 47.3516 61.5121 46.9468 61.5117Z" fill="#3C2415"/>
<path d="M0.736979 7.8301C0.688892 7.83058 0.640909 7.82553 0.593976 7.81505C0.513644 7.79656 0.437743 7.76242 0.370615 7.71458C0.303486 7.66674 0.246447 7.60613 0.202758 7.53623C0.159069 7.46633 0.129588 7.3885 0.116001 7.3072C0.102414 7.22589 0.104986 7.14271 0.123572 7.0624C0.579412 5.05152 1.70703 3.25607 3.32043 1.97219C4.93383 0.688306 6.93665 -0.00731584 8.99853 5.8026e-05H9.76372C9.93006 5.8026e-05 10.0896 0.0661384 10.2072 0.183762C10.3248 0.301386 10.3909 0.460919 10.3909 0.627264C10.3909 0.793609 10.3248 0.953142 10.2072 1.07077C10.0896 1.18839 9.93006 1.25447 9.76372 1.25447H8.99853C7.22059 1.24796 5.49356 1.8478 4.10244 2.95499C2.71131 4.06219 1.73924 5.61058 1.34662 7.34464C1.31465 7.48246 1.23702 7.60542 1.12635 7.69354C1.01567 7.78167 0.878455 7.8298 0.736979 7.8301Z" fill="#3C2415"/>
<path d="M13.7378 1.25441H12.7004C12.5341 1.25441 12.3746 1.18833 12.2569 1.07071C12.1393 0.953085 12.0732 0.793553 12.0732 0.627207C12.0732 0.460862 12.1393 0.301329 12.2569 0.183705C12.3746 0.0660805 12.5341 0 12.7004 0H13.7378C13.9042 0 14.0637 0.0660805 14.1813 0.183705C14.299 0.301329 14.365 0.460862 14.365 0.627207C14.365 0.793553 14.299 0.953085 14.1813 1.07071C14.0637 1.18833 13.9042 1.25441 13.7378 1.25441Z" fill="#3C2415"/>
<path d="M70.8278 74.4453H69.9912C69.8249 74.4453 69.6653 74.3792 69.5477 74.2616C69.4301 74.144 69.364 73.9845 69.364 73.8181C69.364 73.6518 69.4301 73.4922 69.5477 73.3746C69.6653 73.257 69.8249 73.1909 69.9912 73.1909H70.8278C70.9942 73.1909 71.1537 73.257 71.2713 73.3746C71.3889 73.4922 71.455 73.6518 71.455 73.8181C71.455 73.9845 71.3889 74.144 71.2713 74.2616C71.1537 74.3792 70.9942 74.4453 70.8278 74.4453Z" fill="#3C2415"/>
<path d="M84.5152 74.4453H73.4351C73.2687 74.4453 73.1092 74.3792 72.9916 74.2616C72.8739 74.144 72.8079 73.9845 72.8079 73.8181C72.8079 73.6518 72.8739 73.4922 72.9916 73.3746C73.1092 73.257 73.2687 73.1909 73.4351 73.1909H84.5152C84.6816 73.1909 84.8411 73.257 84.9587 73.3746C85.0764 73.4922 85.1425 73.6518 85.1425 73.8181C85.1425 73.9845 85.0764 74.144 84.9587 74.2616C84.8411 74.3792 84.6816 74.4453 84.5152 74.4453Z" fill="#3C2415"/>
<path d="M84.757 71.3698H8.89883C7.48098 71.3685 6.12158 70.8046 5.119 69.8021C4.11643 68.7995 3.5526 67.4401 3.55127 66.0222V55.3396C3.55127 55.1733 3.61735 55.0137 3.73497 54.8961C3.8526 54.7785 4.01213 54.7124 4.17848 54.7124H89.4786C89.6449 54.7124 89.8045 54.7785 89.9221 54.8961C90.0397 55.0137 90.1058 55.1733 90.1058 55.3396V66.0285C90.1028 67.4455 89.5381 68.8035 88.5354 69.8047C87.5328 70.806 86.174 71.3688 84.757 71.3698ZM4.80317 55.9668V66.0285C4.80616 67.113 5.23891 68.1521 6.0066 68.9182C6.77429 69.6842 7.81432 70.1147 8.89883 70.1154H84.757C85.8422 70.1141 86.8825 69.6824 87.6498 68.9151C88.4171 68.1477 88.8488 67.1074 88.8501 66.0222V55.9668H4.80317Z" fill="#3C2415"/>
<path d="M89.4784 55.9673H4.17848C4.01213 55.9673 3.8526 55.9012 3.73497 55.7836C3.61735 55.666 3.55127 55.5064 3.55127 55.3401V9.11123C3.5526 7.69294 4.11677 6.33316 5.11989 5.33052C6.123 4.32787 7.48304 3.76434 8.90133 3.76367H84.7593C86.1771 3.765 87.5365 4.32883 88.5391 5.3314C89.5417 6.33398 90.1055 7.69338 90.1068 9.11123V55.3401C90.1068 55.4226 90.0906 55.5042 90.059 55.5804C90.0274 55.6566 89.9811 55.7258 89.9227 55.784C89.8643 55.8423 89.795 55.8885 89.7188 55.9199C89.6425 55.9513 89.5609 55.9674 89.4784 55.9673ZM4.80568 54.7129H88.8512V9.11123C88.8498 8.02607 88.4182 6.98573 87.6509 6.21841C86.8835 5.45108 85.8432 5.01941 84.758 5.01808H8.90133C7.81573 5.01875 6.77476 5.45012 6.00689 6.21752C5.23902 6.98492 4.80701 8.02563 4.80568 9.11123V54.7129Z" fill="#3C2415"/>
<path d="M60.6596 81.987H33.188C33.0217 81.987 32.8621 81.9209 32.7445 81.8033C32.6269 81.6857 32.5608 81.5261 32.5608 81.3598V70.7424C32.5608 70.5761 32.6269 70.4166 32.7445 70.2989C32.8621 70.1813 33.0217 70.1152 33.188 70.1152H60.6596C60.8259 70.1152 60.9855 70.1813 61.1031 70.2989C61.2207 70.4166 61.2868 70.5761 61.2868 70.7424V81.3598C61.2868 81.5261 61.2207 81.6857 61.1031 81.8033C60.9855 81.9209 60.8259 81.987 60.6596 81.987ZM33.8152 80.7326H60.0324V71.3696H33.8152V80.7326Z" fill="#3C2415"/>
<path d="M61.2807 79.584H32.6099C31.1548 79.584 29.7593 80.1618 28.7301 81.1905C27.701 82.2192 27.1225 83.6144 27.1218 85.0695H66.7688C66.7681 83.6144 66.1896 82.2192 65.1605 81.1905C64.1313 80.1618 62.7358 79.584 61.2807 79.584Z" fill="#507299"/>
<path d="M66.7742 85.0697H63.4249C63.4244 84.1107 63.1713 83.1688 62.6913 82.3386C62.2113 81.5085 61.5211 80.8194 60.6903 80.3405C59.859 79.8469 58.9099 79.5869 57.9431 79.5879H61.2798C62.7352 79.5869 64.1313 80.1637 65.1616 81.1916C66.1918 82.2195 66.7718 83.6144 66.7742 85.0697Z" fill="#456180"/>
<path d="M66.6716 85.6965H27.0247C26.8583 85.6965 26.6988 85.6304 26.5812 85.5128C26.4635 85.3952 26.3975 85.2357 26.3975 85.0693C26.3995 83.4479 27.0445 81.8934 28.1912 80.747C29.3379 79.6005 30.8925 78.9558 32.514 78.9541H61.1835C62.8049 78.9558 64.3593 79.6006 65.5058 80.747C66.6523 81.8935 67.2971 83.448 67.2988 85.0693C67.2988 85.2357 67.2327 85.3952 67.1151 85.5128C66.9974 85.6304 66.8379 85.6965 66.6716 85.6965ZM27.692 84.4421H66.0042C65.8503 83.272 65.2767 82.1976 64.3899 81.4189C63.5032 80.6401 62.3637 80.21 61.1835 80.2085H32.514C31.3336 80.2097 30.1938 80.6397 29.3068 81.4185C28.4198 82.1973 27.8459 83.2718 27.692 84.4421Z" fill="#3C2415"/>
<path d="M21.2188 60.1065L10.2289 60.1993C10.1157 60.2008 10.0033 60.18 9.89821 60.1381C9.79309 60.0961 9.69725 60.0339 9.61618 59.9549C9.53511 59.8759 9.47038 59.7818 9.42571 59.6778C9.38103 59.5738 9.35727 59.462 9.35579 59.3488C9.3543 59.2357 9.37513 59.1233 9.41707 59.0182C9.459 58.9131 9.52124 58.8172 9.60021 58.7361C9.67919 58.6551 9.77336 58.5903 9.87735 58.5457C9.98134 58.501 10.0931 58.4772 10.2063 58.4757L21.21 58.3829C21.415 58.3796 21.6139 58.4525 21.7682 58.5874C21.9009 58.7014 21.9957 58.8531 22.0401 59.0224C22.0845 59.1916 22.0764 59.3703 22.0167 59.5348C21.9571 59.6993 21.8488 59.8417 21.7063 59.9432C21.5637 60.0446 21.3937 60.1003 21.2188 60.1028V60.1065Z" fill="white"/>
<path d="M24.5559 58.3952L25.1078 58.3877C25.2128 58.3839 25.3175 58.4012 25.4158 58.4384C25.514 58.4757 25.6038 58.5322 25.6798 58.6047C25.7754 58.6825 25.8521 58.7809 25.904 58.8926C25.9559 59.0043 25.9818 59.1264 25.9797 59.2495C25.9803 59.4758 25.8913 59.6931 25.7322 59.8539C25.573 60.0147 25.3566 60.1059 25.1304 60.1076L24.5785 60.1151C24.463 60.1207 24.3476 60.1031 24.2391 60.0631C24.1306 60.0232 24.0313 59.9618 23.947 59.8827C23.8628 59.8035 23.7953 59.7082 23.7488 59.6024C23.7022 59.4966 23.6774 59.3825 23.6759 59.2669C23.6743 59.1513 23.6961 59.0366 23.7399 58.9296C23.7837 58.8226 23.8486 58.7255 23.9308 58.6442C24.0129 58.5628 24.1106 58.4988 24.218 58.4561C24.3254 58.4133 24.4403 58.3926 24.5559 58.3952Z" fill="white"/>
<path d="M53.9918 20.9664C55.2437 20.9664 56.2585 20.0482 56.2585 18.9156C56.2585 17.7829 55.2437 16.8647 53.9918 16.8647C52.7399 16.8647 51.7251 17.7829 51.7251 18.9156C51.7251 20.0482 52.7399 20.9664 53.9918 20.9664Z" fill="#507097" stroke="#3C2415" stroke-width="0.8" stroke-miterlimit="10"/>
<path d="M53.992 29.6016C55.2439 29.6016 56.2587 28.6835 56.2587 27.5508C56.2587 26.4182 55.2439 25.5 53.992 25.5C52.7402 25.5 51.7253 26.4182 51.7253 27.5508C51.7253 28.6835 52.7402 29.6016 53.992 29.6016Z" fill="#507097" stroke="#3C2415" stroke-width="0.8" stroke-miterlimit="10"/>
<path d="M53.992 38.2364C55.2439 38.2364 56.2587 37.3182 56.2587 36.1856C56.2587 35.0529 55.2439 34.1348 53.992 34.1348C52.7402 34.1348 51.7253 35.0529 51.7253 36.1856C51.7253 37.3182 52.7402 38.2364 53.992 38.2364Z" fill="#507097" stroke="#3C2415" stroke-width="0.8" stroke-miterlimit="10"/>
<path d="M54.2672 47.1016C55.519 47.1016 56.5339 46.1835 56.5339 45.0508C56.5339 43.9182 55.519 43 54.2672 43C53.0153 43 52.0005 43.9182 52.0005 45.0508C52.0005 46.1835 53.0153 47.1016 54.2672 47.1016Z" fill="#507097" stroke="#3C2415" stroke-width="0.8" stroke-miterlimit="10"/>
<path d="M73.8778 16.8647H62.4953C61.3166 16.8647 60.3611 17.783 60.3611 18.9156C60.3611 20.0482 61.3166 20.9664 62.4953 20.9664H73.8778C75.0565 20.9664 76.0121 20.0482 76.0121 18.9156C76.0121 17.783 75.0565 16.8647 73.8778 16.8647Z" fill="#6AD3D3" stroke="#3C2415" stroke-width="0.8"/>
<path d="M73.8778 25.5H62.4953C61.3166 25.5 60.3611 26.4182 60.3611 27.5508C60.3611 28.6834 61.3166 29.6016 62.4953 29.6016H73.8778C75.0565 29.6016 76.0121 28.6834 76.0121 27.5508C76.0121 26.4182 75.0565 25.5 73.8778 25.5Z" fill="#6AD3D3" stroke="#3C2415" stroke-width="0.8"/>
<path d="M73.8778 34.1348H62.4953C61.3166 34.1348 60.3611 35.053 60.3611 36.1856C60.3611 37.3182 61.3166 38.2364 62.4953 38.2364H73.8778C75.0565 38.2364 76.0121 37.3182 76.0121 36.1856C76.0121 35.053 75.0565 34.1348 73.8778 34.1348Z" fill="#6AD3D3" stroke="#3C2415" stroke-width="0.8"/>
<path d="M73.8778 42.77H62.4953C61.3166 42.77 60.3611 43.6882 60.3611 44.8208C60.3611 45.9534 61.3166 46.8717 62.4953 46.8717H73.8778C75.0565 46.8717 76.0121 45.9534 76.0121 44.8208C76.0121 43.6882 75.0565 42.77 73.8778 42.77Z" fill="#6AD3D3" stroke="#3C2415" stroke-width="0.8"/>
<path d="M39.6555 24.4199H20.1658C20.0908 24.4199 20.019 24.3901 19.966 24.3372C19.9131 24.2842 19.8833 24.2124 19.8833 24.1374C19.8833 24.0625 19.9131 23.9907 19.966 23.9377C20.019 23.8847 20.0908 23.855 20.1658 23.855H39.6555C39.7304 23.855 39.8023 23.8847 39.8552 23.9377C39.9082 23.9907 39.938 24.0625 39.938 24.1374C39.938 24.2124 39.9082 24.2842 39.8552 24.3372C39.8023 24.3901 39.7304 24.4199 39.6555 24.4199Z" fill="#3C2415"/>
<path d="M21.7583 13.6865H25.3116V24.1376H21.7583V13.6865Z" fill="#FDC17B"/>
<path d="M34.6541 15.0254H38.2074V24.1375H34.6541V15.0254Z" fill="#507299"/>
<path d="M28.1318 9.59082H31.6908V24.1375H28.1318V9.59082Z" fill="#6AD3D3"/>
<path d="M25.2264 13.6865V24.1375H23.8819V15.031H21.6731V13.6865H25.2264Z" fill="#FDB35E"/>
<path d="M38.2074 15.0254V24.1375H36.8629V16.3699H34.6541V15.0254H38.2074Z" fill="#476689"/>
<path d="M31.6908 9.59082V24.1375H30.3463V10.9353H28.1318V9.59082H31.6908Z" fill="#5EC6C6"/>
<path d="M25.2682 24.4207H21.7148C21.6399 24.4207 21.5681 24.391 21.5151 24.338C21.4621 24.285 21.4324 24.2132 21.4324 24.1383V13.6872C21.4324 13.6123 21.4621 13.5405 21.5151 13.4875C21.5681 13.4345 21.6399 13.4048 21.7148 13.4048H25.2682C25.3431 13.4048 25.4149 13.4345 25.4679 13.4875C25.5209 13.5405 25.5506 13.6123 25.5506 13.6872V24.1383C25.5506 24.2132 25.5209 24.285 25.4679 24.338C25.4149 24.391 25.3431 24.4207 25.2682 24.4207ZM21.9973 23.8558H24.9857V13.9697H21.9973V23.8558Z" fill="#3C2415"/>
<path d="M38.1637 24.4202H34.6103C34.5354 24.4202 34.4636 24.3904 34.4106 24.3375C34.3576 24.2845 34.3279 24.2126 34.3279 24.1377V15.0261C34.3279 14.9512 34.3576 14.8794 34.4106 14.8264C34.4636 14.7734 34.5354 14.7437 34.6103 14.7437H38.1637C38.2386 14.7437 38.3104 14.7734 38.3634 14.8264C38.4164 14.8794 38.4461 14.9512 38.4461 15.0261V24.1377C38.4461 24.2126 38.4164 24.2845 38.3634 24.3375C38.3104 24.3904 38.2386 24.4202 38.1637 24.4202ZM34.8928 23.8553H37.8812V15.3086H34.8928V23.8553Z" fill="#3C2415"/>
<path d="M31.7282 24.4202H28.1692C28.0943 24.4202 28.0224 24.3904 27.9694 24.3374C27.9165 24.2845 27.8867 24.2126 27.8867 24.1377V9.59154C27.8867 9.51663 27.9165 9.44478 27.9694 9.39181C28.0224 9.33884 28.0943 9.30908 28.1692 9.30908H31.7282C31.8031 9.30908 31.8749 9.33884 31.9279 9.39181C31.9809 9.44478 32.0106 9.51663 32.0106 9.59154V24.1377C32.0106 24.2126 31.9809 24.2845 31.9279 24.3374C31.8749 24.3904 31.8031 24.4202 31.7282 24.4202ZM28.4516 23.8552H31.4457V9.874H28.4516V23.8552Z" fill="#3C2415"/>
<path d="M41.0401 24.1285L39.3727 31.0756C39.0705 32.369 37.9839 33.3302 36.6634 33.4724L21.9008 34.966H21.6229L17.9062 23.8159H18.0452L41.0401 24.1285Z" fill="#F8981D"/>
<path d="M34.5416 47.4713C35.8844 47.4713 36.973 46.3827 36.973 45.0398C36.973 43.697 35.8844 42.6084 34.5416 42.6084C33.1987 42.6084 32.1101 43.697 32.1101 45.0398C32.1101 46.3827 33.1987 47.4713 34.5416 47.4713Z" fill="#F8981D"/>
<path d="M21.3397 47.4713C22.6825 47.4713 23.7711 46.3827 23.7711 45.0398C23.7711 43.697 22.6825 42.6084 21.3397 42.6084C19.9968 42.6084 18.9082 43.697 18.9082 45.0398C18.9082 46.3827 19.9968 47.4713 21.3397 47.4713Z" fill="#F8981D"/>
<path d="M21.3452 48.1659C19.6186 48.1659 18.219 46.7662 18.219 45.0397C18.219 43.3132 19.6187 41.9136 21.3452 41.9136C23.0717 41.9136 24.4713 43.3132 24.4713 45.0397C24.4714 46.7662 23.0717 48.1659 21.3452 48.1659ZM21.3452 43.3029C20.386 43.3029 19.6084 44.0805 19.6084 45.0397C19.6084 45.9989 20.386 46.7764 21.3452 46.7764C22.3044 46.7764 23.0819 45.9989 23.0819 45.0397C23.082 44.0805 22.3044 43.3029 21.3452 43.3029Z" fill="#574E56"/>
<path d="M34.5449 48.1659C32.8183 48.1659 31.4187 46.7662 31.4187 45.0397C31.4187 43.3132 32.8184 41.9136 34.5449 41.9136C36.2714 41.9136 37.671 43.3132 37.671 45.0397C37.671 46.7662 36.2714 48.1659 34.5449 48.1659ZM34.5449 43.3029C33.5857 43.3029 32.8081 44.0805 32.8081 45.0397C32.8081 45.9989 33.5857 46.7764 34.5449 46.7764C35.5041 46.7764 36.2816 45.9989 36.2816 45.0397C36.2817 44.0805 35.5041 43.3029 34.5449 43.3029Z" fill="#574E56"/>
<path d="M41.594 23.6776C41.4494 23.5195 41.2514 23.4206 41.0383 23.3996L18.4255 23.087L17.8003 21.1766C17.3598 19.8994 16.1639 19.0372 14.813 19.0229H12.4857C12.102 19.0229 11.791 19.334 11.791 19.7177C11.791 20.1013 12.102 20.4124 12.4857 20.4124H14.813C15.5683 20.4291 16.2335 20.9141 16.4803 21.6281L20.8917 34.9318L20.5444 35.7307C20.157 36.7297 20.2733 37.8541 20.857 38.7527C21.4351 39.6352 22.4077 40.1799 23.4622 40.2116H36.9743C37.358 40.2116 37.669 39.9006 37.669 39.5169C37.669 39.1332 37.358 38.8222 36.9743 38.8222H23.4621C22.87 38.7954 22.327 38.4851 22.0032 37.9885C21.6916 37.4892 21.6275 36.8741 21.8296 36.3212L22.1075 35.6959L36.7311 34.1676C38.3374 33.9906 39.6588 32.8223 40.031 31.2498L41.6984 24.2679C41.7735 24.0669 41.7336 23.8408 41.594 23.6776ZM38.6763 30.9372C38.4508 31.9495 37.5913 32.6962 36.5575 32.7782L22.1075 34.2718L18.8771 24.4764L40.1699 24.7891L38.6763 30.9372Z" fill="#574E56"/>
</svg>
