<svg width="24" height="24" viewBox="0 0 24 24" fill="none" xmlns="http://www.w3.org/2000/svg">
<path d="M8.14258 12.0641C8.95581 13.7266 10.3035 15.0682 11.9697 15.8738C12.0917 15.9316 12.2265 15.9566 12.361 15.9464C12.4956 15.9363 12.6251 15.8912 12.7369 15.8158L15.1904 14.1798C15.2989 14.1074 15.4237 14.0633 15.5536 14.0513C15.6835 14.0394 15.8143 14.0601 15.9342 14.1114L20.5241 16.0786C20.68 16.1448 20.8102 16.2599 20.895 16.4066C20.9798 16.5532 21.0147 16.7234 20.9943 16.8916C20.8493 18.0268 20.2954 19.0702 19.4364 19.8265C18.5774 20.5827 17.4722 20.9999 16.3278 21C12.793 21 9.40305 19.5958 6.90361 17.0964C4.40417 14.5969 3 11.207 3 7.67224C3.00006 6.52779 3.41727 5.4226 4.17351 4.56361C4.92975 3.70462 5.97316 3.15074 7.10838 3.00566C7.27656 2.98531 7.4468 3.02016 7.59345 3.10497C7.74009 3.18978 7.85521 3.31996 7.92144 3.47588L9.89028 8.06983C9.9412 8.18865 9.96195 8.31823 9.95068 8.44702C9.93941 8.5758 9.89646 8.6998 9.82566 8.80798L8.19533 11.2991C8.12112 11.4111 8.07726 11.5405 8.06801 11.6746C8.05877 11.8087 8.08446 11.9429 8.14258 12.0641V12.0641Z" stroke="#574E56" stroke-opacity="0.8" stroke-linecap="round" stroke-linejoin="round"/>
</svg>
