<svg width="34" height="36" viewBox="0 0 34 36" fill="none" xmlns="http://www.w3.org/2000/svg">
<path d="M4.3291 26.0342H14.5336V15.8293H4.3291V26.0342Z" fill="#202020" fill-opacity="0.8"/>
<path d="M4.3291 0V12.6959H7.0612C14.1319 12.6959 17.748 16.3118 17.748 23.383V26.115H30.4439V0H4.3291ZM24.9797 5.3837C24.9797 8.83892 24.9797 17.1957 24.9797 20.6509C24.0158 20.6509 23.8548 20.6509 22.8909 20.6509C22.0068 13.0976 17.2657 8.35676 9.71276 7.47288C9.71276 6.50866 9.71276 6.34795 9.71276 5.3837C13.1679 5.3837 21.5245 5.3837 24.9797 5.3837Z" fill="#202020" fill-opacity="0.8"/>
<path d="M2.29841 33.857H1.06641V29.488H5.50231V33.857H4.27031V30.3394H2.29841V33.857Z" fill="#202020" fill-opacity="0.8"/>
<path d="M2.29841 33.907H2.34841V33.857V30.3894H4.22031V33.857V33.907H4.27031H5.50231H5.55231V33.857V29.488V29.438H5.50231H1.06641H1.01641V29.488V33.857V33.907H1.06641H2.29841Z" stroke="#202020" stroke-opacity="0.8" stroke-width="0.1" stroke-linecap="round"/>
<path d="M7.18165 32.2668C7.18165 31.393 7.71926 31.2138 8.07766 31.2138C8.41436 31.2138 8.95193 31.393 8.95193 32.2668C8.95193 32.8045 8.72796 33.3422 8.07766 33.3422C7.40567 33.3422 7.18165 32.8045 7.18165 32.2668ZM6.10645 30.6984V35.0001H7.24885V33.5214C7.62965 33.9247 8.25754 33.9695 8.39194 33.9695C9.46714 33.9695 10.1392 33.275 10.1392 32.2892C10.1392 31.2362 9.48953 30.5864 8.41433 30.5864C8.14483 30.5864 7.62964 30.6312 7.18165 31.0794H7.15926V30.6984H6.10645Z" fill="#202020" fill-opacity="0.8"/>
<path d="M6.10645 30.6484H6.05645V30.6984V35.0001V35.0501H6.10645H7.24885H7.29885V35.0001V33.6382C7.48354 33.7976 7.70464 33.8907 7.89939 33.9449C8.12581 34.0079 8.32098 34.0195 8.39194 34.0195C8.94052 34.0195 9.39061 33.8421 9.70377 33.5347C10.017 33.2273 10.1892 32.7937 10.1892 32.2892C10.1892 31.7523 10.0233 31.3127 9.71513 31.0074C9.40699 30.7021 8.96204 30.5364 8.41433 30.5364C8.15157 30.5364 7.6554 30.5782 7.20926 30.9839V30.6984V30.6484H7.15926H6.10645ZM7.23165 32.2668C7.23165 31.8406 7.36228 31.5928 7.52785 31.4505C7.69494 31.3069 7.90568 31.2638 8.07766 31.2638C8.23827 31.2638 8.44362 31.3066 8.60818 31.4503C8.7713 31.5926 8.90193 31.8407 8.90193 32.2668C8.90193 32.5299 8.84695 32.7876 8.71733 32.978C8.58956 33.1657 8.38662 33.2922 8.07766 33.2922C7.75721 33.2922 7.54892 33.1651 7.41873 32.9776C7.28665 32.7874 7.23165 32.5299 7.23165 32.2668Z" stroke="#202020" stroke-opacity="0.8" stroke-width="0.1" stroke-linecap="round"/>
<path d="M12.941 33.4772C12.5154 33.8581 12.1122 33.9701 11.6635 33.9701C10.4315 33.9701 10.3867 33.0515 10.3867 32.6706V30.699H11.5291V32.5362C11.5291 33.1635 11.7538 33.3427 12.157 33.3427C12.8738 33.3427 12.9186 32.693 12.9186 32.469V30.699H14.061V33.8581H12.9186V33.4772H12.941Z" fill="#202020" fill-opacity="0.8"/>
<path d="M12.8686 33.6041V33.8581V33.9081H12.9186H14.061H14.111V33.8581V30.699V30.649H14.061H12.9186H12.8686V30.699V32.469C12.8686 32.5791 12.8573 32.7872 12.7624 32.9665C12.7154 33.0553 12.6483 33.1362 12.5523 33.1951C12.4563 33.254 12.3284 33.2927 12.157 33.2927C11.9619 33.2927 11.8225 33.2493 11.7297 33.142C11.635 33.0326 11.5791 32.846 11.5791 32.5362V30.699V30.649H11.5291H10.3867H10.3367V30.699V32.6706C10.3367 32.8617 10.3474 33.1988 10.5202 33.4887C10.6958 33.7836 11.0329 34.0201 11.6635 34.0201C12.0858 34.0201 12.4708 33.9224 12.8686 33.6041Z" stroke="#202020" stroke-opacity="0.8" stroke-width="0.1" stroke-linecap="round"/>
<path d="M15.6969 31.3263H16.3016C16.6152 31.3263 16.9064 31.3711 16.9064 31.64C16.9064 31.9312 16.4809 31.9312 16.2793 31.9312H15.6969V31.3263ZM14.5762 30.699V33.8581H16.8392C17.668 33.8581 18.2288 33.7012 18.2288 33.0515C18.2288 32.5586 17.9593 32.3345 17.3321 32.2225V32.2001C17.7353 32.1553 18.0944 31.8864 18.0944 31.4607C18.0944 30.699 17.1976 30.699 16.8392 30.699H14.5762ZM15.6969 32.5138H16.3913C16.9289 32.5138 17.0409 32.6706 17.0409 32.8947C17.0409 33.0291 16.9737 33.2083 16.4137 33.2083H15.6969V32.5138Z" fill="#202020" fill-opacity="0.8"/>
<path d="M14.5762 30.649H14.5262V30.699V33.8581V33.9081H14.5762H16.8392C17.2546 33.9081 17.6121 33.8691 17.8669 33.7432C17.9955 33.6797 18.0994 33.5934 18.1707 33.4779C18.2421 33.3624 18.2788 33.2212 18.2788 33.0515C18.2788 32.7951 18.2082 32.6006 18.0491 32.457C17.925 32.345 17.7509 32.2676 17.526 32.2122C17.8656 32.1129 18.1444 31.8507 18.1444 31.4607C18.1444 31.2597 18.0849 31.1052 17.987 30.9882C17.8898 30.8721 17.7578 30.7966 17.6179 30.7471C17.3408 30.649 17.0201 30.649 16.8416 30.649L16.8392 30.649H14.5762ZM15.7469 31.3763H16.3016C16.458 31.3763 16.6007 31.3878 16.7031 31.4287C16.7534 31.4489 16.7912 31.4751 16.8164 31.508C16.8411 31.5402 16.8564 31.5824 16.8564 31.64C16.8564 31.6989 16.8356 31.7405 16.8023 31.7721C16.7676 31.8052 16.7168 31.8296 16.6551 31.8467C16.5312 31.8809 16.3813 31.8812 16.2793 31.8812H15.7469V31.3763ZM15.7469 32.5638H16.3913C16.6577 32.5638 16.8068 32.6032 16.8888 32.661C16.9657 32.7153 16.9909 32.7915 16.9909 32.8947C16.9909 32.9519 16.9775 33.012 16.9083 33.0611C16.8344 33.1136 16.6905 33.1583 16.4137 33.1583H15.7469V32.5638Z" stroke="#202020" stroke-opacity="0.8" stroke-width="0.1" stroke-linecap="round"/>
<path d="M20.9616 32.5355C20.9616 33.1628 20.4016 33.3196 20.1328 33.3196C19.9312 33.3196 19.5505 33.2524 19.5505 32.9611C19.5505 32.6027 19.976 32.5355 20.2224 32.5131C20.6704 32.4458 20.6257 32.4683 20.9616 32.3562V32.5355ZM19.6401 31.7064C19.6401 31.236 20.1329 31.2136 20.3345 31.2136C20.4689 31.2136 20.9393 31.2136 20.9393 31.6392C20.9393 31.6616 20.9393 31.7064 20.9393 31.7288C20.9169 32.0425 20.6257 31.9753 19.7745 32.0873C19.0801 32.177 18.3633 32.3562 18.3633 33.0731C18.3633 33.342 18.4752 33.9917 19.6848 33.9917C20.1552 33.9917 20.6481 33.8797 20.9616 33.5661H20.984L21.0736 33.8797H22.2615V33.8349C22.0375 33.7901 22.0375 33.5885 22.0375 33.23L22.0599 31.796C22.0599 31.4376 22.0376 30.6086 20.3121 30.6086C19.9089 30.6086 18.5873 30.6534 18.5201 31.7512H19.6401V31.7064Z" fill="#202020" fill-opacity="0.8"/>
<path d="M20.227 32.5628L20.227 32.5629L20.2299 32.5625C20.3175 32.5493 20.3868 32.5396 20.444 32.5315C20.5312 32.5192 20.5903 32.5108 20.6435 32.5005C20.7212 32.4855 20.788 32.4661 20.9116 32.4254V32.5355C20.9116 32.8314 20.7809 33.0124 20.62 33.1214C20.4565 33.2322 20.2596 33.2696 20.1328 33.2696C20.036 33.2696 19.898 33.2532 19.7863 33.2038C19.6753 33.1548 19.6005 33.0789 19.6005 32.9611C19.6005 32.8077 19.6889 32.7157 19.8153 32.6563C19.944 32.5959 20.1043 32.574 20.227 32.5628ZM19.6848 34.0417C20.1402 34.0417 20.626 33.9383 20.9538 33.6424L21.0256 33.8935L21.0359 33.9297H21.0736H22.2615H22.3115V33.8797V33.8349V33.7939L22.2713 33.7859C22.2227 33.7762 22.1901 33.7588 22.167 33.7362C22.1436 33.7133 22.1261 33.6815 22.1137 33.6367C22.088 33.5441 22.0875 33.4124 22.0875 33.2304L22.1099 31.7968H22.1099V31.796C22.1099 31.6162 22.1052 31.3021 21.8706 31.0349C21.6357 30.7673 21.1814 30.5586 20.3121 30.5586C20.1096 30.5586 19.6705 30.5697 19.2723 30.7216C19.0726 30.7977 18.8808 30.9101 18.7342 31.0765C18.587 31.2437 18.4876 31.4629 18.4702 31.7482L18.4669 31.8012H18.5201H19.6401H19.6901V31.7512V31.7064C19.6901 31.5981 19.7183 31.519 19.7607 31.4603C19.8035 31.4011 19.8633 31.3591 19.9316 31.3295C20.0697 31.2695 20.2341 31.2636 20.3345 31.2636C20.4022 31.2636 20.5444 31.264 20.6689 31.3133C20.7303 31.3376 20.7849 31.3729 20.8241 31.4237C20.8628 31.4739 20.8893 31.5427 20.8893 31.6392V31.6394V31.6395V31.6396V31.6398V31.6399V31.64V31.6402V31.6403V31.6404V31.6406V31.6407V31.6409V31.641V31.6411V31.6413V31.6414V31.6416V31.6417V31.6418V31.642V31.6421V31.6423V31.6424V31.6425V31.6427V31.6428V31.643V31.6431V31.6433V31.6434V31.6436V31.6437V31.6438V31.644V31.6441V31.6443V31.6444V31.6446V31.6447V31.6449V31.645V31.6452V31.6453V31.6455V31.6456V31.6458V31.6459V31.6461V31.6463V31.6464V31.6466V31.6467V31.6469V31.647V31.6472V31.6473V31.6475V31.6477V31.6478V31.648V31.6481V31.6483V31.6485V31.6486V31.6488V31.6489V31.6491V31.6493V31.6494V31.6496V31.6497V31.6499V31.6501V31.6502V31.6504V31.6506V31.6507V31.6509V31.6511V31.6512V31.6514V31.6516V31.6517V31.6519V31.6521V31.6522V31.6524V31.6526V31.6527V31.6529V31.6531V31.6532V31.6534V31.6536V31.6537V31.6539V31.6541V31.6543V31.6544V31.6546V31.6548V31.6549V31.6551V31.6553V31.6555V31.6556V31.6558V31.656V31.6562V31.6563V31.6565V31.6567V31.6569V31.657V31.6572V31.6574V31.6576V31.6578V31.6579V31.6581V31.6583V31.6585V31.6586V31.6588V31.659V31.6592V31.6594V31.6595V31.6597V31.6599V31.6601V31.6603V31.6605V31.6606V31.6608V31.661V31.6612V31.6614V31.6615V31.6617V31.6619V31.6621V31.6623V31.6625V31.6627V31.6628V31.663V31.6632V31.6634V31.6636V31.6638V31.6639V31.6641V31.6643V31.6645V31.6647V31.6649V31.6651V31.6653V31.6654V31.6656V31.6658V31.666V31.6662V31.6664V31.6666V31.6668V31.667V31.6671V31.6673V31.6675V31.6677V31.6679V31.6681V31.6683V31.6685V31.6687V31.6688V31.669V31.6692V31.6694V31.6696V31.6698V31.67V31.6702V31.6704V31.6706V31.6708V31.671V31.6711V31.6713V31.6715V31.6717V31.6719V31.6721V31.6723V31.6725V31.6727V31.6729V31.6731V31.6733V31.6735V31.6737V31.6739V31.6741V31.6742V31.6744V31.6746V31.6748V31.675V31.6752V31.6754V31.6756V31.6758V31.676V31.6762V31.6764V31.6766V31.6768V31.677V31.6772V31.6774V31.6776V31.6778V31.678V31.6782V31.6783V31.6785V31.6787V31.6789V31.6791V31.6793V31.6795V31.6797V31.6799V31.6801V31.6803V31.6805V31.6807V31.6809V31.6811V31.6813V31.6815V31.6817V31.6819V31.6821V31.6823V31.6825V31.6827V31.6829V31.6831V31.6833V31.6835V31.6837V31.6839V31.684V31.6842V31.6844V31.6846V31.6848V31.685V31.6852V31.6854V31.6856V31.6858V31.686V31.6862V31.6864V31.6866V31.6868V31.687V31.6872V31.6874V31.6876V31.6878V31.688V31.6882V31.6884V31.6886V31.6888V31.689V31.6892V31.6894V31.6896V31.6897V31.6899V31.6901V31.6903V31.6905V31.6907V31.6909V31.6911V31.6913V31.6915V31.6917V31.6919V31.6921V31.6923V31.6925V31.6927V31.6929V31.6931V31.6933V31.6935V31.6937V31.6938V31.694V31.6942V31.6944V31.6946V31.6948V31.695V31.6952V31.6954V31.6956V31.6958V31.696V31.6962V31.6964V31.6966V31.6968V31.6969V31.6971V31.6973V31.6975V31.6977V31.6979V31.6981V31.6983V31.6985V31.6987V31.6989V31.6991V31.6992V31.6994V31.6996V31.6998V31.7V31.7002V31.7004V31.7006V31.7008V31.701V31.7011V31.7013V31.7015V31.7017V31.7019V31.7021V31.7023V31.7025V31.7027V31.7028V31.703V31.7032V31.7034V31.7036V31.7038V31.704V31.7041V31.7043V31.7045V31.7047V31.7049V31.7051V31.7053V31.7054V31.7056V31.7058V31.706V31.7062V31.7064V31.7065V31.7067V31.7069V31.7071V31.7073V31.7075V31.7076V31.7078V31.708V31.7082V31.7084V31.7085V31.7087V31.7089V31.7091V31.7093V31.7094V31.7096V31.7098V31.71V31.7102V31.7103V31.7105V31.7107V31.7109V31.711V31.7112V31.7114V31.7116V31.7118V31.7119V31.7121V31.7123V31.7125V31.7126V31.7128V31.713V31.7131V31.7133V31.7135V31.7137V31.7138V31.714V31.7142V31.7144V31.7145V31.7147V31.7149V31.715V31.7152V31.7154V31.7155V31.7157V31.7159V31.716V31.7162V31.7164V31.7165V31.7167V31.7169V31.717V31.7172V31.7174V31.7175V31.7177V31.7179V31.718V31.7182V31.7184V31.7185V31.7187V31.7188V31.719V31.7192V31.7193V31.7195V31.7196V31.7198V31.72V31.7201V31.7203V31.7204V31.7206V31.7208V31.7209V31.7211V31.7212V31.7214V31.7215V31.7217V31.7218V31.722V31.7221V31.7223V31.7225V31.7226V31.7228V31.7229V31.7231V31.7232V31.7234V31.7235V31.7237V31.7238V31.724V31.7241V31.7242V31.7244V31.7245V31.7247V31.7248V31.725V31.7251V31.7253V31.7254V31.7256V31.7257V31.7258V31.726V31.7261V31.7263V31.7264V31.7265V31.7267V31.7268V31.727V31.727C20.8841 31.7962 20.8649 31.8364 20.834 31.8643C20.8005 31.8946 20.7465 31.9169 20.6579 31.9347C20.5698 31.9523 20.4557 31.964 20.3076 31.9784C20.2985 31.9793 20.2893 31.9802 20.28 31.9811C20.1382 31.9949 19.9685 32.0113 19.7679 32.0377L19.7745 32.0873L19.7681 32.0377C19.4206 32.0826 19.0594 32.1506 18.7845 32.3011C18.6462 32.3768 18.5279 32.4743 18.4443 32.6018C18.3604 32.7297 18.3133 32.8851 18.3133 33.0731C18.3133 33.2137 18.3425 33.4579 18.5336 33.667C18.7253 33.8768 19.0714 34.0417 19.6848 34.0417Z" stroke="#202020" stroke-opacity="0.8" stroke-width="0.1" stroke-linecap="round"/>
<path d="M22.2158 31.3263V30.699H25.8453V31.3263H24.5902V33.8581H23.4478V31.3263H22.2158Z" fill="#202020" fill-opacity="0.8"/>
<path d="M22.1658 31.3263V31.3763H22.2158H23.3978V33.8581V33.9081H23.4478H24.5902H24.6402V33.8581V31.3763H25.8453H25.8953V31.3263V30.699V30.649H25.8453H22.2158H22.1658V30.699V31.3263Z" stroke="#202020" stroke-opacity="0.8" stroke-width="0.1" stroke-linecap="round"/>
<path d="M29.6329 32.8722V33.7683H26.2715C26.317 33.4323 26.429 33.1186 26.6082 32.8049C26.7874 32.4912 27.1458 32.1104 27.6834 31.5951C28.109 31.1918 28.3778 30.923 28.4898 30.7661C28.6242 30.5644 28.6914 30.3628 28.6914 30.1836C28.6914 29.9596 28.6242 29.8027 28.5122 29.6907C28.4002 29.5786 28.2434 29.5114 28.0418 29.5114C27.8402 29.5114 27.6834 29.5786 27.5714 29.6907C27.4594 29.8027 27.3922 30.0044 27.3698 30.2956L26.4066 30.206C26.4738 29.6683 26.653 29.2874 26.9442 29.0634C27.2354 28.8393 27.6162 28.7273 28.0642 28.7273C28.557 28.7273 28.9378 28.8617 29.229 29.1306C29.5201 29.3994 29.6553 29.7355 29.6553 30.1164C29.6553 30.3404 29.6104 30.5644 29.5425 30.7661C29.4529 30.9678 29.3409 31.1918 29.1617 31.4158C29.0497 31.5727 28.8258 31.7743 28.5346 32.0656C28.221 32.3344 28.0418 32.536 27.9522 32.6257C27.8626 32.7153 27.7954 32.8049 27.7506 32.8946H29.6329V32.8722Z" fill="#202020" fill-opacity="0.8"/>
<path d="M29.6329 33.8183H29.6829V33.7683V32.9446V32.8946V32.8722H29.6329V32.8446H27.8366C27.8755 32.7842 27.9256 32.723 27.9875 32.6611L27.9875 32.6611C28.0062 32.6423 28.0285 32.6191 28.0547 32.5918C28.1568 32.4854 28.3192 32.3161 28.5671 32.1035L28.5672 32.1036L28.5699 32.1009C28.6425 32.0283 28.7109 31.9613 28.7746 31.899L28.7897 31.8842C28.8476 31.8276 28.9015 31.7749 28.9507 31.7257C29.0566 31.6197 29.143 31.5279 29.2016 31.446C29.3842 31.2174 29.4981 30.9894 29.5882 30.7864L29.5884 30.7865L29.5899 30.7821C29.6592 30.5763 29.7053 30.3469 29.7053 30.1164C29.7053 29.7224 29.5649 29.3727 29.2629 29.0938C28.9605 28.8147 28.5667 28.6773 28.0642 28.6773C27.6079 28.6773 27.2156 28.7914 26.9137 29.0237C26.6078 29.2591 26.425 29.6551 26.357 30.1998L26.3506 30.251L26.4019 30.2558L27.3651 30.3454L27.4157 30.3501L27.4196 30.2995C27.4418 30.0112 27.5078 29.8249 27.6067 29.7261L27.6067 29.726C27.7084 29.6243 27.8521 29.5614 28.0418 29.5614C28.2315 29.5614 28.3751 29.6243 28.4768 29.726L28.4768 29.7261C28.5779 29.8272 28.6414 29.9706 28.6414 30.1836C28.6414 30.3504 28.5787 30.5422 28.4486 30.7377C28.3398 30.8898 28.0754 31.1547 27.649 31.5588L27.6488 31.559C27.112 32.0735 26.7481 32.4592 26.5648 32.7801C26.3828 33.0987 26.2684 33.4184 26.2219 33.7616L26.2143 33.8183H26.2715H29.6329Z" stroke="#202020" stroke-opacity="0.8" stroke-width="0.1" stroke-linecap="round"/>
<path d="M32.165 33.7683V32.7601H30.1035V31.9088L32.277 28.7273H33.0834V31.9088H33.7106V32.7601H33.0834V33.7683H32.165ZM32.165 31.9088V30.206L31.0219 31.9088H32.165Z" fill="#202020" fill-opacity="0.8"/>
<path d="M32.115 33.7683V33.8183H32.165H33.0834H33.1334V33.7683V32.8101H33.7106H33.7606V32.7601V31.9088V31.8588H33.7106H33.1334V28.7273V28.6773H33.0834H32.277H32.2506L32.2357 28.6991L30.0622 31.8806L30.0535 31.8933V31.9088V32.7601V32.8101H30.1035H32.115V33.7683ZM31.1157 31.8588L32.115 30.3702V31.8588H31.1157Z" stroke="#202020" stroke-opacity="0.8" stroke-width="0.1" stroke-linecap="round"/>
</svg>
