<svg width="40" height="43" viewBox="0 0 40 43" fill="none" xmlns="http://www.w3.org/2000/svg">
<path d="M4.00098 31.9019H16.505V19.3975H4.00098V31.9019Z" fill="white"/>
<path d="M4.00098 0.000488281V15.5573H7.34872C16.0127 15.5573 20.4437 19.988 20.4437 28.6525V32.0002H36.0004V0.000488281H4.00098ZM29.3049 6.59734C29.3049 10.8312 29.3049 21.071 29.3049 25.3049C28.1238 25.3049 27.9266 25.3049 26.7455 25.3049C25.6622 16.0495 19.8527 10.2404 10.5978 9.15729C10.5978 7.97579 10.5978 7.77888 10.5978 6.59734C14.8315 6.59734 25.0711 6.59734 29.3049 6.59734Z" fill="white"/>
<path d="M1.50962 41.486H0V36.1326H5.43548V41.486H3.92586V37.1758H1.50962V41.486Z" fill="white"/>
<path d="M7.49571 39.5373C7.49571 38.4666 8.15447 38.247 8.59363 38.247C9.0062 38.247 9.66491 38.4666 9.66491 39.5373C9.66491 40.1962 9.39046 40.855 8.59363 40.855C7.77021 40.855 7.49571 40.1962 7.49571 39.5373ZM6.17822 37.6155V42.8865H7.57806V41.0747C8.04466 41.5688 8.81405 41.6237 8.97873 41.6237C10.2962 41.6237 11.1197 40.7727 11.1197 39.5647C11.1197 38.2744 10.3236 37.4783 9.00616 37.4783C8.67594 37.4783 8.04466 37.5332 7.49571 38.0823H7.46828V37.6155H6.17822Z" fill="white"/>
<path d="M14.5542 41.021C14.0327 41.4876 13.5387 41.6249 12.9889 41.6249C11.4792 41.6249 11.4243 40.4993 11.4243 40.0326V37.6167H12.8242V39.8679C12.8242 40.6366 13.0995 40.8562 13.5935 40.8562C14.4718 40.8562 14.5267 40.06 14.5267 39.7856V37.6167H15.9266V41.4876H14.5267V41.021H14.5542Z" fill="white"/>
<path d="M17.926 38.3854H18.667C19.0513 38.3854 19.4081 38.4403 19.4081 38.7697C19.4081 39.1267 18.8866 39.1267 18.6396 39.1267H17.926V38.3854ZM16.5527 37.6167V41.4876H19.3258C20.3413 41.4876 21.0284 41.2954 21.0284 40.4993C21.0284 39.8954 20.6982 39.6208 19.9296 39.4836V39.4561C20.4237 39.4012 20.8637 39.0718 20.8637 38.5501C20.8637 37.6167 19.7649 37.6167 19.3258 37.6167H16.5527ZM17.926 39.8405H18.7768C19.4356 39.8405 19.5728 40.0326 19.5728 40.3071C19.5728 40.4718 19.4905 40.6915 18.8043 40.6915H17.926V39.8405Z" fill="white"/>
<path d="M24.3802 39.8688C24.3802 40.6375 23.694 40.8296 23.3646 40.8296C23.1176 40.8296 22.651 40.7473 22.651 40.3904C22.651 39.9511 23.1725 39.8688 23.4744 39.8414C24.0233 39.7589 23.9685 39.7865 24.3802 39.6491V39.8688ZM22.7608 38.853C22.7608 38.2765 23.3646 38.2491 23.6116 38.2491C23.7763 38.2491 24.3527 38.2491 24.3527 38.7707C24.3527 38.7981 24.3527 38.853 24.3527 38.8804C24.3253 39.2648 23.9685 39.1824 22.9255 39.3197C22.0746 39.4296 21.1963 39.6491 21.1963 40.5276C21.1963 40.8571 21.3335 41.6532 22.8156 41.6532C23.392 41.6532 23.9959 41.516 24.3802 41.1316H24.4076L24.5174 41.516H25.973V41.4611C25.6985 41.4062 25.6985 41.1591 25.6985 40.7198L25.7259 38.9628C25.7259 38.5235 25.6985 37.5078 23.5842 37.5078C23.0902 37.5078 21.4708 37.5627 21.3884 38.9079H22.7608V38.853Z" fill="white"/>
<path d="M25.9141 38.3854V37.6167H30.3614V38.3854H28.8235V41.4876H27.4237V38.3854H25.9141Z" fill="white"/>
<path d="M35.007 40.2805V41.3786H30.8882C30.9439 40.9668 31.0812 40.5825 31.3008 40.1981C31.5203 39.8138 31.9595 39.3471 32.6182 38.7157C33.1397 38.2215 33.4691 37.8921 33.6063 37.6999C33.771 37.4528 33.8533 37.2058 33.8533 36.9861C33.8533 36.7116 33.771 36.5194 33.6338 36.3822C33.4965 36.2448 33.3044 36.1625 33.0574 36.1625C32.8104 36.1625 32.6182 36.2448 32.481 36.3822C32.3438 36.5194 32.2614 36.7665 32.2339 37.1234L31.0537 37.0135C31.1361 36.3547 31.3556 35.888 31.7125 35.6135C32.0693 35.3389 32.5359 35.2017 33.0848 35.2017C33.6887 35.2017 34.1553 35.3663 34.5121 35.6958C34.8689 36.0253 35.0344 36.4371 35.0344 36.9037C35.0344 37.1783 34.9795 37.4528 34.8963 37.6999C34.7866 37.947 34.6493 38.2215 34.4297 38.496C34.2925 38.6883 34.018 38.9353 33.6612 39.2922C33.2769 39.6216 33.0574 39.8687 32.9476 39.9785C32.8378 40.0883 32.7554 40.1981 32.7006 40.308H35.007V40.2805Z" fill="white"/>
<path d="M38.1056 41.3781V40.1427H35.5796V39.0996L38.2429 35.2012H39.231V39.0996H39.9995V40.1427H39.231V41.3781H38.1056ZM38.1056 39.0996V37.013L36.7049 39.0996H38.1056Z" fill="white"/>
</svg>
