<svg width="460" height="240" viewBox="0 0 460 240" fill="none" xmlns="http://www.w3.org/2000/svg">
<rect width="460" height="240" rx="25" fill="#EAFCFF"/>
<path d="M288.802 137.487L268.085 159.825V123.411L288.802 101.073V137.487Z" fill="#FD923D" stroke="#574E56" stroke-width="1.5" stroke-miterlimit="10" stroke-linejoin="round"/>
<path d="M278.811 101.073H288.756L268.07 122.799H227.678L234.41 115.761L266.448 115.608L278.811 101.073Z" fill="#EAFCFF" stroke="#574E56" stroke-width="1.5" stroke-miterlimit="10" stroke-linejoin="round"/>
<path d="M288.526 101.625L268.085 122.801L285.375 131.583L304.744 112.152L288.526 101.625Z" fill="#D5D4D6" stroke="#574E56" stroke-width="1.5" stroke-miterlimit="10"/>
<path d="M221.701 115.364L266.377 115.456L289.695 88.0079" stroke="#574E56" stroke-width="1.5" stroke-miterlimit="10" stroke-linejoin="round"/>
<path d="M267.845 69.7695C231.278 63.68 214.785 104.195 214.785 104.195" stroke="#5ED2D1" stroke-width="1.5" stroke-miterlimit="10"/>
<path d="M264.157 73.0133L270.216 69.8615L264.892 65.9141L264.157 73.0133Z" fill="#5ED2D1"/>
<path d="M225.281 106.458L236.145 108.508" stroke="#574E56" stroke-width="1.5" stroke-miterlimit="10" stroke-linejoin="round"/>
<path d="M230.713 93.9117L239.618 98.6547" stroke="#574E56" stroke-width="1.5" stroke-miterlimit="10" stroke-linejoin="round"/>
<path d="M242.753 82.3136L246.823 90.086" stroke="#574E56" stroke-width="1.5" stroke-miterlimit="10" stroke-linejoin="round"/>
<path d="M257.54 76.9602L257.662 85.3141" stroke="#574E56" stroke-width="1.5" stroke-miterlimit="10" stroke-linejoin="round"/>
<path d="M273.71 78.1549L270.222 85.3154" stroke="#574E56" stroke-width="1.5" stroke-miterlimit="10" stroke-linejoin="round"/>
<path d="M286.407 159.276C293.403 159.276 299.075 153.604 299.075 146.608C299.075 139.611 293.403 133.939 286.407 133.939C279.41 133.939 273.738 139.611 273.738 146.608C273.738 153.604 279.41 159.276 286.407 159.276Z" fill="#FFFEFF" stroke="#574E56" stroke-width="1.5" stroke-miterlimit="10"/>
<path d="M286.411 148.533C287.476 148.533 288.339 147.67 288.339 146.605C288.339 145.54 287.476 144.677 286.411 144.677C285.347 144.677 284.483 145.54 284.483 146.605C284.483 147.67 285.347 148.533 286.411 148.533Z" fill="#574E56"/>
<path d="M286.426 146.607L284.866 136.294" stroke="#574E56" stroke-width="1.5" stroke-miterlimit="10"/>
<path d="M286.418 146.607L293.762 150.432" stroke="#574E56" stroke-width="1.5" stroke-miterlimit="10"/>
<path d="M127.332 104H133.391" stroke="#978B96" stroke-width="1.5" stroke-miterlimit="10"/>
<path d="M137.518 104H172.585" stroke="#978B96" stroke-width="1.5" stroke-miterlimit="10"/>
<path d="M118.408 91H124.498" stroke="#978B96" stroke-width="1.5" stroke-miterlimit="10"/>
<path d="M128.609 91H163.677" stroke="#978B96" stroke-width="1.5" stroke-miterlimit="10"/>
<path d="M106 129.451H109.335" stroke="#978B96" stroke-width="1.5" stroke-miterlimit="10"/>
<path d="M112.688 129.451H165.595" stroke="#978B96" stroke-width="1.5" stroke-miterlimit="10"/>
<path d="M126.535 157.61H133.39" stroke="#978B96" stroke-width="1.5" stroke-miterlimit="10"/>
<path d="M141.811 157.61H172.594" stroke="#978B96" stroke-width="1.5" stroke-miterlimit="10"/>
<path d="M115.609 169.61H122.953" stroke="#978B96" stroke-width="1.5" stroke-miterlimit="10"/>
<path d="M127.947 169.61H165.586" stroke="#978B96" stroke-width="1.5" stroke-miterlimit="10"/>
<path d="M268.04 122.799H227.678V159.764H268.04V122.799Z" fill="#FDAD67" stroke="#574E56" stroke-width="1.5" stroke-miterlimit="10"/>
<path d="M227.693 122.799L217.748 139.262H263.373L267.565 122.799H227.693Z" fill="#D5D4D6" stroke="#574E56" stroke-width="1.5" stroke-miterlimit="10"/>
<path d="M260.871 110.814C261.511 111.07 262.15 111.326 262.918 111.326C264.58 111.326 266.243 110.43 267.01 108.768C267.138 108.512 267.266 108.128 267.394 107.745L271.998 87.6654L273.789 79.9919L274.94 75.2598C275.067 74.7483 274.684 74.3646 274.172 74.3646C273.916 74.3646 273.661 74.4925 273.533 74.7483L271.359 79.3524L268.033 86.1307L258.825 104.931C257.674 106.977 258.569 109.663 260.871 110.814ZM263.046 104.291C264.324 104.291 265.348 105.315 265.348 106.594C265.348 107.872 264.324 108.896 263.046 108.896C261.767 108.896 260.743 107.872 260.743 106.594C260.871 105.315 261.767 104.291 263.046 104.291Z" fill="#F8981D"/>
<path opacity="0.3" d="M274.172 74.2173C274.044 74.2173 273.916 74.2173 273.916 74.3452C273.66 75.3684 273.404 76.7752 273.02 78.4378C272.893 78.9494 272.765 79.5888 272.637 80.2283C272.509 80.612 272.509 80.8678 272.381 81.2514C271.102 87.5182 269.312 95.7033 268.161 100.947C267.905 101.842 267.777 102.737 267.649 103.377C267.521 104.272 267.265 105.04 267.137 105.423C265.986 110.411 263.94 109.644 261.894 110.027C260.999 110.155 259.72 109.26 258.569 108.109C258.952 109.26 259.72 110.283 260.871 110.923C261.51 111.306 262.15 111.434 262.917 111.434C264.58 111.434 266.242 110.539 267.01 108.876C267.137 108.62 267.265 108.237 267.393 107.853L271.997 87.774L273.404 81.763L273.788 80.1004L274.939 75.3684C274.939 74.601 274.555 74.2173 274.172 74.2173Z" fill="#F8981D"/>
<path d="M260.871 110.814C261.511 111.07 262.15 111.326 262.918 111.326C264.58 111.326 266.243 110.43 267.01 108.768C267.138 108.512 267.266 108.128 267.394 107.745L271.998 87.6654L273.789 79.9919L274.94 75.2598C275.067 74.7483 274.684 74.3646 274.172 74.3646C273.916 74.3646 273.661 74.4925 273.533 74.7483L271.359 79.3524L268.033 86.1307L258.825 104.931C257.674 106.977 258.569 109.663 260.871 110.814ZM263.046 104.291C264.324 104.291 265.348 105.315 265.348 106.594C265.348 107.872 264.324 108.896 263.046 108.896C261.767 108.896 260.743 107.872 260.743 106.594C260.871 105.315 261.767 104.291 263.046 104.291Z" stroke="#574E56" stroke-width="0.75" stroke-miterlimit="10"/>
<path d="M206.397 175.015H237.836C216.29 166.22 200.9 145.114 200.461 120.49L192.326 126.646C191.886 126.866 191.446 127.086 191.007 127.086C190.567 127.086 190.127 126.866 189.688 126.646L182.652 121.37C183.312 142.256 192.326 161.164 206.397 175.015Z" fill="#D5E4F5"/>
<path d="M201.342 110.156C205.959 81.5745 230.583 59.8086 260.484 59.8086C270.817 59.8086 280.491 62.4469 289.065 67.0639L287.746 56.7306C287.746 55.8512 288.186 54.9718 289.065 54.532L296.76 51.2342C285.987 45.5179 273.455 42.22 260.484 42.22C220.47 42.22 187.271 72.7802 183.314 111.915L191.229 117.851L201.342 110.156Z" fill="#F8981D"/>
<path d="M304.887 56.0709L296.092 59.8085L297.631 72.5602C311.482 83.553 320.277 100.482 320.277 119.39C320.277 129.503 317.638 139.177 313.241 147.531L322.695 146.432C323.574 146.432 324.454 146.872 324.894 147.751L328.631 156.326C334.567 145.333 337.865 132.801 337.865 119.61C337.865 93.4466 324.674 70.1417 304.887 56.0709Z" fill="#D5E4F5"/>
<path d="M319.399 154.787L307.747 156.107C298.513 168.199 284.662 176.114 268.832 178.752C265.095 179.411 257.4 179.192 257.4 179.192H254.761H211.669H169.896L175.613 186.667C176.272 187.326 176.272 188.426 175.613 189.085L169.896 196.78H256.74H263.776C267.513 196.56 271.031 196.34 274.768 195.681C294.995 191.943 312.584 180.511 324.016 164.461L319.399 154.787Z" fill="#71CBCE"/>
<path opacity="0.3" d="M296.768 51.0142L289.073 54.312C288.194 54.7517 287.754 55.6312 287.754 56.5106V56.9503C285.336 55.851 282.917 54.9716 280.499 54.0921C262.031 48.156 242.684 51.8936 225.315 59.8084C214.762 64.6453 203.109 71.9006 192.116 82.8935C205.088 58.4893 230.811 42 260.272 42C273.464 42 285.776 45.2979 296.768 51.0142Z" fill="#F8981D"/>
<path opacity="0.3" d="M337.867 119.391C337.867 132.802 334.57 145.334 328.634 156.107L324.896 147.532C324.456 146.653 323.577 146.213 322.697 146.213H322.477C325.995 137.858 327.974 128.844 327.974 119.171C327.974 95.6459 315.442 73.6602 296.095 61.3482L295.875 59.5893L304.669 55.8518C324.676 70.1425 337.867 93.4474 337.867 119.391Z" fill="#D5E4F5"/>
<path opacity="0.3" d="M323.373 164.461C311.94 180.511 294.352 192.163 274.125 195.901C270.607 196.56 266.869 197 263.132 197H256.096H172.771C192.778 196.341 274.345 193.262 291.713 180.291C291.933 180.071 311.94 165.341 318.096 155.007L319.195 154.787L323.373 164.461Z" fill="#71CBCE"/>
<path d="M206.397 175.015H237.836C216.29 166.22 200.9 145.114 200.461 120.49L192.326 126.646C191.886 126.866 191.446 127.086 191.007 127.086C190.567 127.086 190.127 126.866 189.688 126.646L182.652 121.37C183.312 142.256 192.326 161.164 206.397 175.015Z" stroke="#574E56" stroke-width="1.6" stroke-miterlimit="10"/>
<path d="M201.342 110.155C205.959 81.5732 230.583 59.8074 260.484 59.8074C270.817 59.8074 280.491 62.4456 289.065 67.0626L287.746 56.7294C287.746 55.85 288.186 54.9705 289.065 54.5308L296.76 51.233C285.987 45.5167 273.455 42.2188 260.484 42.2188C220.47 42.2188 187.271 72.779 183.314 111.914L191.229 117.85L201.342 110.155Z" stroke="#574E56" stroke-width="1.5" stroke-miterlimit="10"/>
<path d="M304.887 56.0709L296.092 59.8085L297.631 72.5601C311.482 83.553 320.277 100.482 320.277 119.39C320.277 129.503 317.638 139.177 313.241 147.531L322.695 146.432C323.574 146.432 324.454 146.872 324.894 147.751L328.631 156.326C334.567 145.333 337.865 132.801 337.865 119.61C337.865 93.4466 324.674 70.1417 304.887 56.0709Z" stroke="#574E56" stroke-width="1.5" stroke-miterlimit="10"/>
<path d="M319.399 154.787L307.747 156.107C298.513 168.199 284.662 176.114 268.832 178.752C265.095 179.411 257.4 179.192 257.4 179.192H254.761H211.669H169.896L175.613 186.667C176.272 187.326 176.272 188.426 175.613 189.085L169.896 196.78H256.74H263.776C267.513 196.56 271.031 196.34 274.768 195.681C294.995 191.943 312.584 180.511 324.016 164.461L319.399 154.787Z" stroke="#574E56" stroke-width="1.5" stroke-miterlimit="10"/>
<path d="M202.658 75.1977C203.977 72.1197 205.956 69.4814 208.154 67.063C210.353 64.6445 212.771 62.2262 215.41 60.2475C218.048 58.2687 220.906 56.5098 223.984 54.9708C226.842 53.4318 230.14 52.3325 233.218 51.673C230.36 53.212 227.502 54.751 224.644 56.5099C221.786 58.2687 219.147 60.0276 216.729 62.0063C214.091 63.985 211.672 65.9637 209.254 68.3821C207.055 70.5807 204.637 72.7793 202.658 75.1977Z" fill="white"/>
<path d="M281.193 190.816C281.354 190.978 281.354 191.3 281.516 191.462C282.322 191.3 283.129 190.978 283.774 190.655C289.098 188.719 294.098 185.816 298.293 181.944C295.873 183.396 293.453 184.848 291.033 186.138C288.614 187.429 286.033 188.558 283.451 189.526C282.645 189.849 281.838 190.01 281.032 190.332C281.193 190.494 281.193 190.655 281.193 190.816Z" fill="white"/>
<path d="M278.448 191.462C278.448 191.301 278.287 191.301 278.287 191.139C277.319 191.462 276.512 191.623 275.545 191.946C272.802 192.591 270.06 193.075 267.317 193.398C270.06 193.559 272.963 193.398 275.706 192.914C276.674 192.752 277.803 192.591 278.771 192.269C278.61 191.946 278.448 191.785 278.448 191.462Z" fill="white"/>
</svg>
