<svg width="340" height="369" viewBox="0 0 340 369" fill="none" xmlns="http://www.w3.org/2000/svg">
<path d="M106.479 278.831H232.34C237.204 278.831 241.148 274.888 241.148 270.024V94.4093C241.148 89.5451 237.204 85.6018 232.34 85.6018H106.479C101.615 85.6018 97.6716 89.5451 97.6716 94.4093V270.024C97.6716 274.888 101.615 278.831 106.479 278.831Z" fill="#E2EFFD"/>
<path d="M232.339 279.438H106.478C101.288 279.438 97.0642 275.215 97.0642 270.024V94.4088C97.0642 89.2173 101.288 84.9939 106.478 84.9939H232.339C237.53 84.9939 241.755 89.2173 241.755 94.4088V270.024C241.755 275.215 237.53 279.438 232.339 279.438ZM106.478 86.2077C101.958 86.2077 98.2794 89.8865 98.2794 94.4088V270.024C98.2794 274.545 101.958 278.223 106.478 278.223H232.339C236.862 278.223 240.54 274.545 240.54 270.024V94.4088C240.54 89.8865 236.862 86.2077 232.339 86.2077H106.478Z" fill="#574E56"/>
<path d="M157.634 158.056H207.865C209.225 158.056 210.327 156.954 210.327 155.594V155.544C210.327 154.184 209.225 153.082 207.865 153.082H157.634C156.274 153.082 155.172 154.184 155.172 155.544V155.594C155.172 156.954 156.274 158.056 157.634 158.056Z" fill="#B8D2F9"/>
<path d="M207.871 158.434H157.639C156.082 158.434 154.814 157.166 154.814 155.608C154.814 154.001 156.082 152.733 157.639 152.733H207.871C209.427 152.733 210.695 154.001 210.695 155.559C210.695 157.166 209.427 158.434 207.871 158.434ZM157.639 153.458C156.481 153.458 155.54 154.4 155.54 155.559C155.54 156.767 156.481 157.709 157.639 157.709H207.871C209.028 157.709 209.97 156.767 209.97 155.608C209.97 154.4 209.028 153.458 207.871 153.458H157.639Z" fill="#574E56"/>
<path d="M157.632 166.476H207.863C209.223 166.476 210.325 165.374 210.325 164.014V163.964C210.325 162.604 209.223 161.502 207.863 161.502H157.632C156.272 161.502 155.17 162.604 155.17 163.964V164.014C155.17 165.374 156.272 166.476 157.632 166.476Z" fill="#B8D2F9"/>
<path d="M207.871 166.851H157.639C156.082 166.851 154.814 165.583 154.814 164.027C154.814 162.419 156.082 161.152 157.639 161.152H207.871C209.427 161.152 210.695 162.419 210.695 163.977C210.695 165.583 209.427 166.851 207.871 166.851ZM157.639 161.877C156.481 161.877 155.54 162.819 155.54 163.977C155.54 165.184 156.481 166.126 157.639 166.126H207.871C209.028 166.126 209.97 165.184 209.97 164.027C209.97 162.819 209.028 161.877 207.871 161.877H157.639Z" fill="#574E56"/>
<path d="M157.634 174.888H207.865C209.225 174.888 210.327 173.786 210.327 172.426V172.376C210.327 171.016 209.225 169.914 207.865 169.914H157.634C156.274 169.914 155.172 171.016 155.172 172.376V172.426C155.172 173.786 156.274 174.888 157.634 174.888Z" fill="#B8D2F9"/>
<path d="M207.871 175.266H157.639C156.082 175.266 154.814 173.999 154.814 172.441C154.814 170.834 156.082 169.567 157.639 169.567H207.871C209.427 169.567 210.695 170.834 210.695 172.391C210.695 173.999 209.427 175.266 207.871 175.266ZM157.639 170.292C156.481 170.292 155.54 171.234 155.54 172.391C155.54 173.599 156.481 174.541 157.639 174.541H207.871C209.028 174.541 209.97 173.599 209.97 172.441C209.97 171.234 209.028 170.292 207.871 170.292H157.639Z" fill="#574E56"/>
<path d="M157.634 200.134H207.865C209.225 200.134 210.327 199.032 210.327 197.672V197.622C210.327 196.263 209.225 195.16 207.865 195.16H157.634C156.274 195.16 155.172 196.263 155.172 197.622V197.672C155.172 199.032 156.274 200.134 157.634 200.134Z" fill="#B8D2F9"/>
<path d="M207.871 200.508H157.639C156.082 200.508 154.814 199.24 154.814 197.684C154.814 196.076 156.082 194.809 157.639 194.809H207.871C209.427 194.809 210.695 196.076 210.695 197.633C210.695 199.24 209.427 200.508 207.871 200.508ZM157.639 195.534C156.481 195.534 155.54 196.476 155.54 197.633C155.54 198.841 156.481 199.783 157.639 199.783H207.871C209.028 199.783 209.97 198.841 209.97 197.684C209.97 196.476 209.028 195.534 207.871 195.534H157.639Z" fill="#574E56"/>
<path d="M157.634 208.548H207.865C209.225 208.548 210.327 207.445 210.327 206.085V206.036C210.327 204.676 209.225 203.573 207.865 203.573H157.634C156.274 203.573 155.172 204.676 155.172 206.036V206.085C155.172 207.445 156.274 208.548 157.634 208.548Z" fill="#B8D2F9"/>
<path d="M207.871 208.926H157.639C156.082 208.926 154.814 207.659 154.814 206.101C154.814 204.495 156.082 203.227 157.639 203.227H207.871C209.427 203.227 210.695 204.495 210.695 206.051C210.695 207.659 209.427 208.926 207.871 208.926ZM157.639 203.952C156.481 203.952 155.54 204.894 155.54 206.051C155.54 207.26 156.481 208.201 157.639 208.201H207.871C209.028 208.201 209.97 207.26 209.97 206.101C209.97 204.894 209.028 203.952 207.871 203.952H157.639Z" fill="#574E56"/>
<path d="M157.632 216.962H207.863C209.223 216.962 210.325 215.859 210.325 214.499V214.45C210.325 213.09 209.223 211.987 207.863 211.987H157.632C156.272 211.987 155.17 213.09 155.17 214.45V214.499C155.17 215.859 156.272 216.962 157.632 216.962Z" fill="#B8D2F9"/>
<path d="M207.871 217.342H157.639C156.082 217.342 154.814 216.075 154.814 214.518C154.814 212.911 156.082 211.643 157.639 211.643H207.871C209.427 211.643 210.695 212.911 210.695 214.469C210.695 216.075 209.427 217.342 207.871 217.342ZM157.639 212.368C156.481 212.368 155.54 213.31 155.54 214.469C155.54 215.675 156.481 216.617 157.639 216.617H207.871C209.028 216.617 209.97 215.675 209.97 214.518C209.97 213.31 209.028 212.368 207.871 212.368H157.639Z" fill="#574E56"/>
<path d="M157.632 241.721H207.863C209.223 241.721 210.325 240.619 210.325 239.259V239.209C210.325 237.849 209.223 236.747 207.863 236.747H157.632C156.272 236.747 155.17 237.849 155.17 239.209V239.259C155.17 240.619 156.272 241.721 157.632 241.721Z" fill="#B8D2F9"/>
<path d="M207.871 242.1H157.639C156.082 242.1 154.814 240.832 154.814 239.274C154.814 237.668 156.082 236.401 157.639 236.401H207.871C209.427 236.401 210.695 237.668 210.695 239.225C210.695 240.832 209.427 242.1 207.871 242.1ZM157.639 237.126C156.481 237.126 155.54 238.068 155.54 239.225C155.54 240.433 156.481 241.375 157.639 241.375H207.871C209.028 241.375 209.97 240.433 209.97 239.274C209.97 238.068 209.028 237.126 207.871 237.126H157.639Z" fill="#574E56"/>
<path d="M157.63 250.139H207.861C209.221 250.139 210.323 249.036 210.323 247.677V247.627C210.323 246.267 209.221 245.165 207.861 245.165H157.63C156.27 245.165 155.168 246.267 155.168 247.627V247.677C155.168 249.036 156.27 250.139 157.63 250.139Z" fill="#B8D2F9"/>
<path d="M207.871 250.518H157.639C156.082 250.518 154.814 249.25 154.814 247.692C154.814 246.085 156.082 244.817 157.639 244.817H207.871C209.427 244.817 210.695 246.085 210.695 247.643C210.695 249.25 209.427 250.518 207.871 250.518ZM157.639 245.543C156.481 245.543 155.54 246.484 155.54 247.643C155.54 248.851 156.481 249.793 157.639 249.793H207.871C209.028 249.793 209.97 248.851 209.97 247.692C209.97 246.484 209.028 245.543 207.871 245.543H157.639Z" fill="#574E56"/>
<path d="M157.634 258.56H207.865C209.225 258.56 210.327 257.457 210.327 256.097V256.047C210.327 254.688 209.225 253.585 207.865 253.585H157.634C156.274 253.585 155.172 254.688 155.172 256.047V256.097C155.172 257.457 156.274 258.56 157.634 258.56Z" fill="#B8D2F9"/>
<path d="M207.871 258.93H157.639C156.082 258.93 154.814 257.662 154.814 256.106C154.814 254.498 156.082 253.231 157.639 253.231H207.871C209.427 253.231 210.695 254.498 210.695 256.056C210.695 257.662 209.427 258.93 207.871 258.93ZM157.639 253.956C156.481 253.956 155.54 254.898 155.54 256.056C155.54 257.263 156.481 258.205 157.639 258.205H207.871C209.028 258.205 209.97 257.263 209.97 256.106C209.97 254.898 209.028 253.956 207.871 253.956H157.639Z" fill="#574E56"/>
<path d="M120.343 176.174H140.103C142.856 176.174 145.087 173.943 145.087 171.191V156.774C145.087 154.022 142.856 151.791 140.103 151.791H120.343C117.591 151.791 115.36 154.022 115.36 156.774V171.191C115.36 173.943 117.591 176.174 120.343 176.174Z" fill="#5ED2D1"/>
<path d="M140.111 176.555H120.351C117.403 176.555 115.006 174.157 115.006 171.21V156.792C115.006 153.844 117.403 151.447 120.351 151.447H140.111C143.06 151.447 145.458 153.844 145.458 156.792V171.21C145.458 174.157 143.06 176.555 140.111 176.555ZM120.351 152.172C117.803 152.172 115.731 154.244 115.731 156.792V171.21C115.731 173.758 117.803 175.83 120.351 175.83H140.111C142.659 175.83 144.732 173.758 144.732 171.21V156.792C144.732 154.244 142.659 152.172 140.111 152.172H120.351Z" fill="#574E56"/>
<path d="M157.634 117.656H207.865C209.225 117.656 210.327 116.553 210.327 115.193V115.144C210.327 113.784 209.225 112.681 207.865 112.681H157.634C156.274 112.681 155.172 113.784 155.172 115.144V115.193C155.172 116.553 156.274 117.656 157.634 117.656Z" fill="#B8D2F9"/>
<path d="M207.871 118.032H157.639C156.082 118.032 154.814 116.765 154.814 115.208C154.814 113.601 156.082 112.333 157.639 112.333H207.871C209.427 112.333 210.695 113.601 210.695 115.159C210.695 116.765 209.427 118.032 207.871 118.032ZM157.639 113.058C156.481 113.058 155.54 114 155.54 115.159C155.54 116.365 156.481 117.307 157.639 117.307H207.871C209.028 117.307 209.97 116.365 209.97 115.208C209.97 114 209.028 113.058 207.871 113.058H157.639Z" fill="#574E56"/>
<path d="M157.634 126.079H207.865C209.225 126.079 210.327 124.977 210.327 123.617V123.567C210.327 122.207 209.225 121.105 207.865 121.105H157.634C156.274 121.105 155.172 122.207 155.172 123.567V123.617C155.172 124.977 156.274 126.079 157.634 126.079Z" fill="#B8D2F9"/>
<path d="M207.871 126.45H157.639C156.082 126.45 154.814 125.182 154.814 123.624C154.814 122.018 156.082 120.751 157.639 120.751H207.871C209.427 120.751 210.695 122.018 210.695 123.575C210.695 125.182 209.427 126.45 207.871 126.45ZM157.639 121.476C156.481 121.476 155.54 122.418 155.54 123.575C155.54 124.783 156.481 125.725 157.639 125.725H207.871C209.028 125.725 209.97 124.783 209.97 123.624C209.97 122.418 209.028 121.476 207.871 121.476H157.639Z" fill="#574E56"/>
<path d="M157.632 134.489H207.863C209.223 134.489 210.325 133.386 210.325 132.026V131.977C210.325 130.617 209.223 129.514 207.863 129.514H157.632C156.272 129.514 155.17 130.617 155.17 131.977V132.026C155.17 133.386 156.272 134.489 157.632 134.489Z" fill="#B8D2F9"/>
<path d="M207.871 134.867H157.639C156.082 134.867 154.814 133.599 154.814 132.041C154.814 130.434 156.082 129.166 157.639 129.166H207.871C209.427 129.166 210.695 130.434 210.695 131.992C210.695 133.599 209.427 134.867 207.871 134.867ZM157.639 129.891C156.481 129.891 155.54 130.833 155.54 131.992C155.54 133.2 156.481 134.142 157.639 134.142H207.871C209.028 134.142 209.97 133.2 209.97 132.041C209.97 130.833 209.028 129.891 207.871 129.891H157.639Z" fill="#574E56"/>
<path d="M120.341 135.774H140.101C142.854 135.774 145.085 133.543 145.085 130.791V116.373C145.085 113.621 142.854 111.39 140.101 111.39H120.341C117.589 111.39 115.358 113.621 115.358 116.373V130.791C115.358 133.543 117.589 135.774 120.341 135.774Z" fill="#5ED2D1"/>
<path d="M140.111 136.155H120.351C117.403 136.155 115.006 133.757 115.006 130.81V116.392C115.006 113.445 117.403 111.047 120.351 111.047H140.111C143.06 111.047 145.458 113.445 145.458 116.392V130.81C145.458 133.757 143.06 136.155 140.111 136.155ZM120.351 111.772C117.803 111.772 115.731 113.844 115.731 116.392V130.81C115.731 133.358 117.803 135.43 120.351 135.43H140.111C142.659 135.43 144.732 133.358 144.732 130.81V116.392C144.732 113.844 142.659 111.772 140.111 111.772H120.351Z" fill="#574E56"/>
<path d="M120.347 218.93H140.107C142.859 218.93 145.09 216.699 145.09 213.947V199.529C145.09 196.777 142.859 194.546 140.107 194.546H120.347C117.595 194.546 115.364 196.777 115.364 199.529V213.947C115.364 216.699 117.595 218.93 120.347 218.93Z" fill="#5ED2D1"/>
<path d="M140.111 219.309H120.351C117.403 219.309 115.006 216.912 115.006 213.964V199.546C115.006 196.598 117.403 194.2 120.351 194.2H140.111C143.06 194.2 145.458 196.598 145.458 199.546V213.964C145.458 216.912 143.06 219.309 140.111 219.309ZM120.351 194.925C117.803 194.925 115.731 196.998 115.731 199.546V213.964C115.731 216.512 117.803 218.584 120.351 218.584H140.111C142.659 218.584 144.732 216.512 144.732 213.964V199.546C144.732 196.998 142.659 194.925 140.111 194.925H120.351Z" fill="#574E56"/>
<path d="M120.345 260.07H140.105C142.857 260.07 145.089 257.839 145.089 255.087V240.67C145.089 237.918 142.857 235.687 140.105 235.687H120.345C117.593 235.687 115.362 237.918 115.362 240.67V255.087C115.362 257.839 117.593 260.07 120.345 260.07Z" fill="#5ED2D1"/>
<path d="M140.111 260.448H120.351C117.403 260.448 115.006 258.05 115.006 255.103V240.685C115.006 237.738 117.403 235.34 120.351 235.34H140.111C143.06 235.34 145.458 237.738 145.458 240.685V255.103C145.458 258.05 143.06 260.448 140.111 260.448ZM120.351 236.065C117.803 236.065 115.731 238.137 115.731 240.685V255.103C115.731 257.651 117.803 259.723 120.351 259.723H140.111C142.659 259.723 144.732 257.651 144.732 255.103V240.685C144.732 238.137 142.659 236.065 140.111 236.065H120.351Z" fill="#574E56"/>
<path d="M128.844 125.414L128.843 125.416C128.629 125.903 128.523 126.457 128.523 127.073V127.373H128.823H131.002H131.302V127.073C131.302 126.526 131.432 126.087 131.674 125.741C131.938 125.361 132.359 124.906 132.947 124.377L132.948 124.375C133.414 123.951 133.792 123.581 134.078 123.266C134.38 122.931 134.634 122.521 134.839 122.038C135.056 121.537 135.158 120.969 135.158 120.341C135.158 119.046 134.652 118.007 133.642 117.258C132.645 116.518 131.32 116.164 129.695 116.164C128.413 116.164 127.27 116.381 126.274 116.822C125.279 117.262 124.458 117.895 123.818 118.72L123.627 118.967L123.881 119.148L125.47 120.28L125.704 120.447L125.881 120.221C126.713 119.159 127.919 118.616 129.543 118.616C130.475 118.616 131.164 118.822 131.644 119.195L131.645 119.196C132.123 119.567 132.358 120.048 132.358 120.668C132.358 121.134 132.235 121.516 132.004 121.829C131.745 122.174 131.335 122.599 130.762 123.1L130.758 123.103C130.29 123.527 129.909 123.896 129.619 124.21C129.306 124.544 129.052 124.949 128.844 125.414ZM131.153 129.422C130.83 129.09 130.415 128.929 129.935 128.929C129.456 128.929 129.04 129.089 128.711 129.419C128.382 129.747 128.219 130.154 128.219 130.623C128.219 131.092 128.382 131.499 128.711 131.826C129.04 132.156 129.456 132.317 129.935 132.317C130.403 132.317 130.812 132.154 131.139 131.826C131.463 131.5 131.63 131.094 131.63 130.623C131.63 130.156 131.472 129.75 131.153 129.422Z" fill="white" stroke="#574E56" stroke-width="0.6"/>
<path d="M128.844 207.927L128.843 207.929C128.629 208.416 128.523 208.97 128.523 209.585V209.885H128.823H131.002H131.302V209.585C131.302 209.039 131.432 208.6 131.674 208.254C131.938 207.873 132.359 207.419 132.947 206.889L132.948 206.888C133.414 206.464 133.792 206.094 134.078 205.778C134.38 205.444 134.634 205.033 134.839 204.551C135.056 204.049 135.158 203.482 135.158 202.854C135.158 201.559 134.652 200.519 133.642 199.77C132.645 199.03 131.32 198.677 129.695 198.677C128.413 198.677 127.27 198.893 126.274 199.334C125.279 199.774 124.458 200.408 123.818 201.233L123.627 201.48L123.881 201.661L125.47 202.793L125.704 202.959L125.881 202.734C126.713 201.672 127.919 201.129 129.543 201.129C130.475 201.129 131.164 201.334 131.644 201.708L131.645 201.709C132.123 202.079 132.358 202.561 132.358 203.181C132.358 203.647 132.235 204.029 132.004 204.342C131.745 204.687 131.335 205.112 130.762 205.612L130.758 205.616C130.29 206.04 129.909 206.409 129.619 206.723C129.306 207.056 129.052 207.462 128.844 207.927ZM131.153 211.935C130.83 211.602 130.415 211.441 129.935 211.441C129.456 211.441 129.04 211.602 128.711 211.932C128.382 212.259 128.219 212.666 128.219 213.136C128.219 213.605 128.382 214.012 128.711 214.339C129.04 214.669 129.456 214.829 129.935 214.829C130.403 214.829 130.812 214.667 131.139 214.338C131.463 214.012 131.63 213.606 131.63 213.136C131.63 212.668 131.472 212.263 131.153 211.935Z" fill="white" stroke="#574E56" stroke-width="0.6"/>
<path d="M138.775 61.2223C153.924 61.2223 166.206 48.941 166.206 33.7912C166.206 18.6414 153.924 6.36011 138.775 6.36011C123.625 6.36011 111.344 18.6414 111.344 33.7912C111.344 48.941 123.625 61.2223 138.775 61.2223Z" fill="#F8981D"/>
<path d="M138.735 61.5809C123.409 61.5809 110.941 49.1125 110.941 33.7867C110.941 18.4616 123.409 5.99316 138.735 5.99316C154.061 5.99316 166.53 18.4616 166.53 33.7867C166.53 49.1125 154.061 61.5809 138.735 61.5809ZM138.735 6.71831C123.81 6.71831 111.667 18.861 111.667 33.7867C111.667 48.7124 123.81 60.8558 138.735 60.8558C153.661 60.8558 165.805 48.7124 165.805 33.7867C165.805 18.861 153.661 6.71831 138.735 6.71831Z" fill="#574E56"/>
<path d="M265.835 61.3808C275.782 61.3808 283.846 53.3169 283.846 43.3697C283.846 33.4225 275.782 25.3586 265.835 25.3586C255.887 25.3586 247.823 33.4225 247.823 43.3697C247.823 53.3169 255.887 61.3808 265.835 61.3808Z" fill="#F8981D"/>
<path d="M265.861 61.7598C255.731 61.7598 247.488 53.5177 247.488 43.3861C247.488 33.2546 255.731 25.0125 265.861 25.0125C275.992 25.0125 284.235 33.2546 284.235 43.3861C284.235 53.5177 275.992 61.7598 265.861 61.7598ZM265.861 25.7376C256.13 25.7376 248.213 33.6547 248.213 43.3861C248.213 53.1175 256.13 61.0346 265.861 61.0346C275.593 61.0346 283.51 53.1175 283.51 43.3861C283.51 33.6547 275.593 25.7376 265.861 25.7376Z" fill="#574E56"/>
<path d="M310.645 171.441C326.643 171.441 339.612 158.471 339.612 142.473C339.612 126.475 326.643 113.505 310.645 113.505C294.646 113.505 281.677 126.475 281.677 142.473C281.677 158.471 294.646 171.441 310.645 171.441Z" fill="#F8981D"/>
<path d="M310.669 171.818C294.497 171.818 281.339 158.66 281.339 142.487C281.339 126.315 294.497 113.157 310.669 113.157C326.842 113.157 339.999 126.315 339.999 142.487C339.999 158.66 326.842 171.818 310.669 171.818ZM310.669 113.882C294.896 113.882 282.064 126.714 282.064 142.487C282.064 158.261 294.896 171.092 310.669 171.092C326.443 171.092 339.274 158.261 339.274 142.487C339.274 126.714 326.443 113.882 310.669 113.882Z" fill="#574E56"/>
<path d="M126.112 361.384C136.642 361.384 145.179 352.847 145.179 342.316C145.179 331.786 136.642 323.249 126.112 323.249C115.581 323.249 107.044 331.786 107.044 342.316C107.044 352.847 115.581 361.384 126.112 361.384Z" fill="#F8981D"/>
<path d="M126.11 361.749C115.395 361.749 106.679 353.034 106.679 342.319C106.679 331.606 115.395 322.89 126.11 322.89C136.823 322.89 145.539 331.606 145.539 342.319C145.539 353.034 136.823 361.749 126.11 361.749ZM126.11 323.616C115.796 323.616 107.405 332.006 107.405 342.319C107.405 352.633 115.796 361.024 126.11 361.024C136.423 361.024 144.813 352.633 144.813 342.319C144.813 332.006 136.423 323.616 126.11 323.616Z" fill="#574E56"/>
<path d="M36.1452 237.458C55.8947 237.458 71.9049 221.448 71.9049 201.698C71.9049 181.949 55.8947 165.938 36.1452 165.938C16.3957 165.938 0.385498 181.949 0.385498 201.698C0.385498 221.448 16.3957 237.458 36.1452 237.458Z" fill="#F8981D"/>
<path d="M36.1228 237.823C16.2053 237.823 0 221.619 0 201.701C0 181.783 16.2053 165.579 36.1228 165.579C56.0402 165.579 72.2441 181.783 72.2441 201.701C72.2441 221.619 56.0402 237.823 36.1228 237.823ZM36.1228 166.304C16.6047 166.304 0.725146 182.183 0.725146 201.701C0.725146 221.219 16.6047 237.098 36.1228 237.098C55.6408 237.098 71.519 221.219 71.519 201.701C71.519 182.183 55.6408 166.304 36.1228 166.304Z" fill="#574E56"/>
<path d="M166.172 78.5506C165.77 78.5506 165.376 78.3523 165.144 77.989L153.772 60.2392C153.41 59.672 153.574 58.9178 154.142 58.5545C154.704 58.1906 155.463 58.357 155.826 58.9235L167.197 76.6733C167.56 77.2405 167.396 77.9947 166.828 78.358C166.625 78.4883 166.397 78.5506 166.172 78.5506Z" fill="#574E56"/>
<path d="M227.427 81.766C227.103 81.766 226.778 81.6364 226.537 81.3807C226.077 80.89 226.101 80.1181 226.593 79.6571L247.006 60.5059C247.497 60.047 248.268 60.0703 248.729 60.5611C249.19 61.0518 249.166 61.8237 248.674 62.2847L228.261 81.436C228.026 81.6562 227.726 81.766 227.427 81.766Z" fill="#574E56"/>
<path d="M247.834 183.434C247.379 183.434 246.945 183.179 246.734 182.743C246.442 182.137 246.697 181.407 247.304 181.116L283.327 163.777C283.936 163.485 284.661 163.742 284.954 164.348C285.246 164.954 284.991 165.684 284.383 165.975L248.361 183.314C248.191 183.396 248.011 183.434 247.834 183.434Z" fill="#574E56"/>
<path d="M92.688 223.774C92.5761 223.774 92.4628 223.759 92.3495 223.726L74.1967 218.483C73.5495 218.296 73.177 217.621 73.364 216.973C73.5509 216.326 74.2265 215.956 74.8737 216.141L93.0265 221.384C93.6737 221.571 94.0462 222.246 93.8593 222.893C93.7049 223.427 93.2177 223.774 92.688 223.774Z" fill="#574E56"/>
<path d="M143.112 320.995C142.926 320.995 142.734 320.951 142.556 320.86C141.958 320.551 141.722 319.816 142.029 319.217L156.955 290.173C157.263 289.577 157.995 289.34 158.598 289.646C159.196 289.955 159.433 290.69 159.125 291.289L144.199 320.333C143.982 320.752 143.556 320.995 143.112 320.995Z" fill="#574E56"/>
<path d="M325.954 111.821C325.864 111.821 325.772 111.799 325.687 111.757C320.993 109.444 315.938 108.271 310.663 108.271C306.881 108.271 303.166 108.887 299.622 110.101C299.302 110.21 298.961 110.042 298.852 109.724C298.743 109.407 298.912 109.062 299.229 108.954C302.9 107.695 306.746 107.056 310.663 107.056C316.125 107.056 321.361 108.271 326.222 110.669C326.524 110.816 326.647 111.18 326.498 111.481C326.393 111.696 326.178 111.821 325.954 111.821Z" fill="#574E56"/>
<path d="M277.259 133.646C277.205 133.646 277.151 133.638 277.097 133.623C276.773 133.534 276.585 133.199 276.674 132.876C277.442 130.106 278.551 127.434 279.968 124.934C280.134 124.641 280.504 124.539 280.797 124.706C281.087 124.872 281.191 125.243 281.025 125.534C279.655 127.946 278.585 130.527 277.844 133.199C277.769 133.468 277.525 133.646 277.259 133.646Z" fill="#574E56"/>
<path d="M276.07 141.108C276.054 141.108 276.039 141.106 276.022 141.106C275.577 141.081 275.237 140.7 275.263 140.254C275.407 137.74 275.818 135.24 276.486 132.824C276.605 132.395 277.046 132.141 277.479 132.262C277.908 132.381 278.16 132.825 278.041 133.254C277.404 135.56 277.012 137.947 276.874 140.347C276.849 140.776 276.493 141.108 276.07 141.108Z" fill="#574E56"/>
<path d="M172.63 34.6147C172.294 34.6147 172.022 34.3427 172.022 34.0078C172.022 25.2296 168.599 16.9817 162.383 10.784C162.146 10.5475 162.145 10.1629 162.383 9.9257C162.616 9.68847 163.002 9.68706 163.241 9.92429C169.687 16.3515 173.237 24.9045 173.237 34.0078C173.237 34.3427 172.965 34.6147 172.63 34.6147Z" fill="#574E56"/>
<path d="M119.359 7.77621C119.174 7.77621 118.991 7.69123 118.872 7.53119C118.672 7.26209 118.729 6.88181 118.998 6.68211C124.888 2.3107 131.89 0 139.247 0C141.5 0 143.752 0.221651 145.94 0.659289C146.269 0.724438 146.483 1.04452 146.416 1.3731C146.352 1.70098 146.042 1.92192 145.702 1.84898C143.592 1.42763 141.421 1.21377 139.247 1.21377C132.153 1.21377 125.401 3.44161 119.72 7.65653C119.613 7.73726 119.485 7.77621 119.359 7.77621Z" fill="#574E56"/>
<path d="M105.833 34.6153C105.498 34.6153 105.226 34.3434 105.226 34.0084C105.226 30.4075 105.787 26.8597 106.894 23.4641C106.996 23.1447 107.34 22.9698 107.659 23.0746C107.978 23.1787 108.152 23.5207 108.047 23.8394C106.981 27.1139 106.441 30.5357 106.441 34.0084C106.441 34.3434 106.169 34.6153 105.833 34.6153Z" fill="#574E56"/>
<path d="M126.458 368.783C120.45 368.783 114.795 366.81 110.101 363.079C109.839 362.871 109.795 362.49 110.005 362.227C110.213 361.965 110.596 361.921 110.858 362.13C115.333 365.688 120.728 367.568 126.458 367.568C127.83 367.568 129.204 367.457 130.54 367.239C130.864 367.182 131.183 367.41 131.237 367.74C131.291 368.07 131.067 368.383 130.735 368.437C129.336 368.667 127.897 368.783 126.458 368.783Z" fill="#574E56"/>
<path d="M144.576 361.301C144.421 361.301 144.265 361.24 144.146 361.121C143.909 360.884 143.911 360.499 144.149 360.262C146.565 357.858 148.436 355.045 149.71 351.903C149.835 351.592 150.191 351.44 150.501 351.569C150.811 351.695 150.961 352.049 150.835 352.359C149.499 355.654 147.538 358.603 145.004 361.124C144.886 361.241 144.731 361.301 144.576 361.301Z" fill="#574E56"/>
<path d="M236.436 79.8516C236.436 79.8516 169.412 80.5619 168.367 80.5619C167.322 80.5619 100.305 79.8516 100.305 79.8516C95.6326 79.8516 91.8433 83.4733 91.8433 87.9388V278.988C91.8433 283.453 95.6326 287.075 100.305 287.075H236.436C241.108 287.075 244.89 283.453 244.89 278.988V87.9388C244.89 83.4733 241.108 79.8516 236.436 79.8516ZM236.796 269.142C236.796 273.608 233.014 277.23 228.342 277.23H108.399C103.726 277.23 99.9371 273.608 99.9371 269.142V95.6744C99.9371 91.2089 103.726 87.5872 108.399 87.5872H228.342C233.014 87.5872 236.796 91.2089 236.796 95.6744V269.142Z" fill="#52728D" stroke="#574E56" stroke-width="1.11131" stroke-miterlimit="10"/>
<path d="M241.149 82.0872C241.733 82.9251 242.528 83.6568 242.48 84.9737V276.022C242.48 280.488 238.698 284.11 234.026 284.11H97.8951C95.4276 284.11 94.9471 283.796 93.4001 282.185C94.7407 284.961 95.9375 286.189 99.3454 286.189H235.477C240.149 286.189 243.931 282.567 243.931 278.102V87.0529C243.931 84.9436 242.532 83.5272 241.149 82.0872Z" fill="#4A6484"/>
<path d="M137.316 36.3375V36.3376C136.814 37.4731 136.567 38.7739 136.567 40.2323V40.5823H136.917H142.242H142.592V40.2323C142.592 38.8346 142.924 37.6839 143.567 36.759C144.239 35.7966 145.289 34.6635 146.736 33.3583V33.3578C147.876 32.3247 148.791 31.4289 149.475 30.6705C150.179 29.8917 150.777 28.9256 151.268 27.7792C151.769 26.6102 152.016 25.2751 152.016 23.7809C152.016 20.7302 150.83 18.308 148.467 16.5524L148.466 16.5522C146.115 14.8083 142.964 13.9541 139.047 13.9541C135.955 13.9541 133.217 14.4764 130.839 15.5287C128.465 16.581 126.509 18.0881 124.981 20.0522L124.757 20.3403L125.054 20.5521L128.941 23.3207L129.213 23.5146L129.419 23.2518C131.543 20.5475 134.609 19.1797 138.674 19.1797C141.005 19.1797 142.782 19.6935 144.051 20.6767C145.311 21.6565 145.939 22.9477 145.939 24.5803C145.939 25.7922 145.619 26.8083 144.996 27.6458C144.341 28.5219 143.316 29.5778 141.905 30.8117V30.8116L141.901 30.8157C140.759 31.8498 139.839 32.7442 139.137 33.4992V33.4996C138.415 34.2772 137.808 35.2253 137.316 36.3375ZM135.822 48.9108C135.822 49.9591 136.186 50.8572 136.91 51.5814C137.637 52.3085 138.554 52.6686 139.634 52.6686C140.681 52.6686 141.579 52.3058 142.303 51.5814C143.027 50.8572 143.391 49.9591 143.391 48.9108C143.391 47.8653 143.038 46.9695 142.332 46.2447C141.622 45.5147 140.712 45.1531 139.634 45.1531C138.553 45.1531 137.637 45.5145 136.91 46.2413C136.186 46.9655 135.822 47.8624 135.822 48.9108Z" fill="white" stroke="#574E56" stroke-width="0.7"/>
<path d="M125.372 343.298V343.298C125.077 343.972 124.932 344.745 124.932 345.612V345.82H125.137H128.263H128.468V345.612C128.468 344.781 128.663 344.098 129.041 343.548C129.435 342.976 130.051 342.303 130.901 341.528V341.528C131.57 340.914 132.107 340.382 132.509 339.931C132.922 339.468 133.273 338.894 133.561 338.213C133.855 337.519 134 336.726 134 335.838C134 334.026 133.304 332.587 131.917 331.544L131.916 331.544C130.536 330.507 128.687 330 126.388 330C124.573 330 122.966 330.31 121.57 330.935C120.176 331.561 119.028 332.456 118.131 333.623L118 333.794L118.174 333.92L120.456 335.565L120.615 335.68L120.736 335.524C121.983 333.917 123.783 333.104 126.169 333.104C127.537 333.104 128.58 333.41 129.325 333.994C130.064 334.576 130.433 335.343 130.433 336.313C130.433 337.033 130.245 337.637 129.88 338.134C129.495 338.655 128.893 339.282 128.065 340.015V340.015L128.063 340.017C127.393 340.632 126.853 341.163 126.441 341.612V341.612C126.017 342.074 125.66 342.637 125.372 343.298ZM124.495 350.768C124.495 351.39 124.708 351.924 125.133 352.354C125.56 352.786 126.098 353 126.732 353C127.347 353 127.874 352.784 128.299 352.354C128.724 351.924 128.937 351.39 128.937 350.768C128.937 350.146 128.73 349.614 128.316 349.184C127.899 348.75 127.365 348.535 126.732 348.535C126.098 348.535 125.56 348.75 125.133 349.182C124.708 349.612 124.495 350.145 124.495 350.768Z" fill="white" stroke="#574E56" stroke-width="0.7"/>
<path d="M309.559 145.383V145.383C309.057 146.519 308.81 147.82 308.81 149.278V149.628H309.16H314.485H314.835V149.278C314.835 147.88 315.167 146.73 315.81 145.805C316.482 144.843 317.532 143.709 318.979 142.404V142.404C320.119 141.371 321.034 140.475 321.718 139.716C322.422 138.938 323.02 137.972 323.511 136.825C324.012 135.656 324.259 134.321 324.259 132.827C324.259 129.776 323.073 127.354 320.71 125.598L320.709 125.598C318.358 123.854 315.207 123 311.29 123C308.198 123 305.46 123.522 303.082 124.575C300.708 125.627 298.752 127.134 297.224 129.098L297 129.386L297.297 129.598L301.184 132.367L301.456 132.561L301.662 132.298C303.786 129.593 306.852 128.226 310.917 128.226C313.248 128.226 315.025 128.739 316.294 129.723C317.554 130.702 318.182 131.994 318.182 133.626C318.182 134.838 317.862 135.854 317.239 136.692C316.584 137.568 315.559 138.624 314.148 139.858V139.858L314.144 139.862C313.002 140.896 312.082 141.79 311.38 142.545V142.545C310.658 143.323 310.051 144.271 309.559 145.383ZM308.065 157.957C308.065 159.005 308.429 159.903 309.153 160.627C309.88 161.354 310.797 161.715 311.877 161.715C312.924 161.715 313.822 161.352 314.546 160.627C315.27 159.903 315.634 159.005 315.634 157.957C315.634 156.911 315.281 156.015 314.575 155.291C313.865 154.561 312.955 154.199 311.877 154.199C310.796 154.199 309.88 154.56 309.153 155.287C308.429 156.011 308.065 156.908 308.065 157.957Z" fill="white" stroke="#574E56" stroke-width="0.7"/>
<path d="M34.1255 205.33V205.33C33.4809 206.767 33.1638 208.414 33.1638 210.26V210.703H33.6132H40.4504H40.8998V210.26C40.8998 208.491 41.3261 207.034 42.1517 205.864C43.0145 204.646 44.3627 203.211 46.2206 201.559V201.559C47.6843 200.251 48.8592 199.117 49.7374 198.158C50.6413 197.172 51.4091 195.949 52.0396 194.498C52.6829 193.019 53 191.329 53 189.438C53 185.576 51.4772 182.511 48.4431 180.289L48.4419 180.288C45.4232 178.081 41.3774 177 36.3481 177C32.378 177 28.8625 177.661 25.8092 178.993C22.761 180.325 20.2495 182.232 18.2876 184.718L18 185.083L18.3813 185.351L23.3722 188.855L23.7214 189.1L23.9859 188.768C26.7131 185.345 30.6498 183.614 35.8691 183.614C38.8621 183.614 41.1437 184.264 42.7731 185.509C44.3909 186.749 45.1972 188.383 45.1972 190.449C45.1972 191.983 44.7864 193.269 43.9865 194.329C43.1455 195.438 41.8294 196.775 40.0177 198.336V198.336L40.0125 198.341C38.5462 199.65 37.365 200.782 36.4636 201.738V201.738C35.5366 202.722 34.7572 203.922 34.1255 205.33ZM32.2072 221.244C32.2072 222.571 32.6746 223.707 33.6042 224.624C34.5377 225.544 35.7151 226 37.1018 226C38.4461 226 39.5991 225.541 40.5287 224.624C41.4583 223.707 41.9257 222.571 41.9257 221.244C41.9257 219.921 41.4724 218.787 40.5659 217.869C39.6543 216.945 38.4859 216.488 37.1018 216.488C35.7138 216.488 34.5377 216.945 33.6042 217.865C32.6746 218.782 32.2072 219.917 32.2072 221.244Z" fill="white" stroke="#574E56" stroke-width="0.7"/>
<path d="M265.495 44.8582V44.8584C265.17 45.5945 265.011 46.4341 265.011 47.3694V47.7194H265.361H268.723H269.073V47.3694C269.073 46.5081 269.277 45.8087 269.665 45.2504C270.081 44.6542 270.737 43.9462 271.646 43.1253L271.647 43.1248C272.368 42.4711 272.949 41.9023 273.385 41.4191C273.841 40.915 274.226 40.2924 274.54 39.558C274.864 38.8012 275.022 37.9405 275.022 36.983C275.022 35.018 274.256 33.4496 272.73 32.3157V32.3156C271.216 31.193 269.196 30.6499 266.706 30.6499C264.739 30.6499 262.992 30.9821 261.472 31.655V31.6551C259.954 32.3276 258.702 33.292 257.724 34.5496L257.5 34.8378L257.797 35.0496L260.251 36.7975L260.523 36.9914L260.729 36.7286C262.041 35.0578 263.936 34.2071 266.47 34.2071C267.924 34.2071 269.015 34.5277 269.786 35.1251C270.549 35.7188 270.928 36.4961 270.928 37.4877C270.928 38.2286 270.733 38.842 270.359 39.3455C269.953 39.8883 269.313 40.5482 268.425 41.3246L268.421 41.3287C267.698 41.983 267.115 42.5503 266.668 43.0306V43.031C266.201 43.5339 265.811 44.145 265.495 44.8582ZM264.541 52.8485C264.541 53.5434 264.783 54.1435 265.265 54.6258C265.75 55.1108 266.363 55.3499 267.076 55.3499C267.77 55.3499 268.37 55.1082 268.853 54.6258C269.335 54.1435 269.578 53.5434 269.578 52.8485C269.578 52.1564 269.343 51.558 268.872 51.0752C268.397 50.5873 267.789 50.3471 267.076 50.3471C266.363 50.3471 265.75 50.587 265.265 51.0719C264.783 51.5541 264.541 52.1535 264.541 52.8485Z" fill="white" stroke="#574E56" stroke-width="0.7"/>
</svg>
