<svg width="460" height="240" viewBox="0 0 460 240" fill="none" xmlns="http://www.w3.org/2000/svg">
<rect width="460" height="240" rx="25" fill="#D4E6FF"/>
<path d="M378.082 205.831H319.479C308.658 205.831 299.861 197.035 299.861 186.213V96.7899C299.861 85.9681 308.658 77.1713 319.479 77.1713H378.082C388.904 77.1713 397.701 85.9681 397.701 96.7899V186.213C397.764 197.035 388.967 205.831 378.082 205.831Z" fill="#FFFEFF" stroke="#574E56" stroke-width="1.5" stroke-miterlimit="10"/>
<path d="M363.397 190.327C363.397 192.922 361.942 195.011 360.107 195.011H337.514C335.678 195.011 334.223 192.922 334.223 190.327C334.223 187.733 335.678 185.644 337.514 185.644H360.107C361.879 185.644 363.397 187.733 363.397 190.327Z" fill="#36B6BF" stroke="#574E56" stroke-width="1.5" stroke-miterlimit="10"/>
<path d="M427.001 48.1755C427.001 51.8461 424.027 54.8205 420.356 54.8205H277.203C273.533 54.8205 270.558 51.8461 270.558 48.1755C270.558 44.505 273.533 41.5305 277.203 41.5305H420.419C424.027 41.5938 427.001 44.505 427.001 48.1755Z" fill="#FFFEFF" stroke="#574E56" stroke-width="1.5" stroke-miterlimit="10"/>
<path d="M399.048 48.1755C399.048 51.8461 396.58 54.8205 393.606 54.8205H275.704C272.666 54.8205 270.261 51.8461 270.261 48.1755C270.261 44.505 272.73 41.5305 275.704 41.5305H393.606C396.643 41.5938 399.048 44.505 399.048 48.1755Z" fill="#FD923D" stroke="#574E56" stroke-width="1.5" stroke-miterlimit="10"/>
<path d="M336.504 20.3998V24.5218H338.682V22.3798H343.632L338.898 32.9998H341.4L346.296 21.9658V20.3998H336.504ZM351.991 20.2198C349.417 20.2198 347.383 21.8038 347.383 24.3058C347.383 26.6638 349.237 28.1758 351.721 28.1758C353.125 28.1758 354.331 27.7438 355.087 26.8618V26.8798C355.087 29.7418 353.593 31.2178 351.217 31.2178C350.335 31.2178 349.507 31.0558 348.823 30.6058L347.959 32.3698C348.805 32.9098 350.011 33.1798 351.271 33.1798C354.925 33.1798 357.445 30.8038 357.445 26.4838C357.445 22.4338 355.429 20.2198 351.991 20.2198ZM352.171 26.3398C350.641 26.3398 349.651 25.5118 349.651 24.1978C349.651 22.8838 350.659 22.0558 352.117 22.0558C353.791 22.0558 354.727 22.9918 354.727 24.1798C354.727 25.4218 353.683 26.3398 352.171 26.3398ZM361.836 27.1858C363.636 27.1858 364.86 25.8178 364.86 23.7298C364.86 21.6418 363.636 20.2738 361.836 20.2738C360.036 20.2738 358.83 21.6598 358.83 23.7298C358.83 25.7998 360.036 27.1858 361.836 27.1858ZM360.792 32.9998H362.556L371.16 20.3998H369.396L360.792 32.9998ZM361.836 25.9258C360.9 25.9258 360.288 25.1158 360.288 23.7298C360.288 22.3438 360.9 21.5338 361.836 21.5338C362.808 21.5338 363.384 22.3258 363.384 23.7298C363.384 25.1338 362.808 25.9258 361.836 25.9258ZM370.098 33.1258C371.898 33.1258 373.122 31.7398 373.122 29.6698C373.122 27.5998 371.898 26.2138 370.098 26.2138C368.298 26.2138 367.092 27.5998 367.092 29.6698C367.092 31.7398 368.298 33.1258 370.098 33.1258ZM370.098 31.8658C369.144 31.8658 368.55 31.0738 368.55 29.6698C368.55 28.2658 369.144 27.4738 370.098 27.4738C371.052 27.4738 371.646 28.2838 371.646 29.6698C371.646 31.0558 371.052 31.8658 370.098 31.8658Z" fill="#574E56"/>
<path d="M390.172 101.727V118.497L369.73 97.4233L348.783 123.054L340.176 116.662L313.849 139.635C313.659 139.508 313.406 139.382 313.216 139.255C313.026 139.129 312.899 139.002 312.71 138.876C312.203 138.496 311.76 138.116 311.317 137.673C310.305 136.661 309.419 135.458 308.786 134.192C308.659 133.939 308.533 133.686 308.469 133.433C308.026 132.294 307.647 131.155 307.52 129.952C307.457 129.699 307.457 129.446 307.457 129.193C307.457 128.876 307.394 128.623 307.394 128.307V101.79C307.394 94.4489 313.342 88.5633 320.62 88.5633H376.945C384.286 88.5 390.172 94.4489 390.172 101.727Z" fill="#FFFEFF"/>
<path d="M307.394 152.672H352.01" stroke="#D0D1D1" stroke-width="1.5" stroke-miterlimit="10"/>
<path d="M311.304 161.784H342.441" stroke="#D0D1D1" stroke-width="1.5" stroke-miterlimit="10"/>
<path d="M311.304 169.379H342.441" stroke="#D0D1D1" stroke-width="1.5" stroke-miterlimit="10"/>
<path d="M311.304 176.973H342.441" stroke="#D0D1D1" stroke-width="1.5" stroke-miterlimit="10"/>
<path d="M352.019 161.785H387.585" stroke="#D0D1D1" stroke-width="1.5" stroke-miterlimit="10"/>
<path d="M352.019 169.38H387.585" stroke="#D0D1D1" stroke-width="1.5" stroke-miterlimit="10"/>
<path d="M376.375 140.838H321.19C313.596 140.838 307.394 134.636 307.394 127.041V103.562C307.394 95.9679 313.596 89.7659 321.19 89.7659H376.375C383.969 89.7659 390.172 95.9679 390.172 103.562V127.041C390.172 134.699 383.969 140.838 376.375 140.838Z" stroke="#574E56" stroke-width="1.5" stroke-miterlimit="10"/>
<path d="M142.654 205H84.8613C74.1936 205 65.4937 196.3 65.4937 185.632V97.4938C65.4937 86.8261 74.1936 78.1262 84.8613 78.1262H142.654C153.321 78.1262 162.021 86.8261 162.021 97.4938V185.632C162.021 196.3 153.321 205 142.654 205Z" fill="#FFFEFF" stroke="#574E56" stroke-width="1.5" stroke-miterlimit="10"/>
<path d="M134.301 158.6C134.301 161.189 132.23 163.26 129.64 163.26H97.9478C95.3585 163.26 93.2871 161.189 93.2871 158.6C93.2871 156.01 95.3585 153.939 97.9478 153.939H129.64C132.23 153.939 134.301 156.01 134.301 158.6Z" fill="#5ED2D1" stroke="#574E56" stroke-width="1.5" stroke-miterlimit="10" stroke-linejoin="round"/>
<path d="M78.8818 111.269H148.17" stroke="#574E56" stroke-width="1.5" stroke-miterlimit="10" stroke-linejoin="round"/>
<path d="M88.8962 123.594H140.267" stroke="#574E56" stroke-width="1.5" stroke-miterlimit="10" stroke-linejoin="round"/>
<path d="M92.0288 130.843H137.289" stroke="#574E56" stroke-width="1.5" stroke-miterlimit="10" stroke-linejoin="round"/>
<path d="M97.0066 89.2068H78.8818V94.2818H97.0066V89.2068Z" fill="#D0D1D1"/>
<path d="M124.967 89.2059H102.493V94.2808H124.967V89.2059Z" fill="#D0D1D1"/>
<path d="M148.186 90.3473H130.061V93.1437H148.186V90.3473Z" fill="#D0D1D1"/>
<path d="M81.5825 91.7975H94.3217" stroke="white" stroke-width="1.5" stroke-miterlimit="10"/>
<path d="M105.978 31.02L109.344 27.816C111.09 26.178 111.432 25.062 111.432 23.838C111.432 21.606 109.668 20.22 106.932 20.22C104.862 20.22 103.116 20.994 102.144 22.308L103.782 23.568C104.484 22.668 105.51 22.254 106.734 22.254C108.282 22.254 109.074 22.92 109.074 24.072C109.074 24.774 108.858 25.512 107.634 26.682L102.63 31.434V33H111.918V31.02H105.978ZM118.633 25.602L121.693 21.966V20.4H113.107V22.362H118.831L115.969 25.764V27.366H117.121C119.029 27.366 119.857 28.104 119.857 29.238C119.857 30.408 118.867 31.146 117.193 31.146C115.771 31.146 114.403 30.66 113.503 29.904L112.495 31.722C113.665 32.64 115.447 33.18 117.229 33.18C120.613 33.18 122.215 31.344 122.215 29.22C122.215 27.33 121.009 25.908 118.633 25.602ZM126.377 27.186C128.177 27.186 129.401 25.818 129.401 23.73C129.401 21.642 128.177 20.274 126.377 20.274C124.577 20.274 123.371 21.66 123.371 23.73C123.371 25.8 124.577 27.186 126.377 27.186ZM125.333 33H127.097L135.701 20.4H133.937L125.333 33ZM126.377 25.926C125.441 25.926 124.829 25.116 124.829 23.73C124.829 22.344 125.441 21.534 126.377 21.534C127.349 21.534 127.925 22.326 127.925 23.73C127.925 25.134 127.349 25.926 126.377 25.926ZM134.639 33.126C136.439 33.126 137.663 31.74 137.663 29.67C137.663 27.6 136.439 26.214 134.639 26.214C132.839 26.214 131.633 27.6 131.633 29.67C131.633 31.74 132.839 33.126 134.639 33.126ZM134.639 31.866C133.685 31.866 133.091 31.074 133.091 29.67C133.091 28.266 133.685 27.474 134.639 27.474C135.593 27.474 136.187 28.284 136.187 29.67C136.187 31.056 135.593 31.866 134.639 31.866Z" fill="#574E56"/>
<path d="M178.873 54.82H49.5051C45.8806 54.82 42.9995 51.939 42.9995 48.3144V48.2214C42.9995 44.5969 45.8806 41.7159 49.5051 41.7159H178.873C182.498 41.7159 185.379 44.5969 185.379 48.2214V48.3144C185.379 51.846 182.498 54.82 178.873 54.82Z" fill="#FFFEFF" stroke="#52505B" stroke-width="1.5" stroke-miterlimit="10"/>
<path d="M85.1 54.6341H49.8768C46.0664 54.6341 42.9995 51.7531 42.9995 48.1286V48.0356C42.9995 44.411 46.0664 41.53 49.8768 41.53H85.1C88.9104 41.53 91.9773 44.411 91.9773 48.0356V48.1286C91.9773 51.7531 88.9104 54.6341 85.1 54.6341Z" fill="#FD923D" stroke="#52505B" stroke-width="1.5" stroke-miterlimit="10"/>
<path d="M326.627 122.927H321.881V134.255H326.627V122.927Z" fill="#5ED2D1" stroke="#574E56" stroke-width="1.5" stroke-miterlimit="10"/>
<path d="M335.559 116.283H330.812V134.003H335.559V116.283Z" fill="#FDAD67" stroke="#574E56" stroke-width="1.5" stroke-miterlimit="10"/>
<path d="M344.414 119.636H339.667V134.128H344.414V119.636Z" fill="#36B6BF" stroke="#574E56" stroke-width="1.5" stroke-miterlimit="10"/>
<path d="M353.273 112.992H348.527V133.939H353.273V112.992Z" fill="#BCD4F4" stroke="#574E56" stroke-width="1.5" stroke-miterlimit="10"/>
<path d="M362.137 117.169H357.391V134.066H362.137V117.169Z" fill="#FD923D" stroke="#574E56" stroke-width="1.5" stroke-miterlimit="10"/>
<path d="M370.994 105.461H366.248V133.75H370.994V105.461Z" fill="#507097" stroke="#574E56" stroke-width="1.5" stroke-miterlimit="10"/>
<path d="M324.615 112.613L333.348 107.234L342.082 113.246L350.815 102.93L359.549 110.525L368.282 95.1462" fill="#FFFEFF"/>
<path d="M324.615 112.613L333.348 107.234L342.082 113.246L350.815 102.93L359.549 110.525L368.282 95.1462" stroke="#574E56" stroke-width="1.5" stroke-miterlimit="10"/>
<path d="M368.285 97.6146C369.648 97.6146 370.754 96.5094 370.754 95.1461C370.754 93.7829 369.648 92.6777 368.285 92.6777C366.922 92.6777 365.817 93.7829 365.817 95.1461C365.817 96.5094 366.922 97.6146 368.285 97.6146Z" fill="#BCD4F4" stroke="#574E56" stroke-width="1.5" stroke-miterlimit="10"/>
<path d="M359.552 112.993C360.915 112.993 362.02 111.888 362.02 110.525C362.02 109.161 360.915 108.056 359.552 108.056C358.189 108.056 357.083 109.161 357.083 110.525C357.083 111.888 358.189 112.993 359.552 112.993Z" fill="#BCD4F4" stroke="#574E56" stroke-width="1.5" stroke-miterlimit="10"/>
<path d="M350.826 105.399C352.189 105.399 353.294 104.294 353.294 102.931C353.294 101.568 352.189 100.463 350.826 100.463C349.463 100.463 348.357 101.568 348.357 102.931C348.357 104.294 349.463 105.399 350.826 105.399Z" fill="#BCD4F4" stroke="#574E56" stroke-width="1.5" stroke-miterlimit="10"/>
<path d="M342.081 115.714C343.445 115.714 344.55 114.609 344.55 113.246C344.55 111.882 343.445 110.777 342.081 110.777C340.718 110.777 339.613 111.882 339.613 113.246C339.613 114.609 340.718 115.714 342.081 115.714Z" fill="#BCD4F4" stroke="#574E56" stroke-width="1.5" stroke-miterlimit="10"/>
<path d="M333.357 109.703C334.72 109.703 335.825 108.598 335.825 107.235C335.825 105.872 334.72 104.766 333.357 104.766C331.994 104.766 330.888 105.872 330.888 107.235C330.888 108.598 331.994 109.703 333.357 109.703Z" fill="#BCD4F4" stroke="#574E56" stroke-width="1.5" stroke-miterlimit="10"/>
<path d="M324.742 114.576C326.105 114.576 327.211 113.471 327.211 112.107C327.211 110.744 326.105 109.639 324.742 109.639C323.379 109.639 322.274 110.744 322.274 112.107C322.274 113.471 323.379 114.576 324.742 114.576Z" fill="#BCD4F4" stroke="#574E56" stroke-width="1.5" stroke-miterlimit="10"/>
<path d="M215.286 157.143L212.741 149.99C212.329 148.889 211.297 148.201 210.196 148.201H199.191C198.022 148.201 196.99 148.958 196.646 149.99L194.101 157.143C193.688 158.244 192.657 158.931 191.556 158.931H190.731C188.805 158.931 187.498 157.005 188.186 155.286L200.635 121.788C201.048 120.757 202.08 120 203.18 120H206.276C207.445 120 208.408 120.688 208.821 121.788L221.27 155.286C221.958 157.074 220.651 158.931 218.726 158.931H217.831C216.731 158.931 215.699 158.244 215.286 157.143ZM206.62 142.699C208.477 142.699 209.784 140.841 209.165 139.122L206.757 132.175C206.482 131.487 206.344 130.318 205.863 128.804C205.382 127.291 205.382 125.571 204.694 125.503C203.112 125.365 202.699 128.873 202.08 131.9L200.36 139.122C199.741 140.91 201.048 142.699 202.905 142.699H206.62Z" fill="#FFFEFF" stroke="#574E56" stroke-width="1.5" stroke-miterlimit="10"/>
<path d="M242.035 123.852L229.654 157.211C229.242 158.243 228.21 159 227.109 159H227.041C225.115 159 223.808 157.074 224.496 155.354L236.945 121.994C237.358 120.963 238.39 120.206 239.49 120.206H239.559C241.416 120.137 242.723 122.063 242.035 123.852Z" fill="#FFFEFF" stroke="#574E56" stroke-width="1.5" stroke-miterlimit="10"/>
<path d="M248.988 122.889C248.988 121.376 250.226 120.138 251.739 120.138H260.543C265.909 120.138 266.459 120.481 268.866 121.995C271.274 123.577 272.099 126.672 272.099 130.042C272.099 132.312 271.549 134.169 270.379 135.683C269.21 137.196 267.834 137.746 267.834 137.746C270.586 138.228 273.681 140.085 274.919 141.598C276.226 143.111 276.845 145.175 276.845 147.72C276.845 151.228 275.607 153.91 273.2 155.905C270.792 157.9 267.353 158.863 263.088 158.863H251.808C250.295 158.863 249.057 157.625 249.057 156.111V122.889H248.988ZM255.316 133.482C255.316 134.995 256.554 136.233 258.067 136.233C258.067 136.233 262.538 136.508 263.707 135.683C264.946 134.857 265.496 132.931 265.496 130.868C265.496 129.079 265.221 126.947 263.914 126.122C262.607 125.296 258.067 125.503 258.067 125.503C256.554 125.503 255.316 126.741 255.316 128.254V133.482ZM255.316 144.074V150.884C255.316 152.397 256.554 153.635 258.067 153.635H262.057C264.739 153.635 267.078 153.704 268.385 152.672C269.76 151.64 270.036 149.439 270.036 147.307C270.036 145.312 269.829 143.318 268.453 142.355C267.078 141.392 264.533 141.392 261.713 141.392H257.998C256.554 141.323 255.316 142.561 255.316 144.074Z" fill="#FFFEFF" stroke="#574E56" stroke-width="1.5" stroke-miterlimit="10"/>
</svg>
