<svg width="106" height="30" viewBox="0 0 106 30" fill="none" xmlns="http://www.w3.org/2000/svg">
<rect width="100" height="30" rx="5" fill="#2B2A29"/>
<path d="M106 15L98 9V21L106 15Z" fill="#2B2A29"/>
<path d="M34.256 19.196C33.2853 19.196 32.4687 18.9813 31.806 18.552C31.1433 18.1133 30.6767 17.5207 30.406 16.774L32.058 15.808C32.4407 16.8067 33.192 17.306 34.312 17.306C34.8533 17.306 35.25 17.208 35.502 17.012C35.754 16.816 35.88 16.5687 35.88 16.27C35.88 15.9247 35.726 15.6587 35.418 15.472C35.11 15.276 34.5593 15.066 33.766 14.842C33.3273 14.7113 32.954 14.5807 32.646 14.45C32.3473 14.3193 32.044 14.1467 31.736 13.932C31.4373 13.708 31.2087 13.428 31.05 13.092C30.8913 12.756 30.812 12.364 30.812 11.916C30.812 11.0293 31.1247 10.3247 31.75 9.802C32.3847 9.27 33.1453 9.004 34.032 9.004C34.8253 9.004 35.5207 9.2 36.118 9.592C36.7247 9.97467 37.196 10.5113 37.532 11.202L35.908 12.14C35.516 11.3 34.8907 10.88 34.032 10.88C33.6307 10.88 33.3133 10.9733 33.08 11.16C32.856 11.3373 32.744 11.5707 32.744 11.86C32.744 12.168 32.87 12.42 33.122 12.616C33.3833 12.8027 33.878 13.008 34.606 13.232C34.9047 13.3253 35.1287 13.4 35.278 13.456C35.4367 13.5027 35.6467 13.582 35.908 13.694C36.1787 13.7967 36.384 13.8947 36.524 13.988C36.6733 14.0813 36.8413 14.2073 37.028 14.366C37.2147 14.5247 37.3547 14.688 37.448 14.856C37.5507 15.024 37.6347 15.2293 37.7 15.472C37.7747 15.7053 37.812 15.962 37.812 16.242C37.812 17.1473 37.4807 17.866 36.818 18.398C36.1647 18.93 35.3107 19.196 34.256 19.196ZM45.4421 19H43.3421L40.7941 15.822V19H38.9881V9.2H40.7941V15.08L43.2021 12H45.3581L42.5441 15.458L45.4421 19ZM50.7572 12H52.6892L50.1412 19C49.7772 20.008 49.2919 20.736 48.6852 21.184C48.0879 21.6413 47.3412 21.8467 46.4452 21.8V20.12C46.9305 20.1293 47.3132 20.0267 47.5932 19.812C47.8825 19.5973 48.1112 19.252 48.2792 18.776L45.4092 12H47.3832L49.2032 16.704L50.7572 12ZM57.6227 11.804C58.5653 11.804 59.368 12.1633 60.0307 12.882C60.7027 13.5913 61.0387 14.464 61.0387 15.5C61.0387 16.536 60.7027 17.4133 60.0307 18.132C59.368 18.8413 58.5653 19.196 57.6227 19.196C56.6427 19.196 55.8867 18.8553 55.3547 18.174V21.8H53.5487V12H55.3547V12.826C55.8867 12.1447 56.6427 11.804 57.6227 11.804ZM55.9007 16.928C56.2647 17.292 56.7267 17.474 57.2867 17.474C57.8467 17.474 58.3087 17.292 58.6727 16.928C59.046 16.5547 59.2327 16.0787 59.2327 15.5C59.2327 14.9213 59.046 14.45 58.6727 14.086C58.3087 13.7127 57.8467 13.526 57.2867 13.526C56.7267 13.526 56.2647 13.7127 55.9007 14.086C55.5367 14.45 55.3547 14.9213 55.3547 15.5C55.3547 16.0787 55.5367 16.5547 55.9007 16.928ZM63.8383 16.242C64.081 17.1193 64.739 17.558 65.8123 17.558C66.503 17.558 67.0257 17.3247 67.3803 16.858L68.8363 17.698C68.1457 18.6967 67.1283 19.196 65.7843 19.196C64.627 19.196 63.6983 18.846 62.9983 18.146C62.2983 17.446 61.9483 16.564 61.9483 15.5C61.9483 14.4453 62.2937 13.568 62.9843 12.868C63.675 12.1587 64.5617 11.804 65.6443 11.804C66.671 11.804 67.5157 12.1587 68.1783 12.868C68.8503 13.5773 69.1863 14.4547 69.1863 15.5C69.1863 15.7333 69.163 15.9807 69.1163 16.242H63.8383ZM63.8103 14.842H67.3803C67.2777 14.366 67.063 14.0113 66.7363 13.778C66.419 13.5447 66.055 13.428 65.6443 13.428C65.159 13.428 64.7577 13.554 64.4403 13.806C64.123 14.0487 63.913 14.394 63.8103 14.842Z" fill="white"/>
</svg>
