<svg width="35" height="35" viewBox="0 0 35 35" fill="none" xmlns="http://www.w3.org/2000/svg">
<g clip-path="url(#clip0)">
<path d="M31.7351 19.2281C31.8326 18.5431 31.8841 17.8434 31.8841 17.1316C31.8841 8.98463 25.2797 2.38022 17.1328 2.38022C15.6346 2.38022 14.189 2.60434 12.8267 3.01952C11.5855 2.22584 10.1105 1.76563 8.52793 1.76563C4.11498 1.76556 0.537598 5.34294 0.537598 9.75589C0.537598 11.7796 1.29032 13.6273 2.5305 15.035C2.43299 15.7199 2.38146 16.4197 2.38146 17.1315C2.38146 25.2784 8.98587 31.8828 17.1327 31.8828C18.6309 31.8828 20.0765 31.6586 21.4388 31.2435C22.68 32.0371 24.1551 32.4974 25.7376 32.4974C30.1505 32.4974 33.7279 28.92 33.7279 24.507C33.728 22.4835 32.9753 20.6359 31.7351 19.2281Z" fill="#00AFF0"/>
<path d="M27.4544 30.8657C25.8719 30.8657 24.3968 30.4056 23.1557 29.6118C21.7933 30.027 20.3477 30.2511 18.8496 30.2511C10.7027 30.2511 4.09831 23.6467 4.09831 15.4998C4.09831 14.7879 4.14984 14.0882 4.24735 13.4034C3.00717 11.9955 2.25445 10.1479 2.25445 8.12411C2.25445 6.27208 2.88477 4.56741 3.94232 3.2124C1.88344 4.65776 0.537598 7.04963 0.537598 9.75611C0.537598 11.7798 1.29032 13.6275 2.5305 15.0352C2.43299 15.7201 2.38146 16.4199 2.38146 17.1317C2.38146 25.2786 8.98587 31.883 17.1327 31.883C18.6309 31.883 20.0765 31.6588 21.4388 31.2437C22.68 32.0374 24.155 32.4976 25.7376 32.4976C28.2984 32.4976 30.5778 31.2926 32.04 29.419C30.7422 30.3304 29.1609 30.8657 27.4544 30.8657Z" fill="#008EC3"/>
<path d="M21.0159 17.4653C19.9419 16.7072 18.6105 16.2373 17.3229 15.7829C14.6653 14.8449 13.4133 14.2489 13.4133 12.8401C13.4133 10.5995 15.7438 10.265 17.1329 10.265C17.9481 10.265 19.6559 10.6297 20.3446 11.1336C20.9825 11.6001 21.8775 11.461 22.344 10.8235C22.8104 10.1858 22.6716 9.29064 22.0338 8.82413C20.7091 7.85519 18.3262 7.40381 17.1328 7.40381C15.1655 7.40381 13.5131 7.91428 12.3543 8.87995C11.1921 9.84849 10.552 11.2549 10.552 12.8402C10.552 14.4712 11.2672 15.8031 12.6776 16.7987C13.7515 17.5568 15.083 18.0267 16.3706 18.4811C19.0281 19.4191 20.2801 20.0152 20.2801 21.424C20.2801 23.7481 18.079 23.9991 17.1328 23.9991C15.3548 23.9991 13.7426 23.1551 13.3079 22.5718C12.8357 21.9383 11.9394 21.8073 11.3059 22.2795C10.6724 22.7517 10.5415 23.6479 11.0137 24.2815C12.1272 25.7757 14.7006 26.8603 17.1328 26.8603C20.7267 26.8603 23.1414 24.6756 23.1414 21.4239C23.1415 19.7927 22.4263 18.4608 21.0159 17.4653Z" fill="white"/>
<path d="M17.9896 25.7153C15.5575 25.7153 12.984 24.6307 11.8705 23.1365C11.6423 22.8303 11.5561 22.4627 11.5984 22.1113C11.4964 22.155 11.3973 22.2097 11.3044 22.279C10.6708 22.7512 10.5399 23.6474 11.0121 24.281C12.1256 25.7752 14.6991 26.8598 17.1313 26.8598C19.6321 26.8598 21.5606 25.8013 22.5032 24.0623C21.445 25.1095 19.8809 25.7153 17.9896 25.7153Z" fill="#E5E5E5"/>
<path d="M12.6764 16.7984C13.7503 17.5565 15.0818 18.0264 16.3693 18.4808C19.0269 19.4187 20.2789 20.0148 20.2789 21.4236C20.2789 21.7563 20.2326 22.0452 20.1525 22.2983C20.7107 21.9232 21.1372 21.3021 21.1372 20.2791C21.1372 18.8703 19.8851 18.2742 17.2277 17.3362C15.9401 16.8818 14.6087 16.4119 13.5347 15.6538C12.1243 14.6582 11.4091 13.3263 11.4091 11.6953C11.4091 10.7793 11.624 9.92381 12.0287 9.17725C11.0733 10.1261 10.5508 11.4096 10.5508 12.8398C10.5508 14.4709 11.266 15.8028 12.6764 16.7984Z" fill="#E5E5E5"/>
<path d="M32.2977 19.0614C32.3786 18.4201 32.4195 17.772 32.4195 17.1313C32.4195 14.6603 31.8161 12.2055 30.6746 10.0322C29.5698 7.92891 27.963 6.08417 26.0279 4.69724C25.7872 4.52465 25.452 4.57979 25.2794 4.82077C25.1068 5.06162 25.162 5.39676 25.4029 5.56935C29.1246 8.23674 31.3465 12.559 31.3465 17.1314C31.3465 17.8025 31.2981 18.4824 31.2029 19.1524C31.1808 19.3077 31.2278 19.4649 31.3315 19.5826C32.5303 20.9432 33.1904 22.6921 33.1904 24.507C33.1904 28.617 29.8466 31.9607 25.7366 31.9607C24.3096 31.9607 22.923 31.5564 21.7268 30.7914C21.5943 30.7066 21.4316 30.6844 21.2813 30.7302C19.9402 31.139 18.5441 31.3461 17.1316 31.3461C9.29348 31.3461 2.91674 24.9694 2.91674 17.1312C2.91674 16.4599 2.96512 15.78 3.06035 15.1103C3.08243 14.955 3.03546 14.7978 2.93173 14.6801C1.73298 13.3195 1.07287 11.5706 1.07287 9.75571C1.07294 5.64564 4.41677 2.30194 8.52677 2.30194C9.95372 2.30194 11.3403 2.70628 12.5365 3.47132C12.6688 3.55604 12.8316 3.57839 12.982 3.53248C14.3232 3.12373 15.7193 2.91654 17.1318 2.91654C19.4363 2.91654 21.7244 3.48048 23.7488 4.54733C24.0111 4.68546 24.3354 4.58488 24.4736 4.32288C24.6118 4.06075 24.5112 3.73626 24.2491 3.59813C22.071 2.45024 19.61 1.8436 17.1318 1.8436C15.6954 1.8436 14.2743 2.04309 12.9037 2.43679C11.5838 1.64585 10.0758 1.229 8.5269 1.229C3.82512 1.22894 0 5.05399 0 9.75571C0 11.7491 0.69631 13.673 1.96573 15.2012C1.88482 15.8423 1.84387 16.4904 1.84387 17.1314C1.84387 21.2149 3.4341 25.054 6.3216 27.9415C9.20909 30.829 13.0482 32.4193 17.1318 32.4193C18.5682 32.4193 19.9893 32.2198 21.3597 31.8261C22.6797 32.617 24.1876 33.0339 25.7366 33.0339C30.4383 33.0337 34.2634 29.2086 34.2634 24.507C34.2634 22.5135 33.5671 20.5897 32.2977 19.0614Z" fill="#574E56"/>
<path d="M18.8092 23.1086C18.2266 23.4164 17.5079 23.4624 17.1313 23.4624C15.4951 23.4624 14.0516 22.6739 13.7365 22.251C13.4226 21.8297 12.9633 21.5559 12.4434 21.48C11.9234 21.4039 11.4051 21.5351 10.9838 21.8492C10.114 22.4974 9.93381 23.7323 10.5819 24.6019C11.7887 26.2213 14.5431 27.3966 17.1313 27.3966C19.0299 27.3966 20.6592 26.8304 21.8432 25.7592C23.0425 24.6741 23.6764 23.175 23.6764 21.4238C23.6764 19.6083 22.8848 18.129 21.3236 17.027C20.1888 16.226 18.8217 15.7435 17.4998 15.277C14.8788 14.3519 13.9481 13.8446 13.9481 12.8401C13.9481 11.1551 15.6791 10.8015 17.1313 10.8015C17.8614 10.8015 19.4489 11.1442 20.0263 11.5665C20.9016 12.2067 22.1349 12.0156 22.7754 11.1401C23.0857 10.716 23.2121 10.1965 23.1316 9.67725C23.0511 9.15802 22.7731 8.70122 22.3491 8.39104C20.9119 7.33998 18.4327 6.86719 17.1313 6.86719C15.0368 6.86719 13.2657 7.42062 12.0093 8.4676C10.7226 9.53987 10.0139 11.0926 10.0139 12.84C10.0139 14.6556 10.8055 16.1348 12.3666 17.2368C12.9702 17.6628 13.6936 18.0378 14.6432 18.417C14.9183 18.5269 15.2305 18.3929 15.3403 18.1177C15.4502 17.8424 15.3162 17.5303 15.041 17.4205C14.1716 17.0734 13.5184 16.7365 12.9854 16.3604C11.7257 15.471 11.0869 14.2868 11.0869 12.8401C11.0869 11.4169 11.6584 10.1568 12.6962 9.29199C13.7573 8.40763 15.2909 7.94026 17.1313 7.94026C18.2984 7.94026 20.5408 8.39786 21.7155 9.25713C22.1087 9.54468 22.1973 10.113 21.9094 10.5066C21.6183 10.9044 21.0578 10.9916 20.6597 10.7005C19.8486 10.1072 18.0281 9.72851 17.1313 9.72851C14.4265 9.72851 12.8752 10.8626 12.8752 12.8401C12.8752 14.6519 14.4874 15.3517 17.1427 16.2889C18.3958 16.7312 19.6916 17.1884 20.7049 17.9036C21.9646 18.793 22.6034 19.9773 22.6034 21.4238C22.6034 24.3546 20.4043 26.3237 17.1313 26.3237C14.8919 26.3237 12.4461 25.3079 11.4423 23.9609C11.1477 23.5655 11.2297 23.0042 11.6251 22.7096C12.0161 22.4179 12.5852 22.5017 12.8762 22.8923C13.4675 23.6858 15.3184 24.5355 17.1313 24.5355C19.438 24.5355 20.8151 23.3722 20.8151 21.4238C20.8151 19.6287 19.2013 18.9197 16.7392 18.043C16.4602 17.9437 16.1533 18.0893 16.0538 18.3684C15.9544 18.6476 16.1001 18.9543 16.3792 19.0538C19.0507 20.0051 19.7421 20.4924 19.7421 21.4238C19.7422 22.2258 19.4369 22.7768 18.8092 23.1086Z" fill="#574E56"/>
</g>
<defs>
<clipPath id="clip0">
<rect width="34.2634" height="34.2634" fill="white"/>
</clipPath>
</defs>
</svg>
