<svg width="67" height="40" viewBox="0 0 67 40" fill="none" xmlns="http://www.w3.org/2000/svg">
<rect x="1" y="1" width="64.3492" height="38" rx="19" stroke="#D4D3D5" stroke-width="2"/>
<path d="M42.5599 19.4141C42.5599 19.681 42.5109 19.9316 42.4127 20.166C42.3145 20.4004 42.1738 20.6055 41.9905 20.7813C41.8073 20.957 41.6011 21.0938 41.372 21.1914C41.143 21.2891 40.891 21.3411 40.6161 21.3477L30.3767 21.3477L33.1353 24.082C33.3186 24.2578 33.4593 24.4661 33.5575 24.707C33.6557 24.9479 33.7047 25.1953 33.7047 25.4492C33.7047 25.7161 33.6557 25.9668 33.5575 26.2012C33.4593 26.4355 33.3186 26.6406 33.1353 26.8164C32.9521 26.9922 32.7459 27.1289 32.5168 27.2266C32.2878 27.3242 32.0358 27.3763 31.7609 27.3828C31.5057 27.3828 31.2602 27.334 31.0246 27.2363C30.789 27.1387 30.5763 26.9987 30.3865 26.8164L24.3489 20.8008C24.1329 20.5859 23.9791 20.3646 23.8874 20.1367C23.7958 19.9089 23.75 19.6419 23.75 19.3359C23.75 19.082 23.8056 18.8444 23.9169 18.623C24.0282 18.4017 24.1721 18.2031 24.3489 18.0273L30.3865 12.0117C30.5697 11.8294 30.7825 11.6895 31.0246 11.5918C31.2668 11.4941 31.5155 11.4453 31.7707 11.4453C32.0391 11.4453 32.291 11.4974 32.5267 11.6016C32.7623 11.7057 32.9652 11.8457 33.1353 12.0215C33.3055 12.1973 33.4429 12.4023 33.5477 12.6367C33.6524 12.8711 33.7047 13.1217 33.7047 13.3887C33.7047 13.6426 33.6557 13.8867 33.5575 14.1211C33.4593 14.3555 33.3186 14.5638 33.1353 14.7461L30.3767 17.4805L40.6161 17.4805C40.8845 17.4805 41.1364 17.5293 41.372 17.627C41.6077 17.7246 41.8138 17.8646 41.9905 18.0469C42.1672 18.2292 42.3047 18.4342 42.4029 18.6621C42.501 18.89 42.5534 19.1406 42.5599 19.4141Z" fill="#574E56"/>
</svg>
