<svg width="67" height="40" viewBox="0 0 67 40" fill="none" xmlns="http://www.w3.org/2000/svg">
<rect x="-1" y="1" width="64.3492" height="38" rx="19" transform="matrix(-1 0 0 1 64.3491 0)" stroke="#D4D3D5" stroke-width="2"/>
<path d="M23.7892 19.4141C23.7892 19.681 23.8383 19.9316 23.9364 20.166C24.0346 20.4004 24.1753 20.6055 24.3586 20.7813C24.5418 20.957 24.748 21.0938 24.9771 21.1914C25.2061 21.2891 25.4581 21.3411 25.733 21.3477L35.9724 21.3477L33.2138 24.082C33.0305 24.2578 32.8898 24.4661 32.7916 24.707C32.6935 24.9479 32.6444 25.1953 32.6444 25.4492C32.6444 25.7161 32.6935 25.9668 32.7916 26.2012C32.8898 26.4355 33.0305 26.6406 33.2138 26.8164C33.397 26.9922 33.6032 27.1289 33.8323 27.2266C34.0613 27.3242 34.3133 27.3763 34.5882 27.3828C34.8435 27.3828 35.0889 27.334 35.3245 27.2363C35.5601 27.1387 35.7728 26.9987 35.9626 26.8164L42.0003 20.8008C42.2162 20.5859 42.3701 20.3646 42.4617 20.1367C42.5533 19.9089 42.5991 19.6419 42.5991 19.3359C42.5991 19.082 42.5435 18.8444 42.4322 18.623C42.321 18.4017 42.177 18.2031 42.0003 18.0273L35.9626 12.0117C35.7794 11.8294 35.5667 11.6895 35.3245 11.5918C35.0823 11.4941 34.8336 11.4453 34.5784 11.4453C34.3101 11.4453 34.0581 11.4974 33.8225 11.6016C33.5868 11.7057 33.384 11.8457 33.2138 12.0215C33.0436 12.1973 32.9062 12.4023 32.8015 12.6367C32.6967 12.8711 32.6444 13.1217 32.6444 13.3887C32.6444 13.6426 32.6935 13.8867 32.7916 14.1211C32.8898 14.3555 33.0305 14.5638 33.2138 14.7461L35.9724 17.4805L25.733 17.4805C25.4647 17.4805 25.2127 17.5293 24.9771 17.627C24.7415 17.7246 24.5353 17.8646 24.3586 18.0469C24.1819 18.2292 24.0444 18.4342 23.9463 18.6621C23.8481 18.89 23.7957 19.1406 23.7892 19.4141Z" fill="#574E56"/>
</svg>
