<svg width="67" height="40" viewBox="0 0 67 40" fill="none" xmlns="http://www.w3.org/2000/svg">
<rect x="1.00024" y="1" width="64.3492" height="38" rx="19" stroke="#D4D3D5" stroke-width="2"/>
<path d="M42.5602 19.4141C42.5602 19.681 42.5111 19.9316 42.4129 20.166C42.3147 20.4004 42.174 20.6055 41.9908 20.7813C41.8075 20.957 41.6014 21.0938 41.3723 21.1914C41.1432 21.2891 40.8912 21.3411 40.6164 21.3477L30.3769 21.3477L33.1356 24.082C33.3188 24.2578 33.4595 24.4661 33.5577 24.707C33.6559 24.9479 33.705 25.1953 33.705 25.4492C33.705 25.7161 33.6559 25.9668 33.5577 26.2012C33.4595 26.4355 33.3188 26.6406 33.1356 26.8164C32.9523 26.9922 32.7462 27.1289 32.5171 27.2266C32.288 27.3242 32.036 27.3763 31.7612 27.3828C31.5059 27.3828 31.2605 27.334 31.0249 27.2363C30.7892 27.1387 30.5765 26.9987 30.3867 26.8164L24.3491 20.8008C24.1331 20.5859 23.9793 20.3646 23.8877 20.1367C23.7961 19.9089 23.7502 19.6419 23.7502 19.3359C23.7502 19.082 23.8059 18.8444 23.9171 18.623C24.0284 18.4017 24.1724 18.2031 24.3491 18.0273L30.3867 12.0117C30.57 11.8294 30.7827 11.6895 31.0249 11.5918C31.267 11.4941 31.5157 11.4453 31.771 11.4453C32.0393 11.4453 32.2913 11.4974 32.5269 11.6016C32.7625 11.7057 32.9654 11.8457 33.1356 12.0215C33.3057 12.1973 33.4432 12.4023 33.5479 12.6367C33.6526 12.8711 33.705 13.1217 33.705 13.3887C33.705 13.6426 33.6559 13.8867 33.5577 14.1211C33.4595 14.3555 33.3188 14.5638 33.1356 14.7461L30.3769 17.4805L40.6164 17.4805C40.8847 17.4805 41.1367 17.5293 41.3723 17.627C41.6079 17.7246 41.8141 17.8646 41.9908 18.0469C42.1675 18.2292 42.3049 18.4342 42.4031 18.6621C42.5013 18.89 42.5536 19.1406 42.5602 19.4141Z" fill="#A05F83"/>
</svg>
