<svg width="498" height="293" viewBox="0 0 498 293" fill="none" xmlns="http://www.w3.org/2000/svg">
<path d="M235.862 213.536C250.574 213.536 262.5 201.61 262.5 186.898C262.5 172.186 250.574 160.26 235.862 160.26C221.15 160.26 209.224 172.186 209.224 186.898C209.224 201.61 221.15 213.536 235.862 213.536Z" fill="#FD9347"/>
<path d="M235.862 214.036C220.898 214.036 208.724 201.861 208.724 186.897C208.724 171.934 220.898 159.76 235.862 159.76C250.826 159.76 263 171.934 263 186.897C263 201.861 250.826 214.036 235.862 214.036ZM235.862 160.76C221.449 160.76 209.724 172.485 209.724 186.897C209.724 201.311 221.449 213.036 235.862 213.036C250.274 213.036 262 201.311 262 186.897C262 172.485 250.274 160.76 235.862 160.76Z" fill="#2B2A29"/>
<path d="M239.972 190.749C244.59 190.749 247.774 189.792 249.543 187.866C251.313 185.941 252.192 183.592 252.192 180.821C252.192 179.207 251.858 177.716 251.202 176.369C250.545 175.023 249.666 173.965 248.586 173.219C247.507 172.474 246.16 171.962 244.557 171.695C243.411 171.483 241.764 171.383 239.593 171.383H229.836C228.427 171.383 227.284 172.526 227.284 173.935V186.979H222.381C220.809 186.979 219.531 187.806 219.531 188.824C219.531 189.842 220.809 190.669 222.381 190.669H227.284V194.137H223.68C221.731 194.137 220.147 195.07 220.147 196.219C220.147 197.368 221.731 198.301 223.68 198.301H227.284V203.361C227.284 203.361 227.284 204.918 229.329 204.918C231.068 204.918 231.602 203.361 231.602 203.361V198.301H240.902C242.851 198.301 244.435 197.368 244.435 196.219C244.435 195.07 242.851 194.137 240.902 194.137H231.602V190.749H239.972ZM231.602 175.234H239.95C241.908 175.234 243.255 175.334 243.978 175.523C245.102 175.835 246.015 176.481 246.705 177.449C247.395 178.417 247.74 179.586 247.74 180.955C247.74 182.836 247.15 184.305 245.982 185.34C244.813 186.375 242.832 186.898 240.039 186.898H231.602V175.234Z" fill="white"/>
<path d="M229.33 205.418C227.316 205.418 226.784 204.072 226.784 203.36V198.802H223.681C221.419 198.802 219.647 197.667 219.647 196.219C219.647 194.771 221.419 193.637 223.681 193.637H226.784V191.169H222.381C220.503 191.169 219.031 190.139 219.031 188.824C219.031 187.51 220.503 186.479 222.381 186.479H226.784V173.936C226.784 172.252 228.153 170.883 229.836 170.883H239.593C241.827 170.883 243.48 170.987 244.648 171.204C246.306 171.479 247.729 172.02 248.87 172.809C250.022 173.604 250.958 174.729 251.651 176.15C252.342 177.566 252.692 179.139 252.692 180.821C252.692 183.712 251.757 186.196 249.912 188.204C248.029 190.253 244.777 191.249 239.972 191.249H232.102V193.637H240.902C243.164 193.637 244.935 194.771 244.935 196.219C244.935 197.667 243.164 198.802 240.902 198.802H232.102L232.075 203.522C232.048 203.6 231.402 205.418 229.33 205.418ZM223.681 194.637C221.893 194.637 220.647 195.471 220.647 196.219C220.647 196.968 221.893 197.802 223.681 197.802H227.784V203.36C227.789 203.531 227.886 204.418 229.33 204.418C230.508 204.418 230.99 203.519 231.102 203.265V197.802H240.902C242.689 197.802 243.935 196.968 243.935 196.219C243.935 195.471 242.689 194.637 240.902 194.637H231.102V190.249H239.972C244.419 190.249 247.516 189.333 249.175 187.528C250.846 185.71 251.692 183.454 251.692 180.821C251.692 179.292 251.376 177.867 250.752 176.588C250.135 175.323 249.311 174.328 248.302 173.631C247.283 172.927 245.996 172.441 244.475 172.188C243.359 171.982 241.765 171.883 239.593 171.883H229.836C228.705 171.883 227.784 172.804 227.784 173.936V187.479H222.381C221.129 187.479 220.031 188.107 220.031 188.824C220.031 189.541 221.129 190.169 222.381 190.169H227.784V194.637H223.681ZM240.039 187.397H231.102V174.734H239.95C241.934 174.734 243.332 174.837 244.105 175.04C245.345 175.384 246.355 176.096 247.113 177.159C247.861 178.209 248.241 179.486 248.241 180.955C248.241 182.98 247.592 184.581 246.313 185.714C245.052 186.831 242.941 187.397 240.039 187.397ZM232.102 186.397H240.039C242.689 186.397 244.578 185.916 245.65 184.966C246.706 184.03 247.241 182.682 247.241 180.955C247.241 179.698 246.924 178.616 246.298 177.739C245.677 176.868 244.852 176.284 243.845 176.005C243.377 175.883 242.314 175.734 239.95 175.734H232.102V186.397Z" fill="#2B2A29"/>
<path d="M330.4 198.727H414.876C418.141 198.727 420.788 196.08 420.788 192.815V74.9451C420.788 71.6802 418.141 69.0336 414.876 69.0336H330.4C327.135 69.0336 324.489 71.6802 324.489 74.9451V192.815C324.489 196.08 327.135 198.727 330.4 198.727Z" fill="#D1E5FC"/>
<path d="M414.876 199.227H330.4C326.865 199.227 323.989 196.351 323.989 192.815V74.9453C323.989 71.4092 326.865 68.5332 330.4 68.5332H414.876C418.412 68.5332 421.288 71.4092 421.288 74.9453V192.815C421.288 196.351 418.412 199.227 414.876 199.227ZM330.4 69.5332C327.417 69.5332 324.989 71.9609 324.989 74.9453V192.815C324.989 195.799 327.417 198.227 330.4 198.227H414.876C417.86 198.227 420.288 195.799 420.288 192.815V74.9453C420.288 71.9609 417.86 69.5332 414.876 69.5332H330.4Z" fill="#2B2A29"/>
<path d="M364.742 104.677H398.456C399.369 104.677 400.109 103.937 400.109 103.025V102.991C400.109 102.078 399.369 101.339 398.456 101.339H364.742C363.829 101.339 363.089 102.078 363.089 102.991V103.025C363.089 103.937 363.829 104.677 364.742 104.677Z" fill="white"/>
<path d="M398.456 104.927H364.741C363.692 104.927 362.839 104.073 362.839 103.024C362.839 101.942 363.692 101.089 364.741 101.089H398.456C399.505 101.089 400.358 101.942 400.358 102.991C400.358 104.073 399.505 104.927 398.456 104.927ZM364.741 101.589C363.968 101.589 363.339 102.218 363.339 102.991C363.339 103.798 363.968 104.427 364.741 104.427H398.456C399.229 104.427 399.858 103.798 399.858 103.024C399.858 102.218 399.229 101.589 398.456 101.589H364.741Z" fill="#2B2A29"/>
<path d="M364.742 110.326H398.456C399.369 110.326 400.109 109.586 400.109 108.674V108.64C400.109 107.728 399.369 106.988 398.456 106.988H364.742C363.829 106.988 363.089 107.728 363.089 108.64V108.674C363.089 109.586 363.829 110.326 364.742 110.326Z" fill="white"/>
<path d="M398.456 110.576H364.741C363.692 110.576 362.839 109.723 362.839 108.674C362.839 107.591 363.692 106.737 364.741 106.737H398.456C399.505 106.737 400.358 107.591 400.358 108.641C400.358 109.723 399.505 110.576 398.456 110.576ZM364.741 107.237C363.968 107.237 363.339 107.867 363.339 108.641C363.339 109.447 363.968 110.076 364.741 110.076H398.456C399.229 110.076 399.858 109.447 399.858 108.674C399.858 107.867 399.229 107.237 398.456 107.237H364.741Z" fill="#2B2A29"/>
<path d="M364.742 115.975H398.456C399.369 115.975 400.109 115.235 400.109 114.323V114.289C400.109 113.377 399.369 112.637 398.456 112.637H364.742C363.829 112.637 363.089 113.377 363.089 114.289V114.323C363.089 115.235 363.829 115.975 364.742 115.975Z" fill="white"/>
<path d="M398.456 116.226H364.741C363.692 116.226 362.839 115.372 362.839 114.323C362.839 113.24 363.692 112.387 364.741 112.387H398.456C399.505 112.387 400.358 113.24 400.358 114.289C400.358 115.372 399.505 116.226 398.456 116.226ZM364.741 112.887C363.968 112.887 363.339 113.516 363.339 114.289C363.339 115.097 363.968 115.726 364.741 115.726H398.456C399.229 115.726 399.858 115.097 399.858 114.323C399.858 113.516 399.229 112.887 398.456 112.887H364.741Z" fill="#2B2A29"/>
<path d="M364.742 136.167H398.456C399.369 136.167 400.109 135.427 400.109 134.514V134.481C400.109 133.568 399.369 132.828 398.456 132.828H364.742C363.829 132.828 363.089 133.568 363.089 134.481V134.514C363.089 135.427 363.829 136.167 364.742 136.167Z" fill="white"/>
<path d="M398.456 136.417H364.741C363.692 136.417 362.839 135.563 362.839 134.514C362.839 133.432 363.692 132.578 364.741 132.578H398.456C399.505 132.578 400.358 133.432 400.358 134.48C400.358 135.563 399.505 136.417 398.456 136.417ZM364.741 133.078C363.968 133.078 363.339 133.707 363.339 134.48C363.339 135.287 363.968 135.917 364.741 135.917H398.456C399.229 135.917 399.858 135.287 399.858 134.514C399.858 133.707 399.229 133.078 398.456 133.078H364.741Z" fill="#2B2A29"/>
<path d="M364.742 141.816H398.456C399.369 141.816 400.109 141.076 400.109 140.163V140.13C400.109 139.217 399.369 138.477 398.456 138.477H364.742C363.829 138.477 363.089 139.217 363.089 140.13V140.163C363.089 141.076 363.829 141.816 364.742 141.816Z" fill="white"/>
<path d="M398.456 142.065H364.741C363.692 142.065 362.839 141.212 362.839 140.163C362.839 139.08 363.692 138.227 364.741 138.227H398.456C399.505 138.227 400.358 139.08 400.358 140.13C400.358 141.212 399.505 142.065 398.456 142.065ZM364.741 138.727C363.968 138.727 363.339 139.356 363.339 140.13C363.339 140.937 363.968 141.565 364.741 141.565H398.456C399.229 141.565 399.858 140.937 399.858 140.163C399.858 139.356 399.229 138.727 398.456 138.727H364.741Z" fill="#2B2A29"/>
<path d="M364.742 147.465H398.456C399.369 147.465 400.109 146.725 400.109 145.812V145.779C400.109 144.866 399.369 144.126 398.456 144.126H364.742C363.829 144.126 363.089 144.866 363.089 145.779V145.812C363.089 146.725 363.829 147.465 364.742 147.465Z" fill="white"/>
<path d="M398.456 147.715H364.741C363.692 147.715 362.839 146.861 362.839 145.812C362.839 144.729 363.692 143.876 364.741 143.876H398.456C399.505 143.876 400.358 144.729 400.358 145.778C400.358 146.861 399.505 147.715 398.456 147.715ZM364.741 144.376C363.968 144.376 363.339 145.005 363.339 145.778C363.339 146.586 363.968 147.215 364.741 147.215H398.456C399.229 147.215 399.858 146.586 399.858 145.812C399.858 145.005 399.229 144.376 398.456 144.376H364.741Z" fill="#2B2A29"/>
<path d="M364.742 168.414H398.456C399.369 168.414 400.109 167.674 400.109 166.762V166.728C400.109 165.816 399.369 165.076 398.456 165.076H364.742C363.829 165.076 363.089 165.816 363.089 166.728V166.762C363.089 167.674 363.829 168.414 364.742 168.414Z" fill="white"/>
<path d="M398.456 168.664H364.741C363.692 168.664 362.839 167.811 362.839 166.762C362.839 165.679 363.692 164.825 364.741 164.825H398.456C399.505 164.825 400.358 165.679 400.358 166.729C400.358 167.811 399.505 168.664 398.456 168.664ZM364.741 165.325C363.968 165.325 363.339 165.955 363.339 166.729C363.339 167.535 363.968 168.164 364.741 168.164H398.456C399.229 168.164 399.858 167.535 399.858 166.762C399.858 165.955 399.229 165.325 398.456 165.325H364.741Z" fill="#2B2A29"/>
<path d="M364.742 174.063H398.456C399.369 174.063 400.109 173.324 400.109 172.411V172.377C400.109 171.465 399.369 170.725 398.456 170.725H364.742C363.829 170.725 363.089 171.465 363.089 172.377V172.411C363.089 173.324 363.829 174.063 364.742 174.063Z" fill="white"/>
<path d="M398.456 174.313H364.741C363.692 174.313 362.839 173.46 362.839 172.411C362.839 171.328 363.692 170.475 364.741 170.475H398.456C399.505 170.475 400.358 171.328 400.358 172.377C400.358 173.46 399.505 174.313 398.456 174.313ZM364.741 170.975C363.968 170.975 363.339 171.604 363.339 172.377C363.339 173.185 363.968 173.813 364.741 173.813H398.456C399.229 173.813 399.858 173.185 399.858 172.411C399.858 171.604 399.229 170.975 398.456 170.975H364.741Z" fill="#2B2A29"/>
<path d="M364.742 179.713H398.456C399.369 179.713 400.109 178.973 400.109 178.06V178.027C400.109 177.114 399.369 176.374 398.456 176.374H364.742C363.829 176.374 363.089 177.114 363.089 178.027V178.06C363.089 178.973 363.829 179.713 364.742 179.713Z" fill="white"/>
<path d="M398.456 179.963H364.741C363.692 179.963 362.839 179.109 362.839 178.06C362.839 176.978 363.692 176.124 364.741 176.124H398.456C399.505 176.124 400.358 176.978 400.358 178.026C400.358 179.109 399.505 179.963 398.456 179.963ZM364.741 176.624C363.968 176.624 363.339 177.253 363.339 178.026C363.339 178.833 363.968 179.463 364.741 179.463H398.456C399.229 179.463 399.858 178.833 399.858 178.06C399.858 177.253 399.229 176.624 398.456 176.624H364.741Z" fill="#2B2A29"/>
<path d="M339.215 116.84H353.468C355.042 116.84 356.318 115.564 356.318 113.991V103.323C356.318 101.75 355.042 100.474 353.468 100.474H339.215C337.641 100.474 336.366 101.75 336.366 103.323V113.991C336.366 115.564 337.641 116.84 339.215 116.84Z" fill="#62D2D0"/>
<path d="M353.468 117.09H339.215C337.506 117.09 336.116 115.699 336.116 113.99V103.323C336.116 101.614 337.506 100.224 339.215 100.224H353.468C355.177 100.224 356.568 101.614 356.568 103.323V113.99C356.568 115.699 355.177 117.09 353.468 117.09ZM339.215 100.724C337.782 100.724 336.616 101.89 336.616 103.323V113.99C336.616 115.424 337.782 116.59 339.215 116.59H353.468C354.902 116.59 356.068 115.424 356.068 113.99V103.323C356.068 101.89 354.902 100.724 353.468 100.724H339.215Z" fill="#2B2A29"/>
<path d="M339.215 148.785H353.468C355.042 148.785 356.318 147.509 356.318 145.935V135.268C356.318 133.694 355.042 132.419 353.468 132.419H339.215C337.641 132.419 336.366 133.694 336.366 135.268V145.935C336.366 147.509 337.641 148.785 339.215 148.785Z" fill="#62D2D0"/>
<path d="M353.468 149.035H339.215C337.506 149.035 336.116 147.645 336.116 145.936V135.269C336.116 133.56 337.506 132.169 339.215 132.169H353.468C355.177 132.169 356.568 133.56 356.568 135.269V145.936C356.568 147.645 355.177 149.035 353.468 149.035ZM339.215 132.669C337.782 132.669 336.616 133.835 336.616 135.269V145.936C336.616 147.369 337.782 148.535 339.215 148.535H353.468C354.902 148.535 356.068 147.369 356.068 145.936V135.269C356.068 133.835 354.902 132.669 353.468 132.669H339.215Z" fill="#2B2A29"/>
<path d="M339.215 180.73H353.468C355.042 180.73 356.318 179.454 356.318 177.88V167.213C356.318 165.639 355.042 164.364 353.468 164.364H339.215C337.641 164.364 336.366 165.639 336.366 167.213V177.88C336.366 179.454 337.641 180.73 339.215 180.73Z" fill="#62D2D0"/>
<path d="M353.468 180.979H339.215C337.506 180.979 336.116 179.589 336.116 177.88V167.213C336.116 165.504 337.506 164.113 339.215 164.113H353.468C355.177 164.113 356.568 165.504 356.568 167.213V177.88C356.568 179.589 355.177 180.979 353.468 180.979ZM339.215 164.613C337.782 164.613 336.616 165.779 336.616 167.213V177.88C336.616 179.313 337.782 180.479 339.215 180.479H353.468C354.902 180.479 356.068 179.313 356.068 177.88V167.213C356.068 165.779 354.902 164.613 353.468 164.613H339.215Z" fill="#2B2A29"/>
<path d="M415.671 222.805C434.254 222.805 449.319 207.74 449.319 189.157C449.319 170.574 434.254 155.509 415.671 155.509C397.087 155.509 382.022 170.574 382.022 189.157C382.022 207.74 397.087 222.805 415.671 222.805Z" fill="#FFFEFE"/>
<path d="M415.476 219.249C396.921 218.226 382.709 202.355 383.732 183.8C383.943 179.976 384.793 176.341 386.158 172.982C383.811 177.257 382.36 182.11 382.073 187.305C381.05 205.86 395.263 221.731 413.818 222.754C428.549 223.567 441.58 214.771 446.841 201.828C440.805 212.823 428.837 219.986 415.476 219.249Z" fill="#E6F2FE"/>
<path d="M446.585 216.091L439.802 222.301L469.619 254.868L476.402 248.658L446.585 216.091Z" fill="#FD9347"/>
<path d="M469.587 255.574L439.095 222.27L446.616 215.385L477.108 248.688L469.587 255.574ZM440.508 222.332L469.65 254.162L475.695 248.626L446.553 216.797L440.508 222.332Z" fill="#2B2A29"/>
<path d="M450.267 225.41L450.123 225.538C446.168 229.033 445.795 235.072 449.289 239.027L473.486 266.412C476.981 270.367 483.02 270.74 486.975 267.246L487.119 267.118C491.074 263.623 491.447 257.584 487.953 253.629L463.756 226.244C460.261 222.289 454.222 221.916 450.267 225.41Z" fill="#52728D"/>
<path d="M480.65 270.141C480.65 270.141 480.65 270.141 480.65 270.141C477.767 270.141 475.019 268.902 473.111 266.743L448.915 239.357C447.136 237.345 446.248 234.76 446.413 232.078C446.579 229.397 447.779 226.941 449.792 225.163L449.936 225.036C451.775 223.41 454.139 222.516 456.591 222.516C459.475 222.516 462.223 223.754 464.13 225.913L488.327 253.298C491.999 257.453 491.605 263.82 487.45 267.493L487.303 267.621C485.466 269.245 483.102 270.141 480.65 270.141ZM456.591 223.516C454.383 223.516 452.255 224.321 450.598 225.785L450.454 225.912C448.641 227.515 447.561 229.726 447.411 232.141C447.262 234.555 448.062 236.883 449.664 238.695L473.86 266.081C475.579 268.025 478.053 269.141 480.65 269.141C482.858 269.141 484.986 268.335 486.643 266.87L486.79 266.742C490.53 263.437 490.884 257.702 487.578 253.96L463.381 226.575C461.663 224.631 459.188 223.516 456.591 223.516Z" fill="#2B2A29"/>
<path d="M487.558 265.726L487.416 265.851C483.531 269.284 477.599 268.917 474.167 265.032L450.399 238.133C447.55 234.909 447.326 230.28 449.55 226.835C446.541 230.335 446.49 235.6 449.632 239.156L473.4 266.056C476.832 269.94 482.764 270.307 486.649 266.874L486.791 266.749C487.452 266.165 488.003 265.504 488.459 264.797C488.181 265.121 487.887 265.435 487.558 265.726Z" fill="#4A6484"/>
<path d="M417.528 155.476C436.1 156.5 450.376 172.442 449.352 191.014C448.328 209.586 432.386 223.862 413.814 222.838C395.242 221.814 380.966 205.872 381.99 187.3C383.014 168.728 398.956 154.452 417.528 155.476ZM418.04 146.191C394.31 144.882 374.013 163.058 372.705 186.788C371.396 210.518 389.572 230.815 413.302 232.123C437.031 233.432 457.329 215.256 458.637 191.526C459.946 167.797 441.77 147.499 418.04 146.191Z" fill="#62D2D0"/>
<path d="M415.713 232.689C415.712 232.689 415.71 232.689 415.709 232.689C414.901 232.689 414.081 232.667 413.274 232.622C401.664 231.982 390.998 226.859 383.241 218.197C375.485 209.535 371.565 198.371 372.205 186.761C373.477 163.693 392.553 145.624 415.633 145.624C416.439 145.624 417.259 145.646 418.067 145.691C429.678 146.331 440.344 151.455 448.1 160.117C455.857 168.779 459.777 179.944 459.136 191.554C457.865 214.621 438.791 232.689 415.713 232.689ZM415.633 146.624C393.083 146.624 374.447 164.278 373.203 186.815C372.578 198.159 376.407 209.067 383.986 217.53C391.565 225.993 401.986 230.999 413.329 231.624C414.125 231.668 414.921 231.689 415.709 231.689C438.259 231.691 456.895 214.038 458.138 191.499C458.763 180.155 454.934 169.247 447.355 160.784C439.777 152.32 429.356 147.315 418.012 146.689C417.216 146.646 416.42 146.624 415.633 146.624ZM415.692 223.39C415.059 223.39 414.426 223.372 413.786 223.337C404.671 222.835 396.287 218.803 390.181 211.983C384.074 205.164 380.988 196.388 381.491 187.272C382.526 168.501 398.587 153.95 417.555 154.977C436.403 156.016 450.89 172.195 449.851 191.042C448.851 209.181 433.846 223.39 415.692 223.39ZM415.651 155.924C398.026 155.924 383.46 169.718 382.489 187.327C382.001 196.177 384.997 204.695 390.926 211.316C396.854 217.937 404.992 221.851 413.841 222.339C432.282 223.354 447.848 209.209 448.853 190.987C449.862 172.69 435.797 156.984 417.501 155.975C416.881 155.94 416.264 155.924 415.651 155.924Z" fill="#2B2A29"/>
<path d="M392.107 179.221C392.023 179.221 391.939 179.213 391.853 179.197C391.108 179.058 390.617 178.343 390.755 177.597C390.815 177.272 392.297 169.603 398.148 166.055C401.37 164.102 405.232 163.795 409.626 165.141C410.351 165.362 410.76 166.131 410.537 166.856C410.315 167.582 409.544 167.988 408.821 167.768C405.214 166.663 402.106 166.873 399.585 168.397C394.79 171.294 393.469 178.032 393.456 178.101C393.332 178.76 392.755 179.221 392.107 179.221Z" fill="#2B2A29"/>
<path d="M405.616 172.008C405.298 172.008 404.979 171.898 404.719 171.674C404.145 171.179 404.081 170.311 404.577 169.736L407.382 166.485L404.091 162.921C403.577 162.363 403.611 161.494 404.169 160.98C404.727 160.465 405.596 160.5 406.111 161.058L411.065 166.423L406.657 171.531C406.385 171.847 406.002 172.008 405.616 172.008Z" fill="#2B2A29"/>
<path d="M401.24 186.963C400.245 186.963 399.207 186.874 398.126 186.696C397.378 186.573 396.87 185.866 396.993 185.118C397.117 184.369 397.822 183.859 398.573 183.985C402.301 184.6 405.357 183.97 407.652 182.115C412.027 178.582 412.411 171.759 412.414 171.69C412.451 170.933 413.089 170.343 413.854 170.386C414.612 170.423 415.196 171.067 415.159 171.825C415.142 172.155 414.701 179.955 409.379 184.253C407.146 186.057 404.417 186.963 401.24 186.963Z" fill="#2B2A29"/>
<path d="M403.031 190.588C402.723 190.588 402.413 190.484 402.157 190.273L396.529 185.618L400.213 179.967C400.627 179.331 401.478 179.152 402.114 179.565C402.75 179.981 402.929 180.831 402.515 181.467L400.17 185.064L403.908 188.155C404.493 188.639 404.575 189.505 404.091 190.09C403.819 190.418 403.427 190.588 403.031 190.588Z" fill="#2B2A29"/>
<path d="M422.882 150.42C422.838 150.42 422.794 150.419 422.75 150.415C420.001 150.197 417.551 150.12 415.929 150.069C413.759 150.002 412.564 149.964 412.479 148.404C412.46 148.043 412.527 146.848 414.203 146.613C414.529 146.568 414.843 146.619 415.119 146.748C415.392 146.758 415.715 146.768 416.032 146.777C417.685 146.829 420.183 146.908 423.01 147.132C423.917 147.204 424.594 147.997 424.522 148.903C424.453 149.766 423.732 150.42 422.882 150.42Z" fill="white"/>
<path d="M455.136 181.359C454.324 181.359 453.617 180.759 453.506 179.933C450.912 160.628 427.48 151.516 427.244 151.427C426.393 151.104 425.966 150.153 426.289 149.303C426.612 148.454 427.563 148.024 428.413 148.349C429.453 148.743 453.918 158.266 456.771 179.493C456.892 180.394 456.259 181.224 455.358 181.345C455.283 181.355 455.209 181.359 455.136 181.359Z" fill="white"/>
<path d="M489.873 246.558C489.71 246.558 489.547 246.49 489.43 246.357L483.704 239.857C483.489 239.612 483.513 239.239 483.757 239.023C484.001 238.81 484.375 238.831 484.591 239.076L490.317 245.576C490.532 245.821 490.509 246.194 490.264 246.41C490.152 246.509 490.013 246.558 489.873 246.558Z" fill="#2B2A29"/>
<path d="M494.242 268.756C494.076 268.756 493.911 268.686 493.794 268.551C493.582 268.304 493.609 267.931 493.856 267.718C498.89 263.374 493.32 252.106 493.264 251.993C493.117 251.702 493.235 251.347 493.527 251.2C493.818 251.055 494.173 251.172 494.319 251.464C494.568 251.96 500.351 263.674 494.627 268.612C494.516 268.709 494.378 268.756 494.242 268.756Z" fill="#2B2A29"/>
<path d="M346.38 112.784L347.465 112.65L347.477 112.665L348.485 113.98L350.818 112.191L349.82 110.89L349.798 110.861L350.307 109.562L350.377 109.552L351.966 109.327L351.554 106.417L349.992 106.638L349.894 106.652C349.894 106.652 349.671 106.332 349.521 106.134C349.356 105.917 349.176 105.626 349.176 105.626L349.196 105.578L349.804 104.073L347.08 102.97L346.504 104.394L346.454 104.517C345.995 104.495 345.53 104.549 345.081 104.683L344.997 104.576L344.056 103.379L341.746 105.197L342.669 106.369L342.752 106.475C342.515 106.863 342.347 107.283 342.25 107.718L342.116 107.736L340.718 107.936L341.133 110.845L342.542 110.645L342.676 110.625C342.767 110.788 342.869 110.945 342.985 111.097C343.176 111.349 343.39 111.571 343.623 111.766L343.575 111.889L343.033 113.276L345.771 114.345L346.357 112.843L346.38 112.784ZM344.668 109.819C344.003 108.944 344.174 107.695 345.05 107.03C345.925 106.366 347.173 106.537 347.838 107.412C348.503 108.288 348.332 109.536 347.457 110.201C346.581 110.866 345.332 110.695 344.668 109.819Z" fill="#507097"/>
<path d="M345.85 114.525L342.853 113.355L343.457 111.807C343.242 111.618 343.046 111.408 342.874 111.181C342.777 111.054 342.686 110.918 342.602 110.777L341.015 111.003L340.561 107.818L342.136 107.593C342.232 107.205 342.382 106.833 342.583 106.486L342.559 106.455L341.55 105.174L344.079 103.184L345.132 104.523C345.531 104.414 345.943 104.364 346.362 104.375L346.375 104.342L347.003 102.789L349.985 103.996L349.332 105.612C349.392 105.707 349.517 105.898 349.632 106.05C349.741 106.193 349.885 106.396 349.959 106.502L349.972 106.5L351.672 106.259L352.123 109.446L350.407 109.688L349.956 110.839L351.013 112.217L348.459 114.175L347.403 112.798L346.48 112.912L345.85 114.525ZM343.214 113.197L345.692 114.164L346.281 112.656L347.528 112.502L347.588 112.581L348.511 113.785L350.623 112.165L349.64 110.883L350.207 109.436L350.357 109.414L351.808 109.209L351.435 106.574L349.829 106.802L349.78 106.732C349.778 106.728 349.557 106.411 349.411 106.219C349.243 105.998 349.065 105.712 349.058 105.7L349.02 105.64L349.623 104.149L347.156 103.151L346.546 104.661L346.447 104.656C345.998 104.634 345.548 104.688 345.12 104.816L345.03 104.843L344.032 103.575L341.941 105.22L342.921 106.465L342.871 106.548C342.643 106.92 342.48 107.324 342.385 107.748L342.364 107.842L342.136 107.874L340.876 108.054L341.251 110.688L342.751 110.474L342.797 110.557C342.887 110.718 342.988 110.871 343.096 111.013C343.275 111.25 343.483 111.467 343.712 111.659L343.789 111.723L343.214 113.197ZM346.254 110.745C345.582 110.745 344.963 110.438 344.557 109.904C343.847 108.968 344.03 107.629 344.965 106.919C345.339 106.636 345.783 106.486 346.251 106.486C346.924 106.486 347.543 106.793 347.949 107.328C348.659 108.263 348.476 109.602 347.541 110.312C347.167 110.595 346.722 110.745 346.254 110.745ZM346.251 106.764C345.845 106.764 345.458 106.895 345.134 107.141C344.321 107.758 344.161 108.922 344.779 109.735C345.132 110.2 345.669 110.467 346.254 110.467C346.661 110.467 347.048 110.336 347.373 110.09C348.185 109.473 348.345 108.309 347.727 107.496C347.374 107.031 346.836 106.764 346.251 106.764Z" fill="#52505B"/>
<path d="M349.82 110.89C350.084 110.476 350.271 110.022 350.377 109.552C350.596 108.587 350.476 107.551 349.992 106.638C349.886 106.439 349.762 106.244 349.621 106.059C349.489 105.885 349.347 105.725 349.196 105.578C348.453 104.857 347.491 104.453 346.504 104.394C346 104.364 345.49 104.423 344.997 104.576C344.54 104.718 344.099 104.941 343.696 105.247C343.276 105.566 342.932 105.948 342.669 106.369C342.403 106.793 342.218 107.257 342.116 107.736C341.911 108.704 342.045 109.738 342.542 110.645C342.642 110.826 342.756 111.003 342.885 111.173C343.091 111.444 343.322 111.683 343.575 111.889C344.369 112.541 345.361 112.867 346.357 112.843C346.734 112.835 347.111 112.775 347.477 112.665C347.945 112.523 348.397 112.297 348.81 111.984C349.221 111.672 349.559 111.3 349.82 110.89ZM344.668 109.819C344.003 108.944 344.174 107.695 345.05 107.03C345.925 106.366 347.173 106.536 347.838 107.412C348.503 108.287 348.332 109.536 347.457 110.201C346.581 110.866 345.332 110.695 344.668 109.819Z" fill="#507097"/>
<path d="M346.255 112.984C345.245 112.984 344.262 112.633 343.486 111.997C343.223 111.781 342.983 111.533 342.774 111.257C342.643 111.085 342.524 110.901 342.42 110.711C341.919 109.798 341.763 108.731 341.98 107.708C342.087 107.205 342.279 106.73 342.551 106.295C342.83 105.849 343.187 105.459 343.612 105.136C344.02 104.827 344.472 104.593 344.956 104.443C345.374 104.313 345.81 104.248 346.25 104.248C346.337 104.248 346.425 104.25 346.512 104.255C347.558 104.318 348.546 104.752 349.293 105.478C349.452 105.633 349.6 105.8 349.732 105.975C349.876 106.164 350.004 106.365 350.115 106.573C350.603 107.493 350.744 108.562 350.512 109.583C350.401 110.076 350.208 110.541 349.937 110.965C349.661 111.399 349.31 111.779 348.894 112.094C348.477 112.411 348.014 112.648 347.517 112.798C347.142 112.911 346.753 112.973 346.36 112.983C346.325 112.983 346.29 112.984 346.255 112.984ZM346.25 104.526C345.838 104.526 345.43 104.588 345.038 104.709C344.585 104.85 344.162 105.068 343.78 105.358C343.382 105.66 343.048 106.025 342.787 106.443C342.532 106.85 342.352 107.295 342.253 107.765C342.049 108.724 342.195 109.723 342.664 110.578C342.761 110.755 342.873 110.927 342.996 111.089C343.191 111.347 343.416 111.58 343.663 111.781C344.389 112.377 345.31 112.705 346.255 112.705H346.255C346.288 112.705 346.321 112.705 346.354 112.704C346.721 112.696 347.085 112.638 347.436 112.532C347.902 112.391 348.336 112.169 348.726 111.873C349.115 111.577 349.444 111.221 349.702 110.815C349.956 110.419 350.137 109.983 350.241 109.521C350.458 108.565 350.326 107.564 349.869 106.704C349.766 106.509 349.645 106.32 349.51 106.143C349.386 105.979 349.248 105.823 349.098 105.677C348.399 104.998 347.475 104.592 346.496 104.533C346.414 104.528 346.332 104.526 346.25 104.526ZM346.254 110.745C345.582 110.745 344.963 110.438 344.557 109.904C344.213 109.45 344.066 108.89 344.143 108.327C344.22 107.763 344.512 107.263 344.965 106.919C345.339 106.636 345.783 106.486 346.251 106.486C346.924 106.486 347.543 106.793 347.949 107.328C348.293 107.781 348.44 108.341 348.363 108.904C348.286 109.468 347.994 109.968 347.541 110.312C347.167 110.595 346.722 110.745 346.254 110.745ZM346.251 106.764C345.845 106.764 345.458 106.895 345.134 107.141C344.74 107.44 344.486 107.875 344.419 108.365C344.352 108.855 344.479 109.341 344.779 109.735C345.132 110.2 345.669 110.467 346.254 110.467C346.661 110.467 347.048 110.336 347.373 110.09C347.766 109.791 348.02 109.357 348.087 108.867C348.154 108.377 348.026 107.89 347.727 107.496C347.374 107.031 346.836 106.764 346.251 106.764Z" fill="#52505B"/>
<path d="M426.468 94.2148C426.142 94.2148 425.877 93.9502 425.877 93.624V74.6934C425.877 68.6709 420.977 63.7705 414.954 63.7705H385.875C385.549 63.7705 385.285 63.5059 385.285 63.1797C385.285 62.8535 385.549 62.5889 385.875 62.5889H414.954C421.628 62.5889 427.059 68.0186 427.059 74.6934V93.624C427.059 93.9502 426.794 94.2148 426.468 94.2148Z" fill="#2B2A29"/>
<path d="M426.468 120.186C426.142 120.186 425.877 119.921 425.877 119.595V107.003C425.877 106.677 426.142 106.412 426.468 106.412C426.794 106.412 427.059 106.677 427.059 107.003V119.595C427.059 119.921 426.794 120.186 426.468 120.186Z" fill="#2B2A29"/>
<path d="M317.594 109.546C317.268 109.546 317.003 109.281 317.003 108.955V72.7275C317.003 72.4014 317.268 72.1367 317.594 72.1367C317.92 72.1367 318.185 72.4014 318.185 72.7275V108.955C318.185 109.281 317.92 109.546 317.594 109.546Z" fill="#2B2A29"/>
<path d="M317.594 127.978C317.268 127.978 317.003 127.713 317.003 127.387V118.96C317.003 118.634 317.268 118.369 317.594 118.369C317.92 118.369 318.185 118.634 318.185 118.96V127.387C318.185 127.713 317.92 127.978 317.594 127.978Z" fill="#2B2A29"/>
<path d="M386.259 228.437C386.129 228.437 385.998 228.394 385.888 228.306C379.407 223.061 374.311 216.18 371.15 208.407C371.027 208.104 371.172 207.76 371.475 207.638C371.778 207.514 372.122 207.659 372.245 207.962C375.33 215.551 380.305 222.268 386.631 227.388C386.885 227.593 386.924 227.965 386.719 228.219C386.602 228.362 386.432 228.437 386.259 228.437Z" fill="#2B2A29"/>
<path d="M417.221 239.409C409.382 239.409 401.538 237.515 394.528 233.925C394.237 233.776 394.123 233.421 394.271 233.13C394.419 232.84 394.777 232.724 395.066 232.874C401.91 236.377 409.568 238.227 417.221 238.227C417.265 238.227 417.307 238.227 417.351 238.227C417.351 238.227 417.352 238.227 417.352 238.227C417.678 238.227 417.942 238.491 417.943 238.816C417.944 239.143 417.68 239.408 417.353 239.409C417.31 239.409 417.265 239.409 417.221 239.409Z" fill="#2B2A29"/>
<path d="M427.133 238.392C426.859 238.392 426.613 238.2 426.555 237.921C426.489 237.602 426.694 237.289 427.013 237.223C429.218 236.765 431.415 236.145 433.543 235.384C433.85 235.269 434.188 235.433 434.298 235.74C434.408 236.047 434.248 236.386 433.941 236.495C431.761 237.276 429.511 237.91 427.254 238.379C427.213 238.388 427.172 238.392 427.133 238.392Z" fill="#2B2A29"/>
<path d="M192.373 15.5723H16.9617V128.496H192.373V15.5723Z" fill="#E2F0FC"/>
<path d="M193.018 129.141H16.3174V14.9277H193.018V129.141ZM17.6064 127.852H191.729V16.2168H17.6064V127.852Z" fill="#2B2A29"/>
<path d="M175.323 111.678H31.4504C28.5075 111.678 26.1218 109.363 26.1218 106.508V84.9654C26.1218 82.11 28.5075 79.7953 31.4504 79.7953H175.323C178.266 79.7953 180.652 82.11 180.652 84.9654V106.508C180.652 109.363 178.266 111.678 175.323 111.678Z" fill="#D1E5FC"/>
<path d="M189.472 122.136H19.863V24.5548C19.863 19.6555 23.8347 15.6838 28.734 15.6838H180.601C185.5 15.6838 189.472 19.6555 189.472 24.5548V122.136ZM11.1594 15.8512V122.136H198.176V15.8512C198.176 10.9519 194.204 6.98022 189.305 6.98022H20.0304C15.1311 6.98022 11.1594 10.9519 11.1594 15.8512Z" fill="#52728D"/>
<path d="M198.676 122.636H10.6592V15.8516C10.6592 10.6846 14.8628 6.48047 20.0303 6.48047H189.305C194.472 6.48047 198.676 10.6846 198.676 15.8516V122.636ZM189.972 121.636H197.676V15.8516C197.676 11.2354 193.92 7.48047 189.305 7.48047H20.0303C15.4146 7.48047 11.6592 11.2354 11.6592 15.8516V121.636H19.3628V24.5547C19.3628 19.3877 23.5664 15.1836 28.7339 15.1836H180.601C185.769 15.1836 189.972 19.3877 189.972 24.5547V121.636ZM20.3628 121.636H188.972V24.5547C188.972 19.9385 185.217 16.1836 180.601 16.1836H28.7339C24.1182 16.1836 20.3628 19.9385 20.3628 24.5547V121.636Z" fill="#2B2A29"/>
<path d="M188.7 7.40198H184.247C189.11 7.40198 193.053 11.3446 193.053 16.208V121.714H197.506V16.208C197.506 11.3446 193.563 7.40198 188.7 7.40198Z" fill="#4C6379"/>
<path d="M121.294 11.1644C121.294 12.7359 120.02 14.0098 118.448 14.0098H98.363C96.7915 14.0098 95.5176 12.7359 95.5176 11.1644C95.5176 9.59291 96.7915 8.31897 98.363 8.31897H118.448C120.02 8.31897 121.294 9.59291 121.294 11.1644Z" fill="#52728D"/>
<path d="M118.448 14.5098H98.3628C96.5181 14.5098 95.0176 13.0088 95.0176 11.1641C95.0176 9.31934 96.5181 7.81934 98.3628 7.81934H118.448C120.293 7.81934 121.793 9.31934 121.793 11.1641C121.793 13.0088 120.293 14.5098 118.448 14.5098ZM98.3628 8.81934C97.0698 8.81934 96.0176 9.87109 96.0176 11.1641C96.0176 12.457 97.0698 13.5098 98.3628 13.5098H118.448C119.741 13.5098 120.793 12.457 120.793 11.1641C120.793 9.87109 119.741 8.81934 118.448 8.81934H98.3628Z" fill="#2B2A29"/>
<path d="M124.53 13.6751C125.885 13.6751 126.984 12.576 126.984 11.2202C126.984 9.86446 125.885 8.76538 124.53 8.76538C123.174 8.76538 122.075 9.86446 122.075 11.2202C122.075 12.576 123.174 13.6751 124.53 13.6751Z" fill="#52728D"/>
<path d="M124.53 14.1748C122.9 14.1748 121.575 12.8496 121.575 11.2207C121.575 9.59082 122.9 8.26562 124.53 8.26562C126.159 8.26562 127.484 9.59082 127.484 11.2207C127.484 12.8496 126.159 14.1748 124.53 14.1748ZM124.53 9.26562C123.452 9.26562 122.575 10.1426 122.575 11.2207C122.575 12.2979 123.452 13.1748 124.53 13.1748C125.607 13.1748 126.484 12.2979 126.484 11.2207C126.484 10.1426 125.607 9.26562 124.53 9.26562Z" fill="#2B2A29"/>
<path d="M34.2719 30.4835H53.1051C54.1615 30.4835 55.0179 31.3399 55.0179 32.3963V46.8155C55.0179 47.8719 54.1615 48.7282 53.1051 48.7282H34.2719C33.2155 48.7282 32.3591 47.8719 32.3591 46.8155V32.3963C32.3591 31.3399 33.2155 30.4835 34.2719 30.4835Z" fill="#2A99A7"/>
<path d="M53.105 48.9785H34.272C33.0796 48.9785 32.1094 48.0078 32.1094 46.8154V32.3965C32.1094 31.2041 33.0796 30.2334 34.272 30.2334H53.105C54.2979 30.2334 55.2681 31.2041 55.2681 32.3965V46.8154C55.2681 48.0078 54.2979 48.9785 53.105 48.9785ZM34.272 30.7334C33.355 30.7334 32.6094 31.4795 32.6094 32.3965V46.8154C32.6094 47.7324 33.355 48.4785 34.272 48.4785H53.105C54.022 48.4785 54.7681 47.7324 54.7681 46.8154V32.3965C54.7681 31.4795 54.022 30.7334 53.105 30.7334H34.272Z" fill="#2B2A29"/>
<path d="M34.2719 57.4197H53.1051C54.1615 57.4197 55.0179 58.276 55.0179 59.3324V73.7516C55.0179 74.808 54.1615 75.6644 53.1051 75.6644H34.2719C33.2155 75.6644 32.3591 74.808 32.3591 73.7516V59.3324C32.3591 58.276 33.2155 57.4197 34.2719 57.4197Z" fill="#2A99A7"/>
<path d="M53.105 75.9141H34.272C33.0796 75.9141 32.1094 74.9443 32.1094 73.752V59.332C32.1094 58.1396 33.0796 57.1699 34.272 57.1699H53.105C54.2979 57.1699 55.2681 58.1396 55.2681 59.332V73.752C55.2681 74.9443 54.2979 75.9141 53.105 75.9141ZM34.272 57.6699C33.355 57.6699 32.6094 58.416 32.6094 59.332V73.752C32.6094 74.668 33.355 75.4141 34.272 75.4141H53.105C54.022 75.4141 54.7681 74.668 54.7681 73.752V59.332C54.7681 58.416 54.022 57.6699 53.105 57.6699H34.272Z" fill="#2B2A29"/>
<path d="M157.842 59.3154H172.761C173.598 59.3154 174.276 59.9938 174.276 60.8307V72.2533C174.276 73.0902 173.598 73.7686 172.761 73.7686H157.842C157.005 73.7686 156.326 73.0902 156.326 72.2533V60.8307C156.326 59.9938 157.005 59.3154 157.842 59.3154Z" fill="#FBAA6C"/>
<path d="M172.761 74.0186H157.842C156.868 74.0186 156.076 73.2266 156.076 72.2529V60.8311C156.076 59.8574 156.868 59.0654 157.842 59.0654H172.761C173.734 59.0654 174.526 59.8574 174.526 60.8311V72.2529C174.526 73.2266 173.734 74.0186 172.761 74.0186ZM157.842 59.5654C157.144 59.5654 156.576 60.1328 156.576 60.8311V72.2529C156.576 72.9512 157.144 73.5186 157.842 73.5186H172.761C173.458 73.5186 174.026 72.9512 174.026 72.2529V60.8311C174.026 60.1328 173.458 59.5654 172.761 59.5654H157.842Z" fill="#2B2A29"/>
<path d="M157.842 86.2515H172.761C173.598 86.2515 174.276 86.9299 174.276 87.7667V99.1894C174.276 100.026 173.598 100.705 172.761 100.705H157.842C157.005 100.705 156.326 100.026 156.326 99.1894V87.7667C156.326 86.9299 157.005 86.2515 157.842 86.2515Z" fill="#FBAA6C"/>
<path d="M172.761 100.955H157.842C156.868 100.955 156.076 100.163 156.076 99.1895V87.7666C156.076 86.7939 156.868 86.002 157.842 86.002H172.761C173.734 86.002 174.526 86.7939 174.526 87.7666V99.1895C174.526 100.163 173.734 100.955 172.761 100.955ZM157.842 86.502C157.144 86.502 156.576 87.0693 156.576 87.7666V99.1895C156.576 99.8877 157.144 100.455 157.842 100.455H172.761C173.458 100.455 174.026 99.8877 174.026 99.1895V87.7666C174.026 87.0693 173.458 86.502 172.761 86.502H157.842Z" fill="#2B2A29"/>
<path d="M157.842 32.3793H172.761C173.598 32.3793 174.276 33.0577 174.276 33.8945V45.3172C174.276 46.154 173.598 46.8324 172.761 46.8324H157.842C157.005 46.8324 156.326 46.154 156.326 45.3172V33.8945C156.326 33.0577 157.005 32.3793 157.842 32.3793Z" fill="#FBAA6C"/>
<path d="M172.761 47.082H157.842C156.868 47.082 156.076 46.29 156.076 45.3174V33.8945C156.076 32.9209 156.868 32.1289 157.842 32.1289H172.761C173.734 32.1289 174.526 32.9209 174.526 33.8945V45.3174C174.526 46.29 173.734 47.082 172.761 47.082ZM157.842 32.6289C157.144 32.6289 156.576 33.1963 156.576 33.8945V45.3174C156.576 46.0146 157.144 46.582 157.842 46.582H172.761C173.458 46.582 174.026 46.0146 174.026 45.3174V33.8945C174.026 33.1963 173.458 32.6289 172.761 32.6289H157.842Z" fill="#2B2A29"/>
<path d="M32.1603 82.3101H55.2168C56.51 82.3101 57.5584 83.3585 57.5584 84.6517V102.304C57.5584 103.598 56.51 104.646 55.2168 104.646H32.1603C30.867 104.646 29.8186 103.598 29.8186 102.304V84.6517C29.8186 83.3585 30.867 82.3101 32.1603 82.3101Z" fill="#43B3BD"/>
<path d="M55.2168 104.896H32.1602C30.7314 104.896 29.5688 103.733 29.5688 102.305V84.6514C29.5688 83.2227 30.7314 82.0605 32.1602 82.0605H55.2168C56.646 82.0605 57.8086 83.2227 57.8086 84.6514V102.305C57.8086 103.733 56.646 104.896 55.2168 104.896ZM32.1602 82.5605C31.0068 82.5605 30.0688 83.498 30.0688 84.6514V102.305C30.0688 103.458 31.0068 104.396 32.1602 104.396H55.2168C56.3701 104.396 57.3086 103.458 57.3086 102.305V84.6514C57.3086 83.498 56.3701 82.5605 55.2168 82.5605H32.1602Z" fill="#2B2A29"/>
<path d="M45.3013 94.4974C47.1136 94.4974 48.3625 94.1219 49.0569 93.3665C49.7512 92.611 50.0962 91.6895 50.0962 90.6022C50.0962 89.969 49.9651 89.3838 49.7075 88.8555C49.4499 88.3271 49.1049 87.9123 48.6813 87.6196C48.2578 87.327 47.7294 87.1261 47.1004 87.0214C46.6507 86.9384 46.0045 86.899 45.1528 86.899H41.3245C40.7715 86.899 40.3232 87.3475 40.3232 87.9004V93.0185H38.3995C37.7825 93.0185 37.2812 93.3428 37.2812 93.7423C37.2812 94.1416 37.7825 94.4661 38.3995 94.4661H40.3232V95.8268H38.9092C38.1443 95.8268 37.5228 96.193 37.5228 96.6438C37.5228 97.0946 38.1443 97.4608 38.9092 97.4608H40.3232V99.4459C40.3232 99.4459 40.3232 100.057 41.1257 100.057C41.8079 100.057 42.0174 99.4459 42.0174 99.4459V97.4608H45.6662C46.4312 97.4608 47.0526 97.0946 47.0526 96.6438C47.0526 96.193 46.4312 95.8268 45.6662 95.8268H42.0174V94.4974H45.3013ZM42.0174 88.41H45.2926C46.0612 88.41 46.5896 88.4493 46.8734 88.5235C47.3144 88.6458 47.6726 88.8991 47.9433 89.279C48.2141 89.659 48.3495 90.1175 48.3495 90.6546C48.3495 91.3926 48.118 91.9691 47.6595 92.3752C47.2009 92.7813 46.4236 92.9865 45.3276 92.9865H42.0174V88.41Z" fill="white"/>
<path d="M41.1255 100.307C40.2622 100.307 40.0732 99.6855 40.0732 99.4463V97.7109H38.9092C37.9912 97.7109 37.2725 97.2422 37.2725 96.6436C37.2725 96.0459 37.9912 95.5771 38.9092 95.5771H40.0732V94.7158H38.3994C37.6323 94.7158 37.0312 94.2881 37.0312 93.7422C37.0312 93.1963 37.6323 92.7686 38.3994 92.7686H40.0732V87.9004C40.0732 87.2109 40.6343 86.6494 41.3242 86.6494H45.1528C46.0337 86.6494 46.6855 86.6904 47.1455 86.7754C47.8022 86.8848 48.3682 87.0996 48.8232 87.4131C49.2827 87.7314 49.6558 88.1797 49.9321 88.7461C50.207 89.3096 50.3462 89.9346 50.3462 90.6025C50.3462 91.751 49.9741 92.7383 49.2407 93.5352C48.4917 94.3506 47.2031 94.7471 45.3013 94.7471H42.2671V95.5771H45.666C46.584 95.5771 47.3027 96.0459 47.3027 96.6436C47.3027 97.2422 46.584 97.7109 45.666 97.7109H42.2671L42.2534 99.5273C42.2427 99.5596 41.9766 100.307 41.1255 100.307ZM38.9092 96.0771C38.2588 96.0771 37.7725 96.376 37.7725 96.6436C37.7725 96.9111 38.2588 97.2109 38.9092 97.2109H40.5732V99.4463C40.5762 99.5273 40.6255 99.8066 41.1255 99.8066C41.543 99.8066 41.7178 99.5059 41.7671 99.3975V97.2109H45.666C46.3164 97.2109 46.8027 96.9111 46.8027 96.6436C46.8027 96.376 46.3164 96.0771 45.666 96.0771H41.7671V94.2471H45.3013C47.0308 94.2471 48.2324 93.8936 48.8726 93.1973C49.5186 92.4951 49.8462 91.6221 49.8462 90.6025C49.8462 90.0107 49.7241 89.46 49.4829 88.9648C49.2446 88.4766 48.9268 88.0928 48.5391 87.8252C48.145 87.5527 47.647 87.3652 47.0591 87.2686C46.625 87.1885 46.0029 87.1494 45.1528 87.1494H41.3242C40.9102 87.1494 40.5732 87.4863 40.5732 87.9004V93.2686H38.3994C37.8877 93.2686 37.5312 93.5186 37.5312 93.7422C37.5312 93.9658 37.8877 94.2158 38.3994 94.2158H40.5732V96.0771H38.9092ZM45.3276 93.2363H41.7671V88.1602H45.2925C46.0864 88.1602 46.624 88.2002 46.9365 88.2812C47.4355 88.4199 47.8418 88.7061 48.147 89.1338C48.4468 89.5557 48.5991 90.0674 48.5991 90.6543C48.5991 91.4648 48.3389 92.1074 47.8252 92.5625C47.313 93.0156 46.4961 93.2363 45.3276 93.2363ZM42.2671 92.7363H45.3276C46.354 92.7363 47.0825 92.5518 47.4932 92.1875C47.8955 91.832 48.0991 91.3154 48.0991 90.6543C48.0991 90.166 47.9814 89.7637 47.7397 89.4238C47.5029 89.0918 47.189 88.8701 46.8066 88.7646C46.6265 88.7178 46.2144 88.6602 45.2925 88.6602H42.2671V92.7363Z" fill="#2B2A29"/>
<path d="M44.99 67.3647C46.4527 67.3647 47.4606 67.0617 48.0211 66.452C48.5814 65.8422 48.8599 65.0985 48.8599 64.221C48.8599 63.7099 48.7541 63.2376 48.5462 62.8112C48.3383 62.3847 48.0599 62.0499 47.7179 61.8137C47.3761 61.5776 46.9497 61.4155 46.4421 61.3309C46.0791 61.2639 45.5575 61.2322 44.8702 61.2322H41.7803C41.334 61.2322 40.9722 61.5941 40.9722 62.0404V66.1711H39.4196C38.9216 66.1711 38.5171 66.4329 38.5171 66.7553C38.5171 67.0776 38.9216 67.3395 39.4196 67.3395H40.9722V68.4377H39.831C39.2136 68.4377 38.7121 68.7333 38.7121 69.0971C38.7121 69.4609 39.2136 69.7565 39.831 69.7565H40.9722V71.3586C40.9722 71.3586 40.9722 71.8519 41.6199 71.8519C42.1705 71.8519 42.3396 71.3586 42.3396 71.3586V69.7565H45.2845C45.9019 69.7565 46.4035 69.4609 46.4035 69.0971C46.4035 68.7333 45.9019 68.4377 45.2845 68.4377H42.3396V67.3647H44.99ZM42.3396 62.4516H44.983C45.6033 62.4516 46.0298 62.4834 46.2588 62.5433C46.6148 62.642 46.9038 62.8464 47.1224 63.153C47.3409 63.4597 47.4501 63.8298 47.4501 64.2632C47.4501 64.8589 47.2633 65.3242 46.8933 65.6519C46.5231 65.9797 45.8958 66.1453 45.0112 66.1453H42.3396V62.4516Z" fill="white"/>
<path d="M41.6201 72.1016C40.8833 72.1016 40.7222 71.5654 40.7222 71.3584V70.0068H39.8311C39.0635 70.0068 38.4624 69.6074 38.4624 69.0967C38.4624 68.5869 39.0635 68.1875 39.8311 68.1875H40.7222V67.5898H39.4199C38.7734 67.5898 38.2671 67.2227 38.2671 66.7549C38.2671 66.2871 38.7734 65.9209 39.4199 65.9209H40.7222V62.04C40.7222 61.457 41.1968 60.9824 41.7803 60.9824H44.8701C45.5859 60.9824 46.1147 61.0156 46.4878 61.085C47.0234 61.1738 47.4868 61.3496 47.8604 61.6074C48.2383 61.8691 48.5444 62.2373 48.771 62.7021C48.9961 63.1621 49.1099 63.6729 49.1099 64.2207C49.1099 65.1602 48.8057 65.9678 48.2051 66.6211C47.5908 67.2891 46.5396 67.6143 44.9902 67.6143H42.5898V68.1875H45.2847C46.0522 68.1875 46.6538 68.5869 46.6538 69.0967C46.6538 69.6074 46.0522 70.0068 45.2847 70.0068H42.5898L42.5762 71.4395C42.5669 71.4668 42.3408 72.1016 41.6201 72.1016ZM39.8311 68.6875C39.3008 68.6875 38.9624 68.9297 38.9624 69.0967C38.9624 69.2637 39.3008 69.5068 39.8311 69.5068H41.2222V71.3584C41.2256 71.4277 41.2715 71.6016 41.6201 71.6016C41.917 71.6016 42.0483 71.3936 42.0898 71.3076V69.5068H45.2847C45.8154 69.5068 46.1538 69.2637 46.1538 69.0967C46.1538 68.9297 45.8154 68.6875 45.2847 68.6875H42.0898V67.1143H44.9902C46.3721 67.1143 47.3301 66.835 47.8369 66.2832C48.3569 65.7168 48.6099 65.042 48.6099 64.2207C48.6099 63.75 48.5127 63.3125 48.3218 62.9209C48.1333 62.5342 47.8823 62.2305 47.5762 62.0195C47.2642 61.8037 46.8687 61.6553 46.4014 61.5781C46.0542 61.5137 45.5547 61.4824 44.8701 61.4824H41.7803C41.4727 61.4824 41.2222 61.7324 41.2222 62.04V66.4209H39.4199C39.0522 66.4209 38.7671 66.6006 38.7671 66.7549C38.7671 66.9102 39.0522 67.0898 39.4199 67.0898H41.2222V68.6875H39.8311ZM45.0112 66.3955H42.0898V62.2012H44.9829C45.6167 62.2012 46.0669 62.2344 46.3218 62.3008C46.7363 62.416 47.0732 62.6533 47.3262 63.0078C47.5742 63.3574 47.7002 63.7793 47.7002 64.2637C47.7002 64.9316 47.4849 65.4619 47.0596 65.8389C46.6357 66.2139 45.9663 66.3955 45.0112 66.3955ZM42.5898 65.8955H45.0112C45.8271 65.8955 46.4048 65.751 46.728 65.4648C47.041 65.1865 47.2002 64.7822 47.2002 64.2637C47.2002 63.8799 47.1084 63.5645 46.9189 63.2979C46.7314 63.0361 46.4937 62.8672 46.1919 62.7842C46.0488 62.7471 45.7192 62.7012 44.9829 62.7012H42.5898V65.8955Z" fill="#2B2A29"/>
<path d="M44.99 40.4286C46.4527 40.4286 47.4606 40.1255 48.0211 39.5158C48.5814 38.9061 48.8599 38.1624 48.8599 37.2848C48.8599 36.7737 48.7541 36.3015 48.5462 35.875C48.3383 35.4486 48.0599 35.1138 47.7179 34.8775C47.3761 34.6414 46.9497 34.4793 46.4421 34.3948C46.0791 34.3278 45.5575 34.296 44.8702 34.296H41.7803C41.334 34.296 40.9722 34.6579 40.9722 35.1042V39.235H39.4196C38.9216 39.235 38.5171 39.4967 38.5171 39.8191C38.5171 40.1414 38.9216 40.4033 39.4196 40.4033H40.9722V41.5016H39.831C39.2136 41.5016 38.7121 41.7971 38.7121 42.1609C38.7121 42.5248 39.2136 42.8203 39.831 42.8203H40.9722V44.4224C40.9722 44.4224 40.9722 44.9157 41.6199 44.9157C42.1705 44.9157 42.3396 44.4224 42.3396 44.4224V42.8203H45.2845C45.9019 42.8203 46.4035 42.5248 46.4035 42.1609C46.4035 41.7971 45.9019 41.5016 45.2845 41.5016H42.3396V40.4286H44.99ZM42.3396 35.5155H44.983C45.6033 35.5155 46.0298 35.5473 46.2588 35.6071C46.6148 35.7058 46.9038 35.9103 47.1224 36.2169C47.3409 36.5236 47.4501 36.8936 47.4501 37.3271C47.4501 37.9227 47.2279 38.352 46.8932 38.7158C46.5292 39.1114 45.906 39.3242 45.0113 39.2092L42.3396 39.2091V35.5155Z" fill="white"/>
<path d="M41.6201 45.166C40.8833 45.166 40.7222 44.6299 40.7222 44.4229V43.0703H39.8311C39.0635 43.0703 38.4624 42.6709 38.4624 42.1611C38.4624 41.6514 39.0635 41.252 39.8311 41.252H40.7222V40.6533H39.4199C38.7734 40.6533 38.2671 40.2871 38.2671 39.8193C38.2671 39.3516 38.7734 38.9854 39.4199 38.9854H40.7222V35.1045C40.7222 34.5205 41.1968 34.0459 41.7803 34.0459H44.8701C45.5801 34.0459 46.1094 34.0791 46.4873 34.1484C47.0244 34.2383 47.4878 34.415 47.8604 34.6719C48.2388 34.9336 48.5449 35.3018 48.771 35.7656C48.9961 36.2266 49.1099 36.7383 49.1099 37.2852C49.1099 38.2246 48.8057 39.0322 48.2051 39.6846C47.5913 40.3535 46.5396 40.6787 44.9902 40.6787H42.5898V41.252H45.2847C46.0522 41.252 46.6538 41.6514 46.6538 42.1611C46.6538 42.6709 46.0522 43.0703 45.2847 43.0703H42.5898L42.5762 44.5039C42.5669 44.5312 42.3408 45.166 41.6201 45.166ZM39.8311 41.752C39.3008 41.752 38.9624 41.9941 38.9624 42.1611C38.9624 42.3281 39.3008 42.5703 39.8311 42.5703H41.2222V44.4229C41.2256 44.4922 41.2715 44.666 41.6201 44.666C41.917 44.666 42.0483 44.458 42.0898 44.3721V42.5703H45.2847C45.8154 42.5703 46.1538 42.3281 46.1538 42.1611C46.1538 41.9941 45.8154 41.752 45.2847 41.752H42.0898V40.1787H44.9902C46.3726 40.1787 47.3301 39.8984 47.8369 39.3467C48.3569 38.7812 48.6099 38.1064 48.6099 37.2852C48.6099 36.8145 48.5127 36.377 48.3218 35.9844C48.1338 35.5986 47.8828 35.2959 47.5762 35.084C47.2642 34.8682 46.8691 34.7197 46.4009 34.6406C46.0542 34.5781 45.5405 34.5459 44.8701 34.5459H41.7803C41.4727 34.5459 41.2222 34.7969 41.2222 35.1045V39.4854H39.4199C39.0522 39.4854 38.7671 39.665 38.7671 39.8193C38.7671 39.9736 39.0522 40.1533 39.4199 40.1533H41.2222V41.752H39.8311ZM45.4756 39.4902C45.3198 39.4902 45.1543 39.4795 44.9795 39.457L42.0898 39.459V35.2656H44.9829C45.6299 35.2656 46.0679 35.2988 46.3228 35.3662C46.7368 35.4805 47.0737 35.7178 47.3262 36.0713C47.5742 36.4209 47.7002 36.8428 47.7002 37.3271C47.7002 37.9287 47.5024 38.4238 47.0776 38.8848C46.7129 39.2812 46.1592 39.4902 45.4756 39.4902ZM42.5898 38.959H45.0112C45.1958 38.9805 45.3398 38.9902 45.4756 38.9902C46.0156 38.9902 46.4424 38.8369 46.7095 38.5469C47.0488 38.1777 47.2002 37.8018 47.2002 37.3271C47.2002 36.9434 47.1084 36.6279 46.9189 36.3613C46.7324 36.1006 46.4946 35.9326 46.1919 35.8486C46.0508 35.8105 45.7236 35.7656 44.9829 35.7656H42.5898V38.959Z" fill="#2B2A29"/>
<path d="M164.799 97.3794C164.506 97.3794 164.225 97.2583 164.023 97.0439L160.359 93.1427C159.956 92.7143 159.977 92.041 160.406 91.6387C160.834 91.2361 161.507 91.2574 161.91 91.6857L164.746 94.7053L168.647 89.9649C169.02 89.5108 169.691 89.4455 170.144 89.8194C170.598 90.1928 170.663 90.8633 170.29 91.317L165.62 96.9915C165.426 97.2277 165.139 97.3688 164.834 97.3788C164.822 97.3792 164.81 97.3794 164.799 97.3794Z" fill="#E3002C"/>
<path d="M164.799 97.6299C164.437 97.6299 164.088 97.4785 163.841 97.2148L160.176 93.3135C159.936 93.0586 159.81 92.7246 159.821 92.373C159.832 92.0224 159.979 91.6972 160.234 91.456C160.743 90.9795 161.615 91.0068 162.092 91.5146L164.734 94.3271L168.454 89.8056C168.896 89.2666 169.763 89.1806 170.304 89.626C170.574 89.8496 170.742 90.164 170.776 90.5137C170.81 90.8633 170.706 91.2051 170.483 91.4765L165.813 97.1504C165.574 97.4424 165.219 97.6172 164.841 97.6289L164.799 97.6299ZM164.799 97.1513L164.802 97.3799L164.806 97.1299C165.059 97.1211 165.278 97.0137 165.427 96.833L170.097 91.1582C170.235 90.9902 170.3 90.7783 170.279 90.5625C170.258 90.3457 170.153 90.1504 169.986 90.0127C169.649 89.7344 169.116 89.7881 168.84 90.124L164.758 95.083L161.727 91.8564C161.43 91.541 160.894 91.5224 160.577 91.8213C160.418 91.9697 160.327 92.1719 160.32 92.3887C160.313 92.6064 160.392 92.8135 160.54 92.9717L164.206 96.873C164.359 97.0361 164.575 97.1299 164.799 97.1299V97.1513Z" fill="#2B2A29"/>
<path d="M133.833 91.4182H70.3553C69.2871 91.4182 68.4216 90.5527 68.4216 89.4845C68.4216 88.4163 69.2871 87.5508 70.3553 87.5508H133.833C134.902 87.5508 135.767 88.4163 135.767 89.4845C135.767 90.5527 134.902 91.4182 133.833 91.4182Z" fill="white"/>
<path d="M133.833 91.668H70.3555C69.1514 91.668 68.1719 90.6885 68.1719 89.4844C68.1719 88.2803 69.1514 87.3008 70.3555 87.3008H133.833C135.038 87.3008 136.017 88.2803 136.017 89.4844C136.017 90.6885 135.038 91.668 133.833 91.668ZM70.3555 87.8008C69.4272 87.8008 68.6719 88.5557 68.6719 89.4844C68.6719 90.4131 69.4272 91.168 70.3555 91.168H133.833C134.762 91.168 135.517 90.4131 135.517 89.4844C135.517 88.5557 134.762 87.8008 133.833 87.8008H70.3555Z" fill="#2B2A29"/>
<path d="M117.748 97.9974H70.3553C69.2871 97.9974 68.4216 97.1319 68.4216 96.0637C68.4216 94.9955 69.2871 94.13 70.3553 94.13H117.748C118.816 94.13 119.682 94.9955 119.682 96.0637C119.682 97.1319 118.816 97.9974 117.748 97.9974Z" fill="white"/>
<path d="M117.748 98.2471H70.3555C69.1514 98.2471 68.1719 97.2676 68.1719 96.0635C68.1719 94.8594 69.1514 93.8799 70.3555 93.8799H117.748C118.952 93.8799 119.932 94.8594 119.932 96.0635C119.932 97.2676 118.952 98.2471 117.748 98.2471ZM70.3555 94.3799C69.4272 94.3799 68.6719 95.1348 68.6719 96.0635C68.6719 96.9922 69.4272 97.7471 70.3555 97.7471H117.748C118.677 97.7471 119.432 96.9922 119.432 96.0635C119.432 95.1348 118.677 94.3799 117.748 94.3799H70.3555Z" fill="#2B2A29"/>
<path d="M128.376 104.576H70.3553C69.2871 104.576 68.4216 103.71 68.4216 102.642C68.4216 101.574 69.2871 100.708 70.3553 100.708H128.376C129.444 100.708 130.31 101.574 130.31 102.642C130.31 103.71 129.444 104.576 128.376 104.576Z" fill="white"/>
<path d="M128.376 104.826H70.3555C69.1514 104.826 68.1719 103.847 68.1719 102.643C68.1719 101.438 69.1514 100.458 70.3555 100.458H128.376C129.58 100.458 130.56 101.438 130.56 102.643C130.56 103.847 129.58 104.826 128.376 104.826ZM70.3555 100.958C69.4272 100.958 68.6719 101.714 68.6719 102.643C68.6719 103.571 69.4272 104.326 70.3555 104.326H128.376C129.304 104.326 130.06 103.571 130.06 102.643C130.06 101.714 129.304 100.958 128.376 100.958H70.3555Z" fill="#2B2A29"/>
<path d="M113.727 34.9607H70.3553C69.2871 34.9607 68.4216 34.0952 68.4216 33.027C68.4216 31.9588 69.2871 31.0933 70.3553 31.0933H113.727C114.795 31.0933 115.661 31.9588 115.661 33.027C115.661 34.0952 114.795 34.9607 113.727 34.9607Z" fill="white"/>
<path d="M113.727 35.2109H70.3555C69.1514 35.2109 68.1719 34.2314 68.1719 33.0273C68.1719 31.8232 69.1514 30.8428 70.3555 30.8428H113.727C114.931 30.8428 115.911 31.8232 115.911 33.0273C115.911 34.2314 114.931 35.2109 113.727 35.2109ZM70.3555 31.3428C69.4272 31.3428 68.6719 32.0986 68.6719 33.0273C68.6719 33.9561 69.4272 34.7109 70.3555 34.7109H113.727C114.656 34.7109 115.411 33.9561 115.411 33.0273C115.411 32.0986 114.656 31.3428 113.727 31.3428H70.3555Z" fill="#2B2A29"/>
<path d="M122.074 41.5398H70.3553C69.2871 41.5398 68.4216 40.6743 68.4216 39.6061C68.4216 38.5379 69.2871 37.6724 70.3553 37.6724H122.074C123.143 37.6724 124.008 38.5379 124.008 39.6061C124.008 40.6743 123.143 41.5398 122.074 41.5398Z" fill="white"/>
<path d="M122.075 41.79H70.3555C69.1514 41.79 68.1719 40.8105 68.1719 39.6064C68.1719 38.4023 69.1514 37.4219 70.3555 37.4219H122.075C123.279 37.4219 124.258 38.4023 124.258 39.6064C124.258 40.8105 123.279 41.79 122.075 41.79ZM70.3555 37.9219C69.4272 37.9219 68.6719 38.6777 68.6719 39.6064C68.6719 40.5352 69.4272 41.29 70.3555 41.29H122.075C123.003 41.29 123.758 40.5352 123.758 39.6064C123.758 38.6777 123.003 37.9219 122.075 37.9219H70.3555Z" fill="#2B2A29"/>
<path d="M128.376 48.1189H70.3553C69.2871 48.1189 68.4216 47.2534 68.4216 46.1852C68.4216 45.117 69.2871 44.2515 70.3553 44.2515H128.376C129.444 44.2515 130.31 45.117 130.31 46.1852C130.31 47.2534 129.444 48.1189 128.376 48.1189Z" fill="white"/>
<path d="M128.376 48.3691H70.3555C69.1514 48.3691 68.1719 47.3896 68.1719 46.1855C68.1719 44.9814 69.1514 44.002 70.3555 44.002H128.376C129.58 44.002 130.56 44.9814 130.56 46.1855C130.56 47.3896 129.58 48.3691 128.376 48.3691ZM70.3555 44.502C69.4272 44.502 68.6719 45.2568 68.6719 46.1855C68.6719 47.1143 69.4272 47.8691 70.3555 47.8691H128.376C129.304 47.8691 130.06 47.1143 130.06 46.1855C130.06 45.2568 129.304 44.502 128.376 44.502H70.3555Z" fill="#2B2A29"/>
<path d="M136.993 61.8965H70.3553C69.2871 61.8965 68.4216 61.031 68.4216 59.9628C68.4216 58.8946 69.2871 58.0291 70.3553 58.0291H136.993C138.061 58.0291 138.926 58.8946 138.926 59.9628C138.926 61.031 138.061 61.8965 136.993 61.8965Z" fill="white"/>
<path d="M136.993 62.1465H70.3555C69.1514 62.1465 68.1719 61.167 68.1719 59.9629C68.1719 58.7588 69.1514 57.7793 70.3555 57.7793H136.993C138.197 57.7793 139.176 58.7588 139.176 59.9629C139.176 61.167 138.197 62.1465 136.993 62.1465ZM70.3555 58.2793C69.4272 58.2793 68.6719 59.0342 68.6719 59.9629C68.6719 60.8916 69.4272 61.6465 70.3555 61.6465H136.993C137.921 61.6465 138.676 60.8916 138.676 59.9629C138.676 59.0342 137.921 58.2793 136.993 58.2793H70.3555Z" fill="#2B2A29"/>
<path d="M131.607 68.4757H70.3553C69.2871 68.4757 68.4216 67.6102 68.4216 66.542C68.4216 65.4738 69.2871 64.6083 70.3553 64.6083H131.607C132.675 64.6083 133.541 65.4738 133.541 66.542C133.541 67.6102 132.675 68.4757 131.607 68.4757Z" fill="white"/>
<path d="M131.607 68.7256H70.3555C69.1514 68.7256 68.1719 67.7461 68.1719 66.542C68.1719 65.3379 69.1514 64.3584 70.3555 64.3584H131.607C132.811 64.3584 133.791 65.3379 133.791 66.542C133.791 67.7461 132.811 68.7256 131.607 68.7256ZM70.3555 64.8584C69.4272 64.8584 68.6719 65.6133 68.6719 66.542C68.6719 67.4707 69.4272 68.2256 70.3555 68.2256H131.607C132.535 68.2256 133.291 67.4707 133.291 66.542C133.291 65.6133 132.535 64.8584 131.607 64.8584H70.3555Z" fill="#2B2A29"/>
<path d="M133.833 75.0548H70.3553C69.2871 75.0548 68.4216 74.1893 68.4216 73.1211C68.4216 72.0529 69.2871 71.1874 70.3553 71.1874H133.833C134.902 71.1874 135.767 72.0529 135.767 73.1211C135.767 74.1893 134.902 75.0548 133.833 75.0548Z" fill="white"/>
<path d="M133.833 75.3047H70.3555C69.1514 75.3047 68.1719 74.3252 68.1719 73.1211C68.1719 71.917 69.1514 70.9375 70.3555 70.9375H133.833C135.038 70.9375 136.017 71.917 136.017 73.1211C136.017 74.3252 135.038 75.3047 133.833 75.3047ZM70.3555 71.4375C69.4272 71.4375 68.6719 72.1924 68.6719 73.1211C68.6719 74.0498 69.4272 74.8047 70.3555 74.8047H133.833C134.762 74.8047 135.517 74.0498 135.517 73.1211C135.517 72.1924 134.762 71.4375 133.833 71.4375H70.3555Z" fill="#2B2A29"/>
<path d="M208.835 129.155C208.835 133.525 205.293 137.067 200.923 137.067H8.41145C4.04208 137.067 0.5 133.525 0.5 129.155V127.837C0.5 123.467 4.04208 119.925 8.41145 119.925H200.923C205.293 119.925 208.835 123.467 208.835 127.837V129.155Z" fill="#52728D"/>
<path d="M200.923 137.566H8.41162C3.77344 137.566 0 133.793 0 129.155V127.837C0 123.199 3.77344 119.426 8.41162 119.426H200.923C205.562 119.426 209.335 123.199 209.335 127.837V129.155C209.335 133.793 205.562 137.566 200.923 137.566ZM8.41162 120.426C4.32471 120.426 1 123.75 1 127.837V129.155C1 133.242 4.32471 136.566 8.41162 136.566H200.923C205.01 136.566 208.335 133.242 208.335 129.155V127.837C208.335 123.75 205.01 120.426 200.923 120.426H8.41162Z" fill="#2B2A29"/>
<path d="M201.017 120.384H196.835C200.971 120.384 204.324 123.736 204.324 127.872V129.12C204.324 133.256 200.971 136.609 196.835 136.609H201.017C205.153 136.609 208.505 133.256 208.505 129.12V127.872C208.505 123.736 205.153 120.384 201.017 120.384Z" fill="#4C6379"/>
<path d="M127.083 128.166C127.083 129.259 126.198 130.144 125.105 130.144H87.526C86.4336 130.144 85.5481 129.259 85.5481 128.166C85.5481 127.074 86.4336 126.189 87.526 126.189H125.105C126.198 126.189 127.083 127.074 127.083 128.166Z" fill="#E2F0FC"/>
<path d="M125.105 130.645H87.5259C86.1597 130.645 85.0483 129.532 85.0483 128.166C85.0483 126.8 86.1597 125.688 87.5259 125.688H125.105C126.472 125.688 127.583 126.8 127.583 128.166C127.583 129.532 126.472 130.645 125.105 130.645ZM87.5259 126.688C86.7109 126.688 86.0483 127.352 86.0483 128.166C86.0483 128.981 86.7109 129.645 87.5259 129.645H125.105C125.92 129.645 126.583 128.981 126.583 128.166C126.583 127.352 125.92 126.688 125.105 126.688H87.5259Z" fill="#2B2A29"/>
<path d="M18.7403 130.694C19.9541 130.694 20.938 129.71 20.938 128.496C20.938 127.282 19.9541 126.298 18.7403 126.298C17.5266 126.298 16.5427 127.282 16.5427 128.496C16.5427 129.71 17.5266 130.694 18.7403 130.694Z" fill="#E2F0FC"/>
<path d="M18.7402 131.193C17.2529 131.193 16.0425 129.983 16.0425 128.496C16.0425 127.009 17.2529 125.799 18.7402 125.799C20.2275 125.799 21.438 127.009 21.438 128.496C21.438 129.983 20.2275 131.193 18.7402 131.193ZM18.7402 126.799C17.8042 126.799 17.0425 127.561 17.0425 128.496C17.0425 129.432 17.8042 130.193 18.7402 130.193C19.6763 130.193 20.438 129.432 20.438 128.496C20.438 127.561 19.6763 126.799 18.7402 126.799Z" fill="#2B2A29"/>
<path d="M117.749 1.10547H62.6021C62.2969 1.10547 62.0493 0.858398 62.0493 0.552734C62.0493 0.24707 62.2969 0 62.6021 0H117.749C118.054 0 118.301 0.24707 118.301 0.552734C118.301 0.858398 118.054 1.10547 117.749 1.10547Z" fill="#2B2A29"/>
<path d="M146.646 1.10547H131.607C131.302 1.10547 131.055 0.858398 131.055 0.552734C131.055 0.24707 131.302 0 131.607 0H146.646C146.952 0 147.199 0.24707 147.199 0.552734C147.199 0.858398 146.952 1.10547 146.646 1.10547Z" fill="#2B2A29"/>
<path d="M154.914 144.19H101.159C100.854 144.19 100.606 143.943 100.606 143.638C100.606 143.332 100.854 143.085 101.159 143.085H154.914C155.219 143.085 155.466 143.332 155.466 143.638C155.466 143.943 155.219 144.19 154.914 144.19Z" fill="#2B2A29"/>
<path d="M185.72 144.19H169.12C168.814 144.19 168.567 143.943 168.567 143.638C168.567 143.332 168.814 143.085 169.12 143.085H185.72C186.025 143.085 186.272 143.332 186.272 143.638C186.272 143.943 186.025 144.19 185.72 144.19Z" fill="#2B2A29"/>
<path d="M429.332 198.727C435.093 198.727 439.763 194.057 439.763 188.297C439.763 182.536 435.093 177.866 429.332 177.866C423.572 177.866 418.902 182.536 418.902 188.297C418.902 194.057 423.572 198.727 429.332 198.727Z" fill="#62D2D0"/>
<path d="M429.333 198.977C423.443 198.977 418.652 194.186 418.652 188.297C418.652 182.407 423.443 177.616 429.333 177.616C435.222 177.616 440.013 182.407 440.013 188.297C440.013 194.186 435.222 198.977 429.333 198.977ZM429.333 178.116C423.719 178.116 419.152 182.684 419.152 188.297C419.152 193.91 423.719 198.477 429.333 198.477C434.946 198.477 439.513 193.91 439.513 188.297C439.513 182.684 434.946 178.116 429.333 178.116Z" fill="#2B2A29"/>
<path d="M410.538 216.392C416.299 216.392 420.969 211.723 420.969 205.962C420.969 200.202 416.299 195.532 410.538 195.532C404.778 195.532 400.108 200.202 400.108 205.962C400.108 211.723 404.778 216.392 410.538 216.392Z" fill="#62D2D0"/>
<path d="M410.539 216.643C404.649 216.643 399.858 211.852 399.858 205.962C399.858 200.073 404.649 195.282 410.539 195.282C416.428 195.282 421.219 200.073 421.219 205.962C421.219 211.852 416.428 216.643 410.539 216.643ZM410.539 195.782C404.925 195.782 400.358 200.349 400.358 205.962C400.358 211.575 404.925 216.143 410.539 216.143C416.152 216.143 420.719 211.575 420.719 205.962C420.719 200.349 416.152 195.782 410.539 195.782Z" fill="#2B2A29"/>
<path d="M430.723 189.176C432.286 189.176 433.363 188.852 433.962 188.2C434.561 187.549 434.859 186.754 434.859 185.816C434.859 185.27 434.746 184.765 434.523 184.31C434.301 183.854 434.004 183.496 433.638 183.244C433.273 182.991 432.817 182.818 432.275 182.728C431.887 182.656 431.33 182.622 430.595 182.622H427.293C426.816 182.622 426.43 183.009 426.43 183.486V187.9H424.771C424.238 187.9 423.806 188.18 423.806 188.524C423.806 188.869 424.238 189.149 424.771 189.149H426.43V190.322H425.21C424.55 190.322 424.014 190.638 424.014 191.027C424.014 191.416 424.55 191.732 425.21 191.732H426.43V193.444C426.43 193.444 426.43 193.971 427.122 193.971C427.71 193.971 427.891 193.444 427.891 193.444V191.732H431.038C431.698 191.732 432.234 191.416 432.234 191.027C432.234 190.638 431.698 190.322 431.038 190.322H427.891V189.176H430.723ZM427.891 183.925H430.716C431.379 183.925 431.834 183.959 432.079 184.023C432.459 184.129 432.768 184.347 433.002 184.675C433.235 185.003 433.352 185.398 433.352 185.861C433.352 186.498 433.152 186.995 432.757 187.345C432.362 187.696 431.691 187.873 430.746 187.873H427.891V183.925Z" fill="white"/>
<path d="M427.122 194.221C426.349 194.221 426.18 193.659 426.18 193.443V191.981H425.21C424.399 191.981 423.765 191.562 423.765 191.026C423.765 190.491 424.399 190.072 425.21 190.072H426.18V189.398H424.771C424.089 189.398 423.556 189.015 423.556 188.524C423.556 188.034 424.089 187.65 424.771 187.65H426.18V183.486C426.18 182.872 426.679 182.372 427.293 182.372H430.595C431.354 182.372 431.918 182.408 432.32 182.481C432.893 182.577 433.386 182.766 433.78 183.039C434.182 183.315 434.507 183.706 434.748 184.2C434.987 184.69 435.108 185.234 435.108 185.816C435.108 186.815 434.785 187.675 434.146 188.369C433.493 189.08 432.373 189.426 430.723 189.426H428.141V190.072H431.038C431.849 190.072 432.483 190.491 432.483 191.026C432.483 191.562 431.849 191.981 431.038 191.981H428.141L428.127 193.524C428.118 193.553 427.88 194.221 427.122 194.221ZM425.21 190.572C424.669 190.572 424.265 190.812 424.265 191.026C424.265 191.241 424.669 191.481 425.21 191.481H426.68V193.443C426.684 193.523 426.734 193.721 427.122 193.721C427.455 193.721 427.599 193.481 427.641 193.394V191.481H431.038C431.579 191.481 431.983 191.241 431.983 191.026C431.983 190.812 431.579 190.572 431.038 190.572H427.641V188.926H430.723C432.204 188.926 433.232 188.625 433.778 188.031C434.337 187.423 434.608 186.699 434.608 185.816C434.608 185.312 434.504 184.841 434.299 184.419C434.096 184.003 433.826 183.678 433.497 183.45C433.162 183.219 432.737 183.059 432.233 182.974C431.858 182.905 431.324 182.872 430.595 182.872H427.293C426.955 182.872 426.68 183.147 426.68 183.486V188.15H424.771C424.362 188.15 424.056 188.348 424.056 188.524C424.056 188.701 424.362 188.898 424.771 188.898H426.68V190.572H425.21ZM430.746 188.122H427.641V183.676H430.716C431.406 183.676 431.872 183.71 432.143 183.781C432.582 183.903 432.938 184.154 433.206 184.529C433.469 184.899 433.602 185.348 433.602 185.861C433.602 186.571 433.374 187.133 432.923 187.533C432.474 187.93 431.762 188.122 430.746 188.122ZM428.141 187.622H430.746C431.622 187.622 432.243 187.466 432.591 187.158C432.935 186.854 433.102 186.43 433.102 185.861C433.102 185.448 433.002 185.107 432.798 184.819C432.599 184.541 432.334 184.354 432.012 184.265C431.86 184.225 431.509 184.176 430.716 184.176H428.141V187.622Z" fill="#2B2A29"/>
<path d="M410.016 210.036C409.71 210.036 409.418 209.909 409.208 209.686L405.392 205.624C404.973 205.177 404.995 204.476 405.441 204.057C405.887 203.638 406.588 203.66 407.007 204.106L409.961 207.251L414.023 202.314C414.412 201.841 415.11 201.773 415.582 202.163C416.055 202.552 416.123 203.25 415.734 203.722L410.871 209.632C410.669 209.878 410.37 210.025 410.052 210.035C410.04 210.035 410.028 210.036 410.016 210.036Z" fill="#E3002C"/>
<path d="M410.056 210.285H410.015C409.642 210.285 409.282 210.13 409.026 209.858L405.21 205.795C404.961 205.53 404.83 205.185 404.841 204.823C404.853 204.46 405.005 204.124 405.27 203.875C405.794 203.381 406.695 203.409 407.189 203.935L409.948 206.873L413.83 202.155C414.287 201.599 415.183 201.509 415.741 201.971C416.021 202.2 416.195 202.526 416.23 202.888C416.265 203.248 416.157 203.602 415.926 203.882L411.064 209.791C410.817 210.092 410.451 210.271 410.06 210.285H410.056ZM406.199 204.007C405.98 204.007 405.772 204.09 405.612 204.24C405.445 204.396 405.349 204.609 405.341 204.838C405.334 205.067 405.417 205.286 405.574 205.453L409.39 209.516C409.551 209.686 409.779 209.785 410.015 209.785L410.052 210.035L410.044 209.785C410.29 209.777 410.522 209.663 410.677 209.474L415.541 203.563C415.686 203.387 415.755 203.164 415.732 202.935C415.71 202.707 415.6 202.502 415.424 202.356C415.068 202.061 414.508 202.119 414.216 202.474L409.973 207.629L406.824 204.277C406.66 204.103 406.439 204.007 406.199 204.007Z" fill="#2B2A29"/>
<path d="M350.65 169.857L346.254 172.276L346.163 172.326L341.856 169.857L346.254 167.316L350.65 169.857Z" fill="#FDAD67"/>
<path d="M346.163 172.576C346.12 172.576 346.077 172.565 346.038 172.543L341.732 170.074C341.654 170.03 341.606 169.947 341.606 169.857C341.606 169.769 341.654 169.686 341.731 169.641L346.129 167.1C346.207 167.055 346.302 167.055 346.379 167.1L350.775 169.641C350.853 169.687 350.901 169.77 350.9 169.86C350.899 169.95 350.85 170.033 350.771 170.076L346.282 172.546C346.245 172.566 346.204 172.576 346.163 172.576ZM342.357 169.856L346.166 172.04L350.141 169.853L346.254 167.605L342.357 169.856Z" fill="#52505B"/>
<path d="M350.65 169.857V174.934L346.254 177.472V172.276L350.65 169.857Z" fill="#FDAD67"/>
<path d="M346.254 177.722C346.211 177.722 346.168 177.711 346.129 177.689C346.052 177.644 346.004 177.561 346.004 177.472V172.276C346.004 172.186 346.054 172.102 346.134 172.058L350.529 169.639C350.607 169.597 350.701 169.598 350.777 169.643C350.853 169.688 350.9 169.769 350.9 169.857V174.934C350.9 175.022 350.852 175.105 350.775 175.15L346.379 177.689C346.341 177.711 346.297 177.722 346.254 177.722ZM346.504 172.424V177.039L350.4 174.789V170.28L346.504 172.424Z" fill="#52505B"/>
<path d="M346.254 172.379V177.472L341.856 174.934V169.857L346.163 172.326L346.254 172.379Z" fill="#FD923D"/>
<path d="M346.254 177.722C346.211 177.722 346.168 177.711 346.129 177.688L341.731 175.15C341.654 175.105 341.606 175.022 341.606 174.934V169.857C341.606 169.769 341.654 169.686 341.731 169.641C341.809 169.598 341.903 169.596 341.981 169.641L346.379 172.162C346.457 172.207 346.504 172.289 346.504 172.379V177.472C346.504 177.561 346.457 177.644 346.379 177.688C346.341 177.711 346.297 177.722 346.254 177.722ZM342.106 174.789L346.004 177.039V172.523L342.106 170.289V174.789Z" fill="#52505B"/>
<path d="M341.942 139.599C341.942 139.599 343.446 136.491 345.551 136.491C345.551 136.491 346.153 138.597 347.356 136.491C347.356 136.491 350.163 136.892 350.564 139.599H349.261L349.294 144.712H343.145L343.345 139.699L341.942 139.599Z" fill="white"/>
<path d="M349.546 144.963H342.885L343.086 139.932L341.556 139.823L341.717 139.491C341.781 139.358 343.315 136.241 345.551 136.241H345.739L345.792 136.422C345.86 136.658 346.096 137.177 346.354 137.177C346.45 137.177 346.721 137.098 347.139 136.367L347.223 136.22L347.391 136.244C347.421 136.248 350.388 136.704 350.811 139.563L350.854 139.85H349.512L349.546 144.963ZM343.405 144.463H349.043L349.009 139.35H350.263C349.823 137.431 348.036 136.892 347.481 136.77C347.105 137.38 346.735 137.677 346.354 137.677C345.808 137.677 345.501 137.073 345.375 136.749C343.924 136.883 342.772 138.634 342.346 139.378L343.604 139.467L343.405 144.463Z" fill="#2B2A29"/>
<path d="M65.972 237.492H10.2749V280.09H65.972V237.492Z" fill="#FBAA6C"/>
<path d="M66.4722 280.59H9.7749V236.992H66.4722V280.59ZM10.7749 279.59H65.4722V237.992H10.7749V279.59Z" fill="#2B2A29"/>
<path d="M53.9868 237.533L52.9897 237.451C53 237.329 53.9229 225.123 47.9565 218.649C45.5044 215.988 42.1963 214.64 38.1235 214.64C21.5415 214.64 21.3384 237.264 21.3384 237.492H20.3384C20.3384 237.254 20.542 213.64 38.1235 213.64C42.4883 213.64 46.0449 215.098 48.6938 217.974C54.9575 224.773 54.0293 237.016 53.9868 237.533Z" fill="#2B2A29"/>
<path d="M103.398 204.043H42.9673V250.26H103.398V204.043Z" fill="#FBAA6C"/>
<path d="M103.897 250.761H42.4673V203.543H103.897V250.761ZM43.4673 249.761H102.897V204.543H43.4673V249.761Z" fill="#2B2A29"/>
<path d="M90.3516 204.084L89.3545 204.002C89.3657 203.869 90.3687 190.607 83.8823 183.569C81.2139 180.673 77.6138 179.205 73.1826 179.205C55.1372 179.205 54.9282 203.795 54.9282 204.043H53.9282C53.9282 203.784 54.1484 178.205 73.1826 178.205C77.9058 178.205 81.7539 179.782 84.6201 182.894C91.4033 190.258 90.3975 203.522 90.3516 204.084Z" fill="#2B2A29"/>
<path d="M153.699 214.139H89.9734V262.877H153.699V214.139Z" fill="#FBAA6C"/>
<path d="M154.199 263.378H89.4736V213.64H154.199V263.378ZM90.4736 262.378H153.199V214.64H90.4736V262.378Z" fill="#2B2A29"/>
<path d="M139.915 214.181L138.917 214.099C138.929 213.958 139.988 199.962 133.14 192.531C130.32 189.472 126.518 187.92 121.836 187.92C102.78 187.92 102.56 213.878 102.56 214.14H101.56C101.56 213.867 101.792 186.92 121.836 186.92C126.81 186.92 130.861 188.58 133.877 191.855C141.023 199.612 139.963 213.59 139.915 214.181Z" fill="#2B2A29"/>
<path d="M7.98282 196.594C7.86172 196.594 7.73917 196.582 7.61612 196.56C6.53067 196.358 5.81436 195.315 6.01553 194.23C6.10293 193.758 8.2587 182.604 16.7675 177.444C21.4525 174.604 27.0697 174.155 33.4623 176.114C34.5175 176.438 35.1107 177.556 34.7875 178.611C34.4638 179.665 33.3456 180.259 32.2914 179.937C27.0356 178.326 22.5102 178.638 18.8393 180.862C11.8451 185.103 9.96329 194.861 9.94522 194.959C9.767 195.921 8.92715 196.594 7.98282 196.594Z" fill="#2B2A29"/>
<path d="M27.6299 186.102C27.1675 186.102 26.7026 185.942 26.3252 185.616C25.4898 184.896 25.397 183.633 26.1182 182.798L30.1987 178.07L25.4136 172.886C24.6651 172.074 24.7153 170.811 25.5264 170.062C26.3374 169.313 27.6021 169.363 28.3501 170.175L35.5552 177.98L29.1436 185.409C28.7485 185.867 28.1909 186.102 27.6299 186.102Z" fill="#2B2A29"/>
<path d="M21.2636 207.854C19.8178 207.854 18.3086 207.725 16.7368 207.466C15.6474 207.287 14.9101 206.259 15.0893 205.17C15.268 204.081 16.2973 203.341 17.3852 203.522C22.7988 204.413 27.2378 203.502 30.5752 200.815C36.9219 195.706 37.5127 185.737 37.518 185.638C37.5752 184.536 38.4848 183.691 39.6147 183.744C40.7158 183.8 41.5635 184.735 41.5097 185.836C41.4863 186.316 40.8442 197.659 33.103 203.912C29.8554 206.534 25.8862 207.854 21.2636 207.854Z" fill="#2B2A29"/>
<path d="M23.8711 213.125C23.4224 213.125 22.9712 212.976 22.5986 212.667L14.4131 205.898L19.771 197.677C20.3735 196.752 21.6108 196.49 22.5366 197.094C23.4609 197.696 23.7222 198.935 23.1196 199.858L19.709 205.091L25.1455 209.587C25.9961 210.29 26.1152 211.55 25.4121 212.4C25.0171 212.878 24.4458 213.125 23.8711 213.125Z" fill="#2B2A29"/>
<g opacity="0.53">
<path opacity="0.53" d="M139.489 250.26H107.234V254.844H139.489V250.26Z" fill="white"/>
</g>
<path d="M18.6517 238.509H11.1636V279.22H18.6517V238.509Z" fill="#FD9347"/>
<path d="M51.3126 205.051H43.8245V249.188H51.3126V205.051Z" fill="#FD9347"/>
<path d="M98.3387 215.185H90.8506V261.934H98.3387V215.185Z" fill="#FD9347"/>
<path d="M85.7259 209.278H61.748V211.588H85.7259V209.278Z" fill="white"/>
<path d="M85.7259 214.03H61.748V216.34H85.7259V214.03Z" fill="white"/>
<path d="M85.7259 218.809H61.748V221.119H85.7259V218.809Z" fill="white"/>
<path d="M63.3013 274.839H39.3235V277.149H63.3013V274.839Z" fill="white"/>
<g opacity="0.53">
<path opacity="0.53" d="M61.0312 243.054H55.0566V247.436H61.0312V243.054Z" fill="white"/>
</g>
<g opacity="0.53">
<path opacity="0.53" d="M150.145 217.244H144.17V221.625H150.145V217.244Z" fill="white"/>
</g>
<g opacity="0.53">
<path opacity="0.53" d="M142.476 217.244H136.501V221.625H142.476V217.244Z" fill="white"/>
</g>
<path d="M27.2549 248.989L24.7854 245.683L22.3159 248.989V238.309H27.2549V248.989Z" fill="white"/>
<path d="M3.98047 52.7227C3.7041 52.7227 3.48047 52.499 3.48047 52.2227V21.2959C3.48047 21.0195 3.7041 20.7959 3.98047 20.7959C4.25684 20.7959 4.48047 21.0195 4.48047 21.2959V52.2227C4.48047 52.499 4.25684 52.7227 3.98047 52.7227Z" fill="#2B2A29"/>
<path d="M3.98047 69.0352C3.7041 69.0352 3.48047 68.8115 3.48047 68.5352V61.6045C3.48047 61.3281 3.7041 61.1045 3.98047 61.1045C4.25684 61.1045 4.48047 61.3281 4.48047 61.6045V68.5352C4.48047 68.8115 4.25684 69.0352 3.98047 69.0352Z" fill="#2B2A29"/>
<path d="M35.814 286.504H11.6665C11.3901 286.504 11.1665 286.28 11.1665 286.004C11.1665 285.728 11.3901 285.504 11.6665 285.504H35.814C36.0903 285.504 36.314 285.728 36.314 286.004C36.314 286.28 36.0903 286.504 35.814 286.504Z" fill="#2B2A29"/>
<path d="M64.5806 286.504H50.3521C50.0757 286.504 49.8521 286.28 49.8521 286.004C49.8521 285.728 50.0757 285.504 50.3521 285.504H64.5806C64.8569 285.504 65.0806 285.728 65.0806 286.004C65.0806 286.28 64.8569 286.504 64.5806 286.504Z" fill="#2B2A29"/>
<path d="M85.3937 292.112C92.0333 292.112 97.4157 286.729 97.4157 280.09C97.4157 273.45 92.0333 268.068 85.3937 268.068C78.754 268.068 73.3716 273.45 73.3716 280.09C73.3716 286.729 78.754 292.112 85.3937 292.112Z" fill="#62D2D0"/>
<path d="M85.3936 292.612C78.4888 292.612 72.8716 286.995 72.8716 280.09C72.8716 273.185 78.4888 267.567 85.3936 267.567C92.2983 267.567 97.9155 273.185 97.9155 280.09C97.9155 286.995 92.2983 292.612 85.3936 292.612ZM85.3936 268.567C79.0405 268.567 73.8716 273.736 73.8716 280.09C73.8716 286.443 79.0405 291.612 85.3936 291.612C91.7466 291.612 96.9155 286.443 96.9155 280.09C96.9155 273.736 91.7466 268.567 85.3936 268.567Z" fill="#2B2A29"/>
<path d="M93.2335 278.502H86.9813V272.25C86.9813 271.372 86.2704 270.662 85.3935 270.662C84.5166 270.662 83.8056 271.372 83.8056 272.25V278.502H77.5534C76.6765 278.502 75.9656 279.212 75.9656 280.09C75.9656 280.967 76.6765 281.678 77.5534 281.678H83.8056V287.93C83.8056 288.807 84.5166 289.518 85.3935 289.518C86.2704 289.518 86.9813 288.807 86.9813 287.93V281.678H93.2335C94.1104 281.678 94.8214 280.967 94.8214 280.09C94.8214 279.212 94.1104 278.502 93.2335 278.502Z" fill="white"/>
<path d="M85.3936 290.018C84.2422 290.018 83.3057 289.081 83.3057 287.93V282.178H77.5537C76.4023 282.178 75.4658 281.241 75.4658 280.09C75.4658 278.938 76.4023 278.002 77.5537 278.002H83.3057V272.25C83.3057 271.099 84.2422 270.162 85.3936 270.162C86.5449 270.162 87.4814 271.099 87.4814 272.25V278.002H93.2334C94.3848 278.002 95.3213 278.938 95.3213 280.09C95.3213 281.241 94.3848 282.178 93.2334 282.178H87.4814V287.93C87.4814 289.081 86.5449 290.018 85.3936 290.018ZM77.5537 279.002C76.9536 279.002 76.4658 279.49 76.4658 280.09C76.4658 280.689 76.9536 281.178 77.5537 281.178H84.3057V287.93C84.3057 288.529 84.7935 289.018 85.3936 289.018C85.9937 289.018 86.4814 288.529 86.4814 287.93V281.178H93.2334C93.8335 281.178 94.3213 280.689 94.3213 280.09C94.3213 279.49 93.8335 279.002 93.2334 279.002H86.4814V272.25C86.4814 271.65 85.9937 271.162 85.3936 271.162C84.7935 271.162 84.3057 271.65 84.3057 272.25V279.002H77.5537Z" fill="#2B2A29"/>
<path d="M347.751 80.8661H397.526C398.873 80.8661 399.965 79.7737 399.965 78.4262V78.3769C399.965 77.0294 398.873 75.937 397.526 75.937H347.751C346.403 75.937 345.311 77.0294 345.311 78.3769V78.4262C345.311 79.7737 346.403 80.8661 347.751 80.8661Z" fill="#FD9347"/>
<path d="M397.525 81.1162H347.751C346.268 81.1162 345.061 79.9092 345.061 78.4258C345.061 76.8936 346.268 75.6875 347.751 75.6875H397.525C399.009 75.6875 400.215 76.8936 400.215 78.377C400.215 79.9092 399.009 81.1162 397.525 81.1162ZM347.751 76.1875C346.543 76.1875 345.561 77.1699 345.561 78.377C345.561 79.6338 346.543 80.6162 347.751 80.6162H397.525C398.733 80.6162 399.715 79.6338 399.715 78.4258C399.715 77.1699 398.733 76.1875 397.525 76.1875H347.751Z" fill="#2B2A29"/>
<path d="M235.862 165.318C235.49 165.318 235.144 165.08 235.023 164.707L212.567 95.2021H177.131C176.645 95.2021 176.25 94.8076 176.25 94.3213C176.25 93.835 176.645 93.4404 177.131 93.4404H213.849L236.7 164.166C236.85 164.629 236.596 165.125 236.133 165.275C236.042 165.304 235.951 165.318 235.862 165.318Z" fill="#2B2A29"/>
<path d="M265.151 185.965C264.631 185.965 264.192 185.562 264.155 185.035C264.116 184.484 264.531 184.006 265.082 183.968L271.203 183.535C271.754 183.482 272.232 183.911 272.271 184.462C272.31 185.013 271.895 185.491 271.343 185.529L265.223 185.962C265.199 185.964 265.175 185.965 265.151 185.965ZM277.393 185.1C276.872 185.1 276.433 184.697 276.396 184.17C276.357 183.619 276.772 183.141 277.323 183.103L283.444 182.67C283.993 182.621 284.473 183.046 284.512 183.597C284.551 184.147 284.136 184.626 283.585 184.664L277.464 185.097C277.44 185.099 277.416 185.1 277.393 185.1ZM289.634 184.235C289.114 184.235 288.675 183.833 288.638 183.306C288.599 182.755 289.014 182.276 289.565 182.238L295.686 181.806C296.243 181.76 296.714 182.181 296.754 182.732C296.793 183.283 296.378 183.762 295.826 183.8L289.706 184.232C289.682 184.234 289.658 184.235 289.634 184.235ZM301.876 183.37C301.356 183.37 300.916 182.968 300.879 182.44C300.84 181.89 301.255 181.411 301.806 181.373L307.927 180.94C308.482 180.898 308.957 181.315 308.995 181.867C309.034 182.418 308.619 182.896 308.068 182.935L301.947 183.367C301.923 183.369 301.899 183.37 301.876 183.37Z" fill="#2B2A29"/>
<path d="M168.884 238.492C168.63 238.492 168.376 238.396 168.181 238.204C167.788 237.815 167.784 237.183 168.172 236.79L171.374 233.548C171.761 233.154 172.395 233.15 172.788 233.538C173.181 233.927 173.185 234.56 172.796 234.952L169.595 238.194C169.4 238.393 169.142 238.492 168.884 238.492ZM177.82 229.442C177.566 229.442 177.313 229.347 177.118 229.154C176.725 228.766 176.721 228.133 177.109 227.739L182.844 221.932C183.232 221.54 183.866 221.535 184.258 221.923C184.651 222.312 184.655 222.944 184.267 223.338L178.532 229.146C178.336 229.343 178.078 229.442 177.82 229.442ZM189.291 217.827C189.037 217.827 188.783 217.731 188.588 217.539C188.195 217.15 188.191 216.518 188.58 216.125L194.314 210.316C194.702 209.923 195.336 209.919 195.729 210.307C196.122 210.695 196.125 211.328 195.737 211.721L190.002 217.529C189.807 217.728 189.549 217.827 189.291 217.827ZM200.761 206.211C200.507 206.211 200.253 206.115 200.059 205.923C199.666 205.534 199.662 204.901 200.05 204.508L205.785 198.7C206.173 198.309 206.807 198.304 207.199 198.691C207.592 199.08 207.596 199.713 207.208 200.106L201.473 205.914C201.277 206.111 201.019 206.211 200.761 206.211Z" fill="#2B2A29"/>
</svg>
