<svg width="113" height="79" viewBox="0 0 113 79" fill="none" xmlns="http://www.w3.org/2000/svg">
<path d="M68.2849 67.9416C68.2849 71.3288 65.5289 74.0694 62.1109 74.0694H7.20717C3.80456 74.0694 1.0332 71.3288 1.0332 67.9416V45.8631C1.0332 42.4759 3.78916 39.7354 7.20717 39.7354H62.1109C65.5135 39.7354 68.2849 42.4759 68.2849 45.8631V67.9416Z" fill="#E2EFFD" stroke="#3C2415" stroke-miterlimit="10"/>
<path d="M22.3318 49.9763C22.3318 49.9763 25.3962 50.2861 24.7103 51.7796C24.0244 53.273 22.7411 53.3505 22.7411 53.3505C22.7411 53.3505 22.6194 50.0095 22.3318 49.9763Z" fill="#FFFEFF" stroke="#3C2415" stroke-miterlimit="10"/>
<path d="M13.3808 49.977C13.3808 49.977 10.8032 50.2978 10.8364 51.6585C10.8364 51.6585 10.6373 53.8268 13.0932 53.6277C13.0932 53.6387 13.1817 49.9106 13.3808 49.977Z" fill="#FFFEFF" stroke="#3C2415" stroke-miterlimit="10"/>
<path d="M11.3448 59.0044L24.067 59.2478C24.067 59.2478 28.3593 59.8784 28.7576 62.0356C29.2333 64.5911 28.835 71.0186 28.7576 70.908H6.82007V63.1972C6.82007 63.1972 7.53915 59.5243 11.3448 59.0044Z" fill="#D1E5FC" stroke="#3C2415" stroke-miterlimit="10"/>
<path d="M12.7461 59.2029L14.5604 64.4024L17.9899 62.754L21.2866 64.4024L22.8243 59.225L12.7461 59.2029Z" fill="#36B6BF" stroke="#3C2415" stroke-miterlimit="10"/>
<path d="M16.0588 63.2746L17.6298 65.2106H18.7582L19.8091 63.2746L17.7846 62.1904L16.0588 63.2746Z" fill="#52505B"/>
<path d="M16.966 64.4028L16.0588 70.8967H19.8091L18.9352 64.4028H16.966Z" fill="#36B6BF" stroke="#3C2415" stroke-miterlimit="10"/>
<path d="M25.5835 67.0249V70.8969" stroke="#3C2415" stroke-miterlimit="10"/>
<path d="M10.1467 67.0249V70.6203" stroke="#3C2415" stroke-miterlimit="10"/>
<path d="M15.1582 56.8578V59.2032L17.9903 62.7543L20.8887 59.2806L20.8113 56.8468C20.8113 56.8578 16.2866 55.1874 15.1582 56.8578Z" fill="#FFFEFF" stroke="#3C2415" stroke-miterlimit="10"/>
<path d="M17.9924 57.8981C20.6624 57.8981 22.8269 55.4117 22.8269 52.3445C22.8269 49.2774 20.6624 46.791 17.9924 46.791C15.3224 46.791 13.158 49.2774 13.158 52.3445C13.158 55.4117 15.3224 57.8981 17.9924 57.8981Z" fill="#FFFEFF" stroke="#3C2415" stroke-miterlimit="10"/>
<path d="M11.2621 50.6181C11.2621 50.6181 10.6425 43.1618 17.1807 41.79C17.1807 41.79 24.7919 42.4317 24.0728 50.2641C24.0728 50.2641 21.1412 50.9058 19.2052 47.4431C19.2052 47.4431 18.0768 50.4854 15.0124 50.0097C15.0013 49.9986 11.6603 49.888 11.2621 50.6181Z" fill="#52505B"/>
<path d="M107.452 56.0381C107.452 60.6552 104.02 64.395 99.7836 64.395H31.4717C27.2348 64.395 23.803 60.6552 23.803 56.0381V25.8577C23.803 21.2406 27.2348 17.5007 31.4717 17.5007H99.7695C104.006 17.5007 107.438 21.2406 107.438 25.8577V56.0381H107.452Z" fill="#D1E5FC" stroke="#3C2415" stroke-miterlimit="10"/>
<path d="M97.1562 29.5488H88.9653V56.0153H97.1562V29.5488Z" fill="#507097" stroke="#3C2415" stroke-miterlimit="10" stroke-linejoin="round"/>
<path d="M83.4831 35.7258H75.2922V56.1877H83.4831V35.7258Z" fill="#5ED2D1" stroke="#3C2415" stroke-miterlimit="10" stroke-linejoin="round"/>
<path d="M69.8103 26.4614H61.6194V55.9148H69.8103V26.4614Z" fill="#38707B" stroke="#3C2415" stroke-miterlimit="10"/>
<path d="M56.1099 40.5796H47.917V56.4625H56.1099V40.5796Z" fill="#FDAD67" stroke="#3C2415" stroke-miterlimit="10" stroke-linejoin="round"/>
<path d="M42.5098 49.4033H34.3188V56.3163H42.5098V49.4033Z" fill="#36B6BF" stroke="#3C2415" stroke-miterlimit="10"/>
<path d="M49.5733 25.0112L51.7088 23.8798L51.747 23.9053L54.8613 25.8247L58.268 20.2952L55.1791 18.4012L55.1155 18.363L55.1409 15.2868L55.2808 15.2106L58.3824 13.4945L55.2426 7.79974L52.1919 9.49037L52.0012 9.59207C52.0012 9.59207 51.2893 9.10903 50.819 8.81666C50.3106 8.49887 49.7004 8.04126 49.7004 8.04126V7.92685L49.7767 4.3422L43.2811 4.21509L43.2175 7.60907L43.2048 7.90143C42.2387 8.21922 41.3235 8.68955 40.4973 9.32512L40.243 9.17258L37.3575 7.44382L34.0398 13.0115L36.8618 14.7021L37.116 14.8546C36.938 15.8461 36.9126 16.8376 37.0524 17.8164L36.7982 17.9563L34.0652 19.4689L37.2177 25.151L39.9634 23.6256L40.2303 23.4858C40.5481 23.7527 40.8786 23.9942 41.2345 24.2103C41.832 24.579 42.4421 24.8713 43.0777 25.0874V25.3798L43.0523 28.6721L49.5479 28.7229L49.5733 25.1637V25.0112ZM43.7133 20.2443C41.654 18.9605 41.0184 16.2529 42.3023 14.1936C43.5862 12.1344 46.2937 11.4988 48.353 12.7827C50.4123 14.0665 51.0478 16.7741 49.764 18.8333C48.4801 20.9053 45.7725 21.5282 43.7133 20.2443Z" fill="#507097" stroke="#3C2415" stroke-miterlimit="10"/>
<path d="M55.193 18.4012C55.4091 17.3334 55.4345 16.253 55.2947 15.1979C54.9896 13.0369 53.9218 10.9904 52.2058 9.49043C51.8244 9.15993 51.4177 8.85485 50.9855 8.58791C50.5787 8.33368 50.1592 8.11758 49.727 7.92691C47.6296 7.02439 45.3288 6.94812 43.2441 7.60912C42.1764 7.93962 41.1722 8.4735 40.2824 9.17264C39.4561 9.82093 38.7188 10.6345 38.1214 11.5878C37.5112 12.5793 37.0918 13.6344 36.8884 14.7149C36.6723 15.7953 36.6596 16.9012 36.8248 17.969C37.168 20.13 38.2485 22.1511 39.99 23.6384C40.3332 23.9307 40.7145 24.2104 41.1086 24.4646C41.7442 24.8587 42.4179 25.1765 43.0916 25.3926C45.2399 26.1171 47.5534 26.0027 49.5872 25.1765C50.3626 24.8587 51.0872 24.4392 51.7609 23.9307C52.6125 23.2697 53.3752 22.4435 53.9727 21.4774C54.5828 20.4859 54.9769 19.4563 55.193 18.4012ZM43.7272 20.2444C41.6679 18.9605 41.0323 16.253 42.3162 14.1937C43.6001 12.1344 46.3076 11.4989 48.3669 12.7827C50.4262 14.0666 51.0617 16.7741 49.7779 18.8334C48.494 20.9054 45.7865 21.5282 43.7272 20.2444Z" fill="#507097" stroke="#3C2415" stroke-miterlimit="10"/>
<path d="M17.7494 22.6213L20.0502 21.8967L20.0756 21.9222L22.7831 24.3755L27.1432 19.5705L24.4611 17.1426L24.3975 17.0918L24.9822 14.0664L25.1348 14.0156L28.5033 12.897L26.4568 6.74461L23.1518 7.85051L22.9484 7.91406C22.9484 7.91406 22.3382 7.30391 21.9315 6.93528C21.4866 6.52851 20.9781 5.9692 20.9781 5.9692L21.0035 5.8548L21.7281 2.34641L15.3723 1.02441L14.6859 4.34212L14.6223 4.63449C13.6181 4.76161 12.6266 5.06668 11.6987 5.53701L11.4699 5.33362L8.95299 3.10911L4.65649 7.97762L7.12253 10.164L7.35133 10.3674C6.99541 11.308 6.79203 12.2868 6.75389 13.2656L6.47424 13.3546L3.51245 14.3461L5.57172 20.4985L8.55893 19.507L8.83858 19.418C9.10552 19.7358 9.38518 20.0409 9.69026 20.3205C10.1987 20.7908 10.758 21.1849 11.3428 21.5154L11.2919 21.8078L10.669 25.0365L17.0375 26.2695L17.7112 22.7738L17.7494 22.6213ZM12.8427 16.863C11.0504 15.2232 10.9233 12.4394 12.5631 10.647C14.2028 8.85472 16.9867 8.7276 18.779 10.3674C20.5713 12.0072 20.6984 14.791 19.0587 16.5706C17.4189 18.3757 14.635 18.5028 12.8427 16.863Z" fill="#507097" stroke="#3C2415" stroke-miterlimit="10"/>
<path d="M24.4818 17.1427C24.8885 16.1385 25.1173 15.0835 25.1682 14.0157C25.2572 11.8293 24.5962 9.63022 23.1725 7.83789C22.8674 7.44383 22.5115 7.0752 22.1428 6.71928C21.7869 6.38878 21.4183 6.10912 21.0242 5.84218C19.1302 4.57103 16.8803 4.07528 14.7066 4.34222C13.6007 4.48205 12.5202 4.81255 11.5033 5.33372C10.5626 5.81676 9.69825 6.47776 8.94827 7.30401C8.16015 8.16839 7.56271 9.13447 7.15594 10.1514C6.74917 11.181 6.53308 12.2615 6.49494 13.342C6.43138 15.5284 7.13052 17.7148 8.56692 19.4944C8.85929 19.8503 9.17707 20.1935 9.52029 20.5113C10.0796 21.0197 10.677 21.4392 11.2999 21.7952C13.2829 22.9011 15.571 23.2188 17.7192 22.7612C18.5328 22.596 19.3336 22.3163 20.0836 21.935C21.0496 21.4392 21.9395 20.7655 22.7149 19.9266C23.4903 19.0876 24.0877 18.1469 24.4818 17.1427ZM12.8634 16.8631C11.0711 15.2233 10.944 12.4395 12.5838 10.6471C14.2236 8.85481 17.0074 8.7277 18.7997 10.3675C20.592 12.0073 20.7191 14.7911 19.0794 16.5707C17.4396 18.3758 14.6557 18.5029 12.8634 16.8631Z" fill="#507097" stroke="#3C2415" stroke-miterlimit="10"/>
<path d="M31.2711 41.0786L33.2033 40.4684L33.2287 40.4938L35.5041 42.5531L39.165 38.5108L36.915 36.477L36.8642 36.4261L37.3599 33.8838L37.4871 33.8457L40.309 32.9051L38.593 27.7315L35.8218 28.6594L35.6439 28.723C35.6439 28.723 35.1354 28.2145 34.7922 27.8967C34.4236 27.5535 33.9914 27.0832 33.9914 27.0832L34.0168 26.9815L34.627 24.0324L29.2881 22.9265L28.7161 25.7103L28.6652 25.9519C27.8136 26.0663 26.9873 26.3205 26.2119 26.7145L26.0212 26.5493L23.9111 24.6807L20.2883 28.7738L22.3603 30.6043L22.551 30.7695C22.2459 31.5576 22.0807 32.3712 22.0425 33.1974L21.801 33.2737L19.3223 34.0999L21.051 39.2735L23.5552 38.4346L23.7967 38.3583C24.0128 38.6252 24.2543 38.8795 24.5213 39.121C24.9535 39.515 25.4238 39.8455 25.9068 40.1252L25.856 40.3667L25.3348 43.0743L30.6864 44.1166L31.2584 41.1803L31.2711 41.0786ZM27.1653 36.2355C25.6653 34.8626 25.5509 32.5237 26.9365 31.0238C28.3093 29.5238 30.6482 29.4221 32.1482 30.7949C33.6482 32.1678 33.7499 34.5067 32.377 36.0067C31.0042 37.5066 28.6652 37.6083 27.1653 36.2355Z" fill="#507097" stroke="#3C2415" stroke-miterlimit="10"/>
<path d="M36.8993 36.4771C37.2425 35.6381 37.4332 34.7483 37.4713 33.8458C37.5476 32.0154 36.9882 30.1595 35.7934 28.6595C35.5391 28.329 35.2468 28.0112 34.929 27.7316C34.6366 27.4646 34.3188 27.2104 33.9883 26.9943C32.3994 25.9265 30.5054 25.5071 28.6876 25.7359C27.7597 25.8503 26.8445 26.1299 25.9928 26.5748C25.2047 26.9816 24.4801 27.5409 23.8445 28.2273C23.1835 28.9519 22.6878 29.7654 22.3446 30.6171C22.0014 31.4815 21.8234 32.384 21.798 33.2992C21.7471 35.1297 22.3319 36.9729 23.5395 38.4601C23.781 38.7525 24.0479 39.0448 24.3403 39.3118C24.8106 39.744 25.3064 40.0999 25.8402 40.3923C27.5054 41.3202 29.4249 41.5871 31.2299 41.2058C31.9164 41.066 32.5774 40.8372 33.2129 40.5067C34.0265 40.0872 34.7637 39.5279 35.4247 38.816C36.073 38.1042 36.5688 37.3161 36.8993 36.4771ZM27.1495 36.2356C25.6496 34.8627 25.5352 32.5238 26.9207 31.0239C28.2936 29.5239 30.6325 29.4222 32.1324 30.795C33.6324 32.1679 33.7341 34.5068 32.3613 36.0068C30.9884 37.5067 28.6495 37.6084 27.1495 36.2356Z" fill="#507097" stroke="#3C2415" stroke-miterlimit="10"/>
<path d="M3.04297 78H7.93904" stroke="#3C2415" stroke-miterlimit="10"/>
<path d="M10.1484 78H22.5118" stroke="#3C2415" stroke-miterlimit="10"/>
<path d="M111.505 26.7439V23.3259C111.505 21.6323 110.658 19.3075 109.38 18.2451" stroke="#3C2415" stroke-miterlimit="10"/>
<path d="M111.5 32.9034V29.1621" stroke="#3C2415" stroke-miterlimit="10"/>
</svg>
