<svg width="92" height="89" viewBox="0 0 92 89" fill="none" xmlns="http://www.w3.org/2000/svg">
<path d="M87.3008 40.5108L71.0893 40.2724C71.5661 42.2989 71.8045 44.3253 71.8045 46.4709C71.8045 60.8944 60.1227 72.5762 45.6992 72.5762C31.2757 72.5762 19.5939 60.8944 19.5939 46.4709C19.5939 32.7627 30.2029 21.4384 43.6728 20.4848L44.2688 4.51172C21.7395 5.34613 3.73999 23.8225 3.73999 46.4709C3.73999 69.5962 22.574 88.4301 45.6992 88.4301C68.8245 88.4301 87.6584 69.5962 87.6584 46.4709C87.6584 44.4445 87.5392 42.4181 87.3008 40.5108Z" fill="#71CBCE"/>
<path d="M90.9991 36.6968L74.7876 36.4584C72.046 25.015 61.6754 16.5516 49.3975 16.5516C48.6823 16.5516 48.0863 16.5516 47.3711 16.6708L47.9671 0.697694C48.4439 0.697694 48.9207 0.697694 49.3975 0.697694C70.4964 0.578492 88.0191 16.3132 90.9991 36.6968Z" fill="#F8981D"/>
<path d="M42.8415 44.803C42.8415 46.1142 41.7686 47.0678 40.5766 47.0678C39.2654 47.0678 38.3118 45.995 38.3118 44.803C38.3118 43.4917 39.3846 42.5381 40.5766 42.5381C41.7686 42.5381 42.8415 43.6109 42.8415 44.803Z" fill="#507299"/>
<path d="M51.6635 47.9023C51.6635 49.2135 50.5907 50.1672 49.3987 50.1672C48.0874 50.1672 47.1338 49.0943 47.1338 47.9023C47.1338 46.5911 48.2066 45.6375 49.3987 45.6375C50.5907 45.6375 51.6635 46.7103 51.6635 47.9023Z" fill="#F8981D"/>
<path d="M57.7411 37.0544C57.7411 38.3656 56.6683 39.3193 55.4763 39.3193C54.165 39.3193 53.2114 38.2464 53.2114 37.0544C53.2114 35.7432 54.2842 34.7896 55.4763 34.7896C56.7875 34.7896 57.7411 35.8624 57.7411 37.0544Z" fill="#71CBCE"/>
<path opacity="0.3" d="M87.304 40.5106L83.0127 40.3914C83.0127 41.1066 83.132 41.941 83.132 42.6562C83.132 65.7814 64.298 84.6154 41.1727 84.6154C32.3518 84.6154 24.1268 81.8737 17.3323 77.1057C24.842 84.0194 34.855 88.3107 45.8217 88.3107C68.9469 88.3107 87.7808 69.4767 87.7808 46.3515C87.6616 44.4442 87.5424 42.4178 87.304 40.5106Z" fill="#3DAEB2"/>
<path opacity="0.3" d="M90.9986 36.6968H87.4225C83.3696 18.3396 67.2773 4.39294 47.9666 3.79693L48.0858 0.697694C48.5626 0.697694 49.0394 0.697694 49.5162 0.697694C70.4958 0.578492 88.0185 16.3132 90.9986 36.6968Z" fill="#C67206"/>
<path d="M87.3008 40.5108L71.0893 40.2724C71.5661 42.2989 71.8045 44.3253 71.8045 46.4709C71.8045 60.8944 60.1227 72.5762 45.6992 72.5762C31.2757 72.5762 19.5939 60.8944 19.5939 46.4709C19.5939 32.7627 30.2029 21.4384 43.6728 20.4848L44.2688 4.51172C21.7395 5.34613 3.73999 23.8225 3.73999 46.4709C3.73999 69.5962 22.574 88.4301 45.6992 88.4301C68.8245 88.4301 87.6584 69.5962 87.6584 46.4709C87.6584 44.4445 87.5392 42.4181 87.3008 40.5108Z" stroke="#3C2415" stroke-miterlimit="10"/>
<path d="M7.67529 71.0269C8.2713 71.9805 8.86729 72.8149 9.5825 73.6493" stroke="#3C2415" stroke-miterlimit="10" stroke-linecap="round"/>
<path d="M1 53.3853C1.83442 59.107 3.86084 64.4711 6.7217 69.3584" stroke="#3C2415" stroke-miterlimit="10" stroke-linecap="round"/>
<path d="M90.9991 36.6968L74.7876 36.4584C72.046 25.015 61.6754 16.5516 49.3975 16.5516C48.6823 16.5516 48.0863 16.5516 47.3711 16.6708L47.9671 0.697694C48.4439 0.697694 48.9207 0.697694 49.3975 0.697694C70.4964 0.578492 88.0191 16.3132 90.9991 36.6968Z" stroke="#3C2415" stroke-miterlimit="10"/>
<path d="M80.1499 9.75684C80.6267 10.1144 80.9843 10.5913 81.4611 11.0681" stroke="#3C2415" stroke-miterlimit="10" stroke-linecap="round"/>
<path d="M67.1553 1.53223C71.3274 3.20106 75.1418 5.58513 78.5987 8.44598" stroke="#3C2415" stroke-miterlimit="10" stroke-linecap="round"/>
<path d="M29.1316 32.167V61.6099H62.7466" stroke="#3C2415" stroke-miterlimit="10" stroke-linecap="round"/>
<path d="M35.4509 61.4904V58.8679" stroke="#3C2415" stroke-miterlimit="10" stroke-linecap="round"/>
<path d="M41.2913 61.4904V58.8679" stroke="#3C2415" stroke-miterlimit="10" stroke-linecap="round"/>
<path d="M47.2524 61.4904V58.8679" stroke="#3C2415" stroke-miterlimit="10" stroke-linecap="round"/>
<path d="M53.2114 61.4904V58.8679" stroke="#3C2415" stroke-miterlimit="10" stroke-linecap="round"/>
<path d="M53.2114 61.4904V58.8679" stroke="#3C2415" stroke-miterlimit="10" stroke-linecap="round"/>
<path d="M59.1726 61.4911V58.8687" stroke="#3C2415" stroke-miterlimit="10" stroke-linecap="round"/>
<path d="M29.2502 37.4121H31.7535" stroke="#3C2415" stroke-miterlimit="10" stroke-linecap="round"/>
<path d="M29.2502 43.3726H31.7535" stroke="#3C2415" stroke-miterlimit="10" stroke-linecap="round"/>
<path d="M29.2502 49.3325H31.7535" stroke="#3C2415" stroke-miterlimit="10" stroke-linecap="round"/>
<path d="M29.2502 55.2925H31.7535" stroke="#3C2415" stroke-miterlimit="10" stroke-linecap="round"/>
<path d="M58.8145 36.8159L62.1521 36.9351" stroke="#3C2415" stroke-miterlimit="10" stroke-linecap="round"/>
<path d="M51.0647 45.0409L53.6871 40.1536" stroke="#3C2415" stroke-miterlimit="10" stroke-linecap="round"/>
<path d="M43.6753 45.8755L46.0593 46.8291" stroke="#3C2415" stroke-miterlimit="10" stroke-linecap="round"/>
<path d="M34.7368 55.1734L38.5513 48.0212" stroke="#3C2415" stroke-miterlimit="10" stroke-linecap="round"/>
<path d="M42.8415 44.803C42.8415 46.1142 41.7686 47.0678 40.5766 47.0678C39.2654 47.0678 38.3118 45.995 38.3118 44.803C38.3118 43.4917 39.3846 42.5381 40.5766 42.5381C41.7686 42.5381 42.8415 43.6109 42.8415 44.803Z" stroke="#3C2415" stroke-miterlimit="10" stroke-linecap="round"/>
<path d="M51.6635 47.9023C51.6635 49.2135 50.5907 50.1672 49.3987 50.1672C48.0874 50.1672 47.1338 49.0943 47.1338 47.9023C47.1338 46.5911 48.2066 45.6375 49.3987 45.6375C50.5907 45.6375 51.6635 46.7103 51.6635 47.9023Z" stroke="#3C2415" stroke-miterlimit="10" stroke-linecap="round"/>
<path d="M57.7411 37.0544C57.7411 38.3656 56.6683 39.3193 55.4763 39.3193C54.165 39.3193 53.2114 38.2464 53.2114 37.0544C53.2114 35.7432 54.2842 34.7896 55.4763 34.7896C56.7875 34.7896 57.7411 35.8624 57.7411 37.0544Z" stroke="#3C2415" stroke-miterlimit="10" stroke-linecap="round"/>
<path d="M18.4013 18.5781C18.1629 18.8165 17.9245 19.0549 17.6861 19.2933L16.4941 20.4853L15.4213 21.7966C14.706 22.631 13.9908 23.5846 13.3948 24.5382C12.0836 26.4455 11.0108 28.4719 10.0571 30.4984C9.22273 32.644 8.50751 34.7896 8.1499 37.0545C8.1499 37.2929 8.26909 37.5313 8.50749 37.5313C8.7459 37.6505 8.9843 37.4121 9.10351 37.1737C9.69952 35.1472 10.5339 33.0016 11.4876 31.0944C12.4412 29.1871 13.514 27.2799 14.8252 25.4918C16.0173 23.7038 17.4477 21.9158 18.8781 20.3662C19.2357 20.0086 19.4741 19.6509 19.8317 19.2933C19.2357 19.0549 18.7589 18.8165 18.4013 18.5781Z" fill="white"/>
<path d="M20.9083 17.8629C21.7427 17.0284 22.458 16.3132 23.2924 15.4788C23.4116 15.3596 23.5308 15.1212 23.2924 14.8828C23.1732 14.6444 22.8156 14.6444 22.6964 14.7636C21.7427 15.4788 20.9084 16.0748 20.0739 16.7901C19.9547 16.9093 19.8355 17.0284 19.7163 17.0284C20.1931 17.5052 20.5507 17.6245 20.9083 17.8629Z" fill="white"/>
<path d="M55.9532 36.8156C56.6684 36.8156 56.6684 35.6235 55.9532 35.6235C55.1188 35.6235 55.1188 36.8156 55.9532 36.8156Z" fill="white"/>
<path d="M49.7554 47.6639C50.4706 47.6639 50.4706 46.4719 49.7554 46.4719C49.0402 46.4719 49.0402 47.6639 49.7554 47.6639Z" fill="white"/>
<path d="M40.8147 44.5641C41.5299 44.5641 41.5299 43.3721 40.8147 43.3721C40.0995 43.3721 40.0995 44.5641 40.8147 44.5641Z" fill="white"/>
</svg>
