<svg width="35" height="36" viewBox="0 0 35 36" fill="none" xmlns="http://www.w3.org/2000/svg">
<g clip-path="url(#clip0)">
<path d="M17.1308 34.6528C26.2961 34.6528 33.726 27.2229 33.726 18.0576C33.726 8.89233 26.2961 1.4624 17.1308 1.4624C7.96557 1.4624 0.535645 8.89233 0.535645 18.0576C0.535645 27.2229 7.96557 34.6528 17.1308 34.6528Z" fill="#2DA4E1"/>
<path d="M19.4199 34.0802C10.2546 34.0802 2.82467 26.6502 2.82467 17.485C2.82467 10.1242 7.61739 3.88381 14.252 1.71143C6.45906 3.07453 0.535645 9.87381 0.535645 18.0572C0.535645 27.2225 7.96558 34.6524 17.1308 34.6524C18.9354 34.6524 20.6722 34.3633 22.2987 33.8307C21.3636 33.9942 20.4017 34.0802 19.4199 34.0802Z" fill="#2B90C4"/>
<path d="M12.6226 27.786L11.3047 19.8788L25.1423 8.67676L12.6226 27.786Z" fill="#CCCCCC"/>
<path d="M14.2693 20.8672L12.6221 27.786L25.1419 8.67676L14.2693 20.8672Z" fill="#CCCCCC"/>
<path d="M14.2717 20.8672L25.1443 8.67676L24.1843 24.9953C24.1707 25.2277 23.9269 25.3729 23.7161 25.2745L14.2717 20.8672Z" fill="white"/>
<path d="M25.1441 8.67676L6.69652 17.2644C6.43935 17.3841 6.44363 17.7513 6.70355 17.8649L11.3064 19.8786L25.1441 8.67676Z" fill="white"/>
<path d="M32.833 11.1942C31.9164 9.10014 30.6089 7.23533 28.9467 5.65192C28.7321 5.44748 28.3926 5.45564 28.1882 5.67033C27.9838 5.88487 27.9921 6.22443 28.2066 6.42874C31.4204 9.49043 33.1904 13.6203 33.1904 18.0575C33.1904 26.9123 25.9865 34.1162 17.1316 34.1162C8.27675 34.1162 1.07294 26.9123 1.07294 18.0575C1.07294 9.20267 8.27689 1.99872 17.1317 1.99872C20.3664 1.99872 23.4845 2.95609 26.1487 4.76716C26.3937 4.93373 26.7274 4.87009 26.894 4.62516C27.0606 4.38009 26.9969 4.04643 26.752 3.87986C23.909 1.94733 20.5824 0.925781 17.1317 0.925781C12.5557 0.925781 8.25353 2.70775 5.01778 5.94356C1.78203 9.17931 0 13.4814 0 18.0575C0 22.6335 1.78203 26.9356 5.01778 30.1714C8.25353 33.4072 12.5557 35.1892 17.1317 35.1892C21.7077 35.1892 26.0099 33.4072 29.2456 30.1714C32.4814 26.9356 34.2634 22.6335 34.2634 18.0575C34.2634 15.6716 33.7822 13.3625 32.833 11.1942Z" fill="#574E56"/>
<path d="M25.6792 8.66199C25.6686 8.28215 25.2606 8.03113 24.9168 8.19013L14.5992 12.9931C14.3306 13.1181 14.2142 13.4373 14.3393 13.7059C14.4643 13.9746 14.7835 14.0911 15.052 13.9659L21.4165 11.0031L18.3223 13.508L11.2216 19.2562L7.33778 17.557L12.7802 15.0235C13.0488 14.8984 13.1652 14.5793 13.0401 14.3106C12.915 14.042 12.5958 13.9255 12.3274 14.0506L6.46914 16.7778C6.1577 16.9227 5.96108 17.2399 5.96898 17.5832C5.97668 17.9191 6.17971 18.2215 6.48748 18.3561L10.8241 20.2533L12.0942 27.8739C12.1723 28.345 12.8103 28.4792 13.0721 28.0796L16.6748 22.5807L23.4881 25.7602C24.034 26.0152 24.6836 25.6256 24.7188 25.0264L25.6786 8.70783C25.6797 8.69277 25.6796 8.67725 25.6792 8.66199ZM16.2865 21.2155L15.1511 20.6857L20.7369 14.4229L19.929 15.6561L16.2865 21.2155ZM14.6402 21.6312L15.6924 22.1223L13.8558 24.9256L14.6402 21.6312ZM20.3427 13.2528L13.8703 20.5097C13.8121 20.575 13.7689 20.6572 13.7488 20.7425L12.7161 25.0794L11.886 20.0987L20.3427 13.2528ZM23.6656 24.6591L17.2689 21.674L24.4895 10.6532L23.6656 24.6591Z" fill="#574E56"/>
</g>
<defs>
<clipPath id="clip0">
<rect width="34.2634" height="34.2634" fill="white" transform="translate(0 0.925781)"/>
</clipPath>
</defs>
</svg>
