<svg width="106" height="30" viewBox="0 0 106 30" fill="none" xmlns="http://www.w3.org/2000/svg">
<rect width="100" height="30" rx="5" fill="#2B2A29"/>
<path d="M106 15L98 9V21L106 15Z" fill="#2B2A29"/>
<path d="M26.392 9.2V11.048H23.746V19H21.814V11.048H19.182V9.2H26.392ZM27.6411 16.242C27.8837 17.1193 28.5417 17.558 29.6151 17.558C30.3057 17.558 30.8284 17.3247 31.1831 16.858L32.6391 17.698C31.9484 18.6967 30.9311 19.196 29.5871 19.196C28.4297 19.196 27.5011 18.846 26.8011 18.146C26.1011 17.446 25.7511 16.564 25.7511 15.5C25.7511 14.4453 26.0964 13.568 26.7871 12.868C27.4777 12.1587 28.3644 11.804 29.4471 11.804C30.4737 11.804 31.3184 12.1587 31.9811 12.868C32.6531 13.5773 32.9891 14.4547 32.9891 15.5C32.9891 15.7333 32.9657 15.9807 32.9191 16.242H27.6411ZM27.6131 14.842H31.1831C31.0804 14.366 30.8657 14.0113 30.5391 13.778C30.2217 13.5447 29.8577 13.428 29.4471 13.428C28.9617 13.428 28.5604 13.554 28.2431 13.806C27.9257 14.0487 27.7157 14.394 27.6131 14.842ZM34.2498 19V8.78H36.0558V19H34.2498ZM39.2348 16.242C39.4775 17.1193 40.1355 17.558 41.2088 17.558C41.8995 17.558 42.4221 17.3247 42.7768 16.858L44.2328 17.698C43.5421 18.6967 42.5248 19.196 41.1808 19.196C40.0235 19.196 39.0948 18.846 38.3948 18.146C37.6948 17.446 37.3448 16.564 37.3448 15.5C37.3448 14.4453 37.6901 13.568 38.3808 12.868C39.0715 12.1587 39.9581 11.804 41.0408 11.804C42.0675 11.804 42.9121 12.1587 43.5748 12.868C44.2468 13.5773 44.5828 14.4547 44.5828 15.5C44.5828 15.7333 44.5595 15.9807 44.5128 16.242H39.2348ZM39.2068 14.842H42.7768C42.6741 14.366 42.4595 14.0113 42.1328 13.778C41.8155 13.5447 41.4515 13.428 41.0408 13.428C40.5555 13.428 40.1541 13.554 39.8368 13.806C39.5195 14.0487 39.3095 14.394 39.2068 14.842ZM51.1509 12H52.9149V18.664C52.9149 19.7467 52.5556 20.5727 51.8369 21.142C51.1276 21.7113 50.2689 21.996 49.2609 21.996C48.5049 21.996 47.8376 21.8513 47.2589 21.562C46.6896 21.2727 46.2509 20.848 45.9429 20.288L47.4829 19.406C47.8376 20.0593 48.4489 20.386 49.3169 20.386C49.8862 20.386 50.3342 20.2367 50.6609 19.938C50.9876 19.6393 51.1509 19.2147 51.1509 18.664V17.908C50.6189 18.6173 49.8722 18.972 48.9109 18.972C47.9216 18.972 47.0909 18.6267 46.4189 17.936C45.7562 17.236 45.4249 16.3867 45.4249 15.388C45.4249 14.3987 45.7609 13.554 46.4329 12.854C47.1049 12.154 47.9309 11.804 48.9109 11.804C49.8722 11.804 50.6189 12.1587 51.1509 12.868V12ZM47.7769 16.774C48.1502 17.1287 48.6216 17.306 49.1909 17.306C49.7602 17.306 50.2269 17.1287 50.5909 16.774C50.9642 16.41 51.1509 15.948 51.1509 15.388C51.1509 14.8373 50.9642 14.3847 50.5909 14.03C50.2269 13.666 49.7602 13.484 49.1909 13.484C48.6216 13.484 48.1502 13.666 47.7769 14.03C47.4129 14.3847 47.2309 14.8373 47.2309 15.388C47.2309 15.948 47.4129 16.41 47.7769 16.774ZM56.3586 13.204C56.5266 12.756 56.8019 12.42 57.1846 12.196C57.5766 11.972 58.0106 11.86 58.4866 11.86V13.876C57.9359 13.8107 57.4412 13.9227 57.0026 14.212C56.5732 14.5013 56.3586 14.982 56.3586 15.654V19H54.5526V12H56.3586V13.204ZM64.603 12H66.409V19H64.603V18.174C64.0617 18.8553 63.301 19.196 62.321 19.196C61.3877 19.196 60.585 18.8413 59.913 18.132C59.2504 17.4133 58.919 16.536 58.919 15.5C58.919 14.464 59.2504 13.5913 59.913 12.882C60.585 12.1633 61.3877 11.804 62.321 11.804C63.301 11.804 64.0617 12.1447 64.603 12.826V12ZM61.271 16.928C61.635 17.292 62.097 17.474 62.657 17.474C63.217 17.474 63.679 17.292 64.043 16.928C64.4164 16.5547 64.603 16.0787 64.603 15.5C64.603 14.9213 64.4164 14.45 64.043 14.086C63.679 13.7127 63.217 13.526 62.657 13.526C62.097 13.526 61.635 13.7127 61.271 14.086C60.907 14.45 60.725 14.9213 60.725 15.5C60.725 16.0787 60.907 16.5547 61.271 16.928ZM75.7887 11.804C76.5914 11.804 77.2307 12.0653 77.7067 12.588C78.192 13.1107 78.4347 13.8107 78.4347 14.688V19H76.6287V14.814C76.6287 14.394 76.526 14.0673 76.3207 13.834C76.1154 13.6007 75.826 13.484 75.4527 13.484C75.042 13.484 74.72 13.6193 74.4867 13.89C74.2627 14.1607 74.1507 14.5527 74.1507 15.066V19H72.3447V14.814C72.3447 14.394 72.242 14.0673 72.0367 13.834C71.8314 13.6007 71.542 13.484 71.1687 13.484C70.7674 13.484 70.4454 13.6193 70.2027 13.89C69.9694 14.1607 69.8527 14.5527 69.8527 15.066V19H68.0467V12H69.8527V12.742C70.2727 12.1167 70.9214 11.804 71.7987 11.804C72.6574 11.804 73.292 12.14 73.7027 12.812C74.1694 12.14 74.8647 11.804 75.7887 11.804Z" fill="white"/>
</svg>
