<svg width="879" height="295" viewBox="0 0 879 295" fill="none" xmlns="http://www.w3.org/2000/svg">
<path fill-rule="evenodd" clip-rule="evenodd" d="M95.2792 156.5C95.2792 88.7759 146.978 33.5071 211.963 33.5071C276.216 33.5071 328.647 88.7759 328.647 156.5C328.647 224.224 276.216 279.492 211.963 279.492C147.715 279.492 95.2792 225.002 95.2792 156.5ZM168.394 156.5C168.394 181.409 188.335 202.428 211.963 202.428C235.597 202.428 254.8 181.409 255.538 156.5C255.538 131.59 235.597 110.572 211.963 110.572C188.335 110.572 168.394 131.59 168.394 156.5ZM94.5306 248.352V69.3131H0L53.1738 248.352H94.5306Z" fill="white"/>
<path d="M440.38 33.5071V279.492" stroke="white" stroke-width="1.11412" stroke-miterlimit="16" stroke-linejoin="round"/>
<path d="M561.727 81.3798H572.049V131.067V131.217H572.199H584.92H585.07V131.067V1V0.85H584.92H565.933C561.329 0.85 556.85 1.64926 552.67 3.38278C548.488 5.05062 544.795 7.65195 541.644 11.0512C538.49 14.4531 536.008 18.719 534.195 23.9114C532.381 29.1066 531.475 35.0964 531.475 41.8782C531.475 51.6469 533.045 59.3074 536.26 64.9794C539.445 70.5995 543.579 74.846 548.742 77.7779L526.661 130.944L526.575 131.151H526.8H541.515H541.616L541.654 131.057L561.727 81.3798ZM565.447 12.7632H572.049V69.4005H565.447C562.693 69.4005 560.119 68.939 557.664 68.0166C555.217 67.0968 553.064 65.5862 551.273 63.4164C549.481 61.2454 548.041 58.4114 547.022 54.9094C546.004 51.4097 545.459 47.0449 545.459 41.8119C545.459 36.3142 546.063 31.7511 547.2 28.0532C548.347 24.3499 549.848 21.3829 551.699 19.1458C553.551 16.9082 555.705 15.3298 558.089 14.2774C560.485 13.2892 562.937 12.7632 565.447 12.7632Z" fill="white" stroke="white" stroke-width="0.3" stroke-linecap="round"/>
<path d="M754.492 65.9738C754.786 69.2441 754.965 72.8381 754.969 76.6268H733.937C734.36 68.4783 735.387 61.9772 737.058 57.1167C737.897 54.6765 739 52.861 740.375 51.6562C741.747 50.4542 743.4 49.8519 745.357 49.8519C747.185 49.8519 748.774 50.5004 750.006 51.7961L750.006 51.7964C751.254 53.1004 752.208 54.9341 752.929 57.3759L752.929 57.3769C753.65 59.7538 754.186 62.6632 754.492 65.9738ZM754.492 65.9738L754.641 65.9603M754.492 65.9738C754.492 65.9739 754.492 65.974 754.492 65.9741L754.641 65.9603M754.641 65.9603C754.335 62.6423 753.797 59.7224 753.073 57.3334M754.641 65.9603C754.936 69.235 755.115 72.8335 755.119 76.6268C755.119 76.6768 755.119 76.7268 755.119 76.7768L753.073 57.3334M753.073 57.3334C752.348 54.878 751.384 53.0199 750.115 51.6927L753.073 57.3334ZM646.386 39.3496V39.1996H646.236H633.516H633.366V39.3496V78.1535H614.491V39.3496V39.1996H614.341H601.434H601.284V39.3496V130.994V131.144H601.434H614.341H614.491V130.994V90.0662H633.366V130.994V131.144H633.516H646.236H646.386V130.994V39.3496ZM700.77 148.978V149.128H700.92H712.289H712.439H712.498V148.978H712.589V119.381V119.231H712.439H705.956V39.3496V39.1996H705.806H667.158H667.008V39.3496V47.0475C667.008 53.1517 666.949 59.3881 666.762 65.8897L666.762 65.8898C666.583 72.3904 666.224 78.7576 665.62 84.9911C665.015 91.2254 664.172 97.2598 663.089 103.162C662.015 109.021 660.521 114.355 658.674 119.164H653.653H653.503V119.314V148.978V149.128H653.653H665.224H665.374V148.978V131.144H700.77V148.978ZM768.603 124.935L768.674 124.873L768.649 124.782L765.579 113.766L765.518 113.546L765.34 113.69C763.723 115.008 761.5 116.396 758.676 117.786L758.672 117.788C755.92 119.234 752.696 119.894 749.091 119.894C746.527 119.894 744.296 119.222 742.386 117.897C740.475 116.571 738.876 114.586 737.589 111.949C735.024 106.696 733.762 98.8776 733.75 88.5403H768.325H768.475V88.3903V80.5595C768.475 72.789 767.93 66.2089 766.844 60.8209L766.844 60.8197C765.699 55.3694 764.186 50.9723 762.188 47.5687L762.188 47.5685C760.182 44.1646 757.691 41.688 754.832 40.1467C751.977 38.6073 748.814 37.8724 745.357 37.8724C740.925 37.8724 737.09 39.2102 733.865 41.7536C730.645 44.2935 728.04 47.832 725.986 52.4278C723.925 57.0223 722.48 62.4113 721.515 68.5915L721.515 68.5927C720.602 74.7727 720.124 81.6153 720.124 88.9872C720.124 103.136 722.598 113.921 727.567 121.322C732.539 128.729 739.337 132.405 748.008 132.405C752.185 132.405 755.998 131.738 759.453 130.404C762.912 129.07 765.938 127.27 768.603 124.935ZM794.581 81.0849V39.3496V39.1996H794.431H781.531H781.381V39.3496V130.994V131.144H781.531H794.431H794.581V130.994V85.9953L816.301 131.125L816.342 131.21H816.436H830.487H830.726L830.621 130.994L807.02 82.4836L827.671 39.4144L827.774 39.1996H827.536H814.449H814.354L814.314 39.2856L794.581 81.0849ZM870.818 39.277L870.817 39.2765C868.441 38.338 865.41 37.8724 861.657 37.8724C856.807 37.8724 852.499 39.0065 848.798 41.279C845.1 43.5491 842.007 46.7524 839.523 50.8182C837.041 54.8832 835.168 59.8099 833.896 65.6614C832.571 71.4486 831.965 77.9634 831.965 85.1388C831.965 100.877 834.498 112.724 839.586 120.59C844.676 128.461 851.714 132.405 860.693 132.405C864.569 132.405 867.909 131.806 870.646 130.533C873.372 129.265 875.857 127.598 878.102 125.53L878.169 125.467L878.144 125.379L875.186 114.828L875.118 114.584L874.937 114.761C873.382 116.275 871.467 117.594 869.184 118.783C866.917 119.964 864.171 120.558 860.992 120.558C858.402 120.558 856.145 119.788 854.229 118.244C852.311 116.697 850.728 114.366 849.502 111.23L849.502 111.23C847.039 104.951 845.77 96.0136 845.77 84.4753C845.77 72.8029 847.279 64.0726 850.212 58.3977L850.213 58.3972C853.156 52.6517 856.909 49.8519 861.478 49.8519C864.103 49.8519 866.61 50.5087 868.94 51.8234C871.284 53.1454 873.379 54.6641 875.116 56.3784L875.33 56.5896L875.37 56.2916L877.178 42.8203L877.19 42.7305L877.116 42.6781C875.238 41.3433 873.121 40.2098 870.818 39.277ZM671.228 119.231C673.003 114.433 674.369 109.247 675.321 103.546C676.285 97.7686 677.07 91.9253 677.616 86.015C678.161 80.1057 678.52 74.2631 678.699 68.487C678.879 62.7779 678.946 57.4675 678.946 52.6217V51.1128H692.995V119.231H671.228Z" fill="white" stroke="white" stroke-width="0.3" stroke-linecap="round"/>
<path d="M534.225 294.021H534.367L534.375 293.879L535.48 272.918H584.537L585.649 294.008L585.657 294.15H585.799H592.096H592.246V294V265.777V265.627H592.096H584.358V146.022V145.872H584.208H543.927H543.779L543.777 146.02C543.538 163.757 543.247 179.55 542.948 193.338L542.948 193.338C542.657 207.124 542.067 218.772 541.186 228.218L541.186 228.219C540.365 237.341 539.193 245.232 537.664 251.825C536.143 258.385 533.992 262.996 531.282 265.562H527.928H527.778V265.712V293.871V294.021H527.928H534.225ZM548.723 228.115L548.723 228.113C549.365 218.854 549.895 208.107 550.306 195.806C550.723 183.608 551.014 169.351 551.245 153.164H576.007V265.497H540.51C542.567 262.492 544.279 257.952 545.597 251.891L545.598 251.89C546.899 245.667 547.953 237.764 548.723 228.115Z" fill="white" stroke="white" stroke-width="0.3"/>
<path d="M612.335 257.63C609.476 251.211 607.954 241.898 607.705 229.617H644.427H644.566L644.577 229.48C645.227 221.575 645.168 214.573 644.397 208.605C643.634 202.575 642.339 197.575 640.508 193.544C638.678 189.513 636.31 186.447 633.521 184.422L633.52 184.421C630.671 182.396 627.459 181.35 623.902 181.35C620.397 181.35 617.192 182.397 614.284 184.486L614.284 184.486C611.385 186.575 608.899 189.637 606.77 193.665L606.77 193.665C604.648 197.694 602.993 202.563 601.818 208.335C600.636 214.107 600.053 220.656 600.053 227.979C600.053 242.684 602.108 254.103 606.186 262.288C608.223 266.386 610.841 269.467 614.036 271.524C617.231 273.58 620.995 274.606 625.314 274.606C628.564 274.606 631.407 274.086 633.781 273.106C636.144 272.131 638.158 270.96 639.754 269.655C641.593 268.282 643.135 266.522 644.434 264.504L644.474 264.442L644.449 264.372L642.037 257.64L641.932 257.349L641.768 257.611C640.603 259.477 639.201 261.147 637.626 262.429L637.625 262.429L637.619 262.435C636.219 263.719 634.528 264.876 632.48 265.84L632.48 265.84C630.45 266.8 628.12 267.251 625.433 267.251C622.49 267.251 619.933 266.45 617.756 264.852C615.577 263.253 613.769 260.849 612.335 257.63ZM612.921 197.494L612.921 197.494C615.965 191.69 619.63 188.836 623.843 188.836C627.816 188.836 631.309 191.56 634.001 196.974L634.123 196.913L634.001 196.974C636.676 202.354 637.741 210.948 637.107 222.779H607.886C608.188 211.666 609.888 203.264 612.921 197.494Z" fill="white" stroke="white" stroke-width="0.3"/>
<path d="M666.26 272.986H666.41V272.836V230.198H693.806V272.771V272.921H693.956H701.544H701.694V272.771V183.376V183.226H701.544H693.956H693.806V183.376V222.778H666.41V183.376V183.226H666.26H658.671H658.521V183.376V272.836V272.986H658.671H666.26Z" fill="white" stroke="white" stroke-width="0.3"/>
<path d="M719.431 183.226H719.281V183.376V272.771V272.921H719.431H732.487C740.162 272.921 746.439 270.514 751.295 265.758L751.295 265.758C756.152 260.994 758.57 253.829 758.57 244.354C758.57 235.01 756.272 227.973 751.587 223.338C746.968 218.71 740.75 216.369 732.958 216.369H727.162V183.376V183.226H727.012H719.431ZM745.613 261.075L745.613 261.075C742.059 264.41 737.512 266.083 731.838 266.083H727.162V223.272H732.659C738.395 223.272 742.878 224.944 746.077 228.274C749.273 231.664 750.861 237.055 750.861 244.613C750.861 252.299 749.161 257.751 745.613 261.075Z" fill="white" stroke="white" stroke-width="0.3"/>
<path d="M778.886 272.921H779.036V272.771V190.647H805.819H805.969V190.497V183.376V183.226H805.819H771.469H771.319V183.376V272.771V272.921H771.469H778.886Z" fill="white" stroke="white" stroke-width="0.3"/>
<path d="M855.302 204.018L855.302 204.018C855.19 205.963 855.13 208.103 855.13 210.5V272.708V272.858H855.28H862.51H862.66V272.708V183.313V183.163H862.51H855.922H855.823L855.784 183.254L829.382 246.042C829.381 246.043 829.381 246.043 829.381 246.044C828.689 247.619 828.071 249.195 827.465 250.737C827.299 251.162 827.133 251.584 826.967 252.003L826.967 252.003C826.217 253.915 825.575 255.889 825.049 257.863H824.858C825.032 255.911 825.205 253.957 825.314 252.003C825.434 249.993 825.494 247.853 825.494 245.456V183.378V183.228H825.344H818.226H818.076V183.378V272.772V272.922H818.226H824.694H824.794L824.832 272.83L851.243 209.846L851.244 209.845C852.065 207.839 852.886 205.898 853.655 204.086L853.656 204.085C854.406 202.299 855.048 200.389 855.568 198.416H855.758C855.591 200.242 855.418 202.13 855.302 204.018Z" fill="white" stroke="white" stroke-width="0.3"/>
</svg>
