<svg width="671" height="205" viewBox="0 0 671 205" fill="none" xmlns="http://www.w3.org/2000/svg">
<path fill-rule="evenodd" clip-rule="evenodd" d="M73.1203 108.735C73.1203 61.814 112.544 23.522 162.1 23.522C211.098 23.522 251.08 61.814 251.08 108.735C251.08 155.657 211.098 193.949 162.1 193.949C113.107 193.949 73.1203 156.196 73.1203 108.735ZM128.875 108.735C128.875 125.994 144.082 140.556 162.1 140.556C180.123 140.556 194.767 125.994 195.329 108.735C195.329 91.4771 180.123 76.9149 162.1 76.9149C144.082 76.9149 128.875 91.4771 128.875 108.735ZM72.5494 172.374V48.3295H0.463135L41.0119 172.374H72.5494Z" fill="#202020" fill-opacity="0.8"/>
<path d="M336.284 23.522V193.949" stroke="#202020" stroke-opacity="0.8" stroke-width="1.11412" stroke-miterlimit="16" stroke-linejoin="round"/>
<path d="M428.84 56.7358H436.656V91.1146V91.2646H436.806H446.506H446.656V91.1146V1V0.85H446.506H432.027C428.514 0.85 425.096 1.4041 421.904 2.60643C418.711 3.7634 415.891 5.56822 413.484 7.92736C411.074 10.2891 409.178 13.2505 407.793 16.8542C406.406 20.4609 405.715 24.6177 405.715 29.3218C405.715 36.0959 406.913 41.4145 409.372 45.3552C411.797 49.2433 414.942 52.1836 418.867 54.2169L402.049 91.0066L401.952 91.219H402.185H413.406H413.504L413.543 91.13L428.84 56.7358ZM431.657 9.19598H436.656V48.344H431.657C429.559 48.344 427.599 48.0247 425.73 47.3866C423.868 46.7508 422.232 45.7071 420.871 44.2094C419.509 42.7108 418.414 40.7537 417.639 38.3335C416.865 35.9156 416.45 32.8975 416.45 29.2758C416.45 25.4712 416.91 22.316 417.775 19.761C418.647 17.2004 419.789 15.1511 421.196 13.6068C422.603 12.0616 424.241 10.9709 426.055 10.2433C427.879 9.55979 429.746 9.19598 431.657 9.19598Z" fill="#484C4D" stroke="white" stroke-width="0.3" stroke-linecap="round"/>
<path d="M493.414 27.5699V27.4199H493.264H483.564H483.414V27.5699V54.4084H469.092V27.5699V27.4199H468.942H459.099H458.949V27.5699V91.0643V91.2143H459.099H468.942H469.092V91.0643V62.7541H483.414V91.0643V91.2143H483.564H493.264H493.414V91.0643V27.5699ZM534.815 103.524V103.674H534.965H543.598H543.748H543.794V103.524H543.898V83.0181V82.8681H543.748H538.84V27.5699V27.4199H538.69H509.219H509.069V27.5699V32.9032C509.069 37.132 509.023 41.4522 508.881 45.9559L508.881 45.9561C508.744 50.4588 508.471 54.8688 508.01 59.1859C507.549 63.5035 506.906 67.6827 506.081 71.7701C505.265 75.8158 504.13 79.4996 502.728 82.8219H498.92H498.77V82.9719V103.524V103.674H498.92H507.743H507.893V103.524V91.2143H534.815V103.524ZM586.596 86.9056L586.676 86.842L586.646 86.7443L584.305 79.1122L584.243 78.9094L584.072 79.0356C582.842 79.9465 581.149 80.9069 578.996 81.8695L578.993 81.8711C576.899 82.8707 574.445 83.3277 571.698 83.3277C569.747 83.3277 568.051 82.8628 566.6 81.9486C565.149 81.034 563.935 79.6646 562.956 77.8434C561.011 74.2235 560.048 68.8326 560.035 61.6969H586.366H586.516V61.5469V56.1214C586.516 50.7352 586.099 46.172 585.27 42.4339L585.27 42.4326C584.396 38.6528 583.241 35.6001 581.713 33.2356L581.713 33.2354C580.179 30.8704 578.274 29.1496 576.088 28.0789C573.906 27.01 571.49 26.5004 568.85 26.5004C565.466 26.5004 562.536 27.4284 560.071 29.1951C557.61 30.959 555.618 33.4166 554.049 36.6071C552.474 39.7959 551.371 43.5348 550.635 47.8203L550.635 47.8216C549.938 52.1066 549.573 56.8504 549.573 61.9604C549.573 71.7693 551.461 79.2544 555.259 84.3945C559.059 89.5382 564.254 92.0875 570.873 92.0875C574.06 92.0875 576.97 91.6257 579.609 90.7C582.249 89.7751 584.559 88.5261 586.596 86.9056ZM574.592 40.076L574.592 40.0771C575.14 41.7193 575.549 43.7309 575.781 46.0214C576.004 48.2722 576.14 50.7446 576.145 53.3507H560.18C560.505 47.7309 561.286 43.2493 562.554 39.8988C563.191 38.2144 564.028 36.9644 565.07 36.1355C566.109 35.3084 567.363 34.8923 568.85 34.8923C570.24 34.8923 571.443 35.3401 572.375 36.2301L572.375 36.2304C573.32 37.1274 574.044 38.39 574.592 40.076ZM606.423 56.335V27.5699V27.4199H606.273H596.436H596.286V27.5699V91.0643V91.2143H596.436H606.273H606.423V91.0643V60.0356L622.921 91.1801L622.963 91.2598H623.054H633.768H634.019L633.9 91.039L615.916 57.4544L631.651 27.6399L631.767 27.4199H631.518H621.539H621.448L621.406 27.5007L606.423 56.335ZM664.533 27.4751L664.532 27.4747C662.715 26.8231 660.401 26.5004 657.538 26.5004C653.836 26.5004 650.547 27.2867 647.719 28.8642C644.894 30.4397 642.53 32.6635 640.633 35.4862C638.735 38.3085 637.305 41.7282 636.334 45.7878C635.322 49.8024 634.86 54.3202 634.86 59.2941C634.86 70.2036 636.792 78.4246 640.681 83.8866C644.571 89.3526 649.949 92.0875 656.803 92.0875C659.761 92.0875 662.311 91.6723 664.403 90.7883C666.484 89.9089 668.382 88.7522 670.097 87.3168L670.173 87.2528L670.144 87.1576L667.888 79.8473L667.82 79.6251L667.645 79.7791C666.463 80.8252 665.006 81.7373 663.266 82.5607C661.542 83.3766 659.452 83.7874 657.031 83.7874C655.06 83.7874 653.345 83.2556 651.89 82.1901C650.435 81.1236 649.232 79.5156 648.3 77.3493L648.3 77.3492C646.426 73.0086 645.458 66.8251 645.458 58.8344C645.458 50.751 646.609 44.7136 648.839 40.7935L648.839 40.793C651.077 36.8245 653.928 34.8923 657.401 34.8923C659.4 34.8923 661.307 35.3465 663.08 36.2551C664.865 37.1701 666.46 38.2207 667.781 39.4057L667.989 39.592L668.03 39.3159L669.409 29.9826L669.423 29.887L669.341 29.8346C667.907 28.9083 666.29 28.122 664.533 27.4751ZM512.381 82.8681C513.723 79.5594 514.757 75.9841 515.478 72.057C516.214 68.0532 516.812 64.0033 517.229 59.9068C517.645 55.8114 517.918 51.7622 518.055 47.7591C518.192 43.803 518.243 40.1231 518.243 36.7652V35.7658H528.885V82.8681H512.381Z" fill="#484C4D" stroke="white" stroke-width="0.3" stroke-linecap="round"/>
<path d="M407.847 204.061H407.989L407.997 203.919L408.837 189.44H446.18L447.027 204.009L447.035 204.15H447.176H451.978H452.128V204V184.446V184.296H451.978H446.113V101.476V101.326H445.963H415.246H415.098L415.096 101.474C414.914 113.762 414.692 124.704 414.464 134.257L414.464 134.257C414.242 143.808 413.792 151.876 413.12 158.419L413.12 158.419C412.494 164.738 411.601 170.202 410.436 174.766L410.581 174.804L410.436 174.766C409.279 179.3 407.646 182.48 405.593 184.251H403.046H402.896V184.401V203.911V204.061H403.046H407.847ZM418.938 158.358L418.938 158.356C419.428 151.94 419.833 144.493 420.146 135.97C420.464 127.529 420.685 117.667 420.862 106.47H439.673V184.206H412.723C414.272 182.116 415.56 178.989 416.554 174.838L416.554 174.837C417.547 170.523 418.351 165.044 418.938 158.358Z" fill="#484C4D" stroke="white" stroke-width="0.3"/>
<path d="M482.764 184.446L482.764 184.446C481.22 185.109 479.447 185.421 477.401 185.421C475.16 185.421 473.216 184.867 471.562 183.765C469.907 182.661 468.533 181.002 467.442 178.778C465.271 174.349 464.111 167.922 463.918 159.44H491.885H492.022L492.034 159.303C492.531 153.824 492.486 148.968 491.897 144.828C491.314 140.646 490.325 137.176 488.926 134.377C487.527 131.577 485.717 129.447 483.583 128.039L483.582 128.039C481.404 126.632 478.95 125.907 476.233 125.907C473.556 125.907 471.106 126.633 468.883 128.084L468.883 128.084C466.666 129.535 464.766 131.662 463.14 134.458L463.14 134.458C461.519 137.254 460.255 140.633 459.358 144.636C458.455 148.64 458.01 153.182 458.01 158.258C458.01 168.451 459.578 176.373 462.694 182.055C464.251 184.901 466.253 187.041 468.695 188.47C471.138 189.898 474.012 190.609 477.31 190.609C479.79 190.609 481.961 190.248 483.776 189.568C485.579 188.892 487.117 188.08 488.338 187.173C489.744 186.22 490.923 184.996 491.916 183.595L491.963 183.529L491.933 183.453L490.094 178.789L489.99 178.527L489.831 178.759C488.944 180.048 487.879 181.201 486.681 182.087L486.681 182.086L486.674 182.092C485.61 182.979 484.323 183.779 482.764 184.446ZM467.888 137.164L467.888 137.164C470.203 133.153 472.987 131.185 476.188 131.185C479.206 131.185 481.858 133.063 483.905 136.803L484.03 136.734L483.905 136.803C485.934 140.511 486.747 146.438 486.27 154.61H464.056C464.291 146.939 465.586 141.143 467.888 137.164Z" fill="#484C4D" stroke="white" stroke-width="0.3"/>
<path d="M508.533 189.487H508.683V189.337V159.842H529.503V189.292V189.442H529.653H535.44H535.59V189.292V127.356V127.206H535.44H529.653H529.503V127.356V154.609H508.683V127.356V127.206H508.533H502.747H502.597V127.356V189.337V189.487H502.747H508.533Z" fill="#484C4D" stroke="white" stroke-width="0.3"/>
<path d="M549.08 127.206H548.93V127.356V189.292V189.442H549.08H559.036C564.893 189.442 569.687 187.773 573.399 184.471L573.399 184.47C577.114 181.159 578.962 176.179 578.962 169.604C578.962 163.119 577.206 158.228 573.621 155.006C570.09 151.791 565.341 150.168 559.395 150.168H555.012V127.356V127.206H554.862H549.08ZM569.027 181.15L569.026 181.15C566.325 183.454 562.864 184.612 558.541 184.612H555.012V155.043H559.167C563.538 155.043 566.948 156.201 569.379 158.5C571.803 160.837 573.012 164.555 573.012 169.783C573.012 175.1 571.718 178.859 569.027 181.15Z" fill="#484C4D" stroke="white" stroke-width="0.3"/>
<path d="M594.419 189.442H594.569V189.292V132.44H614.958H615.108V132.29V127.356V127.206H614.958H588.763H588.613V127.356V189.292V189.442H588.763H594.419Z" fill="#484C4D" stroke="white" stroke-width="0.3"/>
<path d="M652.656 141.654L652.656 141.654C652.571 143.003 652.525 144.487 652.525 146.149V189.248V189.398H652.675H658.188H658.338V189.248V127.312V127.162H658.188H653.165H653.069L653.029 127.249L632.895 170.75C632.895 170.75 632.895 170.751 632.895 170.751C632.367 171.844 631.894 172.937 631.433 174.005C631.306 174.299 631.179 174.591 631.053 174.881L631.053 174.882C630.484 176.198 629.997 177.557 629.597 178.917H629.516C629.647 177.582 629.777 176.244 629.859 174.906C629.951 173.512 629.996 172.029 629.996 170.367V127.357V127.207H629.846H624.418H624.268V127.357V189.293V189.443H624.418H629.351H629.447L629.487 189.356L649.627 145.718L649.628 145.717C650.254 144.328 650.88 142.983 651.467 141.727L651.467 141.727C652.036 140.496 652.524 139.181 652.919 137.822H652.999C652.873 139.071 652.744 140.362 652.656 141.654Z" fill="#484C4D" stroke="white" stroke-width="0.3"/>
</svg>
