<svg width="95" height="80" viewBox="0 0 95 80" fill="none" xmlns="http://www.w3.org/2000/svg">
<rect width="95" height="80" fill="#A05F83"/>
<path fill-rule="evenodd" clip-rule="evenodd" d="M26.0922 40C26.0922 23.481 40.2499 10 58.0461 10C75.6419 10 90 23.481 90 40C90 56.5191 75.6419 70 58.0461 70C40.4519 70 26.0922 56.7088 26.0922 40ZM46.1147 40C46.1147 46.0759 51.5755 51.2026 58.0461 51.2026C64.5183 51.2026 69.7771 46.0759 69.9791 40C69.9791 33.9241 64.5183 28.7974 58.0461 28.7974C51.5755 28.7974 46.1147 33.9241 46.1147 40ZM25.8872 62.4044V18.7337H0L14.5616 62.4044H25.8872Z" fill="white"/>
</svg>
