<svg width="70" height="70" viewBox="0 0 70 70" fill="none" xmlns="http://www.w3.org/2000/svg">
<path d="M13.351 48.5025C13.0709 48.5034 12.843 48.277 12.8421 47.9969C12.8415 47.828 12.9251 47.67 13.0649 47.5752L14.7895 46.4005L13.8146 44.4213C13.1546 43.0818 12.6263 41.6813 12.237 40.2396C12.1642 39.969 12.3246 39.6905 12.5952 39.6177C12.8658 39.5448 13.1443 39.7052 13.2171 39.9758C13.5891 41.3537 14.0943 42.6919 14.7256 43.9718L15.8984 46.3487C16.0105 46.5756 15.9383 46.8506 15.7289 46.9929L13.6361 48.4131C13.5522 48.4709 13.4529 48.502 13.351 48.5025Z" fill="#574E56"/>
<path d="M12.1209 37.4626C11.8625 37.4644 11.6442 37.2719 11.6137 37.0153C11.5913 36.8245 11.5711 36.6339 11.5517 36.4421C11.5246 36.1633 11.7285 35.9155 12.0073 35.8882C12.2852 35.8639 12.5314 36.0665 12.5612 36.3438C12.5787 36.5277 12.5987 36.7116 12.621 36.8957C12.6544 37.1739 12.456 37.4263 12.1778 37.4597C12.1778 37.4597 12.1778 37.4597 12.1777 37.4597C12.1589 37.4617 12.1398 37.4628 12.1209 37.4626Z" fill="#574E56"/>
<path d="M60.363 18.9118L45.6531 15.4068L49.148 12.486C37.1837 4.59545 21.0881 7.8979 13.1975 19.8621C8.14221 27.5272 7.51389 37.2932 11.5453 45.5428L5.12063 49.9122C-3.57505 33.4819 2.69521 13.1132 19.1257 4.41748C30.7204 -1.71889 44.8239 -0.559795 55.2611 7.38738L59.5615 3.8042L60.363 18.9118Z" fill="#FFB13E"/>
<path d="M5.11908 50.4198C4.93113 50.4198 4.75868 50.316 4.67066 50.1499C-4.14982 33.461 2.22871 12.7817 18.9176 3.96121C23.8336 1.36288 29.3092 0.00333091 34.8697 0.000203446C42.2143 -0.025263 49.3676 2.34073 55.2485 6.74033L59.2365 3.41479C59.4514 3.23504 59.7713 3.26363 59.951 3.47853C60.0213 3.56268 60.0626 3.66737 60.0684 3.77683L60.8708 18.8844C60.8792 19.0439 60.8118 19.198 60.6893 19.3004C60.5664 19.4028 60.4021 19.4405 60.247 19.4018L45.537 15.8968C45.2645 15.832 45.0961 15.5584 45.161 15.2859C45.1863 15.1796 45.2453 15.0842 45.3291 15.0141L48.2934 12.5367C36.3612 5.11747 20.6737 8.776 13.2545 20.7082C10.7446 24.7448 9.41576 29.4038 9.41859 34.1573C9.40474 38.0265 10.288 41.8464 11.9995 45.3165C12.1116 45.5435 12.0394 45.8184 11.83 45.9608L5.40532 50.323C5.32177 50.3839 5.22199 50.4175 5.11908 50.4198ZM34.8697 1.01469C16.5529 1.0269 1.71417 15.8855 1.72638 34.2021C1.72981 39.4028 2.95637 44.5297 5.30673 49.1689L10.8976 45.3697C9.24226 41.8645 8.3904 38.034 8.40395 34.1577C8.398 19.5467 20.2378 7.69733 34.8489 7.69152C40.0309 7.68944 45.0995 9.20923 49.4254 12.0624C49.6589 12.2171 49.7228 12.5319 49.568 12.7655C49.5411 12.8061 49.5085 12.8427 49.4711 12.874L46.7523 15.1465L59.8207 18.261L59.1106 4.84255L55.5914 7.77745C55.4095 7.92951 55.1468 7.93531 54.9583 7.7916C49.1962 3.3725 42.1312 0.989225 34.8697 1.01469Z" fill="#574E56"/>
<path d="M57.2802 18.1779L60.3622 18.9122L59.5607 3.80469L56.6462 6.23532L57.2802 18.1779Z" fill="#FF9800"/>
<path d="M33.2716 8.25396C32.7918 8.2276 32.313 8.2002 31.8271 8.2002C17.4984 8.21807 5.88701 19.829 5.86854 34.1577C5.86154 38.105 6.76418 42.0009 8.50618 45.5431L4.35693 48.3604C4.60043 48.8828 4.85092 49.4022 5.12078 49.9095L11.5465 45.5473C9.80452 42.0051 8.90188 38.1091 8.90888 34.1618C8.92645 20.4521 19.589 9.11326 33.2716 8.25396Z" fill="#FF9800"/>
<path d="M59.633 61.7364C59.3529 61.7368 59.1254 61.51 59.125 61.2299C59.1249 61.0868 59.1852 60.95 59.2911 60.8538L59.5894 60.5779C59.7898 60.3822 60.1109 60.3861 60.3066 60.5864C60.5023 60.7868 60.4984 61.1079 60.2981 61.3036C60.2926 61.309 60.2869 61.3142 60.2813 61.3194L59.9769 61.6034C59.883 61.6895 59.7603 61.7368 59.633 61.7364Z" fill="#574E56"/>
<path d="M62.1585 59.1817C61.8783 59.182 61.6509 58.9552 61.6506 58.6751C61.6505 58.5483 61.6977 58.4262 61.7832 58.3325C64.5383 55.2708 66.7509 51.7614 68.3255 47.9555C68.4369 47.6984 68.7357 47.5805 68.9927 47.6919C69.2435 47.8006 69.3631 48.0886 69.2629 48.343C67.6449 52.2557 65.371 55.8636 62.539 59.0112C62.4423 59.1199 62.3038 59.182 62.1585 59.1817Z" fill="#574E56"/>
<path d="M68.5211 34.1579C68.5213 52.7536 53.4465 67.8284 34.8507 67.8286C30.108 67.8286 25.4188 66.8268 21.0902 64.8885L18.2091 69.4922L12.731 55.391L27.8092 54.1239L25.2152 58.2721C38.533 63.5977 53.6465 57.1188 58.9721 43.8009C61.0855 38.5156 61.4042 32.6825 59.8788 27.1987L67.2246 24.833C68.0864 27.8662 68.5228 31.0045 68.5211 34.1579Z" fill="#009EB0"/>
<path d="M18.2077 69.9996C18.1917 70.0007 18.1758 70.0007 18.16 69.9996C17.9691 69.9817 17.8047 69.8577 17.735 69.679L12.2569 55.5777C12.1556 55.3165 12.2852 55.0227 12.5464 54.9214C12.5915 54.904 12.6389 54.8929 12.687 54.8889L27.7682 53.6219C27.9604 53.6022 28.1464 53.6966 28.244 53.8633C28.3447 54.0265 28.3447 54.2326 28.244 54.3958L25.9715 58.0287C39.1417 62.9424 53.8014 56.2492 58.7151 43.0792C59.7798 40.2255 60.3237 37.2039 60.3207 34.1582C60.3189 31.8518 60.0053 29.5562 59.3884 27.3338C59.3161 27.0717 59.4633 26.7991 59.7222 26.716L67.068 24.3482C67.3347 24.2624 67.6204 24.4091 67.7061 24.6757C67.7079 24.6811 67.7096 24.6866 67.7111 24.6921C68.5863 27.771 69.0301 30.9564 69.0299 34.1571C69.0307 53.0336 53.7289 68.3366 34.8525 68.3373C30.1858 68.3374 25.5688 67.3821 21.2855 65.5299L18.6378 69.7613C18.545 69.9095 18.3825 69.9996 18.2077 69.9996ZM13.4507 55.8435L18.314 68.3662L20.6584 64.6228C20.7927 64.4077 21.0653 64.3251 21.2966 64.429C38.013 71.9138 57.6318 64.4301 65.1167 47.7136C67.026 43.4494 68.0128 38.83 68.0123 34.1579C68.0132 31.227 67.6305 28.3086 66.8741 25.4769L60.4909 27.5333C64.1583 41.6848 55.6592 56.1296 41.5077 59.7968C36.0433 61.2129 30.2692 60.8449 25.0288 58.7467C24.7688 58.6425 24.6425 58.3471 24.7467 58.0871C24.7579 58.0593 24.7715 58.0326 24.7874 58.0071L26.8438 54.7183L13.4507 55.8435Z" fill="#574E56"/>
<path d="M67.2239 24.8325L64.4056 25.7405C65.1131 28.4915 65.4734 31.3202 65.4779 34.1607C65.4859 52.1439 51.3528 66.9552 33.3889 67.7897C33.8799 67.811 34.373 67.8293 34.87 67.8293C53.455 67.8287 68.5209 52.7621 68.5203 34.1771C68.5203 34.1707 68.5203 34.1643 68.5203 34.1579C68.5219 31.0042 68.0856 27.8659 67.2239 24.8325Z" fill="#008695"/>
<path d="M24.5986 54.3963L22.3474 57.7137C25.334 58.9118 28.4211 60.1362 31.8267 60.1362C32.3401 60.1362 32.8493 60.117 33.3556 60.0875C30.5628 59.9269 27.8145 59.3146 25.2175 58.2747L27.8115 54.1265L24.5986 54.3963Z" fill="#008695"/>
<path d="M18.9281 63.481L17.0422 66.4899L18.2079 69.4916L21.365 64.4508C20.5381 64.1556 19.7225 63.8381 18.9281 63.481Z" fill="#008695"/>
<path d="M18.2077 69.9996C18.1917 70.0007 18.1758 70.0007 18.16 69.9996C17.9691 69.9817 17.8047 69.8577 17.735 69.679L12.2569 55.5777C12.1556 55.3165 12.2852 55.0227 12.5464 54.9214C12.5915 54.904 12.6389 54.8929 12.687 54.8889L27.7682 53.6219C27.9604 53.6022 28.1464 53.6966 28.244 53.8633C28.3447 54.0265 28.3447 54.2326 28.244 54.3958L25.9715 58.0287C39.1417 62.9424 53.8015 56.2492 58.7151 43.0792C59.7798 40.2255 60.3237 37.2039 60.3207 34.1582C60.3189 31.8518 60.0053 29.5562 59.3884 27.3338C59.3161 27.0717 59.4633 26.7991 59.7222 26.716L67.068 24.3482C67.3347 24.2624 67.6204 24.4091 67.7061 24.6757C67.7079 24.6811 67.7096 24.6866 67.7111 24.6921C68.5863 27.771 69.0301 30.9564 69.0299 34.1571C69.0307 53.0336 53.7289 68.3366 34.8525 68.3373C30.1858 68.3374 25.5688 67.3821 21.2855 65.5299L18.6378 69.7613C18.545 69.9095 18.3825 69.9996 18.2077 69.9996ZM13.4507 55.8435L18.314 68.3662L20.6584 64.6228C20.7927 64.4077 21.0653 64.3251 21.2966 64.429C38.013 71.9138 57.6318 64.4301 65.1167 47.7136C67.026 43.4494 68.0128 38.83 68.0123 34.1579C68.0132 31.227 67.6305 28.3086 66.8741 25.4769L60.4909 27.5333C64.1583 41.6848 55.6592 56.1296 41.5077 59.7968C36.0433 61.2129 30.2692 60.8449 25.0288 58.7467C24.7688 58.6425 24.6425 58.3471 24.7467 58.0871C24.7579 58.0593 24.7715 58.0326 24.7874 58.0071L26.8438 54.7183L13.4507 55.8435Z" fill="#574E56"/>
<path d="M5.11908 50.4198C4.93113 50.4198 4.75868 50.316 4.67066 50.1499C-4.14982 33.461 2.22871 12.7817 18.9176 3.96121C23.8336 1.36288 29.3092 0.00333091 34.8697 0.000203446C42.2143 -0.025263 49.3676 2.34073 55.2485 6.74033L59.2365 3.41479C59.4514 3.23504 59.7713 3.26363 59.951 3.47853C60.0213 3.56268 60.0626 3.66737 60.0684 3.77683L60.8708 18.8844C60.8792 19.0439 60.8118 19.198 60.6893 19.3004C60.5664 19.4028 60.4021 19.4405 60.247 19.4018L45.537 15.8968C45.2645 15.832 45.0961 15.5584 45.161 15.2859C45.1863 15.1796 45.2453 15.0842 45.3291 15.0141L48.2934 12.5367C36.3612 5.11747 20.6737 8.776 13.2545 20.7082C10.7446 24.7448 9.41576 29.4038 9.41859 34.1573C9.40474 38.0265 10.288 41.8464 11.9995 45.3165C12.1116 45.5435 12.0394 45.8184 11.83 45.9608L5.40532 50.323C5.32177 50.3839 5.22199 50.4175 5.11908 50.4198ZM34.8697 1.01469C16.5529 1.0269 1.71417 15.8855 1.72638 34.2021C1.72981 39.4028 2.95637 44.5297 5.30673 49.1689L10.8976 45.3697C9.24226 41.8645 8.3904 38.034 8.40395 34.1577C8.398 19.5467 20.2378 7.69733 34.8489 7.69152C40.0309 7.68944 45.0995 9.20923 49.4254 12.0624C49.6589 12.2171 49.7228 12.5319 49.568 12.7655C49.5411 12.8061 49.5085 12.8427 49.4711 12.874L46.7523 15.1465L59.8207 18.261L59.1106 4.84255L55.5914 7.77745C55.4095 7.92951 55.1468 7.93531 54.9583 7.7916C49.1962 3.3725 42.1312 0.989225 34.8697 1.01469Z" fill="#574E56"/>
</svg>
