<svg width="23" height="23" viewBox="0 0 23 23" fill="none" xmlns="http://www.w3.org/2000/svg">
<path d="M14.3213 11.5C14.3213 9.90876 13.0194 8.60687 11.4282 8.60687C9.83704 8.60687 8.53516 9.90876 8.53516 11.5C8.53516 13.0912 9.83704 14.393 11.4282 14.393C13.0194 14.393 14.3213 13.0912 14.3213 11.5ZM9.9817 11.5C9.9817 10.7044 10.6326 10.0534 11.4282 10.0534C12.2238 10.0534 12.8748 10.7044 12.8748 11.5C12.8748 12.2956 12.2238 12.9465 11.4282 12.9465C10.6326 12.9465 9.9817 12.2956 9.9817 11.5Z" fill="#1E9EB0"/>
<path d="M22.566 9.40252L19.5283 8.17295L20.8302 5.13522C20.9748 4.84591 20.9025 4.55661 20.6855 4.33962L18.6604 2.31446C18.4434 2.09748 18.1541 2.02516 17.8648 2.16981L14.827 3.47169L13.5975 0.433956C13.4528 0.144648 13.2358 0 12.9465 0H10.0535C9.76415 0 9.47484 0.144648 9.40252 0.433956L8.17296 3.47169L5.13522 2.16981C4.84591 2.02516 4.5566 2.09748 4.33962 2.31446L2.31447 4.33962C2.09748 4.55661 2.02516 4.84591 2.16981 5.13522L3.4717 8.17295L0.433961 9.40252C0.144653 9.54717 0 9.76415 0 10.0535V12.9465C0 13.2358 0.144653 13.5252 0.433961 13.5975L3.4717 14.827L2.16981 17.8648C2.02516 18.1541 2.09748 18.4434 2.31447 18.6604L4.33962 20.6855C4.5566 20.9025 4.84591 20.9748 5.13522 20.8302L8.17296 19.5283L9.40252 22.566C9.54717 22.8554 9.76415 23 10.0535 23H12.9465C13.2358 23 13.5252 22.8554 13.5975 22.566L14.827 19.5283L17.8648 20.8302C18.1541 20.9748 18.4434 20.9025 18.6604 20.6855L20.6855 18.6604C20.9025 18.4434 20.9748 18.1541 20.8302 17.8648L19.5283 14.827L22.566 13.5975C22.8553 13.4528 23 13.2358 23 12.9465V10.0535C23 9.76415 22.8553 9.47485 22.566 9.40252ZM21.5535 12.4403L18.3711 13.6698C18.2264 13.7421 18.0818 13.8868 17.9371 14.0314L17.8648 14.1761C17.7925 14.3208 17.7925 14.5377 17.8648 14.7547L19.239 17.8648L17.8648 19.239L14.7547 17.8648C14.6101 17.7925 14.3931 17.7925 14.1761 17.8648L14.0314 17.9371C13.8868 18.0094 13.7421 18.1541 13.6698 18.3711L12.4403 21.5535H10.5598L9.33019 18.3711C9.25786 18.2264 9.11321 18.0818 8.96855 17.9371L8.8239 17.8648C8.67925 17.7925 8.46226 17.7925 8.24528 17.8648L5.13522 19.239L3.76101 17.8648L5.13522 14.7547C5.20755 14.6101 5.20755 14.3931 5.13522 14.1761L5.06289 14.0314C4.99057 13.8868 4.84591 13.7421 4.62893 13.6698L1.44654 12.4403V10.5597L4.62893 9.33019C4.77358 9.25786 4.91824 9.11321 5.06289 8.96855L5.13522 8.8239C5.20755 8.67925 5.20755 8.46226 5.13522 8.24528L3.76101 5.13522L5.13522 3.76101L8.24528 5.13522C8.38994 5.20754 8.60692 5.20754 8.8239 5.13522L8.96855 5.06289C9.11321 4.99057 9.25786 4.84591 9.33019 4.62893L10.5598 1.44654H12.4403L13.6698 4.62893C13.7421 4.84591 13.8868 4.99057 14.0314 5.06289L14.1761 5.13522C14.3208 5.20754 14.5377 5.20754 14.7547 5.13522L17.8648 3.76101L19.239 5.13522L17.8648 8.24528C17.7925 8.38994 17.7925 8.60692 17.8648 8.8239L17.9371 8.96855C18.0094 9.11321 18.1541 9.25786 18.3711 9.33019L21.5535 10.5597V12.4403Z" fill="#1E9EB0"/>
<path d="M16.4912 10.7767C16.0573 10.7767 15.768 11.066 15.768 11.5C15.768 13.8868 13.8151 15.8396 11.4283 15.8396C10.9944 15.8396 10.7051 16.1289 10.7051 16.5629C10.7051 16.9969 10.9944 17.2862 11.4283 17.2862C14.6107 17.2862 17.2145 14.6824 17.2145 11.5C17.2145 11.066 16.9252 10.7767 16.4912 10.7767Z" fill="#1E9EB0"/>
<path d="M12.1501 6.4372C12.1501 6.00324 11.8608 5.71393 11.4268 5.71393C8.2444 5.71393 5.64062 8.3177 5.64062 11.5001C5.64062 11.9341 5.92993 12.2234 6.3639 12.2234C6.79786 12.2234 7.08717 11.9341 7.08717 11.5001C7.08717 9.1133 9.04 7.16047 11.4268 7.16047C11.8608 7.16047 12.1501 6.87116 12.1501 6.4372Z" fill="#1E9EB0"/>
</svg>
