<svg width="62" height="62" viewBox="0 0 62 62" fill="none" xmlns="http://www.w3.org/2000/svg">
<path d="M61 31C61 37.6211 58.8543 43.7406 55.2215 48.7023C49.7641 56.1578 40.9469 53.3339 31 53.3339C21.0531 53.3339 12.2359 56.1578 6.77852 48.7023C3.1457 43.7406 1 37.6211 1 31C1 14.432 14.432 1 31 1C47.568 1 61 14.432 61 31Z" fill="#EE8F03"/>
<path d="M21.1863 36.1948H40.816V41.3124H21.1863V36.1948Z" fill="white"/>
<path d="M31 36.1948H40.8145V41.3124H31V36.1948Z" fill="white"/>
<path d="M24.4346 31.5256H37.5666V45.4522H24.4346V31.5256Z" fill="white"/>
<path d="M31 31.527H37.566V45.4535H31V31.527Z" fill="white"/>
<path d="M16.7698 39.9397H45.2317V53.3335H16.7698V39.9397Z" fill="white"/>
<path d="M31 39.9397H45.2313V53.3332H31V39.9397Z" fill="white"/>
<path d="M55.222 48.7033C49.7646 56.1587 40.9474 61.0009 31.0005 61.0009C21.0537 61.0009 12.2365 56.1587 6.77905 48.7033C6.92905 43.8388 10.9205 39.9412 15.8212 39.9412H24.4345L31.0005 46.2353L37.5666 39.9412H46.181C51.083 39.9412 55.0732 43.8376 55.222 48.7033Z" fill="white"/>
<path d="M55.2215 48.7033C49.7641 56.1587 40.9469 61.0009 31 61.0009V46.2353L36.134 41.3134L37.566 39.9412H46.1805C51.0824 39.9412 55.0727 43.8376 55.2215 48.7033Z" fill="white"/>
<path d="M41.9716 18.7128C41.5081 11.6766 35.8165 9.07617 31.0005 9.07617C26.1844 9.07617 20.4929 11.6766 20.0294 18.7128C18.7839 18.9537 17.8993 20.5873 18.0386 21.908L18.2521 24.9136C18.3983 26.3005 19.6174 27.3131 20.9609 27.1624L21.1926 27.1373C23.9447 34.5275 28.2609 35.298 31.0005 35.7307C33.7401 35.298 38.0562 34.5275 40.8084 27.1373L41.0401 27.1624C42.3836 27.3131 43.6027 26.3006 43.7488 24.9136L43.9624 21.908C44.1017 20.5873 43.217 18.9537 41.9716 18.7128Z" fill="white"/>
<path d="M43.9624 21.908L43.7489 24.9136C43.6027 26.3005 42.3836 27.3131 41.0401 27.1624L40.8084 27.1373C39.8677 29.6601 38.7456 31.4123 37.5665 32.6417C35.2926 35.0139 32.8053 35.4453 31.0005 35.7307V9.07617C35.8165 9.07617 41.5081 11.6766 41.9716 18.7128C43.2169 18.9537 44.1016 20.5873 43.9624 21.908Z" fill="white"/>
<path d="M33.3237 24.967C31.9842 23.8281 30.0166 23.8281 28.677 24.967C27.1831 26.2371 25.307 26.9702 23.3477 27.0495L21.1924 27.1367L21.3369 28.0056C22.1226 32.7308 26.2102 36.1949 31.0003 36.1949C35.8977 35.9232 39.9512 32.2904 40.7558 27.452L40.8082 27.1367L38.6528 27.0495C36.6938 26.9702 34.8177 26.2371 33.3237 24.967Z" fill="white"/>
<path d="M40.8074 27.1372L40.7559 27.4524C40.3539 29.8723 39.1387 31.9899 37.4125 33.5368C35.6863 35.0838 33.4492 36.0598 31 36.1946V24.1125C31.8273 24.1125 32.6547 24.3974 33.3238 24.9669C34.8168 26.2373 36.693 26.9708 38.6523 27.0493L40.8074 27.1372Z" fill="white"/>
<path d="M21.1851 36.1948L31 46.2343L26.0925 51.5077L17.6992 39.9404L21.1851 36.1948Z" fill="white"/>
<path d="M40.8149 36.1948L31 46.2343L35.9075 51.5077L44.3008 39.9404L40.8149 36.1948Z" fill="white"/>
<path d="M24.3503 4.45703C24.3503 4.45703 18.0048 10.6422 19.3191 16.7457L20.235 22.8262H22.7546L23.9591 18.3423C24.3877 16.7471 26.0322 15.7797 27.6229 16.2248C27.7759 16.2675 27.9282 16.3158 28.0793 16.3695L28.5198 16.5258C30.133 17.0984 31.8923 17.0417 33.4872 16.4202C33.8085 16.2951 34.1357 16.1948 34.4662 16.1191C36.0337 15.7601 37.6038 16.711 38.0209 18.2641L39.2466 22.8262H41.7661L42.6796 16.4952C42.8757 11.0684 38.5131 4.45703 24.3503 4.45703Z" fill="white"/>
<path d="M42.6789 16.4951L41.766 22.8255H39.2465L38.0207 18.2634C37.6035 16.7107 36.0332 15.7591 34.4652 16.1189C34.1348 16.1939 33.8078 16.2947 33.4867 16.4201C32.6852 16.7318 31.8438 16.9017 31 16.9205V5.03882C39.9191 6.76851 42.8395 12.0326 42.6789 16.4951Z" fill="white"/>
<path d="M61.5 31C61.5 14.1553 47.8447 0.5 31 0.5C14.1553 0.5 0.5 14.1553 0.5 31C0.5 47.8447 14.1553 61.5 31 61.5C47.8447 61.5 61.5 47.8447 61.5 31Z" stroke="#EE8F03" stroke-linejoin="round"/>
</svg>
