<svg width="106" height="30" viewBox="0 0 106 30" fill="none" xmlns="http://www.w3.org/2000/svg">
<rect width="100" height="30" rx="5" fill="#2B2A29"/>
<path d="M106 15L98 9V21L106 15Z" fill="#2B2A29"/>
<path d="M35.332 19L32.042 9.2H34.142L36.536 16.732L38.916 9.2H41.03L37.726 19H35.332ZM42.513 11.16C42.2143 11.16 41.953 11.0527 41.729 10.838C41.5143 10.614 41.407 10.3527 41.407 10.054C41.407 9.75533 41.5143 9.494 41.729 9.27C41.953 9.046 42.2143 8.934 42.513 8.934C42.821 8.934 43.0823 9.046 43.297 9.27C43.521 9.494 43.633 9.75533 43.633 10.054C43.633 10.3527 43.521 10.614 43.297 10.838C43.0823 11.0527 42.821 11.16 42.513 11.16ZM41.617 19V12H43.423V19H41.617ZM49.15 11.804C50.0927 11.804 50.8953 12.1633 51.558 12.882C52.23 13.5913 52.566 14.464 52.566 15.5C52.566 16.536 52.23 17.4133 51.558 18.132C50.8953 18.8413 50.0927 19.196 49.15 19.196C48.17 19.196 47.414 18.8553 46.882 18.174V19H45.076V9.2H46.882V12.826C47.414 12.1447 48.17 11.804 49.15 11.804ZM47.428 16.928C47.792 17.292 48.254 17.474 48.814 17.474C49.374 17.474 49.836 17.292 50.2 16.928C50.5733 16.5547 50.76 16.0787 50.76 15.5C50.76 14.9213 50.5733 14.45 50.2 14.086C49.836 13.7127 49.374 13.526 48.814 13.526C48.254 13.526 47.792 13.7127 47.428 14.086C47.064 14.45 46.882 14.9213 46.882 15.5C46.882 16.0787 47.064 16.5547 47.428 16.928ZM55.3657 16.242C55.6083 17.1193 56.2663 17.558 57.3397 17.558C58.0303 17.558 58.553 17.3247 58.9077 16.858L60.3637 17.698C59.673 18.6967 58.6557 19.196 57.3117 19.196C56.1543 19.196 55.2257 18.846 54.5257 18.146C53.8257 17.446 53.4757 16.564 53.4757 15.5C53.4757 14.4453 53.821 13.568 54.5117 12.868C55.2023 12.1587 56.089 11.804 57.1717 11.804C58.1983 11.804 59.043 12.1587 59.7057 12.868C60.3777 13.5773 60.7137 14.4547 60.7137 15.5C60.7137 15.7333 60.6903 15.9807 60.6437 16.242H55.3657ZM55.3377 14.842H58.9077C58.805 14.366 58.5903 14.0113 58.2637 13.778C57.9463 13.5447 57.5823 13.428 57.1717 13.428C56.6863 13.428 56.285 13.554 55.9677 13.806C55.6503 14.0487 55.4403 14.394 55.3377 14.842ZM63.7804 13.204C63.9484 12.756 64.2238 12.42 64.6064 12.196C64.9984 11.972 65.4324 11.86 65.9084 11.86V13.876C65.3578 13.8107 64.8631 13.9227 64.4244 14.212C63.9951 14.5013 63.7804 14.982 63.7804 15.654V19H61.9744V12H63.7804V13.204Z" fill="white"/>
</svg>
