<svg width="35" height="40" viewBox="0 0 35 40" fill="none" xmlns="http://www.w3.org/2000/svg">
<path d="M21.3975 1.53711H13.6016C6.4258 1.53711 0.608643 7.37026 0.608643 14.5658V20.4288C0.608643 25.7712 3.81579 30.3617 8.40448 32.3724V39.3205L14.2513 33.4575H21.3975C28.5733 33.4575 34.3904 27.6243 34.3904 20.4288V14.5659C34.3904 7.37019 28.5734 1.53711 21.3975 1.53711Z" fill="#665CAC"/>
<path d="M11.0053 36.7147V32.3724C6.41667 30.3618 3.20945 25.7712 3.20945 20.4288V14.5658C3.20945 7.37018 9.02668 1.53711 16.2024 1.53711H13.6038C6.42799 1.53711 0.61084 7.37026 0.61084 14.5658V20.4288C0.61084 25.7712 3.81799 30.3617 8.40667 32.3724V39.3205L11.0053 36.7147Z" fill="#523494"/>
<path d="M26.0858 22.1127L21.4921 21.1914L19.3128 23.3767C15.6259 21.81 13.6769 19.8557 11.9627 16.0065L14.1422 13.8211L13.2234 9.21467L10.0593 8.62891C9.36718 8.78666 8.70926 9.13476 8.17031 9.67528C7.12187 10.7266 6.97625 12.1868 7.19153 13.5592C7.67852 16.6636 9.18578 20.8165 11.8265 23.4748C11.8329 23.4812 11.839 23.4879 11.8454 23.4943C11.8518 23.5007 11.8584 23.5068 11.8648 23.5132C14.5158 26.1612 18.6574 27.6725 21.7532 28.1609C23.1218 28.3768 24.578 28.2308 25.6265 27.1795C26.1655 26.6389 26.5127 25.9794 26.67 25.2852L26.0858 22.1127Z" fill="white"/>
<path d="M22.9742 26.9322C19.8783 26.4438 15.7368 24.9325 13.0857 22.2845C13.0794 22.2781 13.0727 22.272 13.0663 22.2656C13.0599 22.2592 13.0538 22.2525 13.0474 22.2461C10.4067 19.5877 8.8995 15.4347 8.41243 12.3304C8.23984 11.2304 8.2997 10.0742 8.86987 9.11719C8.61996 9.27258 8.38303 9.45729 8.16616 9.67492C7.11772 10.7262 6.9721 12.1864 7.18737 13.5588C7.67437 16.6632 9.18163 20.8162 11.8223 23.4745C11.8287 23.4809 11.8349 23.4875 11.8412 23.4938C11.8476 23.5002 11.8542 23.5064 11.8606 23.5128C14.5116 26.1608 18.6533 27.6721 21.7491 28.1605C23.1177 28.3764 24.5739 28.2303 25.6223 27.179C25.8393 26.9615 26.0236 26.724 26.1785 26.4734C25.2241 27.0453 24.0712 27.1053 22.9742 26.9322Z" fill="#E5E5E5"/>
<path d="M31.1119 5.01795C30.8765 4.7771 30.4908 4.77306 30.2507 5.00942C30.0105 5.24548 30.0066 5.63213 30.2422 5.87298C32.5248 8.20795 33.7819 11.295 33.7819 14.5652V20.4282C33.7819 27.2755 28.2265 32.8462 21.3979 32.8462H14.2518C14.0903 32.8462 13.9354 32.9106 13.821 33.0251L9.01397 37.8454V32.3717C9.01397 32.1291 8.87055 31.9093 8.64882 31.8122C4.13481 29.8343 1.21814 25.3659 1.21814 20.4282V14.5652C1.21814 7.71794 6.77352 2.14719 13.6021 2.14719H21.398C23.8316 2.14719 26.187 2.85452 28.2092 4.1924C28.4899 4.37826 28.8677 4.30049 29.053 4.01904C29.2381 3.73743 29.1608 3.35871 28.8801 3.17292C26.6579 1.70288 24.0708 0.925781 21.3979 0.925781H13.602C6.10194 0.925781 0 7.0445 0 14.5652V20.4282C0 25.7169 3.04672 30.5156 7.79583 32.7649V39.3199C7.79583 39.8513 8.45937 40.1288 8.83561 39.7518L14.504 34.0677H21.398C28.8981 34.0677 35 27.949 35 20.4283V14.5653C34.9999 10.9733 33.6191 7.58258 31.1119 5.01795Z" fill="#574E56"/>
<path d="M21.8467 27.5573C18.9354 27.0979 14.8969 25.6806 12.2942 23.0811L12.2567 23.0436C11.0595 21.8382 9.99227 20.1757 9.17073 18.2357C9.03917 17.9252 8.68169 17.7805 8.37206 17.9122C8.06244 18.0441 7.91803 18.4026 8.04952 18.7131C8.93138 20.7952 10.0878 22.5907 11.3961 23.908L11.4337 23.9456C14.2438 26.7522 18.5574 28.2748 21.6573 28.7639C22.0464 28.8252 22.4211 28.8558 22.7803 28.8558C24.1166 28.8558 25.2353 28.4337 26.056 27.611C26.6573 27.0079 27.0746 26.2503 27.2626 25.4202C27.281 25.3393 27.2827 25.2557 27.2676 25.1741L26.6835 22.0013C26.6383 21.7556 26.4483 21.5622 26.204 21.5133L21.6103 20.592C21.4107 20.5521 21.2043 20.6147 21.0602 20.7591L19.1741 22.6504C15.9952 21.2275 14.2385 19.4625 12.6912 16.1382L14.5715 14.2527C14.7154 14.1084 14.7779 13.9014 14.7381 13.7011L13.8194 9.09469C13.7705 8.84964 13.5778 8.65921 13.3327 8.61389L10.1687 8.02828C10.0874 8.01305 10.0038 8.01495 9.92322 8.03331C9.09523 8.22191 8.3397 8.64032 7.73838 9.24337C6.69739 10.2873 6.29972 11.8126 6.58868 13.654C6.72025 14.4924 6.91578 15.361 7.16987 16.2356C7.26407 16.5596 7.60263 16.7451 7.92502 16.6512C8.24801 16.5568 8.43352 16.2179 8.33947 15.894C8.09974 15.0689 7.9156 14.2514 7.79209 13.464C7.56298 12.0037 7.8347 10.8742 8.59987 10.1069C9.01015 9.69545 9.51857 9.40189 10.0764 9.25312L12.706 9.73994L13.4799 13.6201L11.531 15.5743C11.3525 15.7533 11.3026 16.024 11.4055 16.2551C13.1772 20.2337 15.2556 22.3162 19.0739 23.9386C19.3026 24.0356 19.5668 23.984 19.7422 23.8081L21.691 21.8538L25.5605 22.6299L26.046 25.2666C25.8977 25.826 25.6048 26.3358 25.1946 26.7473C24.4295 27.5146 23.3029 27.7871 21.8467 27.5573Z" fill="#574E56"/>
<path d="M18.7973 12.001C18.4609 12.001 18.1882 12.2744 18.1882 12.6117C18.1882 12.9491 18.4609 13.2225 18.7973 13.2225C20.2526 13.2225 21.4365 14.4096 21.4365 15.8689C21.4365 16.2017 21.7137 16.4796 22.0455 16.4796C22.3774 16.4796 22.6546 16.2017 22.6546 15.8689C22.6546 13.7362 20.9242 12.001 18.7973 12.001Z" fill="white"/>
<path d="M24.5435 17.1273C24.8734 17.163 25.1793 16.9187 25.2157 16.5872C25.2418 16.35 25.255 16.1082 25.255 15.8687C25.255 12.2991 22.3589 9.39502 18.7991 9.39502C18.5602 9.39502 18.3191 9.40827 18.0826 9.4344C17.7483 9.47142 17.5072 9.77321 17.544 10.1084C17.5809 10.4436 17.8817 10.6845 18.2162 10.6485C18.4086 10.6272 18.6046 10.6164 18.799 10.6164C21.6871 10.6164 24.0368 12.9725 24.0368 15.8685C24.0368 16.0635 24.026 16.2601 24.0047 16.453C23.9681 16.7885 24.2092 17.0903 24.5435 17.1273Z" fill="white"/>
<path d="M27.6112 17.9643C27.772 17.2818 27.8535 16.5771 27.8535 15.8695C27.8535 10.8631 23.7916 6.79004 18.7989 6.79004C18.5677 6.79004 18.3338 6.79895 18.1033 6.81639C17.7679 6.84191 17.5165 7.13517 17.5421 7.47155C17.5676 7.80792 17.8586 8.05936 18.1954 8.0343C18.3953 8.01907 18.5984 8.01145 18.799 8.01145C23.12 8.01145 26.6354 11.5365 26.6354 15.8694C26.6354 16.4825 26.5648 17.0927 26.4258 17.6833C26.3503 18.0032 26.55 18.3332 26.8671 18.4151C27.1929 18.4995 27.5338 18.2923 27.6112 17.9643Z" fill="white"/>
</svg>
