<svg width="69" height="22" viewBox="0 0 69 22" fill="none" xmlns="http://www.w3.org/2000/svg">
<path d="M27.3997 0.950073L23.9326 21.2954H29.4773L32.9472 0.950073H27.3997Z" fill="white"/>
<path d="M19.285 0.973515L13.8537 14.8484L13.2748 12.7534C12.2038 10.2292 9.16373 6.60389 5.59375 4.31924L10.5595 21.286L16.4269 21.276L25.1587 0.969238L19.285 0.973515Z" fill="white"/>
<path d="M11.1697 2.42888C10.8477 1.18959 9.91318 0.820213 8.75399 0.776001H0.15733L0.0859375 1.18103C6.7758 2.80394 11.2026 6.71447 13.0394 11.4164L11.1697 2.42888Z" fill="white"/>
<path d="M44.186 4.85023C46.0004 4.82174 47.315 5.21815 48.3363 5.6289L48.8368 5.86424L49.5871 1.4546C48.4889 1.04245 46.7676 0.600342 44.62 0.600342C39.1404 0.600342 35.2785 3.35994 35.2484 7.31457C35.2127 10.2368 37.9994 11.8683 40.105 12.8423C42.2652 13.8406 42.9897 14.4752 42.9799 15.3666C42.9624 16.7285 41.2572 17.3532 39.664 17.3532C37.4436 17.3532 36.2641 17.0465 34.4427 16.2879L33.7287 15.9627L32.9482 20.5164C34.246 21.0854 36.6407 21.5745 39.1264 21.6002C44.9553 21.6002 48.743 18.8735 48.7829 14.6478C48.8074 12.3361 47.3283 10.5719 44.1237 9.12434C42.184 8.18025 40.9975 7.55277 41.0087 6.60008C41.0087 5.75441 42.016 4.85023 44.186 4.85023Z" fill="white"/>
<path d="M63.8171 0.971558H59.5332C58.2025 0.971558 57.2134 1.3338 56.6282 2.66013L48.3955 21.3054H54.2181C54.2181 21.3054 55.168 18.7983 55.3836 18.2493C56.0206 18.2493 61.6779 18.2578 62.4843 18.2578C62.6495 18.968 63.1598 21.3054 63.1598 21.3054H68.3041L63.8171 0.971558ZM56.9789 14.0849C57.4353 12.9169 59.188 8.39891 59.188 8.39891C59.1579 8.45449 59.6402 7.22229 59.9272 6.45649L60.3004 8.21061C60.3004 8.21061 61.363 13.0681 61.5855 14.0849H56.9789Z" fill="white"/>
</svg>
