<svg width="35" height="36" viewBox="0 0 35 36" fill="none" xmlns="http://www.w3.org/2000/svg">
<g clip-path="url(#clip0)">
<path d="M17.1328 1.4624C7.96754 1.4624 0.537598 8.89234 0.537598 18.0576C0.537598 21.6118 1.65551 24.9047 3.55813 27.6049L0.537598 34.6528L7.30529 31.4301C10.0565 33.4553 13.4546 34.6528 17.1328 34.6528C26.2981 34.6528 33.728 27.2229 33.728 18.0576C33.728 8.89234 26.2981 1.4624 17.1328 1.4624Z" fill="#1E8C36"/>
<path d="M18.0577 33.3373C26.4964 33.3373 33.3373 26.2891 33.3373 17.5947C33.3373 8.90027 26.4964 1.85205 18.0577 1.85205C9.619 1.85205 2.77808 8.90027 2.77808 17.5947C2.77808 26.2891 9.619 33.3373 18.0577 33.3373Z" fill="#20A83E"/>
<path d="M25.2014 21.1845L21.155 20.3752L19.2353 22.2949C15.9877 20.9187 14.271 19.2019 12.761 15.8206L14.6808 13.9008L13.8715 9.8544L11.0844 9.33984C10.4747 9.47837 9.89527 9.7842 9.42046 10.259C8.49696 11.1825 8.36867 12.4652 8.55832 13.6708C8.98729 16.3978 10.315 20.046 12.641 22.3812C12.6466 22.3868 12.6521 22.3926 12.6577 22.3982C12.6633 22.4038 12.6691 22.4093 12.6747 22.4149C15.0099 24.7409 18.6581 26.0686 21.3851 26.4976C22.5907 26.6872 23.8734 26.559 24.7969 25.6354C25.2717 25.1606 25.5775 24.5812 25.716 23.9715L25.2014 21.1845Z" fill="white"/>
<path d="M22.5283 25.4215C19.8014 24.9926 16.1532 23.6649 13.818 21.3388C13.8124 21.3332 13.8066 21.3278 13.8009 21.3222C13.7953 21.3165 13.7899 21.3107 13.7843 21.3051C11.4583 18.9699 10.1306 15.3217 9.70158 12.5948C9.54559 11.6032 9.60515 10.5597 10.1449 9.70654C9.88548 9.85464 9.64068 10.0377 9.41924 10.2591C8.49574 11.1826 8.36745 12.4653 8.5571 13.6709C8.98607 16.3979 10.3138 20.0461 12.6398 22.3813C12.6454 22.3869 12.6508 22.3927 12.6565 22.3983C12.6621 22.4039 12.6679 22.4094 12.6735 22.415C15.0087 24.741 18.6569 26.0687 21.3839 26.4977C22.5894 26.6873 23.8722 26.559 24.7957 25.6355C24.9688 25.4624 25.1188 25.2752 25.2471 25.078C24.4273 25.5247 23.4552 25.5673 22.5283 25.4215Z" fill="#E5E5E5"/>
<path d="M29.2456 5.94356C26.0099 2.70781 21.7077 0.925781 17.1317 0.925781C12.5557 0.925781 8.25353 2.70781 5.01778 5.94356C1.78203 9.17931 0 13.4814 0 18.0575C0 21.5094 1.018 24.8249 2.94705 27.6661L0.0433646 34.4413C-0.146891 34.8852 0.32925 35.3456 0.767112 35.1371L7.24791 32.051C10.1491 34.1052 13.5593 35.1892 17.1317 35.1892C21.7077 35.1892 26.0099 33.4072 29.2456 30.1714C32.4814 26.9357 34.2634 22.6335 34.2634 18.0575C34.2634 13.4814 32.4814 9.17931 29.2456 5.94356ZM17.1317 34.1162C13.6817 34.1162 10.3935 33.0379 7.62227 30.998C7.4646 30.8819 7.25032 30.8616 7.07358 30.9457L1.58977 33.557L4.05017 27.8163C4.12352 27.6451 4.10291 27.4481 3.99557 27.2959C2.08358 24.5822 1.07294 21.3877 1.07294 18.0575C1.07294 9.20267 8.27689 1.99872 17.1317 1.99872C25.9865 1.99872 33.1905 9.20267 33.1905 18.0575C33.1905 26.9123 25.9865 34.1162 17.1317 34.1162Z" fill="#574E56"/>
<path d="M20.7744 19.9957L19.113 21.6571C16.3128 20.4072 14.7655 18.8566 13.4025 15.9365L15.0588 14.2801C15.1857 14.1533 15.2407 13.9715 15.2055 13.7955L14.3963 9.7491C14.3533 9.53388 14.1835 9.36658 13.9676 9.3267L11.1806 8.81214C11.109 8.79889 11.0354 8.80043 10.9644 8.81656C10.2351 8.98232 9.56954 9.34992 9.03999 9.87953C8.12298 10.7965 7.77272 12.1364 8.02722 13.754C8.2591 15.2283 8.7268 16.8317 9.34408 18.269C9.46106 18.5413 9.77659 18.6672 10.0488 18.5502C10.321 18.4332 10.4469 18.1178 10.33 17.8455C9.74688 16.4881 9.30554 14.9757 9.08711 13.5873C8.88534 12.3043 9.12472 11.3122 9.79867 10.6382C10.16 10.2768 10.6078 10.019 11.0993 9.88823L13.4156 10.3159L14.0973 13.7244L12.3807 15.441C12.2235 15.5982 12.1794 15.8361 12.2702 16.0391C13.8308 19.534 15.6615 21.3633 19.025 22.7886C19.2264 22.8738 19.4591 22.8285 19.6137 22.674L21.3302 20.9573L24.7387 21.639L25.1664 23.9553C25.0357 24.4467 24.7778 24.8945 24.4165 25.256C23.7425 25.9299 22.7501 26.1693 21.4674 25.9675C18.9029 25.564 15.3457 24.319 13.053 22.0354L13.02 22.0024C12.3973 21.3773 11.8176 20.619 11.2968 19.7485C11.1449 19.4943 10.8154 19.4114 10.561 19.5636C10.3067 19.7156 10.224 20.0451 10.3761 20.2994C10.9416 21.2448 11.5754 22.0725 12.2618 22.7618L12.2949 22.7949C14.7702 25.2604 18.57 26.5979 21.3005 27.0274C22.3893 27.1987 23.559 27.1184 24.5183 26.532C24.7568 26.3863 24.9774 26.2122 25.175 26.0146C25.7047 25.4849 26.0722 24.8194 26.2379 24.0901C26.2541 24.0191 26.2555 23.9455 26.2423 23.8739L25.7277 21.0869C25.6879 20.8711 25.5206 20.7013 25.3054 20.6582L21.259 19.849C21.083 19.8139 20.9012 19.8689 20.7744 19.9957Z" fill="#574E56"/>
</g>
<defs>
<clipPath id="clip0">
<rect width="34.2634" height="34.2634" fill="white" transform="translate(0 0.925781)"/>
</clipPath>
</defs>
</svg>
