<svg width="106" height="30" viewBox="0 0 106 30" fill="none" xmlns="http://www.w3.org/2000/svg">
<rect width="100" height="30" rx="5" fill="#2B2A29"/>
<path d="M106 15L98 9V21L106 15Z" fill="#2B2A29"/>
<path d="M17.954 19L15.21 9.2H17.24L19.116 16.466L21.16 9.2H22.812L24.87 16.466L26.746 9.2H28.776L26.032 19H23.834L21.986 12.532L20.152 19H17.954ZM33.4309 11.804C34.1962 11.804 34.8262 12.0607 35.3209 12.574C35.8249 13.0873 36.0769 13.7967 36.0769 14.702V19H34.2709V14.926C34.2709 14.4593 34.1449 14.1047 33.8929 13.862C33.6409 13.61 33.3049 13.484 32.8849 13.484C32.4182 13.484 32.0449 13.6287 31.7649 13.918C31.4849 14.2073 31.3449 14.6413 31.3449 15.22V19H29.5389V9.2H31.3449V12.784C31.7836 12.1307 32.4789 11.804 33.4309 11.804ZM42.939 12H44.745V19H42.939V18.174C42.3976 18.8553 41.637 19.196 40.657 19.196C39.7236 19.196 38.921 18.8413 38.249 18.132C37.5863 17.4133 37.255 16.536 37.255 15.5C37.255 14.464 37.5863 13.5913 38.249 12.882C38.921 12.1633 39.7236 11.804 40.657 11.804C41.637 11.804 42.3976 12.1447 42.939 12.826V12ZM39.607 16.928C39.971 17.292 40.433 17.474 40.993 17.474C41.553 17.474 42.015 17.292 42.379 16.928C42.7523 16.5547 42.939 16.0787 42.939 15.5C42.939 14.9213 42.7523 14.45 42.379 14.086C42.015 13.7127 41.553 13.526 40.993 13.526C40.433 13.526 39.971 13.7127 39.607 14.086C39.243 14.45 39.061 14.9213 39.061 15.5C39.061 16.0787 39.243 16.5547 39.607 16.928ZM50.3866 13.736H48.8046V16.648C48.8046 16.8907 48.8653 17.068 48.9866 17.18C49.108 17.292 49.2853 17.3573 49.5186 17.376C49.752 17.3853 50.0413 17.3807 50.3866 17.362V19C49.1453 19.14 48.268 19.0233 47.7546 18.65C47.2506 18.2767 46.9986 17.6093 46.9986 16.648V13.736H45.7806V12H46.9986V10.586L48.8046 10.04V12H50.3866V13.736ZM53.1756 13.988C53.1756 14.1747 53.2969 14.3287 53.5396 14.45C53.7916 14.562 54.0949 14.6647 54.4496 14.758C54.8043 14.842 55.1589 14.954 55.5136 15.094C55.8683 15.2247 56.1669 15.4487 56.4096 15.766C56.6616 16.0833 56.7876 16.48 56.7876 16.956C56.7876 17.6747 56.5169 18.23 55.9756 18.622C55.4436 19.0047 54.7763 19.196 53.9736 19.196C52.5363 19.196 51.5563 18.6407 51.0336 17.53L52.6016 16.648C52.8069 17.2547 53.2643 17.558 53.9736 17.558C54.6176 17.558 54.9396 17.3573 54.9396 16.956C54.9396 16.7693 54.8136 16.62 54.5616 16.508C54.3189 16.3867 54.0203 16.2793 53.6656 16.186C53.3109 16.0927 52.9563 15.976 52.6016 15.836C52.2469 15.696 51.9436 15.4767 51.6916 15.178C51.4489 14.87 51.3276 14.4873 51.3276 14.03C51.3276 13.3393 51.5796 12.798 52.0836 12.406C52.5969 12.0047 53.2316 11.804 53.9876 11.804C54.5569 11.804 55.0749 11.9347 55.5416 12.196C56.0083 12.448 56.3769 12.812 56.6476 13.288L55.1076 14.128C54.8836 13.652 54.5103 13.414 53.9876 13.414C53.7543 13.414 53.5583 13.4653 53.3996 13.568C53.2503 13.6707 53.1756 13.8107 53.1756 13.988ZM64.4014 19L63.8134 17.236H59.9074L59.3194 19H57.2334L60.6634 9.2H63.0574L66.5014 19H64.4014ZM60.5234 15.43H63.2114L61.8674 11.426L60.5234 15.43ZM71.443 11.804C72.3856 11.804 73.1883 12.1633 73.851 12.882C74.523 13.5913 74.859 14.464 74.859 15.5C74.859 16.536 74.523 17.4133 73.851 18.132C73.1883 18.8413 72.3856 19.196 71.443 19.196C70.463 19.196 69.707 18.8553 69.175 18.174V21.8H67.369V12H69.175V12.826C69.707 12.1447 70.463 11.804 71.443 11.804ZM69.721 16.928C70.085 17.292 70.547 17.474 71.107 17.474C71.667 17.474 72.129 17.292 72.493 16.928C72.8663 16.5547 73.053 16.0787 73.053 15.5C73.053 14.9213 72.8663 14.45 72.493 14.086C72.129 13.7127 71.667 13.526 71.107 13.526C70.547 13.526 70.085 13.7127 69.721 14.086C69.357 14.45 69.175 14.9213 69.175 15.5C69.175 16.0787 69.357 16.5547 69.721 16.928ZM80.2066 11.804C81.1493 11.804 81.952 12.1633 82.6146 12.882C83.2866 13.5913 83.6226 14.464 83.6226 15.5C83.6226 16.536 83.2866 17.4133 82.6146 18.132C81.952 18.8413 81.1493 19.196 80.2066 19.196C79.2266 19.196 78.4706 18.8553 77.9386 18.174V21.8H76.1326V12H77.9386V12.826C78.4706 12.1447 79.2266 11.804 80.2066 11.804ZM78.4846 16.928C78.8486 17.292 79.3106 17.474 79.8706 17.474C80.4306 17.474 80.8926 17.292 81.2566 16.928C81.63 16.5547 81.8166 16.0787 81.8166 15.5C81.8166 14.9213 81.63 14.45 81.2566 14.086C80.8926 13.7127 80.4306 13.526 79.8706 13.526C79.3106 13.526 78.8486 13.7127 78.4846 14.086C78.1206 14.45 77.9386 14.9213 77.9386 15.5C77.9386 16.0787 78.1206 16.5547 78.4846 16.928Z" fill="white"/>
</svg>
