<svg width="264" height="200" viewBox="0 0 264 200" fill="none" xmlns="http://www.w3.org/2000/svg">
<path d="M34.7187 8.88074H29.8313C27.9623 8.88074 26.1362 9.23656 24.3523 9.90511C22.5785 10.6167 20.9766 11.6834 19.5999 13.1947C18.2241 14.705 17.1076 16.7093 16.2543 19.2138L34.7187 8.88074ZM34.7187 8.88074V47.1723H29.8313C27.7797 47.1723 25.8625 46.8599 24.0344 46.2358C22.213 45.614 20.6132 44.5933 19.2824 43.1285C17.9508 41.6628 16.8794 39.7487 16.1213 37.3813C15.3639 35.0164 14.9583 32.0641 14.9583 28.5213C14.9583 24.7995 15.4083 21.7133 16.2542 19.2141L34.7187 8.88074ZM27.0782 55.3884H34.7187V89.0175V89.1675H34.8687H44.3585H44.5085V89.0175V0.859451V0.709451H44.3585H30.1936C26.7567 0.709451 23.4121 1.25158 20.2896 2.42797C17.1653 3.55998 14.4058 5.32586 12.0509 7.63408C9.69325 9.94487 7.83766 12.8424 6.48242 16.3683C5.12603 19.8971 4.44972 23.964 4.44972 28.5663C4.44972 35.1937 5.6223 40.3975 8.02762 44.2533C10.4001 48.0565 13.4765 50.933 17.3149 52.9224L0.863578 88.9105L0.7665 89.1229H1H11.9775H12.0749L12.1145 89.0338L27.0782 55.3884Z" fill="white" stroke="white" stroke-width="0.3" stroke-linecap="round"/>
<path d="M90.2511 26.8524V26.7024H90.1011H80.6113H80.4613V26.8524V53.105H66.457V26.8524V26.7024H66.307H56.678H56.528V26.8524V88.9682V89.1182H56.678H66.307H66.457V88.9682V61.276H80.4613V88.9682V89.1182H80.6113H90.1011H90.2511V88.9682V26.8524ZM130.746 101.157V101.307H130.896H139.339H139.489H139.533V101.157H139.639V81.0967V80.9467H139.489H134.691V26.8524V26.7024H134.541H105.709H105.559V26.8524V32.07C105.559 36.2069 105.515 40.4333 105.375 44.8392L105.375 44.8394C105.242 49.2442 104.974 53.5584 104.524 57.7817C104.073 62.0055 103.444 66.0938 102.637 70.0923C101.838 74.0492 100.729 77.6521 99.3575 80.9016H95.6343H95.4843V81.0516V101.157V101.307H95.6343H104.266H104.416V101.157V89.1182H130.746V101.157ZM181.408 84.9024L181.488 84.8388L181.458 84.7411L179.168 77.2747L179.106 77.0719L178.935 77.1981C177.732 78.0891 176.076 79.0285 173.97 79.9701L173.967 79.9717C171.919 80.9493 169.519 81.3964 166.832 81.3964C164.924 81.3964 163.265 80.9417 161.846 80.0477C160.427 79.1534 159.24 77.8142 158.283 76.0329L158.151 76.1039L158.283 76.0329C156.38 72.4929 155.439 67.2207 155.425 60.2417H181.181H181.331V60.0917V54.7841C181.331 49.5146 180.924 45.0503 180.113 41.393L180.112 41.3917C179.258 37.6937 178.127 34.707 176.632 32.3933L176.632 32.3931C175.131 30.079 173.267 28.3952 171.128 27.3474C168.993 26.3016 166.629 25.8029 164.046 25.8029C160.735 25.8029 157.868 26.7109 155.455 28.4397C153.047 30.1657 151.099 32.5704 149.563 35.692C148.022 38.812 146.943 42.4699 146.223 46.6626L146.223 46.6639C145.541 50.856 145.184 55.497 145.184 60.4963C145.184 70.0926 147.031 77.416 150.747 82.4452C154.465 87.4781 159.549 89.9725 166.024 89.9725C169.143 89.9725 171.991 89.5207 174.572 88.615C177.155 87.71 179.416 86.488 181.408 84.9024ZM169.66 39.088L169.66 39.0892C170.196 40.6954 170.596 42.663 170.823 44.9037C171.042 47.1045 171.174 49.522 171.179 52.0702H155.568C155.885 46.5743 156.65 42.1915 157.89 38.9148C158.513 37.2674 159.331 36.045 160.35 35.2346C161.366 34.4259 162.591 34.0191 164.046 34.0191C165.405 34.0191 166.581 34.4569 167.492 35.3269L167.492 35.3272C168.416 36.2043 169.124 37.439 169.66 39.088ZM200.807 54.9797V26.8524V26.7024H200.657H191.033H190.883V26.8524V88.9682V89.1182H191.033H200.657H200.807V88.9682V58.6263L216.94 89.083L216.982 89.1628H217.073H227.554H227.805L227.687 88.942L210.093 56.088L225.486 26.9224L225.602 26.7024H225.353H215.59H215.499L215.457 26.7832L200.807 54.9797ZM257.652 26.7567L257.651 26.7562C255.874 26.1186 253.609 25.8029 250.808 25.8029C247.186 25.8029 243.968 26.5722 241.2 28.1158C238.437 29.6574 236.124 31.8332 234.267 34.595C232.411 37.3562 231.012 40.7016 230.061 44.673C229.071 48.601 228.619 53.0213 228.619 57.8879C228.619 68.5608 230.51 76.6041 234.314 81.9482C238.121 87.2965 243.383 89.9725 250.089 89.9725C252.983 89.9725 255.478 89.5663 257.525 88.7013C259.561 87.8408 261.419 86.7091 263.096 85.3046L263.173 85.2407L263.143 85.1454L260.937 77.9938L260.868 77.7717L260.694 77.9257C259.537 78.9488 258.112 79.841 256.411 80.6463C254.725 81.4443 252.68 81.8461 250.312 81.8461C248.385 81.8461 246.707 81.326 245.285 80.2841C243.862 79.2412 242.685 77.6686 241.773 75.5498L241.773 75.5496C239.941 71.3039 238.994 65.2552 238.994 57.4382C238.994 49.5305 240.119 43.6248 242.301 39.7905L242.301 39.79C244.49 35.9084 247.278 34.0191 250.674 34.0191C252.629 34.0191 254.494 34.4634 256.228 35.352C257.974 36.247 259.535 37.2746 260.827 38.4337L261.035 38.62L261.076 38.3439L262.424 29.2132L262.438 29.1177L262.357 29.0653C260.953 28.1589 259.372 27.3896 257.652 26.7567ZM108.808 80.9467C110.119 77.7109 111.13 74.2145 111.836 70.3742C112.555 66.4573 113.141 62.4952 113.548 58.4876C113.955 54.4811 114.223 50.5197 114.357 46.6035C114.491 42.7332 114.541 39.1331 114.541 35.8481V34.8737H124.945V80.9467H108.808Z" fill="white" stroke="white" stroke-width="0.3" stroke-linecap="round"/>
<path d="M6.5397 199.514H6.68124L6.68945 199.373L7.5115 185.211H44.0376L44.8652 199.461L44.8734 199.602H45.0149H49.7123H49.8623V199.452V180.322V180.172H49.7123H43.9782V99.1542V99.0042H43.8282H13.7778H13.63L13.6278 99.152C13.4495 111.173 13.2323 121.878 13.0094 131.223L13.0094 131.223C12.7922 140.566 12.3521 148.459 11.6951 154.86L11.695 154.86C11.0826 161.042 10.2088 166.387 9.06894 170.852L9.21428 170.889L9.06894 170.852C7.9373 175.286 6.34028 178.396 4.33337 180.129H1.84241H1.69241V180.279V199.364V199.514H1.84241H6.5397ZM17.3932 154.801L17.3933 154.799C17.8727 148.523 18.2683 141.237 18.5749 132.899C18.8856 124.643 19.1024 114.995 19.2747 104.043H37.6714V180.085H11.3165C12.8302 178.04 14.0888 174.982 15.0604 170.924L15.0607 170.923C16.0323 166.702 16.8189 161.342 17.3932 154.801Z" fill="white" stroke="white" stroke-width="0.3"/>
<path d="M79.8287 180.32L79.8285 180.32C78.3192 180.968 76.5851 181.273 74.5831 181.273C72.3913 181.273 70.4903 180.732 68.8727 179.653C67.2543 178.574 65.9105 176.951 64.844 174.776C62.7205 170.444 61.5856 164.159 61.397 155.862H88.753H88.89L88.9023 155.726C89.3878 150.365 89.3438 145.615 88.7679 141.564C88.198 137.473 87.2304 134.078 85.8615 131.339C84.4924 128.6 82.7212 126.515 80.6335 125.138L80.6323 125.137C78.5012 123.761 76.0992 123.051 73.4409 123.051C70.821 123.051 68.4243 123.761 66.2489 125.182L66.2488 125.182C64.0797 126.601 62.2204 128.682 60.6292 131.418L60.629 131.418C59.0429 134.154 57.8066 137.46 56.9292 141.377C56.0459 145.294 55.6106 149.737 55.6106 154.703C55.6106 164.675 57.1443 172.426 60.1926 177.985C61.7166 180.769 63.675 182.864 66.065 184.262C68.4549 185.659 71.268 186.355 74.494 186.355C76.9208 186.355 79.0455 186.002 80.8209 185.337C82.585 184.675 84.0904 183.88 85.2848 182.993C86.6605 182.06 87.8143 180.863 88.7862 179.492L88.8332 179.425L88.8034 179.35L87.0036 174.787L86.9002 174.525L86.7405 174.757C85.8735 176.018 84.8315 177.146 83.6601 178.012L83.66 178.011L83.6533 178.017C82.612 178.885 81.354 179.667 79.8287 180.32ZM65.2794 134.069L65.2795 134.069C67.544 130.146 70.2668 128.221 73.3964 128.221C76.3477 128.221 78.9414 130.058 80.9431 133.716L81.0685 133.647L80.9431 133.716C82.9275 137.341 83.7235 143.138 83.2568 151.131H61.5318C61.7615 143.628 63.0283 137.96 65.2794 134.069Z" fill="white" stroke="white" stroke-width="0.3"/>
<path d="M105.039 185.257H105.189V185.107V156.256H125.551V185.063V185.213H125.701H131.362H131.512V185.063V124.472V124.322H131.362H125.701H125.551V124.472V151.13H105.189V124.472V124.322H105.039H99.3781H99.2281V124.472V185.107V185.257H99.3781H105.039Z" fill="white" stroke="white" stroke-width="0.3"/>
<path d="M144.706 124.322H144.556V124.472V185.063V185.213H144.706H154.446C160.177 185.213 164.867 183.58 168.499 180.349L168.499 180.349C172.134 177.109 173.943 172.236 173.943 165.802C173.943 159.458 172.224 154.672 168.717 151.519C165.262 148.374 160.615 146.786 154.797 146.786H150.512V124.472V124.322H150.362H144.706ZM164.217 177.095L164.217 177.095C161.575 179.349 158.19 180.482 153.962 180.482H150.512V151.561H154.574C158.849 151.561 162.185 152.694 164.562 154.942C166.932 157.227 168.115 160.864 168.115 165.978C168.115 171.179 166.85 174.855 164.217 177.095Z" fill="white" stroke="white" stroke-width="0.3"/>
<path d="M189.061 185.213H189.211V185.063V129.448H209.154H209.304V129.298V124.472V124.322H209.154H183.528H183.378V124.472V185.063V185.213H183.528H189.061Z" fill="white" stroke="white" stroke-width="0.3"/>
<path d="M246.03 138.459L246.03 138.46C245.946 139.779 245.901 141.231 245.901 142.857V185.02V185.17H246.051H251.445H251.595V185.02V124.429V124.279H251.445H246.53H246.435L246.394 124.366L226.698 166.922C226.698 166.923 226.698 166.923 226.697 166.924C226.181 167.992 225.719 169.062 225.267 170.107C225.143 170.395 225.019 170.681 224.896 170.964L224.896 170.965C224.34 172.252 223.864 173.581 223.472 174.911H223.399C223.527 173.606 223.654 172.298 223.734 170.99C223.824 169.626 223.868 168.175 223.868 166.549V124.473V124.323H223.718H218.408H218.258V124.473V185.064V185.214H218.408H223.234H223.329L223.37 185.127L243.073 142.437L243.073 142.436C243.686 141.077 244.298 139.761 244.872 138.533L244.872 138.532C245.429 137.329 245.906 136.043 246.292 134.714H246.365C246.242 135.935 246.115 137.197 246.03 138.459Z" fill="white" stroke="white" stroke-width="0.3"/>
</svg>
